<?xml version="1.0" encoding="utf-8"?>
<!-- Generator: Adobe Illustrator 19.0.0, SVG Export Plug-In . SVG Version: 6.00 Build 0)  -->
<svg version="1.1" id="Layer_1" xmlns="http://www.w3.org/2000/svg" xmlns:xlink="http://www.w3.org/1999/xlink" x="0px" y="0px"
	 viewBox="0 0 840.3 409.5" style="enable-background:new 0 0 840.3 409.5;" xml:space="preserve">
<style type="text/css">
	.st0{fill:#D0D8DC;}
	.st1{fill:#37474F;}
	.st2{display:none;fill:#FFFFFF;}
	.st3{font-family:'Exo-Bold';}
	.st4{font-size:24px;}
	.st5{fill:#263238;}
	.st6{fill:none;stroke:#FFFFFF;stroke-width:9.3915;stroke-linecap:round;stroke-linejoin:round;}
	.st7{fill:none;stroke:#FFFFFF;stroke-width:9.3915;stroke-linecap:round;stroke-linejoin:round;stroke-dasharray:22.9208,45.6136;}
	.st8{fill:none;stroke:#FFFFFF;stroke-width:9.3915;stroke-linecap:round;stroke-linejoin:round;stroke-miterlimit:10;}
</style>
<path id="XMLID_55_" class="st0" d="M833.3,244.8c-1-8.8-7-14.8-10-17.6C755,162.4,663.5,127.2,584.6,108c0.4-1.9,0.8-4.3,0.8-7.2
	C586.2,56.7,504.5,6.5,430,0.6c-93-7.3-194.4,52.8-194.1,100.3c0,1.1,0.1,2.3,0.2,3.6C113.7,133.3,39.8,187.7,9.6,223.7
	c-3.3,3.9-9,11.1-9.6,21.1c-4,66.4,220,159.7,416.6,159.7C622.7,404.5,839.7,302.4,833.3,244.8z"/>
<path id="XMLID_52_" class="st1" d="M841.8,246.5c6.3,57.6-210.7,159.7-416.6,159.7c-196.7,0-420.7-93.3-416.6-159.7
	c0.6-10.1,6.3-17.3,9.6-21.1C61,174.2,192,85.7,425.2,86.8c0,0,258.1,1.2,406.6,142.1C834.8,231.7,840.8,237.7,841.8,246.5z"/>
<text id="XMLID_1459_" transform="matrix(1 0 0 1 -85.8571 48.0794)" class="st2 st3 st4">Hack</text>
<text id="XMLID_1463_" transform="matrix(1 0 0 1 30.8531 118.4248)" class="st2 st3 st4">Mentor</text>
<text id="XMLID_1464_" transform="matrix(1 0 0 1 -103.6176 224.9234)" class="st2 st3" style="font-size:21px;">volunteer</text>
<ellipse id="XMLID_53_" class="st5" cx="416.7" cy="331.2" rx="153.2" ry="53.5"/>
<g id="XMLID_3_">
	<g id="XMLID_25_">
		<path id="XMLID_28_" class="st6" d="M0.1,244.8c0,0.5,0,1.1,0,1.6c3.3-2,6.7-4,10.2-6"/>
		<path id="XMLID_27_" class="st7" d="M51.1,220.5c153.4-65.6,368.3-64.9,368.3-64.9s190.3,0.6,348.2,60.7"/>
		<path id="XMLID_26_" class="st6" d="M788.8,224.9c3.6,1.5,7.2,3.1,10.8,4.7"/>
	</g>
</g>
<path id="XMLID_60_" class="st8" d="M521,52.1c9.3,4.8,17.5,10,24.4,15.5"/>
<path id="XMLID_54_" class="st8" d="M459.8,30.9c15.6,3.2,30.8,7.9,44.6,13.5"/>
</svg>
