<?xml version="1.0" encoding="utf-8"?>
<!-- Generator: Adobe Illustrator 19.0.0, SVG Export Plug-In . SVG Version: 6.00 Build 0)  -->
<svg version="1.1" id="Layer_1" xmlns="http://www.w3.org/2000/svg" xmlns:xlink="http://www.w3.org/1999/xlink" x="0px" y="0px"
	 viewBox="0 0 423 279.7" style="enable-background:new 0 0 423 279.7;" xml:space="preserve">
<style type="text/css">
	.st0{display:none;}
	.st1{display:inline;fill:#FEED57;}
	.st2{display:inline;fill:#F7901E;}
	.st3{display:inline;fill:#FFD181;}
	.st4{display:inline;fill:#FEF5A0;}
	.st5{display:inline;fill:#F36E44;}
	.st6{display:inline;fill:#F79D81;}
	.st7{fill:#8D6E63;}
	.st8{fill:#795649;}
	.st9{fill:#6D4D42;}
</style>
<g id="XMLID_53_" class="st0">
	<path id="XMLID_44_" class="st1" d="M111,141.2H51.7c2.6,0,4.8,2.2,4.8,4.8s-2.2,4.8-4.8,4.8H111c2.6,0,4.8-2.2,4.8-4.8
		S113.6,141.2,111,141.2z"/>
	<path id="XMLID_47_" class="st1" d="M108.7,160.4H59.5c2.6,0,4.8,2.2,4.8,4.8s-2.2,4.8-4.8,4.8h49.2c2.6,0,4.8-2.2,4.8-4.8
		S111.3,160.4,108.7,160.4z"/>
	<path id="XMLID_18_" class="st1" d="M102.8,141.2H41.5c-2.6,0-4.8-2.2-4.8-4.8v0c0-2.6,2.2-4.8,4.8-4.8h61.4c2.6,0,4.8,2.2,4.8,4.8
		v0C107.6,139,105.5,141.2,102.8,141.2z"/>
	<path id="XMLID_21_" class="st1" d="M92.9,160.4H31.6c-2.6,0-4.8-2.2-4.8-4.8l0,0c0-2.6,2.2-4.8,4.8-4.8h61.4
		c2.6,0,4.8,2.2,4.8,4.8l0,0C97.7,158.2,95.6,160.4,92.9,160.4z"/>
	<path id="XMLID_22_" class="st1" d="M98.4,178.8H37c-2.6,0-4.8-2.2-4.8-4.8v0c0-2.6,2.2-4.8,4.8-4.8h61.4c2.6,0,4.8,2.2,4.8,4.8v0
		C103.2,176.6,101,178.8,98.4,178.8z"/>
	<path id="XMLID_40_" class="st2" d="M148,160.4H99c2.6,0,4.8,2.2,4.8,4.8s-2.2,4.8-4.8,4.8h49c2.6,0,4.8-2.2,4.8-4.8
		S150.7,160.4,148,160.4z"/>
	<path id="XMLID_41_" class="st2" d="M135.7,141.2h-27.6c2.6,0,4.8,2.2,4.8,4.8v0c0,2.6-2.2,4.8-4.8,4.8h27.6c2.6,0,4.8-2.2,4.8-4.8
		v0C140.4,143.4,138.3,141.2,135.7,141.2z"/>
	<path id="XMLID_34_" class="st2" d="M146.1,141.2H84.8c-2.6,0-4.8-2.2-4.8-4.8v0c0-2.6,2.2-4.8,4.8-4.8h61.4c2.6,0,4.8,2.2,4.8,4.8
		v0C150.9,139,148.8,141.2,146.1,141.2z"/>
	<path id="XMLID_36_" class="st2" d="M146.1,160.4H71.1c-2.6,0-4.8-2.2-4.8-4.8v0c0-2.6,2.2-4.8,4.8-4.8h75.1c2.6,0,4.8,2.2,4.8,4.8
		v0C150.9,158.2,148.8,160.4,146.1,160.4z"/>
	<path id="XMLID_38_" class="st2" d="M151.7,178.8H72.5c-2.6,0-4.8-2.2-4.8-4.8v0c0-2.6,2.2-4.8,4.8-4.8h79.2c2.6,0,4.8,2.2,4.8,4.8
		v0C156.5,176.6,154.3,178.8,151.7,178.8z"/>
	<path id="XMLID_33_" class="st2" d="M148.6,178.3l-14.1-5.1c-3-1.1-5.1-3.6-5.7-6.7l-2.6-14.8c-0.5-3.1,0.6-6.2,3-8.3l11.5-9.6
		c2.4-2,5.7-2.6,8.7-1.5l14.1,5.1c3,1.1,5.1,3.6,5.7,6.7l2.6,14.8c0.5,3.1-0.6,6.2-3,8.3l-11.5,9.6
		C154.8,178.8,151.5,179.3,148.6,178.3z"/>
	<path id="XMLID_19_" class="st3" d="M96.4,136.5H85.6c-1,0-1.8-0.8-1.8-1.8l0,0c0-1,0.8-1.8,1.8-1.8h10.8c1,0,1.8,0.8,1.8,1.8l0,0
		C98.2,135.7,97.4,136.5,96.4,136.5z"/>
	<path id="XMLID_20_" class="st3" d="M86.6,156.1H71.1c-1,0-1.8-0.8-1.8-1.8v0c0-1,0.8-1.8,1.8-1.8h15.5c1,0,1.8,0.8,1.8,1.8v0
		C88.4,155.2,87.6,156.1,86.6,156.1z"/>
	<path id="XMLID_45_" class="st3" d="M88,174H72.1c-1,0-1.8-0.8-1.8-1.8l0,0c0-1,0.8-1.8,1.8-1.8H88c1,0,1.8,0.8,1.8,1.8l0,0
		C89.9,173.2,89.1,174,88,174z"/>
	<path id="XMLID_49_" class="st4" d="M56.9,136.5h-14c-1,0-1.8-0.8-1.8-1.8l0,0c0-1,0.8-1.8,1.8-1.8h14c1,0,1.8,0.8,1.8,1.8l0,0
		C58.7,135.7,57.9,136.5,56.9,136.5z"/>
	<path id="XMLID_51_" class="st4" d="M45.8,156.1h-14c-1,0-1.8-0.8-1.8-1.8v0c0-1,0.8-1.8,1.8-1.8h14c1,0,1.8,0.8,1.8,1.8v0
		C47.6,155.2,46.8,156.1,45.8,156.1z"/>
	<path id="XMLID_52_" class="st4" d="M54.6,174h-14c-1,0-1.8-0.8-1.8-1.8l0,0c0-1,0.8-1.8,1.8-1.8h14c1,0,1.8,0.8,1.8,1.8l0,0
		C56.5,173.2,55.6,174,54.6,174z"/>
</g>
<g id="XMLID_50_" class="st0">
	<path id="XMLID_14_" class="st2" d="M112.6,253.5H32.3c6.4,0,11.7,3.8,11.7,8.5s-5.3,8.5-11.7,8.5h80.3c6.4,0,11.7-3.8,11.7-8.5
		S119,253.5,112.6,253.5z"/>
	<path id="XMLID_11_" class="st2" d="M124.8,253.5H-10c-4.7,0-8.5-3.8-8.5-8.5v0c0-4.7,3.8-8.5,8.5-8.5h134.9c4.7,0,8.5,3.8,8.5,8.5
		v0C133.3,249.6,129.5,253.5,124.8,253.5z"/>
	<path id="XMLID_12_" class="st2" d="M132,223.4H61.3c4.3,1.3,7.3,4.3,7.3,7.7v0c0,4.7-5.6,8.5-12.3,8.5h-9.4c1.5,0.5,3.2,0.8,5,0.8
		H132c6.8,0,12.3-3.8,12.3-8.5v0C144.3,227.3,138.7,223.4,132,223.4z"/>
	<path id="XMLID_16_" class="st5" d="M182.6,223.4h-85c4.7,0,8.5,3.8,8.5,8.5v0c0,4.7-3.8,8.5-8.5,8.5h85c4.7,0,8.5-3.8,8.5-8.5v0
		C191,227.3,187.2,223.4,182.6,223.4z"/>
	<path id="XMLID_15_" class="st5" d="M166.5,255.4H97.7c4.7,0,8.5,3.8,8.5,8.5s-3.8,8.5-8.5,8.5h68.8c4.7,0,8.5-3.8,8.5-8.5
		S171.2,255.4,166.5,255.4z"/>
	<path id="XMLID_13_" class="st2" d="M124.8,287.4H14c-4.7,0-8.5-3.8-8.5-8.5v0c0-4.7,3.8-8.5,8.5-8.5h110.9c4.7,0,8.5,3.8,8.5,8.5
		v0C133.3,283.6,129.5,287.4,124.8,287.4z"/>
	<path id="XMLID_8_" class="st2" d="M135.8,223.4H37.5c-4.7,0-8.5-3.8-8.5-8.5v0c0-4.7,3.8-8.5,8.5-8.5h98.4c4.7,0,8.5,3.8,8.5,8.5
		v0C144.3,219.6,140.5,223.4,135.8,223.4z"/>
	<path id="XMLID_5_" class="st5" d="M151.8,255.4h-90c-4.7,0-8.5-3.8-8.5-8.5v0c0-4.7,3.8-8.5,8.5-8.5h90c4.7,0,8.5,3.8,8.5,8.5v0
		C160.3,251.6,156.5,255.4,151.8,255.4z"/>
	<path id="XMLID_7_" class="st5" d="M183.5,287.4H75.8c-4.7,0-8.5-3.8-8.5-8.5v0c0-4.7,3.8-8.5,8.5-8.5h107.7c4.7,0,8.5,3.8,8.5,8.5
		v0C192,283.6,188.2,287.4,183.5,287.4z"/>
	<path id="XMLID_9_" class="st5" d="M195.2,223.4h-113c-4.7,0-8.5-3.8-8.5-8.5v0c0-4.7,3.8-8.5,8.5-8.5h113c4.7,0,8.5,3.8,8.5,8.5v0
		C203.6,219.6,199.8,223.4,195.2,223.4z"/>
	<path id="XMLID_4_" class="st5" d="M162.5,274.6l-8.6-14.9c-4.6-7.9-4.6-17.6,0-25.5l8.6-14.9c4.6-7.9,13-12.8,22.1-12.8h17.2
		c9.1,0,17.5,4.9,22.1,12.8l8.6,14.9c4.6,7.9,4.6,17.6,0,25.5l-8.6,14.9c-4.6,7.9-13,12.8-22.1,12.8h-17.2
		C175.5,287.4,167.1,282.5,162.5,274.6z"/>
	<path id="XMLID_17_" class="st1" d="M30.5,265H-8.3c-1.7,0-3.1-1.4-3.1-3.1v0c0-1.7,1.4-3.1,3.1-3.1h38.8c1.7,0,3.1,1.4,3.1,3.1v0
		C33.6,263.6,32.2,265,30.5,265z"/>
	<path id="XMLID_23_" class="st6" d="M130.2,215.2H81.4c-1.7,0-3.1-1.4-3.1-3.1l0,0c0-1.7,1.4-3.1,3.1-3.1h48.8
		c1.7,0,3.1,1.4,3.1,3.1l0,0C133.3,213.8,131.9,215.2,130.2,215.2z"/>
	<path id="XMLID_24_" class="st6" d="M75.3,246.6H60.5c-1.7,0-3.1-1.4-3.1-3.1v0c0-1.7,1.4-3.1,3.1-3.1h14.8c1.7,0,3.1,1.4,3.1,3.1
		v0C78.3,245.2,76.9,246.6,75.3,246.6z"/>
	<path id="XMLID_25_" class="st6" d="M102.7,278.9H75.5c-1.7,0-3.1-1.4-3.1-3.1l0,0c0-1.7,1.4-3.1,3.1-3.1h27.3
		c1.7,0,3.1,1.4,3.1,3.1l0,0C105.8,277.5,104.4,278.9,102.7,278.9z"/>
	<path id="XMLID_26_" class="st3" d="M51.5,215.2H36.7c-1.7,0-3.1-1.4-3.1-3.1l0,0c0-1.7,1.4-3.1,3.1-3.1h14.8
		c1.7,0,3.1,1.4,3.1,3.1l0,0C54.5,213.8,53.2,215.2,51.5,215.2z"/>
	<path id="XMLID_27_" class="st3" d="M24.8,245h-35.3c-1.7,0-3.1-1.4-3.1-3.1l0,0c0-1.7,1.4-3.1,3.1-3.1h35.3c1.7,0,3.1,1.4,3.1,3.1
		l0,0C27.8,243.6,26.5,245,24.8,245z"/>
	<path id="XMLID_28_" class="st3" d="M29.2,278.9H14.5c-1.7,0-3.1-1.4-3.1-3.1l0,0c0-1.7,1.4-3.1,3.1-3.1h14.8
		c1.7,0,3.1,1.4,3.1,3.1l0,0C32.3,277.5,30.9,278.9,29.2,278.9z"/>
	<path id="XMLID_3_" class="st1" d="M32.8,231.4H4.2c-1.7,0-3.1-1.4-3.1-3.1l0,0c0-1.7,1.4-3.1,3.1-3.1h28.7c1.7,0,3.1,1.4,3.1,3.1
		l0,0C35.9,230,34.5,231.4,32.8,231.4z"/>
	<path id="XMLID_6_" class="st1" d="M12.5,218.2h-35.2c-1.7,0-3.1-1.4-3.1-3.1l0,0c0-1.7,1.4-3.1,3.1-3.1h35.2
		c1.7,0,3.1,1.4,3.1,3.1l0,0C15.6,216.9,14.2,218.2,12.5,218.2z"/>
	<path id="XMLID_10_" class="st1" d="M2.4,293.8h-23c-1.7,0-3.1-1.4-3.1-3.1l0,0c0-1.7,1.4-3.1,3.1-3.1h23c1.7,0,3.1,1.4,3.1,3.1
		l0,0C5.5,292.4,4.1,293.8,2.4,293.8z"/>
</g>
<g id="XMLID_57_">
	<path id="XMLID_2_" class="st7" d="M223.8,209.8l-23.4-40.5c-12.4-21.4-12.4-47.8,0-69.2l23.4-40.5c12.4-21.4,35.2-34.6,59.9-34.6
		h46.7c24.7,0,47.6,13.2,59.9,34.6l23.4,40.5c12.4,21.4,12.4,47.8,0,69.2l-23.4,40.5c-12.4,21.4-35.2,34.6-59.9,34.6h-46.7
		C259,244.4,236.2,231.2,223.8,209.8z"/>
	<path id="XMLID_29_" class="st8" d="M233.5,201l-20.6-35.7c-10.9-18.9-10.9-42.2,0-61.1l20.6-35.7c10.9-18.9,31.1-30.6,53-30.6
		h41.3c21.8,0,42,11.7,53,30.6l20.6,35.7c10.9,18.9,10.9,42.2,0,61.1L380.7,201c-10.9,18.9-31.1,30.6-53,30.6h-41.3
		C264.6,231.6,244.4,220,233.5,201z"/>
	<path id="XMLID_35_" class="st9" d="M278.3,92.6l-6.9,2.7c-2.7,1-5.7,0.6-8-1.2l-5.8-4.6c-2.2-1.8-3.4-4.7-2.9-7.5l1.1-7.3
		c0.4-2.8,2.4-5.2,5.1-6.3l6.9-2.7c2.7-1,5.7-0.6,8,1.2l5.8,4.6c2.2,1.8,3.4,4.7,2.9,7.5l-1.1,7.3C282.9,89.2,281,91.6,278.3,92.6z"
		/>
	<path id="XMLID_37_" class="st9" d="M252.4,157.8l-5.4,2.1c-2.1,0.8-4.4,0.4-6.2-1l-4.5-3.6c-1.7-1.4-2.6-3.6-2.3-5.8l0.9-5.7
		c0.3-2.2,1.8-4.1,3.9-4.9l5.4-2.1c2.1-0.8,4.4-0.4,6.2,1l4.5,3.6c1.7,1.4,2.6,3.6,2.3,5.8l-0.9,5.7
		C256,155.1,254.5,157,252.4,157.8z"/>
	<path id="XMLID_39_" class="st9" d="M322.1,207.1l-10.9,4.2c-4.3,1.7-9.1,0.9-12.6-1.9l-9.1-7.4c-3.6-2.9-5.3-7.4-4.6-11.9
		l1.8-11.6c0.7-4.5,3.7-8.3,8-10l10.9-4.2c4.3-1.7,9.1-0.9,12.6,1.9l9.1,7.4c3.6,2.9,5.3,7.4,4.6,11.9l-1.8,11.6
		C329.4,201.7,326.3,205.5,322.1,207.1z"/>
	<path id="XMLID_42_" class="st9" d="M382.5,151.6l-8.6,3.3c-3.3,1.3-7.1,0.7-9.9-1.5l-7.2-5.8c-2.8-2.2-4.2-5.8-3.6-9.4l1.4-9.1
		c0.5-3.5,2.9-6.5,6.3-7.8l8.6-3.3c3.3-1.3,7.1-0.7,9.9,1.5l7.2,5.8c2.8,2.2,4.2,5.8,3.6,9.4l-1.4,9.1
		C388.2,147.3,385.8,150.3,382.5,151.6z"/>
	<path id="XMLID_43_" class="st9" d="M331.9,101.1l-4.2-3.9c-1.6-1.5-2.3-3.8-1.8-6l1.3-5.6c0.5-2.2,2.1-3.9,4.3-4.6l5.5-1.7
		c2.1-0.6,4.5-0.1,6.1,1.4l4.2,3.9c1.6,1.5,2.3,3.8,1.8,6l-1.3,5.6c-0.5,2.2-2.1,3.9-4.3,4.6l-5.5,1.7
		C335.8,103.2,333.5,102.7,331.9,101.1z"/>
</g>
<g id="XMLID_54_">
	<path id="XMLID_32_" class="st7" d="M59,122.3l-37-13.5C14.2,106,8.6,99.2,7.2,91.1L0.3,52.3C-1.1,44.2,1.9,36,8.3,30.7L38.4,5.4
		c6.3-5.3,15-6.8,22.7-4l37,13.5c7.7,2.8,13.4,9.6,14.8,17.7l6.8,38.8c1.4,8.1-1.6,16.4-7.9,21.7l-30.2,25.3
		C75.4,123.6,66.7,125.1,59,122.3z"/>
	<path id="XMLID_30_" class="st8" d="M59.1,112l-30.7-11.2c-6.4-2.3-11.1-7.9-12.3-14.7L10.5,54c-1.2-6.7,1.3-13.6,6.6-18l25-21
		c5.2-4.4,12.4-5.7,18.9-3.3l30.7,11.2c6.4,2.3,11.1,7.9,12.3,14.7l5.7,32.2c1.2,6.7-1.3,13.6-6.6,18l-25,21
		C72.8,113.1,65.6,114.3,59.1,112z"/>
	<path id="XMLID_46_" class="st9" d="M82.9,83.3l-3.2-3c-1.2-1.2-1.7-2.9-1.4-4.5l1-4.2c0.4-1.6,1.6-2.9,3.2-3.4l4.1-1.3
		c1.6-0.5,3.4-0.1,4.6,1.1l3.2,3c1.2,1.2,1.7,2.9,1.4,4.5l-1,4.2c-0.4,1.6-1.6,2.9-3.2,3.4l-4.1,1.3C85.8,84.9,84.1,84.5,82.9,83.3z
		"/>
	<path id="XMLID_48_" class="st9" d="M52.2,72.9l-8.6,3.3c-3.3,1.3-7.1,0.7-9.9-1.5L26.5,69c-2.8-2.2-4.2-5.8-3.6-9.4l1.4-9.1
		c0.5-3.5,2.9-6.5,6.3-7.8l8.6-3.3c3.3-1.3,7.1-0.7,9.9,1.5l7.2,5.8c2.8,2.2,4.2,5.8,3.6,9.4l-1.4,9.1C58,68.7,55.6,71.6,52.2,72.9z
		"/>
</g>
<g id="XMLID_1_">
	<path id="XMLID_31_" class="st7" d="M166.6,274.9l-10.8,3.9c-4.6,1.7-9.8,0.8-13.6-2.4l-8.8-7.4c-3.8-3.2-5.6-8.1-4.7-13l2-11.3
		c0.9-4.9,4.2-8.9,8.9-10.6l10.8-3.9c4.6-1.7,9.8-0.8,13.6,2.4l8.8,7.4c3.8,3.2,5.6,8.1,4.7,13l-2,11.3
		C174.6,269.2,171.2,273.2,166.6,274.9z"/>
	<path id="XMLID_55_" class="st8" d="M164.2,271.4l-8.9,3.3c-3.8,1.4-8.1,0.6-11.3-2l-7.3-6.1c-3.1-2.6-4.6-6.7-3.9-10.7l1.6-9.4
		c0.7-4,3.5-7.4,7.3-8.8l8.9-3.3c3.8-1.4,8.1-0.6,11.3,2l7.3,6.1c3.1,2.6,4.6,6.7,3.9,10.7l-1.6,9.4
		C170.9,266.7,168.1,270,164.2,271.4z"/>
	<path id="XMLID_56_" class="st9" d="M153.8,259.7l-3.9,1.5c-1.5,0.6-3.2,0.3-4.5-0.7l-3.3-2.6c-1.3-1-1.9-2.6-1.6-4.2l0.6-4.1
		c0.2-1.6,1.3-3,2.8-3.5l3.9-1.5c1.5-0.6,3.2-0.3,4.5,0.7l3.3,2.6c1.3,1,1.9,2.6,1.6,4.2l-0.6,4.1
		C156.4,257.8,155.3,259.1,153.8,259.7z"/>
</g>
</svg>
