<?xml version="1.0" encoding="utf-8"?>
<!-- Generator: Adobe Illustrator 19.0.0, SVG Export Plug-In . SVG Version: 6.00 Build 0)  -->
<svg version="1.1" id="Layer_1" xmlns="http://www.w3.org/2000/svg" xmlns:xlink="http://www.w3.org/1999/xlink" x="0px" y="0px"
	 viewBox="0 0 1009.7 335.7" style="enable-background:new 0 0 1009.7 335.7;" xml:space="preserve">
<style type="text/css">
	.st0{fill:#EE2749;}
	.st1{fill:#F05455;}
	.st2{fill:#FAF291;stroke:#FFFFFF;stroke-width:7.8124;stroke-miterlimit:10;}
	.st3{fill:#FAF291;}
	.st4{fill:#F36E44;}
	.st5{fill:#BE3A26;}
	.st6{fill:#FFD740;}
	.st7{fill:none;stroke:#FFFFFF;stroke-width:3.9062;stroke-linecap:round;stroke-miterlimit:10;}
	.st8{opacity:0.4;fill:#FEF9C5;}
	.st9{fill:#ECEFF0;}
</style>
<g id="XMLID_1_">
	<path id="XMLID_592_" class="st0" d="M1009.7,150.9c-32.8-27.9-62-50.7-85.8-68.6C867.4,40,833.8,20.2,792.5,6
		c-2-0.7-3.6-1.2-4.7-1.6c0,0-2.6-0.9-5.3-1.7c-53.8-16.2-211.6,46.6-211.6,46.6c-23.4,9.4-50.2,19.8-103.6,40.6
		c-50.1,19.6-91.2,35.3-118.2,45.5c-15.1,5.7-25,19.8-25,35.1c0,20,17.1,31,18.1,31.6c59.5,19.6,107.1,37.6,139.3,50.3
		c0,0,240.4,94.8,308.2,71.4c1.7-0.6,3.5-1.3,3.9-1.4c0,0,0.1,0,0.1,0c1.9-0.7,2.9-1,5.9-1.9c56.3-16.2,138.2-93.5,138.2-93.5
		C957.4,208.4,982.6,183,1009.7,150.9z"/>
	<path id="XMLID_4_" class="st1" d="M923.8,82.3C867.4,40,833.8,20.2,792.5,6c-2-0.7-3.6-1.2-4.7-1.6c0,0-2.6-0.9-5.3-1.7
		c-1-0.3-2-0.6-3-0.8c-81,87.9-78.9,224.8,6.4,310c3.3,3.3,6.8,6.5,10.3,9.6c0.8-0.3,1.8-0.6,3.3-1c56.3-16.2,138.2-93.5,138.2-93.5
		c19.9-18.8,45-44.1,72.1-76.2C976.9,123.1,947.6,100.2,923.8,82.3z"/>
	<circle id="XMLID_597_" class="st2" cx="815.5" cy="162.6" r="54.9"/>
	<path id="XMLID_595_" class="st3" d="M489.9,81.8c-16.3-32.3-36.5-48.9-50.3-57.6C374.3-17.1,271.1,3.7,185,79.2
		c72.3,12.1,144.6,24.2,216.9,36.3C431.2,104.3,460.5,93,489.9,81.8z"/>
	<path id="XMLID_589_" class="st3" d="M494,256.3c-14.7,32.4-34.1,49.1-47.5,58C383.3,356,279.1,335.9,189.2,261
		c71.7-12.6,143.3-25.2,215-37.9C434.2,234.2,464.1,245.3,494,256.3z"/>
	<path id="XMLID_582_" class="st4" d="M744.7,311c-82-82-82-214.9,0-296.9c5-5,10.2-9.6,15.5-14c-65.7,0-189.4,49.2-189.4,49.2
		c-23.4,9.4-50.2,19.8-103.6,40.6c-50.1,19.6-91.2,35.3-118.2,45.5c-16.2,4.5-27.3,18.8-27.3,34.6c0,13.4,8,25.8,20.4,32.1
		c59.5,19.6,107.1,37.6,139.3,50.3c0,0,193.1,76.2,281.9,75.1C756.9,322.5,750.7,317,744.7,311z"/>
	<path id="XMLID_7_" class="st5" d="M349.3,135.3c-2.5,0.4-7.8,1.7-12.6,6c-2.4,2.2-3.9,4.5-4.8,6.2c33.8,18.4,71.3,36.6,112.6,53.6
		c20.8,8.6,41,16.2,60.6,23.1c0,0,132.8,52.5,230.5,70.7c-61.3-78.3-60.6-189.2,2.2-266.5C746.1,19,754.5,9.5,763,0
		c-6.6,0.1-18.9,0.6-34.1,2.3c0,0-45.9,5.2-153.6,45.4C533.5,63.3,512.9,72.1,469.7,89C418.4,109.2,376.5,125.1,349.3,135.3z"/>
	<path id="XMLID_584_" class="st3" d="M240.6,165.5c78.4-20.1,139.9-19.9,181.8-15.9c7.9,0.8,63.2,6.1,63.4,14.9
		c0.2,8.9-56.8,16.6-62.8,17.4c-31.5,4.2-76,6.7-131.3-1.6C274.6,175.4,257.6,170.5,240.6,165.5z"/>
	<path id="XMLID_5_" class="st6" d="M189.9,80.1c70.6,11.8,141.3,23.7,211.9,35.5c29.4-11.3,58.7-22.5,88.1-33.8
		c-10-19.7-21.3-33.5-31.9-43.3C388.1,2,282.5,17.8,189.9,80.1z"/>
	<path id="XMLID_6_" class="st6" d="M404.3,223.2c-70.1,12.3-140.1,24.7-210.2,37c91.2,62.8,192.5,77.5,255.8,38.4
		c11.9-7.4,28.2-20.2,42.4-42.8C463,244.9,433.6,234,404.3,223.2z"/>
	<path id="XMLID_10_" class="st7" d="M851.6,178.8c-1,3.8-2.5,7.4-4.3,10.9"/>
	<path id="XMLID_9_" class="st7" d="M848.4,141c3.2,6.8,5,14.3,5.1,22.2"/>
</g>
<path id="XMLID_475_" class="st8" d="M290.3,277.5v-16.6c0-1.6,1.3-2.9,2.9-2.9h70.2c1.6,0,2.9,1.3,2.9,2.9v16.6
	c0,1.6-1.3,2.9-2.9,2.9h-70.2C291.6,280.4,290.3,279.1,290.3,277.5z"/>
<path id="XMLID_474_" class="st8" d="M381.7,67.8V51.1c0-1.6,1.3-2.9,2.9-2.9h44.3c1.6,0,2.9,1.3,2.9,2.9v16.6
	c0,1.6-1.3,2.9-2.9,2.9h-44.3C382.9,70.6,381.7,69.3,381.7,67.8z"/>
<path id="XMLID_2_" class="st9" d="M169.2,148.5H5.2c-2.9,0-5.2-2.4-5.2-5.2l0-30.4c0-2.9,2.4-5.2,5.2-5.2h164
	c2.9,0,5.2,2.4,5.2,5.2v30.4C174.4,146.1,172.1,148.5,169.2,148.5z"/>
<path id="XMLID_8_" class="st9" d="M223.1,234.2h-97.4c-2.3,0-4.3-1.9-4.3-4.3v-24.8c0-2.3,1.9-4.3,4.3-4.3h97.4
	c2.3,0,4.3,1.9,4.3,4.3v24.8C227.4,232.2,225.4,234.2,223.1,234.2z"/>
</svg>
