<?xml version="1.0" encoding="utf-8"?>
<!-- Generator: Adobe Illustrator 22.1.0, SVG Export Plug-In . SVG Version: 6.00 Build 0)  -->
<svg version="1.1" id="Layer_1" xmlns="http://www.w3.org/2000/svg" xmlns:xlink="http://www.w3.org/1999/xlink" x="0px" y="0px"
	 viewBox="0 0 180 180" style="enable-background:new 0 0 180 180;" xml:space="preserve">
<style type="text/css">
	.st0{fill:#777777;stroke:#FFFFFF;stroke-width:6;stroke-miterlimit:10;}
	.st1{fill:#FFFFFF;}
	.st2{font-family:'Bungee-Regular';}
	.st3{font-size:33.5332px;}
	.st4{fill:none;stroke:#FFFFFF;stroke-width:4;stroke-miterlimit:10;}
	.st5{fill:#B5B5B5;stroke:#969696;stroke-miterlimit:10;}
	.st6{fill:#969696;}
</style>
<g>
	<polygon class="st0" points="125.3,3.5 90,3.5 54.7,3.5 7,54.7 7,127.1 54.7,176.5 90,176.5 125.3,176.5 173,127.1 173,54.7 	"/>
	<text transform="matrix(1 0 0 1 21.3862 85.8804)"><tspan x="0" y="0" class="st1 st2 st3">Scroll </tspan><tspan x="21.9" y="40.2" class="st1 st2 st3">down</tspan></text>
</g>
<g>
	<g>
		<path class="st1" d="M101,34.1c0.3,1.2,0.4,2.2,0.5,3.2c-0.5,0.7-0.9,1.5-1.3,2.2l-2.6,4.5L95,48.5l-1.3,2.2c-1,0.4-1.9,0.9-3,1.2
			c-0.3-1.1-0.3-2.2-0.4-3.2l1.3-2.2l2.6-4.5l2.6-4.5c0.4-0.8,0.9-1.5,1.3-2.2C98.9,34.9,99.8,34.4,101,34.1z"/>
	</g>
	<g>
		<path class="st1" d="M80,34.3c1.2,0.3,2.1,0.7,3.1,1.2c0.4,0.8,0.9,1.5,1.3,2.2l2.7,4.4l2.7,4.4l1.3,2.2c-0.1,1.1-0.1,2.1-0.4,3.2
			c-1.1-0.3-2.1-0.8-3-1.2l-1.3-2.2l-2.7-4.4l-2.7-4.4c-0.5-0.7-0.9-1.5-1.3-2.2C79.7,36.5,79.7,35.4,80,34.3z"/>
	</g>
	<line class="st4" x1="90.6" y1="50.4" x2="90.4" y2="18"/>
</g>
<g>
	<circle class="st5" cx="58.5" cy="166.5" r="3.5"/>
	<circle class="st6" cx="58.5" cy="166.5" r="2"/>
</g>
<g>
	<circle class="st5" cx="122" cy="167" r="3.5"/>
	<circle class="st6" cx="122" cy="167" r="2"/>
</g>
<g>
	<circle class="st5" cx="17" cy="122" r="3.5"/>
	<circle class="st6" cx="17" cy="122" r="2"/>
</g>
<g>
	<circle class="st5" cx="17" cy="59" r="3.5"/>
	<circle class="st6" cx="17" cy="59" r="2"/>
</g>
<g>
	<circle class="st5" cx="59" cy="13" r="3.5"/>
	<circle class="st6" cx="59" cy="13" r="2"/>
</g>
<g>
	<circle class="st5" cx="121" cy="11" r="3.5"/>
	<circle class="st6" cx="121" cy="11" r="2"/>
</g>
<g>
	<circle class="st5" cx="164" cy="59" r="3.5"/>
	<circle class="st6" cx="164" cy="59" r="2"/>
</g>
<g>
	<circle class="st5" cx="165" cy="123" r="3.5"/>
	<circle class="st6" cx="165" cy="123" r="2"/>
</g>
</svg>
