<svg xmlns="http://www.w3.org/2000/svg" xmlns:xlink="http://www.w3.org/1999/xlink" viewBox="0 0 2048 2048"><defs><style>.cls-1{fill:url(#radial-gradient);}.cls-2{isolation:isolate;}.cls-3{clip-path:url(#clip-path);}.cls-4{fill:url(#radial-gradient-3);}.cls-5,.cls-7{fill:none;}.cls-6{opacity:0.15;fill:url(#radial-gradient-4);}.cls-6,.cls-7{mix-blend-mode:screen;}.cls-7{stroke:#fff;stroke-width:2.18px;opacity:0.03;}.cls-10,.cls-11,.cls-7{stroke-miterlimit:10;}.cls-10,.cls-11,.cls-8{fill:#204751;}.cls-8{opacity:0.46;}.cls-9{fill:#00ff4e;}.cls-10,.cls-11{stroke:#000;}.cls-10{stroke-width:14.99px;}.cls-11{stroke-width:7.28px;}.cls-12{fill:#001e08;}</style><radialGradient id="radial-gradient" cx="1370.89" cy="-766.85" r="1061.63" gradientTransform="translate(97.92 -424.63) scale(0.72 0.74)" gradientUnits="userSpaceOnUse"><stop offset="0" stop-color="#1b0061"/><stop offset="0.24" stop-color="#1b0263"/><stop offset="0.33" stop-color="#190968"/><stop offset="0.39" stop-color="#161471"/><stop offset="0.44" stop-color="#12257f"/><stop offset="0.49" stop-color="#0d3b91"/><stop offset="0.53" stop-color="#0656a6"/><stop offset="0.56" stop-color="#0071bc"/><stop offset="0.56" stop-color="#006db3"/><stop offset="0.57" stop-color="#006298"/><stop offset="0.58" stop-color="#005984"/><stop offset="0.59" stop-color="#005375"/><stop offset="0.6" stop-color="#004f6d"/><stop offset="0.63" stop-color="#004e6a"/><stop offset="0.68" stop-color="#003d53"/><stop offset="0.77" stop-color="#00232f"/><stop offset="0.86" stop-color="#001015"/><stop offset="0.94" stop-color="#000406"/><stop offset="1"/></radialGradient><clipPath id="clip-path"><ellipse id="_Ellipse_" data-name="&lt;Ellipse&gt;" class="cls-1" cx="1084.19" cy="-989.48" rx="763.5" ry="782.25"/></clipPath><radialGradient id="radial-gradient-3" cx="1207.7" cy="-830.62" r="1168.73" gradientTransform="translate(-53.13 -175.28) scale(0.98 0.88)" xlink:href="#radial-gradient"/><radialGradient id="radial-gradient-4" cx="1370.5" cy="-767.27" r="1458.28" gradientTransform="translate(97.92 -424.63) scale(0.72 0.74)" gradientUnits="userSpaceOnUse"><stop offset="0" stop-color="#230000"/><stop offset="0.73" stop-color="#93432a"/><stop offset="1" stop-color="#230000"/></radialGradient></defs><title>CEAS AI Hack</title><g class="cls-2"><g id="Layer_4" data-name="Layer 4"><ellipse id="_Ellipse_2" data-name="&lt;Ellipse&gt;" class="cls-1" cx="1084.19" cy="-989.48" rx="763.5" ry="782.25"/><g class="cls-3"><rect class="cls-4" x="336.25" y="-2172.66" width="1586.12" height="2533.91" transform="translate(28.94 34.95) rotate(-1.8)"/><polyline class="cls-5" points="1083.9 -989.79 1182.51 -1313.36 1083.9 -989.79 985.29 -666.21 1083.9 -989.79 1399.94 -888.83 1083.9 -989.79 767.86 -1090.74 1083.9 -989.79 863.27 -3084.17 1083.9 -989.79 1304.53 1104.6 1083.9 -989.79 3129.53 -1215.68 1083.9 -989.79 -961.72 -763.89 1083.9 -989.79 638.52 -2856.71 1083.9 -989.79 1529.28 877.14 1083.9 -989.79 2907.36 -1445.78 1083.9 -989.79 -739.56 -533.79 1083.9 -989.79 646.64 -2653.51 1083.9 -989.79 1521.16 673.94 1083.9 -989.79 2708.9 -1437.46 1083.9 -989.79 -541.09 -542.11 1083.9 -989.79 1425.13 -2994.14 1083.9 -989.79 742.67 1014.57 1083.9 -989.79 3041.59 -640.43 1083.9 -989.79 -873.79 -1339.15 1083.9 -989.79 2865.99 -2779.14 1083.9 -989.79 -698.19 799.57 1083.9 -989.79 2831.6 834.78 1083.9 -989.79 -663.8 -2814.35 1083.9 -989.79 1585.71 -1734.33 1083.9 -989.79 582.09 -245.24 1083.9 -989.79 1811.11 -476.02 1083.9 -989.79 356.69 -1503.55 1083.9 -989.79 589.28 -2211.47 1083.9 -989.79 1578.52 231.89 1083.9 -989.79 2277.14 -1496.2 1083.9 -989.79 -109.34 -483.38 1083.9 -989.79 1587.7 -2384.41 1083.9 -989.79 580.1 404.84 1083.9 -989.79 2446.06 -473.97 1083.9 -989.79 -278.26 -1505.6 1083.9 -989.79 3349.76 -2263.81 1083.9 -989.79 -1181.96 284.24 1083.9 -989.79 2328.27 1330.08 1083.9 -989.79 -160.47 -3309.65 1083.9 -989.79 2567.09 -2881.52 1083.9 -989.79 -399.28 901.94 1083.9 -989.79 2931.59 528.75 1083.9 -989.79 -763.79 -2508.32 1083.9 -989.79 762.9 -1919.03 1083.9 -989.79 1404.9 -60.54 1083.9 -989.79 1991.52 -1318.43 1083.9 -989.79 176.29 -661.14 1083.9 -989.79 1294.84 -1761.13 1083.9 -989.79 872.96 -218.44 1083.9 -989.79 1837.29 -773.82 1083.9 -989.79 330.51 -1205.76 1083.9 -989.79 1762.76 -1846.68 1083.9 -989.79 405.04 -132.89 1083.9 -989.79 1920.85 -294.75 1083.9 -989.79 246.95 -1684.83 1083.9 -989.79 1847.67 -1731.84 1083.9 -989.79 320.14 -247.74 1083.9 -989.79 1808.68 -207.82 1083.9 -989.79 359.13 -1771.76"/><ellipse class="cls-6" cx="1083.9" cy="-989.79" rx="1049.14" ry="1074.15"/><polyline class="cls-7" points="1083.9 -989.79 1182.51 -1313.36 1083.9 -989.79 985.29 -666.21 1083.9 -989.79 1399.94 -888.83 1083.9 -989.79 767.86 -1090.74 1083.9 -989.79 863.27 -3084.17 1083.9 -989.79 1304.53 1104.6 1083.9 -989.79 3129.53 -1215.68 1083.9 -989.79 -961.72 -763.89 1083.9 -989.79 638.52 -2856.71 1083.9 -989.79 1529.28 877.14 1083.9 -989.79 2907.36 -1445.78 1083.9 -989.79 -739.56 -533.79 1083.9 -989.79 646.64 -2653.51 1083.9 -989.79 1521.16 673.94 1083.9 -989.79 2708.9 -1437.46 1083.9 -989.79 -541.09 -542.11 1083.9 -989.79 1425.13 -2994.14 1083.9 -989.79 742.67 1014.57 1083.9 -989.79 3041.59 -640.43 1083.9 -989.79 -873.79 -1339.15 1083.9 -989.79 2865.99 -2779.14 1083.9 -989.79 -698.19 799.57 1083.9 -989.79 2831.6 834.78 1083.9 -989.79 -663.8 -2814.35 1083.9 -989.79 1585.71 -1734.33 1083.9 -989.79 582.09 -245.24 1083.9 -989.79 1811.11 -476.02 1083.9 -989.79 356.69 -1503.55 1083.9 -989.79 589.28 -2211.47 1083.9 -989.79 1578.52 231.89 1083.9 -989.79 2277.14 -1496.2 1083.9 -989.79 -109.34 -483.38 1083.9 -989.79 1587.7 -2384.41 1083.9 -989.79 580.1 404.84 1083.9 -989.79 2446.06 -473.97 1083.9 -989.79 -278.26 -1505.6 1083.9 -989.79 3349.76 -2263.81 1083.9 -989.79 -1181.96 284.24 1083.9 -989.79 2328.27 1330.08 1083.9 -989.79 -160.47 -3309.65 1083.9 -989.79 2567.09 -2881.52 1083.9 -989.79 -399.28 901.94 1083.9 -989.79 2931.59 528.75 1083.9 -989.79 -763.79 -2508.32 1083.9 -989.79 762.9 -1919.03 1083.9 -989.79 1404.9 -60.54 1083.9 -989.79 1991.52 -1318.43 1083.9 -989.79 176.29 -661.14 1083.9 -989.79 1294.84 -1761.13 1083.9 -989.79 872.96 -218.44 1083.9 -989.79 1837.29 -773.82 1083.9 -989.79 330.51 -1205.76 1083.9 -989.79 1762.76 -1846.68 1083.9 -989.79 405.04 -132.89 1083.9 -989.79 1920.85 -294.75 1083.9 -989.79 246.95 -1684.83 1083.9 -989.79 1847.67 -1731.84 1083.9 -989.79 320.14 -247.74 1083.9 -989.79 1808.68 -207.82 1083.9 -989.79 359.13 -1771.76"/></g><circle class="cls-8" cx="1026" cy="1024" r="971.2"/><circle class="cls-9" cx="1094" cy="1092" r="872.8"/><path d="M370.31,495.63c-3.44,0-5-1.51-5-4.95V401.51c0-3.44,1.52-4.95,5-4.95H414.2c18,0,26.42,6.61,26.42,21.05v6.61c0,7.7-2.61,12.52-8.12,14.86,11.84,1.1,17.34,7.84,17.34,21.33v12.66c0,15.41-8.39,22.56-26.69,22.56Zm26-60.82H408c3.58,0,5.23-1.78,5.23-5.5v-3.85c0-3.72-1.65-5.51-5.23-5.51h-11.7Zm0,37.43H414.2c3.58,0,5.23-1.79,5.23-5.5v-5.37c0-3.71-1.65-5.37-5.23-5.37H396.31Z"/><path d="M470.06,495.63c-3.43,0-4.95-1.51-4.95-4.95V401.51c0-3.44,1.52-4.95,4.95-4.95h63.85c3.44,0,5,1.51,5,4.95v16.1c0,3.44-1.52,5-5,5h-38v10.59h26.84c3.44,0,5,1.52,5,5v14.72c0,3.44-1.51,5-5,5H495.93v11.84h38c3.44,0,5,1.51,5,4.95v16.1c0,3.44-1.52,4.95-5,4.95Z"/><path d="M557.58,495.63c-3.44,0-5-1.51-5-4.95v-16.1c0-3.44,1.52-4.95,5-4.95h37c2.34,0,3.58-1.79,3.58-4,0-3.17-1.24-4.41-3.58-4.68L574,458.07c-12.93-1.93-21.33-7.43-21.33-22.84V420.78c0-15.69,10.6-24.22,28.49-24.22h38.53c3.44,0,5,1.51,5,4.95v16.38c0,3.44-1.51,4.95-5,4.95H587.57c-2.33,0-3.71,1.65-3.71,4.13a4,4,0,0,0,3.71,4.4l20.51,2.76c12.93,1.92,21.46,7.43,21.46,22.84v14.45c0,15.68-10.73,24.21-28.48,24.21Z"/><path d="M667.66,495.63c-3.44,0-5-1.51-5-4.95V423.12H642.48c-3.44,0-5-1.52-5-5V401.51c0-3.44,1.52-4.95,5-4.95h72.65c3.44,0,5,1.51,5,4.95v16.65c0,3.44-1.51,5-5,5H694.9v67.56c0,3.44-1.51,4.95-4.95,4.95Z"/><path d="M492.66,1159.77H375.05c-20,0-28.8-8.8-28.8-28.8V919.77c0-32,9.6-72,31.21-128l69.6-181.6c6.4-18.4,19.19-26.4,40.8-26.4h215.2c20.8,0,33.6,8,40,26.4l69.6,181.6c21.6,56,31.2,96,31.2,128V1131c0,20-8.8,28.8-28.8,28.8H694.26c-21.6,0-31.2-8.8-31.2-28.8V1019H521.46v112C521.46,1151,512.66,1159.77,492.66,1159.77Zm36.8-286.4h125.6l-37.6-121.6c-4-9.6-8.8-13.6-15.2-13.6h-20c-6.4,0-11.2,4-15.2,13.6Z"/><path d="M929.45,1131v-95.2c0-20,8.8-28.8,28.8-28.8h79.2V738.17h-79.2c-20,0-28.8-8.8-28.8-28.8v-96.8c0-20,8.8-28.8,28.8-28.8h340.8c20,0,28.8,8.8,28.8,28.8v96.8c0,20-8.8,28.8-28.8,28.8h-77.6V1007h77.6c20,0,28.8,8.8,28.8,28.8V1131c0,20-8.8,28.8-28.8,28.8H958.25C938.25,1159.77,929.45,1151,929.45,1131Z"/><path d="M370.31,1362.83c-3.44,0-5-1.51-5-4.95v-89.17c0-3.44,1.52-5,5-5h21.32c3.44,0,5,1.51,5,5v29.86h23v-29.86c0-3.44,1.51-5,4.95-5h21.33c3.44,0,4.95,1.51,4.95,5v89.17c0,3.44-1.51,4.95-4.95,4.95H424.52c-3.44,0-4.95-1.51-4.95-4.95v-30.55h-23v30.55c0,3.44-1.52,4.95-5,4.95Z"/><path d="M492.91,1362.83H472.68c-3.44,0-5-1.51-5-4.95v-36.33c0-5.5,1.66-12.38,5.37-22l12-31.24c1.1-3.16,3.31-4.54,7-4.54h37c3.57,0,5.78,1.38,6.88,4.54l12,31.24c3.71,9.63,5.36,16.51,5.36,22v36.33c0,3.44-1.51,4.95-4.95,4.95H527.58c-3.71,0-5.36-1.51-5.36-4.95v-19.26H497.86v19.26C497.86,1361.32,496.35,1362.83,492.91,1362.83Zm6.33-49.26h21.6l-6.47-20.91c-.69-1.65-1.51-2.34-2.61-2.34h-3.44c-1.1,0-1.93.69-2.62,2.34Z"/><path d="M602.57,1362.83c-23.11,0-33.85-8.94-33.85-28.07V1292c0-19.27,10.74-28.21,33.85-28.21h33.58c3.44,0,5,1.51,5,5v16.65c0,3.44-1.51,5-5,5H608.49c-5.78,0-8.39,2.2-8.39,6.88V1330c0,4.54,2.61,6.6,8.39,6.6h27.66c3.44,0,5,1.52,5,5v16.37c0,3.44-1.51,4.95-5,4.95Z"/><path d="M661.6,1362.83c-3.44,0-5-1.51-5-4.95v-89.17c0-3.44,1.51-5,5-5h21.33c3.44,0,5,1.51,5,5v31.65h5.51l14.17-32.06c1.38-3.3,3.3-4.54,6.88-4.54h21.19c3.17,0,4.27,1.65,3,4.54l-14,32.06c10.32.55,16.93,7.71,16.93,18.72v38.8c0,3.44-1.51,4.95-5,4.95H715.4c-3.44,0-4.95-1.51-4.95-4.95v-26.83c0-3-1.51-4.68-4.4-4.68H687.88v31.51c0,3.44-1.51,4.95-5,4.95Z"/><line class="cls-10" x1="1352.4" y1="1156.8" x2="1861.2" y2="1156.8"/><line class="cls-11" x1="736.4" y1="1358.4" x2="856.4" y2="1358.4"/><line class="cls-11" x1="720.4" y1="488" x2="840.4" y2="488"/><circle class="cls-12" cx="1378.5" cy="1846.5" r="26.5"/><circle class="cls-12" cx="1485.5" cy="1714.5" r="58.5"/><circle class="cls-12" cx="1638.5" cy="1624.5" r="31.5"/></g></g></svg>