<svg xmlns="http://www.w3.org/2000/svg" xmlns:xlink="http://www.w3.org/1999/xlink" viewBox="0 0 2048 2048"><defs><style>.cls-1{fill:url(#radial-gradient);}.cls-2{isolation:isolate;}.cls-3{clip-path:url(#clip-path);}.cls-4{fill:url(#radial-gradient-3);}.cls-5,.cls-7{fill:none;}.cls-6{opacity:0.15;fill:url(#radial-gradient-4);}.cls-6,.cls-7{mix-blend-mode:screen;}.cls-7{stroke:#fff;stroke-width:2.18px;opacity:0.03;}.cls-13,.cls-14,.cls-7{stroke-miterlimit:10;}.cls-13,.cls-14,.cls-8{fill:#204751;}.cls-8{opacity:0.46;}.cls-9{fill:#00ff4e;}.cls-10{font-size:137.6px;}.cls-10,.cls-12{font-family:Bungee-Regular, Bungee;}.cls-11{letter-spacing:-0.01em;}.cls-12{font-size:800px;}.cls-13,.cls-14{stroke:#000;}.cls-13{stroke-width:14.99px;}.cls-14{stroke-width:7.28px;}.cls-15{fill:#001e08;}</style><radialGradient id="radial-gradient" cx="1370.89" cy="-766.85" r="1061.63" gradientTransform="translate(97.92 -424.63) scale(0.72 0.74)" gradientUnits="userSpaceOnUse"><stop offset="0" stop-color="#1b0061"/><stop offset="0.24" stop-color="#1b0263"/><stop offset="0.33" stop-color="#190968"/><stop offset="0.39" stop-color="#161471"/><stop offset="0.44" stop-color="#12257f"/><stop offset="0.49" stop-color="#0d3b91"/><stop offset="0.53" stop-color="#0656a6"/><stop offset="0.56" stop-color="#0071bc"/><stop offset="0.56" stop-color="#006db3"/><stop offset="0.57" stop-color="#006298"/><stop offset="0.58" stop-color="#005984"/><stop offset="0.59" stop-color="#005375"/><stop offset="0.6" stop-color="#004f6d"/><stop offset="0.63" stop-color="#004e6a"/><stop offset="0.68" stop-color="#003d53"/><stop offset="0.77" stop-color="#00232f"/><stop offset="0.86" stop-color="#001015"/><stop offset="0.94" stop-color="#000406"/><stop offset="1"/></radialGradient><clipPath id="clip-path"><ellipse id="_Ellipse_" data-name="&lt;Ellipse&gt;" class="cls-1" cx="1084.19" cy="-989.48" rx="763.5" ry="782.25"/></clipPath><radialGradient id="radial-gradient-3" cx="1207.7" cy="-830.62" r="1168.73" gradientTransform="translate(-53.13 -175.28) scale(0.98 0.88)" xlink:href="#radial-gradient"/><radialGradient id="radial-gradient-4" cx="1370.5" cy="-767.27" r="1458.28" gradientTransform="translate(97.92 -424.63) scale(0.72 0.74)" gradientUnits="userSpaceOnUse"><stop offset="0" stop-color="#230000"/><stop offset="0.73" stop-color="#93432a"/><stop offset="1" stop-color="#230000"/></radialGradient></defs><title>CEAS AI Hack</title><g class="cls-2"><g id="Layer_4" data-name="Layer 4"><ellipse id="_Ellipse_2" data-name="&lt;Ellipse&gt;" class="cls-1" cx="1084.19" cy="-989.48" rx="763.5" ry="782.25"/><g class="cls-3"><rect class="cls-4" x="336.25" y="-2172.66" width="1586.12" height="2533.91" transform="translate(28.94 34.95) rotate(-1.8)"/><polyline class="cls-5" points="1083.9 -989.79 1182.51 -1313.36 1083.9 -989.79 985.29 -666.21 1083.9 -989.79 1399.94 -888.83 1083.9 -989.79 767.86 -1090.74 1083.9 -989.79 863.27 -3084.17 1083.9 -989.79 1304.53 1104.6 1083.9 -989.79 3129.53 -1215.68 1083.9 -989.79 -961.72 -763.89 1083.9 -989.79 638.52 -2856.71 1083.9 -989.79 1529.28 877.14 1083.9 -989.79 2907.36 -1445.78 1083.9 -989.79 -739.56 -533.79 1083.9 -989.79 646.64 -2653.51 1083.9 -989.79 1521.16 673.94 1083.9 -989.79 2708.9 -1437.46 1083.9 -989.79 -541.09 -542.11 1083.9 -989.79 1425.13 -2994.14 1083.9 -989.79 742.67 1014.57 1083.9 -989.79 3041.59 -640.43 1083.9 -989.79 -873.79 -1339.15 1083.9 -989.79 2865.99 -2779.14 1083.9 -989.79 -698.19 799.57 1083.9 -989.79 2831.6 834.78 1083.9 -989.79 -663.8 -2814.35 1083.9 -989.79 1585.71 -1734.33 1083.9 -989.79 582.09 -245.24 1083.9 -989.79 1811.11 -476.02 1083.9 -989.79 356.69 -1503.55 1083.9 -989.79 589.28 -2211.47 1083.9 -989.79 1578.52 231.89 1083.9 -989.79 2277.14 -1496.2 1083.9 -989.79 -109.34 -483.38 1083.9 -989.79 1587.7 -2384.41 1083.9 -989.79 580.1 404.84 1083.9 -989.79 2446.06 -473.97 1083.9 -989.79 -278.26 -1505.6 1083.9 -989.79 3349.76 -2263.81 1083.9 -989.79 -1181.96 284.24 1083.9 -989.79 2328.27 1330.08 1083.9 -989.79 -160.47 -3309.65 1083.9 -989.79 2567.09 -2881.52 1083.9 -989.79 -399.28 901.94 1083.9 -989.79 2931.59 528.75 1083.9 -989.79 -763.79 -2508.32 1083.9 -989.79 762.9 -1919.03 1083.9 -989.79 1404.9 -60.54 1083.9 -989.79 1991.52 -1318.43 1083.9 -989.79 176.29 -661.14 1083.9 -989.79 1294.84 -1761.13 1083.9 -989.79 872.96 -218.44 1083.9 -989.79 1837.29 -773.82 1083.9 -989.79 330.51 -1205.76 1083.9 -989.79 1762.76 -1846.68 1083.9 -989.79 405.04 -132.89 1083.9 -989.79 1920.85 -294.75 1083.9 -989.79 246.95 -1684.83 1083.9 -989.79 1847.67 -1731.84 1083.9 -989.79 320.14 -247.74 1083.9 -989.79 1808.68 -207.82 1083.9 -989.79 359.13 -1771.76"/><ellipse class="cls-6" cx="1083.9" cy="-989.79" rx="1049.14" ry="1074.15"/><polyline class="cls-7" points="1083.9 -989.79 1182.51 -1313.36 1083.9 -989.79 985.29 -666.21 1083.9 -989.79 1399.94 -888.83 1083.9 -989.79 767.86 -1090.74 1083.9 -989.79 863.27 -3084.17 1083.9 -989.79 1304.53 1104.6 1083.9 -989.79 3129.53 -1215.68 1083.9 -989.79 -961.72 -763.89 1083.9 -989.79 638.52 -2856.71 1083.9 -989.79 1529.28 877.14 1083.9 -989.79 2907.36 -1445.78 1083.9 -989.79 -739.56 -533.79 1083.9 -989.79 646.64 -2653.51 1083.9 -989.79 1521.16 673.94 1083.9 -989.79 2708.9 -1437.46 1083.9 -989.79 -541.09 -542.11 1083.9 -989.79 1425.13 -2994.14 1083.9 -989.79 742.67 1014.57 1083.9 -989.79 3041.59 -640.43 1083.9 -989.79 -873.79 -1339.15 1083.9 -989.79 2865.99 -2779.14 1083.9 -989.79 -698.19 799.57 1083.9 -989.79 2831.6 834.78 1083.9 -989.79 -663.8 -2814.35 1083.9 -989.79 1585.71 -1734.33 1083.9 -989.79 582.09 -245.24 1083.9 -989.79 1811.11 -476.02 1083.9 -989.79 356.69 -1503.55 1083.9 -989.79 589.28 -2211.47 1083.9 -989.79 1578.52 231.89 1083.9 -989.79 2277.14 -1496.2 1083.9 -989.79 -109.34 -483.38 1083.9 -989.79 1587.7 -2384.41 1083.9 -989.79 580.1 404.84 1083.9 -989.79 2446.06 -473.97 1083.9 -989.79 -278.26 -1505.6 1083.9 -989.79 3349.76 -2263.81 1083.9 -989.79 -1181.96 284.24 1083.9 -989.79 2328.27 1330.08 1083.9 -989.79 -160.47 -3309.65 1083.9 -989.79 2567.09 -2881.52 1083.9 -989.79 -399.28 901.94 1083.9 -989.79 2931.59 528.75 1083.9 -989.79 -763.79 -2508.32 1083.9 -989.79 762.9 -1919.03 1083.9 -989.79 1404.9 -60.54 1083.9 -989.79 1991.52 -1318.43 1083.9 -989.79 176.29 -661.14 1083.9 -989.79 1294.84 -1761.13 1083.9 -989.79 872.96 -218.44 1083.9 -989.79 1837.29 -773.82 1083.9 -989.79 330.51 -1205.76 1083.9 -989.79 1762.76 -1846.68 1083.9 -989.79 405.04 -132.89 1083.9 -989.79 1920.85 -294.75 1083.9 -989.79 246.95 -1684.83 1083.9 -989.79 1847.67 -1731.84 1083.9 -989.79 320.14 -247.74 1083.9 -989.79 1808.68 -207.82 1083.9 -989.79 359.13 -1771.76"/></g><circle class="cls-8" cx="1026" cy="1024" r="971.2"/><circle class="cls-9" cx="1094" cy="1092" r="872.8"/><text class="cls-10" transform="translate(355.86 495.63)">Be<tspan class="cls-11" x="189.75" y="0">st</tspan><tspan x="366.7" y="0"> </tspan></text><text class="cls-12" transform="translate(303.05 1159.77)">AI</text><text class="cls-10" transform="translate(355.86 1362.83)">Hack</text><line class="cls-13" x1="1352.4" y1="1156.8" x2="1861.2" y2="1156.8"/><line class="cls-14" x1="736.4" y1="1358.4" x2="856.4" y2="1358.4"/><line class="cls-14" x1="720.4" y1="488" x2="840.4" y2="488"/><circle class="cls-15" cx="1378.5" cy="1846.5" r="26.5"/><circle class="cls-15" cx="1485.5" cy="1714.5" r="58.5"/><circle class="cls-15" cx="1638.5" cy="1624.5" r="31.5"/></g></g></svg>