<svg xmlns="http://www.w3.org/2000/svg" viewBox="0 0 2048 2048"><defs><style>.cls-1{fill:#820000;}.cls-2{fill:#560d0d;}.cls-3{font-size:228px;font-family:Bungee-Regular, Bungee;}.cls-3,.cls-7{fill:#fff;}.cls-4{letter-spacing:-0.01em;}.cls-5{letter-spacing:-0.07em;}.cls-6{letter-spacing:0em;}</style></defs><title>Best Health</title><g id="Layer_4" data-name="Layer 4"><path class="cls-1" d="M1630,162.46c-196.74-119-534.92-20.07-665.81,287.54a2.61,2.61,0,0,0-.19,1h0a2.4,2.4,0,0,1-4.59,1C825.5,152.24,492.58,56.76,298,174.46,242.34,208.13,197.08,259.8,165.25,322.7c-76.16,150.53-56.85,331.83,46.67,465l747.78,962.2a2.41,2.41,0,0,0,4.3-1.48v-4.17a2.39,2.39,0,0,1,.51-1.47l751.57-967.08c103.52-133.2,122.83-314.5,46.67-465C1730.92,247.8,1685.66,196.13,1630,162.46Z"/><path class="cls-2" d="M1645.3,677.91c-157.39-95.21-427.94-16.06-532.64,230a1.82,1.82,0,0,0-.16.76h0a1.92,1.92,0,0,1-3.67.78c-107.13-239.75-373.47-316.13-529.13-222C535.17,714.44,499,755.78,473.5,806.1c-60.93,120.42-45.48,265.46,37.34,372l598.22,769.76a1.92,1.92,0,0,0,3.44-1.18v-3.33a1.91,1.91,0,0,1,.4-1.18l601.26-773.67c82.82-106.56,98.27-251.6,37.34-372C1726,746.18,1689.83,704.84,1645.3,677.91Z"/><text class="cls-3" transform="translate(1017.49 675.32)">be<tspan class="cls-4" x="314.41" y="0">st</tspan><tspan x="-346.1" y="273.6">hea</tspan><tspan class="cls-5" x="142.5" y="273.6">l</tspan><tspan class="cls-6" x="285" y="273.6">th</tspan><tspan x="-45.14" y="547.2">hack</tspan></text><polygon class="cls-7" points="895 663.46 895.16 632.28 869.57 614.47 899.27 604.99 908.3 575.14 926.5 600.46 957.68 599.83 939.22 624.96 949.46 654.41 919.85 644.62 895 663.46"/><polygon class="cls-7" points="1003 552.46 983.39 553.25 972.93 569.85 966.12 551.45 947.1 546.62 962.5 534.46 961.21 514.88 977.53 525.77 995.76 518.49 990.45 537.38 1003 552.46"/><polygon class="cls-7" points="847 606.46 830.6 591.23 808.75 596.11 818.17 575.8 806.78 556.53 829 559.21 843.81 542.42 848.13 564.39 868.67 573.28 849.11 584.18 847 606.46"/></g></svg>