<svg xmlns="http://www.w3.org/2000/svg" xmlns:xlink="http://www.w3.org/1999/xlink" viewBox="0 0 2048 2048"><defs><style>.cls-1{fill:url(#radial-gradient);}.cls-2{isolation:isolate;}.cls-3{clip-path:url(#clip-path);}.cls-4{fill:url(#radial-gradient-3);}.cls-5,.cls-9{fill:none;}.cls-6{opacity:0.15;fill:url(#radial-gradient-4);}.cls-6,.cls-7,.cls-8,.cls-9{mix-blend-mode:screen;}.cls-7{opacity:0.5;fill:url(#radial-gradient-5);}.cls-8{fill:url(#radial-gradient-6);}.cls-9{stroke:#fff;stroke-miterlimit:10;stroke-width:2.18px;opacity:0.03;}.cls-10{fill:#caf4ff;opacity:0.37;}.cls-11{fill:#00d3ef;}.cls-12{fill:#058ea5;}.cls-13{fill:#141433;}</style><radialGradient id="radial-gradient" cx="1370.89" cy="1301.15" r="1061.63" gradientTransform="translate(97.92 120.12) scale(0.72 0.74)" gradientUnits="userSpaceOnUse"><stop offset="0" stop-color="#1b0061"/><stop offset="0.24" stop-color="#1b0263"/><stop offset="0.33" stop-color="#190968"/><stop offset="0.39" stop-color="#161471"/><stop offset="0.44" stop-color="#12257f"/><stop offset="0.49" stop-color="#0d3b91"/><stop offset="0.53" stop-color="#0656a6"/><stop offset="0.56" stop-color="#0071bc"/><stop offset="0.56" stop-color="#006db3"/><stop offset="0.57" stop-color="#006298"/><stop offset="0.58" stop-color="#005984"/><stop offset="0.59" stop-color="#005375"/><stop offset="0.6" stop-color="#004f6d"/><stop offset="0.63" stop-color="#004e6a"/><stop offset="0.68" stop-color="#003d53"/><stop offset="0.77" stop-color="#00232f"/><stop offset="0.86" stop-color="#001015"/><stop offset="0.94" stop-color="#000406"/><stop offset="1"/></radialGradient><clipPath id="clip-path"><ellipse id="_Ellipse_" data-name="&lt;Ellipse&gt;" class="cls-1" cx="1084.19" cy="1078.52" rx="763.5" ry="782.25"/></clipPath><radialGradient id="radial-gradient-3" cx="1207.7" cy="1237.38" r="1168.73" gradientTransform="translate(-53.13 74.18) scale(0.98 0.88)" xlink:href="#radial-gradient"/><radialGradient id="radial-gradient-4" cx="1370.5" cy="1300.73" r="1458.28" gradientTransform="translate(97.92 120.12) scale(0.72 0.74)" gradientUnits="userSpaceOnUse"><stop offset="0" stop-color="#230000"/><stop offset="0.73" stop-color="#93432a"/><stop offset="1" stop-color="#230000"/></radialGradient><radialGradient id="radial-gradient-5" cx="1370.5" cy="1300.73" r="729.14" gradientTransform="translate(97.92 120.12) scale(0.72 0.74)" gradientUnits="userSpaceOnUse"><stop offset="0.15" stop-color="#fff"/><stop offset="0.21" stop-color="#e2d1d2"/><stop offset="0.29" stop-color="#bf9a9c"/><stop offset="0.36" stop-color="#a67276"/><stop offset="0.42" stop-color="#975a5e"/><stop offset="0.45" stop-color="#915155"/><stop offset="0.56" stop-color="#6c3638"/><stop offset="0.68" stop-color="#44191a"/><stop offset="0.79" stop-color="#2c0707"/><stop offset="0.85" stop-color="#230000"/><stop offset="0.86" stop-color="#270201"/><stop offset="0.86" stop-color="#340805"/><stop offset="0.87" stop-color="#48120b"/><stop offset="0.88" stop-color="#652114"/><stop offset="0.89" stop-color="#8b331f"/><stop offset="0.9" stop-color="#b8492d"/><stop offset="0.9" stop-color="#d65836"/><stop offset="0.9" stop-color="#c95232"/><stop offset="0.91" stop-color="#9d3c25"/><stop offset="0.93" stop-color="#782a1a"/><stop offset="0.94" stop-color="#591b10"/><stop offset="0.95" stop-color="#410f09"/><stop offset="0.97" stop-color="#300604"/><stop offset="0.98" stop-color="#260201"/><stop offset="1" stop-color="#230000"/></radialGradient><radialGradient id="radial-gradient-6" cx="1370.5" cy="1300.73" r="607.62" gradientTransform="translate(97.92 120.12) scale(0.72 0.74)" gradientUnits="userSpaceOnUse"><stop offset="0.15" stop-color="#fff"/><stop offset="0.28" stop-color="#c2c2c2"/><stop offset="0.43" stop-color="#888"/><stop offset="0.56" stop-color="#575757"/><stop offset="0.69" stop-color="#313131"/><stop offset="0.81" stop-color="#161616"/><stop offset="0.92" stop-color="#060606"/><stop offset="1"/></radialGradient></defs><title>Big Bang (Beginner)</title><g class="cls-2"><g id="Layer_4" data-name="Layer 4"><ellipse id="_Ellipse_2" data-name="&lt;Ellipse&gt;" class="cls-1" cx="1084.19" cy="1078.52" rx="763.5" ry="782.25"/><g class="cls-3"><rect class="cls-4" x="336.25" y="-104.66" width="1586.12" height="2533.91" transform="translate(-35.87 35.96) rotate(-1.8)"/><line class="cls-5" x1="1083.9" y1="1078.21" x2="1592.23" y2="945.62"/><ellipse class="cls-5" cx="1083.9" cy="1078.21" rx="437.14" ry="447.56"/><ellipse class="cls-5" cx="1083.9" cy="1078.21" rx="524.57" ry="537.07"/><polyline class="cls-5" points="1083.9 1078.21 1182.51 754.64 1083.9 1078.21 985.29 1401.79 1083.9 1078.21 1399.94 1179.17 1083.9 1078.21 767.86 977.26 1083.9 1078.21 863.27 -1016.17 1083.9 1078.21 1304.53 3172.59 1083.9 1078.21 3129.53 852.32 1083.9 1078.21 -961.72 1304.11 1083.9 1078.21 638.52 -788.71 1083.9 1078.21 1529.28 2945.14 1083.9 1078.21 2907.36 622.22 1083.9 1078.21 -739.56 1534.21 1083.9 1078.21 646.64 -585.51 1083.9 1078.21 1521.16 2741.94 1083.9 1078.21 2708.9 630.53 1083.9 1078.21 -541.09 1525.89 1083.9 1078.21 1425.13 -926.14 1083.9 1078.21 742.67 3082.57 1083.9 1078.21 3041.59 1427.57 1083.9 1078.21 -873.79 728.85 1083.9 1078.21 2865.99 -711.14 1083.9 1078.21 -698.19 2867.57 1083.9 1078.21 2831.6 2902.78 1083.9 1078.21 -663.8 -746.35 1083.9 1078.21 1585.71 333.67 1083.9 1078.21 582.09 1822.76 1083.9 1078.21 1811.11 1591.98 1083.9 1078.21 356.69 564.45 1083.9 1078.21 589.28 -143.47 1083.9 1078.21 1578.52 2299.89 1083.9 1078.21 2277.14 571.8 1083.9 1078.21 -109.34 1584.63 1083.9 1078.21 1587.7 -316.42 1083.9 1078.21 580.1 2472.84 1083.9 1078.21 2446.06 1594.03 1083.9 1078.21 -278.26 562.4 1083.9 1078.21 3349.76 -195.81 1083.9 1078.21 -1181.96 2352.24 1083.9 1078.21 2328.27 3398.08 1083.9 1078.21 -160.47 -1241.65 1083.9 1078.21 2567.09 -813.52 1083.9 1078.21 -399.28 2969.94 1083.9 1078.21 2931.59 2596.75 1083.9 1078.21 -763.79 -440.32 1083.9 1078.21 762.9 148.97 1083.9 1078.21 1404.9 2007.46 1083.9 1078.21 1991.52 749.57 1083.9 1078.21 176.29 1406.86 1083.9 1078.21 1294.84 306.87 1083.9 1078.21 872.96 1849.56 1083.9 1078.21 1837.29 1294.18 1083.9 1078.21 330.51 862.25 1083.9 1078.21 1762.76 221.32 1083.9 1078.21 405.04 1935.11 1083.9 1078.21 1920.85 1773.25 1083.9 1078.21 246.95 383.17 1083.9 1078.21 1847.67 336.16 1083.9 1078.21 320.14 1820.26 1083.9 1078.21 1808.68 1860.18 1083.9 1078.21 359.13 296.25"/><ellipse class="cls-6" cx="1083.9" cy="1078.21" rx="1049.14" ry="1074.15"/><ellipse class="cls-7" cx="1083.9" cy="1078.21" rx="524.57" ry="537.07"/><ellipse class="cls-8" cx="1083.9" cy="1078.21" rx="437.14" ry="447.56"/><polyline class="cls-9" points="1083.9 1078.21 1182.51 754.64 1083.9 1078.21 985.29 1401.79 1083.9 1078.21 1399.94 1179.17 1083.9 1078.21 767.86 977.26 1083.9 1078.21 863.27 -1016.17 1083.9 1078.21 1304.53 3172.59 1083.9 1078.21 3129.53 852.32 1083.9 1078.21 -961.72 1304.11 1083.9 1078.21 638.52 -788.71 1083.9 1078.21 1529.28 2945.14 1083.9 1078.21 2907.36 622.22 1083.9 1078.21 -739.56 1534.21 1083.9 1078.21 646.64 -585.51 1083.9 1078.21 1521.16 2741.94 1083.9 1078.21 2708.9 630.53 1083.9 1078.21 -541.09 1525.89 1083.9 1078.21 1425.13 -926.14 1083.9 1078.21 742.67 3082.57 1083.9 1078.21 3041.59 1427.57 1083.9 1078.21 -873.79 728.85 1083.9 1078.21 2865.99 -711.14 1083.9 1078.21 -698.19 2867.57 1083.9 1078.21 2831.6 2902.78 1083.9 1078.21 -663.8 -746.35 1083.9 1078.21 1585.71 333.67 1083.9 1078.21 582.09 1822.76 1083.9 1078.21 1811.11 1591.98 1083.9 1078.21 356.69 564.45 1083.9 1078.21 589.28 -143.47 1083.9 1078.21 1578.52 2299.89 1083.9 1078.21 2277.14 571.8 1083.9 1078.21 -109.34 1584.63 1083.9 1078.21 1587.7 -316.42 1083.9 1078.21 580.1 2472.84 1083.9 1078.21 2446.06 1594.03 1083.9 1078.21 -278.26 562.4 1083.9 1078.21 3349.76 -195.81 1083.9 1078.21 -1181.96 2352.24 1083.9 1078.21 2328.27 3398.08 1083.9 1078.21 -160.47 -1241.65 1083.9 1078.21 2567.09 -813.52 1083.9 1078.21 -399.28 2969.94 1083.9 1078.21 2931.59 2596.75 1083.9 1078.21 -763.79 -440.32 1083.9 1078.21 762.9 148.97 1083.9 1078.21 1404.9 2007.46 1083.9 1078.21 1991.52 749.57 1083.9 1078.21 176.29 1406.86 1083.9 1078.21 1294.84 306.87 1083.9 1078.21 872.96 1849.56 1083.9 1078.21 1837.29 1294.18 1083.9 1078.21 330.51 862.25 1083.9 1078.21 1762.76 221.32 1083.9 1078.21 405.04 1935.11 1083.9 1078.21 1920.85 1773.25 1083.9 1078.21 246.95 383.17 1083.9 1078.21 1847.67 336.16 1083.9 1078.21 320.14 1820.26 1083.9 1078.21 1808.68 1860.18 1083.9 1078.21 359.13 296.25"/></g><polygon class="cls-10" points="351.1 425.67 348.18 447.41 363.79 462.23 342.95 466.07 334.18 486.05 324.23 466.68 303.2 464.21 317.88 448.4 313.65 426.89 332.68 436.49 351.1 425.67"/><polygon class="cls-10" points="536.51 449.34 518.37 462.54 518.56 485.52 500.85 471.7 479.84 479 487.03 457.26 473.85 438.79 496.01 439.17 508.87 420.45 515.37 442.43 536.51 449.34"/><polygon class="cls-10" points="105.67 484.32 103.59 489.29 106.36 493.89 101.16 493.38 97.8 497.53 96.66 492.24 91.81 490.21 96.31 487.45 96.67 482.04 100.59 485.63 105.67 484.32"/><polygon class="cls-10" points="244.74 483.07 240.27 489.3 242.68 496.64 235.59 494.16 229.6 498.81 229.69 491.05 223.58 486.57 230.72 484.26 232.93 476.85 237.26 483.18 244.74 483.07"/><polygon class="cls-10" points="623.71 483.86 625.83 491.3 632.94 493.71 626.77 498.1 626.76 505.86 620.83 501.13 613.71 503.52 616.21 496.21 611.82 489.92 619.3 490.13 623.71 483.86"/><polygon class="cls-10" points="419.94 462.69 417.58 473.25 424.63 481.25 414.22 482.19 409.06 491.62 404.98 481.64 394.74 479.46 402.63 472.35 401.46 461.58 410.42 467.17 419.94 462.69"/><polygon class="cls-10" points="849.19 450.48 840.88 470.38 851.97 488.76 831.15 486.71 817.72 503.33 813.17 482.16 793.78 474.05 811.78 463.02 813.23 441.39 828.91 455.74 849.19 450.48"/><polygon class="cls-10" points="1164.47 428.84 1161.55 450.58 1177.16 465.4 1156.33 469.24 1147.56 489.22 1137.6 469.85 1116.57 467.38 1131.26 451.57 1127.03 430.06 1146.06 439.66 1164.47 428.84"/><polygon class="cls-10" points="1349.88 452.51 1331.74 465.71 1331.94 488.69 1314.23 474.88 1293.21 482.18 1300.41 460.43 1287.22 441.96 1309.38 442.34 1322.25 423.62 1328.75 445.6 1349.88 452.51"/><polygon class="cls-10" points="919.04 487.49 916.96 492.46 919.74 497.06 914.53 496.55 911.17 500.7 910.04 495.41 905.19 493.38 909.69 490.62 910.05 485.21 913.97 488.8 919.04 487.49"/><polygon class="cls-10" points="1058.12 486.24 1053.65 492.47 1056.06 499.81 1048.97 497.33 1042.98 501.98 1043.07 494.22 1036.95 489.74 1044.09 487.43 1046.31 480.02 1050.63 486.35 1058.12 486.24"/><polygon class="cls-10" points="1437.08 487.03 1439.2 494.48 1446.31 496.88 1440.14 501.27 1440.13 509.04 1434.2 504.31 1427.08 506.69 1429.59 499.38 1425.19 493.1 1432.67 493.3 1437.08 487.03"/><polygon class="cls-10" points="1233.32 465.86 1230.96 476.42 1238.01 484.43 1227.59 485.36 1222.43 494.79 1218.36 484.81 1208.11 482.63 1216.01 475.52 1214.84 464.75 1223.8 470.34 1233.32 465.86"/><polygon class="cls-10" points="1662.57 453.65 1654.25 473.55 1665.34 491.93 1644.53 489.88 1631.1 506.5 1626.55 485.33 1607.16 477.22 1625.16 466.19 1626.61 444.56 1642.28 458.91 1662.57 453.65"/><polygon class="cls-10" points="1721.1 462.54 1723.22 469.98 1730.33 472.39 1724.16 476.78 1724.15 484.54 1718.22 479.81 1711.1 482.2 1713.6 474.88 1709.21 468.6 1716.69 468.81 1721.1 462.54"/><polygon class="cls-10" points="1946.58 429.15 1938.27 449.05 1949.36 467.44 1928.54 465.38 1915.11 482.01 1910.56 460.84 1891.17 452.73 1909.17 441.7 1910.62 420.06 1926.3 434.41 1946.58 429.15"/><polygon class="cls-10" points="154.46 538.47 169.39 579.55 210.47 590.08 177.42 617.5 180.46 661.28 145.11 637.15 105.9 653.67 117.1 611.35 89.83 577.78 132.11 575.75 154.46 538.47"/><polygon class="cls-10" points="408.71 567.56 410.39 589.13 428.47 599.93 409.21 608.25 404.89 629.42 391.32 612.99 370.57 615.28 381.44 596.81 372.93 577.05 393.23 582.06 408.71 567.56"/><polygon class="cls-10" points="457.62 843.67 446.37 851.37 446.11 865.34 435.57 856.63 422.68 860.68 427.41 847.6 419.71 836.13 433.17 836.76 441.3 825.62 444.88 839.09 457.62 843.67"/><polygon class="cls-10" points="300.83 815.8 303.4 822.88 310.48 824.7 304.78 829.42 305.3 836.97 299.21 832.8 292.45 835.65 294.38 828.35 289.69 822.57 296.97 822.22 300.83 815.8"/><polygon class="cls-10" points="253.52 701.93 241.83 710.51 242.01 725.36 230.53 716.48 216.97 721.25 221.56 707.18 213 695.27 227.32 695.46 235.59 683.33 239.84 697.52 253.52 701.93"/><polygon class="cls-10" points="305.77 683.34 300.16 690.55 302.71 699.44 294.36 696.13 287 701.39 287.45 692.13 280.36 686.49 288.99 684.08 291.96 675.34 296.84 683.11 305.77 683.34"/><polygon class="cls-10" points="374.62 720.36 369.32 732.85 376.24 744.45 363.15 743.09 354.65 753.5 351.85 740.16 339.68 734.99 351.04 728.12 352.02 714.51 361.84 723.6 374.62 720.36"/><polygon class="cls-10" points="170.79 772.36 166.02 779.52 169.01 787.65 160.97 785.16 154.44 790.62 154.24 781.92 147.22 777.16 155.13 774.28 157.32 765.88 162.41 772.79 170.79 772.36"/><polygon class="cls-10" points="306.51 610.16 303.87 626.31 315.2 637.72 299.57 640.11 292.61 654.82 285.59 640.14 269.96 637.81 281.25 626.36 278.55 610.21 292.54 617.81 306.51 610.16"/><polygon class="cls-10" points="296 557.98 293.63 566.99 299.45 574.12 290.45 574.58 285.72 582.51 282.52 573.78 273.78 571.56 280.8 565.71 280.13 556.4 287.66 561.52 296 557.98"/><polygon class="cls-10" points="492.6 687.94 477.51 694.67 474.3 711.38 463.47 698.57 447.15 700.57 455.55 685.92 448.68 670.44 464.7 674.2 476.77 662.64 478.27 679.61 492.6 687.94"/><polygon class="cls-10" points="568.36 586.9 558.97 599.2 563.42 614.19 549.24 608.73 536.87 617.75 537.5 602.08 525.4 592.66 539.97 588.43 544.87 573.6 553.24 586.66 568.36 586.9"/><polygon class="cls-10" points="677.81 659.1 668.28 673.42 674.25 689.67 658.18 684.7 645.11 695.61 644.71 678.22 630.67 668.7 646.49 662.93 650.88 646.14 661.06 659.96 677.81 659.1"/><polygon class="cls-10" points="820.78 641.1 786.63 632.52 760.46 656.85 757.77 620.51 727.38 602.21 759.87 588.33 767.26 552.7 790.03 580.45 824.98 576.73 806.57 607.77 820.78 641.1"/><polygon class="cls-10" points="860.03 755.74 847.64 764.94 847.93 780.74 835.66 771.37 821.26 776.53 826.07 761.53 816.88 748.92 832.12 749.03 840.84 736.07 845.45 751.13 860.03 755.74"/><polygon class="cls-10" points="697.21 809.47 696.94 819.71 704.93 825.75 695.45 828.65 692.38 838.39 686.79 829.94 676.91 829.93 682.93 821.8 679.89 812.05 689.2 815.48 697.21 809.47"/><polygon class="cls-10" points="967.84 541.64 982.76 582.72 1023.85 593.25 990.8 620.67 993.83 664.45 958.48 640.32 919.28 656.85 930.48 614.52 903.21 580.95 945.48 578.92 967.84 541.64"/><polygon class="cls-10" points="1222.09 570.73 1223.76 592.3 1241.84 603.1 1222.58 611.42 1218.27 632.59 1204.69 616.16 1183.95 618.45 1194.82 599.98 1186.31 580.22 1206.6 585.23 1222.09 570.73"/><polygon class="cls-10" points="1270.99 846.84 1259.74 854.54 1259.48 868.51 1248.95 859.8 1236.05 863.86 1240.79 850.77 1233.08 839.3 1246.55 839.93 1254.68 828.79 1258.26 842.26 1270.99 846.84"/><polygon class="cls-10" points="1114.2 818.97 1116.77 826.05 1123.85 827.87 1118.15 832.59 1118.67 840.14 1112.58 835.98 1105.83 838.82 1107.76 831.53 1103.07 825.74 1110.35 825.39 1114.2 818.97"/><polygon class="cls-10" points="1066.9 705.1 1055.2 713.68 1055.38 728.53 1043.9 719.65 1030.34 724.42 1034.94 710.35 1026.37 698.45 1040.69 698.63 1048.96 686.5 1053.22 700.69 1066.9 705.1"/><polygon class="cls-10" points="1119.15 686.51 1113.54 693.73 1116.08 702.61 1107.74 699.3 1100.38 704.56 1100.83 695.3 1093.73 689.66 1102.36 687.25 1105.34 678.51 1110.22 686.28 1119.15 686.51"/><polygon class="cls-10" points="1187.99 723.53 1182.7 736.02 1189.61 747.62 1176.53 746.26 1168.02 756.67 1165.23 743.34 1153.06 738.16 1164.42 731.29 1165.4 717.68 1175.21 726.77 1187.99 723.53"/><polygon class="cls-10" points="984.16 775.53 979.4 782.69 982.38 790.82 974.35 788.33 967.82 793.79 967.62 785.09 960.6 780.33 968.51 777.45 970.7 769.05 975.79 775.96 984.16 775.53"/><polygon class="cls-10" points="1119.88 613.33 1117.24 629.48 1128.58 640.89 1112.95 643.28 1105.99 657.99 1098.97 643.31 1083.33 640.99 1094.62 629.53 1091.92 613.38 1105.92 620.98 1119.88 613.33"/><polygon class="cls-10" points="1109.37 561.15 1107.01 570.16 1112.82 577.29 1103.83 577.75 1099.09 585.69 1095.9 576.96 1087.15 574.73 1094.17 568.88 1093.51 559.57 1101.04 564.69 1109.37 561.15"/><polygon class="cls-10" points="1305.98 691.11 1290.89 697.84 1287.67 714.55 1276.84 701.74 1260.53 703.74 1268.92 689.09 1262.05 673.61 1278.08 677.37 1290.14 665.81 1291.65 682.78 1305.98 691.11"/><polygon class="cls-10" points="1381.74 590.08 1372.35 602.37 1376.79 617.36 1362.62 611.9 1350.24 620.92 1350.87 605.25 1338.78 595.83 1353.34 591.61 1358.24 576.77 1366.62 589.83 1381.74 590.08"/><polygon class="cls-10" points="1491.19 662.27 1481.66 676.59 1487.62 692.85 1471.55 687.87 1458.49 698.78 1458.09 681.39 1444.05 671.87 1459.87 666.1 1464.26 649.31 1474.44 663.13 1491.19 662.27"/><polygon class="cls-10" points="1634.15 644.27 1600.01 635.7 1573.84 660.02 1571.14 623.68 1540.76 605.38 1573.24 591.5 1580.63 555.87 1603.4 583.62 1638.35 579.9 1619.94 610.94 1634.15 644.27"/><polygon class="cls-10" points="1673.41 758.91 1661.02 768.11 1661.3 783.91 1649.04 774.54 1634.63 779.7 1639.44 764.7 1630.26 752.09 1645.49 752.2 1654.22 739.24 1658.83 754.3 1673.41 758.91"/><polygon class="cls-10" points="1510.58 812.64 1510.32 822.88 1518.3 828.92 1508.83 831.82 1505.76 841.57 1500.17 833.12 1490.29 833.1 1496.31 824.97 1493.27 815.22 1502.58 818.65 1510.58 812.64"/><polygon class="cls-10" points="1775.2 637.78 1765.67 652.09 1771.64 668.35 1755.57 663.37 1742.5 674.28 1742.1 656.89 1728.06 647.38 1743.88 641.6 1748.27 624.81 1758.45 638.64 1775.2 637.78"/><polygon class="cls-10" points="1918.17 619.77 1884.02 611.2 1857.85 635.52 1855.16 599.18 1824.77 580.89 1857.26 567 1864.65 531.37 1887.42 559.13 1922.37 555.4 1903.96 586.44 1918.17 619.77"/><polygon class="cls-10" points="1957.42 734.41 1945.03 743.62 1945.32 759.42 1933.05 750.04 1918.65 755.2 1923.45 740.21 1914.27 727.59 1929.51 727.7 1938.23 714.74 1942.84 729.81 1957.42 734.41"/><polygon class="cls-10" points="1794.6 788.14 1794.33 798.39 1802.32 804.42 1792.84 807.33 1789.78 817.07 1784.18 808.62 1774.3 808.61 1780.32 800.48 1777.28 790.73 1786.59 794.15 1794.6 788.14"/><path class="cls-11" d="M1891.19,867.77c6.33,15.62,11.52,31.69,16.42,47.84s9.15,32.53,13,49a967.42,967.42,0,0,1,25.18,202.1,892.15,892.15,0,0,1-3.93,102.76,828,828,0,0,1-16.26,102.22c-3.84,16.89-8.15,33.7-13.14,50.35-1.25,4.16-2.48,8.33-3.82,12.46s-2.61,8.3-4,12.41q-4.15,12.38-8.77,24.6a697,697,0,0,1-44,95c-8.52,15.29-17.68,30.23-27.34,44.86s-20,28.82-30.73,42.65a701.22,701.22,0,0,1-152.23,143.23q-21.45,14.88-43.77,28.29t-45.38,25.26c-3.83,2-7.71,3.9-11.58,5.83l-5.8,2.88c-1.93,1-3.89,1.85-5.84,2.78l-11.7,5.52-11.8,5.28-5.9,2.62-6,2.5-11.9,5-12,4.74-6,2.35-6,2.25a981.49,981.49,0,0,1-97.81,31q-49.5,12.92-99.74,21.24t-100.69,12.43c-33.64,2.76-67.31,4.23-101,4,32.93-7,65.67-14,98.14-21.79l24.3-6,24.18-6.23,24.06-6.54c8-2.32,16-4.46,23.92-6.84q47.71-14,94.15-30.86t91-37.32l5.57-2.55,5.51-2.64,11-5.25,10.93-5.45,5.47-2.72,5.4-2.83c14.5-7.36,28.63-15.35,42.68-23.41,7-4.13,14-8.2,20.78-12.53s13.65-8.63,20.43-13l10-6.75c1.66-1.14,3.35-2.24,5-3.4l4.93-3.48,4.95-3.46,2.47-1.73,2.43-1.79,9.73-7.12A723.94,723.94,0,0,0,1743,1614.34a706.33,706.33,0,0,0,96-165.24c24.62-59.3,41.78-122,52.7-186.23s15.59-130,15.31-196.08c-.11-33.06-1.55-66.22-4.06-99.42-1.34-16.59-2.87-33.2-4.83-49.8S1894,884.37,1891.19,867.77Z"/><path class="cls-12" d="M251.51,1277.26c-5.65-15.87-10.13-32.15-14.31-48.51s-7.72-32.9-10.83-49.53a968.44,968.44,0,0,1-16.3-203,894.29,894.29,0,0,1,8.42-102.5,827,827,0,0,1,20.73-101.4c4.58-16.71,9.62-33.32,15.33-49.73,1.43-4.1,2.84-8.21,4.37-12.28s3-8.18,4.57-12.22c3.12-8.12,6.42-16.19,9.83-24.2a696.31,696.31,0,0,1,48.11-93c9.18-14.9,19-29.43,29.28-43.62s21.2-27.92,32.57-41.27A701.66,701.66,0,0,1,541.63,359.56q22.08-13.92,45-26.35T633.05,310c3.91-1.84,7.87-3.56,11.81-5.32l5.92-2.63c2-.86,4-1.68,6-2.52l11.93-5,12-4.76,6-2.35,6.06-2.24,12.1-4.47L717,276.46l6.1-2.09,6.12-2a979.86,979.86,0,0,1,99.08-26.65q50-10.74,100.57-16.86t101.13-8c33.73-1.28,67.44-1.28,101.06.39-33.2,5.53-66.23,11.13-99,17.47l-24.53,4.91-24.43,5.16-24.32,5.47c-8.07,2-16.17,3.77-24.2,5.8Q886.33,272,839.2,286.78t-92.51,33.31L741,322.38l-5.63,2.4-11.26,4.77-11.16,5L707.4,337l-5.53,2.59c-14.81,6.72-29.27,14.08-43.66,21.52-7.13,3.82-14.3,7.58-21.31,11.6s-14,8-21,12.1l-10.32,6.31c-1.71,1.06-3.44,2.08-5.13,3.17l-5.09,3.26-5.09,3.24-2.55,1.62-2.5,1.68-10,6.69A723.91,723.91,0,0,0,432.28,537.91,706.53,706.53,0,0,0,329.12,698.78C301.93,757,282,818.86,268.32,882.53s-21.26,129.16-23.89,195.21c-1.33,33-1.35,66.23-.29,99.51.61,16.63,1.42,33.29,2.64,50S249.46,1260.56,251.51,1277.26Z"/><path class="cls-13" d="M869.64,157.76c12-7.51,24.5-14,37.16-20.36s25.62-12.06,38.74-17.43S972,109.59,985.39,104.9q5-1.73,10.11-3.38l5.08-1.65,5.1-1.58c3.4-1,6.8-2.11,10.22-3.12l10.28-3c3.42-1,6.87-1.9,10.33-2.8s6.9-1.83,10.37-2.69l10.42-2.48,5.23-1.22,5.24-1.12,10.51-2.24,10.56-2c3.52-.63,7-1.37,10.58-1.91l10.63-1.69c1.78-.28,3.55-.59,5.33-.83l5.34-.72,10.69-1.42c3.57-.45,7.15-.77,10.73-1.17s7.16-.78,10.75-1.1l10.78-.81c3.6-.26,7.19-.59,10.8-.72l10.82-.51,5.42-.23,5.42-.09a613.2,613.2,0,0,1,86.95,4.23A565.21,565.21,0,0,1,1369,87.91a547.09,547.09,0,0,1,159,74.22l2.3,1.51c.76.51,1.49,1.06,2.24,1.6l4.46,3.22,8.92,6.45c6,4.2,11.65,8.9,17.43,13.42l8.59,6.85c2.79,2.37,5.53,4.8,8.3,7.2l8.27,7.21,4.14,3.6,4,3.78,15.83,15.15q7.63,7.84,15.16,15.78c5.12,5.19,9.79,10.77,14.62,16.22s9.67,10.88,14.11,16.63l13.6,17c4.35,5.79,8.57,11.68,12.86,17.52,2.12,2.93,4.28,5.83,6.37,8.78l6,9c4,6,8,12,12,18.05l11.24,18.46c1.86,3.09,3.77,6.14,5.58,9.25l5.24,9.42,10.42,18.86c3.29,6.38,6.46,12.81,9.69,19.21,6.64,12.7,12.28,25.86,18.24,38.84,3,6.47,5.62,13.13,8.35,19.72l8.06,19.8c2.58,6.64,5,13.35,7.4,20l3.65,10,1.82,5c.61,1.67,1.21,3.34,1.74,5l6.57,20.26,3.26,10.13,1.62,5.06c.52,1.7,1,3.41,1.47,5.12l5.78,20.45,2.88,10.22c.47,1.7,1,3.39,1.42,5.11l1.26,5.15,5,20.61,2.49,10.3,1.21,5.15,1.08,5.19c2.86,13.84,5.76,27.64,8.31,41.5,2.31,13.93,4.63,27.82,6.66,41.75-5.06-13.18-9.81-26.4-14.58-39.59-1.15-3.31-2.43-6.58-3.69-9.85l-3.76-9.82c-2.53-6.54-5-13.1-7.42-19.64l-1.84-4.9-2-4.86-3.91-9.73L1802.75,633c-2.52-6.5-5.36-12.87-8.06-19.28l-8.16-19.2-2-4.8-2.16-4.74-4.31-9.48-8.56-19c-.69-1.58-1.45-3.14-2.22-4.69l-2.26-4.68-4.53-9.34-4.51-9.33c-1.52-3.11-2.94-6.26-4.53-9.32l-9.54-18.37c-3.18-6.12-6.22-12.3-9.67-18.25-6.72-12-13.15-24.16-20.34-35.84L1701.34,429l-11.06-17.27-5.5-8.64c-1.88-2.85-3.85-5.63-5.78-8.44l-11.56-16.85c-4-5.52-8.08-10.94-12.1-16.41l-6-8.2c-2.08-2.67-4.22-5.3-6.33-8-4.23-5.29-8.42-10.61-12.68-15.86L1617.08,314c-4.3-5.21-9-10-13.56-15s-9-10-13.92-14.64l-14.27-14.23-14.81-13.62-3.69-3.41-3.83-3.25-7.65-6.51c-2.55-2.16-5.08-4.35-7.65-6.49l-7.91-6.16c-5.29-4.09-10.42-8.38-15.93-12.16l-8.13-5.83-4.07-2.92c-.68-.49-1.34-1-2-1.46l-2.09-1.37a553.7,553.7,0,0,0-143.33-69.84c-50.93-16.33-104.41-25.34-158.63-28.1a741.14,741.14,0,0,0-81.76.4c-6.83.45-13.68.81-20.51,1.45l-10.27.88-10.25,1.06-5.13.53-5.12.62-10.26,1.26c-3.42.43-6.82,1-10.24,1.42s-6.84.94-10.25,1.49c-13.67,2-27.26,4.57-40.88,7.17s-27.16,5.75-40.71,9-27,6.83-40.45,10.75S882.92,153.06,869.64,157.76Z"/><path class="cls-13" d="M826.21,1869c-15.41.67-30.86.18-46.3-.57s-30.86-2.14-46.24-3.93-30.75-3.94-46.06-6.52l-5.75-1-5.73-1.06-11.45-2.15-11.43-2.35c-3.81-.77-7.6-1.62-11.4-2.48a862.34,862.34,0,0,1-90.12-25.31,820.52,820.52,0,0,1-87.28-35.35,748.08,748.08,0,0,1-82.93-45.87c-13.33-8.6-26.46-17.56-39.22-27.07S317,1696,305,1685.52a639.25,639.25,0,0,1-67.9-67.71l-7.83-9.12c-1.33-1.5-2.53-3.1-3.78-4.67l-3.73-4.72c-4.92-6.33-10.05-12.51-14.64-19.09l-7-9.77-3.51-4.89c-1.18-1.62-2.23-3.34-3.35-5-4.38-6.72-8.85-13.39-13.15-20.17l-12.27-20.7c-1-1.71-2-3.49-2.93-5.26l-2.84-5.3-5.68-10.6-2.81-5.32c-.91-1.78-1.74-3.61-2.62-5.41l-5.17-10.85c-1.71-3.62-3.47-7.22-5.14-10.86L135.89,1455c-6.44-14.67-11.81-29.74-17.24-44.77l-7.24-22.82c-.59-1.9-1.22-3.8-1.79-5.71l-1.56-5.77L105,1364.41l-3.07-11.54c-1-3.86-1.75-7.76-2.64-11.64l-2.54-11.64-1.26-5.83c-.43-1.94-.86-3.87-1.17-5.83l-4.06-23.45-1-5.86c-.32-1.95-.52-3.92-.79-5.88L87,1271l-1.49-11.77c-.23-2-.52-3.92-.7-5.89l-.5-5.9-2-23.58c-.14-2-.37-3.93-.42-5.9l-.24-5.9-.48-11.8-.45-11.79c-.06-2-.18-3.92-.18-5.89v-5.89l.07-23.54,0-5.88c0-2,.15-3.92.22-5.88l.5-11.73.54-11.73.27-5.86c.09-2,.17-3.9.35-5.85l2-23.34,1-11.66c.14-1.94.42-3.87.65-5.81l.73-5.8,2.92-23.17c.89-7.73,2.28-15.39,3.52-23.06l3.85-23,.49-2.87.58-2.85,1.17-5.7,2.34-11.39c1.59-7.59,3.11-15.18,4.77-22.74l5.54-22.54c1.85-7.51,3.69-15,5.7-22.46,4.23-14.87,8.51-29.7,13-44.45,4.87-14.65,9.71-29.27,14.86-43.78-1.85,15.33-4,30.53-6.12,45.71-1,7.61-1.82,15.23-2.73,22.83s-1.88,15.18-2.8,22.76l-4.57,45.54-1.69,22.77-.88,11.36-.44,5.67-.23,2.84-.13,2.84-1.11,22.72c-.33,7.57-.93,15.11-1,22.68l-.5,22.66-.13,5.65c0,1.89-.12,3.77-.07,5.66l.1,11.3.15,22.58c0,1.88.07,3.76.15,5.63l.23,5.63.46,11.26.41,11.24c.08,1.87.11,3.75.23,5.62l.42,5.6,1.6,22.39.4,5.59c.13,1.86.38,3.71.57,5.57l1.19,11.13,1.17,11.12.59,5.56c.16,1.86.51,3.69.75,5.54l3.14,22.08.78,5.52c.27,1.84.65,3.65,1,5.48l2,10.95,2,10.94c.34,1.82.61,3.66,1,5.47l1.2,5.41,4.74,21.67c.36,1.81.84,3.59,1.31,5.38l1.41,5.35L153,1328c.94,3.57,1.8,7.15,2.81,10.69l3.21,10.57,3.2,10.55,1.59,5.28c.57,1.75,1.2,3.47,1.79,5.21l7.22,20.8,8,20.48,2,5.11c.65,1.72,1.46,3.36,2.18,5l4.45,10,4.4,10c1.57,3.3,3.22,6.57,4.82,9.85l4.82,9.84c.81,1.63,1.59,3.29,2.43,4.91l2.63,4.8,5.2,9.64,2.6,4.81c.87,1.61,1.72,3.23,2.69,4.78l11.21,18.79a648.87,648.87,0,0,0,111.87,134.43c43.23,39.77,91.83,74.12,143.69,103.48a1033.46,1033.46,0,0,0,164.06,74c7.1,2.62,14.31,4.91,21.47,7.41l10.81,3.52,5.41,1.76,5.44,1.7c14.47,4.62,29.1,8.75,43.79,12.82s29.49,7.78,44.4,11.2S811.05,1866.25,826.21,1869Z"/></g></g></svg>