<svg xmlns="http://www.w3.org/2000/svg" xmlns:xlink="http://www.w3.org/1999/xlink" viewBox="0 0 2048 2048"><defs><style>.cls-1{fill:url(#radial-gradient);}.cls-2,.cls-5,.cls-6{fill:none;}.cls-2,.cls-6{stroke:#fff;stroke-miterlimit:10;}.cls-2{stroke-width:5.4px;}.cls-3{isolation:isolate;}.cls-4{clip-path:url(#clip-path);}.cls-6{stroke-width:2.18px;opacity:0.03;mix-blend-mode:screen;}.cls-7{fill:#ccc;}.cls-8{fill:url(#linear-gradient);}.cls-9{fill:#a8a8a8;}.cls-10{clip-path:url(#clip-path-2);}</style><radialGradient id="radial-gradient" cx="3438.89" cy="-766.85" r="1061.63" gradientTransform="translate(678.13 -424.63) scale(0.72 0.74)" gradientUnits="userSpaceOnUse"><stop offset="0" stop-color="#1b0061"/><stop offset="0.24" stop-color="#1b0263"/><stop offset="0.33" stop-color="#190968"/><stop offset="0.39" stop-color="#161471"/><stop offset="0.44" stop-color="#12257f"/><stop offset="0.49" stop-color="#0d3b91"/><stop offset="0.53" stop-color="#0656a6"/><stop offset="0.56" stop-color="#0071bc"/><stop offset="0.56" stop-color="#006db3"/><stop offset="0.57" stop-color="#006298"/><stop offset="0.58" stop-color="#005984"/><stop offset="0.59" stop-color="#005375"/><stop offset="0.6" stop-color="#004f6d"/><stop offset="0.63" stop-color="#004e6a"/><stop offset="0.68" stop-color="#003d53"/><stop offset="0.77" stop-color="#00232f"/><stop offset="0.86" stop-color="#001015"/><stop offset="0.94" stop-color="#000406"/><stop offset="1"/></radialGradient><clipPath id="clip-path"><ellipse id="_Ellipse_" data-name="&lt;Ellipse&gt;" class="cls-1" cx="3152.19" cy="-989.48" rx="763.5" ry="782.25"/></clipPath><linearGradient id="linear-gradient" x1="306.8" y1="980.3" x2="1764.8" y2="980.3" gradientUnits="userSpaceOnUse"><stop offset="0" stop-color="#bdccd4"/><stop offset="1" stop-color="#000046"/></linearGradient><clipPath id="clip-path-2"><circle id="OuterShell" class="cls-2" cx="1114.19" cy="1303.4" r="405.98"/></clipPath></defs><title>Educational</title><g class="cls-3"><g id="Layer_4" data-name="Layer 4"><ellipse id="_Ellipse_2" data-name="&lt;Ellipse&gt;" class="cls-1" cx="3152.19" cy="-989.48" rx="763.5" ry="782.25"/><g class="cls-4"><polyline class="cls-5" points="3151.9 -989.79 3250.51 -1313.36 3151.9 -989.79 3053.3 -666.21 3151.9 -989.79 3467.94 -888.83 3151.9 -989.79 2835.86 -1090.74 3151.9 -989.79 2931.27 -3084.17 3151.9 -989.79 3372.53 1104.6 3151.9 -989.79 5197.53 -1215.68 3151.9 -989.79 1106.28 -763.89 3151.9 -989.79 2706.52 -2856.71 3151.9 -989.79 3597.28 877.14 3151.9 -989.79 4975.36 -1445.78 3151.9 -989.79 1328.44 -533.79 3151.9 -989.79 2714.64 -2653.51 3151.9 -989.79 3589.16 673.94 3151.9 -989.79 4776.9 -1437.46 3151.9 -989.79 1526.91 -542.11 3151.9 -989.79 3493.13 -2994.14 3151.9 -989.79 2810.67 1014.57 3151.9 -989.79 5109.59 -640.43 3151.9 -989.79 1194.21 -1339.15 3151.9 -989.79 4933.99 -2779.14 3151.9 -989.79 1369.81 799.57 3151.9 -989.79 4899.6 834.78 3151.9 -989.79 1404.2 -2814.35 3151.9 -989.79 3653.71 -1734.33 3151.9 -989.79 2650.09 -245.24 3151.9 -989.79 3879.11 -476.02 3151.9 -989.79 2424.69 -1503.55 3151.9 -989.79 2657.28 -2211.47 3151.9 -989.79 3646.52 231.89 3151.9 -989.79 4345.14 -1496.2 3151.9 -989.79 1958.66 -483.38 3151.9 -989.79 3655.7 -2384.41 3151.9 -989.79 2648.1 404.84 3151.9 -989.79 4514.06 -473.97 3151.9 -989.79 1789.74 -1505.6 3151.9 -989.79 5417.76 -2263.81 3151.9 -989.79 886.04 284.24 3151.9 -989.79 4396.27 1330.08 3151.9 -989.79 1907.53 -3309.65 3151.9 -989.79 4635.09 -2881.52 3151.9 -989.79 1668.72 901.94 3151.9 -989.79 4999.59 528.75 3151.9 -989.79 1304.21 -2508.32 3151.9 -989.79 2830.9 -1919.03 3151.9 -989.79 3472.9 -60.54 3151.9 -989.79 4059.52 -1318.43 3151.9 -989.79 2244.29 -661.14 3151.9 -989.79 3362.84 -1761.13 3151.9 -989.79 2940.96 -218.44 3151.9 -989.79 3905.29 -773.82 3151.9 -989.79 2398.51 -1205.76 3151.9 -989.79 3830.76 -1846.68 3151.9 -989.79 2473.04 -132.89 3151.9 -989.79 3988.85 -294.75 3151.9 -989.79 2314.95 -1684.83 3151.9 -989.79 3915.67 -1731.84 3151.9 -989.79 2388.14 -247.74 3151.9 -989.79 3876.68 -207.82 3151.9 -989.79 2427.13 -1771.76"/><polyline class="cls-6" points="3151.9 -989.79 3250.51 -1313.36 3151.9 -989.79 3053.3 -666.21 3151.9 -989.79 3467.94 -888.83 3151.9 -989.79 2835.86 -1090.74 3151.9 -989.79 2931.27 -3084.17 3151.9 -989.79 3372.53 1104.6 3151.9 -989.79 5197.53 -1215.68 3151.9 -989.79 1106.28 -763.89 3151.9 -989.79 2706.52 -2856.71 3151.9 -989.79 3597.28 877.14 3151.9 -989.79 4975.36 -1445.78 3151.9 -989.79 1328.44 -533.79 3151.9 -989.79 2714.64 -2653.51 3151.9 -989.79 3589.16 673.94 3151.9 -989.79 4776.9 -1437.46 3151.9 -989.79 1526.91 -542.11 3151.9 -989.79 3493.13 -2994.14 3151.9 -989.79 2810.67 1014.57 3151.9 -989.79 5109.59 -640.43 3151.9 -989.79 1194.21 -1339.15 3151.9 -989.79 4933.99 -2779.14 3151.9 -989.79 1369.81 799.57 3151.9 -989.79 4899.6 834.78 3151.9 -989.79 1404.2 -2814.35 3151.9 -989.79 3653.71 -1734.33 3151.9 -989.79 2650.09 -245.24 3151.9 -989.79 3879.11 -476.02 3151.9 -989.79 2424.69 -1503.55 3151.9 -989.79 2657.28 -2211.47 3151.9 -989.79 3646.52 231.89 3151.9 -989.79 4345.14 -1496.2 3151.9 -989.79 1958.66 -483.38 3151.9 -989.79 3655.7 -2384.41 3151.9 -989.79 2648.1 404.84 3151.9 -989.79 4514.06 -473.97 3151.9 -989.79 1789.74 -1505.6 3151.9 -989.79 5417.76 -2263.81 3151.9 -989.79 886.04 284.24 3151.9 -989.79 4396.27 1330.08 3151.9 -989.79 1907.53 -3309.65 3151.9 -989.79 4635.09 -2881.52 3151.9 -989.79 1668.72 901.94 3151.9 -989.79 4999.59 528.75 3151.9 -989.79 1304.21 -2508.32 3151.9 -989.79 2830.9 -1919.03 3151.9 -989.79 3472.9 -60.54 3151.9 -989.79 4059.52 -1318.43 3151.9 -989.79 2244.29 -661.14 3151.9 -989.79 3362.84 -1761.13 3151.9 -989.79 2940.96 -218.44 3151.9 -989.79 3905.29 -773.82 3151.9 -989.79 2398.51 -1205.76 3151.9 -989.79 3830.76 -1846.68 3151.9 -989.79 2473.04 -132.89 3151.9 -989.79 3988.85 -294.75 3151.9 -989.79 2314.95 -1684.83 3151.9 -989.79 3915.67 -1731.84 3151.9 -989.79 2388.14 -247.74 3151.9 -989.79 3876.68 -207.82 3151.9 -989.79 2427.13 -1771.76"/></g><polygon class="cls-7" points="1388.6 1656.5 384.2 1656.5 384.2 1592.9 1442.6 1592.9 1388.6 1656.5"/><rect class="cls-8" x="306.8" y="16.4" width="1458" height="1927.8"/><polygon class="cls-9" points="306.8 16.4 177.2 114.53 177.2 2030.6 306.8 1942.8 306.8 16.4"/><g id="Astronaut"><g class="cls-10"><g id="AstronautProfile"><g id="Body"><path id="Neck" class="cls-2" d="M1013,1270.6s-10.75,13.22,0,30,239.15,0,239.15,0,13.22-20.64,0-30Z"/><path id="LaptopBase" class="cls-2" d="M1177.89,1716.43,807,1712c-6.7,0-12-5.82-12-12.88l2.29-230.85c.18-22.22,17.64-40.21,39-39.86l318.16,3.7c21.34.18,38.44,18.52,38.09,40.74l-2.29,230.68A12.61,12.61,0,0,1,1177.89,1716.43Z"/><path id="Arm" class="cls-2" d="M1370.45,1377.12c-44.27-55.2-127.69-34.92-157.67,38.44a18,18,0,0,1-.71,1.77c-8.11,20.28-6,43.21,5.82,59.08l69,93.29c7.58,10.41,4.06,27.16-7.23,33.86-22.73,13.69-58.29,37.82-87.37,69.5l-.31,31.47a12.61,12.61,0,0,1-12.35,12.87l-19.32-.23c-1.17,2.21-2.32,4.42-3.4,6.67-.53.88-.88,1.76-1.41,2.82,129.8-16.05,240.38-95.05,301.4-205.63C1438.52,1469,1402,1416.09,1370.45,1377.12Z"/><path id="SuitBox" class="cls-2" d="M1166.75,1433.19v-30.68a46.78,46.78,0,0,0-46.56-46.73H1016.67a46.78,46.78,0,0,0-46.56,46.73v25.91l183.24,2.14A36.76,36.76,0,0,1,1166.75,1433.19Z"/><path id="Shoulders" class="cls-2" d="M1343.87,1341.05c-26.43-18.09-100.29-37.47-100.29-37.47l-226.24,5.81s-56.05,27.79-89,91.54c-3.67,7.11-7.15,16.55-10.41,27.7l236.4,2.75c21.34.17,38.44,18.52,38.09,40.74l-2.29,230.68a12.62,12.62,0,0,1-12.35,12.87L879,1712.12c-.15,2.12-.22,3.28-.22,3.28s-26.62,45.67,186.5,90.25S1415.66,1617,1415.66,1617l40.67-96.93S1390.73,1372.93,1343.87,1341.05Z"/></g><g id="Head"><path id="FaceReflect" class="cls-2" d="M1054.06,1026.34c-3.53,1.06-7.06,2.12-10.41,3.35a92.75,92.75,0,0,0-9.7,4.06A64.28,64.28,0,0,0,1017,1044.5a66.27,66.27,0,0,0-7.23,6.88c-1.06,1.24-2.29,2.47-3.35,3.88-.71.53-.88,1.41-1.59,2.12l-1.59,2.11c-4,5.65-7.23,12-10.75,18.7l-.71-.18c.35-1.76.88-3.52,1.41-5.29l.88-2.64a15,15,0,0,1,.89-2.65c.7-1.59,1.41-3.35,2.11-5.11.35-.89.71-1.77,1.06-2.47l1.41-2.47a60.59,60.59,0,0,1,6.17-9.35,66.76,66.76,0,0,1,7.76-7.94,58.94,58.94,0,0,1,19.23-10.58,60.07,60.07,0,0,1,21.69-3.52Z"/><path id="Head-2" data-name="Head" class="cls-2" d="M1325.26,1088.52C1306.94,992.66,1221,942,1110.33,954.64c-102,11.71-157.92,69.19-148.11,196.76,5,64.69,27.4,89.74,56.28,113.7,78.31,2.34,156.44.9,234.75.9C1307.86,1224.74,1338,1156.63,1325.26,1088.52Z"/><g id="Buttons"><g id="Bottom"><ellipse id="Base1" class="cls-2" cx="1263.04" cy="1124.04" rx="29.63" ry="33.33"/><ellipse id="Base2" class="cls-2" cx="1261.98" cy="1197.23" rx="22.22" ry="22.57"/></g><g id="ButtonShades"><path id="_1.1" data-name="1.1" class="cls-2" d="M1259.51,1095.12a55.87,55.87,0,0,0-9,7.94,30.51,30.51,0,0,0-6.17,9.52,25.53,25.53,0,0,0-2.29,11.11,72.5,72.5,0,0,0,1,12,31,31,0,0,1-4.23-11.64,24.09,24.09,0,0,1,1.76-12.7,27.71,27.71,0,0,1,7.76-10.22A22.21,22.21,0,0,1,1259.51,1095.12Z"/><path id="_1.2" data-name="1.2" class="cls-2" d="M1280.85,1117a10,10,0,0,1,3.88,3.35,10.19,10.19,0,0,1,1.59,5.11,9.7,9.7,0,0,1-1.59,5.29,1.44,1.44,0,0,1-.88.89l-.88.88a9.78,9.78,0,0,1-2.29,1.41c.17-.71.7-1.59.88-2.29s.71-1.42.88-2.12a10.94,10.94,0,0,0,.71-4.06,8.49,8.49,0,0,0-.88-4A11.6,11.6,0,0,0,1280.85,1117Z"/><path id="_2.2" data-name="2.2" class="cls-2" d="M1274.51,1188.24a10.15,10.15,0,0,1,3.88,3.35,10.28,10.28,0,0,1,1.58,5.11,9.78,9.78,0,0,1-1.58,5.29,1.43,1.43,0,0,1-.89.88l-.88.89a10.12,10.12,0,0,1-2.29,1.41c.18-.71.7-1.59.88-2.3s.71-1.41.88-2.11a10.94,10.94,0,0,0,.71-4.06,8.49,8.49,0,0,0-.88-4A14.51,14.51,0,0,0,1274.51,1188.24Z"/><path id="_2.1" data-name="2.1" class="cls-2" d="M1255.81,1180.65a34.19,34.19,0,0,0-4.94,6.35,18.18,18.18,0,0,0-2.64,7.06,7.13,7.13,0,0,0-.18,1.76v5.64a7.09,7.09,0,0,0,.18,1.94l.17,1.94a32,32,0,0,1,.71,4.06,20,20,0,0,1-2.12-3.7l-.88-1.94c-.17-.71-.53-1.41-.7-2.12a8.8,8.8,0,0,0-.36-2.12v-4.4a9.92,9.92,0,0,1,.18-2.3,18.72,18.72,0,0,1,3.7-7.76A27.43,27.43,0,0,1,1255.81,1180.65Z"/></g></g><path id="Face" class="cls-2" d="M1170.68,1235.8h-133c-29.9,0-54.35-25.08-54.35-55.71V1075.57c0-32.15,25.6-58.4,57-58.4H1172c22,0,39.65,18.34,39.65,40.73v135.82C1211.82,1217,1193.31,1235.8,1170.68,1235.8Z"/></g></g></g><circle id="OuterShell-2" data-name="OuterShell" class="cls-2" cx="1114.19" cy="1303.4" r="405.98"/></g><text></text></g></g></svg>