<svg xmlns="http://www.w3.org/2000/svg" xmlns:xlink="http://www.w3.org/1999/xlink" viewBox="0 0 2048 2048"><defs><style>.cls-1{fill:none;stroke:#000;stroke-width:7.78px;}.cls-1,.cls-2{stroke-miterlimit:10;}.cls-2{fill:#d0ab4a;stroke-width:3.12px;stroke:url(#linear-gradient);}.cls-3{fill:#e5c54c;}.cls-4{clip-path:url(#clip-path);}</style><linearGradient id="linear-gradient" x1="469.39" y1="1819.06" x2="1575.92" y2="150.34" gradientUnits="userSpaceOnUse"><stop offset="0.32" stop-color="#ffdf15"/><stop offset="0.47" stop-color="#fad816"/><stop offset="0.69" stop-color="#ecc419"/><stop offset="0.94" stop-color="#d5a51e"/><stop offset="0.96" stop-color="#d4a31e"/></linearGradient><clipPath id="clip-path"><circle id="OuterShell" class="cls-1" cx="1025.33" cy="1091.85" r="584.61"/></clipPath></defs><title>Galactic Security</title><g id="Layer_2" data-name="Layer 2"><image width="800" height="892" transform="translate(774 657) scale(0.75)" xlink:href="../../badge.jpg"/></g><g id="Layer_4" data-name="Layer 4"><path class="cls-2" d="M1673.46,585.68c-24.79-79.89,110.93-184.09,143.06-207.4a6.39,6.39,0,0,0,.32-10.09l-328.55-274a6.4,6.4,0,0,0-7.54-.47c-278.52,176.48-454.69-30.6-454.69-30.6-.52.53-1,1-1.56,1.56-.52-.53-1-1-1.56-1.56,0,0-176.17,207.08-454.69,30.6a6.4,6.4,0,0,0-7.54.47l-328.55,274a6.39,6.39,0,0,0,.32,10.09c32.13,23.31,167.85,127.51,143.06,207.4-28.08,90.48-246.48,602.16-227.76,720.72S188.33,1783.65,678,1877.31l.41.07c7.87,1,252.78,32.18,268.13,93.58,14.15,56.61,66.82,46.45,76.48,44.08a6.25,6.25,0,0,1,3,0c9.66,2.37,62.33,12.53,76.48-44.08,15.35-61.4,260.26-92.59,268.13-93.58l.41-.07c489.63-93.66,511.46-452.37,530.18-570.91S1701.54,676.16,1673.46,585.68Z"/><path class="cls-3" d="M1029.84,1908a6.44,6.44,0,0,1-10.68,0c-37.26-54.4-115.69-80.24-190.87-98.25-61.24-14.67-120.11-22.85-135.09-24.81l-.41-.07C522.1,1751.68,399.09,1679.4,327.13,1570c-60.14-91.45-74.08-189.18-83.31-253.85-1.23-8.62-2.36-16.54-3.48-23.65,0-.17,0-.32-.05-.49-.46-6.31-.94-51.67,55.31-220.08,36.51-109.31,83.89-232.1,118.48-321.76,25-64.74,43-111.51,50.85-136.74,22.65-73-6.6-151.45-86.93-233.31l-1.41-1.43a6.38,6.38,0,0,1,.43-9.42l194.17-162a6.4,6.4,0,0,1,6.92-.8c70.17,34.55,140.7,52,210.42,52,78.2,0,155.23-22.65,222.75-65.48l.63-.4a6.42,6.42,0,0,1,8,.9l.06.06a6.4,6.4,0,0,0,9.13,0h0a6.42,6.42,0,0,1,8-.9l.56.36c67.52,42.83,144.55,65.47,222.77,65.47,69.73,0,140.24-17.46,210.41-52a6.4,6.4,0,0,1,6.92.8l194.17,162a6.38,6.38,0,0,1,.43,9.42l-1.41,1.43c-80.33,81.86-109.58,160.35-86.93,233.31,7.83,25.23,25.87,72,50.85,136.74,34.59,89.66,82,212.45,118.48,321.76,56.25,168.41,55.77,213.77,55.31,220.08,0,.17,0,.32,0,.49-1.12,7.11-2.25,15-3.48,23.65-9.23,64.67-23.17,162.4-83.31,253.85-72,109.41-195,181.69-365.66,214.86l-.41.07c-15,2-73.85,10.14-135.09,24.81C1145.53,1827.74,1067.1,1853.59,1029.84,1908Z"/><g id="Astronaut"><g class="cls-4"><g id="AstronautProfile"><g id="Body"><path id="Neck" class="cls-1" d="M879.56,1044.61s-15.49,19.05,0,43.17,344.37,0,344.37,0,19-29.71,0-43.17Z"/><path id="LaptopBase" class="cls-1" d="M1117.06,1686.62,583,1680.27c-9.65,0-17.27-8.38-17.27-18.54L569,1329.3c.25-32,25.39-57.91,56.12-57.4l458.14,5.33c30.73.26,55.37,26.67,54.86,58.67l-3.3,332.18C1134.84,1678.49,1126.71,1686.62,1117.06,1686.62Z"/><path id="Arm" class="cls-1" d="M1394.33,1198c-63.74-79.49-183.86-50.28-227,55.36-.26,1-.77,1.78-1,2.54-11.68,29.21-8.63,62.22,8.38,85.08l99.3,134.34c10.92,15,5.84,39.11-10.41,48.76-32.73,19.71-83.94,54.46-125.81,100.08l-.45,45.31c0,10.41-8.13,18.54-17.78,18.54l-27.82-.33c-1.7,3.17-3.35,6.37-4.9,9.6-.76,1.27-1.27,2.54-2,4.06,186.91-23.11,346.14-136.88,434-296.11C1492.36,1330.31,1439.79,1254.12,1394.33,1198Z"/><path id="SuitBox" class="cls-1" d="M1101,1278.74v-44.17c0-37.08-30.22-67.3-67-67.3H884.89c-36.82,0-67,30.22-67,67.3v37.31l263.86,3.07A53.29,53.29,0,0,1,1101,1278.74Z"/><path id="Shoulders" class="cls-1" d="M1356.06,1146.07c-38.06-26.06-144.41-54-144.41-54l-325.79,8.37s-80.71,40-128.21,131.82c-5.3,10.24-10.29,23.83-15,39.88l340.42,4c30.73.26,55.36,26.67,54.85,58.67l-3.3,332.18c0,10.41-8.13,18.53-17.78,18.53l-430.13-5.11c-.21,3.06-.32,4.73-.32,4.73s-38.33,65.75,268.57,130,504.48-271.7,504.48-271.7L1518,1403.81S1423.54,1192,1356.06,1146.07Z"/></g><g id="Head"><path id="FaceReflect" class="cls-1" d="M938.73,692.88c-5.08,1.52-10.15,3-15,4.82a136.19,136.19,0,0,0-14,5.84A92.88,92.88,0,0,0,885.4,719a94.6,94.6,0,0,0-10.41,9.9c-1.52,1.78-3.3,3.56-4.83,5.59-1,.76-1.26,2-2.28,3-.76,1-1.52,2-2.29,3-5.84,8.13-10.41,17.27-15.49,26.92l-1-.25c.5-2.54,1.27-5.08,2-7.62l1.27-3.81a21.84,21.84,0,0,1,1.27-3.81c1-2.29,2-4.83,3.05-7.36.5-1.27,1-2.54,1.52-3.56l2-3.56a87.87,87.87,0,0,1,8.89-13.46,94.68,94.68,0,0,1,11.17-11.42A84.53,84.53,0,0,1,908,697.45a86.77,86.77,0,0,1,31.24-5.08Z"/><path id="Head-2" data-name="Head" class="cls-1" d="M1329.27,782.42c-26.39-138-150.08-210.95-309.5-192.78C872.88,606.5,792.37,689.27,806.5,873c7.19,93.15,39.45,129.22,81,163.73,112.77,3.37,225.27,1.29,338,1.29C1304.21,978.58,1347.67,880.5,1329.27,782.42Z"/><g id="Buttons"><g id="Bottom"><ellipse id="Base1" class="cls-1" cx="1239.67" cy="833.57" rx="42.66" ry="48"/><ellipse id="Base2" class="cls-1" cx="1238.15" cy="938.96" rx="32" ry="32.51"/></g><g id="ButtonShades"><path id="_1.1" data-name="1.1" class="cls-1" d="M1234.59,791.92a80.54,80.54,0,0,0-12.95,11.43,44,44,0,0,0-8.89,13.71,36.94,36.94,0,0,0-3.3,16,103.21,103.21,0,0,0,1.53,17.27,44.59,44.59,0,0,1-6.1-16.76,34.63,34.63,0,0,1,2.54-18.28,39.85,39.85,0,0,1,11.18-14.73A32,32,0,0,1,1234.59,791.92Z"/><path id="_1.2" data-name="1.2" class="cls-1" d="M1265.32,823.41a14.59,14.59,0,0,1,5.59,4.83,14.77,14.77,0,0,1,2.29,7.36,14.07,14.07,0,0,1-2.29,7.62,2.07,2.07,0,0,1-1.27,1.27l-1.27,1.27a14.39,14.39,0,0,1-3.3,2c.25-1,1-2.28,1.27-3.3s1-2,1.27-3a15.78,15.78,0,0,0,1-5.84,12.24,12.24,0,0,0-1.27-5.84C1267.36,827.73,1266.34,825.7,1265.32,823.41Z"/><path id="_2.2" data-name="2.2" class="cls-1" d="M1256.18,926a14.58,14.58,0,0,1,5.59,4.83,14.76,14.76,0,0,1,2.28,7.36,14.08,14.08,0,0,1-2.28,7.62,2.09,2.09,0,0,1-1.27,1.27l-1.27,1.27a14.61,14.61,0,0,1-3.3,2c.25-1,1-2.28,1.27-3.3s1-2,1.27-3.05a15.77,15.77,0,0,0,1-5.84,12.12,12.12,0,0,0-1.27-5.84A20.32,20.32,0,0,0,1256.18,926Z"/><path id="_2.1" data-name="2.1" class="cls-1" d="M1229.26,915.09a49.13,49.13,0,0,0-7.11,9.14,26.25,26.25,0,0,0-3.81,10.16,10.69,10.69,0,0,0-.25,2.54v8.13a10.55,10.55,0,0,0,.25,2.79l.26,2.8c.25,2,1,3.8,1,5.84a29.09,29.09,0,0,1-3-5.34l-1.27-2.79c-.25-1-.76-2-1-3.05a13.06,13.06,0,0,0-.51-3v-6.34a14.78,14.78,0,0,1,.25-3.31,26.79,26.79,0,0,1,5.34-11.17A38.66,38.66,0,0,1,1229.26,915.09Z"/></g></g><path id="Face" class="cls-1" d="M1106.67,994.5H915.16c-43,0-78.26-36.11-78.26-80.22V763.77c0-46.29,36.87-84.1,82.07-84.1h189.61c31.64,0,57.09,26.42,57.09,58.65V933.91C1165.91,967.36,1139.26,994.5,1106.67,994.5Z"/></g></g></g><circle id="OuterShell-2" data-name="OuterShell" class="cls-1" cx="1025.33" cy="1091.85" r="584.61"/></g></g></svg>