<svg xmlns="http://www.w3.org/2000/svg" xmlns:xlink="http://www.w3.org/1999/xlink" viewBox="0 0 2048 2048"><defs><style>.cls-1{fill:none;stroke:#000;stroke-width:5.18px;}.cls-1,.cls-2{stroke-miterlimit:10;}.cls-2{fill:#d0ab4a;stroke-width:3.12px;stroke:url(#linear-gradient);}.cls-3{fill:#e5c54c;}.cls-4{clip-path:url(#clip-path);}</style><linearGradient id="linear-gradient" x1="469.39" y1="1819.06" x2="1575.92" y2="150.34" gradientUnits="userSpaceOnUse"><stop offset="0.32" stop-color="#ffdf15"/><stop offset="0.47" stop-color="#fad816"/><stop offset="0.69" stop-color="#ecc419"/><stop offset="0.94" stop-color="#d5a51e"/><stop offset="0.96" stop-color="#d4a31e"/></linearGradient><clipPath id="clip-path"><circle id="OuterShell" class="cls-1" cx="1025.33" cy="1408.85" r="389.74"/></clipPath></defs><title>Galactic Security</title><g id="Layer_2" data-name="Layer 2"><image width="800" height="892" transform="translate(774 657) scale(0.75)" xlink:href="../badge.jpg"/></g><g id="Layer_4" data-name="Layer 4"><path class="cls-2" d="M1673.46,585.68c-24.79-79.89,110.93-184.09,143.06-207.4a6.39,6.39,0,0,0,.32-10.09l-328.55-274a6.4,6.4,0,0,0-7.54-.47c-278.52,176.48-454.69-30.6-454.69-30.6-.52.53-1,1-1.56,1.56-.52-.53-1-1-1.56-1.56,0,0-176.17,207.08-454.69,30.6a6.4,6.4,0,0,0-7.54.47l-328.55,274a6.39,6.39,0,0,0,.32,10.09c32.13,23.31,167.85,127.51,143.06,207.4-28.08,90.48-246.48,602.16-227.76,720.72S188.33,1783.65,678,1877.31l.41.07c7.87,1,252.78,32.18,268.13,93.58,14.15,56.61,66.82,46.45,76.48,44.08a6.25,6.25,0,0,1,3,0c9.66,2.37,62.33,12.53,76.48-44.08,15.35-61.4,260.26-92.59,268.13-93.58l.41-.07c489.63-93.66,511.46-452.37,530.18-570.91S1701.54,676.16,1673.46,585.68Z"/><path class="cls-3" d="M1029.84,1908a6.44,6.44,0,0,1-10.68,0c-37.26-54.4-115.69-80.24-190.87-98.25-61.24-14.67-120.11-22.85-135.09-24.81l-.41-.07C522.1,1751.68,399.09,1679.4,327.13,1570c-60.14-91.45-74.08-189.18-83.31-253.85-1.23-8.62-2.36-16.54-3.48-23.65,0-.17,0-.32-.05-.49-.46-6.31-.94-51.67,55.31-220.08,36.51-109.31,83.89-232.1,118.48-321.76,25-64.74,43-111.51,50.85-136.74,22.65-73-6.6-151.45-86.93-233.31l-1.41-1.43a6.38,6.38,0,0,1,.43-9.42l194.17-162a6.4,6.4,0,0,1,6.92-.8c70.17,34.55,140.7,52,210.42,52,78.2,0,155.23-22.65,222.75-65.48l.63-.4a6.42,6.42,0,0,1,8,.9l.06.06a6.4,6.4,0,0,0,9.13,0h0a6.42,6.42,0,0,1,8-.9l.56.36c67.52,42.83,144.55,65.47,222.77,65.47,69.73,0,140.24-17.46,210.41-52a6.4,6.4,0,0,1,6.92.8l194.17,162a6.38,6.38,0,0,1,.43,9.42l-1.41,1.43c-80.33,81.86-109.58,160.35-86.93,233.31,7.83,25.23,25.87,72,50.85,136.74,34.59,89.66,82,212.45,118.48,321.76,56.25,168.41,55.77,213.77,55.31,220.08,0,.17,0,.32,0,.49-1.12,7.11-2.25,15-3.48,23.65-9.23,64.67-23.17,162.4-83.31,253.85-72,109.41-195,181.69-365.66,214.86l-.41.07c-15,2-73.85,10.14-135.09,24.81C1145.53,1827.74,1067.1,1853.59,1029.84,1908Z"/><path d="M563.29,646.16c-19.34,10.84-47,19.42-57.21-6.85q-9.18-24.57-18.37-49.13c-9.95-27.55,14.71-48.29,37-59.5q25-13,50.43-25.08c5.08-2.37,7.84-1.59,9,2.5,2.3,7.91,3.45,11.86,5.74,19.77,1.19,4.09-.48,6.88-5.45,9.2q-20.73,9.82-41.13,20.25c-8.27,4.28-11.12,8.86-9.28,14.3q6.45,19.14,12.91,38.29c1.84,5.44,5.48,6.32,11.35,3.26,7.34-3.83,11-5.71,18.4-9.38l-7.95-25.23c-1.27-4,.31-6.9,5.17-9.28Q589,562,604.18,555c4.91-2.21,7.58-1.35,8.73,2.75l14.22,50.7c1.15,4.1-.42,6.82-5.11,8.94Q592.26,631.06,563.29,646.16Z"/><path d="M683.69,591.93q-14,5.25-27.92,11c-4.73,1.93-7.29,1-8.38-3.13q-5.76-21.79-11.53-43.59c-2.43-9.65-.5-20,.78-29.62q3.89-22.36,8.1-44.67c.7-4.46,3.59-7.41,9.16-9.51q27.6-10.44,55.77-19.32c5.42-1.71,9.09-1,11.5,2.34q12.75,16.42,25.09,33.16c5.14,7.64,11,15.6,12.71,24.94q3.93,22.43,7.88,44.85c.74,4.25-1.05,6.7-5.88,8.08q-14.6,4.14-29.08,8.78c-5.18,1.65-7.87.57-8.74-3.64-2-9.43-2.93-14.14-4.89-23.57q-17.38,5.68-34.55,12c2.17,9.35,3.26,14,5.44,23.38C690.12,587.54,688.45,590.14,683.69,591.93Zm-5.06-63.06q15.58-5.6,31.28-10.87C704,509,701,504.53,695,495.62c-1.45-1.67-2.86-2.09-4.48-1.53l-5.08,1.76c-1.62.57-2.65,1.84-3.21,4.2Q680.36,514.45,678.63,528.87Z"/><path d="M798.71,556.45c-4.85,1.18-7.28-.15-8-4.42Q782,496.75,773.19,441.47c-.67-4.27,1.34-6.73,6.59-8,10.87-2.58,21.73-5,32.65-7.38,5.28-1.11,7.84.32,8.39,4.62q5.43,42.51,10.87,85c10.91-2.21,16.38-3.23,27.32-5.12L856,482.69c-.47-4.31,1.57-6.61,6.68-7.45q14.77-2.46,29.65-4.44c5.12-.69,7.52.94,7.87,5.27l4.39,54.52c.35,4.33-1.66,6.5-6.56,7.16C864.57,542.47,831.55,548.7,798.71,556.45Z"/><path d="M960.39,531.43q-14.45,1-28.87,2.41c-4.91.48-7.2-1.19-7.49-5.52q-1.54-22.89-3.08-45.77c-.58-9.83,3.15-19.46,6.2-28.56q7.83-20.58,16-41c1.49-4.13,4.82-6.14,10.57-6.54,19.11-1.21,38.18-2,57.33-2.37,5.54-.08,9,1.66,10.67,5.65q9.21,19.74,18.11,39.6c3.53,8.86,7.75,18.2,7.68,28q-.35,23-.67,45.92c-.07,4.35-2.26,6.2-7.18,6.13q-14.84-.26-29.71,0c-5.31.08-7.7-1.76-7.77-6.11l-.36-24.35q-17.77.42-35.53,1.5c.38,9.73.56,14.59.94,24.33C967.39,529.06,965.3,531.09,960.39,531.43Zm6.74-62.79c10.72-.57,21.42-1,32.16-1.36q-5-13.11-10.23-26.14c-1.09-2.05-2.36-2.87-4-2.81l-5.22.22c-1.67.08-2.9,1-3.87,3.15Q971.44,455.14,967.13,468.64Z"/><path d="M1117.11,533.72c-23.95-1.72-47.69-11.66-47.3-38.94l1.59-54.07c1-29,29.14-34.82,53.43-31.88q26,2.69,51.83,6.38c5.3.78,7.44,3.06,7,7.37-.83,8.36-1.24,12.54-2.07,20.9-.43,4.31-2.9,5.84-8.09,5.07q-20.88-3-41.81-5.33c-8.74-.93-12.87,1.5-13.22,7.4q-1.21,20.65-2.45,41.3c-.34,5.72,3.32,8.65,11.75,9.55q20.18,2.14,40.26,5.13c5,.75,7,3,6.59,7.32-.82,8.22-1.22,12.32-2,20.54-.42,4.32-2.76,5.87-7.66,5.14C1149.06,537.22,1133.1,535.3,1117.11,533.72Z"/><path d="M1228.76,551.3c-4.86-1.06-6.76-3.39-6.18-7.68l11.22-84.25c-10.09-2.14-20.25-4.12-30.41-5.92-5.18-.93-7.26-3.21-6.79-7.52.91-8.34,1.36-12.51,2.27-20.86.47-4.31,3-5.81,8.29-4.87,37.49,7,74.42,15.68,111.07,26.18,5.23,1.53,7.17,4.09,6.36,8.32l-3.9,20.47c-.81,4.23-3.41,5.41-8.53,3.91q-15-4.43-30.14-8.35-6.91,41.82-13.82,83.64c-.7,4.26-3.14,5.57-8,4.34Q1244.52,554.83,1228.76,551.3Z"/><path d="M1319.33,569.19c1.62-8,2.43-12,4.06-20.07.85-4.21,3.38-5.39,8.29-3.79,7.76,2.54,11.64,3.86,19.38,6.56q6.24-28.17,12.46-56.32c-8-2.81-12.06-4.17-20.13-6.81-5.09-1.67-7-4.22-6.11-8.44,1.65-8.16,2.48-12.24,4.13-20.41.85-4.21,3.51-5.35,8.71-3.65q44.61,14.87,87.9,33c5.12,2.17,6.87,5,5.74,9.08l-5.45,19.9c-1.13,4.11-3.82,5-8.83,2.83-7.78-3.3-11.67-4.91-19.48-8q-7.08,27.84-14.17,55.68c7.52,3,11.28,4.57,18.76,7.75,4.83,2,6.45,4.78,5.32,8.9-2.14,7.83-3.21,11.74-5.36,19.57-1.13,4.11-3.69,5-8.41,3q-40-16.71-81.12-30.44C1320.22,575.92,1318.48,573.41,1319.33,569.19Z"/><path d="M1479.86,642.67c-21.9-10.85-43.71-28.86-36.18-55.77q7.39-25.41,14.78-50.82c8.5-28.77,39.28-20.24,59.45-9.18q24.6,12.93,48.68,26.76c5,2.87,6.47,5.9,5,9.84-2.84,7.62-4.27,11.43-7.12,19-1.47,3.94-4.24,4.4-9.09,1.59q-19.47-11.17-39.22-21.78c-8.24-4.36-12.83-3.68-14.61,1.79q-6.25,19.15-12.49,38.32c-1.73,5.31,1.09,9.55,9,13.76q19,10.21,37.77,21c4.68,2.71,6.08,5.67,4.61,9.61l-7,18.74c-1.48,3.93-4.13,4.47-8.7,1.82C1510,658.86,1495,650.57,1479.86,642.67Z"/><path d="M593.94,857.34c-3.94,2.29-6.31,1.59-7.78-2.35l-6.9-18.42c-1.47-3.93-.35-6.72,3.68-9.07,14.37-8.33,28.93-16.37,43.72-24a5.52,5.52,0,0,0,2.76-6.85c-1.2-3.71-3.15-4.41-6.06-3.29-10.35,3.74-15.51,5.7-25.83,9.79-13.54,5.7-30.47,5.16-35.13-11.65-2.47-6.61-3.71-9.92-6.19-16.53-8-20.77,8.17-38.82,25.49-48q24.33-12.91,49.15-24.77c4.42-2.08,6.89-1.17,8.08,2.91,2.27,7.78,3.41,11.67,5.68,19.44,1.19,4.08-.19,6.75-4.5,8.78q-20.18,9.63-40,19.92a5.76,5.76,0,0,0-3,7.24c1,2.89,3.32,3.9,6.3,2.71q13.08-5,26.33-9.64c14.57-5.77,30.38-2.33,34.42,14.62l4.93,17.18c5.94,20-8,36.39-25,44.71Q618.66,843.17,593.94,857.34Z"/><path d="M700.89,804c-4.07,1.7-6.35.66-7.46-3.45L664.57,693.82c-1.11-4.12.36-6.78,4.82-8.65,27.48-11.29,55.26-21.45,83.56-30.52,4.54-1.42,6.9-.16,7.72,4.07,1.52,7.91,2.29,11.87,3.82,19.78.81,4.23-.78,6.67-5.21,8.06q-24.57,7.86-48.72,16.76l3.05,12.83q16.89-6.33,34-12c4.37-1.45,6.68-.21,7.55,4l3.68,18c.87,4.21-.64,6.66-4.92,8.08Q737.22,739.8,720.69,746c1.37,5.74,2,8.61,3.41,14.34,15.39-5.75,30.93-11.15,46.62-16,4.24-1.33,6.47,0,7.29,4.2,1.53,7.91,2.29,11.87,3.82,19.78.81,4.23-.65,6.63-4.79,7.93C751.24,784.5,726,793.74,700.89,804Z"/><path d="M840.94,758.91c-21.74,5.39-43.32,1-47.21-24.14L784.28,682c-4.29-26.07,14.84-41.54,38.77-46.31q22.38-5,44.89-9.11c4.61-.81,6.84.75,7.31,5.06.89,8.34,1.34,12.52,2.23,20.86.47,4.31-1.31,6.53-5.81,7.33Q853.54,663,835.55,667c-7.53,1.66-10.52,5.22-9.66,11l6,40.72c.84,5.64,4.47,7.42,11.68,5.84q17.22-3.79,34.59-6.86c4.31-.77,6.41.82,6.87,5.13l2.2,20.52c.46,4.31-1.18,6.51-5.39,7.25C868.13,753,854.53,755.89,840.94,758.91Z"/><path d="M958.36,743.34c-23.5,1.8-53.14.19-55.32-29.32q-4-42.76-7.94-85.54c-.4-4.32,1.45-6.53,6.08-7.17q14.49-2,29.06-3.56c4.63-.49,6.79,1.23,7.06,5.56q2.48,39.56,4.94,79.1c.29,4.68,2.58,7.86,14.7,6.87,12.3-1,14.24-4.52,14-9.21q-1.61-39.62-3.22-79.23c-.18-4.35,1.6-6.39,6.43-6.66,9.39-.55,18.82-.94,28.23-1.16,4.64-.11,6.71,1.77,6.75,6.12l1,86.12C1011.38,734.56,982,741.53,958.36,743.34Z"/><path d="M1039.13,738.13c-4.24-.07-6.09-2-6.06-6.35l.71-112.73c0-4.35,2.08-6.25,6.73-6.17,20.66.49,41.22,1.56,61.82,3.21,19.32,1.33,36.24,11.55,34.16,32.82l-.65,8c-.78,9.69-3.85,16.27-11.55,18.52,12.46,3.11,21.22,14.71,19.25,27.84q-1.65,18.32-3.29,36.65c-.39,4.32-2.41,6-6.63,5.39-10.45-1.4-15.68-2-26.15-3.08-4.23-.43-6-2.5-5.71-6.84.63-10.62.94-15.93,1.58-26.55.31-5.2-1.3-7.63-6.18-8-9.76-.84-14.65-1.19-24.42-1.75l-1.23,34.07c-.15,4.34-2.08,6.14-6.31,5.93C1054.77,738.49,1049.56,738.31,1039.13,738.13Zm34.74-70.41c5.35.3,8,.48,13.39.86,6.25.46,8-2.86,8.27-7.55.13-2.36.19-3.54.31-5.9.24-4.69-1.21-8.32-7.56-8.78-5.44-.39-8.17-.57-13.61-.88Z"/><path d="M1156.49,742.34c.84-8.21,1.26-12.32,2.11-20.53.44-4.32,2.53-5.92,6.84-5.19,6.84,1.16,10.25,1.77,17.07,3.07l7-57.8c-7.12-1.35-10.69-2-17.82-3.2-4.5-.76-6.29-3-5.85-7.29.85-8.35,1.28-12.52,2.14-20.88.44-4.31,2.67-5.89,7.28-5.11,26.34,4.65,52.34,10.24,78.26,16.81,4.57,1.19,6.26,3.61,5.54,7.87l-3.5,20.58c-.72,4.26-3,5.59-7.46,4.43-6.93-1.81-10.4-2.68-17.34-4.34q-4.35,28.71-8.71,57.42c6.64,1.6,10,2.43,16.6,4.16,4.27,1.11,5.83,3.5,5.1,7.75-1.37,8.1-2.06,12.15-3.44,20.25-.72,4.25-2.87,5.62-7,4.53-23.63-6-47.32-11.08-71.33-15.31C1157.71,748.84,1156.05,746.66,1156.49,742.34Z"/><path d="M1289.12,781.51c-4.12-1.38-5.56-3.82-4.69-8q8.57-41.34,17.12-82.67c-10.4-3.4-15.61-5-26.06-8.1-4.44-1.31-6.06-3.73-5.29-8l3.72-20.52c.77-4.24,3.11-5.54,7.67-4.2,32.31,9.75,64,21,95.26,33.67,4.46,1.84,5.94,4.5,4.83,8.62-2.13,8-3.2,12-5.33,20-1.1,4.12-3.5,5.11-7.86,3.31-10.26-4.25-15.4-6.29-25.71-10.21q-9.84,40.89-19.67,81.77c-1,4.17-3.25,5.31-7.35,3.78C1307,787.63,1298.05,784.48,1289.12,781.51Z"/><path d="M1400,827.29c-4.17-2.06-5.23-4.61-4-8.67l6.38-20.78q-7.45-22.8-15.67-45.35c-3.36-9.08-3.67-12.89-.84-23.07q4.38-15.76,8.77-31.54c1.15-4.1,3.61-5.06,8-3.07q13.72,6.12,27.24,12.7c4.41,2.14,5.78,4.89,4.52,8.94l-8.3,26.55c-.71,2.27-1.42,4.54-.59,7.57,1.67,6.21,2.49,9.32,4.11,15.54.55,2.54,1.3,3.86,3.15,4.8l1.68.87c1.85,1,3.12.67,4.93-.64,4.62-3,6.95-4.51,11.62-7.46,2.28-1.44,3-3.67,3.8-5.91,3.56-10.51,5.34-15.76,8.89-26.26,1.36-4,3.88-4.74,8.23-2.37q13,7.05,25.82,14.53c4.32,2.52,5.56,5.38,4.08,9.31l-11.31,30.23c-3.66,9.76-6.18,12.09-13.52,15.69q-18.48,8.93-36.52,18.72l-7,20.29c-1.37,4-3.72,4.79-7.7,2.67Q1413,833.71,1400,827.29Z"/><path d="M836.72,973c-3.48,1-5.35-.44-6.13-4.67q-10.08-54.93-20.17-109.86c-.78-4.24.59-6.61,4.47-7.7,9.64-2.72,14.47-4,24.14-6.4,3.9-1,5.91.51,6.56,4.78l5.64,37.08c10.06-2.42,15.09-3.54,25.18-5.6Q874,862,871.59,843.36c-.56-4.3.92-6.55,4.84-7.32,9.73-1.91,14.6-2.79,24.36-4.39,3.93-.65,5.85,1,6.28,5.31l11.08,111.87c.42,4.32-.94,6.45-4.46,7-8.75,1.43-13.11,2.22-21.83,3.94-3.51.69-5.3-.88-5.86-5.17q-2.46-19.07-4.94-38.12c-9.77,2-14.65,3.08-24.39,5.42q2.9,19,5.78,37.94c.65,4.27-.6,6.51-4.1,7.38C849.68,969.4,845.35,970.55,836.72,973Z"/><path d="M962,949.68c-8.33.76-12.49,1.21-20.81,2.23-3.53.44-5.24-1.26-5.6-5.58l-3.77-45.69c-.76-9.6,1.63-19.16,3.63-28.43q5.14-20.48,10.62-40.86c1-4.12,3.42-6.12,7.68-6.52Q975,823,996.32,822.05c4.12-.15,6.69,1.52,8,5.49q7.18,19.53,13.93,39.24c2.77,9,5.94,18.25,6,27.81l0,45.93c0,4.35-1.56,6.26-5.1,6.29-8.57.07-12.86.17-21.43.51-3.83.15-5.59-1.67-5.72-6-.29-9.74-.44-14.61-.73-24.34-10.33.49-15.49.83-25.8,1.7l1.3,24.31C967,947.32,965.56,949.35,962,949.68ZM965.28,887c9.41-.78,14.12-1.09,23.54-1.56-3.16-10.43-4.77-15.64-8.05-26-.85-2-1.8-2.85-3-2.78l-3.85.26c-1.23.08-2.11,1-2.78,3.16C968.71,870.78,967.54,876.17,965.28,887Z"/><path d="M1075,948.62c-22-1.21-35.09-14.93-34.38-37.15l.76-54.1c-.16-23.93,16.44-35.91,39.44-33.8q19.32,1.41,38.54,3.81c3.95.49,5.52,2.63,5.16,7l-1.75,20.93c-.36,4.33-2.21,6-6,5.52-10.25-1.29-20.56-2.36-30.86-3.19-6.46-.53-9.5,2.07-9.76,8l-1.83,41.34c-.25,5.73,2.41,8.51,8.54,9,9.79.78,19.59,1.79,29.33,3,3.64.45,5.08,2.57,4.72,6.9-.69,8.23-1,12.35-1.72,20.59-.36,4.32-2.07,6-5.61,5.58C1098.06,950.71,1086.6,949.57,1075,948.62Z"/><path d="M1135.7,955.79c-3.53-.57-4.89-2.71-4.47-7l11-111.89c.43-4.31,2.35-6,6.28-5.31,9.76,1.59,14.63,2.47,24.35,4.38,3.93.77,5.41,3,4.85,7.31l-5.1,39.5c2.41.49,3.62.74,6,1.25q10.53-18.3,21.42-36.38c2.16-3.74,4.59-4.77,8.65-3.77,9.61,2.36,14.41,3.62,24,6.29,3.57,1,4.44,3.39,2.41,6.56q-11.37,17.58-22.36,35.38c11.9,3.9,16.6,16.54,14.18,28.12L1218.24,968c-.78,4.24-2.65,5.66-6.13,4.68-8.58-2.4-12.88-3.54-21.49-5.67-3.5-.86-4.75-3.1-4.11-7.37l5-33.33c.57-3.76-.72-6.2-3.79-6.91-7.71-1.79-11.58-2.64-19.31-4.21q-2.54,19.66-5.08,39.32c-.55,4.3-2.34,5.86-5.86,5.17C1148.81,958,1144.44,957.22,1135.7,955.79Z"/><g id="Astronaut"><g class="cls-4"><g id="AstronautProfile"><g id="Body"><path id="Neck" class="cls-1" d="M928.15,1377.35s-10.33,12.7,0,28.79,229.58,0,229.58,0,12.7-19.81,0-28.79Z"/><path id="LaptopBase" class="cls-1" d="M1086.48,1805.36l-356-4.23c-6.44,0-11.52-5.59-11.52-12.36l2.2-221.62c.17-21.34,16.93-38.61,37.42-38.27l305.43,3.56c20.48.17,36.91,17.78,36.57,39.11l-2.2,221.45A12.12,12.12,0,0,1,1086.48,1805.36Z"/><path id="Arm" class="cls-1" d="M1271.33,1479.62c-42.49-53-122.57-33.53-151.36,36.9a15.49,15.49,0,0,1-.67,1.7c-7.79,19.47-5.76,41.48,5.58,56.71l66.2,89.57c7.28,10,3.9,26.07-6.94,32.5-21.82,13.14-56,36.31-83.87,66.72l-.3,30.21a12.11,12.11,0,0,1-11.85,12.36l-18.55-.22c-1.13,2.11-2.23,4.24-3.26,6.4-.51.85-.85,1.69-1.36,2.71,124.61-15.41,230.76-91.26,289.34-197.41C1336.69,1567.82,1301.64,1517,1271.33,1479.62Z"/><path id="SuitBox" class="cls-1" d="M1075.79,1533.44V1504a44.91,44.91,0,0,0-44.7-44.87H931.71A44.91,44.91,0,0,0,887,1504v24.87l175.91,2A35.63,35.63,0,0,1,1075.79,1533.44Z"/><path id="Shoulders" class="cls-1" d="M1245.82,1445c-25.37-17.37-96.27-36-96.27-36l-217.2,5.59s-53.8,26.67-85.47,87.88c-3.53,6.82-6.87,15.88-10,26.58l226.94,2.64c20.49.17,36.91,17.78,36.57,39.11l-2.2,221.46a12.11,12.11,0,0,1-11.85,12.35l-286.75-3.4c-.15,2-.22,3.15-.22,3.15s-25.55,43.83,179,86.64,336.32-181.14,336.32-181.14l39-93S1290.8,1475.6,1245.82,1445Z"/></g><g id="Head"><path id="FaceReflect" class="cls-1" d="M967.6,1142.87c-3.39,1-6.77,2-10,3.21a89.61,89.61,0,0,0-9.31,3.9,61.53,61.53,0,0,0-16.25,10.33,64.72,64.72,0,0,0-6.95,6.6c-1,1.18-2.2,2.37-3.21,3.72-.68.51-.85,1.36-1.53,2l-1.52,2c-3.89,5.41-6.94,11.51-10.33,17.94l-.67-.17c.33-1.69.84-3.38,1.35-5.08l.85-2.54a14.71,14.71,0,0,1,.84-2.53c.68-1.53,1.36-3.22,2-4.91.34-.85.68-1.7,1-2.38l1.35-2.37a59.66,59.66,0,0,1,5.93-9,63,63,0,0,1,7.45-7.62,56.58,56.58,0,0,1,18.45-10.16,57.86,57.86,0,0,1,20.83-3.38Z"/><path id="Head-2" data-name="Head" class="cls-1" d="M1228,1202.56c-17.59-92-100.06-140.63-206.34-128.52-97.92,11.24-151.6,66.42-142.18,188.89,4.8,62.1,26.31,86.14,54,109.15,75.18,2.25,150.18.86,225.36.86C1211.25,1333.33,1240.22,1268,1228,1202.56Z"/><g id="Buttons"><g id="Bottom"><ellipse id="Base1" class="cls-1" cx="1168.23" cy="1236.66" rx="28.44" ry="32"/><ellipse id="Base2" class="cls-1" cx="1167.21" cy="1306.92" rx="21.33" ry="21.67"/></g><g id="ButtonShades"><path id="_1.1" data-name="1.1" class="cls-1" d="M1164.84,1208.9a53.65,53.65,0,0,0-8.63,7.61,29.39,29.39,0,0,0-5.93,9.15,24.58,24.58,0,0,0-2.2,10.66,69,69,0,0,0,1,11.52,29.57,29.57,0,0,1-4.07-11.18,23,23,0,0,1,1.7-12.19,26.66,26.66,0,0,1,7.44-9.82A21.32,21.32,0,0,1,1164.84,1208.9Z"/><path id="_1.2" data-name="1.2" class="cls-1" d="M1185.33,1229.89a9.67,9.67,0,0,1,3.72,3.22,9.8,9.8,0,0,1,1.53,4.91,9.36,9.36,0,0,1-1.53,5.08,1.42,1.42,0,0,1-.84.84l-.85.85a9.76,9.76,0,0,1-2.2,1.35c.17-.67.67-1.52.84-2.2s.68-1.35.85-2a10.44,10.44,0,0,0,.68-3.89,8.11,8.11,0,0,0-.85-3.9A11.27,11.27,0,0,0,1185.33,1229.89Z"/><path id="_2.2" data-name="2.2" class="cls-1" d="M1179.23,1298.29a9.7,9.7,0,0,1,3.73,3.22,9.89,9.89,0,0,1,1.52,4.91,9.43,9.43,0,0,1-1.52,5.08,1.4,1.4,0,0,1-.85.84l-.85.85a9.33,9.33,0,0,1-2.2,1.35c.17-.67.68-1.52.85-2.2s.68-1.35.85-2a10.63,10.63,0,0,0,.67-3.89,8.22,8.22,0,0,0-.84-3.9A13.64,13.64,0,0,0,1179.23,1298.29Z"/><path id="_2.1" data-name="2.1" class="cls-1" d="M1161.29,1291a32.64,32.64,0,0,0-4.75,6.09,17.44,17.44,0,0,0-2.53,6.78,6.93,6.93,0,0,0-.17,1.69V1311a6.9,6.9,0,0,0,.17,1.86l.16,1.86a31.22,31.22,0,0,1,.68,3.9,19.56,19.56,0,0,1-2-3.56l-.85-1.86c-.17-.68-.5-1.36-.67-2a8.53,8.53,0,0,0-.34-2v-4.23a9.61,9.61,0,0,1,.17-2.2,17.79,17.79,0,0,1,3.55-7.45A25.91,25.91,0,0,1,1161.29,1291Z"/></g></g><path id="Face" class="cls-1" d="M1079.56,1344H951.89c-28.71,0-52.18-24.07-52.18-53.48V1190.13c0-30.86,24.58-56.07,54.72-56.07h126.4c21.09,0,38.06,17.61,38.06,39.1v130.4C1119.05,1325.85,1101.29,1344,1079.56,1344Z"/></g></g></g><circle id="OuterShell-2" data-name="OuterShell" class="cls-1" cx="1025.33" cy="1408.85" r="389.74"/></g></g></svg>