<svg xmlns="http://www.w3.org/2000/svg" xmlns:xlink="http://www.w3.org/1999/xlink" viewBox="0 0 2048 2048"><defs><style>.cls-1{fill:url(#linear-gradient);}.cls-2{clip-path:url(#clip-path);}.cls-3{fill:#fefdff;}.cls-3,.cls-4{opacity:0.37;}.cls-4{fill:#fff;}.cls-5{fill:none;stroke-miterlimit:10;stroke-width:29.9px;stroke:url(#linear-gradient-3);}</style><linearGradient id="linear-gradient" x1="430.2" y1="733.1" x2="1485.8" y2="733.1" gradientUnits="userSpaceOnUse"><stop offset="0" stop-color="#ff1d25"/><stop offset="1"/></linearGradient><clipPath id="clip-path"><path id="_Clipping_Path_" data-name="&lt;Clipping Path&gt;" class="cls-1" d="M1485.8,571.9C1485.8,280.06,1249,43.55,957,44.1,665.65,44.65,428.88,283,430.21,574.35a525.33,525.33,0,0,0,64.87,251.29c47.66,86.76,90.43,176.1,126.5,268.28L750,1422.1h447.2l121-356.94c29-85.64,65.54-168.48,107.52-248.57A525.48,525.48,0,0,0,1485.8,571.9Z"/></clipPath><linearGradient id="linear-gradient-3" x1="735.12" y1="1758.56" x2="1220.17" y2="1758.56" gradientUnits="userSpaceOnUse"><stop offset="0" stop-color="#1a1a1a"/><stop offset="1"/></linearGradient></defs><title>Innovative</title><g id="Layer_4" data-name="Layer 4"><path id="_Clipping_Path_2" data-name="&lt;Clipping Path&gt;" class="cls-1" d="M1485.8,571.9C1485.8,280.06,1249,43.55,957,44.1,665.65,44.65,428.88,283,430.21,574.35a525.33,525.33,0,0,0,64.87,251.29c47.66,86.76,90.43,176.1,126.5,268.28L750,1422.1h447.2l121-356.94c29-85.64,65.54-168.48,107.52-248.57A525.48,525.48,0,0,0,1485.8,571.9Z"/><g class="cls-2"><polygon class="cls-3" points="340.75 177.41 346.05 191.36 360.13 194.74 348.98 204.28 350.24 219.22 338.05 211.16 324.74 217.02 328.35 202.5 318.87 191.18 333.3 190.26 340.75 177.41"/><polygon class="cls-3" points="467.14 210.09 465.03 225.79 476.31 236.5 461.26 239.27 454.93 253.7 447.74 239.71 432.55 237.92 443.15 226.51 440.1 210.97 453.84 217.91 467.14 210.09"/><polygon class="cls-3" points="459.93 65.35 449.92 89 463.02 110.97 438.24 108.4 422.14 128.12 416.84 102.88 393.79 93.09 415.3 80.06 417.14 54.3 435.74 71.49 459.93 65.35"/><polygon class="cls-3" points="601.05 227.18 587.95 236.72 588.09 253.32 575.3 243.34 560.12 248.61 565.32 232.91 555.8 219.56 571.8 219.84 581.09 206.32 585.78 222.19 601.05 227.18"/><polygon class="cls-3" points="352.65 97.86 350.51 102.36 352.86 106.74 348.08 106.01 344.79 109.68 343.98 104.74 339.59 102.63 343.88 100.3 344.46 95.32 347.91 98.83 352.65 97.86"/><polygon class="cls-3" points="289.89 252.45 288.38 256.04 290.39 259.36 286.63 258.99 284.2 261.99 283.38 258.17 279.88 256.7 283.13 254.71 283.39 250.81 286.22 253.4 289.89 252.45"/><polygon class="cls-3" points="299.1 134.59 294.79 140.21 296.81 147.07 290.33 144.56 284.66 148.68 284.96 141.51 279.43 137.19 286.1 135.26 288.35 128.48 292.18 134.46 299.1 134.59"/><polygon class="cls-3" points="390.33 251.55 387.1 256.04 388.84 261.35 383.72 259.56 379.4 262.91 379.46 257.31 375.04 254.08 380.2 252.41 381.8 247.05 384.93 251.63 390.33 251.55"/><polygon class="cls-3" points="430.37 165.12 430.38 167.36 432.17 168.63 430.11 169.33 429.5 171.48 428.23 169.67 426.07 169.73 427.33 167.91 426.6 165.8 428.66 166.49 430.37 165.12"/><polygon class="cls-3" points="513.45 176.46 510.64 177.36 509.77 180.28 508.07 177.79 505.13 177.83 506.89 175.38 505.94 172.49 508.73 173.47 511.08 171.65 511.05 174.7 513.45 176.46"/><polygon class="cls-3" points="664.03 252.12 665.56 257.49 670.7 259.23 666.24 262.4 666.23 268.01 661.95 264.59 656.8 266.32 658.61 261.04 655.44 256.5 660.84 256.65 664.03 252.12"/><polygon class="cls-3" points="633.02 199.54 634.76 203.13 638.59 203.67 635.84 206.49 636.53 210.44 633.09 208.6 629.68 210.5 630.31 206.54 627.51 203.77 631.34 203.16 633.02 199.54"/><polygon class="cls-3" points="516.86 236.82 515.16 244.46 520.25 250.24 512.73 250.91 509 257.72 506.06 250.51 498.66 248.94 504.36 243.81 503.52 236.03 509.99 240.06 516.86 236.82"/><polygon class="cls-3" points="597.58 139.46 591.55 147.11 594.21 156.59 585.33 153.01 577.46 158.56 578 148.7 570.48 142.64 579.69 140.13 582.91 130.84 588.06 139.15 597.58 139.46"/><polygon class="cls-3" points="728.92 177.55 725.06 187.43 730.72 196.32 720.47 195.57 714.06 203.9 711.58 193.56 701.96 189.81 710.68 184.17 711.14 173.52 719.01 180.38 728.92 177.55"/><polygon class="cls-3" points="826.88 228.01 820.87 242.38 828.88 255.66 813.85 254.18 804.15 266.18 800.86 250.89 786.86 245.03 799.86 237.07 800.9 221.44 812.23 231.81 826.88 228.01"/><polygon class="cls-3" points="648.06 83.14 643.76 89.88 646.68 97.38 639.17 95.22 633.19 100.41 632.85 92.34 626.25 88.05 633.54 85.22 635.43 77.37 640.29 83.7 648.06 83.14"/><polygon class="cls-3" points="804.15 121 796.63 134.48 803.07 148.55 788.39 145.3 777.48 156 775.92 140.51 762.74 133.05 776.46 126.73 779.22 111.42 789.26 123.01 804.15 121"/><polygon class="cls-3" points="928.19 179.7 933.49 193.65 947.57 197.03 936.42 206.57 937.68 221.5 925.48 213.45 912.18 219.31 915.79 204.79 906.31 193.47 920.74 192.55 928.19 179.7"/><polygon class="cls-3" points="1054.58 212.38 1052.47 228.08 1063.75 238.79 1048.7 241.56 1042.37 255.99 1035.17 242 1019.99 240.21 1030.59 228.8 1027.54 213.26 1041.28 220.19 1054.58 212.38"/><polygon class="cls-3" points="1047.37 67.64 1037.35 91.29 1050.46 113.26 1025.67 110.69 1009.58 130.41 1004.28 105.17 981.23 95.38 1002.74 82.35 1004.58 56.59 1023.18 73.78 1047.37 67.64"/><polygon class="cls-3" points="1188.49 229.47 1175.38 239.01 1175.53 255.61 1162.74 245.63 1147.56 250.9 1152.76 235.2 1143.23 221.85 1159.24 222.13 1168.53 208.61 1173.22 224.49 1188.49 229.47"/><polygon class="cls-3" points="940.09 100.16 937.95 104.65 940.3 109.03 935.51 108.3 932.22 111.97 931.42 107.03 927.03 104.92 931.31 102.59 931.89 97.61 935.35 101.12 940.09 100.16"/><polygon class="cls-3" points="877.32 254.74 875.82 258.33 877.83 261.65 874.07 261.28 871.64 264.28 870.82 260.46 867.32 258.99 870.57 257 870.83 253.1 873.66 255.69 877.32 254.74"/><polygon class="cls-3" points="886.53 136.88 882.23 142.5 884.25 149.36 877.77 146.85 872.1 150.97 872.4 143.8 866.87 139.48 873.54 137.55 875.79 130.77 879.61 136.75 886.53 136.88"/><polygon class="cls-3" points="977.77 253.84 974.54 258.33 976.28 263.64 971.16 261.85 966.83 265.2 966.9 259.6 962.48 256.37 967.64 254.7 969.24 249.34 972.36 253.92 977.77 253.84"/><polygon class="cls-3" points="1017.81 167.41 1017.82 169.65 1019.6 170.92 1017.55 171.62 1016.94 173.77 1015.66 171.96 1013.5 172.02 1014.77 170.21 1014.04 168.09 1016.1 168.78 1017.81 167.41"/><polygon class="cls-3" points="1100.89 178.75 1098.08 179.65 1097.21 182.56 1095.51 180.08 1092.57 180.12 1094.33 177.67 1093.38 174.78 1096.16 175.76 1098.52 173.94 1098.48 176.99 1100.89 178.75"/><polygon class="cls-3" points="1251.46 254.41 1252.99 259.78 1258.13 261.52 1253.68 264.69 1253.67 270.3 1249.38 266.88 1244.24 268.61 1246.05 263.33 1242.88 258.79 1248.28 258.94 1251.46 254.41"/><polygon class="cls-3" points="1220.45 201.84 1222.2 205.42 1226.03 205.96 1223.28 208.78 1223.97 212.73 1220.53 210.9 1217.12 212.79 1217.74 208.83 1214.95 206.06 1218.77 205.45 1220.45 201.84"/><polygon class="cls-3" points="1104.3 239.12 1102.6 246.75 1107.69 252.53 1100.17 253.2 1096.44 260.01 1093.5 252.8 1086.1 251.23 1091.8 246.1 1090.96 238.31 1097.43 242.35 1104.3 239.12"/><polygon class="cls-3" points="1156.87 83.11 1152.99 86.27 1153.29 91.37 1149.2 88.52 1144.62 90.39 1145.97 85.48 1142.83 81.53 1147.76 81.35 1150.4 77.03 1152.09 81.84 1156.87 83.11"/><polygon class="cls-3" points="1185.02 141.75 1178.99 149.4 1181.64 158.88 1172.77 155.3 1164.89 160.85 1165.44 150.99 1157.92 144.93 1167.13 142.42 1170.35 133.13 1175.5 141.44 1185.02 141.75"/><polygon class="cls-3" points="1316.36 179.84 1312.5 189.72 1318.16 198.61 1307.9 197.86 1301.5 206.19 1299.02 195.85 1289.4 192.1 1298.12 186.46 1298.58 175.81 1306.45 182.67 1316.36 179.84"/><polygon class="cls-3" points="1414.31 230.3 1408.31 244.67 1416.32 257.95 1401.29 256.47 1391.59 268.47 1388.3 253.18 1374.3 247.32 1387.3 239.36 1388.34 223.73 1399.66 234.1 1414.31 230.3"/><polygon class="cls-3" points="1235.5 85.43 1231.2 92.17 1234.12 99.67 1226.6 97.51 1220.63 102.7 1220.29 94.63 1213.68 90.34 1220.98 87.51 1222.87 79.66 1227.72 85.99 1235.5 85.43"/><polygon class="cls-3" points="1391.59 123.29 1384.07 136.77 1390.51 150.84 1375.82 147.59 1364.91 158.29 1363.36 142.8 1350.18 135.34 1363.9 129.02 1366.66 113.72 1376.7 125.3 1391.59 123.29"/><polygon class="cls-3" points="1456.59 236.72 1458.12 242.09 1463.25 243.83 1458.8 247 1458.79 252.61 1454.51 249.19 1449.36 250.92 1451.17 245.63 1448 241.1 1453.4 241.25 1456.59 236.72"/><polygon class="cls-3" points="1521.48 162.15 1517.62 172.02 1523.28 180.92 1513.03 180.17 1506.62 188.5 1504.14 178.16 1494.52 174.41 1503.24 168.77 1503.7 158.12 1511.57 164.98 1521.48 162.15"/><polygon class="cls-3" points="1619.44 212.61 1613.43 226.98 1621.44 240.26 1606.41 238.78 1596.71 250.78 1593.42 235.49 1579.42 229.63 1592.42 221.67 1593.46 206.04 1604.79 216.41 1619.44 212.61"/><polygon class="cls-3" points="1596.71 105.6 1589.19 119.08 1595.63 133.15 1580.94 129.9 1570.04 140.6 1568.48 125.11 1555.3 117.65 1569.02 111.33 1571.78 96.02 1581.82 107.61 1596.71 105.6"/><polygon class="cls-3" points="337.3 856.1 326.92 854.79 320 862.92 317.99 852.27 308.4 847.96 317.54 842.69 318.53 831.89 326.19 839.28 336.39 836.92 331.99 846.76 337.3 856.1"/><polygon class="cls-3" points="368.56 524.49 363.95 543.66 376.56 558.47 357.56 559.84 347.88 576.86 340.74 558.54 322.15 554.25 336.75 541.55 334.94 521.88 351.09 532.36 368.56 524.49"/><polygon class="cls-3" points="325.13 291.56 335.91 321.23 365.58 328.83 341.71 348.63 343.9 380.25 318.37 362.83 290.06 374.76 298.15 344.19 278.45 319.95 308.98 318.48 325.13 291.56"/><polygon class="cls-3" points="508.75 312.57 509.96 328.15 523.02 335.94 509.11 341.95 506 357.24 496.19 345.38 481.21 347.03 489.06 333.69 482.91 319.42 497.57 323.04 508.75 312.57"/><polygon class="cls-3" points="473.23 505.43 472.37 517.31 481.31 524.77 470.16 527.59 466.08 538.72 460.05 528.59 448.58 528 456.01 518.92 453 507.43 463.62 511.95 473.23 505.43"/><polygon class="cls-3" points="359.28 721.65 355.48 726.9 357.5 733.13 351.51 731 346.43 734.92 346.52 728.35 341.37 724.55 347.42 722.61 349.31 716.35 352.95 721.72 359.28 721.65"/><polygon class="cls-3" points="438.7 794.79 436.99 800.18 440.29 804.7 434.83 804.67 431.71 809.33 430.04 803.93 424.8 802.29 429.24 798.98 429.12 793.31 433.53 796.66 438.7 794.79"/><polygon class="cls-3" points="401.2 837.41 400.25 844.92 405.68 849.99 398.5 851.38 395.53 858.3 392.04 851.65 384.77 850.86 389.8 845.35 388.28 837.94 394.87 841.2 401.2 837.41"/><polygon class="cls-3" points="383.22 775.66 378.49 782.63 381.34 790.62 373.49 788.1 367.04 793.39 366.92 784.86 360.08 780.13 367.86 777.38 370.08 769.18 375.01 776 383.22 775.66"/><polygon class="cls-3" points="416.41 740.63 412.98 748.04 416.92 755.18 409.06 754.08 403.73 760.17 402.31 752.08 395.08 748.71 402.06 744.81 402.92 736.63 408.65 742.31 416.41 740.63"/><polygon class="cls-3" points="330.9 786.7 327.68 793.43 331.21 800.01 324.03 798.91 319.1 804.42 317.88 797.01 311.31 793.84 317.73 790.35 318.6 782.88 323.79 788.14 330.9 786.7"/><polygon class="cls-3" points="325.04 694.89 325.09 697.77 327.4 699.36 324.77 700.29 324.03 703.07 322.36 700.77 319.59 700.89 321.18 698.53 320.21 695.83 322.87 696.68 325.04 694.89"/><polygon class="cls-3" points="438.65 672.48 424.78 671.6 416.21 682.95 412.73 668.99 399.68 664.05 411.4 656.3 411.9 641.9 422.62 651.07 435.99 647.11 430.89 660.52 438.65 672.48"/><polygon class="cls-3" points="496.5 742.93 490.91 751.47 494.52 761.09 484.96 758.22 477.26 764.75 476.94 754.43 468.57 748.85 477.93 745.35 480.46 735.37 486.56 743.52 496.5 742.93"/><polygon class="cls-3" points="535.94 817.58 529.17 830.2 535.36 843.13 521.7 840.35 511.75 850.45 510.07 836.12 497.74 829.42 510.36 823.34 512.69 809.11 522.17 819.68 535.94 817.58"/><polygon class="cls-3" points="544.22 646.37 530.17 646.05 521.95 657.87 517.9 643.91 504.52 639.45 516.07 631.14 516.02 616.57 527.21 625.39 540.56 620.84 535.92 634.6 544.22 646.37"/><polygon class="cls-3" points="554.07 721.28 550.58 725.07 551.62 730.19 547.07 727.92 542.69 730.52 543.36 725.34 539.62 721.82 544.59 720.88 546.65 716.11 549.05 720.72 554.07 721.28"/><polygon class="cls-3" points="485.32 683.14 484.62 686.5 486.89 689.02 483.58 689.36 481.98 692.37 480.64 689.22 477.38 688.57 479.86 686.28 479.45 682.86 482.32 684.6 485.32 683.14"/><polygon class="cls-3" points="544.07 511.98 535.95 517.54 535.76 527.63 528.15 521.34 518.84 524.27 522.26 514.82 516.69 506.54 526.42 506.99 532.29 498.94 534.88 508.67 544.07 511.98"/><polygon class="cls-3" points="410.77 587.67 405.31 594.26 407.46 602.66 399.73 599.32 392.69 604.03 393.36 595.37 386.87 589.89 395.02 587.88 398.04 579.77 402.4 587.19 410.77 587.67"/><polygon class="cls-3" points="460.27 587.73 456.28 592.34 457.69 598.36 452.23 595.85 447.14 599.09 447.75 592.93 443.21 588.92 449.04 587.62 451.32 581.9 454.32 587.25 460.27 587.73"/><polygon class="cls-3" points="430.84 491.85 432.69 496.97 437.81 498.28 433.69 501.69 434.06 507.14 429.67 504.13 424.79 506.19 426.18 500.92 422.79 496.74 428.05 496.49 430.84 491.85"/><polygon class="cls-3" points="396.67 409.61 388.22 415.81 388.36 426.54 380.07 420.12 370.27 423.57 373.59 413.4 367.4 404.81 377.75 404.94 383.72 396.18 386.79 406.43 396.67 409.61"/><polygon class="cls-3" points="434.41 396.19 430.36 401.4 432.19 407.81 426.17 405.42 420.85 409.22 421.18 402.54 416.05 398.46 422.29 396.72 424.43 390.41 427.96 396.02 434.41 396.19"/><polygon class="cls-3" points="484.13 422.92 480.31 431.94 485.3 440.32 475.85 439.34 469.71 446.86 467.69 437.23 458.9 433.49 467.1 428.52 467.81 418.7 474.9 425.26 484.13 422.92"/><polygon class="cls-3" points="336.92 460.48 333.48 465.65 335.63 471.52 329.83 469.72 325.11 473.66 324.97 467.38 319.9 463.95 325.61 461.86 327.19 455.8 330.87 460.79 336.92 460.48"/><polygon class="cls-3" points="338.3 626.57 336.93 636.55 344.08 643.38 334.5 645.12 330.45 654.28 325.9 645.37 316.25 644.2 323.01 636.96 321.1 627.07 329.83 631.51 338.3 626.57"/><polygon class="cls-3" points="307.46 593.63 305.53 599.69 309.25 604.77 303.1 604.74 299.59 609.98 297.71 603.9 291.82 602.06 296.82 598.33 296.69 591.96 301.65 595.73 307.46 593.63"/><polygon class="cls-3" points="434.94 343.33 433.03 355 441.22 363.24 429.93 364.96 424.9 375.59 419.83 364.99 408.54 363.31 416.7 355.03 414.75 343.37 424.85 348.86 434.94 343.33"/><polygon class="cls-3" points="427.35 305.65 425.64 312.16 429.84 317.31 423.35 317.63 419.92 323.37 417.62 317.06 411.3 315.46 416.37 311.23 415.89 304.51 421.33 308.2 427.35 305.65"/><polygon class="cls-3" points="569.34 399.51 558.44 404.37 556.12 416.44 548.3 407.19 536.51 408.63 542.58 398.05 537.62 386.87 549.19 389.59 557.91 381.24 558.99 393.49 569.34 399.51"/><polygon class="cls-3" points="624.06 326.54 617.28 335.42 620.49 346.25 610.25 342.3 601.31 348.81 601.76 337.5 593.03 330.69 603.55 327.64 607.09 316.93 613.14 326.36 624.06 326.54"/><polygon class="cls-3" points="636.75 802.08 635.05 811.95 641.93 819 632.35 820.37 628.02 829.34 623.8 820.31 614.24 818.81 621.21 811.86 619.63 801.96 628.16 806.69 636.75 802.08"/><polygon class="cls-3" points="615.15 655.8 613 660.29 615.35 664.67 610.57 663.94 607.28 667.62 606.47 662.67 602.09 660.56 606.37 658.24 606.95 653.26 610.41 656.77 615.15 655.8"/><polygon class="cls-3" points="644.69 531.72 631.94 534.45 626.89 546.89 620.45 535.17 607.48 534.03 616.24 524.04 613.27 510.9 625.13 516.45 636.27 509.47 634.84 522.89 644.69 531.72"/><polygon class="cls-3" points="703.1 378.68 696.22 389.02 700.53 400.76 688.92 397.17 679.49 405.05 679.2 392.49 669.06 385.61 680.48 381.44 683.65 369.32 691 379.3 703.1 378.68"/><polygon class="cls-3" points="806.36 365.68 781.69 359.49 762.8 377.05 760.85 350.81 738.9 337.59 762.37 327.57 767.7 301.83 784.15 321.88 809.39 319.19 796.09 341.61 806.36 365.68"/><polygon class="cls-3" points="723.93 781.67 720.17 790.09 724.73 798.07 715.85 796.97 709.94 803.93 708.2 794.83 699.99 791.15 707.8 786.63 708.64 777.39 715.2 783.7 723.93 781.67"/><polygon class="cls-3" points="797.27 673.8 786.31 691.33 794.01 710.63 774.55 705.23 759.23 718.8 758.17 697.93 741 687.01 759.8 679.52 764.51 659.2 777.19 675.43 797.27 673.8"/><polygon class="cls-3" points="764.21 548.77 752.14 560.69 754.77 577.76 740.11 569.55 725.27 577.42 728.27 560.41 716.47 548.21 732.99 545.91 740.53 530.5 747.74 546.09 764.21 548.77"/><polygon class="cls-3" points="701.15 668.62 695.12 675.14 696.88 684 689.03 680.06 681.46 684.54 682.64 675.58 676.2 669.5 684.78 667.89 688.37 659.66 692.49 667.62 701.15 668.62"/><polygon class="cls-3" points="850.95 825.83 845.82 841.99 855.74 855.54 839.34 855.47 829.98 869.45 824.97 853.24 809.26 848.33 822.58 838.39 822.23 821.38 835.46 831.43 850.95 825.83"/><polygon class="cls-3" points="792.47 796.15 786.12 804.81 789.4 815.14 779.5 811.55 771.04 817.98 771.27 807.1 762.77 800.74 772.81 797.61 776.01 787.26 781.99 796.19 792.47 796.15"/><polygon class="cls-3" points="840.13 575.27 827.51 583.27 826.71 598.59 815.48 588.62 801.18 592.57 806.85 578.39 798.82 565.51 813.56 566.73 822.89 554.82 826.33 569.75 840.13 575.27"/><polygon class="cls-3" points="834.71 448.47 825.76 455.12 825.96 466.53 817.1 459.76 806.7 463.49 810.17 452.66 803.54 443.55 814.55 443.63 820.85 434.27 824.18 445.15 834.71 448.47"/><polygon class="cls-3" points="717.11 487.28 716.92 494.68 722.69 499.04 715.84 501.13 713.63 508.17 709.59 502.07 702.45 502.06 706.8 496.19 704.6 489.14 711.33 491.62 717.11 487.28"/><polygon class="cls-3" points="924.74 858.39 914.36 857.08 907.43 865.21 905.43 854.57 895.84 850.25 904.97 844.98 905.97 834.18 913.63 841.57 923.83 839.21 919.43 849.05 924.74 858.39"/><polygon class="cls-3" points="956 526.78 951.39 545.95 964 560.76 944.99 562.13 935.31 579.15 928.18 560.83 909.59 556.53 924.18 543.84 922.37 524.17 938.52 534.64 956 526.78"/><polygon class="cls-3" points="912.57 293.85 923.35 323.52 953.02 331.12 929.15 350.92 931.34 382.54 905.81 365.12 877.5 377.05 885.59 346.48 865.89 322.24 896.42 320.77 912.57 293.85"/><polygon class="cls-3" points="1096.19 314.86 1097.4 330.44 1110.46 338.24 1096.55 344.24 1093.43 359.53 1083.63 347.67 1068.64 349.32 1076.49 335.98 1070.35 321.71 1085.01 325.33 1096.19 314.86"/><polygon class="cls-3" points="1060.67 507.72 1059.81 519.6 1068.75 527.06 1057.6 529.88 1053.52 541.01 1047.49 530.88 1036.02 530.29 1043.44 521.21 1040.44 509.72 1051.06 514.24 1060.67 507.72"/><polygon class="cls-3" points="946.72 723.94 942.92 729.19 944.94 735.42 938.95 733.29 933.87 737.21 933.96 730.64 928.8 726.84 934.85 724.9 936.75 718.64 940.39 724.01 946.72 723.94"/><polygon class="cls-3" points="1026.13 797.08 1024.42 802.47 1027.73 806.99 1022.26 806.96 1019.14 811.62 1017.48 806.22 1012.24 804.58 1016.68 801.27 1016.56 795.6 1020.97 798.95 1026.13 797.08"/><polygon class="cls-3" points="988.64 839.7 987.69 847.21 993.12 852.28 985.94 853.67 982.97 860.59 979.48 853.94 972.21 853.15 977.24 847.64 975.72 840.23 982.31 843.49 988.64 839.7"/><polygon class="cls-3" points="970.65 777.95 965.92 784.92 968.77 792.91 960.92 790.39 954.47 795.68 954.35 787.15 947.52 782.43 955.29 779.67 957.52 771.47 962.45 778.29 970.65 777.95"/><polygon class="cls-3" points="1003.85 742.92 1000.41 750.33 1004.35 757.47 996.5 756.37 991.17 762.46 989.75 754.37 982.52 751 989.5 747.1 990.35 738.92 996.09 744.6 1003.85 742.92"/><polygon class="cls-3" points="918.34 788.99 915.12 795.73 918.64 802.3 911.47 801.2 906.53 806.71 905.32 799.3 898.75 796.13 905.17 792.64 906.04 785.18 911.22 790.43 918.34 788.99"/><polygon class="cls-3" points="912.48 697.18 912.52 700.06 914.84 701.65 912.21 702.58 911.47 705.36 909.8 703.06 907.03 703.18 908.62 700.82 907.65 698.12 910.3 698.97 912.48 697.18"/><polygon class="cls-3" points="1026.09 674.77 1012.21 673.89 1003.65 685.24 1000.17 671.28 987.11 666.34 998.84 658.59 999.34 644.19 1010.06 653.36 1023.42 649.4 1018.33 662.81 1026.09 674.77"/><polygon class="cls-3" points="1083.94 745.22 1078.34 753.76 1081.96 763.38 1072.4 760.51 1064.69 767.04 1064.38 756.72 1056.01 751.14 1065.37 747.64 1067.9 737.66 1074 745.82 1083.94 745.22"/><polygon class="cls-3" points="1123.38 819.87 1116.61 832.49 1122.8 845.42 1109.13 842.64 1099.19 852.74 1097.51 838.41 1085.18 831.71 1097.8 825.63 1100.13 811.4 1109.61 821.97 1123.38 819.87"/><polygon class="cls-3" points="1131.66 648.66 1117.61 648.34 1109.38 660.16 1105.34 646.2 1091.96 641.74 1103.51 633.43 1103.46 618.86 1114.65 627.68 1128 623.13 1123.36 636.89 1131.66 648.66"/><polygon class="cls-3" points="1141.5 723.57 1138.02 727.36 1139.05 732.48 1134.51 730.21 1130.13 732.82 1130.8 727.63 1127.06 724.11 1132.03 723.17 1134.09 718.4 1136.49 723 1141.5 723.57"/><polygon class="cls-3" points="1072.76 685.43 1072.05 688.79 1074.32 691.31 1071.02 691.65 1069.41 694.66 1068.08 691.51 1064.82 690.86 1067.3 688.57 1066.89 685.15 1069.76 686.89 1072.76 685.43"/><polygon class="cls-3" points="1131.51 514.27 1123.39 519.83 1123.2 529.92 1115.59 523.63 1106.28 526.56 1109.7 517.11 1104.13 508.83 1113.86 509.28 1119.73 501.23 1122.32 510.96 1131.51 514.27"/><polygon class="cls-3" points="998.21 589.96 992.75 596.55 994.9 604.95 987.17 601.61 980.13 606.33 980.8 597.66 974.3 592.18 982.46 590.16 985.48 582.06 989.84 589.48 998.21 589.96"/><polygon class="cls-3" points="1047.7 590.02 1043.72 594.63 1045.13 600.65 1039.67 598.14 1034.58 601.38 1035.19 595.23 1030.65 591.21 1036.48 589.91 1038.76 584.19 1041.75 589.54 1047.7 590.02"/><polygon class="cls-3" points="1018.28 494.14 1020.13 499.26 1025.24 500.57 1021.13 503.98 1021.5 509.43 1017.11 506.42 1012.22 508.48 1013.62 503.21 1010.23 499.03 1015.49 498.78 1018.28 494.14"/><polygon class="cls-3" points="984.11 411.9 975.66 418.1 975.79 428.83 967.5 422.41 957.71 425.86 961.03 415.69 954.84 407.1 965.18 407.23 971.16 398.47 974.23 408.72 984.11 411.9"/><polygon class="cls-3" points="1021.85 398.48 1017.79 403.69 1019.63 410.1 1013.6 407.71 1008.29 411.51 1008.62 404.82 1003.49 400.75 1009.72 399.01 1011.87 392.7 1015.4 398.31 1021.85 398.48"/><polygon class="cls-3" points="1071.57 425.21 1067.74 434.23 1072.74 442.61 1063.29 441.63 1057.14 449.14 1055.13 439.52 1046.34 435.78 1054.54 430.82 1055.25 420.99 1062.34 427.55 1071.57 425.21"/><polygon class="cls-3" points="924.36 462.77 920.92 467.94 923.07 473.81 917.27 472.01 912.55 475.95 912.4 469.67 907.34 466.24 913.05 464.15 914.63 458.09 918.31 463.08 924.36 462.77"/><polygon class="cls-3" points="925.74 628.86 924.37 638.84 931.52 645.67 921.94 647.4 917.89 656.57 913.34 647.66 903.68 646.49 910.45 639.25 908.54 629.36 917.27 633.8 925.74 628.86"/><polygon class="cls-3" points="894.89 595.92 892.97 601.98 896.69 607.06 890.54 607.03 887.03 612.27 885.15 606.2 879.26 604.35 884.25 600.63 884.12 594.25 889.09 598.02 894.89 595.92"/><polygon class="cls-3" points="1022.38 345.62 1020.47 357.29 1028.65 365.53 1017.37 367.25 1012.34 377.88 1007.27 367.28 995.98 365.6 1004.13 357.32 1002.18 345.66 1012.29 351.15 1022.38 345.62"/><polygon class="cls-3" points="1014.78 307.94 1013.08 314.45 1017.28 319.6 1010.78 319.92 1007.36 325.66 1005.05 319.35 998.74 317.75 1003.81 313.52 1003.33 306.8 1008.77 310.49 1014.78 307.94"/><polygon class="cls-3" points="1156.78 401.8 1145.88 406.66 1143.56 418.73 1135.74 409.48 1123.95 410.92 1130.02 400.34 1125.06 389.16 1136.63 391.88 1145.34 383.53 1146.43 395.78 1156.78 401.8"/><polygon class="cls-3" points="1211.49 328.83 1204.71 337.71 1207.92 348.54 1197.68 344.59 1188.75 351.11 1189.2 339.79 1180.47 332.99 1190.99 329.93 1194.53 319.22 1200.57 328.65 1211.49 328.83"/><polygon class="cls-3" points="1224.19 804.37 1222.49 814.24 1229.37 821.29 1219.79 822.66 1215.46 831.63 1211.23 822.61 1201.68 821.1 1208.64 814.15 1207.07 804.25 1215.6 808.98 1224.19 804.37"/><polygon class="cls-3" points="1202.59 658.09 1200.44 662.58 1202.79 666.96 1198.01 666.23 1194.72 669.91 1193.91 664.96 1189.53 662.85 1193.81 660.53 1194.39 655.55 1197.84 659.06 1202.59 658.09"/><polygon class="cls-3" points="1232.13 534.01 1219.38 536.74 1214.33 549.18 1207.88 537.46 1194.91 536.32 1203.67 526.33 1200.71 513.19 1212.57 518.75 1223.71 511.76 1222.28 525.18 1232.13 534.01"/><polygon class="cls-3" points="1290.54 380.97 1283.66 391.31 1287.97 403.05 1276.36 399.46 1266.92 407.34 1266.63 394.78 1256.49 387.9 1267.92 383.74 1271.09 371.61 1278.44 381.59 1290.54 380.97"/><polygon class="cls-3" points="1393.8 367.97 1369.13 361.78 1350.23 379.34 1348.29 353.1 1326.34 339.88 1349.8 329.86 1355.14 304.12 1371.59 324.17 1396.83 321.48 1383.53 343.9 1393.8 367.97"/><polygon class="cls-3" points="1311.37 783.96 1307.61 792.38 1312.17 800.36 1303.29 799.26 1297.38 806.23 1295.64 797.12 1287.43 793.44 1295.24 788.92 1296.08 779.68 1302.64 785.99 1311.37 783.96"/><polygon class="cls-3" points="1384.71 676.09 1373.75 693.62 1381.45 712.92 1361.99 707.52 1346.67 721.09 1345.61 700.22 1328.43 689.3 1347.24 681.81 1351.95 661.49 1364.63 677.72 1384.71 676.09"/><polygon class="cls-3" points="1351.64 551.06 1339.58 562.98 1342.21 580.05 1327.55 571.84 1312.71 579.71 1315.71 562.7 1303.91 550.5 1320.43 548.2 1327.97 532.79 1335.18 548.38 1351.64 551.06"/><polygon class="cls-3" points="1288.59 670.91 1282.56 677.43 1284.32 686.29 1276.47 682.35 1268.9 686.83 1270.08 677.87 1263.64 671.78 1272.22 670.18 1275.81 661.95 1279.93 669.91 1288.59 670.91"/><polygon class="cls-3" points="1438.39 828.12 1433.25 844.28 1443.18 857.83 1426.77 857.76 1417.42 871.74 1412.41 855.53 1396.7 850.62 1410.02 840.68 1409.66 823.67 1422.9 833.73 1438.39 828.12"/><polygon class="cls-3" points="1379.91 798.44 1373.56 807.1 1376.84 817.43 1366.94 813.84 1358.48 820.26 1358.71 809.39 1350.2 803.03 1360.24 799.9 1363.45 789.55 1369.42 798.48 1379.91 798.44"/><polygon class="cls-3" points="1427.57 577.56 1414.95 585.56 1414.15 600.88 1402.91 590.91 1388.62 594.86 1394.29 580.68 1386.25 567.8 1401 569.02 1410.33 557.11 1413.77 572.04 1427.57 577.56"/><polygon class="cls-3" points="1422.14 450.76 1413.2 457.41 1413.4 468.82 1404.54 462.05 1394.14 465.78 1397.61 454.95 1390.98 445.84 1401.98 445.92 1408.29 436.56 1411.62 447.44 1422.14 450.76"/><polygon class="cls-3" points="1304.55 489.57 1304.36 496.97 1310.12 501.33 1303.28 503.42 1301.07 510.46 1297.03 504.36 1289.89 504.35 1294.24 498.48 1292.04 491.44 1298.77 493.91 1304.55 489.57"/><polygon class="cls-3" points="1533.34 867.29 1529.81 877.28 1535.74 885.96 1525.49 885.56 1519.36 894.09 1516.56 883.86 1506.84 880.45 1515.36 874.52 1515.48 863.88 1523.55 870.45 1533.34 867.29"/><polygon class="cls-3" points="1495.66 363.28 1488.78 373.62 1493.09 385.36 1481.48 381.77 1472.05 389.64 1471.76 377.08 1461.62 370.21 1473.04 366.04 1476.21 353.92 1483.57 363.9 1495.66 363.28"/><polygon class="cls-3" points="1598.92 350.28 1574.25 344.09 1555.36 361.65 1553.41 335.41 1531.46 322.19 1554.93 312.16 1560.26 286.43 1576.71 306.48 1601.95 303.79 1588.65 326.21 1598.92 350.28"/><polygon class="cls-3" points="1516.49 766.27 1512.73 774.69 1517.29 782.67 1508.41 781.57 1502.5 788.53 1500.76 779.43 1492.55 775.75 1500.36 771.23 1501.2 761.99 1507.76 768.3 1516.49 766.27"/><polygon class="cls-3" points="1589.84 658.4 1578.87 675.93 1586.57 695.23 1567.11 689.83 1551.79 703.4 1550.73 682.53 1533.56 671.61 1552.36 664.11 1557.07 643.8 1569.75 660.03 1589.84 658.4"/><polygon class="cls-3" points="1556.77 533.36 1544.7 545.29 1547.33 562.36 1532.67 554.14 1517.83 562.02 1520.83 545.01 1509.03 532.8 1525.55 530.51 1533.09 515.1 1540.3 530.68 1556.77 533.36"/><polygon class="cls-3" points="1493.71 653.22 1487.68 659.74 1489.44 668.6 1481.59 664.66 1474.02 669.13 1475.2 660.18 1468.76 654.09 1477.34 652.49 1480.93 644.26 1485.05 652.22 1493.71 653.22"/><polygon class="cls-3" points="1643.51 810.43 1638.38 826.59 1648.3 840.14 1631.89 840.07 1622.54 854.05 1617.53 837.84 1601.83 832.93 1615.14 822.99 1614.79 805.97 1628.02 816.03 1643.51 810.43"/><polygon class="cls-3" points="1585.03 780.75 1578.68 789.41 1581.96 799.74 1572.06 796.15 1563.6 802.57 1563.83 791.7 1555.33 785.34 1565.37 782.21 1568.57 771.85 1574.55 780.79 1585.03 780.75"/><polygon class="cls-3" points="1632.69 559.87 1620.07 567.87 1619.27 583.19 1608.03 573.22 1593.74 577.16 1599.41 562.99 1591.38 550.11 1606.12 551.33 1615.45 539.42 1618.89 554.34 1632.69 559.87"/><polygon class="cls-3" points="1627.27 433.07 1618.32 439.72 1618.52 451.13 1609.66 444.36 1599.26 448.09 1602.73 437.26 1596.1 428.15 1607.11 428.23 1613.41 418.87 1616.74 429.75 1627.27 433.07"/><polygon class="cls-3" points="1509.67 471.88 1509.48 479.27 1515.25 483.63 1508.4 485.73 1506.19 492.77 1502.15 486.67 1495.01 486.66 1499.36 480.79 1497.16 473.74 1503.89 476.22 1509.67 471.88"/><polygon class="cls-4" points="355.05 986.01 360.35 999.96 374.43 1003.34 363.28 1012.88 364.54 1027.82 352.35 1019.76 339.04 1025.62 342.65 1011.1 333.17 999.78 347.6 998.86 355.05 986.01"/><polygon class="cls-4" points="481.44 1018.69 479.33 1034.39 490.61 1045.1 475.56 1047.87 469.23 1062.3 462.04 1048.31 446.85 1046.52 457.45 1035.11 454.4 1019.57 468.14 1026.51 481.44 1018.69"/><polygon class="cls-4" points="474.23 873.95 464.21 897.6 477.32 919.57 452.54 917 436.44 936.72 431.14 911.48 408.09 901.69 429.6 888.66 431.44 862.9 450.04 880.09 474.23 873.95"/><polygon class="cls-4" points="615.35 1035.78 602.25 1045.32 602.39 1061.92 589.6 1051.94 574.42 1057.21 579.62 1041.51 570.1 1028.16 586.1 1028.44 595.39 1014.92 600.09 1030.8 615.35 1035.78"/><polygon class="cls-4" points="366.95 906.47 364.81 910.96 367.16 915.34 362.38 914.61 359.09 918.28 358.28 913.34 353.89 911.23 358.18 908.9 358.76 903.92 362.21 907.43 366.95 906.47"/><polygon class="cls-4" points="304.19 1061.05 302.69 1064.64 304.69 1067.96 300.93 1067.59 298.5 1070.59 297.68 1066.77 294.18 1065.3 297.43 1063.31 297.69 1059.41 300.52 1062 304.19 1061.05"/><polygon class="cls-4" points="313.4 943.18 309.09 948.8 311.12 955.67 304.63 953.16 298.96 957.28 299.26 950.11 293.73 945.79 300.4 943.86 302.65 937.08 306.48 943.06 313.4 943.18"/><polygon class="cls-4" points="404.63 1060.15 401.4 1064.64 403.14 1069.95 398.02 1068.16 393.7 1071.51 393.76 1065.91 389.34 1062.68 394.5 1061.01 396.1 1055.65 399.23 1060.23 404.63 1060.15"/><polygon class="cls-4" points="444.67 973.72 444.68 975.96 446.46 977.23 444.41 977.93 443.8 980.08 442.53 978.27 440.37 978.33 441.63 976.51 440.9 974.4 442.96 975.09 444.67 973.72"/><polygon class="cls-4" points="527.75 985.06 524.94 985.96 524.07 988.88 522.37 986.39 519.43 986.43 521.19 983.98 520.24 981.09 523.03 982.07 525.38 980.25 525.35 983.3 527.75 985.06"/><polygon class="cls-4" points="678.33 1060.72 679.86 1066.09 685 1067.83 680.54 1071 680.53 1076.61 676.25 1073.19 671.11 1074.92 672.91 1069.64 669.74 1065.1 675.14 1065.25 678.33 1060.72"/><polygon class="cls-4" points="647.32 1008.14 649.06 1011.73 652.89 1012.27 650.14 1015.09 650.83 1019.04 647.39 1017.21 643.99 1019.1 644.61 1015.14 641.81 1012.37 645.64 1011.76 647.32 1008.14"/><polygon class="cls-4" points="531.16 1045.42 529.46 1053.06 534.55 1058.84 527.03 1059.51 523.3 1066.32 520.36 1059.11 512.96 1057.54 518.66 1052.41 517.82 1044.63 524.29 1048.66 531.16 1045.42"/><polygon class="cls-4" points="611.88 948.06 605.85 955.71 608.5 965.19 599.63 961.61 591.76 967.16 592.3 957.3 584.78 951.24 593.99 948.73 597.21 939.44 602.36 947.75 611.88 948.06"/><polygon class="cls-4" points="743.22 986.15 739.36 996.03 745.02 1004.92 734.77 1004.17 728.36 1012.5 725.88 1002.16 716.26 998.41 724.98 992.77 725.44 982.12 733.31 988.98 743.22 986.15"/><polygon class="cls-4" points="841.18 1036.61 835.17 1050.98 843.18 1064.26 828.15 1062.78 818.45 1074.78 815.16 1059.49 801.16 1053.63 814.16 1045.67 815.21 1030.04 826.53 1040.41 841.18 1036.61"/><polygon class="cls-4" points="662.36 891.74 658.06 898.48 660.98 905.98 653.47 903.82 647.49 909.01 647.15 900.94 640.54 896.65 647.85 893.82 649.73 885.97 654.59 892.3 662.36 891.74"/><polygon class="cls-4" points="818.45 929.6 810.93 943.08 817.37 957.15 802.69 953.9 791.78 964.6 790.22 949.11 777.04 941.65 790.76 935.33 793.52 920.02 803.56 931.61 818.45 929.6"/><polygon class="cls-4" points="942.49 988.3 947.79 1002.25 961.87 1005.63 950.72 1015.17 951.98 1030.11 939.78 1022.05 926.48 1027.91 930.09 1013.39 920.61 1002.07 935.04 1001.15 942.49 988.3"/><polygon class="cls-4" points="1068.88 1020.98 1066.77 1036.68 1078.05 1047.39 1063 1050.16 1056.66 1064.59 1049.47 1050.6 1034.29 1048.81 1044.89 1037.4 1041.84 1021.86 1055.58 1028.8 1068.88 1020.98"/><polygon class="cls-4" points="1061.67 876.24 1051.65 899.89 1064.76 921.86 1039.97 919.29 1023.88 939.01 1018.58 913.76 995.53 903.98 1017.04 890.95 1018.88 865.19 1037.48 882.38 1061.67 876.24"/><polygon class="cls-4" points="1202.79 1038.07 1189.68 1047.61 1189.83 1064.21 1177.04 1054.23 1161.86 1059.5 1167.06 1043.8 1157.53 1030.45 1173.54 1030.73 1182.83 1017.21 1187.52 1033.09 1202.79 1038.07"/><polygon class="cls-4" points="954.39 908.75 952.25 913.25 954.6 917.63 949.82 916.9 946.52 920.57 945.72 915.63 941.33 913.52 945.61 911.19 946.2 906.21 949.65 909.72 954.39 908.75"/><polygon class="cls-4" points="891.62 1063.34 890.12 1066.93 892.13 1070.25 888.37 1069.88 885.94 1072.88 885.12 1069.06 881.62 1067.59 884.87 1065.6 885.13 1061.7 887.96 1064.29 891.62 1063.34"/><polygon class="cls-4" points="900.83 945.48 896.53 951.1 898.55 957.96 892.07 955.45 886.4 959.57 886.7 952.4 881.17 948.08 887.84 946.15 890.09 939.37 893.91 945.35 900.83 945.48"/><polygon class="cls-4" points="992.07 1062.44 988.84 1066.93 990.58 1072.24 985.46 1070.45 981.13 1073.8 981.2 1068.2 976.78 1064.97 981.94 1063.3 983.54 1057.94 986.66 1062.52 992.07 1062.44"/><polygon class="cls-4" points="1032.11 976.01 1032.12 978.25 1033.9 979.52 1031.85 980.22 1031.24 982.37 1029.96 980.56 1027.8 980.62 1029.07 978.8 1028.34 976.69 1030.4 977.38 1032.11 976.01"/><polygon class="cls-4" points="1115.19 987.35 1112.38 988.25 1111.51 991.16 1109.81 988.68 1106.87 988.72 1108.63 986.27 1107.68 983.38 1110.46 984.36 1112.82 982.54 1112.79 985.59 1115.19 987.35"/><polygon class="cls-4" points="1265.76 1063.01 1267.3 1068.38 1272.43 1070.12 1267.98 1073.3 1267.97 1078.9 1263.68 1075.48 1258.54 1077.21 1260.35 1071.93 1257.18 1067.39 1262.58 1067.54 1265.76 1063.01"/><polygon class="cls-4" points="1234.76 1010.44 1236.5 1014.02 1240.33 1014.56 1237.58 1017.38 1238.27 1021.33 1234.83 1019.5 1231.42 1021.39 1232.04 1017.43 1229.25 1014.66 1233.07 1014.05 1234.76 1010.44"/><polygon class="cls-4" points="1118.6 1047.72 1116.9 1055.35 1121.99 1061.13 1114.47 1061.8 1110.74 1068.61 1107.8 1061.4 1100.4 1059.83 1106.1 1054.7 1105.26 1046.91 1111.73 1050.95 1118.6 1047.72"/><polygon class="cls-4" points="1171.17 891.71 1167.29 894.87 1167.59 899.97 1163.5 897.12 1158.91 898.99 1160.27 894.08 1157.13 890.13 1162.06 889.95 1164.7 885.63 1166.39 890.44 1171.17 891.71"/><polygon class="cls-4" points="1199.32 950.35 1193.29 958 1195.94 967.48 1187.07 963.9 1179.19 969.45 1179.74 959.59 1172.22 953.53 1181.42 951.02 1184.65 941.73 1189.8 950.04 1199.32 950.35"/><polygon class="cls-4" points="1330.65 988.44 1326.8 998.32 1332.46 1007.21 1322.2 1006.46 1315.8 1014.79 1313.32 1004.45 1303.7 1000.7 1312.42 995.06 1312.88 984.41 1320.75 991.27 1330.65 988.44"/><polygon class="cls-4" points="1428.61 1038.9 1422.61 1053.27 1430.62 1066.55 1415.59 1065.07 1405.89 1077.07 1402.6 1061.78 1388.6 1055.92 1401.6 1047.96 1402.64 1032.33 1413.96 1042.7 1428.61 1038.9"/><polygon class="cls-4" points="1249.8 894.03 1245.5 900.77 1248.41 908.27 1240.9 906.11 1234.93 911.3 1234.59 903.23 1227.98 898.94 1235.28 896.11 1237.17 888.26 1242.03 894.59 1249.8 894.03"/><polygon class="cls-4" points="1405.89 931.89 1398.37 945.37 1404.81 959.44 1390.12 956.19 1379.21 966.89 1377.66 951.4 1364.48 943.94 1378.2 937.62 1380.96 922.32 1391 933.9 1405.89 931.89"/><polygon class="cls-4" points="1470.89 1045.32 1472.42 1050.69 1477.55 1052.43 1473.1 1055.6 1473.09 1061.21 1468.81 1057.79 1463.66 1059.52 1465.47 1054.23 1462.3 1049.7 1467.7 1049.85 1470.89 1045.32"/><polygon class="cls-4" points="1535.78 970.75 1531.92 980.62 1537.58 989.52 1527.33 988.77 1520.92 997.1 1518.44 986.75 1508.82 983.01 1517.54 977.37 1518 966.72 1525.87 973.58 1535.78 970.75"/><polygon class="cls-4" points="1633.74 1021.21 1627.73 1035.58 1635.74 1048.86 1620.71 1047.38 1611.01 1059.38 1607.72 1044.09 1593.72 1038.23 1606.72 1030.27 1607.77 1014.64 1619.09 1025.01 1633.74 1021.21"/><polygon class="cls-4" points="1611.01 914.2 1603.49 927.68 1609.93 941.75 1595.24 938.5 1584.34 949.2 1582.78 933.71 1569.6 926.25 1583.32 919.93 1586.08 904.62 1596.12 916.21 1611.01 914.2"/><polygon class="cls-4" points="351.6 1664.7 341.22 1663.39 334.3 1671.52 332.29 1660.88 322.7 1656.56 331.84 1651.29 332.83 1640.49 340.49 1647.88 350.69 1645.52 346.29 1655.36 351.6 1664.7"/><polygon class="cls-4" points="382.86 1333.09 378.25 1352.26 390.86 1367.07 371.86 1368.44 362.18 1385.46 355.04 1367.14 336.45 1362.85 351.05 1350.15 349.24 1330.48 365.39 1340.95 382.86 1333.09"/><polygon class="cls-4" points="339.43 1100.16 350.21 1129.83 379.88 1137.43 356.01 1157.23 358.2 1188.85 332.67 1171.43 304.36 1183.36 312.45 1152.79 292.75 1128.55 323.28 1127.08 339.43 1100.16"/><polygon class="cls-4" points="523.05 1121.17 524.26 1136.75 537.32 1144.54 523.41 1150.55 520.3 1165.84 510.49 1153.98 495.51 1155.63 503.36 1142.29 497.21 1128.02 511.87 1131.64 523.05 1121.17"/><polygon class="cls-4" points="487.53 1314.03 486.67 1325.91 495.61 1333.37 484.46 1336.19 480.38 1347.32 474.35 1337.19 462.88 1336.6 470.31 1327.52 467.3 1316.03 477.92 1320.55 487.53 1314.03"/><polygon class="cls-4" points="373.58 1530.25 369.78 1535.5 371.8 1541.73 365.81 1539.6 360.73 1543.52 360.82 1536.95 355.67 1533.15 361.71 1531.21 363.61 1524.95 367.25 1530.32 373.58 1530.25"/><polygon class="cls-4" points="453 1603.39 451.29 1608.78 454.59 1613.3 449.13 1613.27 446.01 1617.93 444.34 1612.53 439.1 1610.89 443.54 1607.58 443.42 1601.91 447.83 1605.26 453 1603.39"/><polygon class="cls-4" points="415.5 1646.01 414.55 1653.52 419.98 1658.59 412.8 1659.98 409.83 1666.9 406.34 1660.25 399.07 1659.45 404.1 1653.95 402.58 1646.54 409.17 1649.8 415.5 1646.01"/><polygon class="cls-4" points="397.52 1584.26 392.79 1591.23 395.64 1599.22 387.79 1596.7 381.34 1601.99 381.22 1593.46 374.38 1588.73 382.16 1585.98 384.38 1577.78 389.31 1584.6 397.52 1584.26"/><polygon class="cls-4" points="430.71 1549.23 427.27 1556.64 431.21 1563.78 423.36 1562.68 418.03 1568.77 416.61 1560.68 409.38 1557.31 416.36 1553.41 417.21 1545.23 422.95 1550.91 430.71 1549.23"/><polygon class="cls-4" points="345.2 1595.3 341.98 1602.04 345.51 1608.61 338.33 1607.51 333.4 1613.02 332.18 1605.61 325.61 1602.44 332.03 1598.95 332.9 1591.48 338.08 1596.74 345.2 1595.3"/><polygon class="cls-4" points="339.34 1503.49 339.39 1506.37 341.7 1507.96 339.07 1508.89 338.33 1511.67 336.66 1509.37 333.89 1509.49 335.48 1507.13 334.51 1504.43 337.17 1505.28 339.34 1503.49"/><polygon class="cls-4" points="452.95 1481.08 439.08 1480.2 430.51 1491.55 427.03 1477.59 413.98 1472.65 425.7 1464.9 426.2 1450.5 436.92 1459.67 450.29 1455.71 445.19 1469.12 452.95 1481.08"/><polygon class="cls-4" points="510.8 1551.53 505.21 1560.07 508.82 1569.69 499.26 1566.82 491.56 1573.35 491.24 1563.03 482.87 1557.45 492.23 1553.95 494.76 1543.97 500.86 1552.13 510.8 1551.53"/><polygon class="cls-4" points="550.24 1626.18 543.47 1638.8 549.66 1651.73 536 1648.95 526.05 1659.05 524.37 1644.72 512.04 1638.02 524.66 1631.94 526.99 1617.71 536.47 1628.28 550.24 1626.18"/><polygon class="cls-4" points="558.52 1454.97 544.47 1454.65 536.25 1466.47 532.2 1452.51 518.82 1448.05 530.37 1439.74 530.32 1425.16 541.51 1433.99 554.86 1429.44 550.22 1443.2 558.52 1454.97"/><polygon class="cls-4" points="568.37 1529.88 564.88 1533.66 565.92 1538.79 561.37 1536.52 556.99 1539.12 557.66 1533.94 553.92 1530.42 558.89 1529.48 560.95 1524.71 563.35 1529.32 568.37 1529.88"/><polygon class="cls-4" points="499.63 1491.74 498.92 1495.1 501.19 1497.62 497.88 1497.96 496.28 1500.97 494.94 1497.82 491.68 1497.17 494.16 1494.88 493.75 1491.46 496.62 1493.2 499.63 1491.74"/><polygon class="cls-4" points="558.37 1320.58 550.25 1326.14 550.06 1336.23 542.45 1329.94 533.14 1332.87 536.56 1323.42 530.99 1315.14 540.72 1315.59 546.59 1307.54 549.18 1317.27 558.37 1320.58"/><polygon class="cls-4" points="425.07 1396.27 419.62 1402.86 421.76 1411.26 414.03 1407.92 406.99 1412.63 407.66 1403.97 401.17 1398.49 409.32 1396.47 412.34 1388.37 416.7 1395.79 425.07 1396.27"/><polygon class="cls-4" points="474.57 1396.33 470.58 1400.94 471.99 1406.95 466.53 1404.45 461.44 1407.69 462.05 1401.54 457.51 1397.52 463.34 1396.22 465.62 1390.5 468.62 1395.85 474.57 1396.33"/><polygon class="cls-4" points="445.14 1300.45 446.99 1305.57 452.11 1306.88 447.99 1310.29 448.36 1315.74 443.97 1312.73 439.09 1314.79 440.48 1309.52 437.09 1305.34 442.35 1305.09 445.14 1300.45"/><polygon class="cls-4" points="410.97 1218.21 402.52 1224.41 402.66 1235.14 394.37 1228.72 384.57 1232.17 387.89 1222.01 381.7 1213.41 392.05 1213.54 398.02 1204.78 401.09 1215.03 410.97 1218.21"/><polygon class="cls-4" points="448.71 1204.79 444.66 1210 446.49 1216.41 440.47 1214.02 435.15 1217.82 435.48 1211.13 430.35 1207.06 436.59 1205.32 438.73 1199.01 442.26 1204.62 448.71 1204.79"/><polygon class="cls-4" points="498.43 1231.52 494.61 1240.54 499.6 1248.92 490.15 1247.94 484.01 1255.45 481.99 1245.83 473.2 1242.09 481.4 1237.13 482.11 1227.3 489.2 1233.86 498.43 1231.52"/><polygon class="cls-4" points="351.22 1269.08 347.78 1274.25 349.93 1280.12 344.13 1278.32 339.41 1282.26 339.27 1275.98 334.2 1272.55 339.91 1270.46 341.5 1264.4 345.17 1269.39 351.22 1269.08"/><polygon class="cls-4" points="352.6 1435.17 351.23 1445.15 358.38 1451.98 348.8 1453.71 344.75 1462.88 340.2 1453.97 330.55 1452.8 337.31 1445.56 335.4 1435.67 344.13 1440.11 352.6 1435.17"/><polygon class="cls-4" points="321.76 1402.22 319.83 1408.29 323.55 1413.37 317.4 1413.34 313.89 1418.58 312.01 1412.51 306.13 1410.66 311.12 1406.93 310.99 1400.56 315.95 1404.33 321.76 1402.22"/><polygon class="cls-4" points="449.24 1151.93 447.33 1163.6 455.52 1171.84 444.23 1173.57 439.2 1184.19 434.13 1173.59 422.84 1171.91 431 1163.63 429.05 1151.97 439.15 1157.46 449.24 1151.93"/><polygon class="cls-4" points="441.65 1114.25 439.94 1120.76 444.14 1125.91 437.64 1126.23 434.22 1131.97 431.92 1125.66 425.6 1124.06 430.67 1119.83 430.19 1113.11 435.63 1116.8 441.65 1114.25"/><polygon class="cls-4" points="583.64 1208.11 572.74 1212.97 570.42 1225.04 562.6 1215.79 550.82 1217.23 556.88 1206.65 551.92 1195.47 563.49 1198.19 572.21 1189.84 573.29 1202.09 583.64 1208.11"/><polygon class="cls-4" points="638.36 1135.14 631.58 1144.02 634.78 1154.85 624.55 1150.9 615.61 1157.41 616.06 1146.1 607.33 1139.29 617.85 1136.24 621.39 1125.53 627.44 1134.96 638.36 1135.14"/><polygon class="cls-4" points="651.05 1610.68 649.35 1620.55 656.23 1627.6 646.65 1628.97 642.32 1637.93 638.1 1628.91 628.54 1627.41 635.51 1620.46 633.93 1610.56 642.46 1615.29 651.05 1610.68"/><polygon class="cls-4" points="629.45 1464.4 627.3 1468.89 629.65 1473.27 624.87 1472.54 621.58 1476.22 620.77 1471.27 616.39 1469.16 620.67 1466.84 621.25 1461.86 624.71 1465.37 629.45 1464.4"/><polygon class="cls-4" points="658.99 1340.32 646.24 1343.05 641.19 1355.49 634.75 1343.77 621.78 1342.63 630.54 1332.64 627.57 1319.5 639.43 1325.05 650.57 1318.07 649.14 1331.49 658.99 1340.32"/><polygon class="cls-4" points="717.4 1187.28 710.52 1197.62 714.83 1209.36 703.22 1205.77 693.79 1213.65 693.5 1201.09 683.36 1194.21 694.78 1190.05 697.95 1177.92 705.3 1187.9 717.4 1187.28"/><polygon class="cls-4" points="820.66 1174.28 795.99 1168.09 777.1 1185.65 775.15 1159.41 753.21 1146.19 776.67 1136.17 782 1110.43 798.45 1130.48 823.69 1127.79 810.39 1150.21 820.66 1174.28"/><polygon class="cls-4" points="738.23 1590.27 734.47 1598.69 739.03 1606.67 730.15 1605.57 724.24 1612.54 722.5 1603.43 714.29 1599.75 722.1 1595.23 722.94 1585.99 729.5 1592.3 738.23 1590.27"/><polygon class="cls-4" points="811.58 1482.4 800.61 1499.93 808.31 1519.23 788.85 1513.83 773.53 1527.4 772.47 1506.53 755.3 1495.61 774.1 1488.12 778.81 1467.8 791.49 1484.03 811.58 1482.4"/><polygon class="cls-4" points="778.51 1357.37 766.44 1369.29 769.07 1386.36 754.41 1378.15 739.57 1386.02 742.57 1369.01 730.77 1356.81 747.29 1354.51 754.83 1339.1 762.04 1354.69 778.51 1357.37"/><polygon class="cls-4" points="715.45 1477.22 709.42 1483.74 711.18 1492.6 703.34 1488.66 695.76 1493.14 696.95 1484.18 690.5 1478.1 699.08 1476.49 702.67 1468.26 706.79 1476.22 715.45 1477.22"/><polygon class="cls-4" points="865.25 1634.43 860.12 1650.59 870.04 1664.14 853.63 1664.07 844.28 1678.05 839.27 1661.84 823.57 1656.93 836.88 1646.99 836.53 1629.97 849.76 1640.03 865.25 1634.43"/><polygon class="cls-4" points="806.77 1604.75 800.42 1613.41 803.7 1623.74 793.8 1620.15 785.34 1626.58 785.57 1615.7 777.07 1609.34 787.11 1606.21 790.31 1595.86 796.29 1604.79 806.77 1604.75"/><polygon class="cls-4" points="854.43 1383.87 841.81 1391.87 841.01 1407.19 829.77 1397.22 815.48 1401.16 821.15 1386.99 813.12 1374.12 827.86 1375.33 837.19 1363.42 840.63 1378.35 854.43 1383.87"/><polygon class="cls-4" points="849.01 1257.07 840.06 1263.72 840.26 1275.13 831.4 1268.36 821 1272.09 824.48 1261.26 817.84 1252.15 828.85 1252.23 835.15 1242.87 838.48 1253.75 849.01 1257.07"/><polygon class="cls-4" points="731.41 1295.88 731.22 1303.28 736.99 1307.63 730.14 1309.73 727.93 1316.77 723.89 1310.67 716.75 1310.66 721.1 1304.79 718.9 1297.74 725.63 1300.22 731.41 1295.88"/><polygon class="cls-4" points="939.04 1666.99 928.66 1665.68 921.74 1673.81 919.73 1663.17 910.13 1658.85 919.27 1653.58 920.27 1642.78 927.93 1650.17 938.13 1647.81 933.73 1657.65 939.04 1666.99"/><polygon class="cls-4" points="970.3 1335.38 965.69 1354.55 978.3 1369.36 959.29 1370.73 949.61 1387.75 942.48 1369.43 923.89 1365.13 938.48 1352.44 936.67 1332.77 952.83 1343.24 970.3 1335.38"/><polygon class="cls-4" points="926.87 1102.45 937.64 1132.12 967.32 1139.72 943.45 1159.52 945.64 1191.14 920.11 1173.72 891.79 1185.65 899.88 1155.08 880.19 1130.84 910.72 1129.37 926.87 1102.45"/><polygon class="cls-4" points="1110.49 1123.46 1111.7 1139.04 1124.76 1146.84 1110.85 1152.84 1107.73 1168.13 1097.93 1156.27 1082.94 1157.92 1090.79 1144.58 1084.65 1130.31 1099.31 1133.93 1110.49 1123.46"/><polygon class="cls-4" points="1074.97 1316.32 1074.11 1328.2 1083.05 1335.66 1071.9 1338.48 1067.82 1349.61 1061.79 1339.48 1050.32 1338.89 1057.74 1329.81 1054.74 1318.32 1065.36 1322.84 1074.97 1316.32"/><polygon class="cls-4" points="961.02 1532.54 957.22 1537.79 959.24 1544.02 953.25 1541.89 948.17 1545.81 948.26 1539.24 943.1 1535.44 949.15 1533.5 951.05 1527.24 954.69 1532.61 961.02 1532.54"/><polygon class="cls-4" points="1040.43 1605.68 1038.72 1611.07 1042.03 1615.59 1036.56 1615.56 1033.44 1620.22 1031.78 1614.82 1026.54 1613.18 1030.98 1609.87 1030.86 1604.2 1035.27 1607.55 1040.43 1605.68"/><polygon class="cls-4" points="1002.94 1648.3 1001.99 1655.81 1007.42 1660.88 1000.24 1662.27 997.27 1669.19 993.78 1662.54 986.51 1661.75 991.53 1656.24 990.01 1648.83 996.61 1652.09 1002.94 1648.3"/><polygon class="cls-4" points="984.96 1586.55 980.22 1593.52 983.07 1601.51 975.22 1598.99 968.77 1604.28 968.65 1595.76 961.82 1591.03 969.6 1588.27 971.82 1580.07 976.75 1586.89 984.96 1586.55"/><polygon class="cls-4" points="1018.15 1551.52 1014.71 1558.93 1018.65 1566.07 1010.8 1564.97 1005.47 1571.06 1004.05 1562.97 996.82 1559.6 1003.8 1555.7 1004.65 1547.52 1010.39 1553.2 1018.15 1551.52"/><polygon class="cls-4" points="932.64 1597.59 929.42 1604.33 932.94 1610.9 925.77 1609.8 920.84 1615.31 919.62 1607.9 913.04 1604.73 919.47 1601.24 920.34 1593.78 925.52 1599.03 932.64 1597.59"/><polygon class="cls-4" points="926.78 1505.78 926.82 1508.66 929.13 1510.25 926.51 1511.18 925.76 1513.96 924.1 1511.66 921.33 1511.78 922.92 1509.42 921.95 1506.72 924.61 1507.57 926.78 1505.78"/><polygon class="cls-4" points="1040.39 1483.37 1026.51 1482.49 1017.95 1493.84 1014.47 1479.88 1001.41 1474.94 1013.14 1467.19 1013.64 1452.79 1024.36 1461.96 1037.72 1458 1032.63 1471.41 1040.39 1483.37"/><polygon class="cls-4" points="1098.24 1553.82 1092.64 1562.36 1096.26 1571.98 1086.7 1569.11 1078.99 1575.64 1078.68 1565.32 1070.31 1559.74 1079.67 1556.24 1082.2 1546.26 1088.3 1554.41 1098.24 1553.82"/><polygon class="cls-4" points="1137.68 1628.47 1130.91 1641.09 1137.1 1654.02 1123.43 1651.24 1113.49 1661.34 1111.81 1647.01 1099.48 1640.31 1112.1 1634.23 1114.43 1620 1123.91 1630.57 1137.68 1628.47"/><polygon class="cls-4" points="1145.96 1457.26 1131.91 1456.94 1123.68 1468.76 1119.64 1454.8 1106.26 1450.34 1117.81 1442.03 1117.76 1427.45 1128.95 1436.28 1142.3 1431.73 1137.66 1445.49 1145.96 1457.26"/><polygon class="cls-4" points="1155.8 1532.17 1152.32 1535.95 1153.35 1541.08 1148.81 1538.81 1144.43 1541.41 1145.1 1536.23 1141.36 1532.71 1146.33 1531.77 1148.39 1527 1150.79 1531.61 1155.8 1532.17"/><polygon class="cls-4" points="1087.06 1494.03 1086.35 1497.39 1088.62 1499.91 1085.32 1500.25 1083.71 1503.26 1082.38 1500.11 1079.12 1499.46 1081.6 1497.17 1081.19 1493.75 1084.06 1495.49 1087.06 1494.03"/><polygon class="cls-4" points="1145.81 1322.87 1137.69 1328.43 1137.5 1338.52 1129.89 1332.23 1120.58 1335.16 1124 1325.71 1118.43 1317.43 1128.15 1317.88 1134.03 1309.83 1136.62 1319.56 1145.81 1322.87"/><polygon class="cls-4" points="1012.51 1398.56 1007.05 1405.15 1009.2 1413.55 1001.47 1410.21 994.43 1414.92 995.1 1406.26 988.6 1400.78 996.75 1398.77 999.78 1390.66 1004.14 1398.08 1012.51 1398.56"/><polygon class="cls-4" points="1062.01 1398.62 1058.02 1403.23 1059.42 1409.25 1053.97 1406.74 1048.88 1409.98 1049.49 1403.83 1044.95 1399.81 1050.78 1398.51 1053.06 1392.79 1056.05 1398.14 1062.01 1398.62"/><polygon class="cls-4" points="1032.58 1302.74 1034.43 1307.86 1039.54 1309.17 1035.43 1312.58 1035.8 1318.03 1031.4 1315.02 1026.52 1317.08 1027.92 1311.81 1024.53 1307.63 1029.79 1307.38 1032.58 1302.74"/><polygon class="cls-4" points="998.41 1220.5 989.96 1226.7 990.1 1237.43 981.8 1231.01 972.01 1234.46 975.33 1224.3 969.14 1215.7 979.49 1215.83 985.46 1207.07 988.53 1217.32 998.41 1220.5"/><polygon class="cls-4" points="1036.15 1207.08 1032.09 1212.29 1033.93 1218.7 1027.9 1216.31 1022.59 1220.11 1022.92 1213.42 1017.79 1209.36 1024.02 1207.61 1026.17 1201.3 1029.7 1206.91 1036.15 1207.08"/><polygon class="cls-4" points="1085.87 1233.81 1082.04 1242.83 1087.04 1251.21 1077.59 1250.23 1071.44 1257.74 1069.43 1248.12 1060.64 1244.38 1068.84 1239.42 1069.55 1229.59 1076.64 1236.15 1085.87 1233.81"/><polygon class="cls-4" points="938.66 1271.37 935.22 1276.54 937.37 1282.41 931.57 1280.61 926.85 1284.55 926.71 1278.27 921.63 1274.84 927.35 1272.75 928.93 1266.69 932.61 1271.68 938.66 1271.37"/><polygon class="cls-4" points="940.04 1437.46 938.67 1447.44 945.82 1454.27 936.24 1456.01 932.19 1465.17 927.64 1456.26 917.98 1455.09 924.75 1447.85 922.84 1437.96 931.57 1442.4 940.04 1437.46"/><polygon class="cls-4" points="909.19 1404.52 907.27 1410.58 910.99 1415.66 904.84 1415.63 901.33 1420.87 899.45 1414.8 893.56 1412.95 898.55 1409.22 898.42 1402.85 903.38 1406.62 909.19 1404.52"/><polygon class="cls-4" points="1036.68 1154.22 1034.77 1165.89 1042.95 1174.13 1031.67 1175.86 1026.64 1186.48 1021.57 1175.88 1010.28 1174.2 1018.43 1165.92 1016.48 1154.26 1026.59 1159.75 1036.68 1154.22"/><polygon class="cls-4" points="1029.09 1116.54 1027.38 1123.05 1031.58 1128.2 1025.08 1128.52 1021.66 1134.26 1019.35 1127.95 1013.04 1126.35 1018.11 1122.12 1017.63 1115.4 1023.07 1119.09 1029.09 1116.54"/><polygon class="cls-4" points="1171.08 1210.4 1160.18 1215.26 1157.86 1227.33 1150.04 1218.08 1138.25 1219.52 1144.32 1208.94 1139.36 1197.76 1150.93 1200.48 1159.64 1192.13 1160.73 1204.38 1171.08 1210.4"/><polygon class="cls-4" points="1225.79 1137.43 1219.01 1146.31 1222.22 1157.14 1211.98 1153.19 1203.05 1159.71 1203.5 1148.39 1194.77 1141.59 1205.29 1138.53 1208.83 1127.82 1214.87 1137.25 1225.79 1137.43"/><polygon class="cls-4" points="1238.49 1612.97 1236.79 1622.84 1243.67 1629.89 1234.09 1631.26 1229.76 1640.22 1225.54 1631.2 1215.98 1629.7 1222.94 1622.75 1221.37 1612.85 1229.9 1617.58 1238.49 1612.97"/><polygon class="cls-4" points="1216.89 1466.69 1214.74 1471.18 1217.09 1475.56 1212.31 1474.83 1209.02 1478.51 1208.21 1473.56 1203.83 1471.45 1208.11 1469.13 1208.69 1464.15 1212.14 1467.66 1216.89 1466.69"/><polygon class="cls-4" points="1246.43 1342.61 1233.68 1345.34 1228.63 1357.78 1222.18 1346.06 1209.21 1344.92 1217.97 1334.93 1215.01 1321.79 1226.87 1327.35 1238.01 1320.36 1236.58 1333.78 1246.43 1342.61"/><polygon class="cls-4" points="1304.84 1189.57 1297.96 1199.91 1302.27 1211.65 1290.66 1208.06 1281.22 1215.94 1280.93 1203.38 1270.8 1196.5 1282.22 1192.34 1285.39 1180.21 1292.74 1190.19 1304.84 1189.57"/><polygon class="cls-4" points="1408.1 1176.57 1383.43 1170.38 1364.53 1187.94 1362.59 1161.7 1340.64 1148.48 1364.1 1138.46 1369.44 1112.72 1385.88 1132.77 1411.13 1130.08 1397.83 1152.5 1408.1 1176.57"/><polygon class="cls-4" points="1325.66 1592.56 1321.91 1600.98 1326.47 1608.96 1317.59 1607.86 1311.68 1614.83 1309.94 1605.72 1301.73 1602.04 1309.54 1597.52 1310.38 1588.28 1316.94 1594.59 1325.66 1592.56"/><polygon class="cls-4" points="1399.01 1484.69 1388.05 1502.22 1395.75 1521.53 1376.29 1516.12 1360.97 1529.69 1359.91 1508.82 1342.73 1497.9 1361.54 1490.41 1366.25 1470.09 1378.93 1486.32 1399.01 1484.69"/><polygon class="cls-4" points="1365.94 1359.66 1353.88 1371.58 1356.51 1388.65 1341.85 1380.44 1327.01 1388.31 1330.01 1371.3 1318.21 1359.1 1334.73 1356.8 1342.27 1341.39 1349.48 1356.98 1365.94 1359.66"/><polygon class="cls-4" points="1302.89 1479.51 1296.86 1486.04 1298.62 1494.89 1290.77 1490.95 1283.2 1495.43 1284.38 1486.47 1277.94 1480.38 1286.52 1478.78 1290.11 1470.55 1294.23 1478.51 1302.89 1479.51"/><polygon class="cls-4" points="1452.69 1636.72 1447.55 1652.88 1457.48 1666.43 1441.07 1666.36 1431.72 1680.34 1426.71 1664.13 1411 1659.22 1424.32 1649.28 1423.96 1632.27 1437.2 1642.33 1452.69 1636.72"/><polygon class="cls-4" points="1394.21 1607.04 1387.86 1615.7 1391.13 1626.03 1381.24 1622.44 1372.78 1628.87 1373.01 1617.99 1364.5 1611.63 1374.55 1608.5 1377.75 1598.15 1383.72 1607.08 1394.21 1607.04"/><polygon class="cls-4" points="1441.87 1386.16 1429.25 1394.16 1428.45 1409.48 1417.21 1399.51 1402.92 1403.45 1408.59 1389.29 1400.55 1376.4 1415.3 1377.62 1424.63 1365.71 1428.07 1380.64 1441.87 1386.16"/><polygon class="cls-4" points="1436.44 1259.36 1427.5 1266.01 1427.7 1277.42 1418.84 1270.65 1408.44 1274.38 1411.91 1263.55 1405.28 1254.44 1416.29 1254.52 1422.59 1245.16 1425.91 1256.04 1436.44 1259.36"/><polygon class="cls-4" points="1318.85 1298.17 1318.66 1305.57 1324.42 1309.93 1317.58 1312.02 1315.37 1319.06 1311.33 1312.96 1304.19 1312.95 1308.54 1307.08 1306.34 1300.04 1313.07 1302.51 1318.85 1298.17"/><polygon class="cls-4" points="1547.64 1675.89 1544.11 1685.88 1550.04 1694.56 1539.79 1694.16 1533.66 1702.69 1530.86 1692.46 1521.14 1689.05 1529.66 1683.12 1529.78 1672.48 1537.85 1679.05 1547.64 1675.89"/><polygon class="cls-4" points="1509.96 1171.88 1503.08 1182.22 1507.39 1193.96 1495.78 1190.37 1486.35 1198.24 1486.06 1185.68 1475.92 1178.81 1487.34 1174.64 1490.51 1162.52 1497.87 1172.5 1509.96 1171.88"/><polygon class="cls-4" points="1613.22 1158.88 1588.55 1152.69 1569.66 1170.25 1567.71 1144.01 1545.77 1130.79 1569.23 1120.76 1574.56 1095.03 1591.01 1115.08 1616.25 1112.39 1602.95 1134.81 1613.22 1158.88"/><polygon class="cls-4" points="1530.79 1574.87 1527.03 1583.29 1531.59 1591.27 1522.71 1590.17 1516.8 1597.13 1515.06 1588.03 1506.85 1584.35 1514.66 1579.83 1515.5 1570.59 1522.06 1576.9 1530.79 1574.87"/><polygon class="cls-4" points="1604.13 1467 1593.17 1484.53 1600.87 1503.83 1581.41 1498.43 1566.09 1512 1565.03 1491.13 1547.86 1480.21 1566.66 1472.71 1571.37 1452.4 1584.05 1468.63 1604.13 1467"/><polygon class="cls-4" points="1571.07 1341.96 1559 1353.89 1561.63 1370.96 1546.97 1362.74 1532.13 1370.62 1535.13 1353.61 1523.33 1341.4 1539.85 1339.11 1547.39 1323.7 1554.6 1339.29 1571.07 1341.96"/><polygon class="cls-4" points="1508.01 1461.82 1501.98 1468.34 1503.74 1477.19 1495.89 1473.26 1488.32 1477.73 1489.51 1468.78 1483.06 1462.69 1491.64 1461.09 1495.23 1452.86 1499.35 1460.82 1508.01 1461.82"/><polygon class="cls-4" points="1657.81 1619.03 1652.67 1635.19 1662.6 1648.74 1646.19 1648.67 1636.84 1662.65 1631.83 1646.44 1616.13 1641.53 1629.44 1631.59 1629.09 1614.57 1642.32 1624.63 1657.81 1619.03"/><polygon class="cls-4" points="1599.33 1589.35 1592.98 1598.01 1596.26 1608.34 1586.36 1604.75 1577.9 1611.17 1578.13 1600.3 1569.63 1593.94 1579.67 1590.81 1582.87 1580.45 1588.85 1589.39 1599.33 1589.35"/><polygon class="cls-4" points="1646.99 1368.46 1634.37 1376.47 1633.57 1391.79 1622.33 1381.82 1608.04 1385.76 1613.71 1371.59 1605.68 1358.71 1620.42 1359.93 1629.75 1348.02 1633.19 1362.94 1646.99 1368.46"/><polygon class="cls-4" points="1641.57 1241.67 1632.62 1248.32 1632.82 1259.73 1623.96 1252.96 1613.56 1256.69 1617.04 1245.86 1610.4 1236.75 1621.41 1236.83 1627.71 1227.47 1631.04 1238.35 1641.57 1241.67"/><polygon class="cls-4" points="1523.97 1280.47 1523.78 1287.88 1529.55 1292.23 1522.7 1294.33 1520.49 1301.37 1516.45 1295.27 1509.31 1295.26 1513.66 1289.39 1511.46 1282.34 1518.19 1284.82 1523.97 1280.47"/></g><path class="cls-5" d="M1196.55,1470.85H761.05s-24.7,50.57,0,80.32h435.5s19.5,44.62,0,74.37H761.05s-18.2,38.67,0,68.42h435.5s16.9,44.62,0,62.47-435.5,0-435.5,0-14.3,56.52,0,68.41,254.8,0,254.8,0,14.3,17.85,0,50.58H883.25s-9.1,38.67,0,56.52h132.6s11.7,35.69,0,59.49h-61.1s-11.7,41.65,0,62.47"/></g></svg>