<svg xmlns="http://www.w3.org/2000/svg" xmlns:xlink="http://www.w3.org/1999/xlink" viewBox="0 0 2048 2048"><defs><style>.cls-1,.cls-4{fill:#001a21;}.cls-2{fill:#1a7287;}.cls-3{fill:#666c6e;}.cls-4{stroke:#00a6cc;}.cls-4,.cls-5,.cls-6,.cls-7,.cls-8,.cls-9{stroke-miterlimit:10;}.cls-4,.cls-5,.cls-7,.cls-8{stroke-width:6.5px;}.cls-5,.cls-6{fill:#00a6cc;}.cls-5,.cls-6,.cls-7,.cls-8,.cls-9{stroke:#001a21;}.cls-6{stroke-width:4.52px;}.cls-7{fill:red;}.cls-8,.cls-9{fill:#ff0;}.cls-9{stroke-width:1.3px;}</style></defs><title>Playing with the Stars</title><g id="Layer_3" data-name="Layer 3"><image width="450" height="450" transform="translate(308 369) scale(3.3)" xlink:href="../../3ds.jpeg"/><ellipse class="cls-1" cx="1702.4" cy="1608.1" rx="25.35" ry="22.1"/><ellipse class="cls-2" cx="1702.4" cy="1603.19" rx="22.46" ry="16.57"/><path class="cls-3" d="M336.75,250.9h1450.8s111.8,36.4,111.8,182v657.8h-158.6l2.6,26H355l-2.6-26h-156V380.9S225,250.9,336.75,250.9Z"/><path class="cls-3" d="M193.75,1241.74V1138s-1.3-16,36.4-20,122.2,0,122.2,0h1519.7s15.6-1.33,24.7,25.28,0,86.48,0,86.48l117,448.37s-22.1,149-117,150.34-1686.1,0-1686.1,0-117-12-127.4-123.73Z"/><rect class="cls-4" x="474.55" y="357.5" width="1146.6" height="689"/><circle cx="372.04" cy="562.87" r="20.8"/><circle cx="302.56" cy="639.99" r="18.59"/><circle cx="372.04" cy="722.84" r="20.8"/><circle cx="425.54" cy="639.99" r="18.59"/><circle cx="1739.64" cy="578.47" r="20.8"/><circle cx="1670.16" cy="655.59" r="18.59"/><circle cx="1739.64" cy="738.44" r="20.8"/><circle cx="1793.14" cy="655.59" r="18.59"/><polygon class="cls-1" points="569.45 1248.01 1526.25 1248.01 1573.05 1652.31 516.15 1652.31 569.45 1248.01"/><ellipse class="cls-1" cx="340" cy="1326" rx="79.95" ry="46.8"/><ellipse class="cls-2" cx="340" cy="1315.6" rx="70.85" ry="35.1"/><ellipse class="cls-1" cx="1665.35" cy="1372.8" rx="41.6" ry="28.6"/><ellipse class="cls-2" cx="1665.35" cy="1366.45" rx="36.87" ry="21.45"/><ellipse class="cls-1" cx="1755.05" cy="1326" rx="41.6" ry="28.6"/><ellipse class="cls-2" cx="1755.05" cy="1319.65" rx="36.87" ry="21.45"/><ellipse class="cls-1" cx="1852.55" cy="1372.8" rx="41.6" ry="28.6"/><ellipse class="cls-2" cx="1852.55" cy="1366.45" rx="36.87" ry="21.45"/><ellipse class="cls-1" cx="1769.35" cy="1430" rx="41.6" ry="28.6"/><ellipse class="cls-2" cx="1769.35" cy="1423.65" rx="36.87" ry="21.45"/><ellipse class="cls-1" cx="1688.1" cy="1541.8" rx="25.35" ry="22.1"/><ellipse class="cls-2" cx="1688.1" cy="1536.89" rx="22.46" ry="16.58"/><polygon class="cls-1" points="284.75 1458.61 284.75 1415.7 352.35 1415.7 352.35 1458.61 410.85 1458.61 410.85 1495.01 347.15 1495.01 343.25 1532.7 269.15 1532.7 274.35 1501.51 201.55 1505.4 210.65 1461.2 284.75 1458.61"/><polygon class="cls-2" points="284.75 1443.01 284.75 1400.11 352.35 1400.11 352.35 1443.01 410.85 1443.01 410.85 1479.4 347.15 1479.4 343.25 1517.11 269.15 1517.11 274.35 1485.9 201.55 1489.81 210.65 1445.61 284.75 1443.01"/><rect class="cls-5" x="614.3" y="902.85" width="93.6" height="131.3"/><polygon class="cls-5" points="770.3 831.36 770.3 1037.4 1062.15 1037.4 1061.5 805.36 770.3 805.36 770.3 831.36"/><rect class="cls-6" x="1184.96" y="484.25" width="17.63" height="549.9"/><polygon class="cls-7" points="1203.2 484.25 1203.2 583.05 1317.6 533.65 1203.2 484.25"/><polygon class="cls-8" points="887.95 707.21 803.07 697.11 746.63 761.32 730 677.47 651.5 643.63 726.1 601.9 734.02 516.79 796.76 574.85 880.16 556.08 844.33 633.69 887.95 707.21"/><path class="cls-1" d="M740.54,632.39c1.07-3.2,1.8-7.1,3.38-10.07,2.13-4,8-2.2,11.59-1.09,2.4.74,3.43-3,1-3.76-3.68-1.13-10.48-2.89-14-.34-1.7,1.24-2.18,3.46-2.81,5.34l-3,8.88c-.8,2.39,3,3.41,3.76,1Z"/><path class="cls-1" d="M798.42,606c1.22-2.36,2.32-4.83,3.69-7.1,1.58-2.61,5.51-1,8-.55s3.51-3.33,1-3.76c-3-.52-7.34-2.11-10.17-.24s-4.39,6.72-5.92,9.68c-1.15,2.22,2.21,4.2,3.37,2Z"/><path class="cls-1" d="M755.83,642.25a305.89,305.89,0,0,0,57.28-14.94c2.34-.86,1.33-4.63-1-3.77a305.55,305.55,0,0,1-57.28,15c-2.47.39-1.42,4.15,1,3.76Z"/><path class="cls-1" d="M754.07,641.74c7.23,7.42,21.48,11.1,31.42,7.79,5.49-1.83,10.55-5.94,15.1-9.4a46.85,46.85,0,0,0,12.23-13c1.3-2.16-2.07-4.12-3.36-2-5,8.25-14.12,15.33-22.71,19.62-8.88,4.45-23.13,1.2-29.93-5.77-1.75-1.8-4.51,1-2.75,2.76Z"/><polygon class="cls-9" points="710.28 715.44 704.13 711.42 697.32 714.21 699.25 707.11 694.49 701.5 701.83 701.14 705.7 694.88 708.31 701.75 715.46 703.49 709.73 708.11 710.28 715.44"/><polygon class="cls-9" points="660.02 721.5 660.53 709.22 650.7 701.83 662.54 698.52 666.53 686.89 673.34 697.13 685.64 697.33 678 706.97 681.61 718.73 670.08 714.44 660.02 721.5"/><polygon class="cls-9" points="687.75 743.17 680.35 742.81 675.86 748.7 673.92 741.55 666.93 739.1 673.13 735.05 673.3 727.64 679.07 732.28 686.16 730.16 683.54 737.08 687.75 743.17"/><polygon class="cls-9" points="1233.75 537.77 1228.28 537.42 1224.89 541.73 1223.54 536.42 1218.4 534.53 1223.03 531.6 1223.23 526.12 1227.45 529.62 1232.72 528.13 1230.7 533.22 1233.75 537.77"/><polygon class="cls-3" points="648.75 751.4 646.48 742.9 638.18 739.95 645.57 735.16 645.81 726.36 652.65 731.9 661.1 729.42 657.93 737.63 662.91 744.89 654.12 744.43 648.75 751.4"/><polygon class="cls-3" points="647.45 770.9 642.45 766.63 636.1 768.33 638.62 762.25 635.05 756.74 641.6 757.25 645.74 752.15 647.27 758.54 653.41 760.91 647.8 764.34 647.45 770.9"/><polygon class="cls-3" points="661.75 790.4 654.43 787.28 647.71 791.53 648.42 783.61 642.29 778.53 650.05 776.75 652.99 769.36 657.07 776.19 665.01 776.7 659.78 782.69 661.75 790.4"/></g></svg>