<svg id="Layer_1" data-name="Layer 1" xmlns="http://www.w3.org/2000/svg" xmlns:xlink="http://www.w3.org/1999/xlink" viewBox="0 0 2048 2048"><defs><style>.cls-1,.cls-19,.cls-2,.cls-5{fill:none;stroke:#003003;}.cls-1,.cls-10,.cls-12,.cls-13,.cls-15,.cls-17,.cls-19,.cls-2,.cls-20,.cls-22,.cls-24,.cls-26,.cls-28,.cls-3,.cls-5,.cls-6,.cls-8{stroke-miterlimit:10;}.cls-1{stroke-width:0.8px;}.cls-2{stroke-width:0.59px;}.cls-10,.cls-13,.cls-15,.cls-17,.cls-20,.cls-22,.cls-24,.cls-26,.cls-28,.cls-3,.cls-6,.cls-8{stroke:#fff;}.cls-10,.cls-13,.cls-15,.cls-20,.cls-22,.cls-24,.cls-26,.cls-28,.cls-3,.cls-6,.cls-8{stroke-width:2.57px;}.cls-3{fill:url(#linear-gradient);}.cls-4{clip-path:url(#clip-path);}.cls-5{stroke-width:2.24px;}.cls-6{fill:url(#linear-gradient-2);}.cls-7{clip-path:url(#clip-path-2);}.cls-8{fill:url(#linear-gradient-3);}.cls-9{clip-path:url(#clip-path-3);}.cls-10{fill:url(#linear-gradient-4);}.cls-11{clip-path:url(#clip-path-4);}.cls-12{fill:#ff0;stroke:#bbc400;stroke-width:7px;}.cls-13{fill:url(#linear-gradient-5);}.cls-14{clip-path:url(#clip-path-5);}.cls-15{fill:url(#linear-gradient-6);}.cls-16{clip-path:url(#clip-path-6);}.cls-17{stroke-width:1.9px;fill:url(#linear-gradient-7);}.cls-18{clip-path:url(#clip-path-7);}.cls-19{stroke-width:1.66px;}.cls-20{fill:url(#linear-gradient-8);}.cls-21{clip-path:url(#clip-path-8);}.cls-22{fill:url(#linear-gradient-9);}.cls-23{clip-path:url(#clip-path-9);}.cls-24{fill:url(#linear-gradient-10);}.cls-25{clip-path:url(#clip-path-10);}.cls-26{fill:url(#linear-gradient-11);}.cls-27{clip-path:url(#clip-path-11);}.cls-28{fill:url(#linear-gradient-12);}.cls-29{clip-path:url(#clip-path-12);}.cls-30{fill:url(#linear-gradient-13);}.cls-31{fill:#fff;}.cls-32{fill:url(#linear-gradient-14);}.cls-33{fill:url(#linear-gradient-15);}.cls-34{fill:url(#linear-gradient-16);}.cls-35{fill:url(#linear-gradient-17);}.cls-36{fill:url(#linear-gradient-18);}</style><linearGradient id="linear-gradient" x1="704.59" y1="1013.32" x2="832.59" y2="1013.32" gradientTransform="translate(144.6 866.68)" gradientUnits="userSpaceOnUse"><stop offset="0" stop-color="#006837"/><stop offset="1" stop-color="#009d45"/></linearGradient><clipPath id="clip-path"><circle id="OuterShell" class="cls-1" cx="913.25" cy="1880.06" r="52.63"/></clipPath><linearGradient id="linear-gradient-2" x1="1274.86" y1="651.37" x2="1402.86" y2="651.37" gradientTransform="translate(-326.36 1259.63)" xlink:href="#linear-gradient"/><clipPath id="clip-path-2"><circle id="OuterShell-2" data-name="OuterShell" class="cls-1" cx="1012.44" cy="1911.06" r="52.63"/></clipPath><linearGradient id="linear-gradient-3" x1="227.96" y1="1191.56" x2="355.96" y2="1191.56" gradientTransform="translate(530.54 597.44)" xlink:href="#linear-gradient"/><clipPath id="clip-path-3"><circle id="OuterShell-3" data-name="OuterShell" class="cls-1" cx="822.47" cy="1788.92" r="52.63"/></clipPath><linearGradient id="linear-gradient-4" x1="1102.91" y1="503.1" x2="1230.91" y2="503.1" gradientTransform="translate(72.59 1402.9)" xlink:href="#linear-gradient"/><clipPath id="clip-path-4"><circle id="OuterShell-4" data-name="OuterShell" class="cls-1" cx="1239.44" cy="1906.06" r="52.63"/></clipPath><linearGradient id="linear-gradient-5" x1="916.36" y1="767.73" x2="1044.36" y2="767.73" gradientTransform="translate(301.14 1044.27)" xlink:href="#linear-gradient"/><clipPath id="clip-path-5"><circle id="OuterShell-5" data-name="OuterShell" class="cls-1" cx="1281.46" cy="1812.07" r="52.63"/></clipPath><linearGradient id="linear-gradient-6" x1="930.56" y1="984.13" x2="1058.56" y2="984.13" gradientTransform="translate(76.94 934.87)" xlink:href="#linear-gradient"/><clipPath id="clip-path-6"><circle id="OuterShell-6" data-name="OuterShell" class="cls-1" cx="1071.53" cy="1919.08" r="52.63"/></clipPath><linearGradient id="linear-gradient-7" x1="982.52" y1="857.88" x2="1080.44" y2="857.88" gradientTransform="translate(1940.5 835.81) rotate(86.43)" xlink:href="#linear-gradient"/><clipPath id="clip-path-7"><ellipse id="OuterShell-7" data-name="OuterShell" class="cls-2" cx="1148.48" cy="1918.73" rx="39.55" ry="38.18" transform="translate(-1021.36 2459.43) rotate(-73.09)"/></clipPath><linearGradient id="linear-gradient-8" x1="1007.92" y1="678.67" x2="1135.92" y2="678.67" gradientTransform="translate(120.58 1033.33)" xlink:href="#linear-gradient"/><clipPath id="clip-path-8"><circle id="OuterShell-8" data-name="OuterShell" class="cls-1" cx="1192.44" cy="1712.06" r="52.63"/></clipPath><linearGradient id="linear-gradient-9" x1="1088.14" y1="677.46" x2="1216.14" y2="677.46" gradientTransform="translate(-18.64 1071.54)" xlink:href="#linear-gradient"/><clipPath id="clip-path-9"><circle id="OuterShell-9" data-name="OuterShell" class="cls-1" cx="1133.42" cy="1749.04" r="52.63"/></clipPath><linearGradient id="linear-gradient-10" x1="1176.1" y1="680.82" x2="1304.1" y2="680.82" gradientTransform="translate(-155.6 1078.18)" xlink:href="#linear-gradient"/><clipPath id="clip-path-10"><circle id="OuterShell-10" data-name="OuterShell" class="cls-1" cx="1084.42" cy="1759" r="52.63"/></clipPath><linearGradient id="linear-gradient-11" x1="1202.18" y1="571.21" x2="1330.18" y2="571.21" gradientTransform="translate(-250.68 1179.38)" xlink:href="#linear-gradient"/><clipPath id="clip-path-11"><circle id="OuterShell-11" data-name="OuterShell" class="cls-1" cx="1015.42" cy="1750.56" r="52.63"/></clipPath><linearGradient id="linear-gradient-12" x1="1256.87" y1="513.13" x2="1384.87" y2="513.13" gradientTransform="translate(-377.37 1218.87)" xlink:href="#linear-gradient"/><clipPath id="clip-path-12"><circle id="OuterShell-12" data-name="OuterShell" class="cls-1" cx="943.43" cy="1731.95" r="52.63"/></clipPath><linearGradient id="linear-gradient-13" x1="518.84" y1="1187.52" x2="971.4" y2="1252.17" gradientUnits="userSpaceOnUse"><stop offset="0" stop-color="#1134a5"/><stop offset="0.49" stop-color="#081959"/><stop offset="0.74" stop-color="#040e38"/></linearGradient><linearGradient id="linear-gradient-14" x1="1213.65" y1="1216.76" x2="1529.49" y2="1216.76" xlink:href="#linear-gradient-13"/><linearGradient id="linear-gradient-15" x1="638.13" y1="1143.19" x2="1706.18" y2="816.15" gradientUnits="userSpaceOnUse"><stop offset="0.14" stop-color="#fff"/><stop offset="0.17" stop-color="#f8f8f8"/><stop offset="0.22" stop-color="#e4e4e4"/><stop offset="0.28" stop-color="#c4c4c4"/><stop offset="0.34" stop-color="#999"/><stop offset="0.44" stop-color="#919191"/><stop offset="0.58" stop-color="#7c7c7c"/><stop offset="0.75" stop-color="#5a5a5a"/><stop offset="0.94" stop-color="#2b2b2b"/><stop offset="1" stop-color="#1a1a1a"/></linearGradient><linearGradient id="linear-gradient-16" x1="1310.61" y1="185.25" x2="850.84" y2="196.1" gradientUnits="userSpaceOnUse"><stop offset="0.09" stop-color="#a2000d"/><stop offset="0.24" stop-color="#a90513"/><stop offset="0.46" stop-color="#bd1324"/><stop offset="0.72" stop-color="#dc2940"/><stop offset="0.96" stop-color="#ff425e"/></linearGradient><linearGradient id="linear-gradient-17" x1="966.29" y1="1246.96" x2="1149.1" y2="1263.89" xlink:href="#linear-gradient-13"/><linearGradient id="linear-gradient-18" x1="865.18" y1="430.93" x2="1366.82" y2="277.32" gradientUnits="userSpaceOnUse"><stop offset="0" stop-color="#fff"/><stop offset="0.09" stop-color="#f8f8f8"/><stop offset="0.22" stop-color="#e4e4e4"/><stop offset="0.37" stop-color="#c4c4c4"/><stop offset="0.54" stop-color="#989898"/><stop offset="0.73" stop-color="#5e5e5e"/><stop offset="0.93" stop-color="#1a1a1a"/><stop offset="1"/></linearGradient></defs><title>Rocketing Finances</title><rect class="cls-3" x="849.19" y="1756" width="128" height="248" transform="translate(1595.96 -95.38) rotate(44.97)"/><g id="Astronaut"><g class="cls-4"><g id="AstronautProfile"><g id="Body"><path id="Neck" class="cls-1" d="M901,1886.34a3.33,3.33,0,0,0,2.75,2.74c2.53.55,21.91-21.93,21.91-21.93s-.68-3.1-2.75-2.74Z"/><path id="LaptopBase" class="cls-1" d="M957,1912.06l-34.39,33.61a1.62,1.62,0,0,1-2.28-.08l-21-21.36a5.1,5.1,0,0,1-.08-7.23l29.49-28.84a5.11,5.11,0,0,1,7.23.24l20.94,21.35A1.64,1.64,0,0,1,957,1912.06Z"/><path id="Arm" class="cls-1" d="M943.49,1863.31c-9.12-1-14.91,8.51-10.92,18,0,.08.06.16.09.22a8,8,0,0,0,6,4.88l14.88,2.23a3.15,3.15,0,0,1,2.44,3.76,52.74,52.74,0,0,0-1.63,14.38l2.85,2.91a1.62,1.62,0,0,1,.05,2.31l-1.79,1.75.3.93c0,.13.08.24.13.38a52.05,52.05,0,0,0,8.76-46.47C958.15,1865.49,950,1864,943.49,1863.31Z"/><path id="SuitBox" class="cls-1" d="M930,1887.13l-2.81-2.81a6.06,6.06,0,0,0-8.55,0l-9.49,9.49a6.07,6.07,0,0,0,0,8.55l2.38,2.38,17-16.61A4.88,4.88,0,0,1,930,1887.13Z"/><path id="Shoulders" class="cls-1" d="M937.74,1862.45c-4.08.76-12.62,5.76-12.62,5.76l-20.2,21.28a29.11,29.11,0,0,0,.24,16.55,20.48,20.48,0,0,0,1.58,3.49l21.92-21.42a5.09,5.09,0,0,1,7.22.24l21,21.34a1.64,1.64,0,0,1,0,2.31l-27.7,27.07.28.32s1.75,6.63,25.37-8.83,14.79-49.42,14.79-49.42l-5.16-12.61S945,1861.07,937.74,1862.45Z"/></g><g id="Head"><path id="FaceReflect" class="cls-1" d="M882.33,1860.19c-.23.42-.45.84-.65,1.26a12.3,12.3,0,0,0-.51,1.26,8.19,8.19,0,0,0-.57,2.54,8,8,0,0,0,0,1.29c0,.21,0,.44,0,.67s0,.21,0,.34l.05.33a18.13,18.13,0,0,0,.73,2.7l-.09.05c-.12-.19-.24-.4-.35-.61l-.16-.32a1.26,1.26,0,0,1-.16-.33l-.28-.66c0-.11-.1-.23-.13-.32l-.1-.36a7.94,7.94,0,0,1-.29-1.42,8.64,8.64,0,0,1,0-1.44,7.56,7.56,0,0,1,.8-2.73,7.9,7.9,0,0,1,1.66-2.32Z"/><path id="Head-2" data-name="Head" class="cls-1" d="M912.88,1841c-10.47-7.11-23-3.87-32,7.44-8.27,10.43-8.12,20.82,4.48,31.61,6.38,5.47,10.73,5.71,15.58,5.26,7.39-7,14.41-14.27,21.59-21.45A23.6,23.6,0,0,0,912.88,1841Z"/><g id="Buttons"><g id="Bottom"><ellipse id="Base1" class="cls-1" cx="910.44" cy="1849.98" rx="3.84" ry="4.32" transform="translate(-1041.76 1186.48) rotate(-45.03)"/><ellipse id="Base2" class="cls-1" cx="917.05" cy="1856.78" rx="2.88" ry="2.93" transform="translate(-1044.64 1193.16) rotate(-45.03)"/></g><g id="ButtonShades"><path id="_1.1" data-name="1.1" class="cls-1" d="M907.46,1847.65a6.76,6.76,0,0,0-.09,1.55,3.9,3.9,0,0,0,.3,1.44,3.46,3.46,0,0,0,.81,1.23,10.09,10.09,0,0,0,1.2,1,4,4,0,0,1-1.46-.68,3.16,3.16,0,0,1-1-1.32,3.72,3.72,0,0,1-.23-1.65A2.9,2.9,0,0,1,907.46,1847.65Z"/><path id="_1.2" data-name="1.2" class="cls-1" d="M911.42,1847.7a1.37,1.37,0,0,1,.67,0,1.2,1.2,0,0,1,.95.95.18.18,0,0,1,0,.16v.16a1.3,1.3,0,0,1-.08.34c-.05-.08-.08-.21-.13-.29s-.07-.19-.11-.27a1.4,1.4,0,0,0-.31-.44,1.17,1.17,0,0,0-.45-.29A1.52,1.52,0,0,0,911.42,1847.7Z"/><path id="_2.2" data-name="2.2" class="cls-1" d="M917.37,1854.81a1.37,1.37,0,0,1,.67,0,1.2,1.2,0,0,1,1,1,.18.18,0,0,1,0,.16v.16a1,1,0,0,1-.08.34c0-.08-.08-.21-.13-.29s-.06-.19-.11-.27a1.4,1.4,0,0,0-.31-.44,1.17,1.17,0,0,0-.45-.29A1.82,1.82,0,0,0,917.37,1854.81Z"/><path id="_2.1" data-name="2.1" class="cls-1" d="M915,1855.83a4,4,0,0,0,.13,1,2.41,2.41,0,0,0,.4.89.74.74,0,0,0,.15.18l.08.08.09.1.17.16.17.17a1.12,1.12,0,0,0,.2.17l.19.16a4.84,4.84,0,0,1,.44.3,2.84,2.84,0,0,1-.54-.14l-.25-.1-.26-.13a1.88,1.88,0,0,0-.23-.16l-.21-.21-.1-.1-.09-.09a1.43,1.43,0,0,1-.2-.23,2.4,2.4,0,0,1-.37-1.05A3.31,3.31,0,0,1,915,1855.83Z"/></g></g><path id="Face" class="cls-1" d="M912.22,1868.69,900,1880.88a7.16,7.16,0,0,1-10.09-.12l-9.58-9.57a7.5,7.5,0,0,1-.14-10.58l12.07-12.08a5.21,5.21,0,0,1,7.36.1l12.46,12.44A5.38,5.38,0,0,1,912.22,1868.69Z"/></g></g></g><circle id="OuterShell-13" data-name="OuterShell" class="cls-1" cx="913.25" cy="1880.06" r="52.63"/></g><line class="cls-1" x1="788.53" y1="1924.17" x2="955.07" y2="1755.45"/><line class="cls-1" x1="869.05" y1="2004.45" x2="1035.58" y2="1835.73"/><line class="cls-5" x1="794.6" y1="1925.16" x2="868.86" y2="1998.05"/><line class="cls-5" x1="798.13" y1="1921.91" x2="872.39" y2="1994.79"/><line class="cls-5" x1="801.66" y1="1918.65" x2="875.92" y2="1991.54"/><line class="cls-5" x1="949.28" y1="1769.54" x2="1023.53" y2="1842.43"/><line class="cls-5" x1="952.81" y1="1766.29" x2="1027.06" y2="1839.18"/><line class="cls-5" x1="956.34" y1="1763.04" x2="1030.59" y2="1835.93"/><rect class="cls-6" x="948.5" y="1787" width="128" height="248" transform="translate(3044.06 2652.52) rotate(137.97)"/><g id="Astronaut-2" data-name="Astronaut"><g class="cls-7"><g id="AstronautProfile-2" data-name="AstronautProfile"><g id="Body-2" data-name="Body"><path id="Neck-2" data-name="Neck" class="cls-1" d="M1006.81,1898.46a3.34,3.34,0,0,0-2.89,2.6c-.68,2.49,20.76,23,20.76,23s3.13-.52,2.89-2.6Z"/><path id="LaptopBase-2" data-name="LaptopBase" class="cls-1" d="M978.2,1953l-31.77-36.1a1.61,1.61,0,0,1,.2-2.27l22.43-19.81a5.09,5.09,0,0,1,7.22.29l27.25,30.95a5.1,5.1,0,0,1-.61,7.21l-22.41,19.8A1.64,1.64,0,0,1,978.2,1953Z"/><path id="Arm-2" data-name="Arm" class="cls-1" d="M1027.58,1942.13c1.47-9.06-7.72-15.33-17.39-11.85a1.36,1.36,0,0,1-.23.09,8,8,0,0,0-5.18,5.69l-3,14.73a3.16,3.16,0,0,1-3.89,2.25,52.8,52.8,0,0,0-14.27-2.38l-3.06,2.7a1.65,1.65,0,0,1-2.31-.07l-1.65-1.88c-.32.07-.63.16-.94.25a3.31,3.31,0,0,0-.39.11,52.07,52.07,0,0,0,46,11.17C1024.64,1956.66,1026.57,1948.55,1027.58,1942.13Z"/><path id="SuitBox-2" data-name="SuitBox" class="cls-1" d="M1004.5,1927.38l3-2.66a6.06,6.06,0,0,0,.45-8.54l-9-10a6.06,6.06,0,0,0-8.54-.42l-2.5,2.24,15.7,17.83A4.77,4.77,0,0,1,1004.5,1927.38Z"/><path id="Shoulders-2" data-name="Shoulders" class="cls-1" d="M1028.75,1936.44c-.56-4.12-5.1-12.91-5.1-12.91l-20.2-21.28a29.11,29.11,0,0,0-16.54-.63,21.9,21.9,0,0,0-3.57,1.4l20.25,23a5.1,5.1,0,0,1-.61,7.21L980.57,1953a1.64,1.64,0,0,1-2.31-.07l-25.59-29.07-.33.26s-6.71,1.4,7.5,25.79,48.57,17.36,48.57,17.36l12.86-4.5S1029.74,1943.72,1028.75,1936.44Z"/></g><g id="Head-3" data-name="Head"><path id="FaceReflect-2" data-name="FaceReflect" class="cls-1" d="M1033.89,1881.22c-.4-.25-.81-.5-1.22-.71a9.83,9.83,0,0,0-1.23-.58,8.28,8.28,0,0,0-2.51-.7,9.22,9.22,0,0,0-1.29-.1c-.21,0-.44,0-.66,0s-.22,0-.34,0l-.35,0a20.87,20.87,0,0,0-2.73.58l0-.08a6.19,6.19,0,0,1,.63-.32l.33-.15a1.92,1.92,0,0,1,.33-.14l.68-.24.33-.12.36-.07a7.36,7.36,0,0,1,1.43-.22,7.75,7.75,0,0,1,1.44.06,7.49,7.49,0,0,1,2.69.93,7.92,7.92,0,0,1,2.22,1.78Z"/><path id="Head-4" data-name="Head" class="cls-1" d="M1051.45,1912.73c7.64-10.09,5.06-22.75-5.77-32.32-10-8.8-20.37-9.2-31.8,2.82-5.79,6.1-6.26,10.43-6.06,15.29,6.57,7.74,13.49,15.14,20.29,22.68A23.62,23.62,0,0,0,1051.45,1912.73Z"/><g id="Buttons-2" data-name="Buttons"><g id="Bottom-2" data-name="Bottom"><ellipse id="Base1-2" data-name="Base1" class="cls-1" cx="1042.63" cy="1909.82" rx="4.32" ry="3.84" transform="translate(-1010.52 1189.35) rotate(-42.03)"/><ellipse id="Base2-2" data-name="Base2" class="cls-1" cx="1035.49" cy="1916.07" rx="2.93" ry="2.88" transform="translate(-1016.54 1186.17) rotate(-42.03)"/></g><g id="ButtonShades-2" data-name="ButtonShades"><path id="_1.1-2" data-name="1.1" class="cls-1" d="M1045.1,1907a7.35,7.35,0,0,0-1.54-.18,4,4,0,0,0-1.45.24,3.24,3.24,0,0,0-1.27.74,8.93,8.93,0,0,0-1.06,1.14,4,4,0,0,1,.75-1.42,3.22,3.22,0,0,1,1.37-.93,3.75,3.75,0,0,1,1.66-.14A2.9,2.9,0,0,1,1045.1,1907Z"/><path id="_1.2-2" data-name="1.2" class="cls-1" d="M1044.85,1910.92a1.38,1.38,0,0,1,0,.67,1.3,1.3,0,0,1-.36.59,1.17,1.17,0,0,1-.65.31.18.18,0,0,1-.16,0h-.16a1.35,1.35,0,0,1-.33-.09c.08-.05.21-.07.29-.12a2.31,2.31,0,0,0,.28-.1,1.42,1.42,0,0,0,.46-.28,1.2,1.2,0,0,0,.31-.44A1.37,1.37,0,0,0,1044.85,1910.92Z"/><path id="_2.2-2" data-name="2.2" class="cls-1" d="M1037.44,1916.5a1.23,1.23,0,0,1,0,.66,1.27,1.27,0,0,1-.35.6,1.23,1.23,0,0,1-.65.3.22.22,0,0,1-.16,0h-.16a1.62,1.62,0,0,1-.34-.1c.09,0,.22-.07.3-.12s.2,0,.28-.09a1.58,1.58,0,0,0,.45-.29,1,1,0,0,0,.32-.44A1.6,1.6,0,0,0,1037.44,1916.5Z"/><path id="_2.1-2" data-name="2.1" class="cls-1" d="M1036.55,1914a4.48,4.48,0,0,0-1,.07,2.45,2.45,0,0,0-.91.36l-.19.14-.08.07-.1.1-.17.15-.19.17a.73.73,0,0,0-.17.18l-.17.19a4.71,4.71,0,0,1-.33.42,2.74,2.74,0,0,1,.17-.53l.11-.25.14-.25a1.32,1.32,0,0,0,.18-.22l.22-.2.1-.09.1-.09a1.08,1.08,0,0,1,.24-.18,2.34,2.34,0,0,1,1.07-.32A3.62,3.62,0,0,1,1036.55,1914Z"/></g></g><path id="Face-2" data-name="Face" class="cls-1" d="M1023.85,1910.63l-11.54-12.81a7.15,7.15,0,0,1,.64-10.07l10.07-9.07a7.5,7.5,0,0,1,10.57.42l11.42,12.68a5.2,5.2,0,0,1-.48,7.35l-13.07,11.79A5.37,5.37,0,0,1,1023.85,1910.63Z"/></g></g></g><circle id="OuterShell-14" data-name="OuterShell" class="cls-1" cx="1012.44" cy="1911.06" r="52.63"/></g><line class="cls-1" x1="974.9" y1="1784.21" x2="1134.69" y2="1959.32"/><line class="cls-1" x1="890.52" y1="1860.42" x2="1050.31" y2="2035.54"/><line class="cls-5" x1="973.6" y1="1790.22" x2="896.93" y2="1860.57"/><line class="cls-5" x1="976.66" y1="1793.92" x2="899.99" y2="1864.26"/><line class="cls-5" x1="979.72" y1="1797.61" x2="903.06" y2="1867.96"/><line class="cls-5" x1="1120.92" y1="1952.81" x2="1044.25" y2="2023.16"/><line class="cls-5" x1="1123.98" y1="1956.51" x2="1047.32" y2="2026.85"/><line class="cls-5" x1="1127.05" y1="1960.2" x2="1050.38" y2="2030.55"/><rect class="cls-8" x="758.5" y="1665" width="128" height="248" transform="translate(-476.07 3269.11) rotate(-114.05)"/><g id="Astronaut-3" data-name="Astronaut"><g class="cls-9"><g id="AstronautProfile-3" data-name="AstronautProfile"><g id="Body-3" data-name="Body"><path id="Neck-3" data-name="Neck" class="cls-1" d="M836.18,1787.46a3.33,3.33,0,0,0-1.58-3.55c-2.16-1.41-28.31,12.63-28.31,12.63s-.48,3.14,1.58,3.55Z"/><path id="LaptopBase-3" data-name="LaptopBase" class="cls-1" d="M793.11,1743.39l44.14-19.07a1.62,1.62,0,0,1,2.1.89l11.92,27.45a5.1,5.1,0,0,1-2.51,6.78l-37.86,16.37a5.1,5.1,0,0,1-6.66-2.81l-11.91-27.43A1.63,1.63,0,0,1,793.11,1743.39Z"/><path id="Arm-3" data-name="Arm" class="cls-1" d="M788.24,1793.73c8.15,4.2,17-2.61,16.63-12.88a2.09,2.09,0,0,1,0-.24,8,8,0,0,0-3.81-6.69l-13.09-7.4a3.16,3.16,0,0,1-.93-4.39,53.19,53.19,0,0,0,6.67-12.84l-1.63-3.75a1.63,1.63,0,0,1,.79-2.17l2.29-1c0-.33.05-.65.05-1a2.75,2.75,0,0,0,0-.41,52,52,0,0,0-24.81,40.26C775.32,1786.45,782.44,1790.79,788.24,1793.73Z"/><path id="SuitBox-3" data-name="SuitBox" class="cls-1" d="M809.39,1776.33,811,1780a6.07,6.07,0,0,0,8,3.07l12.25-5.47a6.06,6.06,0,0,0,3-8l-1.37-3.07-21.81,9.43A4.78,4.78,0,0,1,809.39,1776.33Z"/><path id="Shoulders-3" data-name="Shoulders" class="cls-1" d="M793.29,1796.6c4.08.74,13.85-.86,13.85-.86l26.48-12.64a29.09,29.09,0,0,0,5.7-15.54,21,21,0,0,0-.23-3.83L811,1775.89a5.09,5.09,0,0,1-6.66-2.81l-11.92-27.43a1.63,1.63,0,0,1,.79-2.17l35.54-15.36-.14-.4s.74-6.81-26.85-.83-31.5,40.84-31.5,40.84l.3,13.62S786.06,1795.3,793.29,1796.6Z"/></g><g id="Head-5" data-name="Head"><path id="FaceReflect-3" data-name="FaceReflect" class="cls-1" d="M844.22,1818.54c.36-.31.72-.62,1-.94a10.93,10.93,0,0,0,.94-1,8.41,8.41,0,0,0,1.43-2.17,7.41,7.41,0,0,0,.5-1.2c.06-.2.14-.41.19-.63s0-.22.08-.34l.07-.33a21.94,21.94,0,0,0,.29-2.78l.09,0c0,.23.08.46.11.7l0,.36a2.1,2.1,0,0,1,0,.36c0,.22,0,.47,0,.72s0,.24,0,.35l0,.36a7.24,7.24,0,0,1-.24,1.43,8.4,8.4,0,0,1-.49,1.35,7.7,7.7,0,0,1-1.72,2.27,8.07,8.07,0,0,1-2.38,1.57Z"/><path id="Head-6" data-name="Head" class="cls-1" d="M808.83,1825.51c7.23,10.38,20.08,11.84,32.52,4.49,11.45-6.77,15-16.53,7.13-31.11-4-7.39-8-9.18-12.66-10.49-9.4,3.86-18.57,8.16-27.84,12.3A23.6,23.6,0,0,0,808.83,1825.51Z"/><g id="Buttons-3" data-name="Buttons"><g id="Bottom-3" data-name="Bottom"><ellipse id="Base1-3" data-name="Base1" class="cls-1" cx="814.32" cy="1818.02" rx="3.84" ry="4.32" transform="translate(-670.15 489.61) rotate(-24.05)"/><ellipse id="Base2-3" data-name="Base2" class="cls-1" cx="810.58" cy="1809.3" rx="2.88" ry="2.93" transform="translate(-666.92 487.33) rotate(-24.05)"/></g><g id="ButtonShades-3" data-name="ButtonShades"><path id="_1.1-3" data-name="1.1" class="cls-1" d="M816.26,1821.26a6.71,6.71,0,0,0,.65-1.42,4,4,0,0,0,.23-1.45,3.27,3.27,0,0,0-.32-1.44,8.44,8.44,0,0,0-.76-1.36,4,4,0,0,1,1.12,1.15,3,3,0,0,1,.46,1.6,3.51,3.51,0,0,1-.38,1.62A2.89,2.89,0,0,1,816.26,1821.26Z"/><path id="_1.2-3" data-name="1.2" class="cls-1" d="M812.58,1819.79a1.32,1.32,0,0,1-.63-.19,1.29,1.29,0,0,1-.46-.52,1.31,1.31,0,0,1-.09-.71.16.16,0,0,1,.06-.15l0-.15a1.37,1.37,0,0,1,.2-.29c0,.09,0,.23,0,.32s0,.2,0,.3a1.66,1.66,0,0,0,.13.51,1.25,1.25,0,0,0,.32.44A1.79,1.79,0,0,0,812.58,1819.79Z"/><path id="_2.2-3" data-name="2.2" class="cls-1" d="M809.57,1811a1.32,1.32,0,0,1-.63-.19,1.29,1.29,0,0,1-.46-.52,1.15,1.15,0,0,1-.09-.71.18.18,0,0,1,.05-.15l.06-.15a1.37,1.37,0,0,1,.2-.29c0,.09,0,.23,0,.32a2.91,2.91,0,0,1,0,.3,1.42,1.42,0,0,0,.13.51,1.13,1.13,0,0,0,.32.44A2,2,0,0,0,809.57,1811Z"/><path id="_2.1-3" data-name="2.1" class="cls-1" d="M812.19,1810.93a4.37,4.37,0,0,0,.24-1,2.25,2.25,0,0,0-.06-1,.63.63,0,0,0-.07-.22l0-.11-.06-.12-.09-.21-.11-.23a.68.68,0,0,0-.12-.22l-.12-.22a3.82,3.82,0,0,1-.3-.44,3.25,3.25,0,0,1,.45.32l.2.19.2.21a1.14,1.14,0,0,0,.15.23l.12.27.06.13.05.12a1,1,0,0,1,.1.29,2.45,2.45,0,0,1,0,1.11A3.72,3.72,0,0,1,812.19,1810.93Z"/></g></g><path id="Face-3" data-name="Face" class="cls-1" d="M819.35,1799.91l15.74-7a7.16,7.16,0,0,1,9.38,3.73L850,1809a7.51,7.51,0,0,1-3.66,9.93l-15.59,6.95a5.21,5.21,0,0,1-6.84-2.73l-7.18-16.08A5.37,5.37,0,0,1,819.35,1799.91Z"/></g></g></g><circle id="OuterShell-15" data-name="OuterShell" class="cls-1" cx="822.47" cy="1788.92" r="52.63"/></g><line class="cls-1" x1="954.71" y1="1792.38" x2="738.81" y2="1890.3"/><line class="cls-1" x1="908.27" y1="1688.6" x2="692.37" y2="1786.51"/><line class="cls-5" x1="949.39" y1="1789.29" x2="906.15" y2="1694.65"/><line class="cls-5" x1="944.93" y1="1791.06" x2="901.69" y2="1696.42"/><line class="cls-5" x1="940.47" y1="1792.84" x2="897.23" y2="1698.2"/><line class="cls-5" x1="749.25" y1="1879.21" x2="706.02" y2="1784.57"/><line class="cls-5" x1="744.79" y1="1880.99" x2="701.56" y2="1786.35"/><line class="cls-5" x1="740.33" y1="1882.76" x2="697.1" y2="1788.12"/><rect class="cls-10" x="1175.5" y="1782" width="128" height="248" transform="translate(3436.32 2491.82) rotate(137.97)"/><g id="Astronaut-4" data-name="Astronaut"><g class="cls-11"><g id="AstronautProfile-4" data-name="AstronautProfile"><g id="Body-4" data-name="Body"><path id="Neck-4" data-name="Neck" class="cls-1" d="M1233.81,1893.46a3.34,3.34,0,0,0-2.89,2.6c-.68,2.49,20.76,23,20.76,23s3.13-.52,2.89-2.6Z"/><path id="LaptopBase-4" data-name="LaptopBase" class="cls-1" d="M1205.2,1948l-31.77-36.1a1.61,1.61,0,0,1,.2-2.27l22.43-19.81a5.09,5.09,0,0,1,7.22.29l27.25,30.95a5.1,5.1,0,0,1-.61,7.21l-22.41,19.8A1.64,1.64,0,0,1,1205.2,1948Z"/><path id="Arm-4" data-name="Arm" class="cls-1" d="M1254.58,1937.13c1.47-9.06-7.72-15.33-17.39-11.85a1.36,1.36,0,0,1-.23.09,8,8,0,0,0-5.18,5.69l-3,14.73a3.16,3.16,0,0,1-3.89,2.25,52.8,52.8,0,0,0-14.27-2.38l-3.06,2.7a1.65,1.65,0,0,1-2.31-.07l-1.65-1.88c-.32.07-.63.16-.94.25a3.31,3.31,0,0,0-.39.11,52.07,52.07,0,0,0,46,11.17C1251.64,1951.66,1253.57,1943.55,1254.58,1937.13Z"/><path id="SuitBox-4" data-name="SuitBox" class="cls-1" d="M1231.5,1922.38l3-2.66a6.06,6.06,0,0,0,.45-8.54l-9-10a6.06,6.06,0,0,0-8.54-.42l-2.5,2.24,15.7,17.83A4.77,4.77,0,0,1,1231.5,1922.38Z"/><path id="Shoulders-4" data-name="Shoulders" class="cls-1" d="M1255.75,1931.44c-.56-4.12-5.1-12.91-5.1-12.91l-20.2-21.28a29.11,29.11,0,0,0-16.54-.63,21.9,21.9,0,0,0-3.57,1.4l20.25,23a5.1,5.1,0,0,1-.61,7.21l-22.41,19.8a1.64,1.64,0,0,1-2.31-.07l-25.59-29.07-.33.26s-6.71,1.4,7.5,25.79,48.57,17.36,48.57,17.36l12.86-4.5S1256.74,1938.72,1255.75,1931.44Z"/></g><g id="Head-7" data-name="Head"><path id="FaceReflect-4" data-name="FaceReflect" class="cls-1" d="M1260.89,1876.22c-.4-.25-.81-.5-1.22-.71a9.83,9.83,0,0,0-1.23-.58,8.28,8.28,0,0,0-2.51-.7,9.22,9.22,0,0,0-1.29-.1c-.21,0-.44,0-.66,0s-.22,0-.34,0l-.35,0a20.87,20.87,0,0,0-2.73.58l0-.08a6.19,6.19,0,0,1,.63-.32l.33-.15a1.92,1.92,0,0,1,.33-.14l.68-.24.33-.12.36-.07a7.36,7.36,0,0,1,1.43-.22,7.75,7.75,0,0,1,1.44.06,7.49,7.49,0,0,1,2.69.93,7.92,7.92,0,0,1,2.22,1.78Z"/><path id="Head-8" data-name="Head" class="cls-1" d="M1278.45,1907.73c7.64-10.09,5.06-22.75-5.77-32.32-10-8.8-20.37-9.2-31.8,2.82-5.79,6.1-6.26,10.43-6.06,15.29,6.57,7.74,13.49,15.14,20.29,22.68A23.62,23.62,0,0,0,1278.45,1907.73Z"/><g id="Buttons-4" data-name="Buttons"><g id="Bottom-4" data-name="Bottom"><ellipse id="Base1-4" data-name="Base1" class="cls-1" cx="1269.63" cy="1904.82" rx="4.32" ry="3.84" transform="translate(-948.78 1340.05) rotate(-42.03)"/><ellipse id="Base2-4" data-name="Base2" class="cls-1" cx="1262.49" cy="1911.07" rx="2.93" ry="2.88" transform="translate(-954.8 1336.87) rotate(-42.03)"/></g><g id="ButtonShades-4" data-name="ButtonShades"><path id="_1.1-4" data-name="1.1" class="cls-1" d="M1272.1,1902a7.35,7.35,0,0,0-1.54-.18,4,4,0,0,0-1.45.24,3.24,3.24,0,0,0-1.27.74,8.93,8.93,0,0,0-1.06,1.14,4,4,0,0,1,.75-1.42,3.22,3.22,0,0,1,1.37-.93,3.75,3.75,0,0,1,1.66-.14A2.9,2.9,0,0,1,1272.1,1902Z"/><path id="_1.2-4" data-name="1.2" class="cls-1" d="M1271.85,1905.92a1.38,1.38,0,0,1,0,.67,1.3,1.3,0,0,1-.36.59,1.17,1.17,0,0,1-.65.31.18.18,0,0,1-.16,0h-.16a1.35,1.35,0,0,1-.33-.09c.08-.05.21-.07.29-.12a2.31,2.31,0,0,0,.28-.1,1.42,1.42,0,0,0,.46-.28,1.2,1.2,0,0,0,.31-.44A1.37,1.37,0,0,0,1271.85,1905.92Z"/><path id="_2.2-4" data-name="2.2" class="cls-1" d="M1264.44,1911.5a1.23,1.23,0,0,1,0,.66,1.27,1.27,0,0,1-.35.6,1.23,1.23,0,0,1-.65.3.22.22,0,0,1-.16,0h-.16a1.62,1.62,0,0,1-.34-.1c.09,0,.22-.07.3-.12s.2,0,.28-.09a1.58,1.58,0,0,0,.45-.29,1,1,0,0,0,.32-.44A1.6,1.6,0,0,0,1264.44,1911.5Z"/><path id="_2.1-4" data-name="2.1" class="cls-1" d="M1263.55,1909a4.48,4.48,0,0,0-1,.07,2.45,2.45,0,0,0-.91.36l-.19.14-.08.07-.1.1-.17.15-.19.17a.73.73,0,0,0-.17.18l-.17.19a4.71,4.71,0,0,1-.33.42,2.74,2.74,0,0,1,.17-.53l.11-.25.14-.25a1.32,1.32,0,0,0,.18-.22l.22-.2.1-.09.1-.09a1.08,1.08,0,0,1,.24-.18,2.34,2.34,0,0,1,1.07-.32A3.62,3.62,0,0,1,1263.55,1909Z"/></g></g><path id="Face-4" data-name="Face" class="cls-1" d="M1250.85,1905.63l-11.54-12.81a7.15,7.15,0,0,1,.64-10.07l10.07-9.07a7.5,7.5,0,0,1,10.57.42l11.42,12.68a5.2,5.2,0,0,1-.48,7.35l-13.07,11.79A5.37,5.37,0,0,1,1250.85,1905.63Z"/></g></g></g><circle id="OuterShell-16" data-name="OuterShell" class="cls-1" cx="1239.44" cy="1906.06" r="52.63"/></g><line class="cls-1" x1="1201.9" y1="1779.21" x2="1361.69" y2="1954.32"/><line class="cls-1" x1="1117.52" y1="1855.42" x2="1277.31" y2="2030.54"/><line class="cls-5" x1="1200.6" y1="1785.22" x2="1123.93" y2="1855.57"/><line class="cls-5" x1="1203.66" y1="1788.92" x2="1126.99" y2="1859.26"/><line class="cls-5" x1="1206.72" y1="1792.61" x2="1130.06" y2="1862.96"/><line class="cls-5" x1="1347.92" y1="1947.81" x2="1271.25" y2="2018.16"/><line class="cls-5" x1="1350.98" y1="1951.51" x2="1274.32" y2="2021.85"/><line class="cls-5" x1="1354.05" y1="1955.2" x2="1277.38" y2="2025.55"/><circle class="cls-12" cx="945" cy="1925" r="26.5"/><circle class="cls-12" cx="945.5" cy="1924.5" r="12"/><rect class="cls-13" x="1217.5" y="1688" width="128" height="248" transform="translate(3491.24 1605.52) rotate(119.93)"/><g id="Astronaut-5" data-name="Astronaut"><g class="cls-14"><g id="AstronautProfile-5" data-name="AstronautProfile"><g id="Body-5" data-name="Body"><path id="Neck-5" data-name="Neck" class="cls-1" d="M1272.21,1801.84a3.33,3.33,0,0,0-1.94,3.37c.12,2.58,26.86,15.47,26.86,15.47s2.82-1.47,1.94-3.37Z"/><path id="LaptopBase-5" data-name="LaptopBase" class="cls-1" d="M1261.9,1862.59l-41.38-24.48a1.62,1.62,0,0,1-.52-2.22l15.19-25.79a5.11,5.11,0,0,1,7-2l35.5,21a5.1,5.1,0,0,1,1.65,7L1264.12,1862A1.63,1.63,0,0,1,1261.9,1862.59Z"/><path id="Arm-5" data-name="Arm" class="cls-1" d="M1305.48,1836.93c-1.41-9.07-12.09-12.18-20.2-5.88-.07.07-.14.1-.19.15a8,8,0,0,0-3.17,7l1.71,14.94a3.15,3.15,0,0,1-3,3.33,52.81,52.81,0,0,0-14.31,2.16l-2.07,3.51a1.63,1.63,0,0,1-2.22.65l-2.16-1.27c-.27.17-.55.34-.81.53s-.21.14-.34.22a52.06,52.06,0,0,0,47.16-3.61C1307.18,1851.65,1306.5,1843.35,1305.48,1836.93Z"/><path id="SuitBox-5" data-name="SuitBox" class="cls-1" d="M1279,1830.05l2-3.44a6.06,6.06,0,0,0-2.21-8.27l-11.63-6.69a6.07,6.07,0,0,0-8.25,2.24l-1.67,2.91,20.44,12.09A4.86,4.86,0,0,1,1279,1830.05Z"/><path id="Shoulders-5" data-name="Shoulders" class="cls-1" d="M1304.82,1831.16c-1.79-3.74-8.84-10.7-8.84-10.7l-25.79-14a29.06,29.06,0,0,0-15.92,4.53,19.91,19.91,0,0,0-3,2.43l26.37,15.6a5.1,5.1,0,0,1,1.65,7l-15.18,25.77a1.64,1.64,0,0,1-2.22.65l-33.32-19.72-.24.35s-5.95,3.41,15.11,22.21,51.56,1.46,51.56,1.46l10.84-8.26S1308,1837.77,1304.82,1831.16Z"/></g><g id="Head-9" data-name="Head"><path id="FaceReflect-5" data-name="FaceReflect" class="cls-1" d="M1292.62,1777.06c-.46-.11-.93-.22-1.38-.3a12.63,12.63,0,0,0-1.36-.17,8.6,8.6,0,0,0-2.59.11,8.91,8.91,0,0,0-1.26.31c-.2.07-.42.13-.63.22s-.19.1-.31.13l-.32.14a20.88,20.88,0,0,0-2.42,1.4l-.06-.06a6,6,0,0,1,.5-.51l.27-.24a2.18,2.18,0,0,1,.27-.24l.57-.43a2.22,2.22,0,0,1,.27-.21l.32-.19a8.76,8.76,0,0,1,1.3-.65,7.93,7.93,0,0,1,1.39-.39,7.74,7.74,0,0,1,2.84,0,7.83,7.83,0,0,1,2.66,1Z"/><path id="Head-10" data-name="Head" class="cls-1" d="M1319.07,1801.58c4.14-11.95-2.24-23.19-15.49-28.94-12.22-5.28-22.21-2.44-29.36,12.53-3.63,7.59-2.73,11.85-1,16.41,8.64,5.33,17.51,10.22,26.31,15.29A23.64,23.64,0,0,0,1319.07,1801.58Z"/><g id="Buttons-5" data-name="Buttons"><g id="Bottom-5" data-name="Bottom"><ellipse id="Base1-5" data-name="Base1" class="cls-1" cx="1309.78" cy="1801.55" rx="4.32" ry="3.84" transform="translate(-905.02 2037.75) rotate(-60.07)"/><ellipse id="Base2-5" data-name="Base2" class="cls-1" cx="1304.93" cy="1809.7" rx="2.93" ry="2.88" transform="translate(-914.51 2037.63) rotate(-60.07)"/></g><g id="ButtonShades-5" data-name="ButtonShades"><path id="_1.1-5" data-name="1.1" class="cls-1" d="M1311.25,1798.07a7.59,7.59,0,0,0-1.52.31,4.17,4.17,0,0,0-1.31.67,3.45,3.45,0,0,0-1,1.1,8.42,8.42,0,0,0-.66,1.42,3.88,3.88,0,0,1,.28-1.58,3.06,3.06,0,0,1,1-1.31,3.42,3.42,0,0,1,1.53-.65A2.91,2.91,0,0,1,1311.25,1798.07Z"/><path id="_1.2-5" data-name="1.2" class="cls-1" d="M1312.24,1801.91a1.36,1.36,0,0,1,.22.63,1.39,1.39,0,0,1-.16.68,1.24,1.24,0,0,1-.52.49.21.21,0,0,1-.15,0l-.16,0a1.36,1.36,0,0,1-.35,0c.07-.07.18-.13.25-.2s.17-.11.24-.18a1.33,1.33,0,0,0,.34-.41,1.09,1.09,0,0,0,.16-.51A1.71,1.71,0,0,0,1312.24,1801.91Z"/><path id="_2.2-5" data-name="2.2" class="cls-1" d="M1306.92,1809.5a1.4,1.4,0,0,1,.22.63,1.36,1.36,0,0,1-.16.68,1.23,1.23,0,0,1-.52.49.15.15,0,0,1-.15,0l-.16,0a1,1,0,0,1-.35,0c.07-.06.18-.13.25-.2s.17-.11.23-.18a1.37,1.37,0,0,0,.35-.41,1.09,1.09,0,0,0,.16-.51A2.13,2.13,0,0,0,1306.92,1809.5Z"/><path id="_2.1-5" data-name="2.1" class="cls-1" d="M1305.31,1807.44a4.6,4.6,0,0,0-1,.4,2.17,2.17,0,0,0-.75.62c-.07.07-.11.15-.14.18l0,.1-.07.12-.12.2-.12.22a1,1,0,0,0-.11.23l-.1.23a3,3,0,0,1-.19.5,3.3,3.3,0,0,1,0-.55l0-.28c0-.09,0-.19.06-.28a1.17,1.17,0,0,0,.1-.26l.15-.26.06-.12.07-.12a1.46,1.46,0,0,1,.17-.24,2.39,2.39,0,0,1,.92-.64A3.69,3.69,0,0,1,1305.31,1807.44Z"/></g></g><path id="Face-5" data-name="Face" class="cls-1" d="M1292.18,1808.13l-14.94-8.6a7.15,7.15,0,0,1-2.51-9.77l6.76-11.75a7.5,7.5,0,0,1,10.18-2.87l14.8,8.52a5.23,5.23,0,0,1,1.82,7.14l-8.79,15.26A5.37,5.37,0,0,1,1292.18,1808.13Z"/></g></g></g><circle id="OuterShell-17" data-name="OuterShell" class="cls-1" cx="1281.46" cy="1812.07" r="52.63"/></g><line class="cls-1" x1="1206.48" y1="1703.08" x2="1412.65" y2="1820.12"/><line class="cls-1" x1="1149.86" y1="1801.68" x2="1356.02" y2="1918.71"/><line class="cls-5" x1="1207.11" y1="1709.2" x2="1155.99" y2="1799.83"/><line class="cls-5" x1="1211.17" y1="1711.77" x2="1160.05" y2="1802.39"/><line class="cls-5" x1="1215.23" y1="1714.33" x2="1164.11" y2="1804.96"/><line class="cls-5" x1="1397.54" y1="1818.19" x2="1346.42" y2="1908.81"/><line class="cls-5" x1="1401.6" y1="1820.75" x2="1350.48" y2="1911.38"/><line class="cls-5" x1="1405.65" y1="1823.32" x2="1354.54" y2="1913.94"/><rect class="cls-15" x="1007.5" y="1795" width="128" height="248" transform="translate(2494.37 243.85) rotate(69.52)"/><g id="Astronaut-6" data-name="Astronaut"><g class="cls-16"><g id="AstronautProfile-6" data-name="AstronautProfile"><g id="Body-6" data-name="Body"><path id="Neck-6" data-name="Neck" class="cls-1" d="M1057.75,1919.69a3.33,3.33,0,0,0,1.36,3.64c2.06,1.54,29-10.85,29-10.85s.67-3.1-1.36-3.64Z"/><path id="LaptopBase-6" data-name="LaptopBase" class="cls-1" d="M1098,1966.35l-45.24,16.28a1.6,1.6,0,0,1-2-1l-10.19-28.14a5.08,5.08,0,0,1,2.92-6.6l38.8-14a5.1,5.1,0,0,1,6.48,3.22l10.18,28.11A1.64,1.64,0,0,1,1098,1966.35Z"/><path id="Arm-6" data-name="Arm" class="cls-1" d="M1106,1916.41c-7.88-4.7-17.09,1.55-17.4,11.82a1.77,1.77,0,0,1,0,.24,8,8,0,0,0,3.39,6.92l12.6,8.2a3.15,3.15,0,0,1,.66,4.44,52.79,52.79,0,0,0-7.46,12.4l1.39,3.83a1.64,1.64,0,0,1-.91,2.13l-2.36.85c0,.32-.08.64-.11,1,0,.13,0,.25,0,.41A52.08,52.08,0,0,0,1123,1930C1118.42,1924.48,1111.59,1919.71,1106,1916.41Z"/><path id="SuitBox-6" data-name="SuitBox" class="cls-1" d="M1083.8,1932.46l-1.39-3.73a6.07,6.07,0,0,0-7.78-3.56l-12.57,4.69a6.07,6.07,0,0,0-3.53,7.79l1.17,3.15,22.35-8.06A4.86,4.86,0,0,1,1083.8,1932.46Z"/><path id="Shoulders-6" data-name="Shoulders" class="cls-1" d="M1101.13,1913.24c-4-1-13.88,0-13.88,0l-27.21,11a29,29,0,0,0-6.66,15.15,20.25,20.25,0,0,0,0,3.84l28.83-10.39a5.12,5.12,0,0,1,6.48,3.22l10.18,28.12a1.63,1.63,0,0,1-.92,2.12l-36.43,13.12c.08.26.12.41.12.41s-1.16,6.75,26.74,2.5,34-38.8,34-38.8l.54-13.62S1108.26,1915,1101.13,1913.24Z"/></g><g id="Head-11" data-name="Head"><path id="FaceReflect-6" data-name="FaceReflect" class="cls-1" d="M1051.66,1888.16c-.38.29-.76.58-1.11.88a10.89,10.89,0,0,0-1,.93,8.2,8.2,0,0,0-1.57,2.08,8.31,8.31,0,0,0-.57,1.16c-.07.2-.17.4-.23.62s0,.21-.1.33l-.09.33a19.14,19.14,0,0,0-.46,2.76h-.1c0-.23,0-.47-.06-.71l0-.36a2.14,2.14,0,0,1,0-.36l0-.72c0-.12,0-.24,0-.35l.06-.36a7.37,7.37,0,0,1,.33-1.41,8.54,8.54,0,0,1,.58-1.32,7.69,7.69,0,0,1,1.85-2.16,8,8,0,0,1,2.48-1.41Z"/><path id="Head-12" data-name="Head" class="cls-1" d="M1087.42,1883.41c-6.58-10.81-19.3-13.06-32.18-6.51-11.85,6-16,15.57-9.06,30.61,3.54,7.63,7.4,9.66,12,11.26,9.62-3.27,19-7,28.55-10.54A23.62,23.62,0,0,0,1087.42,1883.41Z"/><g id="Buttons-6" data-name="Buttons"><g id="Bottom-6" data-name="Bottom"><ellipse id="Base1-6" data-name="Base1" class="cls-1" cx="1081.47" cy="1890.55" rx="3.84" ry="4.32" transform="translate(-593.06 497.82) rotate(-20.48)"/><ellipse id="Base2-6" data-name="Base2" class="cls-1" cx="1084.66" cy="1899.48" rx="2.88" ry="2.93" transform="translate(-595.99 499.5) rotate(-20.48)"/></g><g id="ButtonShades-6" data-name="ButtonShades"><path id="_1.1-6" data-name="1.1" class="cls-1" d="M1079.73,1887.2a7,7,0,0,0-.73,1.37,4,4,0,0,0-.32,1.43,3.29,3.29,0,0,0,.23,1.46,8.47,8.47,0,0,0,.67,1.4,3.93,3.93,0,0,1-1-1.22,3.06,3.06,0,0,1-.36-1.62,3.54,3.54,0,0,1,.47-1.59A2.89,2.89,0,0,1,1079.73,1887.2Z"/><path id="_1.2-6" data-name="1.2" class="cls-1" d="M1083.31,1888.88a1.46,1.46,0,0,1,.63.23,1.42,1.42,0,0,1,.42.55,1.26,1.26,0,0,1,.05.72.16.16,0,0,1-.07.14l-.06.15a1.93,1.93,0,0,1-.22.28c0-.1,0-.23,0-.32s0-.2,0-.3a1.3,1.3,0,0,0-.09-.52,1.19,1.19,0,0,0-.29-.46A1.6,1.6,0,0,0,1083.31,1888.88Z"/><path id="_2.2-6" data-name="2.2" class="cls-1" d="M1085.77,1897.82a1.21,1.21,0,0,1,1,.78,1.26,1.26,0,0,1,0,.72.16.16,0,0,1-.07.14l-.06.15a1.93,1.93,0,0,1-.22.28c0-.1,0-.23,0-.32s0-.2,0-.3a1.5,1.5,0,0,0-.1-.52,1.19,1.19,0,0,0-.29-.46A2.07,2.07,0,0,0,1085.77,1897.82Z"/><path id="_2.1-6" data-name="2.1" class="cls-1" d="M1083.16,1897.75a4.3,4.3,0,0,0-.31,1,2.27,2.27,0,0,0,0,1,.66.66,0,0,0,.06.22l0,.11,0,.13.08.21.09.24a2.4,2.4,0,0,0,.11.23l.11.22a3.17,3.17,0,0,1,.27.47,2.48,2.48,0,0,1-.42-.36l-.2-.19c0-.08-.13-.15-.18-.23a1.16,1.16,0,0,0-.14-.24l-.1-.28,0-.13,0-.13a1.29,1.29,0,0,1-.08-.28,2.2,2.2,0,0,1,.1-1.11A3.53,3.53,0,0,1,1083.16,1897.75Z"/></g></g><path id="Face-6" data-name="Face" class="cls-1" d="M1075.32,1908.31l-16.15,6a7.15,7.15,0,0,1-9.12-4.3l-4.74-12.69a7.5,7.5,0,0,1,4.27-9.68l16-6a5.21,5.21,0,0,1,6.66,3.15l6.16,16.49A5.38,5.38,0,0,1,1075.32,1908.31Z"/></g></g></g><circle id="OuterShell-18" data-name="OuterShell" class="cls-1" cx="1071.53" cy="1919.08" r="52.63"/></g><line class="cls-1" x1="939.76" y1="1907.39" x2="1161.33" y2="1823.11"/><line class="cls-1" x1="979.65" y1="2013.87" x2="1201.22" y2="1929.58"/><line class="cls-5" x1="944.87" y1="1910.81" x2="982.14" y2="2007.96"/><line class="cls-5" x1="949.44" y1="1909.32" x2="986.7" y2="2006.47"/><line class="cls-5" x1="954" y1="1907.83" x2="991.26" y2="2004.98"/><line class="cls-5" x1="1150.22" y1="1833.52" x2="1187.48" y2="1930.67"/><line class="cls-5" x1="1154.78" y1="1832.03" x2="1192.04" y2="1929.18"/><line class="cls-5" x1="1159.34" y1="1830.54" x2="1196.61" y2="1927.69"/><circle class="cls-12" cx="877" cy="1715" r="26.5"/><circle class="cls-12" cx="877.5" cy="1714.5" r="12"/><circle class="cls-12" cx="1298" cy="1725" r="26.5"/><circle class="cls-12" cx="1298.5" cy="1724.5" r="12"/><polygon class="cls-17" points="1055.92 1877.51 1060.79 1973.19 1241.03 1959.83 1236.16 1864.15 1055.92 1877.51"/><g id="Astronaut-7" data-name="Astronaut"><g class="cls-18"><g id="AstronautProfile-7" data-name="AstronautProfile"><g id="Body-7" data-name="Body"><path id="Neck-7" data-name="Neck" class="cls-2" d="M1138.78,1916.26a2.56,2.56,0,0,0,.14,2.9c1.1,1.55,22.54-1.67,22.54-1.67s1.14-2.09-.15-2.9Z"/><path id="LaptopBase-7" data-name="LaptopBase" class="cls-2" d="M1156.51,1958.31l-35,2.16a1.15,1.15,0,0,1-1.19-1.16l-.93-22.39a3.87,3.87,0,0,1,3.48-4.13l30-1.87a3.67,3.67,0,0,1,3.79,3.69l.92,22.36A1.24,1.24,0,0,1,1156.51,1958.31Z"/><path id="Arm-7" data-name="Arm" class="cls-2" d="M1173,1924.08c-4.44-5-12.2-2.49-14.66,4.83a1.89,1.89,0,0,0-.06.18,6.09,6.09,0,0,0,.84,5.68l7,8.56a2.44,2.44,0,0,1-.52,3.33,40.25,40.25,0,0,0-7.89,7.35l.13,3a1.25,1.25,0,0,1-1.1,1.33l-1.82.11c-.1.22-.2.45-.29.67s-.07.18-.12.29a39.13,39.13,0,0,0,27.38-22C1179.85,1932.51,1176.15,1927.64,1173,1924.08Z"/><path id="SuitBox-7" data-name="SuitBox" class="cls-2" d="M1154.07,1930.94l-.15-3a4.37,4.37,0,0,0-4.62-4.21l-9.75.73a4.61,4.61,0,0,0-4.16,4.85l.13,2.51,17.27-1.07A3.39,3.39,0,0,1,1154.07,1930.94Z"/><path id="Shoulders-7" data-name="Shoulders" class="cls-2" d="M1170.3,1920.78c-2.58-1.57-9.63-2.94-9.63-2.94l-21.29,2.15a22.18,22.18,0,0,0-7.94,9.49,15.85,15.85,0,0,0-.84,2.76l22.28-1.39a3.67,3.67,0,0,1,3.79,3.68l.93,22.37a1.26,1.26,0,0,1-1.1,1.34l-28.16,1.74c0,.2,0,.32,0,.32s-2.28,4.61,18,7.44,32.07-20.73,32.07-20.73l3.36-9.68S1174.87,1923.54,1170.3,1920.78Z"/></g><g id="Head-13" data-name="Head"><path id="FaceReflect-7" data-name="FaceReflect" class="cls-2" d="M1141.44,1892.3c-.32.13-.65.26-1,.4a9.34,9.34,0,0,0-.89.46,6.41,6.41,0,0,0-1.55,1.16,8.67,8.67,0,0,0-.64.72c-.1.13-.21.26-.3.4a2.11,2.11,0,0,0-.14.22l-.14.21a16.61,16.61,0,0,0-.92,1.89h-.07c0-.18.07-.35.11-.53l.07-.26a1.25,1.25,0,0,1,.07-.26c.06-.16.12-.34.17-.51s.06-.18.09-.25l.12-.25a6.06,6.06,0,0,1,.54-1,6.66,6.66,0,0,1,.69-.82,5.67,5.67,0,0,1,1.76-1.16,5.45,5.45,0,0,1,2-.49Z"/><path id="Head-14" data-name="Head" class="cls-2" d="M1167.3,1896.44c-2.2-9.16-10.54-13.47-20.91-11.48-9.55,1.85-14.53,7.81-13,20.1.79,6.24,3,8.51,5.86,10.63,7.39-.32,14.74-1,22.12-1.55A18.3,18.3,0,0,0,1167.3,1896.44Z"/><g id="Buttons-7" data-name="Buttons"><g id="Bottom-7" data-name="Bottom"><ellipse id="Base1-7" data-name="Base1" class="cls-2" cx="1161.61" cy="1900.31" rx="3.24" ry="2.8" transform="matrix(0.02, -1, 1, 0.02, -758.78, 3028.41)"/><ellipse id="Base2-7" data-name="Base2" class="cls-2" cx="1161.88" cy="1907.41" rx="2.2" ry="2.09" transform="translate(-928.68 2693.38) rotate(-79.26)"/></g><g id="ButtonShades-7" data-name="ButtonShades"><path id="_1.1-7" data-name="1.1" class="cls-2" d="M1161.14,1897.53a6.41,6.41,0,0,0-.81.84,3,3,0,0,0-.53,1,2.47,2.47,0,0,0-.16,1.09,8.2,8.2,0,0,0,.15,1.16,3.12,3.12,0,0,1-.45-1.1,2.49,2.49,0,0,1,.1-1.24,2.84,2.84,0,0,1,.68-1A2.23,2.23,0,0,1,1161.14,1897.53Z"/><path id="_1.2-7" data-name="1.2" class="cls-2" d="M1163.26,1899.5a1,1,0,0,1,.38.3,1,1,0,0,1,.18.49,1.08,1.08,0,0,1-.13.52.12.12,0,0,1-.08.09l-.08.09a.78.78,0,0,1-.2.16,2,2,0,0,1,.07-.23c0-.07.06-.14.07-.21a1.37,1.37,0,0,0,0-.4.79.79,0,0,0-.11-.39A1.13,1.13,0,0,0,1163.26,1899.5Z"/><path id="_2.2-7" data-name="2.2" class="cls-2" d="M1163,1906.45a.93.93,0,0,1,.38.3,1,1,0,0,1,.18.48.91.91,0,0,1-.13.53.13.13,0,0,1-.07.09l-.08.09a1,1,0,0,1-.21.15c0-.07.06-.15.07-.22s.06-.15.07-.22a1.06,1.06,0,0,0,0-.78A1.65,1.65,0,0,0,1163,1906.45Z"/><path id="_2.1-7" data-name="2.1" class="cls-2" d="M1161.21,1905.85a3.49,3.49,0,0,0-.43.65,2,2,0,0,0-.22.7.47.47,0,0,0,0,.17v.55a1.25,1.25,0,0,0,0,.19l0,.18a2.7,2.7,0,0,1,.08.39,1.57,1.57,0,0,1-.21-.34l-.1-.19c0-.06-.05-.13-.07-.2a1.94,1.94,0,0,0,0-.2v-.43a.83.83,0,0,1,0-.22,1.88,1.88,0,0,1,.31-.78A2.73,2.73,0,0,1,1161.21,1905.85Z"/></g></g><path id="Face-7" data-name="Face" class="cls-2" d="M1153.46,1911.79l-12.53.93a5.16,5.16,0,0,1-5.39-5l-.52-10.13a5.71,5.71,0,0,1,5.09-6.06l12.4-.92a3.75,3.75,0,0,1,3.94,3.67l.67,13.16A4.09,4.09,0,0,1,1153.46,1911.79Z"/></g></g></g><ellipse id="OuterShell-19" data-name="OuterShell" class="cls-2" cx="1148.48" cy="1918.73" rx="39.55" ry="38.18" transform="translate(-1021.36 2459.43) rotate(-73.09)"/></g><line class="cls-2" x1="1059.56" y1="1882.52" x2="1231.8" y2="1868.67"/><line class="cls-2" x1="1063.97" y1="1967.5" x2="1236.21" y2="1953.66"/><line class="cls-19" x1="1062.36" y1="1886.06" x2="1066.99" y2="1963.78"/><line class="cls-19" x1="1065.86" y1="1885.95" x2="1070.48" y2="1963.67"/><line class="cls-19" x1="1069.35" y1="1885.84" x2="1073.98" y2="1963.56"/><line class="cls-19" x1="1221.81" y1="1873.81" x2="1226.43" y2="1951.54"/><line class="cls-19" x1="1225.3" y1="1873.7" x2="1229.93" y2="1951.43"/><line class="cls-19" x1="1228.79" y1="1873.59" x2="1233.42" y2="1951.32"/><circle class="cls-12" cx="1147" cy="1883" r="26.5"/><circle class="cls-12" cx="1147.5" cy="1882.5" r="12"/><rect class="cls-20" x="1128.5" y="1588" width="128" height="248" transform="translate(3224.52 2185.19) rotate(137.97)"/><g id="Astronaut-8" data-name="Astronaut"><g class="cls-21"><g id="AstronautProfile-8" data-name="AstronautProfile"><g id="Body-8" data-name="Body"><path id="Neck-8" data-name="Neck" class="cls-1" d="M1186.81,1699.46a3.34,3.34,0,0,0-2.89,2.6c-.68,2.49,20.76,23,20.76,23s3.13-.52,2.89-2.6Z"/><path id="LaptopBase-8" data-name="LaptopBase" class="cls-1" d="M1158.2,1754l-31.77-36.1a1.61,1.61,0,0,1,.2-2.27l22.43-19.81a5.09,5.09,0,0,1,7.22.29l27.25,30.95a5.1,5.1,0,0,1-.61,7.21l-22.41,19.8A1.64,1.64,0,0,1,1158.2,1754Z"/><path id="Arm-8" data-name="Arm" class="cls-1" d="M1207.58,1743.13c1.47-9.06-7.72-15.33-17.39-11.85a1.36,1.36,0,0,1-.23.09,8,8,0,0,0-5.18,5.69l-3,14.73a3.16,3.16,0,0,1-3.89,2.25,52.8,52.8,0,0,0-14.27-2.38l-3.06,2.7a1.65,1.65,0,0,1-2.31-.07l-1.65-1.88c-.32.07-.63.16-.94.25a3.31,3.31,0,0,0-.39.11,52.07,52.07,0,0,0,46,11.17C1204.64,1757.66,1206.57,1749.55,1207.58,1743.13Z"/><path id="SuitBox-8" data-name="SuitBox" class="cls-1" d="M1184.5,1728.38l3-2.66a6.06,6.06,0,0,0,.45-8.54l-9-10a6.06,6.06,0,0,0-8.54-.42l-2.5,2.24,15.7,17.83A4.77,4.77,0,0,1,1184.5,1728.38Z"/><path id="Shoulders-8" data-name="Shoulders" class="cls-1" d="M1208.75,1737.44c-.56-4.12-5.1-12.91-5.1-12.91l-20.2-21.28a29.11,29.11,0,0,0-16.54-.63,21.9,21.9,0,0,0-3.57,1.4l20.25,23a5.1,5.1,0,0,1-.61,7.21l-22.41,19.8a1.64,1.64,0,0,1-2.31-.07l-25.59-29.07-.33.26s-6.71,1.4,7.5,25.79,48.57,17.36,48.57,17.36l12.86-4.5S1209.74,1744.72,1208.75,1737.44Z"/></g><g id="Head-15" data-name="Head"><path id="FaceReflect-8" data-name="FaceReflect" class="cls-1" d="M1213.89,1682.22c-.4-.25-.81-.5-1.22-.71a9.83,9.83,0,0,0-1.23-.58,8.28,8.28,0,0,0-2.51-.7,9.22,9.22,0,0,0-1.29-.1c-.21,0-.44,0-.66,0s-.22,0-.34,0l-.35,0a20.87,20.87,0,0,0-2.73.58l0-.08a6.19,6.19,0,0,1,.63-.32l.33-.15a1.92,1.92,0,0,1,.33-.14l.68-.24.33-.12.36-.07a7.36,7.36,0,0,1,1.43-.22,7.75,7.75,0,0,1,1.44.06,7.49,7.49,0,0,1,2.69.93,7.92,7.92,0,0,1,2.22,1.78Z"/><path id="Head-16" data-name="Head" class="cls-1" d="M1231.45,1713.73c7.64-10.09,5.06-22.75-5.77-32.32-10-8.8-20.37-9.2-31.8,2.82-5.79,6.1-6.26,10.43-6.06,15.29,6.57,7.74,13.49,15.14,20.29,22.68A23.62,23.62,0,0,0,1231.45,1713.73Z"/><g id="Buttons-8" data-name="Buttons"><g id="Bottom-8" data-name="Bottom"><ellipse id="Base1-8" data-name="Base1" class="cls-1" cx="1222.63" cy="1710.82" rx="4.32" ry="3.84" transform="translate(-830.98 1258.68) rotate(-42.03)"/><ellipse id="Base2-8" data-name="Base2" class="cls-1" cx="1215.49" cy="1717.07" rx="2.93" ry="2.88" transform="translate(-837 1255.5) rotate(-42.03)"/></g><g id="ButtonShades-8" data-name="ButtonShades"><path id="_1.1-8" data-name="1.1" class="cls-1" d="M1225.1,1708a7.35,7.35,0,0,0-1.54-.18,4,4,0,0,0-1.45.24,3.24,3.24,0,0,0-1.27.74,8.93,8.93,0,0,0-1.06,1.14,4,4,0,0,1,.75-1.42,3.22,3.22,0,0,1,1.37-.93,3.75,3.75,0,0,1,1.66-.14A2.9,2.9,0,0,1,1225.1,1708Z"/><path id="_1.2-8" data-name="1.2" class="cls-1" d="M1224.85,1711.92a1.38,1.38,0,0,1,0,.67,1.3,1.3,0,0,1-.36.59,1.17,1.17,0,0,1-.65.31.18.18,0,0,1-.16,0h-.16a1.35,1.35,0,0,1-.33-.09c.08-.05.21-.07.29-.12a2.31,2.31,0,0,0,.28-.1,1.42,1.42,0,0,0,.46-.28,1.2,1.2,0,0,0,.31-.44A1.37,1.37,0,0,0,1224.85,1711.92Z"/><path id="_2.2-8" data-name="2.2" class="cls-1" d="M1217.44,1717.5a1.23,1.23,0,0,1,0,.66,1.27,1.27,0,0,1-.35.6,1.23,1.23,0,0,1-.65.3.22.22,0,0,1-.16,0h-.16a1.62,1.62,0,0,1-.34-.1c.09,0,.22-.07.3-.12s.2,0,.28-.09a1.58,1.58,0,0,0,.45-.29,1,1,0,0,0,.32-.44A1.6,1.6,0,0,0,1217.44,1717.5Z"/><path id="_2.1-8" data-name="2.1" class="cls-1" d="M1216.55,1715a4.48,4.48,0,0,0-1,.07,2.45,2.45,0,0,0-.91.36l-.19.14-.08.07-.1.1-.17.15-.19.17a.73.73,0,0,0-.17.18l-.17.19a4.71,4.71,0,0,1-.33.42,2.74,2.74,0,0,1,.17-.53l.11-.25.14-.25a1.32,1.32,0,0,0,.18-.22l.22-.2.1-.09.1-.09a1.08,1.08,0,0,1,.24-.18,2.34,2.34,0,0,1,1.07-.32A3.62,3.62,0,0,1,1216.55,1715Z"/></g></g><path id="Face-8" data-name="Face" class="cls-1" d="M1203.85,1711.63l-11.54-12.81a7.15,7.15,0,0,1,.64-10.07l10.07-9.07a7.5,7.5,0,0,1,10.57.42l11.42,12.68a5.2,5.2,0,0,1-.48,7.35l-13.07,11.79A5.37,5.37,0,0,1,1203.85,1711.63Z"/></g></g></g><circle id="OuterShell-20" data-name="OuterShell" class="cls-1" cx="1192.44" cy="1712.06" r="52.63"/></g><line class="cls-1" x1="1154.9" y1="1585.21" x2="1314.69" y2="1760.32"/><line class="cls-1" x1="1070.52" y1="1661.42" x2="1230.31" y2="1836.54"/><line class="cls-5" x1="1153.6" y1="1591.22" x2="1076.93" y2="1661.57"/><line class="cls-5" x1="1156.66" y1="1594.92" x2="1079.99" y2="1665.26"/><line class="cls-5" x1="1159.72" y1="1598.61" x2="1083.06" y2="1668.96"/><line class="cls-5" x1="1300.92" y1="1753.81" x2="1224.25" y2="1824.16"/><line class="cls-5" x1="1303.98" y1="1757.51" x2="1227.32" y2="1827.85"/><line class="cls-5" x1="1307.05" y1="1761.2" x2="1230.38" y2="1831.55"/><rect class="cls-22" x="1069.5" y="1625" width="128" height="248" transform="translate(2925.38 2813.42) rotate(153.66)"/><g id="Astronaut-9" data-name="Astronaut"><g class="cls-23"><g id="AstronautProfile-9" data-name="AstronautProfile"><g id="Body-9" data-name="Body"><path id="Neck-9" data-name="Neck" class="cls-1" d="M1131.41,1735.39a3.33,3.33,0,0,0-3.48,1.73c-1.33,2.21,13.76,27.78,13.76,27.78s3.15.35,3.48-1.73Z"/><path id="LaptopBase-9" data-name="LaptopBase" class="cls-1" d="M1089.11,1780.19l-20.82-43.33a1.61,1.61,0,0,1,.8-2.14l27-13a5.09,5.09,0,0,1,6.87,2.24l17.87,37.17a5.1,5.1,0,0,1-2.54,6.77l-26.93,13A1.63,1.63,0,0,1,1089.11,1780.19Z"/><path id="Arm-9" data-name="Arm" class="cls-1" d="M1139.6,1783.05c3.87-8.32-3.29-16.85-13.53-16.11-.1,0-.18,0-.25,0a8,8,0,0,0-6.53,4.08l-6.87,13.37a3.16,3.16,0,0,1-4.35,1.11,52.81,52.81,0,0,0-13.1-6.15l-3.67,1.77a1.64,1.64,0,0,1-2.21-.69l-1.08-2.26c-.33,0-.65,0-1,0h-.41a52.08,52.08,0,0,0,41.22,23.18C1132.84,1796.24,1136.89,1789,1139.6,1783.05Z"/><path id="SuitBox-9" data-name="SuitBox" class="cls-1" d="M1121.37,1762.61l3.56-1.77a6,6,0,0,0,2.75-8.09l-6-12a6.07,6.07,0,0,0-8.11-2.72l-3,1.49,10.3,21.41A5,5,0,0,1,1121.37,1762.61Z"/><path id="Shoulders-9" data-name="Shoulders" class="cls-1" d="M1142.26,1777.88c.58-4.11-1.41-13.8-1.41-13.8l-13.69-25.95a29.09,29.09,0,0,0-15.76-5.08,19.94,19.94,0,0,0-3.81.39l13.27,27.62a5.09,5.09,0,0,1-2.54,6.76l-26.93,13a1.63,1.63,0,0,1-2.2-.7l-16.77-34.9-.4.16s-6.83-.46.25,26.86,42.07,29.84,42.07,29.84l13.6-.85S1141.25,1785.16,1142.26,1777.88Z"/></g><g id="Head-17" data-name="Head"><path id="FaceReflect-9" data-name="FaceReflect" class="cls-1" d="M1162.15,1726.11c-.32-.34-.65-.69-1-1a11.06,11.06,0,0,0-1-.9,8.32,8.32,0,0,0-2.22-1.34,9.31,9.31,0,0,0-1.21-.45c-.21-.05-.42-.12-.65-.16s-.21,0-.33-.07l-.34-.06a19.27,19.27,0,0,0-2.79-.17l0-.1c.22-.06.46-.1.69-.14l.36,0a2.08,2.08,0,0,1,.36-.05c.22,0,.47,0,.72,0l.34,0,.37,0a7.27,7.27,0,0,1,1.44.18,8.73,8.73,0,0,1,1.37.44,7.82,7.82,0,0,1,2.34,1.63,7.54,7.54,0,0,1,1.65,2.32Z"/><path id="Head-18" data-name="Head" class="cls-1" d="M1170.53,1761.2c10.08-7.65,11-20.54,3.19-32.67-7.23-11.18-17.12-14.37-31.38-5.89-7.23,4.3-8.85,8.34-10,13.08,4.23,9.23,8.89,18.22,13.4,27.32A23.62,23.62,0,0,0,1170.53,1761.2Z"/><g id="Buttons-9" data-name="Buttons"><g id="Bottom-9" data-name="Bottom"><ellipse id="Base1-9" data-name="Base1" class="cls-1" cx="1162.82" cy="1756.01" rx="4.32" ry="3.84" transform="translate(-658.45 698.32) rotate(-26.34)"/><ellipse id="Base2-9" data-name="Base2" class="cls-1" cx="1154.26" cy="1760.1" rx="2.93" ry="2.88" transform="translate(-661.15 694.94) rotate(-26.34)"/></g><g id="ButtonShades-9" data-name="ButtonShades"><path id="_1.1-9" data-name="1.1" class="cls-1" d="M1166,1753.94a7.4,7.4,0,0,0-1.44-.59,4,4,0,0,0-1.46-.17,3.37,3.37,0,0,0-1.42.37,10.28,10.28,0,0,0-1.34.82,4,4,0,0,1,1.11-1.16,3.11,3.11,0,0,1,1.58-.53,3.65,3.65,0,0,1,1.63.31A2.91,2.91,0,0,1,1166,1753.94Z"/><path id="_1.2-9" data-name="1.2" class="cls-1" d="M1164.67,1757.68a1.26,1.26,0,0,1-.67,1.12,1.31,1.31,0,0,1-.71.12.18.18,0,0,1-.15-.05l-.15-.06a1.14,1.14,0,0,1-.3-.18c.09,0,.22,0,.32,0s.2,0,.29,0a1.38,1.38,0,0,0,.51-.15,1.07,1.07,0,0,0,.43-.34A1.64,1.64,0,0,0,1164.67,1757.68Z"/><path id="_2.2-9" data-name="2.2" class="cls-1" d="M1156,1761a1.32,1.32,0,0,1-.16.64,1.44,1.44,0,0,1-.5.48,1.32,1.32,0,0,1-.71.12.18.18,0,0,1-.15,0l-.16-.06a1.27,1.27,0,0,1-.29-.18c.09,0,.22,0,.31,0s.21,0,.3,0a1.38,1.38,0,0,0,.51-.15,1,1,0,0,0,.42-.34A1.67,1.67,0,0,0,1156,1761Z"/><path id="_2.1-9" data-name="2.1" class="cls-1" d="M1155.83,1758.43a4,4,0,0,0-1-.21,2.38,2.38,0,0,0-1,.1.87.87,0,0,0-.22.08l-.1,0-.12.06-.21.1-.22.11a.83.83,0,0,0-.22.14l-.21.13a4.37,4.37,0,0,1-.44.31,4.1,4.1,0,0,1,.31-.46l.18-.21.2-.2a.76.76,0,0,0,.23-.17l.27-.13.12-.06.12-.06a1.36,1.36,0,0,1,.28-.11,2.45,2.45,0,0,1,1.11,0A3.62,3.62,0,0,1,1155.83,1758.43Z"/></g></g><path id="Face-9" data-name="Face" class="cls-1" d="M1144.53,1751.71l-7.65-15.45a7.15,7.15,0,0,1,3.34-9.52l12.14-6a7.51,7.51,0,0,1,10.07,3.26l7.57,15.3a5.21,5.21,0,0,1-2.45,7l-15.78,7.81A5.36,5.36,0,0,1,1144.53,1751.71Z"/></g></g></g><circle id="OuterShell-21" data-name="OuterShell" class="cls-1" cx="1133.42" cy="1749.04" r="52.63"/></g><line class="cls-1" x1="1131.59" y1="1616.76" x2="1238.07" y2="1828.57"/><line class="cls-1" x1="1029.74" y1="1667.32" x2="1136.23" y2="1879.13"/><line class="cls-5" x1="1128.71" y1="1622.2" x2="1035.87" y2="1669.19"/><line class="cls-5" x1="1130.66" y1="1626.59" x2="1037.83" y2="1673.58"/><line class="cls-5" x1="1132.61" y1="1630.97" x2="1039.78" y2="1677.96"/><line class="cls-5" x1="1226.57" y1="1818.58" x2="1133.74" y2="1865.57"/><line class="cls-5" x1="1228.52" y1="1822.96" x2="1135.69" y2="1869.95"/><line class="cls-5" x1="1230.48" y1="1827.35" x2="1137.64" y2="1874.34"/><rect class="cls-24" x="1020.5" y="1635" width="128" height="248" transform="translate(2221.26 3484.69) rotate(178.28)"/><g id="Astronaut-10" data-name="Astronaut"><g class="cls-25"><g id="AstronautProfile-10" data-name="AstronautProfile"><g id="Body-10" data-name="Body"><path id="Neck-10" data-name="Neck" class="cls-1" d="M1088.27,1745.76a3.34,3.34,0,0,0-3.88.11c-2.13,1.46.93,31,.93,31s2.72,1.63,3.88-.12Z"/><path id="LaptopBase-10" data-name="LaptopBase" class="cls-1" d="M1031.15,1768.86l-.87-48.07a1.61,1.61,0,0,1,1.62-1.61l29.92-.6a5.09,5.09,0,0,1,5.31,4.9l.76,41.24a5.1,5.1,0,0,1-5.13,5.09l-29.9.6A1.63,1.63,0,0,1,1031.15,1768.86Z"/><path id="Arm-10" data-name="Arm" class="cls-1" d="M1075.86,1792.49c7-6,4-16.68-5.59-20.28a2.23,2.23,0,0,1-.24-.08,8,8,0,0,0-7.63,1l-11.82,9.3a3.15,3.15,0,0,1-4.41-.81,52.9,52.9,0,0,0-9.35-11l-4.08.09a1.64,1.64,0,0,1-1.71-1.55l0-2.51-.88-.41a2.56,2.56,0,0,0-.37-.17,52.09,52.09,0,0,0,27.82,38.25C1064.22,1801.67,1070.93,1796.73,1075.86,1792.49Z"/><path id="SuitBox-10" data-name="SuitBox" class="cls-1" d="M1067.8,1766.32l4-.12a6.06,6.06,0,0,0,5.87-6.22l-.4-13.41a6.07,6.07,0,0,0-6.24-5.85l-3.35.1.43,23.75A4.67,4.67,0,0,1,1067.8,1766.32Z"/><path id="Shoulders-10" data-name="Shoulders" class="cls-1" d="M1080.43,1788.91c2.24-3.5,4.47-13.14,4.47-13.14l-1.64-29.29a29,29,0,0,0-12.2-11.18,21,21,0,0,0-3.63-1.25l.56,30.64a5.1,5.1,0,0,1-5.13,5.1l-29.9.6a1.64,1.64,0,0,1-1.72-1.55l-.7-38.72h-.42s-6-3.28-11,24.51,25.81,44.66,25.81,44.66l12.72,4.9S1076.48,1795.1,1080.43,1788.91Z"/></g><g id="Head-19" data-name="Head"><path id="FaceReflect-10" data-name="FaceReflect" class="cls-1" d="M1120.08,1750.13c-.15-.45-.3-.9-.47-1.33a12.71,12.71,0,0,0-.57-1.24,8.32,8.32,0,0,0-1.46-2.15,8,8,0,0,0-.92-.92c-.16-.13-.32-.28-.51-.41s-.19-.11-.28-.2l-.28-.2a20.48,20.48,0,0,0-2.47-1.32l0-.09c.23,0,.46.1.7.16l.34.1a2.35,2.35,0,0,1,.35.11l.67.25.32.13.33.17a8.09,8.09,0,0,1,1.23.77,7.43,7.43,0,0,1,1.06,1,7.53,7.53,0,0,1,1.45,2.45,8.05,8.05,0,0,1,.54,2.8Z"/><path id="Head-20" data-name="Head" class="cls-1" d="M1113.08,1785.52c12.35-2.75,18.57-14.08,16.51-28.37-1.91-13.18-9.58-20.2-26.07-18.43-8.36.9-11.52,3.9-14.51,7.73,0,10.16.49,20.28.79,30.42A23.62,23.62,0,0,0,1113.08,1785.52Z"/><g id="Buttons-10" data-name="Buttons"><g id="Bottom-10" data-name="Bottom"><ellipse id="Base1-10" data-name="Base1" class="cls-1" cx="1108.23" cy="1777.59" rx="4.32" ry="3.84" transform="translate(-52.81 34.03) rotate(-1.72)"/><ellipse id="Base2-10" data-name="Base2" class="cls-1" cx="1098.75" cy="1777.74" rx="2.93" ry="2.88" transform="translate(-52.82 33.75) rotate(-1.72)"/></g><g id="ButtonShades-10" data-name="ButtonShades"><path id="_1.1-10" data-name="1.1" class="cls-1" d="M1112,1777a7.18,7.18,0,0,0-1.07-1.13,4,4,0,0,0-1.25-.77,3.46,3.46,0,0,0-1.45-.25,10.85,10.85,0,0,0-1.55.18,4.08,4.08,0,0,1,1.49-.59,3.19,3.19,0,0,1,1.65.18,3.54,3.54,0,0,1,1.36,1A2.91,2.91,0,0,1,1112,1777Z"/><path id="_1.2-10" data-name="1.2" class="cls-1" d="M1109.22,1779.87a1.33,1.33,0,0,1-.42.52,1.27,1.27,0,0,1-.66.22,1.23,1.23,0,0,1-.69-.18c-.07,0-.09-.07-.12-.11l-.12-.11a1.45,1.45,0,0,1-.19-.29c.1,0,.21.08.3.1s.19.09.28.11a1.41,1.41,0,0,0,.53.07,1,1,0,0,0,.52-.13A1.45,1.45,0,0,0,1109.22,1779.87Z"/><path id="_2.2-10" data-name="2.2" class="cls-1" d="M1100,1779.33a1.28,1.28,0,0,1-.42.51,1.34,1.34,0,0,1-.65.23,1.37,1.37,0,0,1-.7-.19.15.15,0,0,1-.11-.11l-.12-.11a1.45,1.45,0,0,1-.19-.29l.3.1c.09,0,.18.09.27.11a1.67,1.67,0,0,0,.53.08,1.25,1.25,0,0,0,.53-.13A2.1,2.1,0,0,0,1100,1779.33Z"/><path id="_2.1-10" data-name="2.1" class="cls-1" d="M1100.87,1776.87a4.5,4.5,0,0,0-.84-.61,2.45,2.45,0,0,0-.93-.32.89.89,0,0,0-.22,0h-.74a1.13,1.13,0,0,0-.25,0l-.25,0a4.82,4.82,0,0,1-.52.11,2.39,2.39,0,0,1,.47-.29l.25-.12c.09,0,.18-.08.27-.1a.88.88,0,0,0,.27-.06h.58a.94.94,0,0,1,.29,0,2.41,2.41,0,0,1,1,.45A3.63,3.63,0,0,1,1100.87,1776.87Z"/></g></g><path id="Face-10" data-name="Face" class="cls-1" d="M1093.39,1766.06l-.51-17.23a7.15,7.15,0,0,1,7-7.26l13.55-.41a7.51,7.51,0,0,1,7.79,7.16l.51,17.06a5.22,5.22,0,0,1-5.13,5.3l-17.59.52A5.37,5.37,0,0,1,1093.39,1766.06Z"/></g></g></g><circle id="OuterShell-22" data-name="OuterShell" class="cls-1" cx="1084.42" cy="1759" r="52.63"/></g><line class="cls-1" x1="1137.86" y1="1637.99" x2="1146.41" y2="1874.9"/><line class="cls-1" x1="1024.21" y1="1641.52" x2="1032.76" y2="1878.43"/><line class="cls-5" x1="1132.98" y1="1641.73" x2="1029" y2="1645.77"/><line class="cls-5" x1="1132.92" y1="1646.53" x2="1028.95" y2="1650.57"/><line class="cls-5" x1="1132.87" y1="1651.33" x2="1028.9" y2="1655.37"/><line class="cls-5" x1="1140.12" y1="1861.03" x2="1036.15" y2="1865.07"/><line class="cls-5" x1="1140.07" y1="1865.83" x2="1036.1" y2="1869.87"/><line class="cls-5" x1="1140.01" y1="1870.63" x2="1036.04" y2="1874.67"/><rect class="cls-26" x="951.5" y="1626.59" width="128" height="248" transform="translate(1201.18 3765.87) rotate(-155.15)"/><g id="Astronaut-11" data-name="Astronaut"><g class="cls-27"><g id="AstronautProfile-11" data-name="AstronautProfile"><g id="Body-11" data-name="Body"><path id="Neck-11" data-name="Neck" class="cls-1" d="M1024.8,1740.44a3.35,3.35,0,0,0-3.53-1.64c-2.56.36-13,28.13-13,28.13s1.71,2.68,3.53,1.64Z"/><path id="LaptopBase-11" data-name="LaptopBase" class="cls-1" d="M963.37,1735.55l20.73-43.39a1.6,1.6,0,0,1,2.16-.71l27,12.85a5.1,5.1,0,0,1,2.57,6.76l-17.77,37.22a5.11,5.11,0,0,1-6.87,2.26l-27-12.84A1.64,1.64,0,0,1,963.37,1735.55Z"/><path id="Arm-11" data-name="Arm" class="cls-1" d="M992.79,1776.68c8.91-2.2,11.07-13.11,4.07-20.64-.07-.06-.12-.13-.17-.18a8,8,0,0,0-7.27-2.53l-14.73,3a3.18,3.18,0,0,1-3.59-2.7,52.7,52.7,0,0,0-3.41-14.06l-3.68-1.75a1.65,1.65,0,0,1-.85-2.16l1.08-2.26c-.19-.26-.39-.51-.6-.76a3.14,3.14,0,0,0-.25-.32,52.07,52.07,0,0,0,7.77,46.66C978.27,1779.68,986.49,1778.27,992.79,1776.68Z"/><path id="SuitBox-11" data-name="SuitBox" class="cls-1" d="M997.29,1749.67l3.61,1.67a6.07,6.07,0,0,0,8-2.93l5.64-12.18a6.07,6.07,0,0,0-3-8l-3-1.41-10.24,21.43A4.59,4.59,0,0,1,997.29,1749.67Z"/><path id="Shoulders-11" data-name="Shoulders" class="cls-1" d="M998.48,1775.52c3.57-2.12,9.87-9.75,9.87-9.75l11.65-26.93a29.08,29.08,0,0,0-5.92-15.46,21.18,21.18,0,0,0-2.69-2.74l-13.2,27.66a5.11,5.11,0,0,1-6.87,2.26l-27-12.84a1.63,1.63,0,0,1-.84-2.15l16.69-34.94-.37-.21s-3.92-5.62-20.78,17,3.11,51.49,3.11,51.49L971.3,1779S992.18,1779.29,998.48,1775.52Z"/></g><g id="Head-21" data-name="Head"><path id="FaceReflect-11" data-name="FaceReflect" class="cls-1" d="M1051.29,1758.58c.07-.47.13-.95.17-1.41a10.31,10.31,0,0,0,0-1.36,8.17,8.17,0,0,0-.34-2.58,8.74,8.74,0,0,0-.41-1.22c-.09-.19-.17-.41-.28-.61s-.12-.18-.16-.3l-.16-.3a20.47,20.47,0,0,0-1.62-2.29l.06-.07c.19.14.37.3.55.45l.26.25a1.54,1.54,0,0,1,.26.25l.49.53a2.53,2.53,0,0,1,.23.26l.22.3a7.52,7.52,0,0,1,1.27,2.58,8.33,8.33,0,0,1-.57,5.58Z"/><path id="Head-22" data-name="Head" class="cls-1" d="M1029.2,1787.09c12.27,3.07,22.91-4.28,27.46-18,4.18-12.63.46-22.34-15.08-28.14-7.88-2.93-12-1.66-16.44.43-4.54,9.08-8.63,18.35-12.89,27.56A23.6,23.6,0,0,0,1029.2,1787.09Z"/><g id="Buttons-11" data-name="Buttons"><g id="Bottom-11" data-name="Bottom"><ellipse id="Base1-11" data-name="Base1" class="cls-1" cx="1028.41" cy="1777.84" rx="3.84" ry="4.32" transform="translate(-1017.01 1963.78) rotate(-65.15)"/><ellipse id="Base2-11" data-name="Base2" class="cls-1" cx="1019.86" cy="1773.72" rx="2.88" ry="2.93" transform="translate(-1018.24 1953.63) rotate(-65.15)"/></g><g id="ButtonShades-11" data-name="ButtonShades"><path id="_1.1-11" data-name="1.1" class="cls-1" d="M1032,1779a7.16,7.16,0,0,0-.45-1.49,3.94,3.94,0,0,0-.78-1.25,3.36,3.36,0,0,0-1.18-.87,10.16,10.16,0,0,0-1.47-.53,4.11,4.11,0,0,1,1.6.13,3.22,3.22,0,0,1,1.39.9,3.57,3.57,0,0,1,.79,1.47A3,3,0,0,1,1032,1779Z"/><path id="_1.2-11" data-name="1.2" class="cls-1" d="M1028.27,1780.32a1.41,1.41,0,0,1-.61.27,1.33,1.33,0,0,1-.68-.09,1.31,1.31,0,0,1-.54-.48.18.18,0,0,1,0-.15l-.06-.15a1.29,1.29,0,0,1,0-.35c.07.06.15.17.22.23s.13.16.2.22a1.28,1.28,0,0,0,.44.3,1,1,0,0,0,.52.12A1.62,1.62,0,0,0,1028.27,1780.32Z"/><path id="_2.2-11" data-name="2.2" class="cls-1" d="M1020.24,1775.69a1.35,1.35,0,0,1-.61.27,1.38,1.38,0,0,1-.69-.09,1.22,1.22,0,0,1-.53-.48.17.17,0,0,1-.06-.15l-.06-.15a1.87,1.87,0,0,1,0-.35c.08.06.15.17.23.23s.12.16.2.22a1.43,1.43,0,0,0,.43.31,1.17,1.17,0,0,0,.53.11A1.94,1.94,0,0,0,1020.24,1775.69Z"/><path id="_2.1-11" data-name="2.1" class="cls-1" d="M1022.15,1773.9a5.46,5.46,0,0,0-.48-.93,2.39,2.39,0,0,0-.69-.69.75.75,0,0,0-.2-.12l-.1-.05-.12,0-.21-.1-.23-.1a.85.85,0,0,0-.24-.09l-.23-.08c-.18-.06-.35-.07-.52-.14a2.13,2.13,0,0,1,.55,0h.28a2.66,2.66,0,0,0,.28,0,1.38,1.38,0,0,0,.27.08l.27.12.13.06.12.06a1.3,1.3,0,0,1,.26.14,2.47,2.47,0,0,1,.71.86A3.55,3.55,0,0,1,1022.15,1773.9Z"/></g></g><path id="Face-11" data-name="Face" class="cls-1" d="M1020.3,1760.88l7.24-15.64a7.16,7.16,0,0,1,9.52-3.36l12.29,5.7a7.49,7.49,0,0,1,3.77,9.88l-7.18,15.49a5.21,5.21,0,0,1-7,2.45l-16-7.4A5.37,5.37,0,0,1,1020.3,1760.88Z"/></g></g></g><circle id="OuterShell-23" data-name="OuterShell" class="cls-1" cx="1015.42" cy="1750.56" r="52.63"/></g><line class="cls-1" x1="1117.35" y1="1666.23" x2="1019.02" y2="1881.94"/><line class="cls-1" x1="1014.13" y1="1618.55" x2="915.8" y2="1834.26"/><line class="cls-5" x1="1111.31" y1="1667.4" x2="1016.52" y2="1624.5"/><line class="cls-5" x1="1109.12" y1="1671.66" x2="1014.32" y2="1628.77"/><line class="cls-5" x1="1106.92" y1="1675.93" x2="1012.13" y2="1633.04"/><line class="cls-5" x1="1019.61" y1="1866.72" x2="924.81" y2="1823.83"/><line class="cls-5" x1="1017.41" y1="1870.99" x2="922.62" y2="1828.1"/><line class="cls-5" x1="1015.22" y1="1875.26" x2="920.42" y2="1832.36"/><rect class="cls-28" x="879.5" y="1608" width="128" height="248" transform="translate(656.12 3683.26) rotate(-143.04)"/><g id="Astronaut-12" data-name="Astronaut"><g class="cls-29"><g id="AstronautProfile-12" data-name="AstronautProfile"><g id="Body-12" data-name="Body"><path id="Neck-12" data-name="Neck" class="cls-1" d="M954.72,1724a3.34,3.34,0,0,0-3.11-2.34c-2.57-.19-18.63,24.78-18.63,24.78s1.1,3,3.1,2.33Z"/><path id="LaptopBase-12" data-name="LaptopBase" class="cls-1" d="M895.68,1706.36l29.37-38.08a1.61,1.61,0,0,1,2.26-.24l23.74,18.23a5.1,5.1,0,0,1,1.09,7.15L927,1726.08a5.11,5.11,0,0,1-7.19.78l-23.71-18.22A1.64,1.64,0,0,1,895.68,1706.36Z"/><path id="Arm-12" data-name="Arm" class="cls-1" d="M915.83,1752.75c9.16-.29,13.56-10.51,8.3-19.33a1.73,1.73,0,0,1-.13-.21,8,8,0,0,0-6.57-4l-15-.13a3.16,3.16,0,0,1-2.94-3.39,53.18,53.18,0,0,0-.39-14.47l-3.24-2.48a1.63,1.63,0,0,1-.37-2.28l1.53-2-.42-.88c0-.12-.12-.23-.19-.36a52.09,52.09,0,0,0-2.19,47.24C901,1752.64,909.33,1753,915.83,1752.75Z"/><path id="SuitBox-12" data-name="SuitBox" class="cls-1" d="M925.89,1727.28l3.18,2.39a6.06,6.06,0,0,0,8.47-1.18l8.07-10.72a6.08,6.08,0,0,0-1.21-8.47l-2.69-2-14.5,18.82A4.77,4.77,0,0,1,925.89,1727.28Z"/><path id="Shoulders-12" data-name="Shoulders" class="cls-1" d="M921.63,1752.81c3.94-1.33,11.7-7.47,11.7-7.47l17-23.89a29.08,29.08,0,0,0-2.54-16.36,20.76,20.76,0,0,0-2.06-3.23l-18.71,24.27a5.1,5.1,0,0,1-7.19.77l-23.71-18.22a1.62,1.62,0,0,1-.37-2.28l23.64-30.66-.32-.28s-2.66-6.32-23.88,12.28-7.76,51-7.76,51l6.87,11.77S914.68,1755.18,921.63,1752.81Z"/></g><g id="Head-23" data-name="Head"><path id="FaceReflect-12" data-name="FaceReflect" class="cls-1" d="M976.82,1747.31c.16-.44.33-.89.46-1.34a9.83,9.83,0,0,0,.34-1.32,8.13,8.13,0,0,0,.2-2.59,9.11,9.11,0,0,0-.14-1.28c0-.21-.08-.43-.15-.65s-.07-.2-.09-.33l-.1-.33a21.47,21.47,0,0,0-1.09-2.57l.07-.06a6.41,6.41,0,0,1,.44.56l.2.29a3.21,3.21,0,0,1,.21.3c.11.2.23.41.36.62a3.4,3.4,0,0,1,.18.3l.14.34a8.21,8.21,0,0,1,.49,1.37,9.15,9.15,0,0,1,.22,1.42,7.69,7.69,0,0,1-.41,2.82,8,8,0,0,1-1.32,2.52Z"/><path id="Head-24" data-name="Head" class="cls-1" d="M949.24,1770.56c11.36,5.57,23.3.62,30.62-11.83,6.74-11.48,5.14-21.75-8.84-30.68-7.09-4.52-11.43-4.15-16.16-3-6.35,7.93-12.29,16.14-18.39,24.25A23.63,23.63,0,0,0,949.24,1770.56Z"/><g id="Buttons-12" data-name="Buttons"><g id="Bottom-12" data-name="Bottom"><ellipse id="Base1-12" data-name="Base1" class="cls-1" cx="950.41" cy="1761.35" rx="3.84" ry="4.32" transform="translate(-1028.46 1461.85) rotate(-53.04)"/><ellipse id="Base2-12" data-name="Base2" class="cls-1" cx="942.91" cy="1755.53" rx="2.88" ry="2.93" transform="translate(-1026.8 1453.54) rotate(-53.04)"/></g><g id="ButtonShades-12" data-name="ButtonShades"><path id="_1.1-12" data-name="1.1" class="cls-1" d="M953.68,1763.24a6.71,6.71,0,0,0-.12-1.56,4.15,4.15,0,0,0-.5-1.38,3.51,3.51,0,0,0-1-1.1,9.92,9.92,0,0,0-1.32-.83,4.07,4.07,0,0,1,1.53.47,3.11,3.11,0,0,1,1.18,1.18,3.57,3.57,0,0,1,.46,1.6A3,3,0,0,1,953.68,1763.24Z"/><path id="_1.2-12" data-name="1.2" class="cls-1" d="M949.75,1763.74a1.29,1.29,0,0,1-.65.14,1.18,1.18,0,0,1-1.07-.81.19.19,0,0,1,0-.16l0-.16a1.42,1.42,0,0,1,0-.35c.06.08.11.2.17.27s.09.19.15.26a1.53,1.53,0,0,0,.37.39,1,1,0,0,0,.49.22A1.42,1.42,0,0,0,949.75,1763.74Z"/><path id="_2.2-12" data-name="2.2" class="cls-1" d="M942.87,1757.53a1.24,1.24,0,0,1-1.3-.09,1.25,1.25,0,0,1-.43-.58.19.19,0,0,1,0-.16l0-.16a1.42,1.42,0,0,1,0-.35c.06.08.11.2.17.27s.09.19.15.26a1.49,1.49,0,0,0,.36.39,1,1,0,0,0,.49.22A2,2,0,0,0,942.87,1757.53Z"/><path id="_2.1-12" data-name="2.1" class="cls-1" d="M945.11,1756.19a4.17,4.17,0,0,0-.27-1,2.24,2.24,0,0,0-.53-.82.78.78,0,0,0-.17-.16l-.09-.07-.11-.08-.18-.14-.2-.15a1,1,0,0,0-.22-.13l-.21-.14a3.45,3.45,0,0,1-.47-.24,3.06,3.06,0,0,1,.54.07l.27.06c.09,0,.19.06.28.09a1.12,1.12,0,0,0,.24.13l.24.18.11.08.11.08a1.42,1.42,0,0,1,.22.2,2.42,2.42,0,0,1,.52,1A3.55,3.55,0,0,1,945.11,1756.19Z"/></g></g><path id="Face-12" data-name="Face" class="cls-1" d="M946,1743.07l10.37-13.78a7.16,7.16,0,0,1,10-1.29l10.83,8.15a7.5,7.5,0,0,1,1.61,10.46l-10.26,13.64a5.22,5.22,0,0,1-7.31.93l-14.07-10.59A5.37,5.37,0,0,1,946,1743.07Z"/></g></g></g><circle id="OuterShell-24" data-name="OuterShell" class="cls-1" cx="943.43" cy="1731.95" r="52.63"/></g><line class="cls-1" x1="1060.78" y1="1670.87" x2="919.4" y2="1861.17"/><line class="cls-1" x1="969.85" y1="1602.61" x2="828.47" y2="1792.9"/><line class="cls-5" x1="1054.63" y1="1670.74" x2="970.93" y2="1608.92"/><line class="cls-5" x1="1051.58" y1="1674.46" x2="967.89" y2="1612.64"/><line class="cls-5" x1="1048.54" y1="1678.17" x2="964.85" y2="1616.35"/><line class="cls-5" x1="923.16" y1="1846.41" x2="839.47" y2="1784.59"/><line class="cls-5" x1="920.12" y1="1850.12" x2="836.43" y2="1788.3"/><line class="cls-5" x1="917.08" y1="1853.84" x2="833.39" y2="1792.02"/><path class="cls-30" d="M931.84,893.49S504.41,1189.75,515.23,1540c0,0,297.58-298.12,416.61-193.78Z"/><path class="cls-31" d="M794.91,1039.78q-19.57,25.58-38.48,51.23a69.19,69.19,0,0,1-5.28,5.93c-1.82,1.93-3.53,4-5.28,5.94q-5.22,6-10.37,12-10.29,12.09-20.31,24.43a1162.37,1162.37,0,0,0-74.77,102.57c-22.85,35.54-43.5,72.55-59.85,111.31q-6.08,14.55-11.3,29.4l-2.51,7.45c-.82,2.48-1.58,5-2.37,7.49s-1.54,5-2.19,7.53a72.85,72.85,0,0,1-2.12,7.55A371,371,0,0,0,543,1473.79c-.16-2.67-.31-5.35-.43-8s-.11-5.38-.17-8.09.07-5.39.14-8.09l.12-4.06.23-4.06c.25-5.42.85-10.8,1.39-16.22l1.06-8.08c.36-2.7.84-5.37,1.25-8.07a36.07,36.07,0,0,1,.88-4c.39-1.3.84-2.58,1.25-3.87.81-2.58,1.49-5.21,2.34-7.78s1.6-5.17,2.44-7.74l2.6-7.68q5.36-15.3,11.61-30.22c16.77-39.76,37.8-77.4,61-113.47a1176,1176,0,0,1,75.67-103.81q10.13-12.46,20.52-24.69,5.2-6.11,10.48-12.16c1.74-2,3.54-4,5.24-6.07a60.88,60.88,0,0,1,5.32-6q11.77-11,24-21.51C778,1053.08,786.33,1046.26,794.91,1039.78Z"/><path class="cls-32" d="M1232.22,893.49s427.43,296.26,416.61,646.55c0,0-297.58-298.12-416.61-193.78Z"/><path class="cls-31" d="M1362.38,1039.78c8.57,6.48,16.88,13.3,25,20.31s16.15,14.17,24,21.51a60.78,60.78,0,0,1,5.31,6c1.71,2.06,3.5,4,5.25,6.07q5.28,6,10.48,12.16,10.4,12.23,20.52,24.69a1176,1176,0,0,1,75.67,103.81c23.18,36.07,44.22,73.71,61,113.47q6.24,14.92,11.62,30.22l2.6,7.68c.84,2.57,1.62,5.16,2.44,7.74s1.52,5.2,2.34,7.78c.4,1.29.86,2.57,1.24,3.87a32,32,0,0,1,.88,4c.42,2.7.9,5.37,1.26,8.07l1.06,8.08c.54,5.42,1.14,10.8,1.39,16.22l.23,4.06.12,4.06c.07,2.7.19,5.39.14,8.09s0,5.39-.17,8.09-.27,5.37-.43,8a371,371,0,0,0-17.13-61.13,72.85,72.85,0,0,1-2.12-7.55c-.66-2.53-1.4-5-2.19-7.53s-1.55-5-2.37-7.49l-2.52-7.45q-5.19-14.85-11.29-29.4c-16.35-38.76-37-75.77-59.85-111.31a1164.4,1164.4,0,0,0-74.77-102.57q-10-12.33-20.32-24.43-5.15-6.06-10.36-12c-1.75-2-3.46-4-5.28-5.94a67.54,67.54,0,0,1-5.28-5.93Q1381.9,1065.33,1362.38,1039.78Z"/><path class="cls-33" d="M1233.91,1670.89c286.61-719.07,0-1322.9,0-1322.9H916s-286.62,603.83,0,1322.9Z"/><path class="cls-34" d="M1233.91,348s-69.72-239.69-159-318H1073C983.74,108.3,914,348,914,348Z"/><path class="cls-35" d="M1074.93,929.35s91.53,566.17,0,654.87h-5.17c-91.53-88.7,0-654.87,0-654.87Z"/><path class="cls-31" d="M1072.35,991.78c2.5,23,4.27,46.07,6.06,69.1-.12,23,0,46.07-.06,69.11v345.5c-1.83,23-3.6,46.07-6,69.11-2.41-23-4.18-46.07-6-69.11V1130c0-23,.06-46.07-.06-69.11C1068.08,1037.85,1069.85,1014.82,1072.35,991.78Z"/><path class="cls-31" d="M925.19,395.46c-5,12.44-9.48,25-13.79,37.71s-8.45,25.38-12.35,38.17-7.67,25.61-11.27,38.49-7,25.8-10.28,38.75q-9.82,38.85-17.91,78.1c-5.36,26.17-10.28,52.42-14.53,78.77L842,725.23,839.08,745l-2.72,19.83-2.51,19.86q-4.8,39.75-7.88,79.66c-2.05,26.6-3.75,53.23-4.66,79.89s-1.54,53.33-1.41,80A1957.64,1957.64,0,0,0,847.08,1343c2.31,13.15,4.5,26.32,7.1,39.42,1.28,6.55,2.47,13.12,3.82,19.66l4,19.62c.69,3.26,1.32,6.54,2,9.8l2.18,9.78,4.36,19.56,4.69,19.49c1.57,6.49,3.11,13,4.81,19.45,13,51.85,28.29,103.16,45.07,154-19.71-49.82-36.75-100.72-51.7-152.25s-27.13-103.88-37.16-156.65l-1-4.94-.89-5-1.76-9.91-1.77-9.92-.88-5-.8-5-3.14-19.9-.78-5-.7-5-1.4-10c-2-13.29-3.54-26.63-5.21-40-.83-6.67-1.47-13.36-2.22-20s-1.48-13.36-2.05-20.05l-1.84-20.07-1.5-20.1c-.24-3.35-.51-6.7-.72-10.05l-.6-10.06c-.37-6.71-.84-13.41-1.13-20.13l-.85-20.14c-.29-6.71-.4-13.43-.6-20.14l-.28-10.08-.14-10.08c-.06-6.71-.22-13.43-.21-20.15q-.09-40.32,1.61-80.61t5.28-80.43c4.85-53.52,11.75-106.87,21.54-159.69l3.74-19.79L842,664.06l4.18-19.7q2.19-9.83,4.47-19.63,9.23-39.21,20.23-77.94c7.52-25.76,15.54-51.37,24.48-76.66S913.92,419.77,925.19,395.46Z"/><path class="cls-31" d="M1073.78,58.26l-12.3,21.54c-4,7.17-8,14.26-11.94,21.43s-7.79,14.31-11.62,21.48c-1.85,3.62-3.79,7.19-5.68,10.78l-5.53,10.86c-7.26,14.51-14.53,29.05-21.32,43.87-1.7,3.71-3.61,7.34-5.22,11.1s-3.39,7.45-5.15,11.17-3.4,7.48-5.16,11.23-3.54,7.5-5.48,11.23q.72-6.21,1.75-12.39c.69-4.11,1.36-8.24,2.38-12.27s2-8.1,3-12.13l.8-3c.29-1,.61-2,.92-3,.62-2,1.23-4,1.89-6a311.5,311.5,0,0,1,19.1-46.19l5.84-11.06c2.12-3.59,4.18-7.22,6.33-10.79,1.06-1.8,2.19-3.55,3.32-5.3s2.27-3.5,3.42-5.24c2.23-3.52,4.71-6.88,7.14-10.27,4.89-6.75,10.12-13.26,15.63-19.53,2.81-3.09,5.6-6.18,8.59-9.1A119.66,119.66,0,0,1,1073.78,58.26Z"/><path class="cls-31" d="M977.79,248.88a17.44,17.44,0,0,1,3.61,7.76A15.12,15.12,0,0,1,978,269.32a17.39,17.39,0,0,1-7,4.91,17.51,17.51,0,0,1-3.63-7.76,15,15,0,0,1,.26-6.72,15.27,15.27,0,0,1,3.15-5.95A17.73,17.73,0,0,1,977.79,248.88Z"/><path class="cls-31" d="M962.54,295.16a17.69,17.69,0,0,1,3.61,7.75,15.16,15.16,0,0,1-.24,6.73,15,15,0,0,1-3.13,6,17.49,17.49,0,0,1-7,4.91,17.51,17.51,0,0,1-3.63-7.76,15,15,0,0,1,.26-6.72,15.14,15.14,0,0,1,3.15-5.95A17.63,17.63,0,0,1,962.54,295.16Z"/><polygon class="cls-36" points="914.02 347.99 901.67 381.63 1248.19 381.63 1233.91 347.99 914.02 347.99"/><circle class="cls-12" cx="993" cy="1778" r="26.5"/><circle class="cls-12" cx="993.5" cy="1777.5" r="12"/><text></text><circle class="cls-12" cx="1241" cy="1831" r="26.5"/><circle class="cls-12" cx="1241.5" cy="1830.5" r="12"/><circle class="cls-12" cx="858" cy="1840" r="26.5"/><circle class="cls-12" cx="858.5" cy="1839.5" r="12"/></svg>