<svg xmlns="http://www.w3.org/2000/svg" xmlns:xlink="http://www.w3.org/1999/xlink" viewBox="0 0 2048 2048"><defs><style>.cls-1{fill:#2a6872;}.cls-2{fill:#372c3f;}.cls-3{clip-path:url(#clip-path);}.cls-10,.cls-100,.cls-101,.cls-102,.cls-103,.cls-104,.cls-105,.cls-106,.cls-107,.cls-108,.cls-109,.cls-11,.cls-110,.cls-111,.cls-112,.cls-113,.cls-114,.cls-115,.cls-116,.cls-117,.cls-118,.cls-119,.cls-12,.cls-120,.cls-121,.cls-122,.cls-123,.cls-124,.cls-125,.cls-126,.cls-127,.cls-128,.cls-129,.cls-13,.cls-130,.cls-131,.cls-132,.cls-133,.cls-134,.cls-135,.cls-136,.cls-137,.cls-138,.cls-139,.cls-14,.cls-140,.cls-141,.cls-142,.cls-143,.cls-144,.cls-145,.cls-146,.cls-147,.cls-148,.cls-149,.cls-15,.cls-150,.cls-151,.cls-152,.cls-153,.cls-154,.cls-155,.cls-156,.cls-157,.cls-158,.cls-159,.cls-16,.cls-160,.cls-161,.cls-162,.cls-163,.cls-164,.cls-165,.cls-166,.cls-167,.cls-168,.cls-169,.cls-17,.cls-170,.cls-171,.cls-172,.cls-173,.cls-174,.cls-175,.cls-176,.cls-177,.cls-178,.cls-179,.cls-18,.cls-180,.cls-181,.cls-182,.cls-183,.cls-184,.cls-185,.cls-186,.cls-187,.cls-188,.cls-189,.cls-19,.cls-190,.cls-191,.cls-192,.cls-193,.cls-194,.cls-195,.cls-196,.cls-197,.cls-198,.cls-199,.cls-20,.cls-200,.cls-201,.cls-202,.cls-203,.cls-204,.cls-205,.cls-206,.cls-207,.cls-208,.cls-209,.cls-21,.cls-210,.cls-211,.cls-212,.cls-213,.cls-214,.cls-215,.cls-216,.cls-217,.cls-218,.cls-219,.cls-22,.cls-220,.cls-221,.cls-222,.cls-223,.cls-224,.cls-225,.cls-226,.cls-227,.cls-228,.cls-229,.cls-23,.cls-230,.cls-231,.cls-232,.cls-233,.cls-234,.cls-235,.cls-236,.cls-237,.cls-238,.cls-239,.cls-24,.cls-240,.cls-241,.cls-242,.cls-243,.cls-244,.cls-245,.cls-246,.cls-247,.cls-248,.cls-249,.cls-25,.cls-26,.cls-27,.cls-28,.cls-29,.cls-30,.cls-31,.cls-32,.cls-33,.cls-34,.cls-35,.cls-36,.cls-37,.cls-38,.cls-39,.cls-4,.cls-40,.cls-41,.cls-42,.cls-43,.cls-44,.cls-45,.cls-46,.cls-47,.cls-48,.cls-49,.cls-5,.cls-50,.cls-51,.cls-52,.cls-53,.cls-54,.cls-55,.cls-56,.cls-57,.cls-58,.cls-59,.cls-6,.cls-60,.cls-61,.cls-62,.cls-63,.cls-64,.cls-65,.cls-66,.cls-67,.cls-68,.cls-69,.cls-7,.cls-70,.cls-71,.cls-72,.cls-73,.cls-74,.cls-75,.cls-76,.cls-77,.cls-78,.cls-79,.cls-8,.cls-80,.cls-81,.cls-82,.cls-83,.cls-84,.cls-85,.cls-86,.cls-87,.cls-88,.cls-89,.cls-9,.cls-90,.cls-91,.cls-92,.cls-93,.cls-94,.cls-95,.cls-96,.cls-97,.cls-98,.cls-99{opacity:0.37;}.cls-4{fill:url(#linear-gradient);}.cls-5{fill:url(#linear-gradient-2);}.cls-6{fill:url(#linear-gradient-3);}.cls-7{fill:url(#linear-gradient-4);}.cls-8{fill:url(#linear-gradient-5);}.cls-9{fill:url(#linear-gradient-6);}.cls-10{fill:url(#linear-gradient-7);}.cls-11{fill:url(#linear-gradient-8);}.cls-12{fill:url(#linear-gradient-9);}.cls-13{fill:url(#linear-gradient-10);}.cls-14{fill:url(#linear-gradient-11);}.cls-15{fill:url(#linear-gradient-12);}.cls-16{fill:url(#linear-gradient-13);}.cls-17{fill:url(#linear-gradient-14);}.cls-18{fill:url(#linear-gradient-15);}.cls-19{fill:url(#linear-gradient-16);}.cls-20{fill:url(#linear-gradient-17);}.cls-21{fill:url(#linear-gradient-18);}.cls-22{fill:url(#linear-gradient-19);}.cls-23{fill:url(#linear-gradient-20);}.cls-24{fill:url(#linear-gradient-21);}.cls-25{fill:url(#linear-gradient-22);}.cls-26{fill:url(#linear-gradient-23);}.cls-27{fill:url(#linear-gradient-24);}.cls-28{fill:url(#linear-gradient-25);}.cls-29{fill:url(#linear-gradient-26);}.cls-30{fill:url(#linear-gradient-27);}.cls-31{fill:url(#linear-gradient-28);}.cls-32{fill:url(#linear-gradient-29);}.cls-33{fill:url(#linear-gradient-30);}.cls-34{fill:url(#linear-gradient-31);}.cls-35{fill:url(#linear-gradient-32);}.cls-36{fill:url(#linear-gradient-33);}.cls-37{fill:url(#linear-gradient-34);}.cls-38{fill:url(#linear-gradient-35);}.cls-39{fill:url(#linear-gradient-36);}.cls-40{fill:url(#linear-gradient-37);}.cls-41{fill:url(#linear-gradient-38);}.cls-42{fill:url(#linear-gradient-39);}.cls-43{fill:url(#linear-gradient-40);}.cls-44{fill:url(#linear-gradient-41);}.cls-45{fill:url(#linear-gradient-42);}.cls-46{fill:url(#linear-gradient-43);}.cls-47{fill:url(#linear-gradient-44);}.cls-48{fill:url(#linear-gradient-45);}.cls-49{fill:url(#linear-gradient-46);}.cls-50{fill:url(#linear-gradient-47);}.cls-51{fill:url(#linear-gradient-48);}.cls-52{fill:url(#linear-gradient-49);}.cls-53{fill:url(#linear-gradient-50);}.cls-54{fill:url(#linear-gradient-51);}.cls-55{fill:url(#linear-gradient-52);}.cls-56{fill:url(#linear-gradient-53);}.cls-57{fill:url(#linear-gradient-54);}.cls-58{fill:url(#linear-gradient-55);}.cls-59{fill:url(#linear-gradient-56);}.cls-60{fill:url(#linear-gradient-57);}.cls-61{fill:url(#linear-gradient-58);}.cls-62{fill:url(#linear-gradient-59);}.cls-63{fill:url(#linear-gradient-60);}.cls-64{fill:url(#linear-gradient-61);}.cls-65{fill:url(#linear-gradient-62);}.cls-66{fill:url(#linear-gradient-63);}.cls-67{fill:url(#linear-gradient-64);}.cls-68{fill:url(#linear-gradient-65);}.cls-69{fill:url(#linear-gradient-66);}.cls-70{fill:url(#linear-gradient-67);}.cls-71{fill:url(#linear-gradient-68);}.cls-72{fill:url(#linear-gradient-69);}.cls-73{fill:url(#linear-gradient-70);}.cls-74{fill:url(#linear-gradient-71);}.cls-75{fill:url(#linear-gradient-72);}.cls-76{fill:url(#linear-gradient-73);}.cls-77{fill:url(#linear-gradient-74);}.cls-78{fill:url(#linear-gradient-75);}.cls-79{fill:url(#linear-gradient-76);}.cls-80{fill:url(#linear-gradient-77);}.cls-81{fill:url(#linear-gradient-78);}.cls-82{fill:url(#linear-gradient-79);}.cls-83{fill:url(#linear-gradient-80);}.cls-84{fill:url(#linear-gradient-81);}.cls-85{fill:url(#linear-gradient-82);}.cls-86{fill:url(#linear-gradient-83);}.cls-87{fill:url(#linear-gradient-84);}.cls-88{fill:url(#linear-gradient-85);}.cls-89{fill:url(#linear-gradient-86);}.cls-90{fill:url(#linear-gradient-87);}.cls-91{fill:url(#linear-gradient-88);}.cls-92{fill:url(#linear-gradient-89);}.cls-93{fill:url(#linear-gradient-90);}.cls-94{fill:url(#linear-gradient-91);}.cls-95{fill:url(#linear-gradient-92);}.cls-96{fill:url(#linear-gradient-93);}.cls-97{fill:url(#linear-gradient-94);}.cls-98{fill:url(#linear-gradient-95);}.cls-99{fill:url(#linear-gradient-96);}.cls-100{fill:url(#linear-gradient-97);}.cls-101{fill:url(#linear-gradient-98);}.cls-102{fill:url(#linear-gradient-99);}.cls-103{fill:url(#linear-gradient-100);}.cls-104{fill:url(#linear-gradient-101);}.cls-105{fill:url(#linear-gradient-102);}.cls-106{fill:url(#linear-gradient-103);}.cls-107{fill:url(#linear-gradient-104);}.cls-108{fill:url(#linear-gradient-105);}.cls-109{fill:url(#linear-gradient-106);}.cls-110{fill:url(#linear-gradient-107);}.cls-111{fill:url(#linear-gradient-108);}.cls-112{fill:url(#linear-gradient-109);}.cls-113{fill:url(#linear-gradient-110);}.cls-114{fill:url(#linear-gradient-111);}.cls-115{fill:url(#linear-gradient-112);}.cls-116{fill:url(#linear-gradient-113);}.cls-117{fill:url(#linear-gradient-114);}.cls-118{fill:url(#linear-gradient-115);}.cls-119{fill:url(#linear-gradient-116);}.cls-120{fill:url(#linear-gradient-117);}.cls-121{fill:url(#linear-gradient-118);}.cls-122{fill:url(#linear-gradient-119);}.cls-123{fill:url(#linear-gradient-120);}.cls-124{fill:url(#linear-gradient-121);}.cls-125{fill:url(#linear-gradient-122);}.cls-126{fill:url(#linear-gradient-123);}.cls-127{fill:url(#linear-gradient-124);}.cls-128{fill:url(#linear-gradient-125);}.cls-129{fill:url(#linear-gradient-126);}.cls-130{fill:url(#linear-gradient-127);}.cls-131{fill:url(#linear-gradient-128);}.cls-132{fill:url(#linear-gradient-129);}.cls-133{fill:url(#linear-gradient-130);}.cls-134{fill:url(#linear-gradient-131);}.cls-135{fill:url(#linear-gradient-132);}.cls-136{fill:url(#linear-gradient-133);}.cls-137{fill:url(#linear-gradient-134);}.cls-138{fill:url(#linear-gradient-135);}.cls-139{fill:url(#linear-gradient-136);}.cls-140{fill:url(#linear-gradient-137);}.cls-141{fill:url(#linear-gradient-138);}.cls-142{fill:url(#linear-gradient-139);}.cls-143{fill:url(#linear-gradient-140);}.cls-144{fill:url(#linear-gradient-141);}.cls-145{fill:url(#linear-gradient-142);}.cls-146{fill:url(#linear-gradient-143);}.cls-147{fill:url(#linear-gradient-144);}.cls-148{fill:url(#linear-gradient-145);}.cls-149{fill:url(#linear-gradient-146);}.cls-150{fill:url(#linear-gradient-147);}.cls-151{fill:url(#linear-gradient-148);}.cls-152{fill:url(#linear-gradient-149);}.cls-153{fill:url(#linear-gradient-150);}.cls-154{fill:url(#linear-gradient-151);}.cls-155{fill:url(#linear-gradient-152);}.cls-156{fill:url(#linear-gradient-153);}.cls-157{fill:url(#linear-gradient-154);}.cls-158{fill:url(#linear-gradient-155);}.cls-159{fill:url(#linear-gradient-156);}.cls-160{fill:url(#linear-gradient-157);}.cls-161{fill:url(#linear-gradient-158);}.cls-162{fill:url(#linear-gradient-159);}.cls-163{fill:url(#linear-gradient-160);}.cls-164{fill:url(#linear-gradient-161);}.cls-165{fill:url(#linear-gradient-162);}.cls-166{fill:url(#linear-gradient-163);}.cls-167{fill:url(#linear-gradient-164);}.cls-168{fill:url(#linear-gradient-165);}.cls-169{fill:url(#linear-gradient-166);}.cls-170{fill:url(#linear-gradient-167);}.cls-171{fill:url(#linear-gradient-168);}.cls-172{fill:url(#linear-gradient-169);}.cls-173{fill:url(#linear-gradient-170);}.cls-174{fill:url(#linear-gradient-171);}.cls-175{fill:url(#linear-gradient-172);}.cls-176{fill:url(#linear-gradient-173);}.cls-177{fill:url(#linear-gradient-174);}.cls-178{fill:url(#linear-gradient-175);}.cls-179{fill:url(#linear-gradient-176);}.cls-180{fill:url(#linear-gradient-177);}.cls-181{fill:url(#linear-gradient-178);}.cls-182{fill:url(#linear-gradient-179);}.cls-183{fill:url(#linear-gradient-180);}.cls-184{fill:url(#linear-gradient-181);}.cls-185{fill:url(#linear-gradient-182);}.cls-186{fill:url(#linear-gradient-183);}.cls-187{fill:url(#linear-gradient-184);}.cls-188{fill:url(#linear-gradient-185);}.cls-189{fill:url(#linear-gradient-186);}.cls-190{fill:url(#linear-gradient-187);}.cls-191{fill:url(#linear-gradient-188);}.cls-192{fill:url(#linear-gradient-189);}.cls-193{fill:url(#linear-gradient-190);}.cls-194{fill:url(#linear-gradient-191);}.cls-195{fill:url(#linear-gradient-192);}.cls-196{fill:url(#linear-gradient-193);}.cls-197{fill:url(#linear-gradient-194);}.cls-198{fill:url(#linear-gradient-195);}.cls-199{fill:url(#linear-gradient-196);}.cls-200{fill:url(#linear-gradient-197);}.cls-201{fill:url(#linear-gradient-198);}.cls-202{fill:url(#linear-gradient-199);}.cls-203{fill:url(#linear-gradient-200);}.cls-204{fill:url(#linear-gradient-201);}.cls-205{fill:url(#linear-gradient-202);}.cls-206{fill:url(#linear-gradient-203);}.cls-207{fill:url(#linear-gradient-204);}.cls-208{fill:url(#linear-gradient-205);}.cls-209{fill:url(#linear-gradient-206);}.cls-210{fill:url(#linear-gradient-207);}.cls-211{fill:url(#linear-gradient-208);}.cls-212{fill:url(#linear-gradient-209);}.cls-213{fill:url(#linear-gradient-210);}.cls-214{fill:url(#linear-gradient-211);}.cls-215{fill:url(#linear-gradient-212);}.cls-216{fill:url(#linear-gradient-213);}.cls-217{fill:url(#linear-gradient-214);}.cls-218{fill:url(#linear-gradient-215);}.cls-219{fill:url(#linear-gradient-216);}.cls-220{fill:url(#linear-gradient-217);}.cls-221{fill:url(#linear-gradient-218);}.cls-222{fill:url(#linear-gradient-219);}.cls-223{fill:url(#linear-gradient-220);}.cls-224{fill:url(#linear-gradient-221);}.cls-225{fill:url(#linear-gradient-222);}.cls-226{fill:url(#linear-gradient-223);}.cls-227{fill:url(#linear-gradient-224);}.cls-228{fill:url(#linear-gradient-225);}.cls-229{fill:url(#linear-gradient-226);}.cls-230{fill:url(#linear-gradient-227);}.cls-231{fill:url(#linear-gradient-228);}.cls-232{fill:url(#linear-gradient-229);}.cls-233{fill:url(#linear-gradient-230);}.cls-234{fill:url(#linear-gradient-231);}.cls-235{fill:url(#linear-gradient-232);}.cls-236{fill:url(#linear-gradient-233);}.cls-237{fill:url(#linear-gradient-234);}.cls-238{fill:url(#linear-gradient-235);}.cls-239{fill:url(#linear-gradient-236);}.cls-240{fill:url(#linear-gradient-237);}.cls-241{fill:url(#linear-gradient-238);}.cls-242{fill:url(#linear-gradient-239);}.cls-243{fill:url(#linear-gradient-240);}.cls-244{fill:url(#linear-gradient-241);}.cls-245{fill:url(#linear-gradient-242);}.cls-246{fill:url(#linear-gradient-243);}.cls-247{fill:url(#linear-gradient-244);}.cls-248{fill:url(#linear-gradient-245);}.cls-249{fill:url(#linear-gradient-246);}</style><clipPath id="clip-path"><ellipse id="_Ellipse_" data-name="&lt;Ellipse&gt;" class="cls-1" cx="1014.4" cy="905.9" rx="939.6" ry="893.7"/></clipPath><linearGradient id="linear-gradient" x1="3979.08" y1="-3450.51" x2="5193.72" y2="-5653.38" gradientTransform="translate(5226.68 5138.28) rotate(-90.49)" gradientUnits="userSpaceOnUse"><stop offset="0" stop-color="#00072a"/><stop offset="1" stop-color="#2affe0"/></linearGradient><linearGradient id="linear-gradient-2" x1="4018.16" y1="-3434.03" x2="5230.6" y2="-5632.92" xlink:href="#linear-gradient"/><linearGradient id="linear-gradient-3" x1="4156.33" y1="-3370.85" x2="5362.07" y2="-5557.6" xlink:href="#linear-gradient"/><linearGradient id="linear-gradient-4" x1="4084.37" y1="-3393.6" x2="5300.57" y2="-5599.3" xlink:href="#linear-gradient"/><linearGradient id="linear-gradient-5" x1="4094.71" y1="-3402.68" x2="5301.36" y2="-5591.07" xlink:href="#linear-gradient"/><linearGradient id="linear-gradient-6" x1="3894.51" y1="-3510.8" x2="5100.15" y2="-5697.36" xlink:href="#linear-gradient"/><linearGradient id="linear-gradient-7" x1="4018.16" y1="-3436.46" x2="5228.82" y2="-5632.11" xlink:href="#linear-gradient"/><linearGradient id="linear-gradient-8" x1="3948.11" y1="-3474.73" x2="5158.18" y2="-5669.32" xlink:href="#linear-gradient"/><linearGradient id="linear-gradient-9" x1="4070.13" y1="-3410.35" x2="5279.92" y2="-5604.43" xlink:href="#linear-gradient"/><linearGradient id="linear-gradient-10" x1="4108.48" y1="-3389.48" x2="5318.56" y2="-5584.08" xlink:href="#linear-gradient"/><linearGradient id="linear-gradient-11" x1="4102.63" y1="-3384.44" x2="5319.04" y2="-5590.52" xlink:href="#linear-gradient"/><linearGradient id="linear-gradient-12" x1="4145.89" y1="-3365.76" x2="5358.77" y2="-5565.44" xlink:href="#linear-gradient"/><linearGradient id="linear-gradient-13" x1="4030.76" y1="-3424.95" x2="5244.91" y2="-5626.94" xlink:href="#linear-gradient"/><linearGradient id="linear-gradient-14" x1="4235.81" y1="-3314.15" x2="5450.95" y2="-5517.93" xlink:href="#linear-gradient"/><linearGradient id="linear-gradient-15" x1="4182.12" y1="-3349" x2="5393.04" y2="-5545.13" xlink:href="#linear-gradient"/><linearGradient id="linear-gradient-16" x1="4219.51" y1="-3335.38" x2="5426.46" y2="-5524.31" xlink:href="#linear-gradient"/><linearGradient id="linear-gradient-17" x1="4217.82" y1="-3337.29" x2="5422.98" y2="-5522.97" xlink:href="#linear-gradient"/><linearGradient id="linear-gradient-18" x1="4337.18" y1="-3259.95" x2="5553.29" y2="-5465.49" xlink:href="#linear-gradient"/><linearGradient id="linear-gradient-19" x1="4211.26" y1="-3339.48" x2="5416.91" y2="-5526.04" xlink:href="#linear-gradient"/><linearGradient id="linear-gradient-20" x1="4275.31" y1="-3302.11" x2="5484.34" y2="-5494.82" xlink:href="#linear-gradient"/><linearGradient id="linear-gradient-21" x1="4451.63" y1="-3199.89" x2="5667.57" y2="-5405.13" xlink:href="#linear-gradient"/><linearGradient id="linear-gradient-22" x1="4312.76" y1="-3283.24" x2="5520.66" y2="-5473.89" xlink:href="#linear-gradient"/><linearGradient id="linear-gradient-23" x1="4319.23" y1="-3272.57" x2="5533.87" y2="-5475.45" xlink:href="#linear-gradient"/><linearGradient id="linear-gradient-24" x1="4357.67" y1="-3254.94" x2="5570.12" y2="-5453.84" xlink:href="#linear-gradient"/><linearGradient id="linear-gradient-25" x1="4493.91" y1="-3188.27" x2="5699.66" y2="-5375.01" xlink:href="#linear-gradient"/><linearGradient id="linear-gradient-26" x1="4424.97" y1="-3216.48" x2="5641.17" y2="-5422.19" xlink:href="#linear-gradient"/><linearGradient id="linear-gradient-27" x1="4432.56" y1="-3220.57" x2="5639.21" y2="-5408.96" xlink:href="#linear-gradient"/><linearGradient id="linear-gradient-28" x1="4232.06" y1="-3328.16" x2="5437.71" y2="-5514.72" xlink:href="#linear-gradient"/><linearGradient id="linear-gradient-29" x1="4357.17" y1="-3256.44" x2="5567.82" y2="-5452.09" xlink:href="#linear-gradient"/><linearGradient id="linear-gradient-30" x1="4286.94" y1="-3294.4" x2="5497.02" y2="-5488.99" xlink:href="#linear-gradient"/><linearGradient id="linear-gradient-31" x1="4408.88" y1="-3229.88" x2="5618.67" y2="-5423.95" xlink:href="#linear-gradient"/><linearGradient id="linear-gradient-32" x1="4447.32" y1="-3209.16" x2="5657.4" y2="-5403.76" xlink:href="#linear-gradient"/><linearGradient id="linear-gradient-33" x1="4443.29" y1="-3207.43" x2="5659.7" y2="-5413.51" xlink:href="#linear-gradient"/><linearGradient id="linear-gradient-34" x1="4485.53" y1="-3186.91" x2="5698.41" y2="-5386.58" xlink:href="#linear-gradient"/><linearGradient id="linear-gradient-35" x1="4370.77" y1="-3246.76" x2="5584.92" y2="-5448.75" xlink:href="#linear-gradient"/><linearGradient id="linear-gradient-36" x1="4576.1" y1="-3136.47" x2="5791.24" y2="-5340.25" xlink:href="#linear-gradient"/><linearGradient id="linear-gradient-37" x1="4521.2" y1="-3169.12" x2="5732.12" y2="-5365.25" xlink:href="#linear-gradient"/><linearGradient id="linear-gradient-38" x1="4557.44" y1="-3153.42" x2="5764.39" y2="-5342.35" xlink:href="#linear-gradient"/><linearGradient id="linear-gradient-39" x1="4555.23" y1="-3154.39" x2="5760.39" y2="-5340.08" xlink:href="#linear-gradient"/><linearGradient id="linear-gradient-40" x1="4677.75" y1="-3082.78" x2="5893.86" y2="-5288.33" xlink:href="#linear-gradient"/><linearGradient id="linear-gradient-41" x1="4548.82" y1="-3156.84" x2="5754.46" y2="-5343.4" xlink:href="#linear-gradient"/><linearGradient id="linear-gradient-42" x1="4613.84" y1="-3121.25" x2="5822.87" y2="-5313.95" xlink:href="#linear-gradient"/><linearGradient id="linear-gradient-43" x1="4792.16" y1="-3022.64" x2="6008.1" y2="-5227.88" xlink:href="#linear-gradient"/><linearGradient id="linear-gradient-44" x1="4650.97" y1="-3101.78" x2="5858.87" y2="-5292.43" xlink:href="#linear-gradient"/><linearGradient id="linear-gradient-45" x1="4582.11" y1="-3134.99" x2="5798.52" y2="-5341.07" xlink:href="#linear-gradient"/><linearGradient id="linear-gradient-46" x1="4692.97" y1="-3080" x2="5898.13" y2="-5265.68" xlink:href="#linear-gradient"/><linearGradient id="linear-gradient-47" x1="4816.54" y1="-3010.29" x2="6032.65" y2="-5215.84" xlink:href="#linear-gradient"/><linearGradient id="linear-gradient-48" x1="4686.6" y1="-3082.52" x2="5892.25" y2="-5269.09" xlink:href="#linear-gradient"/><linearGradient id="linear-gradient-49" x1="4788.97" y1="-3027.86" x2="5996.87" y2="-5218.51" xlink:href="#linear-gradient"/><linearGradient id="linear-gradient-50" x1="3350.77" y1="-3168.07" x2="4565.26" y2="-5370.66" xlink:href="#linear-gradient"/><linearGradient id="linear-gradient-51" x1="3554.41" y1="-3057.6" x2="4769.35" y2="-5261.01" xlink:href="#linear-gradient"/><linearGradient id="linear-gradient-52" x1="3672.92" y1="-3008.66" x2="4881.26" y2="-5200.11" xlink:href="#linear-gradient"/><linearGradient id="linear-gradient-53" x1="3449" y1="-3122.18" x2="4660.25" y2="-5318.91" xlink:href="#linear-gradient"/><linearGradient id="linear-gradient-54" x1="3160.13" y1="-3277.73" x2="4370.26" y2="-5472.44" xlink:href="#linear-gradient"/><linearGradient id="linear-gradient-55" x1="3175.59" y1="-3270.71" x2="4385.14" y2="-5464.34" xlink:href="#linear-gradient"/><linearGradient id="linear-gradient-56" x1="3274.68" y1="-3226.07" x2="4479.65" y2="-5411.41" xlink:href="#linear-gradient"/><linearGradient id="linear-gradient-57" x1="3355.04" y1="-3163.71" x2="4571.35" y2="-5369.62" xlink:href="#linear-gradient"/><linearGradient id="linear-gradient-58" x1="3275.38" y1="-3212.8" x2="4487.73" y2="-5411.52" xlink:href="#linear-gradient"/><linearGradient id="linear-gradient-59" x1="3276.98" y1="-3209.13" x2="4490.89" y2="-5410.68" xlink:href="#linear-gradient"/><linearGradient id="linear-gradient-60" x1="3493.49" y1="-3100.26" x2="4703.76" y2="-5295.2" xlink:href="#linear-gradient"/><linearGradient id="linear-gradient-61" x1="3330.55" y1="-3184.78" x2="4541.91" y2="-5381.7" xlink:href="#linear-gradient"/><linearGradient id="linear-gradient-62" x1="3363.08" y1="-3166.82" x2="4574.85" y2="-5364.48" xlink:href="#linear-gradient"/><linearGradient id="linear-gradient-63" x1="3446.4" y1="-3116.33" x2="4661.36" y2="-5319.77" xlink:href="#linear-gradient"/><linearGradient id="linear-gradient-64" x1="3511.52" y1="-3078.78" x2="4727.64" y2="-5284.33" xlink:href="#linear-gradient"/><linearGradient id="linear-gradient-65" x1="3553.46" y1="-3067.25" x2="4764.27" y2="-5263.16" xlink:href="#linear-gradient"/><linearGradient id="linear-gradient-66" x1="3551.34" y1="-3077.91" x2="4757.09" y2="-5264.67" xlink:href="#linear-gradient"/><linearGradient id="linear-gradient-67" x1="3429.07" y1="-3136.21" x2="4638.48" y2="-5329.59" xlink:href="#linear-gradient"/><linearGradient id="linear-gradient-68" x1="3242.01" y1="-3229.75" x2="4454.52" y2="-5428.76" xlink:href="#linear-gradient"/><linearGradient id="linear-gradient-69" x1="3262.65" y1="-3211.79" x2="4478.6" y2="-5417.03" xlink:href="#linear-gradient"/><linearGradient id="linear-gradient-70" x1="3599.3" y1="-3038.63" x2="4812.3" y2="-5238.54" xlink:href="#linear-gradient"/><linearGradient id="linear-gradient-71" x1="3642.31" y1="-3011.81" x2="4857.21" y2="-5215.14" xlink:href="#linear-gradient"/><linearGradient id="linear-gradient-72" x1="3633.28" y1="-3029.92" x2="4841.41" y2="-5220.97" xlink:href="#linear-gradient"/><linearGradient id="linear-gradient-73" x1="3731.14" y1="-2973.13" x2="4941.76" y2="-5168.73" xlink:href="#linear-gradient"/><linearGradient id="linear-gradient-74" x1="3384.23" y1="-3164.08" x2="4590.89" y2="-5352.47" xlink:href="#linear-gradient"/><linearGradient id="linear-gradient-75" x1="3536.15" y1="-3074.95" x2="4748.06" y2="-5272.88" xlink:href="#linear-gradient"/><linearGradient id="linear-gradient-76" x1="3719.17" y1="-2981.57" x2="4928.58" y2="-5174.95" xlink:href="#linear-gradient"/><linearGradient id="linear-gradient-77" x1="3821.91" y1="-2928.33" x2="5030.32" y2="-5119.9" xlink:href="#linear-gradient"/><linearGradient id="linear-gradient-78" x1="3442.4" y1="-3129.2" x2="4651.27" y2="-5321.6" xlink:href="#linear-gradient"/><linearGradient id="linear-gradient-79" x1="3566.42" y1="-3056.79" x2="4779.67" y2="-5257.16" xlink:href="#linear-gradient"/><linearGradient id="linear-gradient-80" x1="3412.04" y1="-3140.28" x2="4624.45" y2="-5339.1" xlink:href="#linear-gradient"/><linearGradient id="linear-gradient-81" x1="3596.19" y1="-3052.74" x2="4801.53" y2="-5238.74" xlink:href="#linear-gradient"/><linearGradient id="linear-gradient-82" x1="3724.76" y1="-2968.62" x2="4940.76" y2="-5173.97" xlink:href="#linear-gradient"/><linearGradient id="linear-gradient-83" x1="3618.68" y1="-3033.59" x2="4829.03" y2="-5228.69" xlink:href="#linear-gradient"/><linearGradient id="linear-gradient-84" x1="3690.88" y1="-2990.05" x2="4905.36" y2="-5192.64" xlink:href="#linear-gradient"/><linearGradient id="linear-gradient-85" x1="3894.65" y1="-2879.82" x2="5109.59" y2="-5083.23" xlink:href="#linear-gradient"/><linearGradient id="linear-gradient-86" x1="4011.25" y1="-2827.43" x2="5219.6" y2="-5018.88" xlink:href="#linear-gradient"/><linearGradient id="linear-gradient-87" x1="3788.17" y1="-2942.48" x2="4999.43" y2="-5139.21" xlink:href="#linear-gradient"/><linearGradient id="linear-gradient-88" x1="3514.27" y1="-3090.11" x2="4723.82" y2="-5283.74" xlink:href="#linear-gradient"/><linearGradient id="linear-gradient-89" x1="3612.04" y1="-3043.07" x2="4817.01" y2="-5228.42" xlink:href="#linear-gradient"/><linearGradient id="linear-gradient-90" x1="3695.67" y1="-2986.66" x2="4911.98" y2="-5192.56" xlink:href="#linear-gradient"/><linearGradient id="linear-gradient-91" x1="3616.92" y1="-3030.82" x2="4830.83" y2="-5232.37" xlink:href="#linear-gradient"/><linearGradient id="linear-gradient-92" x1="3832.38" y1="-2920.03" x2="5042.65" y2="-5114.97" xlink:href="#linear-gradient"/><linearGradient id="linear-gradient-93" x1="3669.75" y1="-3005.13" x2="4881.11" y2="-5202.05" xlink:href="#linear-gradient"/><linearGradient id="linear-gradient-94" x1="3702.4" y1="-2987.38" x2="4914.17" y2="-5185.05" xlink:href="#linear-gradient"/><linearGradient id="linear-gradient-95" x1="3786.65" y1="-2938.56" x2="5001.6" y2="-5142" xlink:href="#linear-gradient"/><linearGradient id="linear-gradient-96" x1="3852.1" y1="-2901.62" x2="5068.22" y2="-5107.17" xlink:href="#linear-gradient"/><linearGradient id="linear-gradient-97" x1="3892.51" y1="-2887.3" x2="5103.31" y2="-5083.22" xlink:href="#linear-gradient"/><linearGradient id="linear-gradient-98" x1="3888.93" y1="-2895.33" x2="5094.68" y2="-5082.09" xlink:href="#linear-gradient"/><linearGradient id="linear-gradient-99" x1="3767.71" y1="-2955.54" x2="4977.12" y2="-5148.92" xlink:href="#linear-gradient"/><linearGradient id="linear-gradient-100" x1="3581.55" y1="-3050.7" x2="4794.05" y2="-5249.71" xlink:href="#linear-gradient"/><linearGradient id="linear-gradient-101" x1="3603.18" y1="-3034.54" x2="4819.12" y2="-5239.78" xlink:href="#linear-gradient"/><linearGradient id="linear-gradient-102" x1="3938.98" y1="-2859.84" x2="5151.98" y2="-5059.75" xlink:href="#linear-gradient"/><linearGradient id="linear-gradient-103" x1="3982.54" y1="-2834.01" x2="5197.44" y2="-5037.34" xlink:href="#linear-gradient"/><linearGradient id="linear-gradient-104" x1="3971.56" y1="-2848.57" x2="5179.68" y2="-5039.63" xlink:href="#linear-gradient"/><linearGradient id="linear-gradient-105" x1="4070.13" y1="-2793.1" x2="5280.76" y2="-4988.69" xlink:href="#linear-gradient"/><linearGradient id="linear-gradient-106" x1="3722.08" y1="-2981.97" x2="4928.74" y2="-5170.36" xlink:href="#linear-gradient"/><linearGradient id="linear-gradient-107" x1="3875.51" y1="-2895.59" x2="5087.43" y2="-5093.51" xlink:href="#linear-gradient"/><linearGradient id="linear-gradient-108" x1="4057.81" y1="-2800.9" x2="5267.22" y2="-4994.27" xlink:href="#linear-gradient"/><linearGradient id="linear-gradient-109" x1="4160.26" y1="-2747.14" x2="5368.67" y2="-4938.71" xlink:href="#linear-gradient"/><linearGradient id="linear-gradient-110" x1="3780.89" y1="-2948.25" x2="4989.75" y2="-5140.64" xlink:href="#linear-gradient"/><linearGradient id="linear-gradient-111" x1="3906.17" y1="-2878.13" x2="5119.43" y2="-5078.5" xlink:href="#linear-gradient"/><linearGradient id="linear-gradient-112" x1="3751.55" y1="-2961.18" x2="4963.95" y2="-5160" xlink:href="#linear-gradient"/><linearGradient id="linear-gradient-113" x1="3933.66" y1="-2869.94" x2="5139" y2="-5055.94" xlink:href="#linear-gradient"/><linearGradient id="linear-gradient-114" x1="4065.3" y1="-2791.4" x2="5281.3" y2="-4996.74" xlink:href="#linear-gradient"/><linearGradient id="linear-gradient-115" x1="3957.59" y1="-2853.41" x2="5167.95" y2="-5048.52" xlink:href="#linear-gradient"/><linearGradient id="linear-gradient-116" x1="4195.96" y1="-2727.24" x2="5405.36" y2="-4920.61" xlink:href="#linear-gradient"/><linearGradient id="linear-gradient-117" x1="4298.31" y1="-2673.3" x2="5506.72" y2="-4864.88" xlink:href="#linear-gradient"/><linearGradient id="linear-gradient-118" x1="3918.98" y1="-2874.49" x2="5127.84" y2="-5066.89" xlink:href="#linear-gradient"/><linearGradient id="linear-gradient-119" x1="4044.68" y1="-2805.14" x2="5257.94" y2="-5005.51" xlink:href="#linear-gradient"/><linearGradient id="linear-gradient-120" x1="3889.98" y1="-2888.04" x2="5102.38" y2="-5086.86" xlink:href="#linear-gradient"/><linearGradient id="linear-gradient-121" x1="4071.41" y1="-2795.57" x2="5276.75" y2="-4981.58" xlink:href="#linear-gradient"/><linearGradient id="linear-gradient-122" x1="4204.08" y1="-2718.89" x2="5420.08" y2="-4924.23" xlink:href="#linear-gradient"/><linearGradient id="linear-gradient-123" x1="4095.83" y1="-2779.92" x2="5306.18" y2="-4975.02" xlink:href="#linear-gradient"/><linearGradient id="linear-gradient-124" x1="3213.98" y1="-3442.71" x2="4428.63" y2="-5645.59" xlink:href="#linear-gradient"/><linearGradient id="linear-gradient-125" x1="3253.06" y1="-3426.23" x2="4465.51" y2="-5625.13" xlink:href="#linear-gradient"/><linearGradient id="linear-gradient-126" x1="3391.23" y1="-3363.06" x2="4596.97" y2="-5549.8" xlink:href="#linear-gradient"/><linearGradient id="linear-gradient-127" x1="3319.27" y1="-3385.81" x2="4535.47" y2="-5591.51" xlink:href="#linear-gradient"/><linearGradient id="linear-gradient-128" x1="3329.61" y1="-3394.88" x2="4536.27" y2="-5583.28" xlink:href="#linear-gradient"/><linearGradient id="linear-gradient-129" x1="3129.41" y1="-3503" x2="4335.06" y2="-5689.56" xlink:href="#linear-gradient"/><linearGradient id="linear-gradient-130" x1="3253.07" y1="-3428.66" x2="4463.72" y2="-5624.31" xlink:href="#linear-gradient"/><linearGradient id="linear-gradient-131" x1="3183.02" y1="-3466.93" x2="4393.09" y2="-5661.52" xlink:href="#linear-gradient"/><linearGradient id="linear-gradient-132" x1="3305.03" y1="-3402.55" x2="4514.82" y2="-5596.63" xlink:href="#linear-gradient"/><linearGradient id="linear-gradient-133" x1="3343.39" y1="-3381.68" x2="4553.47" y2="-5576.29" xlink:href="#linear-gradient"/><linearGradient id="linear-gradient-134" x1="3337.54" y1="-3376.64" x2="4553.95" y2="-5582.72" xlink:href="#linear-gradient"/><linearGradient id="linear-gradient-135" x1="3380.79" y1="-3357.97" x2="4593.67" y2="-5557.64" xlink:href="#linear-gradient"/><linearGradient id="linear-gradient-136" x1="3265.66" y1="-3417.15" x2="4479.81" y2="-5619.14" xlink:href="#linear-gradient"/><linearGradient id="linear-gradient-137" x1="3470.71" y1="-3306.35" x2="4685.85" y2="-5510.13" xlink:href="#linear-gradient"/><linearGradient id="linear-gradient-138" x1="3417.02" y1="-3341.21" x2="4627.94" y2="-5537.34" xlink:href="#linear-gradient"/><linearGradient id="linear-gradient-139" x1="3454.41" y1="-3327.58" x2="4661.37" y2="-5516.51" xlink:href="#linear-gradient"/><linearGradient id="linear-gradient-140" x1="3452.72" y1="-3329.49" x2="4657.88" y2="-5515.17" xlink:href="#linear-gradient"/><linearGradient id="linear-gradient-141" x1="3572.08" y1="-3252.15" x2="4788.19" y2="-5457.7" xlink:href="#linear-gradient"/><linearGradient id="linear-gradient-142" x1="3446.16" y1="-3331.68" x2="4651.81" y2="-5518.24" xlink:href="#linear-gradient"/><linearGradient id="linear-gradient-143" x1="3510.21" y1="-3294.32" x2="4719.25" y2="-5487.02" xlink:href="#linear-gradient"/><linearGradient id="linear-gradient-144" x1="3686.53" y1="-3192.09" x2="4902.48" y2="-5397.33" xlink:href="#linear-gradient"/><linearGradient id="linear-gradient-145" x1="3547.67" y1="-3275.45" x2="4755.57" y2="-5466.09" xlink:href="#linear-gradient"/><linearGradient id="linear-gradient-146" x1="3554.14" y1="-3264.78" x2="4768.78" y2="-5467.65" xlink:href="#linear-gradient"/><linearGradient id="linear-gradient-147" x1="3592.58" y1="-3247.15" x2="4805.03" y2="-5446.04" xlink:href="#linear-gradient"/><linearGradient id="linear-gradient-148" x1="3728.82" y1="-3180.47" x2="4934.56" y2="-5367.21" xlink:href="#linear-gradient"/><linearGradient id="linear-gradient-149" x1="3659.87" y1="-3208.69" x2="4876.07" y2="-5414.39" xlink:href="#linear-gradient"/><linearGradient id="linear-gradient-150" x1="3667.46" y1="-3212.77" x2="4874.12" y2="-5401.17" xlink:href="#linear-gradient"/><linearGradient id="linear-gradient-151" x1="3466.97" y1="-3320.36" x2="4672.62" y2="-5506.92" xlink:href="#linear-gradient"/><linearGradient id="linear-gradient-152" x1="3592.07" y1="-3248.65" x2="4802.73" y2="-5444.29" xlink:href="#linear-gradient"/><linearGradient id="linear-gradient-153" x1="3521.85" y1="-3286.61" x2="4731.92" y2="-5481.2" xlink:href="#linear-gradient"/><linearGradient id="linear-gradient-154" x1="3643.78" y1="-3222.08" x2="4853.57" y2="-5416.16" xlink:href="#linear-gradient"/><linearGradient id="linear-gradient-155" x1="3682.22" y1="-3201.36" x2="4892.3" y2="-5395.97" xlink:href="#linear-gradient"/><linearGradient id="linear-gradient-156" x1="3678.2" y1="-3199.63" x2="4894.61" y2="-5405.71" xlink:href="#linear-gradient"/><linearGradient id="linear-gradient-157" x1="3720.43" y1="-3179.11" x2="4933.31" y2="-5378.79" xlink:href="#linear-gradient"/><linearGradient id="linear-gradient-158" x1="3605.67" y1="-3238.96" x2="4819.82" y2="-5440.95" xlink:href="#linear-gradient"/><linearGradient id="linear-gradient-159" x1="3811.01" y1="-3128.68" x2="5026.15" y2="-5332.46" xlink:href="#linear-gradient"/><linearGradient id="linear-gradient-160" x1="3756.1" y1="-3161.33" x2="4967.02" y2="-5357.46" xlink:href="#linear-gradient"/><linearGradient id="linear-gradient-161" x1="3792.35" y1="-3145.62" x2="4999.3" y2="-5334.55" xlink:href="#linear-gradient"/><linearGradient id="linear-gradient-162" x1="3790.14" y1="-3146.6" x2="4995.3" y2="-5332.28" xlink:href="#linear-gradient"/><linearGradient id="linear-gradient-163" x1="3912.66" y1="-3074.99" x2="5128.77" y2="-5280.53" xlink:href="#linear-gradient"/><linearGradient id="linear-gradient-164" x1="3783.72" y1="-3149.04" x2="4989.37" y2="-5335.6" xlink:href="#linear-gradient"/><linearGradient id="linear-gradient-165" x1="3848.75" y1="-3113.45" x2="5057.78" y2="-5306.15" xlink:href="#linear-gradient"/><linearGradient id="linear-gradient-166" x1="4027.06" y1="-3014.84" x2="5243" y2="-5220.08" xlink:href="#linear-gradient"/><linearGradient id="linear-gradient-167" x1="3885.87" y1="-3093.99" x2="5093.77" y2="-5284.63" xlink:href="#linear-gradient"/><linearGradient id="linear-gradient-168" x1="3817.01" y1="-3127.19" x2="5033.42" y2="-5333.28" xlink:href="#linear-gradient"/><linearGradient id="linear-gradient-169" x1="3927.87" y1="-3072.2" x2="5133.03" y2="-5257.88" xlink:href="#linear-gradient"/><linearGradient id="linear-gradient-170" x1="4051.44" y1="-3002.5" x2="5267.55" y2="-5208.04" xlink:href="#linear-gradient"/><linearGradient id="linear-gradient-171" x1="3921.5" y1="-3074.73" x2="5127.15" y2="-5261.29" xlink:href="#linear-gradient"/><linearGradient id="linear-gradient-172" x1="4023.87" y1="-3020.06" x2="5231.77" y2="-5210.71" xlink:href="#linear-gradient"/><linearGradient id="linear-gradient-173" x1="2585.68" y1="-3160.28" x2="3800.16" y2="-5362.86" xlink:href="#linear-gradient"/><linearGradient id="linear-gradient-174" x1="2789.32" y1="-3049.8" x2="4004.25" y2="-5253.22" xlink:href="#linear-gradient"/><linearGradient id="linear-gradient-175" x1="2907.82" y1="-3000.86" x2="4116.17" y2="-5192.31" xlink:href="#linear-gradient"/><linearGradient id="linear-gradient-176" x1="2683.9" y1="-3114.39" x2="3895.16" y2="-5311.12" xlink:href="#linear-gradient"/><linearGradient id="linear-gradient-177" x1="2395.03" y1="-3269.93" x2="3605.17" y2="-5464.64" xlink:href="#linear-gradient"/><linearGradient id="linear-gradient-178" x1="2410.5" y1="-3262.91" x2="3620.04" y2="-5456.55" xlink:href="#linear-gradient"/><linearGradient id="linear-gradient-179" x1="2509.58" y1="-3218.27" x2="3714.56" y2="-5403.61" xlink:href="#linear-gradient"/><linearGradient id="linear-gradient-180" x1="2589.94" y1="-3155.92" x2="3806.25" y2="-5361.83" xlink:href="#linear-gradient"/><linearGradient id="linear-gradient-181" x1="2510.28" y1="-3205" x2="3722.64" y2="-5403.72" xlink:href="#linear-gradient"/><linearGradient id="linear-gradient-182" x1="2511.88" y1="-3201.34" x2="3725.79" y2="-5402.89" xlink:href="#linear-gradient"/><linearGradient id="linear-gradient-183" x1="2728.4" y1="-3092.46" x2="3938.66" y2="-5287.4" xlink:href="#linear-gradient"/><linearGradient id="linear-gradient-184" x1="2565.45" y1="-3176.98" x2="3776.81" y2="-5373.91" xlink:href="#linear-gradient"/><linearGradient id="linear-gradient-185" x1="2597.99" y1="-3159.02" x2="3809.75" y2="-5356.69" xlink:href="#linear-gradient"/><linearGradient id="linear-gradient-186" x1="2681.31" y1="-3108.54" x2="3896.26" y2="-5311.97" xlink:href="#linear-gradient"/><linearGradient id="linear-gradient-187" x1="2746.43" y1="-3070.98" x2="3962.55" y2="-5276.54" xlink:href="#linear-gradient"/><linearGradient id="linear-gradient-188" x1="2788.37" y1="-3059.45" x2="3999.17" y2="-5255.37" xlink:href="#linear-gradient"/><linearGradient id="linear-gradient-189" x1="2786.24" y1="-3070.12" x2="3992" y2="-5256.88" xlink:href="#linear-gradient"/><linearGradient id="linear-gradient-190" x1="2663.98" y1="-3128.42" x2="3873.38" y2="-5321.8" xlink:href="#linear-gradient"/><linearGradient id="linear-gradient-191" x1="2476.92" y1="-3221.96" x2="3689.42" y2="-5420.96" xlink:href="#linear-gradient"/><linearGradient id="linear-gradient-192" x1="2497.56" y1="-3203.99" x2="3713.5" y2="-5409.24" xlink:href="#linear-gradient"/><linearGradient id="linear-gradient-193" x1="2834.2" y1="-3030.84" x2="4047.21" y2="-5230.75" xlink:href="#linear-gradient"/><linearGradient id="linear-gradient-194" x1="2877.22" y1="-3004.01" x2="4092.11" y2="-5207.35" xlink:href="#linear-gradient"/><linearGradient id="linear-gradient-195" x1="2868.19" y1="-3022.12" x2="4076.31" y2="-5213.18" xlink:href="#linear-gradient"/><linearGradient id="linear-gradient-196" x1="2966.04" y1="-2965.33" x2="4176.67" y2="-5160.93" xlink:href="#linear-gradient"/><linearGradient id="linear-gradient-197" x1="2619.13" y1="-3156.28" x2="3825.79" y2="-5344.68" xlink:href="#linear-gradient"/><linearGradient id="linear-gradient-198" x1="2771.05" y1="-3067.15" x2="3982.96" y2="-5265.08" xlink:href="#linear-gradient"/><linearGradient id="linear-gradient-199" x1="2954.08" y1="-2973.77" x2="4163.48" y2="-5167.15" xlink:href="#linear-gradient"/><linearGradient id="linear-gradient-200" x1="3056.81" y1="-2920.53" x2="4265.22" y2="-5112.11" xlink:href="#linear-gradient"/><linearGradient id="linear-gradient-201" x1="2677.31" y1="-3121.41" x2="3886.17" y2="-5313.8" xlink:href="#linear-gradient"/><linearGradient id="linear-gradient-202" x1="2801.32" y1="-3048.99" x2="4014.58" y2="-5249.36" xlink:href="#linear-gradient"/><linearGradient id="linear-gradient-203" x1="2646.95" y1="-3132.49" x2="3859.35" y2="-5331.3" xlink:href="#linear-gradient"/><linearGradient id="linear-gradient-204" x1="2831.1" y1="-3044.94" x2="4036.44" y2="-5230.95" xlink:href="#linear-gradient"/><linearGradient id="linear-gradient-205" x1="2959.66" y1="-2960.83" x2="4175.66" y2="-5166.17" xlink:href="#linear-gradient"/><linearGradient id="linear-gradient-206" x1="2853.58" y1="-3025.79" x2="4063.94" y2="-5220.9" xlink:href="#linear-gradient"/><linearGradient id="linear-gradient-207" x1="2925.78" y1="-2982.26" x2="4140.27" y2="-5184.84" xlink:href="#linear-gradient"/><linearGradient id="linear-gradient-208" x1="3129.55" y1="-2872.02" x2="4344.49" y2="-5075.44" xlink:href="#linear-gradient"/><linearGradient id="linear-gradient-209" x1="3246.16" y1="-2819.63" x2="4454.5" y2="-5011.08" xlink:href="#linear-gradient"/><linearGradient id="linear-gradient-210" x1="3023.08" y1="-2934.68" x2="4234.33" y2="-5131.41" xlink:href="#linear-gradient"/><linearGradient id="linear-gradient-211" x1="2749.18" y1="-3082.31" x2="3958.72" y2="-5275.95" xlink:href="#linear-gradient"/><linearGradient id="linear-gradient-212" x1="2846.95" y1="-3035.28" x2="4051.92" y2="-5220.62" xlink:href="#linear-gradient"/><linearGradient id="linear-gradient-213" x1="2930.58" y1="-2978.86" x2="4146.89" y2="-5184.77" xlink:href="#linear-gradient"/><linearGradient id="linear-gradient-214" x1="2851.82" y1="-3023.02" x2="4065.73" y2="-5224.57" xlink:href="#linear-gradient"/><linearGradient id="linear-gradient-215" x1="3067.29" y1="-2912.24" x2="4277.55" y2="-5107.18" xlink:href="#linear-gradient"/><linearGradient id="linear-gradient-216" x1="2904.66" y1="-2997.33" x2="4116.02" y2="-5194.26" xlink:href="#linear-gradient"/><linearGradient id="linear-gradient-217" x1="2937.31" y1="-2979.58" x2="4149.08" y2="-5177.25" xlink:href="#linear-gradient"/><linearGradient id="linear-gradient-218" x1="3021.55" y1="-2930.76" x2="4236.5" y2="-5134.2" xlink:href="#linear-gradient"/><linearGradient id="linear-gradient-219" x1="3087.01" y1="-2893.82" x2="4303.13" y2="-5099.38" xlink:href="#linear-gradient"/><linearGradient id="linear-gradient-220" x1="3127.41" y1="-2879.51" x2="4338.22" y2="-5075.42" xlink:href="#linear-gradient"/><linearGradient id="linear-gradient-221" x1="3123.83" y1="-2887.54" x2="4329.59" y2="-5074.29" xlink:href="#linear-gradient"/><linearGradient id="linear-gradient-222" x1="3002.62" y1="-2947.74" x2="4212.02" y2="-5141.12" xlink:href="#linear-gradient"/><linearGradient id="linear-gradient-223" x1="2816.45" y1="-3042.9" x2="4028.96" y2="-5241.91" xlink:href="#linear-gradient"/><linearGradient id="linear-gradient-224" x1="2838.08" y1="-3026.74" x2="4054.03" y2="-5231.98" xlink:href="#linear-gradient"/><linearGradient id="linear-gradient-225" x1="3173.88" y1="-2852.05" x2="4386.89" y2="-5051.96" xlink:href="#linear-gradient"/><linearGradient id="linear-gradient-226" x1="3217.44" y1="-2826.21" x2="4432.34" y2="-5029.55" xlink:href="#linear-gradient"/><linearGradient id="linear-gradient-227" x1="3206.46" y1="-2840.78" x2="4414.58" y2="-5031.83" xlink:href="#linear-gradient"/><linearGradient id="linear-gradient-228" x1="3305.03" y1="-2785.3" x2="4515.66" y2="-4980.9" xlink:href="#linear-gradient"/><linearGradient id="linear-gradient-229" x1="2956.98" y1="-2974.17" x2="4163.64" y2="-5162.57" xlink:href="#linear-gradient"/><linearGradient id="linear-gradient-230" x1="3110.42" y1="-2887.79" x2="4322.33" y2="-5085.72" xlink:href="#linear-gradient"/><linearGradient id="linear-gradient-231" x1="3292.72" y1="-2793.1" x2="4502.12" y2="-4986.48" xlink:href="#linear-gradient"/><linearGradient id="linear-gradient-232" x1="3395.17" y1="-2739.34" x2="4603.58" y2="-4930.91" xlink:href="#linear-gradient"/><linearGradient id="linear-gradient-233" x1="3015.79" y1="-2940.45" x2="4224.66" y2="-5132.85" xlink:href="#linear-gradient"/><linearGradient id="linear-gradient-234" x1="3141.07" y1="-2870.34" x2="4354.33" y2="-5070.7" xlink:href="#linear-gradient"/><linearGradient id="linear-gradient-235" x1="2986.45" y1="-2953.38" x2="4198.86" y2="-5152.2" xlink:href="#linear-gradient"/><linearGradient id="linear-gradient-236" x1="3168.57" y1="-2862.14" x2="4373.9" y2="-5048.15" xlink:href="#linear-gradient"/><linearGradient id="linear-gradient-237" x1="3300.21" y1="-2783.61" x2="4516.21" y2="-4988.95" xlink:href="#linear-gradient"/><linearGradient id="linear-gradient-238" x1="3192.5" y1="-2845.62" x2="4402.85" y2="-5040.72" xlink:href="#linear-gradient"/><linearGradient id="linear-gradient-239" x1="3430.86" y1="-2719.44" x2="4640.26" y2="-4912.82" xlink:href="#linear-gradient"/><linearGradient id="linear-gradient-240" x1="3533.21" y1="-2665.51" x2="4741.62" y2="-4857.08" xlink:href="#linear-gradient"/><linearGradient id="linear-gradient-241" x1="3153.88" y1="-2866.7" x2="4362.75" y2="-5059.1" xlink:href="#linear-gradient"/><linearGradient id="linear-gradient-242" x1="3279.58" y1="-2797.35" x2="4492.84" y2="-4997.71" xlink:href="#linear-gradient"/><linearGradient id="linear-gradient-243" x1="3124.88" y1="-2880.25" x2="4337.29" y2="-5079.06" xlink:href="#linear-gradient"/><linearGradient id="linear-gradient-244" x1="3306.32" y1="-2787.78" x2="4511.66" y2="-4973.78" xlink:href="#linear-gradient"/><linearGradient id="linear-gradient-245" x1="3438.98" y1="-2711.1" x2="4654.98" y2="-4916.44" xlink:href="#linear-gradient"/><linearGradient id="linear-gradient-246" x1="3330.73" y1="-2772.13" x2="4541.09" y2="-4967.23" xlink:href="#linear-gradient"/></defs><title>Void of Humor</title><g id="Layer_4" data-name="Layer 4"><circle class="cls-2" cx="1027" cy="1031" r="1018.8"/><ellipse id="_Ellipse_2" data-name="&lt;Ellipse&gt;" class="cls-1" cx="1014.4" cy="905.9" rx="939.6" ry="893.7"/><g class="cls-3"><polygon class="cls-4" points="163.34 302.99 170.69 322.3 190.19 326.98 174.75 340.19 176.48 360.87 159.6 349.72 141.18 357.82 146.18 337.72 133.06 322.05 153.03 320.78 163.34 302.99"/><polygon class="cls-5" points="338.35 348.23 335.43 369.98 351.04 384.8 330.2 388.63 321.44 408.61 311.48 389.24 290.45 386.77 305.13 370.96 300.9 349.45 319.94 359.05 338.35 348.23"/><polygon class="cls-6" points="328.37 147.82 314.5 180.57 332.64 210.99 298.33 207.43 276.04 234.73 268.71 199.78 236.79 186.24 266.57 168.19 269.12 132.52 294.87 156.32 328.37 147.82"/><polygon class="cls-7" points="523.76 371.9 505.62 385.1 505.82 408.09 488.11 394.27 467.09 401.57 474.29 379.83 461.1 361.35 483.26 361.73 496.13 343.01 502.63 364.99 523.76 371.9"/><polygon class="cls-8" points="179.83 192.84 176.86 199.06 180.11 205.13 173.49 204.12 168.94 209.2 167.81 202.36 161.75 199.44 167.67 196.22 168.48 189.32 173.26 194.18 179.83 192.84"/><polygon class="cls-9" points="92.92 406.88 90.84 411.86 93.61 416.45 88.41 415.94 85.05 420.09 83.92 414.8 79.07 412.77 83.57 410.02 83.93 404.61 87.85 408.2 92.92 406.88"/><polygon class="cls-10" points="105.67 243.69 99.71 251.47 102.51 260.97 93.53 257.5 85.69 263.2 86.1 253.27 78.44 247.29 87.68 244.63 90.8 235.23 96.09 243.51 105.67 243.69"/><polygon class="cls-11" points="232 405.64 227.53 411.86 229.94 419.21 222.85 416.72 216.85 421.37 216.94 413.61 210.83 409.14 217.97 406.82 220.19 399.41 224.51 405.74 232 405.64"/><polygon class="cls-12" points="287.44 285.96 287.45 289.07 289.92 290.82 287.08 291.79 286.24 294.77 284.47 292.26 281.48 292.35 283.23 289.84 282.22 286.91 285.07 287.86 287.44 285.96"/><polygon class="cls-13" points="402.47 301.66 398.58 302.92 397.37 306.95 395.02 303.5 390.95 303.56 393.38 300.18 392.07 296.18 395.93 297.53 399.19 295 399.14 299.23 402.47 301.66"/><polygon class="cls-14" points="610.96 406.43 613.08 413.87 620.19 416.28 614.02 420.67 614.01 428.43 608.08 423.7 600.96 426.09 603.46 418.77 599.07 412.49 606.55 412.7 610.96 406.43"/><polygon class="cls-15" points="568.02 333.63 570.43 338.59 575.74 339.34 571.94 343.25 572.89 348.72 568.13 346.18 563.41 348.8 564.27 343.32 560.4 339.48 565.7 338.63 568.02 333.63"/><polygon class="cls-16" points="407.19 385.25 404.83 395.81 411.89 403.82 401.47 404.76 396.31 414.19 392.23 404.2 381.99 402.02 389.89 394.92 388.72 384.14 397.68 389.73 407.19 385.25"/><polygon class="cls-17" points="479.98 169.25 474.61 173.61 475.03 180.68 469.36 176.73 463.01 179.33 464.89 172.52 460.54 167.06 467.36 166.8 471.03 160.83 473.37 167.48 479.98 169.25"/><polygon class="cls-18" points="518.95 250.44 510.61 261.02 514.28 274.16 502 269.19 491.09 276.88 491.85 263.23 481.43 254.84 494.18 251.37 498.65 238.5 505.78 250.01 518.95 250.44"/><polygon class="cls-19" points="387.11 151.26 382.92 153.45 382.29 158.26 378.99 154.81 374.38 155.68 376.52 151.36 374.31 147.08 378.93 147.86 382.17 144.35 382.89 149.15 387.11 151.26"/><polygon class="cls-20" points="700.81 303.17 695.47 316.85 703.3 329.17 689.11 328.13 680.23 339.66 676.8 325.34 663.48 320.15 675.56 312.34 676.2 297.6 687.09 307.09 700.81 303.17"/><polygon class="cls-21" points="697.44 140.12 692.54 153.95 700.75 165.98 686.56 165.42 678.07 177.24 674.19 163.07 660.74 158.35 672.53 150.14 672.7 135.41 683.88 144.51 697.44 140.12"/><polygon class="cls-22" points="836.44 373.04 828.13 392.94 839.22 411.33 818.4 409.27 804.97 425.9 800.42 404.73 781.03 396.62 799.04 385.59 800.48 363.95 816.16 378.3 836.44 373.04"/><polygon class="cls-23" points="588.86 172.46 582.9 181.79 586.94 192.17 576.54 189.18 568.27 196.37 567.8 185.19 558.65 179.25 568.75 175.33 571.37 164.47 578.09 173.23 588.86 172.46"/><polygon class="cls-24" points="849.98 61.4 842.87 83.77 856.61 102.53 833.89 102.44 820.94 121.79 814.01 99.35 792.26 92.55 810.69 78.78 810.21 55.23 828.53 69.16 849.98 61.4"/><polygon class="cls-25" points="804.98 224.88 794.56 243.54 803.48 263.02 783.15 258.52 768.04 273.34 765.89 251.89 747.64 241.57 766.64 232.82 770.46 211.62 784.36 227.66 804.98 224.88"/><polygon class="cls-26" points="976.72 306.16 984.06 325.47 1003.56 330.15 988.12 343.36 989.86 364.04 972.98 352.89 954.55 360.99 959.56 340.89 946.43 325.22 966.41 323.95 976.72 306.16"/><polygon class="cls-27" points="1151.73 351.4 1148.81 373.15 1164.42 387.97 1143.58 391.81 1134.81 411.79 1124.86 392.42 1103.83 389.94 1118.51 374.13 1114.28 352.62 1133.31 362.22 1151.73 351.4"/><polygon class="cls-28" points="1141.74 150.99 1127.87 183.75 1146.02 214.16 1111.7 210.6 1089.42 237.91 1082.08 202.95 1050.16 189.41 1079.94 171.37 1082.5 135.69 1108.24 159.5 1141.74 150.99"/><polygon class="cls-29" points="1337.14 375.07 1318.99 388.27 1319.19 411.26 1301.48 397.44 1280.47 404.74 1287.66 383 1274.48 364.52 1296.64 364.9 1309.5 346.19 1316 368.16 1337.14 375.07"/><polygon class="cls-30" points="993.21 196.01 990.23 202.23 993.49 208.3 986.87 207.29 982.31 212.38 981.19 205.53 975.12 202.61 981.05 199.39 981.85 192.5 986.64 197.35 993.21 196.01"/><polygon class="cls-31" points="906.29 410.05 904.22 415.03 906.99 419.62 901.78 419.11 898.43 423.27 897.29 417.97 892.44 415.95 896.94 413.19 897.3 407.78 901.22 411.37 906.29 410.05"/><polygon class="cls-32" points="919.05 246.86 913.09 254.64 915.89 264.14 906.91 260.67 899.06 266.37 899.47 256.44 891.82 250.46 901.05 247.8 904.17 238.4 909.47 246.68 919.05 246.86"/><polygon class="cls-33" points="1045.37 408.81 1040.9 415.03 1043.31 422.38 1036.22 419.89 1030.23 424.54 1030.32 416.78 1024.2 412.31 1031.35 410 1033.56 402.58 1037.89 408.92 1045.37 408.81"/><polygon class="cls-34" points="1100.82 289.14 1100.83 292.24 1103.3 293.99 1100.45 294.96 1099.61 297.94 1097.84 295.44 1094.85 295.52 1096.6 293.01 1095.6 290.08 1098.45 291.03 1100.82 289.14"/><polygon class="cls-35" points="1215.84 304.83 1211.96 306.09 1210.75 310.12 1208.4 306.68 1204.33 306.73 1206.76 303.35 1205.45 299.35 1209.31 300.7 1212.57 298.17 1212.52 302.4 1215.84 304.83"/><polygon class="cls-36" points="1424.34 409.6 1426.45 417.04 1433.57 419.45 1427.4 423.84 1427.39 431.6 1421.45 426.87 1414.34 429.26 1416.84 421.94 1412.45 415.66 1419.93 415.87 1424.34 409.6"/><polygon class="cls-37" points="1381.4 336.8 1383.81 341.76 1389.12 342.51 1385.31 346.42 1386.26 351.89 1381.5 349.35 1376.79 351.97 1377.64 346.49 1373.78 342.65 1379.07 341.8 1381.4 336.8"/><polygon class="cls-38" points="1220.57 388.42 1218.21 398.99 1225.26 406.99 1214.85 407.93 1209.69 417.36 1205.61 407.37 1195.37 405.2 1203.26 398.09 1202.09 387.31 1211.05 392.9 1220.57 388.42"/><polygon class="cls-39" points="1293.35 172.42 1287.98 176.78 1288.4 183.85 1282.74 179.9 1276.39 182.5 1278.26 175.69 1273.92 170.23 1280.74 169.97 1284.4 164 1286.74 170.65 1293.35 172.42"/><polygon class="cls-40" points="1332.33 253.61 1323.98 264.2 1327.66 277.33 1315.38 272.37 1304.47 280.05 1305.22 266.4 1294.81 258.02 1307.56 254.54 1312.03 241.68 1319.15 253.18 1332.33 253.61"/><polygon class="cls-41" points="1200.48 154.43 1196.3 156.62 1195.66 161.44 1192.37 157.99 1187.76 158.85 1189.9 154.53 1187.68 150.25 1192.31 151.03 1195.55 147.52 1196.26 152.32 1200.48 154.43"/><polygon class="cls-42" points="1514.18 306.34 1508.84 320.02 1516.68 332.34 1502.48 331.3 1493.61 342.83 1490.18 328.51 1476.86 323.32 1488.93 315.51 1489.58 300.77 1500.47 310.27 1514.18 306.34"/><polygon class="cls-43" points="1510.81 143.29 1505.92 157.13 1514.13 169.15 1499.94 168.59 1491.45 180.41 1487.57 166.24 1474.11 161.52 1485.91 153.31 1486.08 138.58 1497.25 147.68 1510.81 143.29"/><polygon class="cls-44" points="1649.82 376.21 1641.51 396.11 1652.6 414.5 1631.78 412.45 1618.35 429.07 1613.8 407.9 1594.41 399.79 1612.41 388.76 1613.86 367.12 1629.54 381.47 1649.82 376.21"/><polygon class="cls-45" points="1402.23 175.63 1396.28 184.96 1400.31 195.34 1389.91 192.35 1381.64 199.54 1381.17 188.36 1372.02 182.42 1382.13 178.5 1384.75 167.64 1391.46 176.4 1402.23 175.63"/><polygon class="cls-46" points="1663.35 64.57 1656.24 86.94 1669.98 105.71 1647.27 105.61 1634.31 124.96 1627.38 102.52 1605.63 95.72 1624.07 81.95 1623.58 58.4 1641.9 72.33 1663.35 64.57"/><polygon class="cls-47" points="1618.35 228.05 1607.94 246.72 1616.86 266.19 1596.53 261.69 1581.42 276.51 1579.27 255.06 1561.01 244.74 1580.02 235.99 1583.84 214.79 1597.73 230.83 1618.35 228.05"/><polygon class="cls-48" points="1708.35 385.1 1710.47 392.54 1717.58 394.95 1711.41 399.34 1711.4 407.1 1705.47 402.38 1698.35 404.76 1700.85 397.45 1696.46 391.16 1703.94 391.37 1708.35 385.1"/><polygon class="cls-49" points="1798.2 281.85 1792.86 295.53 1800.69 307.85 1786.5 306.8 1777.62 318.34 1774.19 304.01 1760.87 298.83 1772.95 291.02 1773.59 276.27 1784.48 285.77 1798.2 281.85"/><polygon class="cls-50" points="1794.83 118.8 1789.93 132.63 1798.15 144.65 1783.95 144.1 1775.46 155.91 1771.58 141.74 1758.13 137.02 1769.92 128.81 1770.09 114.08 1781.27 123.18 1794.83 118.8"/><polygon class="cls-51" points="1933.84 351.72 1925.52 371.62 1936.61 390 1915.8 387.95 1902.37 404.57 1897.82 383.4 1878.42 375.29 1896.43 364.26 1897.87 342.63 1913.55 356.98 1933.84 351.72"/><polygon class="cls-52" points="1902.37 203.56 1891.95 222.22 1900.87 241.7 1880.54 237.19 1865.43 252.01 1863.28 230.56 1845.03 220.24 1864.03 211.49 1867.85 190.29 1881.75 206.34 1902.37 203.56"/><polygon class="cls-53" points="201.85 783.56 195.47 810.1 212.93 830.6 186.62 832.5 173.21 856.06 163.34 830.7 137.59 824.75 157.8 807.18 155.29 779.94 177.66 794.45 201.85 783.56"/><polygon class="cls-54" points="141.72 461.04 156.64 502.11 197.72 512.64 164.67 540.06 167.71 583.84 132.36 559.71 93.16 576.24 104.36 533.91 77.09 500.34 119.36 498.31 141.72 461.04"/><polygon class="cls-55" points="395.96 490.13 397.64 511.7 415.72 522.49 396.46 530.81 392.15 551.98 378.57 535.55 357.83 537.84 368.69 519.37 360.18 499.61 380.48 504.63 395.96 490.13"/><polygon class="cls-56" points="346.78 757.17 345.59 773.61 357.97 783.94 342.53 787.85 336.88 803.26 328.53 789.23 312.65 788.42 322.93 775.85 318.77 759.93 333.48 766.19 346.78 757.17"/><polygon class="cls-57" points="189.01 1056.55 183.75 1063.82 186.54 1072.44 178.25 1069.5 171.21 1074.92 171.34 1065.83 164.2 1060.56 172.57 1057.88 175.2 1049.21 180.24 1056.64 189.01 1056.55"/><polygon class="cls-58" points="141.59 1019.49 141.66 1023.48 144.86 1025.68 141.22 1026.98 140.19 1030.81 137.88 1027.63 134.04 1027.8 136.25 1024.54 134.91 1020.8 138.59 1021.97 141.59 1019.49"/><polygon class="cls-59" points="298.9 988.47 279.69 987.24 267.83 1002.96 263.01 983.63 244.94 976.79 261.17 966.07 261.86 946.12 276.71 958.82 295.21 953.34 288.15 971.91 298.9 988.47"/><polygon class="cls-60" points="445.08 952.31 425.62 951.86 414.23 968.23 408.63 948.9 390.1 942.73 406.1 931.23 406.03 911.04 421.52 923.27 440.01 916.97 433.58 936.02 445.08 952.31"/><polygon class="cls-61" points="458.7 1056.03 453.88 1061.27 455.31 1068.37 449.02 1065.23 442.96 1068.83 443.89 1061.65 438.71 1056.79 445.58 1055.48 448.44 1048.88 451.76 1055.25 458.7 1056.03"/><polygon class="cls-62" points="363.53 1003.22 362.54 1007.88 365.69 1011.36 361.11 1011.83 358.89 1016.01 357.05 1011.64 352.53 1010.74 355.96 1007.57 355.39 1002.84 359.36 1005.25 363.53 1003.22"/><polygon class="cls-63" points="444.87 766.23 433.62 773.93 433.36 787.91 422.82 779.19 409.93 783.25 414.67 770.16 406.96 758.7 420.42 759.33 428.56 748.18 432.14 761.65 444.87 766.23"/><polygon class="cls-64" points="260.3 871.03 252.74 880.16 255.72 891.79 245.01 887.17 235.26 893.69 236.2 881.7 227.2 874.1 238.49 871.32 242.67 860.1 248.71 870.37 260.3 871.03"/><polygon class="cls-65" points="328.83 871.12 323.31 877.5 325.26 885.83 317.7 882.36 310.66 886.85 311.51 878.33 305.21 872.77 313.29 870.97 316.44 863.04 320.59 870.46 328.83 871.12"/><polygon class="cls-66" points="288.08 738.37 290.65 745.45 297.73 747.26 292.03 751.99 292.55 759.53 286.46 755.37 279.7 758.21 281.64 750.92 276.94 745.13 284.23 744.79 288.08 738.37"/><polygon class="cls-67" points="240.77 624.49 229.08 633.07 229.26 647.93 217.78 639.04 204.22 643.82 208.82 629.75 200.25 617.84 214.57 618.03 222.84 605.9 227.1 620.08 240.77 624.49"/><polygon class="cls-68" points="293.03 605.91 287.42 613.12 289.96 622 281.61 618.69 274.25 623.95 274.71 614.69 267.61 609.06 276.24 606.65 279.22 597.91 284.1 605.67 293.03 605.91"/><polygon class="cls-69" points="361.87 642.92 356.57 655.41 363.49 667.02 350.4 665.65 341.9 676.06 339.11 662.73 326.94 657.56 338.3 650.68 339.28 637.08 349.09 646.16 361.87 642.92"/><polygon class="cls-70" points="158.04 694.93 153.28 702.09 156.26 710.21 148.23 707.73 141.69 713.18 141.49 704.48 134.47 699.73 142.38 696.84 144.58 688.45 149.67 695.36 158.04 694.93"/><polygon class="cls-71" points="159.96 924.9 158.06 938.72 167.96 948.18 154.7 950.57 149.08 963.26 142.79 950.92 129.42 949.31 138.79 939.28 136.14 925.6 148.22 931.74 159.96 924.9"/><polygon class="cls-72" points="117.25 879.28 114.58 887.67 119.73 894.71 111.22 894.67 106.36 901.93 103.76 893.51 95.6 890.97 102.52 885.8 102.33 876.97 109.2 882.19 117.25 879.28"/><polygon class="cls-73" points="293.76 532.72 291.12 548.88 302.45 560.29 286.83 562.67 279.87 577.38 272.85 562.7 257.21 560.38 268.5 548.92 265.8 532.78 279.8 540.37 293.76 532.72"/><polygon class="cls-74" points="283.25 480.55 280.89 489.56 286.7 496.69 277.71 497.14 272.97 505.08 269.78 496.35 261.03 494.13 268.05 488.28 267.38 478.96 274.92 484.08 283.25 480.55"/><polygon class="cls-75" points="479.86 610.5 464.77 617.23 461.55 633.94 450.72 621.13 434.4 623.13 442.8 608.49 435.93 593.01 451.95 596.76 464.02 585.21 465.53 602.17 479.86 610.5"/><polygon class="cls-76" points="555.62 509.47 546.23 521.77 550.67 536.76 536.5 531.3 524.12 540.31 524.75 524.64 512.66 515.22 527.22 511 532.12 496.16 540.5 509.22 555.62 509.47"/><polygon class="cls-77" points="543.28 965.37 540.31 971.59 543.57 977.66 536.94 976.65 532.39 981.73 531.27 974.89 525.2 971.96 531.13 968.74 531.93 961.85 536.72 966.71 543.28 965.37"/><polygon class="cls-78" points="584.18 793.56 566.54 797.35 559.54 814.57 550.62 798.34 532.66 796.76 544.79 782.94 540.69 764.74 557.11 772.43 572.53 762.76 570.55 781.34 584.18 793.56"/><polygon class="cls-79" points="665.07 581.67 655.54 595.98 661.5 612.24 645.43 607.26 632.37 618.17 631.97 600.78 617.92 591.26 633.75 585.49 638.13 568.7 648.32 582.53 665.07 581.67"/><polygon class="cls-80" points="808.03 563.66 773.88 555.09 747.72 579.41 745.02 543.07 714.64 524.78 747.12 510.89 754.51 475.26 777.28 503.02 812.23 499.29 793.82 530.33 808.03 563.66"/><polygon class="cls-81" points="795.46 990.29 780.27 1014.56 790.94 1041.3 764 1033.82 742.78 1052.6 741.31 1023.71 717.53 1008.58 743.57 998.21 750.09 970.08 767.65 992.55 795.46 990.29"/><polygon class="cls-82" points="749.67 817.17 732.97 833.68 736.61 857.32 716.3 845.94 695.76 856.84 699.92 833.29 683.57 816.39 706.45 813.22 716.89 791.88 726.87 813.46 749.67 817.17"/><polygon class="cls-83" points="662.36 983.12 654.01 992.15 656.45 1004.41 645.59 998.96 635.1 1005.16 636.74 992.76 627.82 984.33 639.7 982.12 644.67 970.71 650.37 981.74 662.36 983.12"/><polygon class="cls-84" points="854.79 853.86 837.32 864.94 836.22 886.16 820.66 872.35 800.87 877.81 808.72 858.19 797.59 840.36 818.01 842.04 830.92 825.56 835.68 846.22 854.79 853.86"/><polygon class="cls-85" points="847.29 678.3 834.9 687.5 835.18 703.31 822.91 693.93 808.51 699.09 813.32 684.09 804.13 671.48 819.37 671.59 828.1 658.63 832.71 673.7 847.29 678.3"/><polygon class="cls-86" points="684.46 732.03 684.19 742.27 692.18 748.31 682.7 751.22 679.64 760.96 674.05 752.51 664.16 752.5 670.19 744.37 667.14 734.62 676.46 738.04 684.46 732.03"/><polygon class="cls-87" points="1015.23 786.73 1008.84 813.27 1026.3 833.77 999.99 835.68 986.59 859.24 976.71 833.87 950.97 827.93 971.18 810.35 968.67 783.12 991.03 797.62 1015.23 786.73"/><polygon class="cls-88" points="955.09 464.21 970.02 505.28 1011.1 515.82 978.05 543.23 981.09 587.01 945.74 562.88 906.53 579.41 917.73 537.08 890.46 503.51 932.74 501.48 955.09 464.21"/><polygon class="cls-89" points="1209.34 493.3 1211.02 514.87 1229.1 525.66 1209.84 533.98 1205.53 555.15 1191.95 538.72 1171.2 541.01 1182.07 522.54 1173.56 502.79 1193.86 507.8 1209.34 493.3"/><polygon class="cls-90" points="1160.16 760.34 1158.97 776.78 1171.35 787.12 1155.91 791.02 1150.26 806.43 1141.9 792.4 1126.03 791.59 1136.31 779.02 1132.15 763.11 1146.85 769.36 1160.16 760.34"/><polygon class="cls-91" points="954.97 1022.66 955.03 1026.65 958.23 1028.85 954.6 1030.15 953.57 1033.98 951.26 1030.8 947.42 1030.97 949.63 1027.71 948.29 1023.97 951.96 1025.14 954.97 1022.66"/><polygon class="cls-92" points="1112.28 991.64 1093.07 990.41 1081.2 1006.13 1076.39 986.8 1058.31 979.96 1074.55 969.24 1075.24 949.29 1090.08 961.99 1108.59 956.51 1101.53 975.08 1112.28 991.64"/><polygon class="cls-93" points="1258.45 955.48 1238.99 955.03 1227.61 971.4 1222.01 952.07 1203.48 945.9 1219.47 934.4 1219.41 914.22 1234.89 926.44 1253.38 920.14 1246.96 939.19 1258.45 955.48"/><polygon class="cls-94" points="1176.9 1006.39 1175.92 1011.05 1179.06 1014.53 1174.49 1015 1172.27 1019.18 1170.42 1014.81 1165.9 1013.91 1169.34 1010.74 1168.77 1006.01 1172.74 1008.42 1176.9 1006.39"/><polygon class="cls-95" points="1258.25 769.4 1247 777.1 1246.73 791.08 1236.2 782.36 1223.31 786.42 1228.04 773.33 1220.34 761.87 1233.8 762.5 1241.93 751.35 1245.51 764.83 1258.25 769.4"/><polygon class="cls-96" points="1073.67 874.2 1066.12 883.34 1069.09 894.97 1058.38 890.34 1048.64 896.87 1049.57 884.87 1040.58 877.27 1051.86 874.49 1056.05 863.27 1062.09 873.54 1073.67 874.2"/><polygon class="cls-97" points="1142.21 874.29 1136.69 880.67 1138.63 889 1131.08 885.53 1124.04 890.02 1124.88 881.5 1118.59 875.94 1126.67 874.14 1129.82 866.21 1133.97 873.63 1142.21 874.29"/><polygon class="cls-98" points="1101.46 741.54 1104.03 748.62 1111.11 750.44 1105.41 755.16 1105.93 762.7 1099.84 758.54 1093.08 761.38 1095.01 754.09 1090.32 748.3 1097.6 747.96 1101.46 741.54"/><polygon class="cls-99" points="1054.15 627.66 1042.45 636.24 1042.64 651.1 1031.16 642.22 1017.59 646.99 1022.19 632.92 1013.63 621.01 1027.95 621.2 1036.22 609.07 1040.47 623.26 1054.15 627.66"/><polygon class="cls-100" points="1106.4 609.08 1100.79 616.29 1103.34 625.17 1094.99 621.87 1087.63 627.12 1088.08 617.87 1080.99 612.23 1089.62 609.82 1092.59 601.08 1097.47 608.84 1106.4 609.08"/><polygon class="cls-101" points="1175.25 646.1 1169.95 658.58 1176.87 670.19 1163.78 668.82 1155.28 679.23 1152.48 665.9 1140.31 660.73 1151.67 653.85 1152.65 640.25 1162.47 649.33 1175.25 646.1"/><polygon class="cls-102" points="971.42 698.1 966.65 705.26 969.64 713.38 961.6 710.9 955.07 716.35 954.87 707.65 947.85 702.9 955.76 700.01 957.95 691.62 963.04 698.53 971.42 698.1"/><polygon class="cls-103" points="973.33 928.07 971.43 941.89 981.33 951.35 968.07 953.75 962.46 966.43 956.16 954.1 942.79 952.48 952.16 942.45 949.51 928.77 961.6 934.91 973.33 928.07"/><polygon class="cls-104" points="930.62 882.45 927.96 890.84 933.11 897.88 924.59 897.84 919.73 905.1 917.13 896.69 908.98 894.14 915.89 888.97 915.71 880.14 922.58 885.36 930.62 882.45"/><polygon class="cls-105" points="1107.14 535.89 1104.5 552.05 1115.83 563.46 1100.2 565.85 1093.24 580.55 1086.22 565.87 1070.59 563.55 1081.88 552.09 1079.18 535.95 1093.17 543.54 1107.14 535.89"/><polygon class="cls-106" points="1096.63 483.72 1094.26 492.73 1100.08 499.86 1091.08 500.31 1086.35 508.25 1083.15 499.52 1074.41 497.3 1081.42 491.45 1080.76 482.13 1088.29 487.25 1096.63 483.72"/><polygon class="cls-107" points="1293.23 613.68 1278.14 620.4 1274.93 637.12 1264.1 624.31 1247.78 626.3 1256.18 611.66 1249.31 596.18 1265.33 599.94 1277.4 588.38 1278.9 605.34 1293.23 613.68"/><polygon class="cls-108" points="1368.99 512.64 1359.6 524.94 1364.05 539.93 1349.87 534.47 1337.5 543.49 1338.13 527.81 1326.03 518.39 1340.6 514.17 1345.5 499.33 1353.87 512.39 1368.99 512.64"/><polygon class="cls-109" points="1356.66 968.54 1353.69 974.76 1356.94 980.83 1350.32 979.82 1345.76 984.9 1344.64 978.06 1338.57 975.13 1344.5 971.91 1345.31 965.02 1350.09 969.88 1356.66 968.54"/><polygon class="cls-110" points="1397.56 796.73 1379.91 800.52 1372.92 817.75 1363.99 801.51 1346.04 799.93 1358.16 786.11 1354.06 767.91 1370.48 775.6 1385.91 765.93 1383.93 784.51 1397.56 796.73"/><polygon class="cls-111" points="1478.44 584.84 1468.91 599.15 1474.88 615.41 1458.81 610.43 1445.74 621.34 1445.34 603.95 1431.3 594.43 1447.12 588.66 1451.51 571.87 1461.69 585.7 1478.44 584.84"/><polygon class="cls-112" points="1621.41 566.83 1587.26 558.26 1561.09 582.58 1558.4 546.25 1528.01 527.95 1560.5 514.06 1567.88 478.43 1590.66 506.19 1625.61 502.46 1607.19 533.5 1621.41 566.83"/><polygon class="cls-113" points="1608.83 993.46 1593.65 1017.73 1604.32 1044.47 1577.37 1036.99 1556.16 1055.77 1554.69 1026.88 1530.91 1011.75 1556.94 1001.38 1563.46 973.25 1581.03 995.73 1608.83 993.46"/><polygon class="cls-114" points="1563.05 820.34 1546.34 836.85 1549.98 860.49 1529.68 849.11 1509.13 860.01 1513.29 836.47 1496.95 819.57 1519.82 816.39 1530.27 795.05 1540.25 816.63 1563.05 820.34"/><polygon class="cls-115" points="1475.73 986.29 1467.38 995.33 1469.83 1007.58 1458.96 1002.13 1448.48 1008.33 1450.12 995.93 1441.2 987.5 1453.07 985.29 1458.04 973.88 1463.74 984.91 1475.73 986.29"/><polygon class="cls-116" points="1668.17 857.03 1650.7 868.12 1649.6 889.33 1634.03 875.52 1614.24 880.98 1622.1 861.36 1610.97 843.53 1631.38 845.22 1644.3 828.73 1649.06 849.39 1668.17 857.03"/><polygon class="cls-117" points="1660.66 681.47 1648.27 690.68 1648.56 706.48 1636.29 697.1 1621.88 702.26 1626.69 687.27 1617.51 674.65 1632.75 674.76 1641.47 661.8 1646.08 676.87 1660.66 681.47"/><polygon class="cls-118" points="1497.84 735.2 1497.57 745.45 1505.56 751.48 1496.08 754.39 1493.01 764.13 1487.42 755.68 1477.54 755.67 1483.56 747.54 1480.52 737.79 1489.83 741.21 1497.84 735.2"/><polygon class="cls-119" points="1762.46 560.34 1752.93 574.66 1758.89 590.91 1742.82 585.94 1729.76 596.85 1729.36 579.46 1715.32 569.94 1731.14 564.17 1735.53 547.38 1745.7 561.2 1762.46 560.34"/><polygon class="cls-120" points="1905.42 542.34 1871.27 533.76 1845.11 558.09 1842.41 521.75 1812.03 503.45 1844.51 489.57 1851.9 453.94 1874.67 481.69 1909.62 477.97 1891.21 509.01 1905.42 542.34"/><polygon class="cls-121" points="1892.85 968.97 1877.66 993.24 1888.33 1019.97 1861.39 1012.49 1840.17 1031.27 1838.7 1002.38 1814.92 987.26 1840.96 976.88 1847.48 948.75 1865.04 971.23 1892.85 968.97"/><polygon class="cls-122" points="1847.06 795.84 1830.36 812.36 1834 835.99 1813.69 824.62 1793.15 835.51 1797.31 811.97 1780.96 795.07 1803.84 791.89 1814.28 770.55 1824.26 792.13 1847.06 795.84"/><polygon class="cls-123" points="1759.75 961.8 1751.4 970.83 1753.84 983.09 1742.98 977.64 1732.49 983.83 1734.13 971.43 1725.21 963.01 1737.09 960.79 1742.06 949.39 1747.76 960.42 1759.75 961.8"/><polygon class="cls-124" points="1952.18 832.54 1934.71 843.62 1933.61 864.83 1918.05 851.02 1898.26 856.49 1906.11 836.87 1894.98 819.03 1915.4 820.72 1928.31 804.23 1933.08 824.89 1952.18 832.54"/><polygon class="cls-125" points="1944.68 656.98 1932.29 666.18 1932.57 681.98 1920.3 672.61 1905.9 677.77 1910.71 662.77 1901.52 650.16 1916.76 650.27 1925.49 637.31 1930.1 652.37 1944.68 656.98"/><polygon class="cls-126" points="1781.85 710.71 1781.58 720.95 1789.57 726.99 1780.09 729.89 1777.03 739.63 1771.44 731.18 1761.56 731.17 1767.58 723.04 1764.54 713.29 1773.85 716.72 1781.85 710.71"/><polygon class="cls-127" points="177.75 1067.99 185.09 1087.3 204.59 1091.98 189.15 1105.19 190.88 1125.87 174 1114.72 155.58 1122.82 160.58 1102.72 147.46 1087.05 167.43 1085.78 177.75 1067.99"/><polygon class="cls-128" points="352.75 1113.23 349.83 1134.97 365.44 1149.8 344.6 1153.63 335.84 1173.61 325.88 1154.24 304.85 1151.77 319.54 1135.96 315.3 1114.45 334.34 1124.05 352.75 1113.23"/><polygon class="cls-129" points="342.77 912.82 328.9 945.57 347.05 975.99 312.73 972.43 290.44 999.73 283.11 964.78 251.19 951.24 280.97 933.2 283.52 897.52 309.27 921.33 342.77 912.82"/><polygon class="cls-130" points="538.16 1136.9 520.02 1150.1 520.22 1173.09 502.51 1159.27 481.49 1166.57 488.69 1144.83 475.5 1126.35 497.66 1126.73 510.53 1108.02 517.02 1129.99 538.16 1136.9"/><polygon class="cls-131" points="194.23 957.84 191.26 964.06 194.51 970.13 187.89 969.12 183.34 974.2 182.22 967.36 176.15 964.44 182.07 961.22 182.88 954.33 187.66 959.18 194.23 957.84"/><polygon class="cls-132" points="107.32 1171.88 105.24 1176.86 108.01 1181.45 102.81 1180.94 99.45 1185.09 98.31 1179.8 93.47 1177.77 97.97 1175.02 98.33 1169.61 102.25 1173.2 107.32 1171.88"/><polygon class="cls-133" points="120.07 1008.69 114.11 1016.47 116.91 1025.97 107.94 1022.5 100.09 1028.2 100.5 1018.27 92.84 1012.29 102.08 1009.63 105.2 1000.23 110.49 1008.51 120.07 1008.69"/><polygon class="cls-134" points="246.4 1170.64 241.93 1176.86 244.34 1184.21 237.25 1181.72 231.25 1186.37 231.34 1178.61 225.23 1174.14 232.37 1171.83 234.59 1164.41 238.91 1170.74 246.4 1170.64"/><polygon class="cls-135" points="301.84 1050.96 301.85 1054.07 304.32 1055.82 301.48 1056.79 300.64 1059.77 298.87 1057.26 295.88 1057.35 297.63 1054.84 296.62 1051.91 299.47 1052.86 301.84 1050.96"/><polygon class="cls-136" points="416.87 1066.66 412.98 1067.92 411.77 1071.95 409.42 1068.5 405.35 1068.56 407.78 1065.17 406.47 1061.18 410.33 1062.53 413.59 1060 413.54 1064.22 416.87 1066.66"/><polygon class="cls-137" points="625.36 1171.42 627.48 1178.87 634.59 1181.28 628.42 1185.67 628.41 1193.43 622.48 1188.7 615.36 1191.09 617.86 1183.77 613.47 1177.49 620.95 1177.7 625.36 1171.42"/><polygon class="cls-138" points="582.42 1098.63 584.83 1103.59 590.14 1104.34 586.34 1108.25 587.29 1113.72 582.53 1111.18 577.81 1113.8 578.67 1108.32 574.8 1104.48 580.1 1103.63 582.42 1098.63"/><polygon class="cls-139" points="421.59 1150.25 419.24 1160.81 426.29 1168.82 415.87 1169.76 410.71 1179.19 406.63 1169.2 396.39 1167.03 404.29 1159.92 403.12 1149.14 412.07 1154.73 421.59 1150.25"/><polygon class="cls-140" points="494.38 934.25 489.01 938.61 489.43 945.68 483.76 941.73 477.42 944.33 479.29 937.52 474.94 932.06 481.76 931.8 485.43 925.83 487.77 932.48 494.38 934.25"/><polygon class="cls-141" points="533.35 1015.44 525.01 1026.03 528.68 1039.16 516.4 1034.19 505.49 1041.88 506.25 1028.23 495.83 1019.84 508.58 1016.37 513.05 1003.5 520.18 1015.01 533.35 1015.44"/><polygon class="cls-142" points="401.5 916.26 397.32 918.45 396.69 923.26 393.39 919.82 388.78 920.68 390.92 916.36 388.71 912.08 393.33 912.86 396.57 909.35 397.29 914.15 401.5 916.26"/><polygon class="cls-143" points="715.21 1068.17 709.87 1081.85 717.7 1094.17 703.51 1093.13 694.63 1104.66 691.2 1090.34 677.88 1085.15 689.96 1077.34 690.6 1062.6 701.49 1072.09 715.21 1068.17"/><polygon class="cls-144" points="711.84 905.12 706.94 918.95 715.15 930.98 700.96 930.42 692.47 942.24 688.59 928.07 675.14 923.35 686.93 915.14 687.1 900.41 698.27 909.51 711.84 905.12"/><polygon class="cls-145" points="850.84 1138.04 842.53 1157.94 853.62 1176.33 832.8 1174.28 819.37 1190.9 814.83 1169.73 795.43 1161.62 813.44 1150.59 814.88 1128.95 830.56 1143.3 850.84 1138.04"/><polygon class="cls-146" points="603.25 937.46 597.3 946.79 601.34 957.17 590.94 954.18 582.67 961.37 582.2 950.19 573.05 944.25 583.15 940.33 585.77 929.47 592.49 938.23 603.25 937.46"/><polygon class="cls-147" points="864.38 826.4 857.27 848.77 871.01 867.53 848.29 867.44 835.34 886.79 828.41 864.35 806.66 857.55 825.09 843.78 824.61 820.23 842.93 834.15 864.38 826.4"/><polygon class="cls-148" points="819.38 989.88 808.96 1008.54 817.88 1028.02 797.55 1023.52 782.45 1038.34 780.29 1016.89 762.04 1006.57 781.04 997.82 784.86 976.62 798.76 992.66 819.38 989.88"/><polygon class="cls-149" points="991.12 1071.16 998.46 1090.47 1017.96 1095.15 1002.52 1108.36 1004.26 1129.04 987.38 1117.89 968.95 1125.99 973.96 1105.89 960.83 1090.22 980.81 1088.95 991.12 1071.16"/><polygon class="cls-150" points="1166.13 1116.4 1163.21 1138.15 1178.82 1152.97 1157.98 1156.81 1149.21 1176.79 1139.26 1157.41 1118.23 1154.94 1132.91 1139.13 1128.68 1117.62 1147.71 1127.22 1166.13 1116.4"/><polygon class="cls-151" points="1156.14 915.99 1142.27 948.75 1160.42 979.16 1126.1 975.6 1103.82 1002.9 1096.48 967.95 1064.56 954.41 1094.34 936.37 1096.9 900.69 1122.64 924.5 1156.14 915.99"/><polygon class="cls-152" points="1351.54 1140.07 1333.39 1153.27 1333.59 1176.26 1315.88 1162.44 1294.87 1169.74 1302.06 1148 1288.88 1129.52 1311.04 1129.9 1323.9 1111.19 1330.4 1133.16 1351.54 1140.07"/><polygon class="cls-153" points="1007.61 961.01 1004.63 967.23 1007.89 973.3 1001.27 972.29 996.71 977.38 995.59 970.53 989.52 967.61 995.45 964.39 996.25 957.5 1001.04 962.35 1007.61 961.01"/><polygon class="cls-154" points="920.7 1175.05 918.62 1180.03 921.39 1184.62 916.18 1184.11 912.83 1188.27 911.69 1182.97 906.84 1180.95 911.34 1178.19 911.71 1172.78 915.62 1176.37 920.7 1175.05"/><polygon class="cls-155" points="933.45 1011.86 927.49 1019.64 930.29 1029.14 921.31 1025.67 913.46 1031.37 913.87 1021.44 906.22 1015.46 915.45 1012.8 918.57 1003.4 923.87 1011.68 933.45 1011.86"/><polygon class="cls-156" points="1059.77 1173.81 1055.3 1180.03 1057.71 1187.38 1050.62 1184.89 1044.63 1189.54 1044.72 1181.78 1038.61 1177.31 1045.75 1175 1047.96 1167.58 1052.29 1173.91 1059.77 1173.81"/><polygon class="cls-157" points="1115.21 1054.14 1115.22 1057.24 1117.7 1058.99 1114.85 1059.96 1114.01 1062.94 1112.24 1060.43 1109.25 1060.53 1111 1058.01 1110 1055.08 1112.85 1056.03 1115.21 1054.14"/><polygon class="cls-158" points="1230.24 1069.83 1226.36 1071.09 1225.15 1075.12 1222.8 1071.67 1218.73 1071.73 1221.16 1068.35 1219.85 1064.35 1223.71 1065.7 1226.97 1063.17 1226.92 1067.4 1230.24 1069.83"/><polygon class="cls-159" points="1438.73 1174.6 1440.86 1182.04 1447.97 1184.45 1441.8 1188.84 1441.79 1196.6 1435.86 1191.87 1428.74 1194.26 1431.24 1186.94 1426.85 1180.66 1434.33 1180.87 1438.73 1174.6"/><polygon class="cls-160" points="1395.8 1101.8 1398.21 1106.76 1403.52 1107.51 1399.71 1111.42 1400.66 1116.89 1395.9 1114.35 1391.19 1116.97 1392.05 1111.49 1388.18 1107.65 1393.47 1106.8 1395.8 1101.8"/><polygon class="cls-161" points="1234.97 1153.42 1232.61 1163.99 1239.66 1171.99 1229.25 1172.93 1224.09 1182.36 1220.01 1172.37 1209.77 1170.2 1217.66 1163.09 1216.49 1152.31 1225.45 1157.9 1234.97 1153.42"/><polygon class="cls-162" points="1307.75 937.42 1302.38 941.78 1302.8 948.85 1297.14 944.9 1290.79 947.5 1292.66 940.69 1288.32 935.23 1295.14 934.98 1298.8 929 1301.14 935.65 1307.75 937.42"/><polygon class="cls-163" points="1346.73 1018.61 1338.38 1029.2 1342.06 1042.33 1329.78 1037.37 1318.87 1045.05 1319.62 1031.4 1309.21 1023.02 1321.96 1019.54 1326.43 1006.68 1333.55 1018.18 1346.73 1018.61"/><polygon class="cls-164" points="1214.88 919.43 1210.7 921.62 1210.06 926.44 1206.77 922.99 1202.15 923.85 1204.3 919.53 1202.08 915.25 1206.71 916.03 1209.95 912.52 1210.66 917.32 1214.88 919.43"/><polygon class="cls-165" points="1528.58 1071.34 1523.24 1085.02 1531.08 1097.34 1516.88 1096.3 1508.01 1107.84 1504.58 1093.51 1491.26 1088.32 1503.33 1080.51 1503.97 1065.77 1514.87 1075.27 1528.58 1071.34"/><polygon class="cls-166" points="1525.21 908.29 1520.32 922.13 1528.53 934.15 1514.34 933.6 1505.85 945.41 1501.97 931.24 1488.51 926.52 1500.31 918.31 1500.48 903.58 1511.65 912.68 1525.21 908.29"/><polygon class="cls-167" points="1664.22 1141.21 1655.9 1161.11 1666.99 1179.5 1646.18 1177.45 1632.75 1194.07 1628.2 1172.9 1608.81 1164.79 1626.81 1153.76 1628.26 1132.12 1643.93 1146.47 1664.22 1141.21"/><polygon class="cls-168" points="1416.63 940.63 1410.68 949.96 1414.71 960.34 1404.31 957.35 1396.04 964.54 1395.57 953.36 1386.42 947.42 1396.53 943.5 1399.15 932.64 1405.87 941.4 1416.63 940.63"/><polygon class="cls-169" points="1677.75 829.57 1670.64 851.95 1684.38 870.71 1661.67 870.61 1648.71 889.96 1641.79 867.52 1620.04 860.72 1638.47 846.95 1637.98 823.4 1656.3 837.33 1677.75 829.57"/><polygon class="cls-170" points="1632.75 993.05 1622.34 1011.72 1631.26 1031.19 1610.92 1026.69 1595.82 1041.51 1593.67 1020.06 1575.41 1009.74 1594.42 1000.99 1598.24 979.79 1612.13 995.83 1632.75 993.05"/><polygon class="cls-171" points="1722.75 1150.1 1724.87 1157.54 1731.98 1159.95 1725.81 1164.34 1725.8 1172.1 1719.87 1167.38 1712.75 1169.76 1715.25 1162.45 1710.86 1156.16 1718.34 1156.37 1722.75 1150.1"/><polygon class="cls-172" points="1812.6 1046.85 1807.26 1060.53 1815.09 1072.85 1800.9 1071.8 1792.02 1083.34 1788.59 1069.02 1775.27 1063.83 1787.35 1056.02 1787.99 1041.27 1798.88 1050.77 1812.6 1046.85"/><polygon class="cls-173" points="1809.23 883.8 1804.33 897.63 1812.55 909.65 1798.35 909.1 1789.87 920.91 1785.98 906.74 1772.53 902.02 1784.32 893.81 1784.49 879.08 1795.66 888.18 1809.23 883.8"/><polygon class="cls-174" points="1948.23 1116.72 1939.92 1136.62 1951.01 1155 1930.19 1152.95 1916.77 1169.57 1912.21 1148.4 1892.83 1140.29 1910.83 1129.26 1912.27 1107.63 1927.95 1121.98 1948.23 1116.72"/><polygon class="cls-175" points="1916.77 968.55 1906.35 987.22 1915.27 1006.7 1894.94 1002.19 1879.84 1017.01 1877.68 995.56 1859.43 985.24 1878.43 976.49 1882.25 955.29 1896.15 971.34 1916.77 968.55"/><polygon class="cls-176" points="216.25 1548.56 209.87 1575.1 227.33 1595.6 201.02 1597.51 187.61 1621.06 177.74 1595.7 151.99 1589.76 172.2 1572.18 169.69 1544.94 192.06 1559.44 216.25 1548.56"/><polygon class="cls-177" points="156.12 1226.04 171.04 1267.11 212.12 1277.64 179.07 1305.06 182.11 1348.84 146.76 1324.71 107.56 1341.24 118.76 1298.91 91.49 1265.34 133.76 1263.31 156.12 1226.04"/><polygon class="cls-178" points="410.37 1255.13 412.04 1276.7 430.12 1287.49 410.86 1295.81 406.55 1316.98 392.97 1300.55 372.23 1302.84 383.09 1284.37 374.58 1264.61 394.88 1269.63 410.37 1255.13"/><polygon class="cls-179" points="361.18 1522.17 359.99 1538.61 372.37 1548.94 356.93 1552.85 351.28 1568.26 342.93 1554.23 327.05 1553.42 337.33 1540.85 333.17 1524.93 347.88 1531.19 361.18 1522.17"/><polygon class="cls-180" points="203.41 1821.55 198.15 1828.82 200.94 1837.44 192.65 1834.5 185.61 1839.92 185.74 1830.83 178.6 1825.56 186.97 1822.88 189.6 1814.21 194.64 1821.64 203.41 1821.55"/><polygon class="cls-181" points="156 1784.49 156.06 1788.48 159.26 1790.68 155.63 1791.98 154.59 1795.81 152.28 1792.63 148.44 1792.8 150.65 1789.54 149.31 1785.8 152.99 1786.97 156 1784.49"/><polygon class="cls-182" points="313.3 1753.47 294.09 1752.24 282.23 1767.96 277.42 1748.63 259.34 1741.79 275.57 1731.07 276.26 1711.12 291.11 1723.82 309.61 1718.34 302.55 1736.91 313.3 1753.47"/><polygon class="cls-183" points="459.48 1717.31 440.02 1716.86 428.63 1733.23 423.03 1713.9 404.5 1707.73 420.5 1696.23 420.43 1676.04 435.92 1688.27 454.41 1681.97 447.98 1701.02 459.48 1717.31"/><polygon class="cls-184" points="473.11 1821.03 468.28 1826.27 469.71 1833.37 463.42 1830.23 457.36 1833.83 458.29 1826.65 453.11 1821.79 459.98 1820.48 462.84 1813.88 466.16 1820.25 473.11 1821.03"/><polygon class="cls-185" points="377.93 1768.22 376.94 1772.88 380.09 1776.36 375.51 1776.83 373.29 1781.01 371.44 1776.64 366.93 1775.74 370.36 1772.57 369.79 1767.84 373.76 1770.25 377.93 1768.22"/><polygon class="cls-186" points="459.27 1531.23 448.02 1538.93 447.76 1552.91 437.23 1544.19 424.33 1548.25 429.07 1535.16 421.36 1523.7 434.82 1524.33 442.96 1513.18 446.54 1526.65 459.27 1531.23"/><polygon class="cls-187" points="274.7 1636.03 267.14 1645.16 270.12 1656.8 259.41 1652.17 249.66 1658.69 250.6 1646.7 241.6 1639.1 252.88 1636.32 257.07 1625.1 263.11 1635.37 274.7 1636.03"/><polygon class="cls-188" points="343.23 1636.12 337.71 1642.5 339.66 1650.83 332.1 1647.36 325.06 1651.85 325.91 1643.33 319.61 1637.77 327.69 1635.97 330.84 1628.04 334.99 1635.46 343.23 1636.12"/><polygon class="cls-189" points="302.48 1503.37 305.05 1510.45 312.13 1512.27 306.43 1516.99 306.95 1524.53 300.86 1520.37 294.1 1523.21 296.04 1515.92 291.34 1510.13 298.63 1509.79 302.48 1503.37"/><polygon class="cls-190" points="255.17 1389.49 243.48 1398.07 243.66 1412.93 232.18 1404.04 218.62 1408.82 223.22 1394.74 214.65 1382.84 228.97 1383.03 237.24 1370.9 241.5 1385.08 255.17 1389.49"/><polygon class="cls-191" points="307.43 1370.91 301.82 1378.12 304.36 1387 296.01 1383.69 288.65 1388.95 289.11 1379.69 282.01 1374.06 290.64 1371.65 293.62 1362.91 298.5 1370.67 307.43 1370.91"/><polygon class="cls-192" points="376.27 1407.92 370.98 1420.41 377.89 1432.02 364.8 1430.65 356.3 1441.06 353.51 1427.73 341.34 1422.56 352.7 1415.68 353.68 1402.08 363.49 1411.16 376.27 1407.92"/><polygon class="cls-193" points="172.44 1459.93 167.68 1467.09 170.66 1475.21 162.63 1472.72 156.09 1478.18 155.89 1469.48 148.87 1464.73 156.78 1461.84 158.98 1453.44 164.07 1460.36 172.44 1459.93"/><polygon class="cls-194" points="174.36 1689.9 172.46 1703.72 182.36 1713.18 169.1 1715.57 163.48 1728.26 157.19 1715.92 143.82 1714.31 153.19 1704.28 150.54 1690.6 162.63 1696.74 174.36 1689.9"/><polygon class="cls-195" points="131.65 1644.28 128.98 1652.67 134.13 1659.71 125.62 1659.67 120.76 1666.93 118.16 1658.52 110 1655.96 116.92 1650.8 116.73 1641.97 123.6 1647.19 131.65 1644.28"/><polygon class="cls-196" points="308.16 1297.72 305.52 1313.88 316.86 1325.29 301.23 1327.67 294.26 1342.38 287.25 1327.7 271.61 1325.38 282.9 1313.92 280.2 1297.78 294.2 1305.37 308.16 1297.72"/><polygon class="cls-197" points="297.65 1245.55 295.29 1254.56 301.1 1261.69 292.11 1262.14 287.37 1270.08 284.18 1261.35 275.43 1259.13 282.45 1253.28 281.78 1243.96 289.32 1249.08 297.65 1245.55"/><polygon class="cls-198" points="494.26 1375.51 479.17 1382.23 475.95 1398.94 465.12 1386.13 448.81 1388.13 457.2 1373.48 450.33 1358.01 466.36 1361.77 478.42 1350.2 479.93 1367.17 494.26 1375.51"/><polygon class="cls-199" points="570.01 1274.47 560.63 1286.77 565.07 1301.76 550.9 1296.3 538.52 1305.31 539.15 1289.64 527.06 1280.22 541.62 1276 546.52 1261.16 554.9 1274.22 570.01 1274.47"/><polygon class="cls-200" points="557.68 1730.37 554.71 1736.59 557.97 1742.66 551.34 1741.65 546.79 1746.73 545.67 1739.89 539.6 1736.96 545.53 1733.74 546.33 1726.85 551.12 1731.71 557.68 1730.37"/><polygon class="cls-201" points="598.58 1558.56 580.94 1562.35 573.94 1579.57 565.02 1563.34 547.06 1561.76 559.19 1547.94 555.09 1529.73 571.51 1537.43 586.93 1527.76 584.95 1546.34 598.58 1558.56"/><polygon class="cls-202" points="679.47 1346.67 669.94 1360.98 675.9 1377.24 659.83 1372.26 646.77 1383.17 646.37 1365.78 632.33 1356.26 648.15 1350.49 652.53 1333.7 662.72 1347.53 679.47 1346.67"/><polygon class="cls-203" points="822.43 1328.66 788.28 1320.09 762.12 1344.41 759.42 1308.07 729.04 1289.78 761.52 1275.89 768.91 1240.26 791.68 1268.02 826.63 1264.29 808.22 1295.33 822.43 1328.66"/><polygon class="cls-204" points="809.86 1755.29 794.67 1779.56 805.34 1806.3 778.4 1798.82 757.18 1817.6 755.71 1788.71 731.93 1773.58 757.97 1763.21 764.49 1735.08 782.05 1757.55 809.86 1755.29"/><polygon class="cls-205" points="764.07 1582.17 747.37 1598.68 751.01 1622.32 730.71 1610.94 710.16 1621.84 714.32 1598.29 697.97 1581.39 720.85 1578.22 731.29 1556.88 741.27 1578.46 764.07 1582.17"/><polygon class="cls-206" points="676.76 1748.12 668.41 1757.15 670.85 1769.41 659.99 1763.96 649.5 1770.16 651.14 1757.76 642.22 1749.33 654.1 1747.12 659.07 1735.71 664.77 1746.74 676.76 1748.12"/><polygon class="cls-207" points="869.2 1618.86 851.72 1629.94 850.62 1651.16 835.06 1637.35 815.27 1642.81 823.12 1623.19 811.99 1605.36 832.41 1607.05 845.32 1590.56 850.09 1611.22 869.2 1618.86"/><polygon class="cls-208" points="861.69 1443.3 849.3 1452.5 849.58 1468.31 837.31 1458.93 822.91 1464.09 827.72 1449.09 818.53 1436.48 833.77 1436.59 842.5 1423.63 847.11 1438.7 861.69 1443.3"/><polygon class="cls-209" points="698.86 1497.03 698.59 1507.28 706.58 1513.31 697.1 1516.21 694.04 1525.96 688.45 1517.51 678.57 1517.49 684.59 1509.37 681.54 1499.62 690.86 1503.04 698.86 1497.03"/><polygon class="cls-210" points="1029.63 1551.73 1023.24 1578.27 1040.7 1598.77 1014.39 1600.68 1000.99 1624.23 991.11 1598.87 965.37 1592.93 985.58 1575.35 983.07 1548.12 1005.43 1562.62 1029.63 1551.73"/><polygon class="cls-211" points="969.49 1229.21 984.42 1270.28 1025.5 1280.82 992.45 1308.23 995.49 1352.01 960.14 1327.88 920.93 1344.41 932.13 1302.08 904.86 1268.51 947.14 1266.48 969.49 1229.21"/><polygon class="cls-212" points="1223.74 1258.3 1225.42 1279.87 1243.5 1290.66 1224.24 1298.98 1219.92 1320.15 1206.35 1303.72 1185.6 1306.01 1196.47 1287.54 1187.96 1267.79 1208.26 1272.8 1223.74 1258.3"/><polygon class="cls-213" points="1174.56 1525.34 1173.37 1541.78 1185.75 1552.12 1170.31 1556.02 1164.66 1571.43 1156.3 1557.4 1140.43 1556.59 1150.71 1544.02 1146.55 1528.11 1161.25 1534.36 1174.56 1525.34"/><polygon class="cls-214" points="969.37 1787.66 969.43 1791.65 972.63 1793.85 969 1795.15 967.97 1798.98 965.66 1795.8 961.82 1795.97 964.03 1792.71 962.69 1788.97 966.36 1790.14 969.37 1787.66"/><polygon class="cls-215" points="1126.68 1756.64 1107.47 1755.41 1095.6 1771.13 1090.79 1751.8 1072.71 1744.96 1088.95 1734.24 1089.64 1714.29 1104.48 1726.99 1122.99 1721.51 1115.93 1740.08 1126.68 1756.64"/><polygon class="cls-216" points="1272.85 1720.48 1253.39 1720.03 1242.01 1736.4 1236.41 1717.07 1217.88 1710.9 1233.87 1699.4 1233.81 1679.21 1249.29 1691.44 1267.78 1685.14 1261.36 1704.19 1272.85 1720.48"/><polygon class="cls-217" points="1191.3 1771.39 1190.32 1776.05 1193.46 1779.53 1188.89 1780 1186.67 1784.18 1184.82 1779.81 1180.3 1778.91 1183.74 1775.74 1183.17 1771.01 1187.14 1773.42 1191.3 1771.39"/><polygon class="cls-218" points="1272.65 1534.4 1261.4 1542.1 1261.13 1556.08 1250.6 1547.36 1237.71 1551.42 1242.44 1538.33 1234.74 1526.87 1248.2 1527.5 1256.33 1516.35 1259.91 1529.83 1272.65 1534.4"/><polygon class="cls-219" points="1088.07 1639.2 1080.52 1648.34 1083.49 1659.97 1072.78 1655.34 1063.04 1661.87 1063.97 1649.87 1054.97 1642.28 1066.26 1639.49 1070.45 1628.27 1076.49 1638.54 1088.07 1639.2"/><polygon class="cls-220" points="1156.61 1639.29 1151.09 1645.67 1153.03 1654 1145.48 1650.53 1138.44 1655.03 1139.28 1646.5 1132.99 1640.94 1141.07 1639.14 1144.22 1631.21 1148.37 1638.63 1156.61 1639.29"/><polygon class="cls-221" points="1115.86 1506.54 1118.43 1513.62 1125.51 1515.44 1119.81 1520.16 1120.33 1527.7 1114.24 1523.54 1107.48 1526.38 1109.41 1519.09 1104.72 1513.3 1112 1512.96 1115.86 1506.54"/><polygon class="cls-222" points="1068.55 1392.66 1056.86 1401.24 1057.04 1416.1 1045.56 1407.21 1031.99 1411.99 1036.59 1397.92 1028.03 1386.01 1042.35 1386.2 1050.62 1374.07 1054.87 1388.26 1068.55 1392.66"/><polygon class="cls-223" points="1120.8 1374.08 1115.19 1381.29 1117.74 1390.17 1109.39 1386.87 1102.03 1392.12 1102.48 1382.87 1095.39 1377.23 1104.02 1374.82 1106.99 1366.08 1111.87 1373.84 1120.8 1374.08"/><polygon class="cls-224" points="1189.65 1411.1 1184.35 1423.58 1191.27 1435.19 1178.18 1433.82 1169.68 1444.23 1166.88 1430.9 1154.71 1425.73 1166.07 1418.85 1167.05 1405.25 1176.87 1414.33 1189.65 1411.1"/><polygon class="cls-225" points="985.82 1463.1 981.05 1470.26 984.04 1478.38 976 1475.9 969.47 1481.35 969.27 1472.65 962.25 1467.9 970.16 1465.01 972.35 1456.62 977.44 1463.53 985.82 1463.1"/><polygon class="cls-226" points="987.73 1693.07 985.83 1706.89 995.73 1716.35 982.47 1718.74 976.86 1731.43 970.56 1719.1 957.19 1717.48 966.56 1707.45 963.91 1693.77 976 1699.91 987.73 1693.07"/><polygon class="cls-227" points="945.02 1647.45 942.36 1655.84 947.51 1662.88 938.99 1662.84 934.13 1670.1 931.53 1661.69 923.38 1659.14 930.29 1653.97 930.11 1645.14 936.98 1650.36 945.02 1647.45"/><polygon class="cls-228" points="1121.54 1300.89 1118.9 1317.05 1130.23 1328.46 1114.6 1330.85 1107.64 1345.55 1100.62 1330.87 1084.99 1328.55 1096.28 1317.09 1093.58 1300.95 1107.57 1308.55 1121.54 1300.89"/><polygon class="cls-229" points="1111.03 1248.72 1108.66 1257.73 1114.48 1264.86 1105.48 1265.31 1100.74 1273.25 1097.55 1264.52 1088.81 1262.3 1095.83 1256.45 1095.16 1247.13 1102.69 1252.25 1111.03 1248.72"/><polygon class="cls-230" points="1307.63 1378.68 1292.54 1385.4 1289.33 1402.12 1278.49 1389.31 1262.18 1391.3 1270.58 1376.66 1263.71 1361.18 1279.73 1364.94 1291.8 1353.38 1293.31 1370.34 1307.63 1378.68"/><polygon class="cls-231" points="1383.39 1277.64 1374 1289.94 1378.45 1304.93 1364.27 1299.47 1351.9 1308.48 1352.53 1292.81 1340.43 1283.39 1355 1279.17 1359.9 1264.33 1368.27 1277.39 1383.39 1277.64"/><polygon class="cls-232" points="1371.06 1733.54 1368.09 1739.76 1371.34 1745.83 1364.72 1744.82 1360.16 1749.9 1359.04 1743.06 1352.97 1740.13 1358.9 1736.91 1359.71 1730.02 1364.49 1734.88 1371.06 1733.54"/><polygon class="cls-233" points="1411.96 1561.73 1394.31 1565.52 1387.32 1582.74 1378.39 1566.51 1360.43 1564.93 1372.57 1551.11 1368.46 1532.91 1384.88 1540.6 1400.31 1530.93 1398.33 1549.51 1411.96 1561.73"/><polygon class="cls-234" points="1492.84 1349.84 1483.31 1364.15 1489.28 1380.41 1473.21 1375.43 1460.14 1386.34 1459.74 1368.95 1445.7 1359.43 1461.52 1353.66 1465.91 1336.87 1476.09 1350.7 1492.84 1349.84"/><polygon class="cls-235" points="1635.81 1331.83 1601.66 1323.26 1575.49 1347.58 1572.8 1311.24 1542.41 1292.95 1574.9 1279.06 1582.29 1243.43 1605.06 1271.19 1640.01 1267.46 1621.6 1298.5 1635.81 1331.83"/><polygon class="cls-236" points="1623.23 1758.46 1608.05 1782.73 1618.72 1809.47 1591.77 1801.99 1570.56 1820.77 1569.09 1791.88 1545.31 1776.76 1571.35 1766.38 1577.87 1738.25 1595.43 1760.72 1623.23 1758.46"/><polygon class="cls-237" points="1577.45 1585.34 1560.74 1601.85 1564.38 1625.49 1544.08 1614.11 1523.53 1625.01 1527.69 1601.46 1511.35 1584.57 1534.22 1581.39 1544.67 1560.05 1554.65 1581.63 1577.45 1585.34"/><polygon class="cls-238" points="1490.13 1751.29 1481.79 1760.33 1484.22 1772.58 1473.36 1767.13 1462.88 1773.33 1464.52 1760.93 1455.6 1752.5 1467.47 1750.29 1472.44 1738.88 1478.14 1749.91 1490.13 1751.29"/><polygon class="cls-239" points="1682.57 1622.03 1665.1 1633.12 1663.99 1654.33 1648.43 1640.52 1628.64 1645.98 1636.5 1626.36 1625.37 1608.53 1645.78 1610.22 1658.7 1593.73 1663.46 1614.39 1682.57 1622.03"/><polygon class="cls-240" points="1675.06 1446.47 1662.67 1455.68 1662.95 1471.48 1650.69 1462.1 1636.29 1467.27 1641.1 1452.27 1631.91 1439.65 1647.15 1439.76 1655.87 1426.8 1660.48 1441.87 1675.06 1446.47"/><polygon class="cls-241" points="1512.23 1500.2 1511.97 1510.45 1519.96 1516.48 1510.48 1519.39 1507.41 1529.13 1501.82 1520.68 1491.94 1520.67 1497.96 1512.54 1494.92 1502.79 1504.23 1506.21 1512.23 1500.2"/><polygon class="cls-242" points="1776.86 1325.34 1767.33 1339.66 1773.29 1355.91 1757.22 1350.94 1744.16 1361.85 1743.76 1344.45 1729.72 1334.94 1745.54 1329.17 1749.92 1312.38 1760.11 1326.2 1776.86 1325.34"/><polygon class="cls-243" points="1919.82 1307.34 1885.67 1298.77 1859.51 1323.09 1856.81 1286.75 1826.43 1268.45 1858.91 1254.57 1866.3 1218.94 1889.07 1246.69 1924.02 1242.97 1905.61 1274.01 1919.82 1307.34"/><polygon class="cls-244" points="1907.25 1733.97 1892.06 1758.24 1902.73 1784.97 1875.79 1777.49 1854.57 1796.27 1853.1 1767.38 1829.32 1752.26 1855.36 1741.88 1861.88 1713.75 1879.44 1736.23 1907.25 1733.97"/><polygon class="cls-245" points="1861.46 1560.84 1844.76 1577.36 1848.4 1600.99 1828.1 1589.62 1807.55 1600.51 1811.71 1576.97 1795.36 1560.07 1818.24 1556.89 1828.68 1535.55 1838.66 1557.13 1861.46 1560.84"/><polygon class="cls-246" points="1774.15 1726.8 1765.8 1735.83 1768.24 1748.09 1757.38 1742.64 1746.89 1748.83 1748.53 1736.43 1739.61 1728.01 1751.48 1725.79 1756.46 1714.39 1762.16 1725.42 1774.15 1726.8"/><polygon class="cls-247" points="1966.59 1597.54 1949.11 1608.62 1948.01 1629.83 1932.45 1616.02 1912.66 1621.49 1920.51 1601.87 1909.38 1584.03 1929.8 1585.72 1942.71 1569.23 1947.47 1589.89 1966.59 1597.54"/><polygon class="cls-248" points="1959.08 1421.98 1946.69 1431.18 1946.97 1446.98 1934.7 1437.61 1920.3 1442.77 1925.11 1427.77 1915.92 1415.16 1931.16 1415.27 1939.89 1402.31 1944.5 1417.37 1959.08 1421.98"/><polygon class="cls-249" points="1796.25 1475.7 1795.98 1485.95 1803.97 1491.98 1794.49 1494.89 1791.43 1504.63 1785.84 1496.18 1775.96 1496.17 1781.98 1488.04 1778.93 1478.29 1788.25 1481.72 1796.25 1475.7"/></g><circle cx="1028.8" cy="629.6" r="541.8"/></g></svg>