<?xml version="1.0" encoding="utf-8"?>
<!-- Generator: Adobe Illustrator 22.1.0, SVG Export Plug-In . SVG Version: 6.00 Build 0)  -->
<svg version="1.1" id="Layer_1" xmlns="http://www.w3.org/2000/svg" xmlns:xlink="http://www.w3.org/1999/xlink" x="0px" y="0px"
	 viewBox="0 0 1280 1024" style="enable-background:new 0 0 1280 1024;" xml:space="preserve">
<style type="text/css">
	.st0{fill:#707070;}
	.st1{fill:#B9B9BA;}
	.st2{fill:#FFFFFF;}
	.st3{fill:#E6E6E8;}
	.st4{fill:#FFFFFF;stroke:#E8E8E8;stroke-miterlimit:10;}
	.st5{fill:#C0C0C4;}
	.st6{opacity:0.48;clip-path:url(#XMLID_2_);fill:#FFFFFF;}
	.st7{fill:#858585;}
	.st8{fill:#A6A6A6;}
	.st9{fill:#C2C2CA;}
	.st10{fill:#A8A8A8;}
	.st11{opacity:0.38;fill:#C0C0C4;}
	.st12{fill:#E8E8E8;}
	.st13{fill:#B4B4B5;}
	.st14{fill:#E2E2E2;}
	.st15{fill:#666666;}
	.st16{opacity:0.48;fill:#FFFFFF;}
	.st17{fill:#A52B1C;}
	.st18{fill:#002C3C;}
	.st19{fill:#9B9B9E;}
	.st20{fill:none;stroke:#FFFFFF;stroke-miterlimit:10;}
</style>
<g>
	<path class="st0" d="M514.3,503.7h70.5c59.1,0,107.5-48.4,107.5-107.5v-99.1c0-59.1-48.4-107.5-107.5-107.5h-70.5
		c-59.1,0-107.5,48.4-107.5,107.5v99.1C406.9,455.4,455.2,503.7,514.3,503.7z"/>
	<path class="st1" d="M532.8,503.3h70.5c59.1,0,107.5-48.4,107.5-107.5v-99.1c0-59.1-48.4-107.5-107.5-107.5h-70.5
		c-59.1,0-107.5,48.4-107.5,107.5v99.1C425.4,455,473.7,503.3,532.8,503.3z"/>
	<path class="st2" d="M540.3,107.4c11.2-59.3,64.2-90.6,132.6-82.7c63,7.2,97.4,42.8,91.4,121.7c-3.1,40-16.9,55.5-34.8,70.4
		c-48.3,1.4-96.5,0.6-144.8,0.6C550.9,191.7,532.3,149.6,540.3,107.4z"/>
	<path class="st2" d="M569.4,222.7"/>
	<path class="st2" d="M462.4,317c0,0,40.2-70,63.2-78.9c23-8.9,38.8-9,38.8-9l173.7,4.1c0,0,51.7,3.6,70.3,31.4
		c18.7,27.9,27.3,75.4,27.3,75.4s-0.7,2.4-2.4,6.5l-367.8-24L462.4,317z"/>
	<path class="st3" d="M783.9,278.8c-45.1,9.2-65.9,57.7-39.4,91.8c36.2,46.5,99.2,111.3,149.4,78.6c62.6-40.8,114.1-88,129.6-102.5
		c3-2.9,4.3-7,3.3-10.8c-4.4-17.3-20.1-63.5-60.9-52.5c-35.4,9.6-66.9,42.1-82.1,60.1c-5.1,6.1-15.1,6.2-20.1,0.2l-45.6-54.1
		c-7.7-9.2-20.6-13.5-33.1-11C784.7,278.7,784.3,278.7,783.9,278.8z"/>
	<path class="st4" d="M757.9,518.9c0,0,101.3,75.2,131.3,166c0,0-36.4,134-133.6,203.3c0,0-81.5,10-80.6-58.6
		c0,0,63.4-120.8,105.1-137.7c0,0-135.7-42.4-140.7-100.6C634.4,533.2,702.4,468.8,757.9,518.9z"/>
	<path class="st4" d="M655.9,520.3c0,0,54.5,120.8,37.4,217.8c0,0-97.5,100.4-218.2,110.8c0,0-78-34.2-43.9-95
		c0,0,115.3-74.3,160.9-67.3c0,0-101.3-109.8-77.6-164.4C538.2,467.7,630.3,446.1,655.9,520.3z"/>
	<path class="st5" d="M740.5,879.5c0,0,37.1,40.9,12.9,76.5c-24.2,35.6-77.1-25.6-77.1-25.6l-34.8-44.3
		c-8.8-14.6-10.2-28.8-2.7-42.5c4.6-8.5,11.9-15.7,23.2-16.4C690.3,825.5,740.5,879.5,740.5,879.5z"/>
	<g>
		<defs>
			<path id="XMLID_24_" d="M642.5,202.1h54.2c37.5,0,68.2-30.7,68.2-68.2v0c0-39.4-32.2-71.6-71.6-71.6h-52.5
				c-27.5,0-49.9,22.5-49.9,49.9v38.1C590.8,178.8,614.1,202.1,642.5,202.1z"/>
		</defs>
		<use xlink:href="#XMLID_24_"  style="overflow:visible;fill:#C0C0C4;"/>
		<clipPath id="XMLID_2_">
			<use xlink:href="#XMLID_24_"  style="overflow:visible;"/>
		</clipPath>
		<polygon class="st6" points="619.9,45.5 777.7,162.2 797.4,139.7 639.7,23 		"/>
		<polygon class="st6" points="594,78.2 751.7,194.9 771.5,172.4 613.8,55.7 		"/>
	</g>
	<g>
		<ellipse class="st7" cx="563.8" cy="111.3" rx="16.7" ry="20.9"/>
	</g>
	<ellipse class="st8" cx="558.8" cy="111.3" rx="10.6" ry="11.5"/>
	<ellipse class="st9" cx="567.5" cy="154.8" rx="13.7" ry="13.7"/>
	<ellipse class="st10" cx="564.5" cy="154.5" rx="9.7" ry="9.7"/>
	<g>
		<path class="st11" d="M734.1,210.3c-1.7,2-3.8,2.9-5.4,4.9c-6.7,8.5-148,0.6-148,0.6s-1.8-1.9-2.8-5.4L734.1,210.3z"/>
		<path class="st11" d="M732.8,228.5c-0.3,2.2-3.1,3.7-4.7,6.2c-6.7,10.4-146.9,0.2-146.9,0.2s-5.2-2.5-6.2-6.8L732.8,228.5z"/>
		<path class="st2" d="M731.1,213.3c0,0,6.7,8.2,0,18.6s-150.3,0-150.3,0s-8.4-12.8,0-18.6H731.1z"/>
	</g>
	<path class="st3" d="M746.9,887.7c0,0,37.4,42.2,12.8,79c-24.6,36.8-77.9-26.2-77.9-26.2l-35.1-45.7c-8.8-15-10.2-29.8-2.6-43.9
		c4.7-8.8,12.1-16.2,23.5-17C696.4,832,746.9,887.7,746.9,887.7z"/>
	<g>
		<path class="st5" d="M499.5,817c0,0,30.2,46.2,0.7,77.5s-72.1-37.3-72.1-37.3L400.7,808c-6.4-15.8-5.6-30.1,4-42.4
			c5.9-7.6,14.2-13.6,25.4-12.6C458.5,755.8,499.5,817,499.5,817z"/>
		<path class="st3" d="M504.6,826.1c0,0,30.3,47.5,0.2,80c-30.1,32.5-72.8-38.1-72.8-38.1l-27.5-50.6c-6.4-16.2-5.4-31,4.3-43.8
			c6-7.9,14.5-14.2,25.9-13.1C463.4,763.1,504.6,826.1,504.6,826.1z"/>
	</g>
	<g>
		<path class="st2" d="M684.2,538.5c75.9-3.2,110.7-51,106.6-145.1c-3.4-77.5-53.6-133.5-118.9-135.5
			c-80.7-2.4-134.6,68.7-131.2,146.2S548.9,544.3,684.2,538.5z"/>
		<path class="st12" d="M684.2,538.5c8.9-0.4,17.9-1.5,26.6-3.4c8.7-2,17.2-5,25.2-9.1c16-8.1,29-21.3,37.3-37
			c4.2-7.8,7.5-16.1,9.9-24.7c2.4-8.6,4.1-17.3,5.2-26.2c1.1-8.9,1.6-17.8,1.7-26.7c0-2.2,0-4.5,0-6.7c0-2.2-0.1-4.5-0.1-6.7
			c-0.1-4.5-0.4-8.9-0.8-13.4c-1.6-17.7-5.8-35.3-13.1-51.6c-7.2-16.3-17.4-31.3-30.3-43.5c-13-12.1-28.7-21.4-45.8-26.4
			c-8.5-2.5-17.4-3.9-26.2-4.3c-8.9-0.4-17.8,0.1-26.6,1.6c-17.5,2.9-34.4,9.8-48.9,20.1c-14.5,10.3-26.7,23.8-35.8,39
			c-9.2,15.3-15.4,32.2-18.6,49.8c-1.6,8.8-2.4,17.7-2.5,26.6c0,4.4,0.1,8.9,0.4,13.4c0.2,4.5,0.4,8.9,0.7,13.4
			c0.5,8.9,1.3,17.8,2.5,26.7c1.2,8.8,2.9,17.6,5.6,26.1c2.6,8.5,6.4,16.6,11.4,23.9c5,7.3,11.4,13.6,18.7,18.6
			c7.3,5.1,15.4,8.9,23.8,11.8c8.4,2.9,17.2,4.8,26,6.3c4.4,0.6,8.9,1.3,13.3,1.6c2.2,0.2,4.5,0.4,6.7,0.6l6.7,0.3
			c1.1,0,2.2,0.1,3.4,0.1l3.4,0l6.7,0.1C675.2,538.8,679.7,538.6,684.2,538.5z M684.2,538.5c-4.5,0.1-9,0.3-13.4,0.4l-6.7,0l-3.4,0
			c-1.1,0-2.2-0.1-3.4-0.1l-6.7-0.2c-2.2-0.1-4.5-0.3-6.7-0.4c-4.5-0.2-8.9-0.8-13.4-1.3c-8.9-1.2-17.7-2.9-26.4-5.6
			c-8.6-2.7-16.9-6.4-24.5-11.5c-7.5-5.1-14-11.7-19.2-19.1c-5.2-7.5-9-15.8-11.7-24.4c-2.7-8.6-4.4-17.5-5.7-26.4
			c-1.2-8.9-1.9-17.9-2.5-26.8c-0.3-4.5-0.5-9-0.7-13.4c-0.2-4.5-0.4-9-0.4-13.5c0-9,0.9-18,2.5-26.9c3.2-17.7,9.5-35,18.8-50.4
			c9.3-15.5,21.6-29.2,36.4-39.6c14.7-10.5,31.9-17.5,49.7-20.5c8.9-1.5,18-2,27-1.6c9,0.4,18,1.9,26.7,4.4
			c17.4,5,33.4,14.5,46.6,26.8c13.2,12.4,23.5,27.6,30.8,44.1c7.3,16.5,11.6,34.3,13.2,52.2c0.4,4.5,0.7,9,0.8,13.5
			c0.1,2.2,0.2,4.5,0.1,6.7c0,2.2,0.1,4.5,0,6.7c-0.1,9-0.7,18-1.7,26.9c-1.1,8.9-2.8,17.8-5.2,26.5c-2.5,8.7-5.7,17.2-10.1,25.1
			c-4.4,7.9-10,15.2-16.5,21.4c-1.6,1.6-3.4,3-5.1,4.5c-0.8,0.8-1.8,1.4-2.7,2.1c-0.9,0.7-1.8,1.4-2.7,2c-3.8,2.5-7.6,4.8-11.7,6.7
			c-8.1,3.9-16.7,6.7-25.5,8.6C702.1,537.2,693.2,538.2,684.2,538.5z"/>
	</g>
	<path class="st5" d="M744.4,377L744.4,377c0-32.9-26.7-59.5-59.5-59.5h-27.8c-32.9,0-59.5,26.7-59.5,59.5v0
		c0,32.9,26.7,59.5,59.5,59.5h27.8C717.8,436.5,744.4,409.8,744.4,377z"/>
	<path class="st3" d="M667.4,436.5h26c32.9,0,59.5-26.7,59.5-59.5v0c0-32.9-26.7-59.5-59.5-59.5h-26c-32.9,0-59.5,26.7-59.5,59.5v0
		C607.9,409.8,634.5,436.5,667.4,436.5z"/>
	<ellipse class="st13" cx="644.4" cy="344.4" rx="9.6" ry="9.8"/>
	<ellipse class="st14" cx="646.9" cy="344.4" rx="9.6" ry="9.8"/>
	
		<rect x="673.9" y="334.8" transform="matrix(-1 -4.489710e-11 4.489710e-11 -1 1396.5619 687.0936)" class="st15" width="48.8" height="17.4"/>
	
		<rect x="680.3" y="334.8" transform="matrix(-1 -4.490243e-11 4.490243e-11 -1 1402.9685 687.0936)" class="st16" width="42.4" height="17.4"/>
	<ellipse class="st17" cx="713.9" cy="343.5" rx="3.6" ry="3.3"/>
	<ellipse class="st18" cx="701.5" cy="343.5" rx="3.6" ry="3.3"/>
	<ellipse class="st2" cx="688.6" cy="343.5" rx="3.6" ry="3.3"/>
	<g>
		<path class="st2" d="M642.5,339.4c-0.4,1.2-0.7,2.2-1,3.1c-0.3,0.9-0.4,1.8-0.4,2.5c0,0.8,0,1.6,0.4,2.5l0.1,0.3
			c0,0.1,0.1,0.2,0.1,0.3c0.1,0.2,0.2,0.5,0.3,0.7c0.2,0.5,0.4,1,0.6,1.6c-0.6-0.1-1.2-0.4-1.7-0.7c-0.3-0.2-0.5-0.4-0.7-0.5
			c-0.3-0.2-0.5-0.4-0.7-0.7c-0.9-0.9-1.3-2.3-1.3-3.7c0-1.4,0.6-2.7,1.4-3.6C640.2,340.4,641.2,339.6,642.5,339.4z"/>
	</g>
	<path class="st3" d="M594,294.1c-18-41.9-70.2-52.5-98.8-20.1c-39,44.2-91,117.9-48.6,160.2c52.7,52.7,109.7,93.4,127.2,105.5
		c3.5,2.4,7.8,2.8,11.4,1.1c16.3-7.6,59.1-32,40.1-69.3c-16.5-32.4-54.9-56.5-75.8-67.8c-7-3.8-9.1-13.4-4.1-19.5l44.7-54.8
		c7.6-9.3,9.3-22.6,4.4-34.2C594.3,294.8,594.2,294.4,594,294.1z"/>
	<g>
		<ellipse class="st13" cx="537" cy="213.3" rx="11.1" ry="12.4"/>
		<ellipse class="st14" cx="539.9" cy="213.3" rx="11.1" ry="12.4"/>
		<g>
			<path class="st2" d="M534.8,206.9c-0.5,1.4-1,2.6-1.3,3.7c-0.3,1.2-0.5,2.3-0.6,3.3c0,1.1,0.1,2.1,0.5,3.3
				c0.1,0.6,0.4,1.1,0.6,1.8c0.2,0.6,0.6,1.2,0.8,1.9c-0.7-0.3-1.3-0.6-1.9-1c-0.5-0.5-1.2-0.9-1.6-1.6c-0.9-1.2-1.4-2.8-1.4-4.4
				c0-1.6,0.6-3.1,1.5-4.3C532.2,208.4,533.4,207.4,534.8,206.9z"/>
		</g>
	</g>
	<ellipse class="st17" cx="439.5" cy="287.8" rx="3.6" ry="3.3"/>
	<ellipse class="st18" cx="439.5" cy="274.6" rx="3.6" ry="3.3"/>
	<ellipse class="st2" cx="439.5" cy="261.1" rx="3.6" ry="3.3"/>
	<ellipse class="st13" cx="510.3" cy="213.9" rx="6.4" ry="7.7"/>
	<ellipse class="st19" cx="511.9" cy="213.9" rx="6.4" ry="7.7"/>
	<g>
		<path class="st2" d="M508.9,210l-0.3,2.5c-0.1,0.7-0.1,1.3-0.1,1.9c0,0.6,0,1.1,0.1,1.8c0,0.4,0.1,0.7,0.2,1.1
			c0.1,0.4,0.2,0.8,0.2,1.4c-1-0.2-1.9-0.7-2.5-1.5c-0.7-0.8-1-1.9-1-2.9c0-1.1,0.4-2.1,1-2.8C507.1,210.8,507.9,210.2,508.9,210z"
			/>
	</g>
	<path class="st20" d="M483.6,206.2"/>
</g>
</svg>
