<?xml version="1.0" encoding="iso-8859-1"?>
<!-- Generator: Adobe Illustrator 19.0.0, SVG Export Plug-In . SVG Version: 6.00 Build 0)  -->
<svg version="1.1" id="Capa_1" xmlns="http://www.w3.org/2000/svg" xmlns:xlink="http://www.w3.org/1999/xlink" x="0px" y="0px"
	 viewBox="0 0 496 496" style="enable-background:new 0 0 496 496;" xml:space="preserve">
<path style="fill:#FFCB57;" d="M342.4,36.856l-22.4,67.2H160l-22.272-66.808L85.744,56.152l26.392,73.904
	c4.96,13.888,16.032,24.728,30.024,29.392l25.84,8.608v232h144v-232l25.832-8.608c13.992-4.664,25.064-15.504,30.024-29.392
	l27.032-75.696L342.4,36.856z M280,232.056h-80v-64h80V232.056z"/>
<g>
	<rect x="440" y="176.056" style="fill:#E56565;" width="16" height="24"/>
	<rect x="440" y="248.056" style="fill:#E56565;" width="16" height="24"/>
	<rect x="472" y="216.056" style="fill:#E56565;" width="24" height="16"/>
	<rect x="400" y="216.056" style="fill:#E56565;" width="24" height="16"/>
	
		<rect x="461.453" y="190.626" transform="matrix(-0.7071 0.7071 -0.7071 -0.7071 948.6841 4.2937)" style="fill:#E56565;" width="24" height="16"/>
	
		<rect x="410.541" y="241.483" transform="matrix(-0.7071 0.7071 -0.7071 -0.7071 897.7333 127.1124)" style="fill:#E56565;" width="24" height="16"/>
	
		<rect x="465.441" y="237.525" transform="matrix(-0.7071 0.7071 -0.7071 -0.7071 984.6557 91.1921)" style="fill:#E56565;" width="16" height="24"/>
	
		<rect x="414.547" y="186.607" transform="matrix(-0.7071 0.7071 -0.7071 -0.7071 861.7687 40.2583)" style="fill:#E56565;" width="16" height="24"/>
	<rect x="40" y="336.056" style="fill:#E56565;" width="16" height="24"/>
	<rect x="40" y="408.056" style="fill:#E56565;" width="16" height="24"/>
	<rect x="72" y="376.056" style="fill:#E56565;" width="24" height="16"/>
	<rect y="376.056" style="fill:#E56565;" width="24" height="16"/>
	
		<rect x="61.453" y="350.594" transform="matrix(-0.7071 0.7071 -0.7071 -0.7071 378.9558 560.2188)" style="fill:#E56565;" width="24" height="16"/>
	
		<rect x="10.535" y="401.497" transform="matrix(-0.7071 0.7071 -0.7071 -0.7071 328.0276 683.1195)" style="fill:#E56565;" width="24" height="16"/>
	
		<rect x="65.453" y="397.506" transform="matrix(-0.7071 0.7071 -0.7071 -0.7071 414.9557 647.1309)" style="fill:#E56565;" width="16" height="24"/>
	
		<rect x="14.552" y="346.613" transform="matrix(-0.7071 0.7071 -0.7071 -0.7071 292.0767 596.2437)" style="fill:#E56565;" width="16" height="24"/>
	<rect x="112" y="192.056" style="fill:#E56565;" width="16" height="16"/>
	<rect x="96" y="208.056" style="fill:#E56565;" width="16" height="16"/>
	<rect x="112" y="224.056" style="fill:#E56565;" width="16" height="16"/>
	<rect x="128" y="208.056" style="fill:#E56565;" width="16" height="16"/>
	<rect x="16" y="104.056" style="fill:#E56565;" width="16" height="16"/>
	<rect y="120.056" style="fill:#E56565;" width="16" height="16"/>
	<rect x="16" y="136.056" style="fill:#E56565;" width="16" height="16"/>
	<rect x="32" y="120.056" style="fill:#E56565;" width="16" height="16"/>
</g>
<g>
	<path style="fill:#3F3A34;" d="M375.392,132.744l30.56-85.544c3.624-10.192,2.416-21.352-3.328-30.632
		c-6.312-10.184-18.248-16.512-31.136-16.512c-15.104,0-28.464,9.624-33.232,23.952l-24.024,72.048H312v-24
		c0-39.704-32.296-72-72-72s-72,32.296-72,72v24h-2.232l-23.96-71.88C137,9.752,123.552,0.056,107.92,0.056
		c-11.392,0-21.616,4.68-28.072,12.84c-7.776,9.84-9.944,22.664-5.8,34.296l30.552,85.552c5.832,16.312,18.592,28.808,35.024,34.28
		l20.376,6.8v238.232c0,24.256,19.744,44,44,44c14.864,0,28.032-7.408,36-18.728c7.968,11.32,21.136,18.728,36,18.728
		c24.256,0,44-19.744,44-44V173.824l20.368-6.792C356.8,161.56,369.56,149.064,375.392,132.744z M371.488,16.056
		c7.4,0,14.128,3.432,17.536,8.936c3.168,5.112,3.84,11.248,1.856,16.832l-1.736,4.856L351.712,34.2l1.712-5.128
		C356.024,21.28,363.28,16.056,371.488,16.056z M184,72.056c0-30.872,25.128-56,56-56s56,25.128,56,56v24H184V72.056z
		 M92.416,22.824c3.344-4.24,9.136-6.768,15.928-6.768c8.312,0,15.656,5.296,18.288,13.176l1.656,4.96l-37.432,12.48l-1.736-4.856
		C86.84,35.416,88.072,28.312,92.416,22.824z M176,272.056h128v120h-56v-96h-16v96h-56V272.056z M204,440.056
		c-15.44,0-28-12.56-28-28v-4h56v4C232,427.496,219.44,440.056,204,440.056z M276,440.056c-15.44,0-28-12.56-28-28v-4h56v4
		C304,427.496,291.44,440.056,276,440.056z M304,162.288v93.768H176v-93.768l-31.304-10.432
		c-11.736-3.912-20.856-12.84-25.024-24.496L96.24,61.744l37.104-12.368l20.888,62.68H325.76l20.888-62.688l37.112,12.368
		l-23.44,65.616c-4.168,11.656-13.288,20.584-25.024,24.496L304,162.288z"/>
	<path style="fill:#3F3A34;" d="M192,240.056h96v-80h-96V240.056z M208,176.056h64v48h-64V176.056z"/>
	<rect x="192" y="128.056" style="fill:#3F3A34;" width="16" height="16"/>
	<rect x="232" y="128.056" style="fill:#3F3A34;" width="16" height="16"/>
	<rect x="272" y="128.056" style="fill:#3F3A34;" width="16" height="16"/>
	<path style="fill:#3F3A34;" d="M200,72.056h16c0-13.232,10.768-24,24-24v-16C217.944,32.056,200,50,200,72.056z"/>
	<path style="fill:#3F3A34;" d="M496,367.608c0-6.032-2.632-9.64-4.848-11.616c-8.64-7.672-25.64-3.84-50.408,11.064
		c-7.616-3.208-15.976-4.984-24.744-4.984c-35.288,0-64,28.712-64,64c0,5.944,0.88,11.68,2.4,17.152
		c-18.576,23.912-23.152,40.36-13.552,48.888c2.976,2.656,6.896,3.832,11.488,3.832c9.592,0,22.128-5.168,35.168-12.648
		c8.592,4.296,18.248,6.776,28.496,6.776c35.288,0,64-28.712,64-64c0-7.024-1.184-13.768-3.28-20.096
		C488.016,391.672,496,377.768,496,367.608z M480.056,367.872c0.104,3.456-3.576,11.328-11.296,22.048
		c-3.464-5.04-7.624-9.568-12.352-13.424C470.368,368.992,477.88,367.688,480.056,367.872z M416,378.072
		c18.208,0,34.08,10.192,42.216,25.176c-7.816,9.12-17.752,19.408-30.064,30.352c-15.088,13.416-28.888,23.632-40.56,31.072
		C375.736,455.92,368,441.904,368,426.072C368,399.6,389.528,378.072,416,378.072z M351.984,480.296
		c0.072-2.312,2.048-8.864,9.896-20.216c3.072,4.864,6.776,9.28,11,13.144C362.36,478.688,354.968,480.896,351.984,480.296z
		 M464,426.072c0,26.472-21.528,48-48,48c-4.016,0-7.896-0.552-11.624-1.48c12.72-8.776,24.944-18.64,34.392-27.04
		c8.248-7.328,16.928-15.736,24.968-24.448C463.912,422.736,464,424.392,464,426.072z"/>
	<rect x="344" y="240.056" style="fill:#3F3A34;" width="16" height="16"/>
	<rect x="464" y="64.056" style="fill:#3F3A34;" width="16" height="16"/>
	<rect x="48" y="272.056" style="fill:#3F3A34;" width="16" height="16"/>
</g>
<g>
</g>
<g>
</g>
<g>
</g>
<g>
</g>
<g>
</g>
<g>
</g>
<g>
</g>
<g>
</g>
<g>
</g>
<g>
</g>
<g>
</g>
<g>
</g>
<g>
</g>
<g>
</g>
<g>
</g>
</svg>
