<?xml version="1.0" encoding="UTF-8" standalone="no"?>
<!-- Generator: Adobe Illustrator 22.1.0, SVG Export Plug-In . SVG Version: 6.00 Build 0)  -->

<svg
   xmlns:dc="http://purl.org/dc/elements/1.1/"
   xmlns:cc="http://creativecommons.org/ns#"
   xmlns:rdf="http://www.w3.org/1999/02/22-rdf-syntax-ns#"
   xmlns:svg="http://www.w3.org/2000/svg"
   xmlns="http://www.w3.org/2000/svg"
   xmlns:xlink="http://www.w3.org/1999/xlink"
   xmlns:sodipodi="http://sodipodi.sourceforge.net/DTD/sodipodi-0.dtd"
   xmlns:inkscape="http://www.inkscape.org/namespaces/inkscape"
   version="1.1"
   id="Layer_1"
   x="0px"
   y="0px"
   viewBox="0 0 653 1024"
   xml:space="preserve"
   sodipodi:docname="astronaut.svg"
   width="653"
   height="1024"
   inkscape:version="0.92.3 (unknown)"><metadata
   id="metadata125"><rdf:RDF><cc:Work
       rdf:about=""><dc:format>image/svg+xml</dc:format><dc:type
         rdf:resource="http://purl.org/dc/dcmitype/StillImage" /><dc:title></dc:title></cc:Work></rdf:RDF></metadata><defs
   id="defs123" /><sodipodi:namedview
   pagecolor="#ffffff"
   bordercolor="#666666"
   borderopacity="1"
   objecttolerance="10"
   gridtolerance="10"
   guidetolerance="10"
   inkscape:pageopacity="0"
   inkscape:pageshadow="2"
   inkscape:window-width="1319"
   inkscape:window-height="985"
   id="namedview121"
   showgrid="false"
   inkscape:zoom="0.22890625"
   inkscape:cx="640"
   inkscape:cy="512"
   inkscape:window-x="2018"
   inkscape:window-y="30"
   inkscape:window-maximized="0"
   inkscape:current-layer="Layer_1" />
<style
   type="text/css"
   id="style2">
	.st0{fill:#707070;}
	.st1{fill:#B9B9BA;}
	.st2{fill:#FFFFFF;}
	.st3{fill:#E6E6E8;}
	.st4{fill:#FFFFFF;stroke:#E8E8E8;stroke-miterlimit:10;}
	.st5{fill:#C0C0C4;}
	.st6{opacity:0.48;clip-path:url(#XMLID_2_);fill:#FFFFFF;}
	.st7{fill:#858585;}
	.st8{fill:#A6A6A6;}
	.st9{fill:#C2C2CA;}
	.st10{fill:#A8A8A8;}
	.st11{opacity:0.38;fill:#C0C0C4;}
	.st12{fill:#E8E8E8;}
	.st13{fill:#B4B4B5;}
	.st14{fill:#E2E2E2;}
	.st15{fill:#666666;}
	.st16{opacity:0.48;fill:#FFFFFF;}
	.st17{fill:#A52B1C;}
	.st18{fill:#002C3C;}
	.st19{fill:#9B9B9E;}
	.st20{fill:none;stroke:#FFFFFF;stroke-miterlimit:10;}
</style>
<g
   id="g118"
   transform="translate(-388.80546,4.3686011)">
	<path
   class="st0"
   d="m 514.3,503.7 h 70.5 c 59.1,0 107.5,-48.4 107.5,-107.5 V 297.1 C 692.3,238 643.9,189.6 584.8,189.6 h -70.5 c -59.1,0 -107.5,48.4 -107.5,107.5 v 99.1 c 0.1,59.2 48.4,107.5 107.5,107.5 z"
   id="path4"
   inkscape:connector-curvature="0"
   style="fill:#707070" />
	<path
   class="st1"
   d="m 532.8,503.3 h 70.5 c 59.1,0 107.5,-48.4 107.5,-107.5 v -99.1 c 0,-59.1 -48.4,-107.5 -107.5,-107.5 h -70.5 c -59.1,0 -107.5,48.4 -107.5,107.5 v 99.1 c 0.1,59.2 48.4,107.5 107.5,107.5 z"
   id="path6"
   inkscape:connector-curvature="0"
   style="fill:#b9b9ba" />
	<path
   class="st2"
   d="m 540.3,107.4 c 11.2,-59.3 64.2,-90.6 132.6,-82.7 63,7.2 97.4,42.8 91.4,121.7 -3.1,40 -16.9,55.5 -34.8,70.4 -48.3,1.4 -96.5,0.6 -144.8,0.6 -33.8,-25.7 -52.4,-67.8 -44.4,-110 z"
   id="path8"
   inkscape:connector-curvature="0"
   style="fill:#ffffff" />
	<path
   class="st2"
   d="M 569.4,222.7"
   id="path10"
   inkscape:connector-curvature="0"
   style="fill:#ffffff" />
	<path
   class="st2"
   d="m 462.4,317 c 0,0 40.2,-70 63.2,-78.9 23,-8.9 38.8,-9 38.8,-9 l 173.7,4.1 c 0,0 51.7,3.6 70.3,31.4 18.7,27.9 27.3,75.4 27.3,75.4 0,0 -0.7,2.4 -2.4,6.5 l -367.8,-24 z"
   id="path12"
   inkscape:connector-curvature="0"
   style="fill:#ffffff" />
	<path
   class="st3"
   d="m 783.9,278.8 c -45.1,9.2 -65.9,57.7 -39.4,91.8 36.2,46.5 99.2,111.3 149.4,78.6 62.6,-40.8 114.1,-88 129.6,-102.5 3,-2.9 4.3,-7 3.3,-10.8 -4.4,-17.3 -20.1,-63.5 -60.9,-52.5 -35.4,9.6 -66.9,42.1 -82.1,60.1 -5.1,6.1 -15.1,6.2 -20.1,0.2 l -45.6,-54.1 c -7.7,-9.2 -20.6,-13.5 -33.1,-11 -0.3,0.1 -0.7,0.1 -1.1,0.2 z"
   id="path14"
   inkscape:connector-curvature="0"
   style="fill:#e6e6e8" />
	<path
   class="st4"
   d="m 757.9,518.9 c 0,0 101.3,75.2 131.3,166 0,0 -36.4,134 -133.6,203.3 0,0 -81.5,10 -80.6,-58.6 0,0 63.4,-120.8 105.1,-137.7 0,0 -135.7,-42.4 -140.7,-100.6 -5,-58.1 63,-122.5 118.5,-72.4 z"
   id="path16"
   inkscape:connector-curvature="0"
   style="fill:#ffffff;stroke:#e8e8e8;stroke-miterlimit:10" />
	<path
   class="st4"
   d="m 655.9,520.3 c 0,0 54.5,120.8 37.4,217.8 0,0 -97.5,100.4 -218.2,110.8 0,0 -78,-34.2 -43.9,-95 0,0 115.3,-74.3 160.9,-67.3 0,0 -101.3,-109.8 -77.6,-164.4 23.7,-54.5 115.8,-76.1 141.4,-1.9 z"
   id="path18"
   inkscape:connector-curvature="0"
   style="fill:#ffffff;stroke:#e8e8e8;stroke-miterlimit:10" />
	<path
   class="st5"
   d="m 740.5,879.5 c 0,0 37.1,40.9 12.9,76.5 -24.2,35.6 -77.1,-25.6 -77.1,-25.6 l -34.8,-44.3 c -8.8,-14.6 -10.2,-28.8 -2.7,-42.5 4.6,-8.5 11.9,-15.7 23.2,-16.4 28.3,-1.7 78.5,52.3 78.5,52.3 z"
   id="path20"
   inkscape:connector-curvature="0"
   style="fill:#c0c0c4" />
	<g
   id="g34">
		<defs
   id="defs23">
			<path
   id="XMLID_24_"
   d="m 642.5,202.1 h 54.2 c 37.5,0 68.2,-30.7 68.2,-68.2 v 0 c 0,-39.4 -32.2,-71.6 -71.6,-71.6 h -52.5 c -27.5,0 -49.9,22.5 -49.9,49.9 v 38.1 c -0.1,28.5 23.2,51.8 51.6,51.8 z"
   inkscape:connector-curvature="0" />
		</defs>
		<use
   xlink:href="#XMLID_24_"
   style="overflow:visible;fill:#c0c0c4"
   id="use25"
   x="0"
   y="0"
   width="100%"
   height="100%" />
		<clipPath
   id="XMLID_2_">
			<use
   xlink:href="#XMLID_24_"
   style="overflow:visible"
   id="use27"
   x="0"
   y="0"
   width="100%"
   height="100%" />
		</clipPath>
		<polygon
   class="st6"
   points="619.9,45.5 777.7,162.2 797.4,139.7 639.7,23 "
   clip-path="url(#XMLID_2_)"
   id="polygon30"
   style="opacity:0.47999998;fill:#ffffff" />
		<polygon
   class="st6"
   points="594,78.2 751.7,194.9 771.5,172.4 613.8,55.7 "
   clip-path="url(#XMLID_2_)"
   id="polygon32"
   style="opacity:0.47999998;fill:#ffffff" />
	</g>
	<g
   id="g38">
		<ellipse
   class="st7"
   cx="563.79999"
   cy="111.3"
   rx="16.700001"
   ry="20.9"
   id="ellipse36"
   style="fill:#858585" />
	</g>
	<ellipse
   class="st8"
   cx="558.79999"
   cy="111.3"
   rx="10.6"
   ry="11.5"
   id="ellipse40"
   style="fill:#a6a6a6" />
	<circle
   class="st9"
   cx="567.5"
   cy="154.8"
   id="ellipse42"
   r="13.7"
   style="fill:#c2c2ca" />
	<circle
   class="st10"
   cx="564.5"
   cy="154.5"
   id="ellipse44"
   r="9.6999998"
   style="fill:#a8a8a8" />
	<g
   id="g52">
		<path
   class="st11"
   d="m 734.1,210.3 c -1.7,2 -3.8,2.9 -5.4,4.9 -6.7,8.5 -148,0.6 -148,0.6 0,0 -1.8,-1.9 -2.8,-5.4 z"
   id="path46"
   inkscape:connector-curvature="0"
   style="opacity:0.38000039;fill:#c0c0c4" />
		<path
   class="st11"
   d="m 732.8,228.5 c -0.3,2.2 -3.1,3.7 -4.7,6.2 -6.7,10.4 -146.9,0.2 -146.9,0.2 0,0 -5.2,-2.5 -6.2,-6.8 z"
   id="path48"
   inkscape:connector-curvature="0"
   style="opacity:0.38000039;fill:#c0c0c4" />
		<path
   class="st2"
   d="m 731.1,213.3 c 0,0 6.7,8.2 0,18.6 -6.7,10.4 -150.3,0 -150.3,0 0,0 -8.4,-12.8 0,-18.6 z"
   id="path50"
   inkscape:connector-curvature="0"
   style="fill:#ffffff" />
	</g>
	<path
   class="st3"
   d="m 746.9,887.7 c 0,0 37.4,42.2 12.8,79 -24.6,36.8 -77.9,-26.2 -77.9,-26.2 l -35.1,-45.7 c -8.8,-15 -10.2,-29.8 -2.6,-43.9 4.7,-8.8 12.1,-16.2 23.5,-17 28.8,-1.9 79.3,53.8 79.3,53.8 z"
   id="path54"
   inkscape:connector-curvature="0"
   style="fill:#e6e6e8" />
	<g
   id="g60">
		<path
   class="st5"
   d="m 499.5,817 c 0,0 30.2,46.2 0.7,77.5 -29.5,31.3 -72.1,-37.3 -72.1,-37.3 L 400.7,808 c -6.4,-15.8 -5.6,-30.1 4,-42.4 5.9,-7.6 14.2,-13.6 25.4,-12.6 28.4,2.8 69.4,64 69.4,64 z"
   id="path56"
   inkscape:connector-curvature="0"
   style="fill:#c0c0c4" />
		<path
   class="st3"
   d="m 504.6,826.1 c 0,0 30.3,47.5 0.2,80 C 474.7,938.6 432,868 432,868 l -27.5,-50.6 c -6.4,-16.2 -5.4,-31 4.3,-43.8 6,-7.9 14.5,-14.2 25.9,-13.1 28.7,2.6 69.9,65.6 69.9,65.6 z"
   id="path58"
   inkscape:connector-curvature="0"
   style="fill:#e6e6e8" />
	</g>
	<g
   id="g66">
		<path
   class="st2"
   d="m 684.2,538.5 c 75.9,-3.2 110.7,-51 106.6,-145.1 -3.4,-77.5 -53.6,-133.5 -118.9,-135.5 -80.7,-2.4 -134.6,68.7 -131.2,146.2 3.4,77.5 8.2,140.2 143.5,134.4 z"
   id="path62"
   inkscape:connector-curvature="0"
   style="fill:#ffffff" />
		<path
   class="st12"
   d="m 684.2,538.5 c 8.9,-0.4 17.9,-1.5 26.6,-3.4 8.7,-2 17.2,-5 25.2,-9.1 16,-8.1 29,-21.3 37.3,-37 4.2,-7.8 7.5,-16.1 9.9,-24.7 2.4,-8.6 4.1,-17.3 5.2,-26.2 1.1,-8.9 1.6,-17.8 1.7,-26.7 0,-2.2 0,-4.5 0,-6.7 0,-2.2 -0.1,-4.5 -0.1,-6.7 -0.1,-4.5 -0.4,-8.9 -0.8,-13.4 -1.6,-17.7 -5.8,-35.3 -13.1,-51.6 -7.2,-16.3 -17.4,-31.3 -30.3,-43.5 -13,-12.1 -28.7,-21.4 -45.8,-26.4 -8.5,-2.5 -17.4,-3.9 -26.2,-4.3 -8.9,-0.4 -17.8,0.1 -26.6,1.6 -17.5,2.9 -34.4,9.8 -48.9,20.1 -14.5,10.3 -26.7,23.8 -35.8,39 -9.2,15.3 -15.4,32.2 -18.6,49.8 -1.6,8.8 -2.4,17.7 -2.5,26.6 0,4.4 0.1,8.9 0.4,13.4 0.2,4.5 0.4,8.9 0.7,13.4 0.5,8.9 1.3,17.8 2.5,26.7 1.2,8.8 2.9,17.6 5.6,26.1 2.6,8.5 6.4,16.6 11.4,23.9 5,7.3 11.4,13.6 18.7,18.6 7.3,5.1 15.4,8.9 23.8,11.8 8.4,2.9 17.2,4.8 26,6.3 4.4,0.6 8.9,1.3 13.3,1.6 2.2,0.2 4.5,0.4 6.7,0.6 l 6.7,0.3 c 1.1,0 2.2,0.1 3.4,0.1 h 3.4 l 6.7,0.1 c 4.5,0 9,-0.2 13.5,-0.3 z m 0,0 c -4.5,0.1 -9,0.3 -13.4,0.4 h -6.7 -3.4 c -1.1,0 -2.2,-0.1 -3.4,-0.1 l -6.7,-0.2 c -2.2,-0.1 -4.5,-0.3 -6.7,-0.4 -4.5,-0.2 -8.9,-0.8 -13.4,-1.3 -8.9,-1.2 -17.7,-2.9 -26.4,-5.6 -8.6,-2.7 -16.9,-6.4 -24.5,-11.5 -7.5,-5.1 -14,-11.7 -19.2,-19.1 -5.2,-7.5 -9,-15.8 -11.7,-24.4 -2.7,-8.6 -4.4,-17.5 -5.7,-26.4 -1.2,-8.9 -1.9,-17.9 -2.5,-26.8 -0.3,-4.5 -0.5,-9 -0.7,-13.4 -0.2,-4.5 -0.4,-9 -0.4,-13.5 0,-9 0.9,-18 2.5,-26.9 3.2,-17.7 9.5,-35 18.8,-50.4 9.3,-15.5 21.6,-29.2 36.4,-39.6 14.7,-10.5 31.9,-17.5 49.7,-20.5 8.9,-1.5 18,-2 27,-1.6 9,0.4 18,1.9 26.7,4.4 17.4,5 33.4,14.5 46.6,26.8 13.2,12.4 23.5,27.6 30.8,44.1 7.3,16.5 11.6,34.3 13.2,52.2 0.4,4.5 0.7,9 0.8,13.5 0.1,2.2 0.2,4.5 0.1,6.7 0,2.2 0.1,4.5 0,6.7 -0.1,9 -0.7,18 -1.7,26.9 -1.1,8.9 -2.8,17.8 -5.2,26.5 -2.5,8.7 -5.7,17.2 -10.1,25.1 -4.4,7.9 -10,15.2 -16.5,21.4 -1.6,1.6 -3.4,3 -5.1,4.5 -0.8,0.8 -1.8,1.4 -2.7,2.1 -0.9,0.7 -1.8,1.4 -2.7,2 -3.8,2.5 -7.6,4.8 -11.7,6.7 -8.1,3.9 -16.7,6.7 -25.5,8.6 -8.7,1.8 -17.6,2.8 -26.6,3.1 z"
   id="path64"
   inkscape:connector-curvature="0"
   style="fill:#e8e8e8" />
	</g>
	<path
   class="st5"
   d="m 744.4,377 v 0 c 0,-32.9 -26.7,-59.5 -59.5,-59.5 h -27.8 c -32.9,0 -59.5,26.7 -59.5,59.5 v 0 c 0,32.9 26.7,59.5 59.5,59.5 h 27.8 c 32.9,0 59.5,-26.7 59.5,-59.5 z"
   id="path68"
   inkscape:connector-curvature="0"
   style="fill:#c0c0c4" />
	<path
   class="st3"
   d="m 667.4,436.5 h 26 c 32.9,0 59.5,-26.7 59.5,-59.5 v 0 c 0,-32.9 -26.7,-59.5 -59.5,-59.5 h -26 c -32.9,0 -59.5,26.7 -59.5,59.5 v 0 c 0,32.8 26.6,59.5 59.5,59.5 z"
   id="path70"
   inkscape:connector-curvature="0"
   style="fill:#e6e6e8" />
	<ellipse
   class="st13"
   cx="644.40002"
   cy="344.39999"
   rx="9.6000004"
   ry="9.8000002"
   id="ellipse72"
   style="fill:#b4b4b5" />
	<ellipse
   class="st14"
   cx="646.90002"
   cy="344.39999"
   rx="9.6000004"
   ry="9.8000002"
   id="ellipse74"
   style="fill:#e2e2e2" />
	
		<rect
   x="673.90002"
   y="334.79999"
   transform="rotate(-180,698.28095,343.5468)"
   class="st15"
   width="48.799999"
   height="17.4"
   id="rect76"
   style="fill:#666666" />
	
		<rect
   x="680.29999"
   y="334.79999"
   transform="rotate(-180,701.48425,343.5468)"
   class="st16"
   width="42.400002"
   height="17.4"
   id="rect78"
   style="opacity:0.47999998;fill:#ffffff" />
	<ellipse
   class="st17"
   cx="713.90002"
   cy="343.5"
   rx="3.5999999"
   ry="3.3"
   id="ellipse80"
   style="fill:#a52b1c" />
	<ellipse
   class="st18"
   cx="701.5"
   cy="343.5"
   rx="3.5999999"
   ry="3.3"
   id="ellipse82"
   style="fill:#002c3c" />
	<ellipse
   class="st2"
   cx="688.59998"
   cy="343.5"
   rx="3.5999999"
   ry="3.3"
   id="ellipse84"
   style="fill:#ffffff" />
	<g
   id="g88">
		<path
   class="st2"
   d="m 642.5,339.4 c -0.4,1.2 -0.7,2.2 -1,3.1 -0.3,0.9 -0.4,1.8 -0.4,2.5 0,0.8 0,1.6 0.4,2.5 l 0.1,0.3 c 0,0.1 0.1,0.2 0.1,0.3 0.1,0.2 0.2,0.5 0.3,0.7 0.2,0.5 0.4,1 0.6,1.6 -0.6,-0.1 -1.2,-0.4 -1.7,-0.7 -0.3,-0.2 -0.5,-0.4 -0.7,-0.5 -0.3,-0.2 -0.5,-0.4 -0.7,-0.7 -0.9,-0.9 -1.3,-2.3 -1.3,-3.7 0,-1.4 0.6,-2.7 1.4,-3.6 0.6,-0.8 1.6,-1.6 2.9,-1.8 z"
   id="path86"
   inkscape:connector-curvature="0"
   style="fill:#ffffff" />
	</g>
	<path
   class="st3"
   d="m 594,294.1 c -18,-41.9 -70.2,-52.5 -98.8,-20.1 -39,44.2 -91,117.9 -48.6,160.2 52.7,52.7 109.7,93.4 127.2,105.5 3.5,2.4 7.8,2.8 11.4,1.1 16.3,-7.6 59.1,-32 40.1,-69.3 -16.5,-32.4 -54.9,-56.5 -75.8,-67.8 -7,-3.8 -9.1,-13.4 -4.1,-19.5 l 44.7,-54.8 c 7.6,-9.3 9.3,-22.6 4.4,-34.2 -0.2,-0.4 -0.3,-0.8 -0.5,-1.1 z"
   id="path90"
   inkscape:connector-curvature="0"
   style="fill:#e6e6e8" />
	<g
   id="g100">
		<ellipse
   class="st13"
   cx="537"
   cy="213.3"
   rx="11.1"
   ry="12.4"
   id="ellipse92"
   style="fill:#b4b4b5" />
		<ellipse
   class="st14"
   cx="539.90002"
   cy="213.3"
   rx="11.1"
   ry="12.4"
   id="ellipse94"
   style="fill:#e2e2e2" />
		<g
   id="g98">
			<path
   class="st2"
   d="m 534.8,206.9 c -0.5,1.4 -1,2.6 -1.3,3.7 -0.3,1.2 -0.5,2.3 -0.6,3.3 0,1.1 0.1,2.1 0.5,3.3 0.1,0.6 0.4,1.1 0.6,1.8 0.2,0.6 0.6,1.2 0.8,1.9 -0.7,-0.3 -1.3,-0.6 -1.9,-1 -0.5,-0.5 -1.2,-0.9 -1.6,-1.6 -0.9,-1.2 -1.4,-2.8 -1.4,-4.4 0,-1.6 0.6,-3.1 1.5,-4.3 0.8,-1.2 2,-2.2 3.4,-2.7 z"
   id="path96"
   inkscape:connector-curvature="0"
   style="fill:#ffffff" />
		</g>
	</g>
	<ellipse
   class="st17"
   cx="439.5"
   cy="287.79999"
   rx="3.5999999"
   ry="3.3"
   id="ellipse102"
   style="fill:#a52b1c" />
	<ellipse
   class="st18"
   cx="439.5"
   cy="274.60001"
   rx="3.5999999"
   ry="3.3"
   id="ellipse104"
   style="fill:#002c3c" />
	<ellipse
   class="st2"
   cx="439.5"
   cy="261.10001"
   rx="3.5999999"
   ry="3.3"
   id="ellipse106"
   style="fill:#ffffff" />
	<ellipse
   class="st13"
   cx="510.29999"
   cy="213.89999"
   rx="6.4000001"
   ry="7.6999998"
   id="ellipse108"
   style="fill:#b4b4b5" />
	<ellipse
   class="st19"
   cx="511.89999"
   cy="213.89999"
   rx="6.4000001"
   ry="7.6999998"
   id="ellipse110"
   style="fill:#9b9b9e" />
	<g
   id="g114">
		<path
   class="st2"
   d="m 508.9,210 -0.3,2.5 c -0.1,0.7 -0.1,1.3 -0.1,1.9 0,0.6 0,1.1 0.1,1.8 0,0.4 0.1,0.7 0.2,1.1 0.1,0.4 0.2,0.8 0.2,1.4 -1,-0.2 -1.9,-0.7 -2.5,-1.5 -0.7,-0.8 -1,-1.9 -1,-2.9 0,-1.1 0.4,-2.1 1,-2.8 0.6,-0.7 1.4,-1.3 2.4,-1.5 z"
   id="path112"
   inkscape:connector-curvature="0"
   style="fill:#ffffff" />
	</g>
	<path
   class="st20"
   d="M 483.6,206.2"
   id="path116"
   inkscape:connector-curvature="0"
   style="fill:none;stroke:#ffffff;stroke-miterlimit:10" />
</g>
</svg>