<?xml version="1.0" encoding="utf-8"?>
<!-- Generator: Adobe Illustrator 22.1.0, SVG Export Plug-In . SVG Version: 6.00 Build 0)  -->
<svg version="1.1" id="Layer_1" xmlns="http://www.w3.org/2000/svg" xmlns:xlink="http://www.w3.org/1999/xlink" x="0px" y="0px"
	 viewBox="0 0 1280 1024" style="enable-background:new 0 0 1280 1024;" xml:space="preserve">
<style type="text/css">
	.st0{fill:url(#SVGID_1_);}
	.st1{fill:url(#SVGID_2_);}
	.st2{opacity:0.5;fill:#2672ED;}
	.st3{opacity:0.59;fill:url(#SVGID_3_);}
	.st4{fill:none;stroke:#000000;stroke-miterlimit:10;}
	.st5{fill:#B0B0B0;}
	.st6{fill:none;stroke:#1B1464;stroke-miterlimit:10;}
	.st7{fill:url(#SVGID_4_);stroke:#FFFFFF;stroke-miterlimit:10;}
	.st8{fill:#FFFFFF;}
</style>
<linearGradient id="SVGID_1_" gradientUnits="userSpaceOnUse" x1="631.002" y1="-155.5886" x2="628.4814" y2="494.7283" gradientTransform="matrix(-0.4124 -0.911 0.911 -0.4124 448.7374 1301.0376)">
	<stop  offset="0" style="stop-color:#00FFFF"/>
	<stop  offset="0.3419" style="stop-color:#16F7CB"/>
	<stop  offset="0.8944" style="stop-color:#FFFF00"/>
</linearGradient>
<polygon class="st0" points="1095.7,291.7 385.3,858.7 510.3,677.4 188.8,820.3 256.8,733.5 75.8,744.8 287.8,606.6 188.2,568.4 
	454.7,475.9 384,419.3 "/>
<linearGradient id="SVGID_2_" gradientUnits="userSpaceOnUse" x1="639.011" y1="713.4297" x2="634.4657" y2="104.3505" gradientTransform="matrix(-0.4124 -0.911 0.911 -0.4124 448.7374 1301.0376)">
	<stop  offset="0.1944" style="stop-color:#65C8D0"/>
	<stop  offset="0.2063" style="stop-color:#53D2D8"/>
	<stop  offset="0.2307" style="stop-color:#35E2E6"/>
	<stop  offset="0.2563" style="stop-color:#1EEFF1"/>
	<stop  offset="0.2837" style="stop-color:#0DF8F9"/>
	<stop  offset="0.3137" style="stop-color:#03FDFE"/>
	<stop  offset="0.3519" style="stop-color:#00FFFF"/>
	<stop  offset="0.4228" style="stop-color:#36FFC9"/>
	<stop  offset="0.5101" style="stop-color:#73FF8C"/>
	<stop  offset="0.5942" style="stop-color:#A5FF5A"/>
	<stop  offset="0.6729" style="stop-color:#CCFF33"/>
	<stop  offset="0.7448" style="stop-color:#E8FF17"/>
	<stop  offset="0.8076" style="stop-color:#F9FF06"/>
	<stop  offset="0.8545" style="stop-color:#FFFF00"/>
</linearGradient>
<polygon class="st1" points="1116.5,289 535.2,671.2 646.5,559.8 395.8,671.1 455,616.9 321.5,642.2 491.6,544.9 423,534.8 
	627.9,456.5 582.4,433.3 "/>
<polygon class="st2" points="1059.4,309.4 824.3,503.1 842.2,396.4 660.9,419.1 806.6,321.1 717,253.5 "/>
<linearGradient id="SVGID_3_" gradientUnits="userSpaceOnUse" x1="570.8077" y1="462.7734" x2="574.5839" y2="959.3407" gradientTransform="matrix(-0.4124 -0.911 0.911 -0.4124 448.7374 1301.0376)">
	<stop  offset="0.1944" style="stop-color:#65C8D0"/>
	<stop  offset="0.2656" style="stop-color:#5AA9C3"/>
	<stop  offset="0.3671" style="stop-color:#4C85B4"/>
	<stop  offset="0.4737" style="stop-color:#4166A8"/>
	<stop  offset="0.5852" style="stop-color:#394F9E"/>
	<stop  offset="0.7038" style="stop-color:#333E97"/>
	<stop  offset="0.8344" style="stop-color:#2F3493"/>
	<stop  offset="1" style="stop-color:#2E3192"/>
</linearGradient>
<polygon class="st3" points="1019.6,339.9 841.9,571.7 864.1,485.4 700.2,558.2 833.9,441 762.6,454.1 "/>
<g>
	<path class="st4" d="M1002.6,338.8"/>
	<g>
		<g>
			<defs>
				<path id="XMLID_1_" d="M1004,338.2c36.6,68.2,97.3,32.6,97.3,32.6l8.9-4.5c0,0,110.3-60.3,76.8-122.6"/>
			</defs>
			<use xlink:href="#XMLID_1_"  style="overflow:visible;fill:#B0B0B0;"/>
			<clipPath id="XMLID_3_">
				<use xlink:href="#XMLID_1_"  style="overflow:visible;"/>
			</clipPath>
		</g>
		<path class="st5" d="M1004,338.2c-36.6-68.2,27.7-97.2,27.7-97.2l8.8-4.6c0,0,113-55.2,146.5,7.1"/>
	</g>
	<path class="st6" d="M1108.1,366.8c0,0-27.1-80.6-69.4-129.2"/>
	<line class="st6" x1="1079" y1="299.3" x2="1004.3" y2="337.9"/>
	
		<linearGradient id="SVGID_4_" gradientUnits="userSpaceOnUse" x1="638.4508" y1="936.7804" x2="655.5804" y2="953.0316" gradientTransform="matrix(-0.4663 -0.8846 0.8846 -0.4663 509.5204 1335.5199)">
		<stop  offset="0.1847" style="stop-color:#0E052D"/>
		<stop  offset="0.9765" style="stop-color:#2E176D"/>
	</linearGradient>
	<path class="st7" d="M1041.7,310.1c10.9-5.6,21.4-7.3,23.4-3.6c2,3.7-5.3,11.2-16.2,16.9c-10.9,5.6-21.4,7.3-23.4,3.6
		S1030.8,315.7,1041.7,310.1z"/>
	<g>
		<path class="st8" d="M1016.8,349.6c2.9,2.4,5.8,4.6,8.9,6.5c3.1,2,6.3,3.7,9.5,5.2c6.5,3.1,13.3,5.3,20.4,6.4
			c3.5,0.6,7.1,1,10.6,1c1.8,0.1,3.6,0,5.4,0l2.7-0.2l1.3-0.1l1.3-0.1c7.2-0.7,14.4-2.2,21.6-4c-6.4,3.8-13.6,6.4-21,7.9
			c-1.9,0.4-3.7,0.6-5.6,0.9c-1.9,0.1-3.8,0.3-5.7,0.3c-1.9,0.1-3.8,0-5.7-0.1c-1-0.1-1.9-0.2-2.9-0.3c-1-0.1-1.9-0.2-2.8-0.4
			c-7.6-1.2-14.9-4-21.4-7.9c-3.3-2-6.3-4.2-9.1-6.7C1021.5,355.4,1018.9,352.7,1016.8,349.6z"/>
	</g>
	<g>
		<path class="st8" d="M1031,324.1c1.3-2.5,3.2-4.7,5.2-6.6c2.1-1.9,4.5-3.5,7-4.8c2.6-1.2,5.2-2.3,8-2.8c1.4-0.4,2.8-0.4,4.2-0.6
			c1.4-0.1,2.8-0.1,4.2,0c-1.4,0.4-2.7,0.6-4,1c-1.3,0.4-2.7,0.7-3.9,1.2l-1.9,0.6l-1.9,0.8c-0.6,0.2-1.2,0.5-1.9,0.8
			c-0.6,0.3-1.2,0.5-1.8,0.9l-1.8,0.9c-0.6,0.3-1.2,0.7-1.7,1c-1.2,0.7-2.3,1.5-3.4,2.3C1035,320.4,1032.9,322.1,1031,324.1z"/>
	</g>
</g>
</svg>
