<?xml version="1.0" encoding="utf-8"?>
<!-- Generator: Adobe Illustrator 22.1.0, SVG Export Plug-In . SVG Version: 6.00 Build 0)  -->
<svg version="1.1" id="Layer_1" xmlns="http://www.w3.org/2000/svg" xmlns:xlink="http://www.w3.org/1999/xlink" x="0px" y="0px"
	 viewBox="0 0 1280 1024" style="enable-background:new 0 0 1280 1024;" xml:space="preserve">
<style type="text/css">
	.st0{fill:url(#SVGID_1_);}
	.st1{fill:url(#SVGID_2_);}
	.st2{opacity:0.5;fill:#7200A2;}
	.st3{opacity:0.59;fill:url(#SVGID_3_);}
	.st4{fill:none;stroke:#000000;stroke-miterlimit:10;}
	.st5{fill:#B0B0B0;}
	.st6{fill:none;stroke:#1B1464;stroke-miterlimit:10;}
	.st7{fill:url(#SVGID_4_);stroke:#FFFFFF;stroke-miterlimit:10;}
	.st8{fill:#FFFFFF;}
</style>
<linearGradient id="SVGID_1_" gradientUnits="userSpaceOnUse" x1="126.2521" y1="554.127" x2="1040.0703" y2="554.127" gradientTransform="matrix(-0.9894 0.1453 0.1453 0.9894 1178.0127 -86.0236)">
	<stop  offset="0" style="stop-color:#00FFFF"/>
	<stop  offset="9.224468e-02" style="stop-color:#0DC7E1"/>
	<stop  offset="0.3419" style="stop-color:#2E3192"/>
	<stop  offset="0.8944" style="stop-color:#1B1464"/>
</linearGradient>
<polygon class="st0" points="179.2,270.6 861.8,870.6 745.5,683.6 1059.9,841.6 996.1,751.7 1176.4,771.6 971.2,623.5 1072.5,590.1 
	810.6,485 884,431.9 "/>
<linearGradient id="SVGID_2_" gradientUnits="userSpaceOnUse" x1="639.011" y1="713.4297" x2="634.4657" y2="104.3505" gradientTransform="matrix(0.4553 -0.8904 -0.8904 -0.4553 777.4019 1309.5079)">
	<stop  offset="0.1653" style="stop-color:#29ABE2"/>
	<stop  offset="0.2952" style="stop-color:#1370B4"/>
	<stop  offset="0.3944" style="stop-color:#054996"/>
	<stop  offset="0.4461" style="stop-color:#003A8B"/>
	<stop  offset="0.6155" style="stop-color:#2B348E"/>
	<stop  offset="0.8257" style="stop-color:#662D91"/>
</linearGradient>
<polygon class="st1" points="158.5,266.9 721,676.2 615.1,559.7 860.2,682.8 803.6,625.9 935.8,657.4 770.6,552.2 839.5,545.3 
	638.6,457.4 685.1,436.4 "/>
<polygon class="st2" points="214.5,290 440.2,494.6 427.4,387.2 607.4,418.5 466.5,313.7 559.2,250.4 "/>
<linearGradient id="SVGID_3_" gradientUnits="userSpaceOnUse" x1="570.8077" y1="462.7734" x2="574.5839" y2="959.3407" gradientTransform="matrix(0.4553 -0.8904 -0.8904 -0.4553 777.4019 1309.5079)">
	<stop  offset="0.1944" style="stop-color:#65C8D0"/>
	<stop  offset="0.2656" style="stop-color:#5AA9C3"/>
	<stop  offset="0.3671" style="stop-color:#4C85B4"/>
	<stop  offset="0.4737" style="stop-color:#4166A8"/>
	<stop  offset="0.5852" style="stop-color:#394F9E"/>
	<stop  offset="0.7038" style="stop-color:#333E97"/>
	<stop  offset="0.8344" style="stop-color:#2F3493"/>
	<stop  offset="1" style="stop-color:#2E3192"/>
</linearGradient>
<polygon class="st3" points="252.8,322.3 419.4,562.3 401.3,475.1 561.5,555.6 433.5,432.1 504.2,448.6 "/>
<g>
	<path class="st4" d="M269.9,322"/>
	<g>
		<g>
			<defs>
				<path id="XMLID_1_" d="M268.5,321.4c-39.8,66.4-98.7,27.9-98.7,27.9l-8.6-5c0,0-107.3-65.4-70.9-126.1"/>
			</defs>
			<use xlink:href="#XMLID_1_"  style="overflow:visible;fill:#B0B0B0;"/>
			<clipPath id="XMLID_3_">
				<use xlink:href="#XMLID_1_"  style="overflow:visible;"/>
			</clipPath>
		</g>
		<path class="st5" d="M268.5,321.4c39.8-66.4-23-98.4-23-98.4l-8.6-5c0,0-110.3-60.5-146.7,0.2"/>
	</g>
	<path class="st6" d="M163.2,345c0,0,30.9-79.2,75.4-125.8"/>
	<line class="st6" x1="195.5" y1="279" x2="268.3" y2="321.1"/>
	
		<linearGradient id="SVGID_4_" gradientUnits="userSpaceOnUse" x1="638.4508" y1="936.7804" x2="655.5804" y2="953.0316" gradientTransform="matrix(0.5078 -0.8615 -0.8615 -0.5078 715.049 1341.0629)">
		<stop  offset="0.1847" style="stop-color:#0E052D"/>
		<stop  offset="0.9765" style="stop-color:#2E176D"/>
	</linearGradient>
	<path class="st7" d="M232.2,291.5c-10.6-6.2-21-8.3-23.2-4.7c-2.1,3.6,4.7,11.5,15.4,17.6c10.6,6.2,21,8.3,23.2,4.7
		C249.7,305.5,242.8,297.6,232.2,291.5z"/>
	<g>
		<path class="st8" d="M255.2,332.1c-2.2,3-4.9,5.7-7.8,8.1c-2.9,2.4-6.1,4.5-9.5,6.3c-6.7,3.6-14.1,6-21.8,6.9
			c-1,0.1-1.9,0.2-2.9,0.3c-1,0.1-1.9,0.1-2.9,0.2c-1.9,0-3.8,0-5.7-0.1c-1.9-0.1-3.8-0.4-5.7-0.6c-1.9-0.4-3.8-0.6-5.6-1.1
			c-7.4-1.9-14.4-4.8-20.6-8.9c7.1,2.2,14.2,4.1,21.4,5.1l1.3,0.2l1.3,0.1l2.7,0.3c1.8,0.1,3.6,0.3,5.4,0.2
			c3.6,0.1,7.1-0.1,10.7-0.5c7.1-0.8,14-2.7,20.7-5.4c3.3-1.4,6.6-2.9,9.8-4.8C249.1,336.4,252.2,334.4,255.2,332.1z"/>
	</g>
	<g>
		<path class="st8" d="M242.3,306.1c-1.8-2.1-3.9-4-6-5.7c-1.1-0.8-2.1-1.7-3.3-2.4c-0.6-0.4-1.1-0.7-1.7-1.1l-1.8-1
			c-0.6-0.4-1.2-0.6-1.8-1c-0.6-0.3-1.2-0.6-1.8-0.9l-1.8-0.8l-1.9-0.7c-1.3-0.5-2.6-0.9-3.9-1.3c-1.3-0.4-2.7-0.7-4-1.2
			c1.4,0,2.8,0,4.2,0.2c1.4,0.2,2.8,0.4,4.1,0.8c2.8,0.6,5.4,1.8,7.9,3.2c2.5,1.4,4.8,3.1,6.8,5.1
			C239.3,301.2,241.1,303.5,242.3,306.1z"/>
	</g>
</g>
</svg>
