<?xml version="1.0" encoding="utf-8"?>
<!-- Generator: Adobe Illustrator 22.1.0, SVG Export Plug-In . SVG Version: 6.00 Build 0)  -->
<svg version="1.1" id="Layer_1" xmlns="http://www.w3.org/2000/svg" xmlns:xlink="http://www.w3.org/1999/xlink" x="0px" y="0px"
	 viewBox="0 0 1280 1024" style="enable-background:new 0 0 1280 1024;" xml:space="preserve">
<style type="text/css">
	.st0{fill:#FFFFFF;}
	.st1{fill:none;}
	.st2{clip-path:url(#XMLID_2_);}
	.st3{opacity:0.48;clip-path:url(#SVGID_2_);fill:#FFFFFF;enable-background:new    ;}
	.st4{opacity:0.48;clip-path:url(#SVGID_4_);fill:#68C0FC;enable-background:new    ;}
	.st5{fill:#E6E6E8;}
	.st6{fill:#C0C0C4;}
	.st7{fill:#858585;}
	.st8{fill:#C2C2CA;}
	.st9{fill:#A6A6A6;}
	.st10{fill:#A8A8A8;}
	.st11{opacity:0.48;clip-path:url(#SVGID_6_);fill:#FFFFFF;enable-background:new    ;}
	.st12{opacity:0.48;clip-path:url(#SVGID_8_);fill:#FFFFFF;enable-background:new    ;}
	.st13{opacity:0.45;}
	.st14{fill:#002C3C;}
	.st15{opacity:0.38;fill:#C0C0C4;enable-background:new    ;}
	.st16{fill:#B4B4B5;}
	.st17{fill:#E2E2E2;}
	.st18{fill:#666666;}
	.st19{opacity:0.48;fill:#FFFFFF;enable-background:new    ;}
	.st20{fill:#A52B1C;}
	.st21{clip-path:url(#SVGID_10_);fill:#FDFDFF;}
	.st22{fill:#B9B9BA;}
	.st23{opacity:0.5;clip-path:url(#SVGID_12_);fill:#F9F9F9;enable-background:new    ;}
	.st24{opacity:0.5;clip-path:url(#SVGID_14_);fill:#F9F9F9;enable-background:new    ;}
	.st25{fill:none;stroke:#002C3C;stroke-width:3;stroke-miterlimit:10;}
	.st26{fill:none;stroke:#002C3C;stroke-width:2;stroke-miterlimit:10;}
	.st27{fill:none;stroke:#002C3C;stroke-width:9;stroke-miterlimit:10;}
	.st28{fill:none;stroke:#002C3C;stroke-width:4;stroke-miterlimit:10;}
	.st29{fill:none;stroke:#002C3C;stroke-miterlimit:10;}
	.st30{opacity:0.84;}
</style>
<g>
	<polygon class="st0" points="283.3,377.5 285.5,384.6 279,388.7 286.7,389.3 288.9,396.4 291.6,389.6 	"/>
	<polygon class="st0" points="283.3,377.5 289.2,382.3 295.7,378.2 293.2,385.2 299.1,390 291.6,389.6 	"/>
</g>
<g>
	<circle class="st1" cx="609" cy="512" r="484.4"/>
	<g>
		<defs>
			<circle id="XMLID_5_" cx="609" cy="512" r="460.4"/>
		</defs>
		<use xlink:href="#XMLID_5_"  style="overflow:visible;"/>
		<clipPath id="XMLID_2_">
			<use xlink:href="#XMLID_5_"  style="overflow:visible;"/>
		</clipPath>
		<g class="st2">
			<g>
				<polygon class="st0" points="210.8,418.2 213.2,426.2 205.9,430.8 214.6,431.5 217,439.5 220.1,431.8 				"/>
				<polygon class="st0" points="210.8,418.2 217.4,423.6 224.7,418.9 221.9,426.8 228.5,432.2 220.1,431.8 				"/>
			</g>
			<g>
				<g>
					<path id="XMLID_9_" d="M808.6,842.5c13-8,17.1-27.4,8.4-39.4L738,694.7c-13.5-18.5-15.9-45-6.6-68.7c0.2-0.7,0.6-1.4,0.8-2.1
						c34.4-85.1,129.7-108.7,180.3-44.7c35.8,45.3,77.7,106.5,98.7,167c37-68.1,58.1-146.7,58.1-230.3
						C1069.3,254.7,863.2,42.9,609,42.9S148.6,254.7,148.6,516s206.1,473.2,460.3,473.2c19.4,0,38.7-1.3,57.6-3.7
						c0.5-1.2,1-2.2,1.5-3.3C699.2,916.3,770,866,808.6,842.5z"/>
				</g>
				<g>
					<defs>
						<path id="SVGID_1_" d="M808.6,842.5c13-8,17.1-27.4,8.4-39.4L738,694.7c-13.5-18.5-15.9-45-6.6-68.7c0.2-0.7,0.6-1.4,0.8-2.1
							c34.4-85.1,129.7-108.7,180.3-44.7c35.8,45.3,77.7,106.5,98.7,167c37-68.1,58.1-146.7,58.1-230.3
							C1069.3,254.7,863.2,42.9,609,42.9S148.6,254.7,148.6,516s206.1,473.2,460.3,473.2c19.4,0,38.7-1.3,57.6-3.7
							c0.5-1.2,1-2.2,1.5-3.3C699.2,916.3,770,866,808.6,842.5z"/>
					</defs>
					<clipPath id="SVGID_2_">
						<use xlink:href="#SVGID_1_"  style="overflow:visible;"/>
					</clipPath>
					<polygon class="st3" points="1069,326 232.5,1019.9 132.9,892.9 969.4,199.1 					"/>
				</g>
				<g>
					<defs>
						<path id="SVGID_3_" d="M808.6,842.5c13-8,17.1-27.4,8.4-39.4L738,694.7c-13.5-18.5-15.9-45-6.6-68.7c0.2-0.7,0.6-1.4,0.8-2.1
							c34.4-85.1,129.7-108.7,180.3-44.7c35.8,45.3,77.7,106.5,98.7,167c37-68.1,58.1-146.7,58.1-230.3
							C1069.3,254.7,863.2,42.9,609,42.9S148.6,254.7,148.6,516s206.1,473.2,460.3,473.2c19.4,0,38.7-1.3,57.6-3.7
							c0.5-1.2,1-2.2,1.5-3.3C699.2,916.3,770,866,808.6,842.5z"/>
					</defs>
					<clipPath id="SVGID_4_">
						<use xlink:href="#SVGID_3_"  style="overflow:visible;"/>
					</clipPath>
					<polygon class="st4" points="895.3,10.1 65.7,698.2 282.6,974.3 1112.2,286.3 					"/>
				</g>
			</g>
			<path class="st5" d="M498.7,515.1c0,0-76,12.6-111.2,71.7s-86.8,269.9-86.8,269.9s37.8,77.4,265.2,118.8s373.7-175.3,373.7-175.3
				l7.1-93.4c0,0-52.3-140.7-102.6-153.1c-31.8-7.9-68.5-45-68.5-45L498.7,515.1z"/>
			<g>
				<path class="st6" d="M519.7,501.7c0,0-59.9,25.8-95.1,85s-52.7,292.1-52.7,292.1s-28.6,42.4,198.9,83.8
					c227.4,41.4,373.7-175.3,373.7-175.3l43.4-90.1c0,0-70.1-136.6-119.9-166.3C839.7,514.1,761,496.2,761,496.2L519.7,501.7z"/>
				<g>
					<path class="st6" d="M1009.3,735.7c-20.7-59.1-62.2-118.9-97.9-163.1c-50.2-62.6-144.7-39.5-178.8,43.6c-0.2,0.7-0.6,1.4-0.8,2
						c-9.3,23.1-6.7,49.1,6.5,67.1l78.2,105.8c8.6,11.7,4.6,30.7-8.3,38.4c-38.2,23-108.4,71.9-139.3,136.4c-0.6,1.1-1,2.1-1.5,3.3
						C814.7,950.8,940.1,861.3,1009.3,735.7z"/>
					<g>
						<path class="st6" d="M824.6,591.5c0,0-19.8,10.3-33.6,35.2l29.1,43.1c0,0,29.8,30.7,68.7,16.9L824.6,591.5z"/>
						<polygon class="st6" points="827.5,589.9 895.9,678.1 900.2,670.9 830.2,588.2 						"/>
						<polygon class="st6" points="832.7,586.5 903.6,660.9 905.3,653.1 835,585.1 						"/>
						<polygon class="st6" points="838.5,584 905.7,642.2 905.2,634.3 840.6,582.5 						"/>
						<path class="st6" d="M844.3,581.5l57.6,41.6c0,0-1.2-4.3-4.4-8.7l-50.7-34L844.3,581.5z"/>
						<path class="st6" d="M850.3,579.4l39.7,23.7l-18.4-27.2C871.6,575.9,862.5,575.4,850.3,579.4z"/>
						<g>
							<polygon class="st6" points="825.7,635.4 828.2,643.5 820.9,648 829.4,648.7 832,656.7 834.9,649.1 							"/>
							<polygon class="st6" points="825.6,635.4 832.2,640.8 839.5,636.2 836.7,644.1 843.3,649.5 834.9,649.1 							"/>
						</g>
					</g>
				</g>
			</g>
			<path class="st0" d="M507.9,507.6c0,0-59.9,25.8-95.1,85s-52.7,292.1-52.7,292.1S331.6,927,559,968.4
				c227.4,41.4,373.7-175.3,373.7-175.3l43.4-90.1c0,0-70.1-136.6-119.9-166.3c-28.2-16.8-106.9-34.7-106.9-34.7L507.9,507.6z"/>
			<path class="st6" d="M507.1,469.5c0,0-12,16.5,0,37.3c12,20.9,268.5,0,268.5,0s14.9-25.6,0-37.3H507.1z"/>
			<path class="st6" d="M841,280.6C821.4,174.3,728.6,118,608.9,132.1c-110.3,13-170.6,76.8-160,218.3
				c5.4,71.7,29.5,99.5,60.9,126.3c84.5,2.6,169,1.1,253.6,1C822.4,431.7,854.9,356.2,841,280.6z"/>
			<path class="st0" d="M828.7,280.6C809.1,174.3,716.3,118,596.6,132.1c-110.3,13-170.6,76.8-160,218.3
				c5.4,71.7,29.5,99.5,60.9,126.3c84.5,2.6,169,1.1,253.6,1C810.1,431.7,842.6,356.2,828.7,280.6z"/>
			<g>
				<ellipse class="st7" cx="777.7" cy="308.5" rx="33.5" ry="37.8"/>
			</g>
			<ellipse class="st8" cx="776.6" cy="391.6" rx="25.3" ry="25.6"/>
			<ellipse class="st9" cx="787.7" cy="308.5" rx="21.4" ry="20.9"/>
			<ellipse class="st10" cx="782.2" cy="390.9" rx="17.8" ry="18.1"/>
			<path class="st10" d="M769.6,281.6"/>
			<g>
				<g>
					<path id="XMLID_8_" class="st6" d="M679.4,445.2h-161c-36.1,0-65.7-29.8-65.7-66.1V254.9c0-38.2,31.1-69.4,69.1-69.4h159.4
						c26.5,0,48.1,21.8,48.1,48.4v161.3C729.2,422.7,706.7,445.2,679.4,445.2z"/>
				</g>
				<g>
					<defs>
						<path id="SVGID_5_" d="M679.4,445.2h-161c-36.1,0-65.7-29.8-65.7-66.1V254.9c0-38.2,31.1-69.4,69.1-69.4h159.4
							c26.5,0,48.1,21.8,48.1,48.4v161.3C729.2,422.7,706.7,445.2,679.4,445.2z"/>
					</defs>
					<clipPath id="SVGID_6_">
						<use xlink:href="#SVGID_5_"  style="overflow:visible;"/>
					</clipPath>
					<polygon class="st11" points="683,154.2 432.4,371.1 401.1,329.4 651.6,112.4 					"/>
				</g>
				<g>
					<defs>
						<path id="SVGID_7_" d="M679.4,445.2h-161c-36.1,0-65.7-29.8-65.7-66.1V254.9c0-38.2,31.1-69.4,69.1-69.4h159.4
							c26.5,0,48.1,21.8,48.1,48.4v161.3C729.2,422.7,706.7,445.2,679.4,445.2z"/>
					</defs>
					<clipPath id="SVGID_8_">
						<use xlink:href="#SVGID_7_"  style="overflow:visible;"/>
					</clipPath>
					<polygon class="st12" points="724.1,215 473.6,431.9 442.2,390.1 692.7,173.1 					"/>
				</g>
			</g>
			<g>
				<g class="st13">
					<path class="st14" d="M494,246.6v10c0,3.2-1,5.7-5.3,5.7c-3.9,0-4.9-2.6-4.9-5.7v-9.8c0-3.6,1.6-5.7,5.2-5.7
						C492.5,241.1,494,243.2,494,246.6z M487.3,246.5v10.6c0,1.6,0.4,2.4,1.7,2.4c1.2,0,1.7-0.9,1.7-2.5v-10.6
						c0-1.5-0.4-2.3-1.7-2.3C487.8,244.1,487.3,244.8,487.3,246.5z"/>
					<path class="st14" d="M497.5,262.2v-17c-0.6,0.1-1.7,0.1-2.2,0.1v-2.5c1.3-0.1,2.5-0.8,3.1-1.5h2.5v20.9H497.5z"/>
					<path class="st14" d="M505,262.2v-17c-0.6,0.1-1.7,0.1-2.2,0.1v-2.5c1.3-0.1,2.5-0.8,3.1-1.5h2.5v20.9H505z"/>
					<path class="st14" d="M521.3,246.6v10c0,3.2-1,5.7-5.3,5.7c-3.9,0-4.9-2.6-4.9-5.7v-9.8c0-3.6,1.6-5.7,5.2-5.7
						C519.8,241.1,521.3,243.2,521.3,246.6z M514.6,246.5v10.6c0,1.6,0.4,2.4,1.7,2.4c1.2,0,1.7-0.9,1.7-2.5v-10.6
						c0-1.5-0.4-2.3-1.7-2.3C515.1,244.1,514.6,244.8,514.6,246.5z"/>
					<path class="st14" d="M524.8,262.2v-17c-0.6,0.1-1.7,0.1-2.2,0.1v-2.5c1.3-0.1,2.5-0.8,3.1-1.5h2.5v20.9H524.8z"/>
					<path class="st14" d="M541.2,246.6v10c0,3.2-1,5.7-5.3,5.7c-3.9,0-4.9-2.6-4.9-5.7v-9.8c0-3.6,1.6-5.7,5.2-5.7
						C539.6,241.1,541.2,243.2,541.2,246.6z M534.3,246.5v10.6c0,1.6,0.4,2.4,1.7,2.4c1.2,0,1.7-0.9,1.7-2.5v-10.6
						c0-1.5-0.4-2.3-1.7-2.3C534.9,244.1,534.3,244.8,534.3,246.5z"/>
					<path class="st14" d="M553.5,246.6v10c0,3.2-1,5.7-5.3,5.7c-3.9,0-4.9-2.6-4.9-5.7v-9.8c0-3.6,1.6-5.7,5.2-5.7
						C551.9,241.1,553.5,243.2,553.5,246.6z M546.7,246.5v10.6c0,1.6,0.4,2.4,1.7,2.4c1.2,0,1.7-0.9,1.7-2.5v-10.6
						c0-1.5-0.4-2.3-1.7-2.3C547.2,244.1,546.7,244.8,546.7,246.5z"/>
					<path class="st14" d="M565.8,246.6v10c0,3.2-1,5.7-5.3,5.7c-3.9,0-4.9-2.6-4.9-5.7v-9.8c0-3.6,1.6-5.7,5.2-5.7
						C564.3,241.1,565.8,243.2,565.8,246.6z M559,246.5v10.6c0,1.6,0.4,2.4,1.7,2.4c1.2,0,1.7-0.9,1.7-2.5v-10.6
						c0-1.5-0.4-2.3-1.7-2.3C559.6,244.1,559,244.8,559,246.5z"/>
					<path class="st14" d="M582.5,246.6v10c0,3.2-1,5.7-5.3,5.7c-3.9,0-4.9-2.6-4.9-5.7v-9.8c0-3.6,1.6-5.7,5.2-5.7
						C581,241.1,582.5,243.2,582.5,246.6z M575.7,246.5v10.6c0,1.6,0.4,2.4,1.7,2.4c1.2,0,1.7-0.9,1.7-2.5v-10.6
						c0-1.5-0.4-2.3-1.7-2.3C576.3,244.1,575.7,244.8,575.7,246.5z"/>
					<path class="st14" d="M585.9,262.2v-17c-0.6,0.1-1.7,0.1-2.2,0.1v-2.5c1.3-0.1,2.5-0.8,3.1-1.5h2.5v20.9H585.9z"/>
					<path class="st14" d="M593.4,262.2v-17c-0.6,0.1-1.7,0.1-2.2,0.1v-2.5c1.3-0.1,2.5-0.8,3.1-1.5h2.5v20.9H593.4z"/>
					<path class="st14" d="M600.9,262.2v-17c-0.6,0.1-1.7,0.1-2.2,0.1v-2.5c1.3-0.1,2.5-0.8,3.1-1.5h2.5v20.9H600.9z"/>
					<path class="st14" d="M617.4,246.6v10c0,3.2-1,5.7-5.3,5.7c-3.9,0-4.9-2.6-4.9-5.7v-9.8c0-3.6,1.6-5.7,5.2-5.7
						C615.8,241.1,617.4,243.2,617.4,246.6z M610.6,246.5v10.6c0,1.6,0.4,2.4,1.7,2.4s1.7-0.9,1.7-2.5v-10.6c0-1.5-0.4-2.3-1.7-2.3
						C611.1,244.1,610.6,244.8,610.6,246.5z"/>
					<path class="st14" d="M620.8,262.2v-17c-0.6,0.1-1.7,0.1-2.2,0.1v-2.5c1.3-0.1,2.5-0.8,3.1-1.5h2.5v20.9H620.8z"/>
					<path class="st14" d="M637.1,246.6v10c0,3.2-1,5.7-5.3,5.7c-3.9,0-4.9-2.6-4.9-5.7v-9.8c0-3.6,1.6-5.7,5.2-5.7
						C635.6,241.1,637.1,243.2,637.1,246.6z M630.4,246.5v10.6c0,1.6,0.4,2.4,1.7,2.4c1.2,0,1.7-0.9,1.7-2.5v-10.6
						c0-1.5-0.4-2.3-1.7-2.3C631,244.1,630.4,244.8,630.4,246.5z"/>
					<path class="st14" d="M640.6,262.2v-17c-0.6,0.1-1.7,0.1-2.2,0.1v-2.5c1.3-0.1,2.5-0.8,3.1-1.5h2.5v20.9H640.6z"/>
					<path class="st14" d="M494,285.1v10c0,3.2-1,5.7-5.3,5.7c-3.9,0-4.9-2.6-4.9-5.7v-9.8c0-3.6,1.6-5.7,5.2-5.7
						C492.5,279.5,494,281.6,494,285.1z M487.3,284.8v10.6c0,1.6,0.4,2.4,1.7,2.4c1.2,0,1.7-0.9,1.7-2.5v-10.6
						c0-1.5-0.4-2.3-1.7-2.3C487.8,282.5,487.3,283.3,487.3,284.8z"/>
					<path class="st14" d="M497.5,300.6v-17c-0.6,0.1-1.7,0.1-2.2,0.1v-2.5c1.3-0.1,2.5-0.8,3.1-1.5h2.5v20.9H497.5z"/>
					<path class="st14" d="M505,300.6v-17c-0.6,0.1-1.7,0.1-2.2,0.1v-2.5c1.3-0.1,2.5-0.8,3.1-1.5h2.5v20.9H505z"/>
					<path class="st14" d="M521.3,285.1v10c0,3.2-1,5.7-5.3,5.7c-3.9,0-4.9-2.6-4.9-5.7v-9.8c0-3.6,1.6-5.7,5.2-5.7
						C519.8,279.5,521.3,281.6,521.3,285.1z M514.6,284.8v10.6c0,1.6,0.4,2.4,1.7,2.4c1.2,0,1.7-0.9,1.7-2.5v-10.6
						c0-1.5-0.4-2.3-1.7-2.3C515.1,282.5,514.6,283.3,514.6,284.8z"/>
					<path class="st14" d="M524.8,300.6v-17c-0.6,0.1-1.7,0.1-2.2,0.1v-2.5c1.3-0.1,2.5-0.8,3.1-1.5h2.5v20.9H524.8z"/>
					<path class="st14" d="M532.3,300.6v-17c-0.6,0.1-1.7,0.1-2.2,0.1v-2.5c1.3-0.1,2.5-0.8,3.1-1.5h2.5v20.9H532.3z"/>
					<path class="st14" d="M548.7,285.1v10c0,3.2-1,5.7-5.3,5.7c-3.9,0-4.9-2.6-4.9-5.7v-9.8c0-3.6,1.6-5.7,5.2-5.7
						C547.1,279.5,548.7,281.6,548.7,285.1z M541.9,284.8v10.6c0,1.6,0.4,2.4,1.7,2.4c1.2,0,1.7-0.9,1.7-2.5v-10.6
						c0-1.5-0.4-2.3-1.7-2.3C542.4,282.5,541.9,283.3,541.9,284.8z"/>
					<path class="st14" d="M561,285.1v10c0,3.2-1,5.7-5.3,5.7c-3.9,0-4.9-2.6-4.9-5.7v-9.8c0-3.6,1.6-5.7,5.2-5.7
						C559.5,279.5,561,281.6,561,285.1z M554.2,284.8v10.6c0,1.6,0.4,2.4,1.7,2.4s1.7-0.9,1.7-2.5v-10.6c0-1.5-0.4-2.3-1.7-2.3
						C554.7,282.5,554.2,283.3,554.2,284.8z"/>
					<path class="st14" d="M577.7,285.1v10c0,3.2-1,5.7-5.3,5.7c-3.9,0-4.9-2.6-4.9-5.7v-9.8c0-3.6,1.6-5.7,5.2-5.7
						C576.2,279.5,577.7,281.6,577.7,285.1z M570.9,284.8v10.6c0,1.6,0.4,2.4,1.7,2.4c1.2,0,1.7-0.9,1.7-2.5v-10.6
						c0-1.5-0.4-2.3-1.7-2.3C571.4,282.5,570.9,283.3,570.9,284.8z"/>
					<path class="st14" d="M581.1,300.6v-17c-0.6,0.1-1.7,0.1-2.2,0.1v-2.5c1.3-0.1,2.5-0.8,3.1-1.5h2.5v20.9H581.1z"/>
					<path class="st14" d="M588.6,300.6v-17c-0.6,0.1-1.7,0.1-2.2,0.1v-2.5c1.3-0.1,2.5-0.8,3.1-1.5h2.5v20.9H588.6z"/>
					<path class="st14" d="M596.1,300.6v-17c-0.6,0.1-1.7,0.1-2.2,0.1v-2.5c1.3-0.1,2.5-0.8,3.1-1.5h2.5v20.9H596.1z"/>
					<path class="st14" d="M612.6,285.1v10c0,3.2-1,5.7-5.3,5.7c-3.9,0-4.9-2.6-4.9-5.7v-9.8c0-3.6,1.6-5.7,5.2-5.7
						C611,279.5,612.6,281.6,612.6,285.1z M605.7,284.8v10.6c0,1.6,0.4,2.4,1.7,2.4c1.2,0,1.7-0.9,1.7-2.5v-10.6
						c0-1.5-0.4-2.3-1.7-2.3C606.3,282.5,605.7,283.3,605.7,284.8z"/>
					<path class="st14" d="M616,300.6v-17c-0.6,0.1-1.7,0.1-2.2,0.1v-2.5c1.3-0.1,2.5-0.8,3.1-1.5h2.5v20.9H616z"/>
					<path class="st14" d="M632.4,285.1v10c0,3.2-1,5.7-5.3,5.7c-3.9,0-4.9-2.6-4.9-5.7v-9.8c0-3.6,1.6-5.7,5.2-5.7
						C630.9,279.5,632.4,281.6,632.4,285.1z M625.6,284.8v10.6c0,1.6,0.4,2.4,1.7,2.4s1.7-0.9,1.7-2.5v-10.6c0-1.5-0.4-2.3-1.7-2.3
						C626.2,282.5,625.6,283.3,625.6,284.8z"/>
					<path class="st14" d="M644.6,285.1v10c0,3.2-1,5.7-5.3,5.7c-3.9,0-4.9-2.6-4.9-5.7v-9.8c0-3.6,1.6-5.7,5.2-5.7
						C643.1,279.5,644.6,281.6,644.6,285.1z M637.9,284.8v10.6c0,1.6,0.4,2.4,1.7,2.4c1.2,0,1.7-0.9,1.7-2.5v-10.6
						c0-1.5-0.4-2.3-1.7-2.3C638.5,282.5,637.9,283.3,637.9,284.8z"/>
					<path class="st14" d="M494,323.5v10c0,3.2-1,5.7-5.3,5.7c-3.9,0-4.9-2.6-4.9-5.7v-9.8c0-3.6,1.6-5.7,5.2-5.7
						C492.5,318,494,320,494,323.5z M487.3,323.3v10.6c0,1.6,0.4,2.4,1.7,2.4c1.2,0,1.7-0.9,1.7-2.5v-10.6c0-1.5-0.4-2.3-1.7-2.3
						C487.8,320.9,487.3,321.7,487.3,323.3z"/>
					<path class="st14" d="M497.5,338.9v-17c-0.6,0.1-1.7,0.1-2.2,0.1v-2.5c1.3-0.1,2.5-0.8,3.1-1.5h2.5v20.9H497.5z"/>
					<path class="st14" d="M505,338.9v-17c-0.6,0.1-1.7,0.1-2.2,0.1v-2.5c1.3-0.1,2.5-0.8,3.1-1.5h2.5v20.9H505z"/>
					<path class="st14" d="M521.3,323.5v10c0,3.2-1,5.7-5.3,5.7c-3.9,0-4.9-2.6-4.9-5.7v-9.8c0-3.6,1.6-5.7,5.2-5.7
						C519.8,318,521.3,320,521.3,323.5z M514.6,323.3v10.6c0,1.6,0.4,2.4,1.7,2.4c1.2,0,1.7-0.9,1.7-2.5v-10.6
						c0-1.5-0.4-2.3-1.7-2.3C515.1,320.9,514.6,321.7,514.6,323.3z"/>
					<path class="st14" d="M533.7,323.5v10c0,3.2-1,5.7-5.3,5.7c-3.9,0-4.9-2.6-4.9-5.7v-9.8c0-3.6,1.6-5.7,5.2-5.7
						C532.1,318,533.7,320,533.7,323.5z M526.8,323.3v10.6c0,1.6,0.4,2.4,1.7,2.4c1.2,0,1.7-0.9,1.7-2.5v-10.6
						c0-1.5-0.4-2.3-1.7-2.3C527.4,320.9,526.8,321.7,526.8,323.3z"/>
					<path class="st14" d="M546,323.5v10c0,3.2-1,5.7-5.3,5.7c-3.9,0-4.9-2.6-4.9-5.7v-9.8c0-3.6,1.6-5.7,5.2-5.7
						C544.4,318,546,320,546,323.5z M539.2,323.3v10.6c0,1.6,0.4,2.4,1.7,2.4s1.7-0.9,1.7-2.5v-10.6c0-1.5-0.4-2.3-1.7-2.3
						C539.7,320.9,539.2,321.7,539.2,323.3z"/>
					<path class="st14" d="M558.3,323.5v10c0,3.2-1,5.7-5.3,5.7c-3.9,0-4.9-2.6-4.9-5.7v-9.8c0-3.6,1.6-5.7,5.2-5.7
						C556.8,318,558.3,320,558.3,323.5z M551.5,323.3v10.6c0,1.6,0.4,2.4,1.7,2.4s1.7-0.9,1.7-2.5v-10.6c0-1.5-0.4-2.3-1.7-2.3
						C552.1,320.9,551.5,321.7,551.5,323.3z"/>
					<path class="st14" d="M561.7,338.9v-17c-0.6,0.1-1.7,0.1-2.2,0.1v-2.5c1.3-0.1,2.5-0.8,3.1-1.5h2.5v20.9H561.7z"/>
					<path class="st14" d="M582.5,323.5v10c0,3.2-1,5.7-5.3,5.7c-3.9,0-4.9-2.6-4.9-5.7v-9.8c0-3.6,1.6-5.7,5.2-5.7
						C581,318,582.5,320,582.5,323.5z M575.7,323.3v10.6c0,1.6,0.4,2.4,1.7,2.4c1.2,0,1.7-0.9,1.7-2.5v-10.6c0-1.5-0.4-2.3-1.7-2.3
						C576.3,320.9,575.7,321.7,575.7,323.3z"/>
					<path class="st14" d="M585.9,338.9v-17c-0.6,0.1-1.7,0.1-2.2,0.1v-2.5c1.3-0.1,2.5-0.8,3.1-1.5h2.5v20.9H585.9z"/>
					<path class="st14" d="M593.4,338.9v-17c-0.6,0.1-1.7,0.1-2.2,0.1v-2.5c1.3-0.1,2.5-0.8,3.1-1.5h2.5v20.9H593.4z"/>
					<path class="st14" d="M600.9,338.9v-17c-0.6,0.1-1.7,0.1-2.2,0.1v-2.5c1.3-0.1,2.5-0.8,3.1-1.5h2.5v20.9H600.9z"/>
					<path class="st14" d="M617.4,323.5v10c0,3.2-1,5.7-5.3,5.7c-3.9,0-4.9-2.6-4.9-5.7v-9.8c0-3.6,1.6-5.7,5.2-5.7
						C615.8,318,617.4,320,617.4,323.5z M610.6,323.3v10.6c0,1.6,0.4,2.4,1.7,2.4s1.7-0.9,1.7-2.5v-10.6c0-1.5-0.4-2.3-1.7-2.3
						C611.1,320.9,610.6,321.7,610.6,323.3z"/>
					<path class="st14" d="M620.8,338.9v-17c-0.6,0.1-1.7,0.1-2.2,0.1v-2.5c1.3-0.1,2.5-0.8,3.1-1.5h2.5v20.9H620.8z"/>
					<path class="st14" d="M637.1,323.5v10c0,3.2-1,5.7-5.3,5.7c-3.9,0-4.9-2.6-4.9-5.7v-9.8c0-3.6,1.6-5.7,5.2-5.7
						C635.6,318,637.1,320,637.1,323.5z M630.4,323.3v10.6c0,1.6,0.4,2.4,1.7,2.4c1.2,0,1.7-0.9,1.7-2.5v-10.6
						c0-1.5-0.4-2.3-1.7-2.3C631,320.9,630.4,321.7,630.4,323.3z"/>
					<path class="st14" d="M649.5,323.5v10c0,3.2-1,5.7-5.3,5.7c-3.9,0-4.9-2.6-4.9-5.7v-9.8c0-3.6,1.6-5.7,5.2-5.7
						C647.9,318,649.5,320,649.5,323.5z M642.6,323.3v10.6c0,1.6,0.4,2.4,1.7,2.4s1.7-0.9,1.7-2.5v-10.6c0-1.5-0.4-2.3-1.7-2.3
						C643.2,320.9,642.6,321.7,642.6,323.3z"/>
				</g>
			</g>
			<g>
				<path class="st0" d="M530.8,195.9c-4,1.2-8,2.4-11.8,3.8c-3.8,1.4-7.4,2.9-11,4.6c-7.1,3.3-13.5,7.3-19.2,12.2
					c-2.9,2.4-5.6,5.1-8.1,7.8c-1.3,1.4-2.5,2.9-3.7,4.4c-0.7,0.7-1.1,1.6-1.7,2.3c-0.6,0.8-1.2,1.6-1.7,2.4
					c-4.5,6.4-8.3,13.5-12.3,21.1l-0.7-0.1c0.4-2,0.9-4.1,1.5-6.1l0.9-3c0.3-1,0.6-2,1-2.9c0.7-1.9,1.5-3.9,2.4-5.9
					c0.4-0.9,0.8-1.9,1.3-2.8l1.5-2.8c2-3.6,4.3-7.2,7-10.5c2.6-3.3,5.5-6.3,8.7-9c6.4-5.3,13.9-9.5,21.7-12.1
					c7.8-2.7,16.1-4.2,24.5-3.9L530.8,195.9z"/>
			</g>
			<path class="st15" d="M488.9,469.3c3.1,3.7,6.8,5.2,9.8,9c12.2,15.7,267,1.1,267,1.1s3.3-3.4,4.9-9.9L488.9,469.3z"/>
			<path class="st15" d="M491.3,502.6c0.7,3.9,5.6,6.9,8.5,11.4c12.2,19.1,265,0.5,265,0.5s9.4-4.6,11.1-12.5L491.3,502.6z"/>
			<path class="st0" d="M494.3,474.8c0,0-12.2,15.1,0,34c12.2,19.1,271.2,0,271.2,0s15-23.4,0-34H494.3z"/>
			<path class="st5" d="M997.5,752.7c-20.7-59.1-62.2-118.9-97.9-163.1c-50.2-62.6-144.7-39.5-178.8,43.6c-0.2,0.7-0.6,1.4-0.8,2
				c-9.3,23.1-6.7,49.1,6.5,67.1l78.2,105.8c8.6,11.7,4.6,30.7-8.3,38.4c-38.2,23-108.4,71.9-139.3,136.4c-0.6,1.1-1,2.1-1.5,3.3
				C802.9,967.8,928.4,878.3,997.5,752.7z"/>
			<path class="st6" d="M458.7,721.8v-97.5c0-29.3,23.7-53.1,52.8-53.1h120.2c29.1,0,52.8,23.8,52.8,53.1v97.5
				c0,29.3-23.7,53.1-52.8,53.1H511.5C482.3,774.9,458.7,751.1,458.7,721.8z"/>
			<path class="st5" d="M615.7,774.9H498.4c-29.1,0-52.8-23.8-52.8-53.1v-97.5c0-29.3,23.7-53.1,52.8-53.1h117.4
				c29.1,0,52.8,23.8,52.8,53.1v97.5C668.5,751.1,644.9,774.9,615.7,774.9z"/>
			<ellipse class="st16" cx="612.4" cy="617.4" rx="14.8" ry="16.8"/>
			<ellipse class="st17" cx="608.6" cy="617.4" rx="14.8" ry="16.8"/>
			<rect x="492" y="600.9" class="st18" width="75.1" height="29.8"/>
			<rect x="492" y="600.9" class="st19" width="65.2" height="29.8"/>
			<ellipse class="st20" cx="505.5" cy="615.8" rx="5.6" ry="5.6"/>
			<ellipse class="st14" cx="524.6" cy="615.8" rx="5.6" ry="5.6"/>
			<ellipse class="st0" cx="544.4" cy="615.8" rx="5.6" ry="5.6"/>
			<path class="st5" d="M805.8,909.1c0,37.3-87.9,67.5-196.4,67.5s-196.4-30.2-196.4-67.5"/>
			<g>
				<g>
					<g>
						<polygon id="XMLID_7_" points="672,970.9 748.5,922.7 375.7,917.7 302.4,961.9 						"/>
					</g>
					<g>
						<defs>
							<polygon id="SVGID_9_" points="672,970.9 748.5,922.7 375.7,917.7 302.4,961.9 							"/>
						</defs>
						<clipPath id="SVGID_10_">
							<use xlink:href="#SVGID_9_"  style="overflow:visible;"/>
						</clipPath>
						<polygon class="st21" points="551.3,1062 333.1,1042.4 334.1,1025.3 552.3,1044.9 						"/>
					</g>
				</g>
				<g>
					<g>
						<g>
							<path id="XMLID_6_" class="st22" d="M679.9,972.6l-420.6-4.9c-7.6-0.1-13.7-6.6-13.6-14.6l2.7-261.7
								c0.2-25.3,20-45.5,44.2-45.3l360.8,4.2c24.2,0.2,43.5,20.9,43.2,46.2l-2.7,261.6C693.9,966.2,687.6,972.7,679.9,972.6z"/>
						</g>
						<g>
							<defs>
								<path id="SVGID_11_" d="M679.9,972.6l-420.6-4.9c-7.6-0.1-13.7-6.6-13.6-14.6l2.7-261.7c0.2-25.3,20-45.5,44.2-45.3
									l360.8,4.2c24.2,0.2,43.5,20.9,43.2,46.2l-2.7,261.6C693.9,966.2,687.6,972.7,679.9,972.6z"/>
							</defs>
							<clipPath id="SVGID_12_">
								<use xlink:href="#SVGID_11_"  style="overflow:visible;"/>
							</clipPath>
							<polygon class="st23" points="431.1,559 143.7,822.5 190.3,879.9 477.7,616.3 							"/>
						</g>
						<g>
							<defs>
								<path id="SVGID_13_" d="M679.9,972.6l-420.6-4.9c-7.6-0.1-13.7-6.6-13.6-14.6l2.7-261.7c0.2-25.3,20-45.5,44.2-45.3
									l360.8,4.2c24.2,0.2,43.5,20.9,43.2,46.2l-2.7,261.6C693.9,966.2,687.6,972.7,679.9,972.6z"/>
							</defs>
							<clipPath id="SVGID_14_">
								<use xlink:href="#SVGID_13_"  style="overflow:visible;"/>
							</clipPath>
							<polygon class="st24" points="569.7,574.8 187.4,925.3 234,982.6 616.3,632.2 							"/>
						</g>
					</g>
					<g>
						<path class="st0" d="M468.9,656.4l0-0.2l-117.7,90.5l0.6,6.9c0.1,1.7,3.3,43.6,16.8,86.3c8.2,25.8,18.3,46.6,30.3,61.7
							c16.1,20.5,35.5,31,57.4,31.3l11.5,0.1v0l12,0.2c22,0.3,41.4-9.6,57.7-29.6c12-14.8,22.3-35.3,30.6-60.8
							c13.7-42.3,17.2-84.1,17.3-85.9l0.6-6.9L468.9,656.4z"/>
						<path class="st14" d="M570.2,755.7l-101.3-74l0-0.3l-0.2,0.2l-0.2-0.2l0,0.3l-100.9,71.1c0,0,13.5,165.6,100.1,167.7l0,0
							c0.2,0,0.3,0,0.5,0c0.1,0,0.1,0,0.2,0v0C555.6,921,570.2,755.7,570.2,755.7z"/>
						<g>
							<g>
								<path class="st0" d="M424.5,834.6c0-0.3-0.2-0.5-0.7-0.3c0-0.2,0-0.2-0.1-0.5c1.7-0.2,2.5-0.3,4.2-0.5c0,0.2,0,0.2,0,0.5
									c-0.1,0-0.2,0.1-0.3,0.1c-0.1,0.1-0.1,0.2-0.1,0.3c0.6,4.6,0.8,7.1,1.3,11.7c0,0.1,0.1,0.2,0.2,0.3c0.1,0.1,0.2,0.1,0.3,0.1
									c0,0.2,0,0.2,0,0.5c-1.7,0.2-2.4,0.2-4,0.5c0-0.2,0-0.2-0.1-0.5c0.3,0,0.6-0.2,0.6-0.6c-0.2-2-0.3-2.9-0.6-4.9
									c-3.4,0.5-5.1,0.6-8.5,1.2c0.2,2,0.4,2.9,0.7,4.9c0,0.1,0.1,0.2,0.2,0.3c0.1,0.1,0.2,0.1,0.3,0.1c0,0.2,0,0.2,0.1,0.5
									c-1.5,0.2-2.3,0.3-4,0.6c0-0.2,0-0.2-0.1-0.5c0.3,0,0.4-0.2,0.4-0.6c-0.7-4.6-1-6.9-1.8-11.7c0-0.3-0.2-0.5-0.6-0.3
									c0-0.2,0-0.2-0.1-0.5c1.7-0.2,2.4-0.3,4.1-0.6c0,0.2,0,0.2,0.1,0.5c-0.1,0-0.2,0.1-0.3,0.1c-0.1,0.1-0.1,0.2-0.1,0.3
									c0.2,1.7,0.3,2.7,0.7,4.4c3.4-0.5,5.1-0.7,8.6-1.2C424.8,837.1,424.7,836.3,424.5,834.6z"/>
								<path class="st0" d="M440.4,845.3c0.2,0,0.4-0.2,0.6-0.3c0.1-0.2,0.2-0.5,0.3-0.7c1.7-4.2,2.4-6.2,4.2-10.4
									c0.1-0.2,0.2-0.5,0.3-0.7c0.1-0.2,0.1-0.3,0.1-0.5c0-0.1-0.1-0.3-0.2-0.3c-0.1-0.1-0.2-0.1-0.4-0.1c0-0.2,0-0.2,0-0.5
									c1.9-0.1,2.8-0.1,4.5-0.2c0,0.2,0,0.2,0,0.5c-0.1,0-0.2,0.1-0.3,0.1c-0.1,0.1-0.2,0.2-0.2,0.3c0,0.1,0,0.2,0.1,0.5
									c0.1,0.1,0.2,0.3,0.3,0.6c2.4,4,3.6,6.1,6.1,10.3c0.1,0.2,0.2,0.3,0.3,0.3c0.1,0.1,0.3,0.1,0.6,0.2c0,0.2,0,0.2,0,0.5
									c-1.9,0.1-2.8,0.1-4.6,0.2c0-0.2,0-0.2,0-0.5c0.1,0,0.1,0,0.2-0.1c0.1,0,0.1-0.1,0.1-0.2c0-0.1-0.1-0.3-0.2-0.7
									c-0.4-0.7-0.7-1.2-1.1-1.8c-2.5,0.1-3.9,0.2-6.4,0.3c-0.3,0.8-0.4,1.2-0.8,1.8c-0.1,0.3-0.2,0.7-0.2,0.8
									c0,0.2,0.2,0.2,0.6,0.2c0,0.2,0,0.2,0,0.5c-1.4,0.1-2.2,0.1-3.8,0.2C440.4,845.5,440.4,845.4,440.4,845.3z M450,839.8
									c-1-1.8-1.5-2.8-2.5-4.7c-0.9,2-1.3,3-2.2,5C447.1,840,448.1,839.9,450,839.8z"/>
								<path class="st0" d="M482.3,843h-0.1h-0.1c-0.1,0-0.3,0.1-0.8,0.2c-0.4,0.2-0.9,0.5-1.5,0.7c-0.7,0.2-1.3,0.5-2.1,0.6
									c-0.8,0.1-1.5,0.2-2.4,0.2c-1.1,0-2.2-0.1-3.2-0.5c-1-0.2-1.9-0.7-2.7-1.3c-0.8-0.6-1.4-1.3-1.9-2.2c-0.4-0.8-0.7-1.8-0.8-3
									c0-1.2,0.2-2.2,0.7-3c0.4-0.9,1.1-1.6,1.9-2.2c0.8-0.6,1.8-1,2.8-1.3c1-0.2,2.1-0.5,3.3-0.3c0.9,0,1.8,0.1,2.5,0.2
									c0.8,0.1,1.4,0.3,2,0.5c0.6,0.1,1,0.3,1.3,0.5c0.3,0.1,0.6,0.2,0.6,0.2c0.1,0,0.2,0,0.2-0.1c0.1-0.1,0.1-0.1,0.1-0.2
									c0.1,0.1,0.2,0.2,0.4,0.3c-0.9,1.3-1.3,1.8-2.2,3c-0.1-0.1-0.1-0.1-0.2-0.2V835c0,0,0-0.1,0-0.2c0-0.2-0.2-0.3-0.6-0.6
									c-0.3-0.2-0.7-0.3-1.2-0.6c-0.4-0.1-1-0.3-1.5-0.5c-0.6-0.1-1-0.2-1.4-0.2c-0.8,0-1.4,0.1-2.2,0.2c-0.7,0.2-1.3,0.5-1.8,0.9
									c-0.6,0.3-0.9,0.9-1.2,1.5c-0.3,0.6-0.4,1.3-0.4,2c0,0.7,0.1,1.4,0.4,2c0.3,0.6,0.7,1,1.2,1.5c0.6,0.3,1.1,0.7,1.8,0.9
									c0.7,0.2,1.4,0.3,2.1,0.3c0.6,0,1.1,0,1.8-0.1s1.2-0.2,1.7-0.5c0.6-0.2,1-0.3,1.3-0.7c0.3-0.2,0.6-0.5,0.6-0.7
									c0-0.1,0-0.2-0.1-0.3c0.1-0.1,0.2-0.1,0.3-0.2c0.7,1.2,1,1.7,1.7,2.8C482.4,842.9,482.3,842.9,482.3,843z"/>
								<path class="st0" d="M497.9,844.8c0,0.1,0,0.2,0.1,0.3s0.2,0.1,0.3,0.1c0,0.2,0,0.2,0,0.5c-1.7-0.1-2.4-0.2-4.1-0.3
									c0-0.2,0-0.2,0-0.5c0.3,0,0.6-0.1,0.6-0.5c0.2-4.7,0.4-7.1,0.7-11.8c0-0.3-0.2-0.5-0.6-0.5c0-0.2,0-0.2,0-0.5
									c1.7,0.1,2.5,0.2,4.2,0.3c0,0.2,0,0.2,0,0.5c-0.1,0-0.2,0-0.3,0.1c-0.1,0.1-0.2,0.2-0.2,0.3c-0.1,2-0.2,2.9-0.3,4.9
									c2.3-1.5,3.5-2.2,5.9-3.7c0.2-0.2,0.4-0.3,0.7-0.5c0.1-0.1,0.2-0.2,0.2-0.3s0-0.2-0.1-0.2c-0.1-0.1-0.2-0.1-0.3-0.1
									c0-0.2,0-0.2,0-0.5c2.3,0.2,3.4,0.3,5.6,0.6c0,0.2,0,0.2,0,0.5c-0.3,0-0.7,0-1,0.2c-2.7,1.6-4,2.4-6.5,4
									c2.1,2.7,3.1,4,5.1,6.8c0.2,0.2,0.4,0.6,0.8,0.8c0.3,0.2,0.6,0.5,0.9,0.6c0,0.2,0,0.2,0,0.5c-2-0.2-2.9-0.3-4.9-0.5
									c0-0.2,0-0.2,0-0.5c0.2,0,0.3,0,0.3-0.1c0-0.1-0.1-0.2-0.3-0.6c-1.7-2.2-2.4-3.4-4.1-5.5c-1,0.6-1.4,0.9-2.3,1.5
									C498,842.6,498,843.3,497.9,844.8z"/>
								<path class="st0" d="M521.5,844.1c0.1,0.1,0.1,0.1,0.2,0.1c0,0.1,0,0.3,0,0.5c0.1,0.2,0.3,0.5,0.7,0.7
									c0.3,0.2,0.8,0.5,1.2,0.7c0.4,0.2,0.9,0.5,1.4,0.6c0.4,0.1,1,0.3,1.3,0.3s0.7,0.1,1.1,0.1c0.4,0,1,0,1.4,0
									c0.4-0.1,0.9-0.2,1.2-0.3c0.3-0.2,0.6-0.5,0.7-0.8c0.1-0.3,0-0.7-0.3-0.9c-0.3-0.2-0.7-0.5-1.1-0.6
									c-0.4-0.1-1.1-0.3-1.7-0.5c-0.7-0.1-1.3-0.2-2-0.5c-0.7-0.1-1.3-0.3-2-0.6c-0.7-0.2-1.2-0.5-1.7-0.8
									c-0.4-0.3-0.9-0.8-1.1-1.4s-0.3-1.2-0.2-2c0.1-0.6,0.2-1,0.6-1.5c0.3-0.5,0.8-0.9,1.3-1.2c0.6-0.3,1.3-0.6,2.2-0.7
									c0.9-0.1,1.9-0.1,3,0.1c1,0.1,1.8,0.3,2.4,0.6c0.7,0.2,1.2,0.5,1.8,0.7c0.4,0.2,0.9,0.5,1.2,0.7c0.3,0.2,0.7,0.3,0.9,0.3
									s0.4,0,0.6-0.1c0.1,0.1,0.2,0.1,0.3,0.2c-0.9,1.2-1.4,1.7-2.3,2.9c-0.1-0.1-0.1-0.1-0.2-0.1c0-0.2,0-0.5-0.1-0.6
									c-0.1-0.2-0.3-0.5-0.7-0.7c-0.3-0.2-0.7-0.5-1.1-0.7c-0.4-0.2-0.9-0.5-1.4-0.6s-1-0.3-1.5-0.3c-0.4-0.1-0.8-0.1-1.2-0.1
									s-0.8,0-1.2,0.1c-0.3,0.1-0.7,0.2-0.9,0.3c-0.2,0.1-0.4,0.3-0.4,0.7c0,0.5,0.1,0.7,0.3,1c0.3,0.2,0.7,0.5,1.2,0.7
									c0.4,0.2,1.1,0.3,1.7,0.5c0.7,0.1,1.3,0.2,2,0.5c0.7,0.1,1.3,0.3,2,0.6c0.7,0.2,1.2,0.6,1.7,0.9c0.4,0.3,0.8,0.8,1,1.4
									s0.3,1.2,0.2,2c-0.1,0.9-0.4,1.6-1.1,2.1c-0.6,0.5-1.2,0.8-2,1c-0.8,0.2-1.5,0.2-2.4,0.2s-1.7-0.1-2.3-0.2
									c-1-0.1-1.8-0.3-2.4-0.6c-0.7-0.2-1.2-0.5-1.7-0.7c-0.4-0.2-0.8-0.5-1-0.6s-0.4-0.2-0.7-0.3c-0.1,0-0.2,0-0.3,0.1
									c-0.1-0.1-0.2-0.1-0.3-0.2C520.4,845.9,520.8,845.3,521.5,844.1z"/>
							</g>
						</g>
						<g>
							<g>
								<path class="st0" d="M437.4,875.6c-0.7-2-1.1-3-1.8-5.1c3-0.9,4.5-1.4,7.6-2.2c0.3,2.1,0.6,3.1,1,5.3
									c0.1,3.2,0.2,4.9,0.6,8.2c-1.4,0.3-2.2,0.6-3.6,1C439.6,879.9,439,878.5,437.4,875.6z"/>
								<path class="st0" d="M454.3,889.5c2.3-0.3,3.4-0.5,5.7-0.7c-0.6-5.9-0.8-8.9-1.3-14.8c-2.3,0.2-3.4,0.3-5.7,0.7
									c-0.2-1.5-0.3-2.2-0.6-3.7c3.3-1,5.5-2,7.7-3.1c2.2-0.1,3.3-0.2,5.6-0.2c0.1,8.3,0.2,12.5,0.3,20.8c2,0,3,0,5,0.1
									c-0.1,2-0.1,2.9-0.2,4.7c-6.3-0.3-9.5-0.2-15.8,0.8C454.8,892.3,454.5,891.4,454.3,889.5z"/>
								<path class="st0" d="M475.2,887.1c0.2-3.1,2.5-4.7,5.4-5.5c0-0.1,0-0.1,0-0.1c-2-1.8-3.5-3.8-3.3-6.6
									c0.4-4.4,5.1-6.6,11.2-5.2c6,1.4,8.9,5.4,7.7,9.5c-0.7,2.3-3.1,3.6-5.3,4.2c0,0.1,0,0.1,0,0.1c2.3,2.1,3.9,4.7,2.9,7.9
									c-1.2,3.8-5.5,5.4-10.6,4.3C478.3,894.5,474.8,891.3,475.2,887.1z M488.1,889.3c0.6-2.2-1.5-3.7-4.9-5.7
									c-1.4,0.7-2.5,2.1-2.8,3.6c-0.3,2.2,1.3,3.8,3.4,4.3C485.9,892,487.7,891.4,488.1,889.3z M490.5,877.8c0.4-2-0.7-3.6-3-4.2
									c-1.9-0.5-3.6,0.2-4,2.2c-0.3,2.1,1.5,3.4,4.3,5.1C489.2,880.1,490.2,879.1,490.5,877.8z"/>
							</g>
						</g>
						<g>
							<g>
								<path class="st0" d="M415.7,801.3c0.4,1.7,0.7,2.5,1.1,4.3c1.3,5.2,3.6,7.6,8.1,6.7c4.5-1,5-5.2,4.2-9.8
									c-1.4-7.6-3.5-9.8-14-13.6c-10.5-3.7-16.6-6-19.9-16c-4-12.1,5.6-21.7,16.4-24.2c10.1-2.3,22.3,1,23.5,13.4
									c0.2,1.5,0.3,2.3,0.4,3.8c-5.6,0.7-8.5,1.2-14.1,2.3c-0.2-1.4-0.4-2.1-0.7-3.5c-0.9-5-2.7-7.7-7.5-6.7
									c-4.9,1-5.3,4.5-4.2,9.1c1.2,5,3.1,6.9,11.8,9.8c10.4,2.9,19.4,9.9,20.4,21.6c0.9,9.8-1.3,19.8-14.8,22.8
									c-13.4,3-19-3.6-21.8-12.6c-0.6-1.6-0.8-2.4-1.2-4C408.3,803.2,410.7,802.5,415.7,801.3z"/>
								<path class="st0" d="M444.2,745c8.3-0.7,12.4-0.9,20.8-0.9c10.3-0.7,24.5,4,22.9,17.6c-0.1,1-0.1,1.6-0.2,2.7
									c-0.8,10.2-5.4,12.7-9.4,13.8c3.9,1.5,9.5,4.7,8.6,15.3c-0.2,2.2-0.3,3.2-0.4,5.4c-1.1,12.1-6.8,17.6-19.7,17.5
									c-6.5,0-9.7,0.1-16.2,0.6C448.2,792.9,446.3,768.9,444.2,745z M463.6,773.5c7.7,0,10.2-1.7,10.3-8.9c0-1.2,0-1.7,0.1-2.8
									c0.1-6-2.7-8.4-9.8-8.4c-1.9,0-2.8,0-4.6,0.1c0.2,8.1,0.3,12.1,0.7,20.2C461.5,773.5,462.2,773.5,463.6,773.5z M461.1,807.2
									c1.5,0,2.4,0,4,0c6.8,0,8.7-2.7,8.9-9.6c0.1-2,0.1-2.9,0.1-4.9c0.2-7.1-1.9-10.3-10.4-10.3c-1.3,0-2.1,0-3.4,0
									C460.6,792.4,460.8,797.3,461.1,807.2z"/>
								<path class="st0" d="M516.3,749.6c-3.3,17.9-6.6,35.8-9.9,53.7c-1,5.2,0.3,8.4,4.9,9.6c4.6,1.2,7-1.6,8.1-6.4
									c4.4-17.7,8.8-35.3,13.3-52.9c6.1,1.7,9.1,2.7,15.1,4.9c-5.4,17.2-10.8,34.4-16.2,51.8c-3.4,10.7-10.5,15.4-22.5,12.4
									c-11.5-2.9-16.4-9.5-14.8-21.7c2.2-18,4.5-36.1,6.7-54.1C507,747.6,510.1,748.2,516.3,749.6z"/>
							</g>
						</g>
						<path class="st25" d="M358.1,754.7c0,0,15.6,174.8,107.8,171.4"/>
						<polyline class="st26" points="465.5,922.4 471.1,926.6 465.5,930.1 						"/>
						<path class="st25" d="M566.7,818c0,0,12.2-34,11.7-66.9l-109.6-83.8l-27,20.5"/>
						<polyline class="st26" points="445.4,690.5 438.2,691.9 439.7,684.6 						"/>
						<path class="st27" d="M409.9,778.4"/>
						<path class="st28" d="M411.6,779.3"/>
						<path class="st28" d="M421.2,784.3"/>
						<ellipse class="st29" cx="428.3" cy="763.9" rx="0.9" ry="0.9"/>
						<ellipse class="st29" cx="410.5" cy="806.2" rx="0.9" ry="0.9"/>
						<ellipse class="st29" cx="507.2" cy="753.4" rx="0.9" ry="0.9"/>
						<ellipse class="st29" cx="539" cy="760.5" rx="0.9" ry="0.9"/>
						<ellipse class="st29" cx="447.5" cy="747.6" rx="0.9" ry="0.9"/>
						<ellipse class="st29" cx="452.3" cy="814.3" rx="0.9" ry="0.9"/>
						<ellipse class="st29" cx="450.5" cy="779.8" rx="0.9" ry="0.9"/>
						<ellipse class="st29" cx="509.8" cy="819.5" rx="0.9" ry="0.9"/>
					</g>
				</g>
			</g>
			<g class="st30">
				<path class="st0" d="M777.7,277.9c-3.8,2.7-7.3,5.6-10.2,8.9c-3,3.3-5.4,6.9-7.1,10.7c-1.7,3.9-2.5,8.1-2.6,12.5
					c-0.1,4.4,0.4,8.9,1.2,13.5c-2.5-3.9-4.1-8.6-4.7-13.3c-0.6-4.8,0.1-9.9,2-14.4c1.9-4.5,5-8.6,8.7-11.6
					C768.9,281.1,773.1,278.9,777.7,277.9z"/>
			</g>
			<g>
				<path class="st0" d="M797.9,300.6c1.8,0.8,3.3,2.1,4.4,3.7c1.1,1.7,1.8,3.6,1.8,5.7c0,2-0.6,4.3-1.8,5.9
					c-0.2,0.5-0.6,0.8-0.9,1.1c-0.3,0.3-0.7,0.7-1,1c-0.8,0.6-1.6,1.1-2.5,1.5c0.3-0.9,0.8-1.7,1.1-2.5c0.3-0.9,0.8-1.6,0.9-2.4
					c0.6-1.6,0.8-3,0.8-4.5c0-1.5-0.3-3-0.9-4.6C799.5,304,798.8,302.4,797.9,300.6z"/>
			</g>
			<g>
				<path class="st0" d="M790.8,381.4c1.8,0.8,3.3,2.1,4.4,3.7c1.1,1.7,1.8,3.6,1.8,5.7c0,2-0.6,4.3-1.8,5.9
					c-0.2,0.5-0.6,0.8-0.9,1.1c-0.3,0.3-0.7,0.7-1,1c-0.8,0.6-1.6,1.1-2.5,1.5c0.3-0.9,0.8-1.7,1.1-2.5c0.3-0.9,0.8-1.6,0.9-2.4
					c0.6-1.6,0.8-3,0.8-4.5c0-1.5-0.3-3-0.9-4.6C792.3,384.8,791.6,383.1,790.8,381.4z"/>
			</g>
			<g>
				<path class="st0" d="M769.6,370.8c-2.2,2.3-4,4.6-5.5,7.2c-1.5,2.6-2.6,5.2-3.1,8c-0.2,0.7-0.2,1.5-0.3,2.1c0,0.3-0.1,0.7-0.1,1
					v1.1c0,0.7-0.1,1.5-0.1,2.1s0.1,1.5,0.1,2.3c0,0.8,0.1,1.5,0.2,2.3l0.3,2.3c0.2,1.5,0.7,3,0.8,4.6c-0.9-1.4-1.7-2.7-2.4-4.1
					l-0.9-2.3c-0.3-0.8-0.6-1.5-0.7-2.4c-0.1-0.8-0.3-1.6-0.4-2.4c-0.1-0.8-0.1-1.6-0.1-2.5v-1.2c0-0.5,0.1-0.8,0.1-1.2
					c0.1-0.8,0.1-1.7,0.3-2.5c0.7-3.3,2.1-6.3,4.3-8.9C764,374,766.6,372,769.6,370.8z"/>
			</g>
			<g>
				<path class="st0" d="M615.3,608.7c1.8,0.8,3.3,2.1,4.4,3.7c1.1,1.7,1.8,3.6,1.8,5.7c0,2-0.6,4.3-1.8,5.9
					c-0.2,0.5-0.6,0.8-0.9,1.1c-0.3,0.3-0.7,0.7-1,1c-0.8,0.6-1.6,1.1-2.5,1.5c0.3-0.9,0.8-1.7,1.1-2.5c0.3-0.9,0.8-1.6,0.9-2.4
					c0.6-1.6,0.8-3,0.8-4.5c0-1.5-0.3-3-0.9-4.6C616.8,612.1,616.1,610.5,615.3,608.7z"/>
			</g>
			<polygon class="st0" points="273.7,273.3 276.5,265.6 269.2,270.2 263,265.1 262.7,264.7 262.8,264.9 262.6,264.8 262.9,265.2 
				265.2,272.8 257.9,277.4 266.4,278 269,286 271.9,278.3 280.3,278.8 			"/>
			<polygon class="st0" points="382,174.8 375.4,169.4 378.2,161.6 370.9,166.3 364.5,161 364.3,160.7 364.3,160.9 364.3,160.8 
				364.4,160.9 366.8,168.8 359.5,173.5 368.1,174 370.6,182 373.6,174.5 			"/>
			<g>
				<polygon class="st0" points="487.9,98.6 490.4,106.7 483.1,111.4 491.7,111.9 494.2,119.9 497.2,112.3 				"/>
				<polygon class="st0" points="487.9,98.7 494.5,104.1 501.8,99.5 499,107.3 505.6,112.7 497.1,112.3 				"/>
			</g>
			<polygon class="st0" points="220.6,400.7 223.4,392.9 216.1,397.5 209.9,392.5 209.6,392 209.7,392.3 209.5,392.1 209.8,392.5 
				212.1,400.1 204.8,404.7 213.3,405.3 215.9,413.3 218.8,405.6 227.2,406.1 			"/>
		</g>
	</g>
</g>
</svg>
