<?xml version="1.0" encoding="utf-8"?>
<!-- Generator: Adobe Illustrator 22.1.0, SVG Export Plug-In . SVG Version: 6.00 Build 0)  -->
<svg version="1.1" id="Layer_1" xmlns="http://www.w3.org/2000/svg" xmlns:xlink="http://www.w3.org/1999/xlink" x="0px" y="0px"
	 viewBox="0 0 1280 1024" style="enable-background:new 0 0 1280 1024;" xml:space="preserve">
<style type="text/css">
	.st0{opacity:0.48;clip-path:url(#XMLID_2_);fill:#FFFFFF;}
	.st1{opacity:0.48;clip-path:url(#XMLID_2_);fill:#68C0FC;}
	.st2{fill:#E6E6E8;}
	.st3{fill:#C0C0C4;}
	.st4{fill:#FFFFFF;}
	.st5{fill:#858585;}
	.st6{fill:#C2C2CA;}
	.st7{fill:#A6A6A6;}
	.st8{fill:#A8A8A8;}
	.st9{opacity:0.48;clip-path:url(#XMLID_3_);fill:#FFFFFF;}
	.st10{opacity:0.45;}
	.st11{fill:#002C3C;}
	.st12{opacity:0.38;fill:#C0C0C4;}
	.st13{fill:#A52B1C;}
	.st14{fill:#B4B4B5;}
	.st15{fill:#E2E2E2;}
	.st16{fill:#666666;}
	.st17{opacity:0.48;fill:#FFFFFF;}
	.st18{clip-path:url(#XMLID_4_);fill:#FDFDFF;}
	.st19{opacity:0.5;clip-path:url(#XMLID_5_);fill:#F9F9F9;}
	.st20{fill:none;stroke:#002C3C;stroke-width:3;stroke-miterlimit:10;}
	.st21{fill:none;stroke:#002C3C;stroke-width:2;stroke-miterlimit:10;}
	.st22{fill:none;stroke:#002C3C;stroke-width:9;stroke-miterlimit:10;}
	.st23{fill:none;stroke:#002C3C;stroke-width:4;stroke-miterlimit:10;}
	.st24{fill:none;stroke:#002C3C;stroke-miterlimit:10;}
	.st25{opacity:0.84;}
</style>
<g>
	<defs>
		<path id="XMLID_16_" d="M832.3,780.7c11.5-6.9,15.1-23.7,7.4-34.1l-69.8-93.9c-11.9-16-14.1-39-5.8-59.5c0.2-0.6,0.5-1.2,0.7-1.8
			c30.4-73.7,114.7-94.2,159.5-38.7c31.7,39.2,68.7,92.3,87.3,144.7c32.7-59,51.4-127.1,51.4-199.5C1062.9,271.5,880.6,88,655.8,88
			S248.6,271.5,248.6,497.9s182.3,409.9,407.1,409.9c17.2,0,34.2-1.1,50.9-3.2c0.4-1,0.9-1.9,1.3-2.9
			C735.6,844.6,798.2,801.1,832.3,780.7z"/>
	</defs>
	<use xlink:href="#XMLID_16_"  style="overflow:visible;"/>
	<clipPath id="XMLID_2_">
		<use xlink:href="#XMLID_16_"  style="overflow:visible;"/>
	</clipPath>
	<polygon class="st0" points="1062.6,333.3 322.8,934.4 234.7,824.4 974.5,223.3 	"/>
	<polygon class="st1" points="909,59.6 175.3,655.7 367.1,894.9 1100.8,298.9 	"/>
</g>
<path class="st2" d="M557.4,497.1c0,0-67.8,11.2-99.2,63.6s-77.4,239.4-77.4,239.4s33.7,68.7,236.6,105.4
	c202.9,36.7,333.4-155.5,333.4-155.5l6.3-82.9c0,0-46.7-124.8-91.5-135.8c-28.4-7-61.1-39.9-61.1-39.9L557.4,497.1z"/>
<g>
	<path class="st3" d="M576.1,485.2c0,0-53.4,22.9-84.8,75.4s-47,259.1-47,259.1s-25.5,37.6,177.4,74.3
		c202.9,36.7,333.4-155.5,333.4-155.5l38.7-79.9c0,0-62.5-121.2-107-147.5c-25.2-14.9-95.4-30.8-95.4-30.8L576.1,485.2z"/>
	<g>
		<path class="st3" d="M1012.9,692.8c-18.5-52.4-55.5-105.5-87.3-144.7c-44.8-55.5-129.1-35-159.5,38.7c-0.2,0.6-0.5,1.2-0.7,1.8
			c-8.3,20.5-6,43.6,5.8,59.5l69.8,93.9c7.7,10.4,4.1,27.2-7.4,34.1c-34.1,20.4-96.7,63.8-124.3,121c-0.5,1-0.9,1.9-1.3,2.9
			C839.3,883.6,951.2,804.2,1012.9,692.8z"/>
		<g>
			<path class="st3" d="M848.1,564.8c0,0-17.7,9.1-30,31.2l26,38.2c0,0,26.6,27.2,61.3,15L848.1,564.8z"/>
			<polygon class="st3" points="850.7,563.4 911.7,641.7 915.6,635.3 853.1,561.9 			"/>
			<polygon class="st3" points="855.4,560.4 918.6,626.4 920.1,619.5 857.4,559.2 			"/>
			<polygon class="st3" points="860.5,558.2 920.5,609.8 920,602.8 862.4,556.9 			"/>
			<path class="st3" d="M865.7,556l51.4,36.9c0,0-1.1-3.8-3.9-7.7L868,555L865.7,556z"/>
			<path class="st3" d="M871.1,554.1l35.4,21L890.1,551C890.1,551,881.9,550.6,871.1,554.1z"/>
			<g>
				<polygon class="st3" points="849.1,603.8 851.3,611 844.8,615 852.4,615.6 854.7,622.7 857.3,615.9 				"/>
				<polygon class="st3" points="849,603.8 854.9,608.6 861.4,604.5 858.9,611.5 864.8,616.3 857.3,615.9 				"/>
			</g>
		</g>
	</g>
</g>
<path class="st4" d="M565.6,490.4c0,0-53.4,22.9-84.8,75.4s-47,259.1-47,259.1s-25.5,37.6,177.4,74.3
	c202.9,36.7,333.4-155.5,333.4-155.5l38.7-79.9c0,0-62.5-121.2-107-147.5c-25.2-14.9-95.4-30.8-95.4-30.8L565.6,490.4z"/>
<path class="st3" d="M564.9,456.6c0,0-10.7,14.6,0,33.1c10.7,18.5,239.5,0,239.5,0s13.3-22.7,0-33.1H564.9z"/>
<path class="st3" d="M862.8,289c-17.5-94.3-100.3-144.2-207.1-131.7C557.3,168.8,503.5,225.4,513,351c4.8,63.6,26.3,88.3,54.3,112
	c75.4,2.3,150.8,1,226.2,0.9C846.2,423.1,875.2,356.1,862.8,289z"/>
<path class="st4" d="M851.8,289c-17.5-94.3-100.3-144.2-207.1-131.7C546.3,168.8,492.5,225.4,502,351c4.8,63.6,26.3,88.3,54.3,112
	c75.4,2.3,150.8,1,226.2,0.9C835.2,423.1,864.2,356.1,851.8,289z"/>
<g>
	<ellipse class="st5" cx="806.3" cy="313.8" rx="29.9" ry="33.5"/>
</g>
<ellipse class="st6" cx="805.3" cy="387.5" rx="22.6" ry="22.7"/>
<ellipse class="st7" cx="815.2" cy="313.8" rx="19.1" ry="18.5"/>
<ellipse class="st8" cx="810.3" cy="386.9" rx="15.9" ry="16.1"/>
<path class="st8" d="M799.1,289.9"/>
<g>
	<defs>
		<path id="XMLID_15_" d="M718.6,435.1H575c-32.2,0-58.6-26.4-58.6-58.6V266.2c0-33.9,27.7-61.6,61.6-61.6h142.2
			c23.6,0,42.9,19.3,42.9,42.9v143.1C763,415.1,743,435.1,718.6,435.1z"/>
	</defs>
	<use xlink:href="#XMLID_15_"  style="overflow:visible;fill:#C0C0C4;"/>
	<clipPath id="XMLID_3_">
		<use xlink:href="#XMLID_15_"  style="overflow:visible;"/>
	</clipPath>
	<polygon class="st9" points="721.8,176.9 498.3,369.3 470.3,332.3 693.8,139.8 	"/>
	<polygon class="st9" points="758.5,230.8 535,423.3 507,386.2 730.5,193.7 	"/>
</g>
<g>
	<g class="st10">
		<path class="st11" d="M553.2,258.9v8.9c0,2.8-0.9,5.1-4.7,5.1c-3.5,0-4.4-2.3-4.4-5.1v-8.7c0-3.2,1.4-5.1,4.6-5.1
			C551.9,254,553.2,255.9,553.2,258.9z M547.2,258.8v9.4c0,1.4,0.4,2.1,1.5,2.1c1.1,0,1.5-0.8,1.5-2.2v-9.4c0-1.3-0.4-2-1.5-2
			C547.7,256.7,547.2,257.3,547.2,258.8z"/>
		<path class="st11" d="M556.3,272.7v-15.1c-0.5,0.1-1.5,0.1-2,0.1v-2.2c1.2-0.1,2.2-0.7,2.8-1.3h2.2v18.5H556.3z"/>
		<path class="st11" d="M563,272.7v-15.1c-0.5,0.1-1.5,0.1-2,0.1v-2.2c1.2-0.1,2.2-0.7,2.8-1.3h2.2v18.5H563z"/>
		<path class="st11" d="M577.6,258.9v8.9c0,2.8-0.9,5.1-4.7,5.1c-3.5,0-4.4-2.3-4.4-5.1v-8.7c0-3.2,1.4-5.1,4.6-5.1
			C576.2,254,577.6,255.9,577.6,258.9z M571.6,258.8v9.4c0,1.4,0.4,2.1,1.5,2.1c1.1,0,1.5-0.8,1.5-2.2v-9.4c0-1.3-0.4-2-1.5-2
			C572,256.7,571.6,257.3,571.6,258.8z"/>
		<path class="st11" d="M580.7,272.7v-15.1c-0.5,0.1-1.5,0.1-2,0.1v-2.2c1.2-0.1,2.2-0.7,2.8-1.3h2.2v18.5H580.7z"/>
		<path class="st11" d="M595.3,258.9v8.9c0,2.8-0.9,5.1-4.7,5.1c-3.5,0-4.4-2.3-4.4-5.1v-8.7c0-3.2,1.4-5.1,4.6-5.1
			C593.9,254,595.3,255.9,595.3,258.9z M589.2,258.8v9.4c0,1.4,0.4,2.1,1.5,2.1c1.1,0,1.5-0.8,1.5-2.2v-9.4c0-1.3-0.4-2-1.5-2
			C589.7,256.7,589.2,257.3,589.2,258.8z"/>
		<path class="st11" d="M606.3,258.9v8.9c0,2.8-0.9,5.1-4.7,5.1c-3.5,0-4.4-2.3-4.4-5.1v-8.7c0-3.2,1.4-5.1,4.6-5.1
			C604.9,254,606.3,255.9,606.3,258.9z M600.2,258.8v9.4c0,1.4,0.4,2.1,1.5,2.1c1.1,0,1.5-0.8,1.5-2.2v-9.4c0-1.3-0.4-2-1.5-2
			C600.7,256.7,600.2,257.3,600.2,258.8z"/>
		<path class="st11" d="M617.3,258.9v8.9c0,2.8-0.9,5.1-4.7,5.1c-3.5,0-4.4-2.3-4.4-5.1v-8.7c0-3.2,1.4-5.1,4.6-5.1
			C615.9,254,617.3,255.9,617.3,258.9z M611.2,258.8v9.4c0,1.4,0.4,2.1,1.5,2.1c1.1,0,1.5-0.8,1.5-2.2v-9.4c0-1.3-0.4-2-1.5-2
			C611.7,256.7,611.2,257.3,611.2,258.8z"/>
		<path class="st11" d="M632.2,258.9v8.9c0,2.8-0.9,5.1-4.7,5.1c-3.5,0-4.4-2.3-4.4-5.1v-8.7c0-3.2,1.4-5.1,4.6-5.1
			C630.8,254,632.2,255.9,632.2,258.9z M626.1,258.8v9.4c0,1.4,0.4,2.1,1.5,2.1c1.1,0,1.5-0.8,1.5-2.2v-9.4c0-1.3-0.4-2-1.5-2
			C626.6,256.7,626.1,257.3,626.1,258.8z"/>
		<path class="st11" d="M635.2,272.7v-15.1c-0.5,0.1-1.5,0.1-2,0.1v-2.2c1.2-0.1,2.2-0.7,2.8-1.3h2.2v18.5H635.2z"/>
		<path class="st11" d="M641.9,272.7v-15.1c-0.5,0.1-1.5,0.1-2,0.1v-2.2c1.2-0.1,2.2-0.7,2.8-1.3h2.2v18.5H641.9z"/>
		<path class="st11" d="M648.6,272.7v-15.1c-0.5,0.1-1.5,0.1-2,0.1v-2.2c1.2-0.1,2.2-0.7,2.8-1.3h2.2v18.5H648.6z"/>
		<path class="st11" d="M663.3,258.9v8.9c0,2.8-0.9,5.1-4.7,5.1c-3.5,0-4.4-2.3-4.4-5.1v-8.7c0-3.2,1.4-5.1,4.6-5.1
			C661.9,254,663.3,255.9,663.3,258.9z M657.2,258.8v9.4c0,1.4,0.4,2.1,1.5,2.1c1.1,0,1.5-0.8,1.5-2.2v-9.4c0-1.3-0.4-2-1.5-2
			C657.7,256.7,657.2,257.3,657.2,258.8z"/>
		<path class="st11" d="M666.3,272.7v-15.1c-0.5,0.1-1.5,0.1-2,0.1v-2.2c1.2-0.1,2.2-0.7,2.8-1.3h2.2v18.5H666.3z"/>
		<path class="st11" d="M680.9,258.9v8.9c0,2.8-0.9,5.1-4.7,5.1c-3.5,0-4.4-2.3-4.4-5.1v-8.7c0-3.2,1.4-5.1,4.6-5.1
			C679.5,254,680.9,255.9,680.9,258.9z M674.9,258.8v9.4c0,1.4,0.4,2.1,1.5,2.1c1.1,0,1.5-0.8,1.5-2.2v-9.4c0-1.3-0.4-2-1.5-2
			C675.4,256.7,674.9,257.3,674.9,258.8z"/>
		<path class="st11" d="M684,272.7v-15.1c-0.5,0.1-1.5,0.1-2,0.1v-2.2c1.2-0.1,2.2-0.7,2.8-1.3h2.2v18.5H684z"/>
		<path class="st11" d="M553.2,293v8.9c0,2.8-0.9,5.1-4.7,5.1c-3.5,0-4.4-2.3-4.4-5.1v-8.7c0-3.2,1.4-5.1,4.6-5.1
			C551.9,288.1,553.2,289.9,553.2,293z M547.2,292.8v9.4c0,1.4,0.4,2.1,1.5,2.1c1.1,0,1.5-0.8,1.5-2.2v-9.4c0-1.3-0.4-2-1.5-2
			C547.7,290.7,547.2,291.4,547.2,292.8z"/>
		<path class="st11" d="M556.3,306.8v-15.1c-0.5,0.1-1.5,0.1-2,0.1v-2.2c1.2-0.1,2.2-0.7,2.8-1.3h2.2v18.5H556.3z"/>
		<path class="st11" d="M563,306.8v-15.1c-0.5,0.1-1.5,0.1-2,0.1v-2.2c1.2-0.1,2.2-0.7,2.8-1.3h2.2v18.5H563z"/>
		<path class="st11" d="M577.6,293v8.9c0,2.8-0.9,5.1-4.7,5.1c-3.5,0-4.4-2.3-4.4-5.1v-8.7c0-3.2,1.4-5.1,4.6-5.1
			C576.2,288.1,577.6,289.9,577.6,293z M571.6,292.8v9.4c0,1.4,0.4,2.1,1.5,2.1c1.1,0,1.5-0.8,1.5-2.2v-9.4c0-1.3-0.4-2-1.5-2
			C572,290.7,571.6,291.4,571.6,292.8z"/>
		<path class="st11" d="M580.7,306.8v-15.1c-0.5,0.1-1.5,0.1-2,0.1v-2.2c1.2-0.1,2.2-0.7,2.8-1.3h2.2v18.5H580.7z"/>
		<path class="st11" d="M587.4,306.8v-15.1c-0.5,0.1-1.5,0.1-2,0.1v-2.2c1.2-0.1,2.2-0.7,2.8-1.3h2.2v18.5H587.4z"/>
		<path class="st11" d="M602,293v8.9c0,2.8-0.9,5.1-4.7,5.1c-3.5,0-4.4-2.3-4.4-5.1v-8.7c0-3.2,1.4-5.1,4.6-5.1
			C600.6,288.1,602,289.9,602,293z M595.9,292.8v9.4c0,1.4,0.4,2.1,1.5,2.1c1.1,0,1.5-0.8,1.5-2.2v-9.4c0-1.3-0.4-2-1.5-2
			C596.4,290.7,595.9,291.4,595.9,292.8z"/>
		<path class="st11" d="M613,293v8.9c0,2.8-0.9,5.1-4.7,5.1c-3.5,0-4.4-2.3-4.4-5.1v-8.7c0-3.2,1.4-5.1,4.6-5.1
			C611.6,288.1,613,289.9,613,293z M606.9,292.8v9.4c0,1.4,0.4,2.1,1.5,2.1c1.1,0,1.5-0.8,1.5-2.2v-9.4c0-1.3-0.4-2-1.5-2
			C607.4,290.7,606.9,291.4,606.9,292.8z"/>
		<path class="st11" d="M627.9,293v8.9c0,2.8-0.9,5.1-4.7,5.1c-3.5,0-4.4-2.3-4.4-5.1v-8.7c0-3.2,1.4-5.1,4.6-5.1
			C626.5,288.1,627.9,289.9,627.9,293z M621.8,292.8v9.4c0,1.4,0.4,2.1,1.5,2.1c1.1,0,1.5-0.8,1.5-2.2v-9.4c0-1.3-0.4-2-1.5-2
			C622.3,290.7,621.8,291.4,621.8,292.8z"/>
		<path class="st11" d="M630.9,306.8v-15.1c-0.5,0.1-1.5,0.1-2,0.1v-2.2c1.2-0.1,2.2-0.7,2.8-1.3h2.2v18.5H630.9z"/>
		<path class="st11" d="M637.6,306.8v-15.1c-0.5,0.1-1.5,0.1-2,0.1v-2.2c1.2-0.1,2.2-0.7,2.8-1.3h2.2v18.5H637.6z"/>
		<path class="st11" d="M644.3,306.8v-15.1c-0.5,0.1-1.5,0.1-2,0.1v-2.2c1.2-0.1,2.2-0.7,2.8-1.3h2.2v18.5H644.3z"/>
		<path class="st11" d="M659,293v8.9c0,2.8-0.9,5.1-4.7,5.1c-3.5,0-4.4-2.3-4.4-5.1v-8.7c0-3.2,1.4-5.1,4.6-5.1
			C657.6,288.1,659,289.9,659,293z M652.9,292.8v9.4c0,1.4,0.4,2.1,1.5,2.1c1.1,0,1.5-0.8,1.5-2.2v-9.4c0-1.3-0.4-2-1.5-2
			C653.4,290.7,652.9,291.4,652.9,292.8z"/>
		<path class="st11" d="M662,306.8v-15.1c-0.5,0.1-1.5,0.1-2,0.1v-2.2c1.2-0.1,2.2-0.7,2.8-1.3h2.2v18.5H662z"/>
		<path class="st11" d="M676.7,293v8.9c0,2.8-0.9,5.1-4.7,5.1c-3.5,0-4.4-2.3-4.4-5.1v-8.7c0-3.2,1.4-5.1,4.6-5.1
			C675.3,288.1,676.7,289.9,676.7,293z M670.6,292.8v9.4c0,1.4,0.4,2.1,1.5,2.1c1.1,0,1.5-0.8,1.5-2.2v-9.4c0-1.3-0.4-2-1.5-2
			C671.1,290.7,670.6,291.4,670.6,292.8z"/>
		<path class="st11" d="M687.6,293v8.9c0,2.8-0.9,5.1-4.7,5.1c-3.5,0-4.4-2.3-4.4-5.1v-8.7c0-3.2,1.4-5.1,4.6-5.1
			C686.2,288.1,687.6,289.9,687.6,293z M681.6,292.8v9.4c0,1.4,0.4,2.1,1.5,2.1c1.1,0,1.5-0.8,1.5-2.2v-9.4c0-1.3-0.4-2-1.5-2
			C682.1,290.7,681.6,291.4,681.6,292.8z"/>
		<path class="st11" d="M553.2,327.1v8.9c0,2.8-0.9,5.1-4.7,5.1c-3.5,0-4.4-2.3-4.4-5.1v-8.7c0-3.2,1.4-5.1,4.6-5.1
			C551.9,322.2,553.2,324,553.2,327.1z M547.2,326.9v9.4c0,1.4,0.4,2.1,1.5,2.1c1.1,0,1.5-0.8,1.5-2.2v-9.4c0-1.3-0.4-2-1.5-2
			C547.7,324.8,547.2,325.5,547.2,326.9z"/>
		<path class="st11" d="M556.3,340.8v-15.1c-0.5,0.1-1.5,0.1-2,0.1v-2.2c1.2-0.1,2.2-0.7,2.8-1.3h2.2v18.5H556.3z"/>
		<path class="st11" d="M563,340.8v-15.1c-0.5,0.1-1.5,0.1-2,0.1v-2.2c1.2-0.1,2.2-0.7,2.8-1.3h2.2v18.5H563z"/>
		<path class="st11" d="M577.6,327.1v8.9c0,2.8-0.9,5.1-4.7,5.1c-3.5,0-4.4-2.3-4.4-5.1v-8.7c0-3.2,1.4-5.1,4.6-5.1
			C576.2,322.2,577.6,324,577.6,327.1z M571.6,326.9v9.4c0,1.4,0.4,2.1,1.5,2.1c1.1,0,1.5-0.8,1.5-2.2v-9.4c0-1.3-0.4-2-1.5-2
			C572,324.8,571.6,325.5,571.6,326.9z"/>
		<path class="st11" d="M588.6,327.1v8.9c0,2.8-0.9,5.1-4.7,5.1c-3.5,0-4.4-2.3-4.4-5.1v-8.7c0-3.2,1.4-5.1,4.6-5.1
			C587.2,322.2,588.6,324,588.6,327.1z M582.5,326.9v9.4c0,1.4,0.4,2.1,1.5,2.1c1.1,0,1.5-0.8,1.5-2.2v-9.4c0-1.3-0.4-2-1.5-2
			C583,324.8,582.5,325.5,582.5,326.9z"/>
		<path class="st11" d="M599.6,327.1v8.9c0,2.8-0.9,5.1-4.7,5.1c-3.5,0-4.4-2.3-4.4-5.1v-8.7c0-3.2,1.4-5.1,4.6-5.1
			C598.2,322.2,599.6,324,599.6,327.1z M593.5,326.9v9.4c0,1.4,0.4,2.1,1.5,2.1c1.1,0,1.5-0.8,1.5-2.2v-9.4c0-1.3-0.4-2-1.5-2
			C594,324.8,593.5,325.5,593.5,326.9z"/>
		<path class="st11" d="M610.6,327.1v8.9c0,2.8-0.9,5.1-4.7,5.1c-3.5,0-4.4-2.3-4.4-5.1v-8.7c0-3.2,1.4-5.1,4.6-5.1
			C609.2,322.2,610.6,324,610.6,327.1z M604.5,326.9v9.4c0,1.4,0.4,2.1,1.5,2.1c1.1,0,1.5-0.8,1.5-2.2v-9.4c0-1.3-0.4-2-1.5-2
			C605,324.8,604.5,325.5,604.5,326.9z"/>
		<path class="st11" d="M613.6,340.8v-15.1c-0.5,0.1-1.5,0.1-2,0.1v-2.2c1.2-0.1,2.2-0.7,2.8-1.3h2.2v18.5H613.6z"/>
		<path class="st11" d="M632.2,327.1v8.9c0,2.8-0.9,5.1-4.7,5.1c-3.5,0-4.4-2.3-4.4-5.1v-8.7c0-3.2,1.4-5.1,4.6-5.1
			C630.8,322.2,632.2,324,632.2,327.1z M626.1,326.9v9.4c0,1.4,0.4,2.1,1.5,2.1c1.1,0,1.5-0.8,1.5-2.2v-9.4c0-1.3-0.4-2-1.5-2
			C626.6,324.8,626.1,325.5,626.1,326.9z"/>
		<path class="st11" d="M635.2,340.8v-15.1c-0.5,0.1-1.5,0.1-2,0.1v-2.2c1.2-0.1,2.2-0.7,2.8-1.3h2.2v18.5H635.2z"/>
		<path class="st11" d="M641.9,340.8v-15.1c-0.5,0.1-1.5,0.1-2,0.1v-2.2c1.2-0.1,2.2-0.7,2.8-1.3h2.2v18.5H641.9z"/>
		<path class="st11" d="M648.6,340.8v-15.1c-0.5,0.1-1.5,0.1-2,0.1v-2.2c1.2-0.1,2.2-0.7,2.8-1.3h2.2v18.5H648.6z"/>
		<path class="st11" d="M663.3,327.1v8.9c0,2.8-0.9,5.1-4.7,5.1c-3.5,0-4.4-2.3-4.4-5.1v-8.7c0-3.2,1.4-5.1,4.6-5.1
			C661.9,322.2,663.3,324,663.3,327.1z M657.2,326.9v9.4c0,1.4,0.4,2.1,1.5,2.1c1.1,0,1.5-0.8,1.5-2.2v-9.4c0-1.3-0.4-2-1.5-2
			C657.7,324.8,657.2,325.5,657.2,326.9z"/>
		<path class="st11" d="M666.3,340.8v-15.1c-0.5,0.1-1.5,0.1-2,0.1v-2.2c1.2-0.1,2.2-0.7,2.8-1.3h2.2v18.5H666.3z"/>
		<path class="st11" d="M680.9,327.1v8.9c0,2.8-0.9,5.1-4.7,5.1c-3.5,0-4.4-2.3-4.4-5.1v-8.7c0-3.2,1.4-5.1,4.6-5.1
			C679.5,322.2,680.9,324,680.9,327.1z M674.9,326.9v9.4c0,1.4,0.4,2.1,1.5,2.1c1.1,0,1.5-0.8,1.5-2.2v-9.4c0-1.3-0.4-2-1.5-2
			C675.4,324.8,674.9,325.5,674.9,326.9z"/>
		<path class="st11" d="M691.9,327.1v8.9c0,2.8-0.9,5.1-4.7,5.1c-3.5,0-4.4-2.3-4.4-5.1v-8.7c0-3.2,1.4-5.1,4.6-5.1
			C690.5,322.2,691.9,324,691.9,327.1z M685.8,326.9v9.4c0,1.4,0.4,2.1,1.5,2.1c1.1,0,1.5-0.8,1.5-2.2v-9.4c0-1.3-0.4-2-1.5-2
			C686.3,324.8,685.8,325.5,685.8,326.9z"/>
	</g>
</g>
<g>
	<path class="st4" d="M586,213.9c-3.6,1.1-7.1,2.1-10.5,3.4c-3.4,1.2-6.6,2.6-9.8,4.1c-6.3,2.9-12,6.5-17.1,10.8
		c-2.6,2.1-5,4.5-7.2,6.9c-1.2,1.2-2.2,2.6-3.3,3.9c-0.6,0.6-1,1.4-1.5,2c-0.5,0.7-1.1,1.4-1.5,2.1c-4,5.7-7.4,12-11,18.7l-0.6-0.1
		c0.4-1.8,0.8-3.6,1.3-5.4l0.8-2.7c0.3-0.9,0.5-1.8,0.9-2.6c0.6-1.7,1.3-3.5,2.1-5.2c0.4-0.8,0.7-1.7,1.2-2.5l1.3-2.5
		c1.8-3.2,3.8-6.4,6.2-9.3c2.3-2.9,4.9-5.6,7.8-8c5.7-4.7,12.4-8.4,19.4-10.7c7-2.4,14.4-3.7,21.9-3.5L586,213.9z"/>
</g>
<path class="st12" d="M548.7,456.4c2.8,3.3,6.1,4.6,8.7,8c10.9,13.9,238.2,1,238.2,1s2.9-3,4.4-8.8L548.7,456.4z"/>
<path class="st12" d="M550.8,486c0.6,3.5,5,6.1,7.6,10.1c10.9,16.9,236.4,0.4,236.4,0.4s8.4-4.1,9.9-11.1L550.8,486z"/>
<path class="st4" d="M553.5,461.3c0,0-10.9,13.4,0,30.2c10.9,16.9,241.9,0,241.9,0s13.4-20.8,0-30.2H553.5z"/>
<path class="st2" d="M1002.4,698c-18.5-52.4-55.5-105.5-87.3-144.7c-44.8-55.5-129.1-35-159.5,38.7c-0.2,0.6-0.5,1.2-0.7,1.8
	c-8.3,20.5-6,43.6,5.8,59.5l69.8,93.9c7.7,10.4,4.1,27.2-7.4,34.1c-34.1,20.4-96.7,63.8-124.3,121c-0.5,1-0.9,1.9-1.3,2.9
	C828.8,888.8,940.7,809.4,1002.4,698z"/>
<path class="st13" d="M837.6,570c0,0-17.7,9.1-30,31.2l26,38.2c0,0,26.6,27.2,61.3,15L837.6,570z"/>
<polygon class="st13" points="840.2,568.6 901.2,646.9 905.2,640.5 842.6,567.1 "/>
<polygon class="st13" points="844.9,565.7 908.2,631.6 909.6,624.7 847,564.4 "/>
<polygon class="st13" points="850,563.4 910,615 909.6,608 851.9,562.2 "/>
<path class="st13" d="M855.2,561.2l51.4,36.9c0,0-1.1-3.8-3.9-7.7l-45.2-30.2L855.2,561.2z"/>
<path class="st13" d="M860.7,559.4l35.4,21l-16.4-24.2C879.7,556.2,871.4,555.8,860.7,559.4z"/>
<g>
	<polygon class="st4" points="838.6,609 840.8,616.2 834.3,620.2 842,620.8 844.2,627.9 846.8,621.1 	"/>
	<polygon class="st4" points="838.5,609.1 844.5,613.8 851,609.7 848.4,616.7 854.3,621.5 846.8,621.1 	"/>
</g>
<path class="st3" d="M521.7,680.4v-86.5c0-26,21.1-47.1,47.1-47.1H676c26,0,47.1,21.1,47.1,47.1v86.5c0,26-21.1,47.1-47.1,47.1
	H568.8C542.8,727.5,521.7,706.4,521.7,680.4z"/>
<path class="st2" d="M661.8,727.5H557.1c-26,0-47.1-21.1-47.1-47.1v-86.5c0-26,21.1-47.1,47.1-47.1h104.7c26,0,47.1,21.1,47.1,47.1
	v86.5C708.9,706.4,687.8,727.5,661.8,727.5z"/>
<ellipse class="st14" cx="658.8" cy="587.8" rx="13.2" ry="14.9"/>
<ellipse class="st15" cx="655.4" cy="587.8" rx="13.2" ry="14.9"/>
<rect x="551.4" y="573.2" class="st16" width="67" height="26.4"/>
<rect x="551.4" y="573.2" class="st17" width="58.2" height="26.4"/>
<ellipse class="st13" cx="563.5" cy="586.4" rx="5" ry="5"/>
<ellipse class="st11" cx="580.5" cy="586.4" rx="5" ry="5"/>
<ellipse class="st4" cx="598.2" cy="586.4" rx="5" ry="5"/>
<path class="st2" d="M831.4,846.6c0,33.1-78.4,59.9-175.2,59.9s-175.2-26.8-175.2-59.9"/>
<g>
	<defs>
		<polygon id="XMLID_18_" points="731.3,907.4 800.6,865.7 463.1,861.3 396.8,899.6 		"/>
	</defs>
	<use xlink:href="#XMLID_18_"  style="overflow:visible;"/>
	<clipPath id="XMLID_4_">
		<use xlink:href="#XMLID_18_"  style="overflow:visible;"/>
	</clipPath>
	<polygon class="st18" points="622.1,986.2 424.6,969.2 425.5,954.4 623,971.4 	"/>
</g>
<g>
	<defs>
		<path id="XMLID_17_" d="M738.5,908.8l-380.7-4.2c-6.9-0.1-12.4-5.7-12.3-12.6l2.4-226.4c0.2-21.9,18.1-39.4,40-39.2l326.6,3.6
			c21.9,0.2,39.4,18.1,39.1,40l-2.4,226.3C751.2,903.3,745.5,908.9,738.5,908.8z"/>
	</defs>
	<use xlink:href="#XMLID_17_"  style="overflow:visible;fill:#B9B9BA;"/>
	<clipPath id="XMLID_5_">
		<use xlink:href="#XMLID_17_"  style="overflow:visible;"/>
	</clipPath>
	<polygon class="st19" points="513.3,551 253.1,779 295.3,828.6 555.5,600.6 	"/>
	<polygon class="st19" points="638.7,564.7 292.7,867.9 334.9,917.5 680.9,614.3 	"/>
</g>
<g>
	<path class="st4" d="M536.1,874.6c-19.9-0.3-37.4-9.4-52-27.1c-10.8-13.1-20-31.1-27.4-53.4c-12.2-37-15.1-73.2-15.2-74.7l-0.5-6
		l106.5-78.3L547,874.7L536.1,874.6z"/>
	<path class="st4" d="M557.4,874.9c19.9,0.3,37.5-8.3,52.2-25.6c10.9-12.8,20.2-30.5,27.7-52.6c12.4-36.6,15.6-72.8,15.7-74.3l0.5-6
		l-106.1-81.2l-0.9,239.5L557.4,874.9z"/>
	<g>
		<path class="st11" d="M547.5,656.9l-91.7,61.8c0,0,12.3,144,91.2,145.1L547.5,656.9z"/>
		<path class="st11" d="M547.1,656.9l92.1,64.3c0,0-13.3,143.7-92.8,142.6L547.1,656.9z"/>
	</g>
	<g>
		<g>
			<path class="st4" d="M507.3,789.4c0-0.3-0.2-0.4-0.6-0.3c0-0.2,0-0.2-0.1-0.4c1.5-0.2,2.3-0.3,3.8-0.4c0,0.2,0,0.2,0,0.4
				c-0.1,0-0.2,0.1-0.3,0.1c-0.1,0.1-0.1,0.2-0.1,0.3c0.5,4,0.7,6.1,1.2,10.1c0,0.1,0.1,0.2,0.2,0.3c0.1,0.1,0.2,0.1,0.3,0.1
				c0,0.2,0,0.2,0,0.4c-1.5,0.2-2.2,0.2-3.6,0.4c0-0.2,0-0.2-0.1-0.4c0.3,0,0.5-0.2,0.5-0.5c-0.2-1.7-0.3-2.5-0.5-4.2
				c-3.1,0.4-4.6,0.5-7.7,1c0.2,1.7,0.4,2.5,0.6,4.2c0,0.1,0.1,0.2,0.2,0.3s0.2,0.1,0.3,0.1c0,0.2,0,0.2,0.1,0.4
				c-1.4,0.2-2.1,0.3-3.6,0.5c0-0.2,0-0.2-0.1-0.4c0.3,0,0.4-0.2,0.4-0.5c-0.6-4-0.9-6-1.6-10.1c0-0.3-0.2-0.4-0.5-0.3
				c0-0.2,0-0.2-0.1-0.4c1.5-0.2,2.2-0.3,3.7-0.5c0,0.2,0,0.2,0.1,0.4c-0.1,0-0.2,0.1-0.3,0.1c-0.1,0.1-0.1,0.2-0.1,0.3
				c0.2,1.5,0.3,2.3,0.6,3.8c3.1-0.4,4.6-0.6,7.8-1C507.6,791.6,507.5,790.9,507.3,789.4z"/>
			<path class="st4" d="M521.7,798.7c0.2,0,0.4-0.2,0.5-0.3c0.1-0.2,0.2-0.4,0.3-0.6c1.5-3.6,2.2-5.4,3.8-9c0.1-0.2,0.2-0.4,0.3-0.6
				s0.1-0.3,0.1-0.4c0-0.1-0.1-0.3-0.2-0.3c-0.1-0.1-0.2-0.1-0.4-0.1c0-0.2,0-0.2,0-0.4c1.7-0.1,2.5-0.1,4.1-0.2c0,0.2,0,0.2,0,0.4
				c-0.1,0-0.2,0.1-0.3,0.1c-0.1,0.1-0.2,0.2-0.2,0.3c0,0.1,0,0.2,0.1,0.4c0.1,0.1,0.2,0.3,0.3,0.5c2.2,3.5,3.3,5.3,5.5,8.9
				c0.1,0.2,0.2,0.3,0.3,0.3c0.1,0.1,0.3,0.1,0.5,0.2c0,0.2,0,0.2,0,0.4c-1.7,0.1-2.5,0.1-4.2,0.2c0-0.2,0-0.2,0-0.4
				c0.1,0,0.1,0,0.2-0.1c0.1,0,0.1-0.1,0.1-0.2c0-0.1-0.1-0.3-0.2-0.6c-0.4-0.6-0.6-1-1-1.6c-2.3,0.1-3.5,0.2-5.8,0.3
				c-0.3,0.7-0.4,1-0.7,1.6c-0.1,0.3-0.2,0.6-0.2,0.7c0,0.2,0.2,0.2,0.5,0.2c0,0.2,0,0.2,0,0.4c-1.3,0.1-2,0.1-3.4,0.2
				C521.7,798.9,521.7,798.8,521.7,798.7z M530.4,793.9c-0.9-1.6-1.4-2.4-2.3-4.1c-0.8,1.7-1.2,2.6-2,4.3
				C527.8,794.1,528.7,794,530.4,793.9z"/>
			<path class="st4" d="M559.6,796.7c0,0-0.1,0-0.1,0c0,0-0.1,0-0.1,0c-0.1,0-0.3,0.1-0.7,0.2c-0.4,0.2-0.8,0.4-1.4,0.6
				c-0.6,0.2-1.2,0.4-1.9,0.5c-0.7,0.1-1.4,0.2-2.2,0.2c-1,0-2-0.1-2.9-0.4c-0.9-0.2-1.7-0.6-2.4-1.1c-0.7-0.5-1.3-1.1-1.7-1.9
				c-0.4-0.7-0.6-1.6-0.7-2.6c0-1,0.2-1.9,0.6-2.6c0.4-0.8,1-1.4,1.7-1.9c0.7-0.5,1.6-0.9,2.5-1.1c0.9-0.2,1.9-0.4,3-0.3
				c0.8,0,1.6,0.1,2.3,0.2c0.7,0.1,1.3,0.3,1.8,0.4c0.5,0.1,0.9,0.3,1.2,0.4c0.3,0.1,0.5,0.2,0.5,0.2c0.1,0,0.2,0,0.2-0.1
				c0.1-0.1,0.1-0.1,0.1-0.2c0.1,0.1,0.2,0.2,0.4,0.3c-0.8,1.1-1.2,1.6-2,2.6c-0.1-0.1-0.1-0.1-0.2-0.2c0,0,0-0.1,0-0.1s0-0.1,0-0.2
				c0-0.2-0.2-0.3-0.5-0.5c-0.3-0.2-0.6-0.3-1.1-0.5c-0.4-0.1-0.9-0.3-1.4-0.4c-0.5-0.1-0.9-0.2-1.3-0.2c-0.7,0-1.3,0.1-2,0.2
				c-0.6,0.2-1.2,0.4-1.6,0.8c-0.5,0.3-0.8,0.8-1.1,1.3c-0.3,0.5-0.4,1.1-0.4,1.7c0,0.6,0.1,1.2,0.4,1.7c0.3,0.5,0.6,0.9,1.1,1.3
				c0.5,0.3,1,0.6,1.6,0.8c0.6,0.2,1.3,0.3,1.9,0.3c0.5,0,1,0,1.6-0.1c0.6-0.1,1.1-0.2,1.5-0.4c0.5-0.2,0.9-0.3,1.2-0.6
				c0.3-0.2,0.5-0.4,0.5-0.6c0-0.1,0-0.2-0.1-0.3c0.1-0.1,0.2-0.1,0.3-0.2c0.6,1,0.9,1.5,1.5,2.4
				C559.7,796.6,559.6,796.6,559.6,796.7z"/>
			<path class="st4" d="M573.7,798.3c0,0.1,0,0.2,0.1,0.3c0.1,0.1,0.2,0.1,0.3,0.1c0,0.2,0,0.2,0,0.4c-1.5-0.1-2.2-0.2-3.7-0.3
				c0-0.2,0-0.2,0-0.4c0.3,0,0.5-0.1,0.5-0.4c0.2-4.1,0.4-6.1,0.6-10.2c0-0.3-0.2-0.4-0.5-0.4c0-0.2,0-0.2,0-0.4
				c1.5,0.1,2.3,0.2,3.8,0.3c0,0.2,0,0.2,0,0.4c-0.1,0-0.2,0-0.3,0.1c-0.1,0.1-0.2,0.2-0.2,0.3c-0.1,1.7-0.2,2.5-0.3,4.2
				c2.1-1.3,3.2-1.9,5.3-3.2c0.2-0.2,0.4-0.3,0.6-0.4c0.1-0.1,0.2-0.2,0.2-0.3c0-0.1,0-0.2-0.1-0.2c-0.1-0.1-0.2-0.1-0.3-0.1
				c0-0.2,0-0.2,0-0.4c2.1,0.2,3.1,0.3,5.1,0.5c0,0.2,0,0.2,0,0.4c-0.3,0-0.6,0-0.9,0.2c-2.4,1.4-3.6,2.1-5.9,3.5
				c1.9,2.3,2.8,3.5,4.6,5.9c0.2,0.2,0.4,0.5,0.7,0.7s0.5,0.4,0.8,0.5c0,0.2,0,0.2,0,0.4c-1.8-0.2-2.6-0.3-4.4-0.4
				c0-0.2,0-0.2,0-0.4c0.2,0,0.3,0,0.3-0.1c0-0.1-0.1-0.2-0.3-0.5c-1.5-1.9-2.2-2.9-3.7-4.8c-0.9,0.5-1.3,0.8-2.1,1.3
				C573.8,796.4,573.8,797,573.7,798.3z"/>
			<path class="st4" d="M595.1,797.7c0.1,0.1,0.1,0.1,0.2,0.1c0,0.1,0,0.3,0,0.4c0.1,0.2,0.3,0.4,0.6,0.6c0.3,0.2,0.7,0.4,1.1,0.6
				c0.4,0.2,0.8,0.4,1.3,0.5c0.4,0.1,0.9,0.3,1.2,0.3c0.3,0,0.6,0.1,1,0.1c0.4,0,0.9,0,1.3,0c0.4-0.1,0.8-0.2,1.1-0.3
				c0.3-0.2,0.5-0.4,0.6-0.7c0.1-0.3,0-0.6-0.3-0.8c-0.3-0.2-0.6-0.4-1-0.5c-0.4-0.1-1-0.3-1.5-0.4c-0.6-0.1-1.2-0.2-1.8-0.4
				c-0.6-0.1-1.2-0.3-1.8-0.5c-0.6-0.2-1.1-0.4-1.5-0.7c-0.4-0.3-0.8-0.7-1-1.2c-0.2-0.5-0.3-1-0.2-1.7c0.1-0.5,0.2-0.9,0.5-1.3
				c0.3-0.4,0.7-0.8,1.2-1c0.5-0.3,1.2-0.5,2-0.6c0.8-0.1,1.7-0.1,2.7,0.1c0.9,0.1,1.6,0.3,2.2,0.5c0.6,0.2,1.1,0.4,1.6,0.6
				c0.4,0.2,0.8,0.4,1.1,0.6c0.3,0.2,0.6,0.3,0.8,0.3c0.2,0,0.4,0,0.5-0.1c0.1,0.1,0.2,0.1,0.3,0.2c-0.8,1-1.3,1.5-2.1,2.5
				c-0.1-0.1-0.1-0.1-0.2-0.1c0-0.2,0-0.4-0.1-0.5c-0.1-0.2-0.3-0.4-0.6-0.6c-0.3-0.2-0.6-0.4-1-0.6c-0.4-0.2-0.8-0.4-1.3-0.5
				s-0.9-0.3-1.4-0.3c-0.4-0.1-0.7-0.1-1.1-0.1c-0.4,0-0.7,0-1.1,0.1c-0.3,0.1-0.6,0.2-0.8,0.3c-0.2,0.1-0.4,0.3-0.4,0.6
				c0,0.4,0.1,0.6,0.3,0.9c0.3,0.2,0.6,0.4,1.1,0.6c0.4,0.2,1,0.3,1.5,0.4c0.6,0.1,1.2,0.2,1.8,0.4c0.6,0.1,1.2,0.3,1.8,0.5
				c0.6,0.2,1.1,0.5,1.5,0.8c0.4,0.3,0.7,0.7,0.9,1.2s0.3,1,0.2,1.7c-0.1,0.8-0.4,1.4-1,1.8c-0.5,0.4-1.1,0.7-1.8,0.9
				c-0.7,0.2-1.4,0.2-2.2,0.2c-0.8,0-1.5-0.1-2.1-0.2c-0.9-0.1-1.6-0.3-2.2-0.5c-0.6-0.2-1.1-0.4-1.5-0.6c-0.4-0.2-0.7-0.4-0.9-0.5
				c-0.2-0.1-0.4-0.2-0.6-0.3c-0.1,0-0.2,0-0.3,0.1c-0.1-0.1-0.2-0.1-0.3-0.2C594.1,799.2,594.5,798.7,595.1,797.7z"/>
		</g>
	</g>
	<g>
		<g>
			<path class="st4" d="M519,824.9c-0.6-1.7-1-2.6-1.6-4.4c2.7-0.8,4.1-1.2,6.9-1.9c0.3,1.8,0.5,2.7,0.9,4.6
				c0.1,2.8,0.2,4.2,0.5,7.1c-1.3,0.3-2,0.5-3.3,0.9C521,828.6,520.4,827.4,519,824.9z"/>
			<path class="st4" d="M534.3,836.9c2.1-0.3,3.1-0.4,5.2-0.6c-0.5-5.1-0.7-7.7-1.2-12.8c-2.1,0.2-3.1,0.3-5.2,0.6
				c-0.2-1.3-0.3-1.9-0.5-3.2c3-0.9,5-1.7,7-2.7c2-0.1,3-0.2,5.1-0.2c0.1,7.2,0.2,10.8,0.3,18c1.8,0,2.7,0,4.5,0.1
				c-0.1,1.7-0.1,2.5-0.2,4.1c-5.7-0.3-8.6-0.2-14.3,0.7C534.7,839.4,534.5,838.6,534.3,836.9z"/>
			<path class="st4" d="M553.2,834.9c0.2-2.7,2.3-4.1,4.9-4.8c0-0.1,0-0.1,0-0.1c-1.8-1.6-3.2-3.3-3-5.7c0.4-3.8,4.6-5.7,10.1-4.5
				c5.4,1.2,8.1,4.7,7,8.2c-0.6,2-2.8,3.1-4.8,3.6c0,0.1,0,0.1,0,0.1c2.1,1.8,3.5,4.1,2.6,6.8c-1.1,3.3-5,4.7-9.6,3.7
				C556,841.3,552.8,838.5,553.2,834.9z M564.9,836.8c0.5-1.9-1.4-3.2-4.4-4.9c-1.3,0.6-2.3,1.8-2.5,3.1c-0.3,1.9,1.2,3.3,3.1,3.7
				C562.9,839.1,564.5,838.6,564.9,836.8z M567,826.8c0.4-1.7-0.6-3.1-2.7-3.6c-1.7-0.4-3.3,0.2-3.6,1.9c-0.3,1.8,1.4,2.9,3.9,4.4
				C565.9,828.8,566.8,827.9,567,826.8z"/>
		</g>
	</g>
	<g>
		<g>
			<path class="st4" d="M499.3,760.6c0.4,1.5,0.6,2.2,1,3.7c1.2,4.5,3.3,6.6,7.3,5.8c4.1-0.9,4.5-4.5,3.8-8.5
				c-1.3-6.6-3.2-8.5-12.7-11.8c-9.5-3.2-15-5.2-18-13.8c-3.6-10.5,5.1-18.8,14.8-20.9c9.1-2,20.2,0.9,21.3,11.6
				c0.2,1.3,0.3,2,0.4,3.3c-5.1,0.6-7.7,1-12.8,2c-0.2-1.2-0.4-1.8-0.6-3c-0.8-4.3-2.4-6.7-6.8-5.8c-4.4,0.9-4.8,3.9-3.8,7.9
				c1.1,4.3,2.8,6,10.7,8.5c9.4,2.5,17.6,8.6,18.5,18.7c0.8,8.5-1.2,17.1-13.4,19.7c-12.1,2.6-17.2-3.1-19.7-10.9
				c-0.5-1.4-0.7-2.1-1.1-3.5C492.6,762.3,494.8,761.7,499.3,760.6z"/>
			<path class="st4" d="M525.1,711.9c7.5-0.6,11.2-0.8,18.8-0.8c9.3-0.6,22.2,3.5,20.7,15.2c-0.1,0.9-0.1,1.4-0.2,2.3
				c-0.7,8.8-4.9,11-8.5,11.9c3.5,1.3,8.6,4.1,7.8,13.2c-0.2,1.9-0.3,2.8-0.4,4.7c-1,10.5-6.2,15.2-17.8,15.1
				c-5.9,0-8.8,0.1-14.7,0.5C528.8,753.4,527,732.6,525.1,711.9z M542.7,736.6c7,0,9.2-1.5,9.3-7.7c0-1,0-1.5,0.1-2.4
				c0.1-5.2-2.4-7.3-8.9-7.3c-1.7,0-2.5,0-4.2,0.1c0.2,7,0.3,10.5,0.6,17.5C540.8,736.6,541.4,736.6,542.7,736.6z M540.4,765.7
				c1.4,0,2.2,0,3.6,0c6.2,0,7.9-2.3,8.1-8.3c0.1-1.7,0.1-2.5,0.1-4.2c0.2-6.1-1.7-8.9-9.4-8.9c-1.2,0-1.9,0-3.1,0
				C540,752.9,540.2,757.2,540.4,765.7z"/>
			<path class="st4" d="M590.4,715.9c-3,15.5-6,31-9,46.5c-0.9,4.5,0.3,7.3,4.4,8.3c4.2,1,6.3-1.4,7.3-5.5c4-15.3,8-30.5,12-45.8
				c5.5,1.5,8.2,2.3,13.7,4.2c-4.9,14.9-9.8,29.8-14.7,44.8c-3.1,9.3-9.5,13.3-20.4,10.7c-10.4-2.5-14.8-8.2-13.4-18.8
				c2-15.6,4.1-31.2,6.1-46.8C582,714.2,584.8,714.7,590.4,715.9z"/>
		</g>
	</g>
	<path class="st20" d="M447.2,720.3c0,0,14.1,151.2,97.6,148.3"/>
	<polyline class="st21" points="544.4,865.4 549.5,869 544.4,872.1 	"/>
	<path class="st20" d="M636,775.1c0,0,11-29.4,10.6-57.9l-99.2-72.5L523,662.4"/>
	<polyline class="st21" points="526.2,664.8 519.7,666 521.1,659.7 	"/>
	<path class="st22" d="M494.1,740.8"/>
	<path class="st23" d="M495.6,741.6"/>
	<path class="st23" d="M504.3,745.9"/>
	
		<ellipse transform="matrix(0.7604 -0.6494 0.6494 0.7604 -350.5872 506.2059)" class="st24" cx="510.8" cy="728.3" rx="0.8" ry="0.8"/>
	
		<ellipse transform="matrix(0.7604 -0.6494 0.6494 0.7604 -378.2228 504.5319)" class="st24" cx="494.7" cy="764.9" rx="0.8" ry="0.8"/>
	
		<ellipse transform="matrix(0.7604 -0.6494 0.6494 0.7604 -327.5915 550.4073)" class="st24" cx="582.2" cy="719.2" rx="0.8" ry="0.8"/>
	
		<ellipse transform="matrix(0.7604 -0.6494 0.6494 0.7604 -324.6464 570.5734)" class="st24" cx="611" cy="725.3" rx="0.8" ry="0.8"/>
	
		<ellipse transform="matrix(0.7604 -0.6494 0.6494 0.7604 -337.2791 514.0178)" class="st24" cx="528.1" cy="714.2" rx="0.8" ry="0.8"/>
	
		<ellipse transform="matrix(0.7604 -0.6494 0.6494 0.7604 -373.6898 530.726)" class="st24" cx="532.5" cy="771.9" rx="0.8" ry="0.8"/>
	
		<ellipse transform="matrix(0.7604 -0.6494 0.6494 0.7604 -354.6918 522.5504)" class="st24" cx="530.9" cy="742" rx="0.8" ry="0.8"/>
	
		<ellipse transform="matrix(0.7604 -0.6494 0.6494 0.7604 -364.1761 565.6257)" class="st24" cx="584.6" cy="776.4" rx="0.8" ry="0.8"/>
</g>
<g class="st25">
	<path class="st4" d="M806.3,286.6c-3.4,2.4-6.5,5-9.1,7.9c-2.7,2.9-4.8,6.1-6.3,9.5c-1.5,3.5-2.2,7.2-2.3,11.1
		c-0.1,3.9,0.4,7.9,1.1,12c-2.2-3.5-3.7-7.6-4.2-11.8c-0.5-4.3,0.1-8.8,1.8-12.8c1.7-4,4.5-7.6,7.8-10.3
		C798.4,289.5,802.2,287.5,806.3,286.6z"/>
</g>
<g>
	<path class="st4" d="M824.3,306.8c1.6,0.7,2.9,1.9,3.9,3.3c1,1.5,1.6,3.2,1.6,5.1c0,1.8-0.5,3.8-1.6,5.2c-0.2,0.4-0.5,0.7-0.8,1
		c-0.3,0.3-0.6,0.6-0.9,0.9c-0.7,0.5-1.4,1-2.2,1.3c0.3-0.8,0.7-1.5,1-2.2c0.3-0.8,0.7-1.4,0.8-2.1c0.5-1.4,0.7-2.7,0.7-4
		c0-1.3-0.3-2.7-0.8-4.1C825.7,309.8,825.1,308.4,824.3,306.8z"/>
</g>
<g>
	<path class="st4" d="M818,378.5c1.6,0.7,2.9,1.9,3.9,3.3c1,1.5,1.6,3.2,1.6,5.1c0,1.8-0.5,3.8-1.6,5.2c-0.2,0.4-0.5,0.7-0.8,1
		c-0.3,0.3-0.6,0.6-0.9,0.9c-0.7,0.5-1.4,1-2.2,1.3c0.3-0.8,0.7-1.5,1-2.2c0.3-0.8,0.7-1.4,0.8-2.1c0.5-1.4,0.7-2.7,0.7-4
		c0-1.3-0.3-2.7-0.8-4.1C819.3,381.5,818.7,380,818,378.5z"/>
</g>
<g>
	<path class="st4" d="M799.1,369.1c-2,2-3.6,4.1-4.9,6.4c-1.3,2.3-2.3,4.6-2.8,7.1c-0.2,0.6-0.2,1.3-0.3,1.9c0,0.3-0.1,0.6-0.1,0.9
		l0,1c0,0.6-0.1,1.3-0.1,1.9c0,0.6,0.1,1.3,0.1,2c0,0.7,0.1,1.3,0.2,2l0.3,2c0.2,1.3,0.6,2.7,0.7,4.1c-0.8-1.2-1.5-2.4-2.1-3.6
		l-0.8-2c-0.3-0.7-0.5-1.3-0.6-2.1c-0.1-0.7-0.3-1.4-0.4-2.1c-0.1-0.7-0.1-1.4-0.1-2.2l0-1.1c0-0.4,0.1-0.7,0.1-1.1
		c0.1-0.7,0.1-1.5,0.3-2.2c0.6-2.9,1.9-5.6,3.8-7.9C794.1,371.9,796.4,370.1,799.1,369.1z"/>
</g>
<g>
	<path class="st4" d="M661.4,580.1c1.6,0.7,2.9,1.9,3.9,3.3c1,1.5,1.6,3.2,1.6,5.1c0,1.8-0.5,3.8-1.6,5.2c-0.2,0.4-0.5,0.7-0.8,1
		c-0.3,0.3-0.6,0.6-0.9,0.9c-0.7,0.5-1.4,1-2.2,1.3c0.3-0.8,0.7-1.5,1-2.2c0.3-0.8,0.7-1.4,0.8-2.1c0.5-1.4,0.7-2.7,0.7-4
		c0-1.3-0.3-2.7-0.8-4.1C662.8,583.1,662.1,581.7,661.4,580.1z"/>
</g>
<g>
	<polygon class="st4" points="283.3,377.5 285.5,384.6 279,388.7 286.7,389.3 288.9,396.4 291.6,389.6 	"/>
	<polygon class="st4" points="283.3,377.5 289.2,382.3 295.7,378.2 293.2,385.2 299.1,390 291.6,389.6 	"/>
</g>
<g>
	<polygon class="st4" points="346.9,274.9 349.1,282.1 342.6,286.2 350.2,286.7 352.5,293.8 355.1,287 	"/>
	<polygon class="st4" points="346.8,275 352.7,279.8 359.2,275.7 356.7,282.6 362.6,287.4 355.1,287 	"/>
</g>
<g>
	<polygon class="st4" points="437.5,182.7 439.7,189.9 433.2,194 440.9,194.5 443.1,201.6 445.8,194.9 	"/>
	<polygon class="st4" points="437.5,182.8 443.4,187.6 449.9,183.5 447.4,190.4 453.3,195.2 445.7,194.9 	"/>
</g>
<g>
	<polygon class="st4" points="547.8,127.6 550,134.8 543.5,138.9 551.2,139.4 553.4,146.5 556.1,139.7 	"/>
	<polygon class="st4" points="547.8,127.7 553.7,132.5 560.2,128.4 557.7,135.3 563.6,140.1 556,139.7 	"/>
</g>
</svg>
