<?xml version="1.0" encoding="utf-8"?>
<!-- Generator: Adobe Illustrator 22.1.0, SVG Export Plug-In . SVG Version: 6.00 Build 0)  -->
<svg version="1.1" id="Layer_1" xmlns="http://www.w3.org/2000/svg" xmlns:xlink="http://www.w3.org/1999/xlink" x="0px" y="0px"
	 viewBox="0 0 1280 1024" style="enable-background:new 0 0 1280 1024;" xml:space="preserve">
<style type="text/css">
	.st0{fill:none;stroke:#00AAA9;stroke-width:25;stroke-miterlimit:10;}
	.st1{fill:#00AAA9;}
	.st2{fill:none;stroke:#7DFFFB;stroke-width:3;stroke-miterlimit:10;}
	.st3{fill:#7DFFFB;}
	.st4{fill:#7DFFFB;stroke:#7DFFFB;stroke-width:3;stroke-miterlimit:10;}
</style>
<rect x="152.6" y="227.9" class="st0" width="989.4" height="493.9"/>
<polygon class="st1" points="139.9,215.1 161.5,199.5 161.5,221 "/>
<rect x="161.5" y="199.5" class="st1" width="552.9" height="26.4"/>
<polygon class="st1" points="733.7,215.1 714.2,199.5 714.2,221 "/>
<g>
	<polygon class="st1" points="1078.7,215.1 1098.3,199.5 1098.3,221 	"/>
	<polygon class="st1" points="1154.1,215.1 1134.5,199.5 1134.5,221 	"/>
	<rect x="1098.3" y="199.5" class="st1" width="36.2" height="21.5"/>
</g>
<polyline class="st1" points="140.9,215.1 114,235.7 114,320 140.9,344 "/>
<polyline class="st1" points="140.9,557 114,585.2 114,701.1 140.9,734.1 "/>
<polyline class="st1" points="957.1,734.1 988.4,761 1117.1,761 1153.7,734.1 "/>
<polyline class="st2" points="140.9,306.6 139.9,245.1 161.5,225.9 685.1,221 "/>
<rect x="136.8" y="306.6" class="st3" width="8.8" height="8.8"/>
<rect x="684.1" y="216.7" class="st3" width="8.8" height="8.8"/>
<line class="st4" x1="140.9" y1="587" x2="140.9" y2="700.3"/>
<line class="st4" x1="1121" y1="734.1" x2="993" y2="734.1"/>
<rect x="988.6" y="728.7" class="st3" width="8.8" height="8.8"/>
<rect x="1121" y="728.7" class="st3" width="8.8" height="8.8"/>
<rect x="136.8" y="582.6" class="st3" width="8.8" height="8.8"/>
<rect x="135.8" y="700.3" class="st3" width="8.8" height="8.8"/>
<rect x="1112.1" y="212.3" class="st3" width="8.8" height="8.8"/>
</svg>
