<?xml version="1.0" encoding="utf-8"?>
<!-- Generator: Adobe Illustrator 22.1.0, SVG Export Plug-In . SVG Version: 6.00 Build 0)  -->
<svg version="1.1" id="Layer_1" xmlns="http://www.w3.org/2000/svg" xmlns:xlink="http://www.w3.org/1999/xlink" x="0px" y="0px"
	 viewBox="0 0 1044 504" style="enable-background:new 0 0 1044 504;" xml:space="preserve">
<style type="text/css">
	.st0{fill:none;stroke:#00AAA9;stroke-width:25;stroke-miterlimit:10;}
	.st1{fill:#00AAA9;}
	.st2{fill:none;stroke:#7DFFFB;stroke-width:3;stroke-miterlimit:10;}
	.st3{fill:#7DFFFB;}
	.st4{fill:#7DFFFB;stroke:#7DFFFB;stroke-width:3;stroke-miterlimit:10;}
</style>
<rect x="71.2" y="29.7" class="st0" width="926.4" height="437.1"/>
<rect x="79.5" y="4.5" class="st1" width="517.7" height="23.4"/>
<polygon class="st1" points="615.3,18.4 597,4.5 597,23.6 "/>
<g>
	<polygon class="st1" points="939.4,17.4 957.7,3.5 957.7,22.6 	"/>
	<polygon class="st1" points="1009.9,17.4 991.6,3.5 991.6,22.6 	"/>
	<rect x="957.7" y="3.5" class="st1" width="33.9" height="19.1"/>
</g>
<polygon class="st1" points="53.3,18.4 79.5,4.5 79.5,23.6 "/>
<polyline class="st1" points="55.2,17.5 22.5,35.7 22.5,110.3 55.2,131.5 60,134.4 60,18.7 "/>
<polyline class="st1" points="59.2,322.9 34.1,347.9 34.1,450.5 59.2,479.7 "/>
<polyline class="st1" points="825.4,479.4 854.8,503.2 975.3,503.2 1009.6,479.4 "/>
<polyline class="st2" points="60.2,99.3 59.3,44.9 79.5,27.9 569.8,23.6 "/>
<rect x="56.4" y="99.3" class="st3" width="8.2" height="7.7"/>
<rect x="568.8" y="19.7" class="st3" width="8.2" height="7.7"/>
<line class="st4" x1="977.9" y1="477.7" x2="858.1" y2="477.7"/>
<rect x="854" y="472.9" class="st3" width="8.2" height="7.7"/>
<rect x="977.9" y="472.9" class="st3" width="8.2" height="7.7"/>
<line class="st4" x1="60.5" y1="351.4" x2="60.5" y2="451.7"/>
<rect x="56.6" y="347.5" class="st3" width="8.2" height="7.7"/>
<rect x="56.7" y="451.7" class="st3" width="8.2" height="7.7"/>
<rect x="969.6" y="15.8" class="st3" width="8.2" height="7.7"/>
</svg>
