<?xml version="1.0" encoding="utf-8"?>
<!-- Generator: Adobe Illustrator 22.1.0, SVG Export Plug-In . SVG Version: 6.00 Build 0)  -->
<svg version="1.1" id="Layer_1" xmlns="http://www.w3.org/2000/svg" xmlns:xlink="http://www.w3.org/1999/xlink" x="0px" y="0px"
	 viewBox="0 0 600 1000" style="enable-background:new 0 0 600 1000;" xml:space="preserve">
<style type="text/css">
	.st0{fill:url(#SVGID_1_);}
	.st1{fill:#FFFFFF;}
	.st2{fill:url(#SVGID_2_);}
	.st3{fill:url(#SVGID_3_);}
	.st4{fill:url(#SVGID_4_);}
	.st5{fill:url(#SVGID_5_);}
	.st6{fill:none;stroke:#FFFFFF;stroke-miterlimit:10;}
	.st7{fill:none;stroke:#FFFFFF;stroke-width:7;stroke-miterlimit:10;}
	.st8{fill:url(#SVGID_6_);}
	.st9{fill:#002C3C;}
	.st10{fill:none;stroke:#FFFFFF;stroke-width:5;stroke-miterlimit:10;}
	.st11{fill:none;stroke:#002C3C;stroke-width:9;stroke-miterlimit:10;}
	.st12{fill:none;stroke:#002C3C;stroke-width:4;stroke-miterlimit:10;}
	.st13{fill:none;stroke:#002C3C;stroke-miterlimit:10;}
</style>
<g>
	<g>
		<g>
			<linearGradient id="SVGID_1_" gradientUnits="userSpaceOnUse" x1="11.6715" y1="690.0273" x2="244.0687" y2="723.2269">
				<stop  offset="0" style="stop-color:#1134A5"/>
				<stop  offset="0.4917" style="stop-color:#081959"/>
				<stop  offset="0.7353" style="stop-color:#040E38"/>
			</linearGradient>
			<path class="st0" d="M222.4,515.3c0,0-220.7,173.7-215.1,379c0,0,153.7-174.8,215.1-113.6V515.3z"/>
			<g>
				<path class="st1" d="M151.7,601c-6.9,10-13.7,20-20.3,30.1c-7.5,9.4-14.7,19.1-21.7,28.9c-7,9.8-13.7,19.8-20.2,29.9
					c-3.3,5.1-6.4,10.2-9.5,15.3c-3.1,5.2-6.1,10.3-9.1,15.6c-3,5.2-5.8,10.5-8.6,15.8l-4.1,8c-1.4,2.7-2.6,5.4-3.9,8.1
					c-5.1,10.9-9.9,21.9-13.9,33.1l-1.5,4.2l-1.4,4.3l-1.4,4.3l-0.7,2.1l-0.6,2.2l-2.5,8.6c-0.4,1.4-0.7,2.9-1,4.4
					c-0.3,1.5-0.6,2.9-1.1,4.3c-3.6,11.4-6.5,23.1-8.6,35.1c-0.7-12.2,0.1-24.5,1.7-36.6c0.2-1.5,0.7-3,1.1-4.5
					c0.4-1.5,0.7-3,1.1-4.5l2.5-8.8l0.6-2.2l0.7-2.2l1.4-4.4l1.4-4.4l1.6-4.3c4.1-11.5,9-22.7,14.2-33.7c1.3-2.7,2.6-5.5,4-8.2
					l4.1-8.2c2.9-5.4,5.7-10.8,8.7-16.1c2.9-5.3,6.1-10.5,9.2-15.8c3.2-5.2,6.3-10.4,9.6-15.5C90.2,676,97,665.9,104,656
					c7-9.9,14.3-19.6,21.8-29.2C134.2,617.9,142.6,609.1,151.7,601z"/>
			</g>
		</g>
		<g>
			<linearGradient id="SVGID_2_" gradientUnits="userSpaceOnUse" x1="367.967" y1="704.772" x2="531.0551" y2="704.772">
				<stop  offset="0" style="stop-color:#1134A5"/>
				<stop  offset="0.4917" style="stop-color:#081959"/>
				<stop  offset="0.7353" style="stop-color:#040E38"/>
			</linearGradient>
			<path class="st2" d="M377.6,515.3c0,0,220.7,173.7,215.1,379c0,0-153.7-174.8-215.1-113.6V515.3z"/>
			<g>
				<path class="st1" d="M444.8,601c9.1,8.1,17.6,16.9,25.9,25.8c7.4,9.6,14.8,19.3,21.8,29.2c7,9.9,13.9,20,20.4,30.2
					c3.3,5.1,6.5,10.3,9.6,15.5c3.1,5.2,6.2,10.5,9.2,15.8c3,5.3,5.8,10.7,8.7,16.1l4.1,8.2c1.4,2.7,2.6,5.5,4,8.2
					c5.2,11,10,22.2,14.2,33.7l1.6,4.3l1.4,4.4l1.4,4.4l0.7,2.2l0.6,2.2l2.5,8.8c0.4,1.5,0.7,3,1.1,4.5c0.4,1.5,0.8,3,1.1,4.5
					c1.7,12.2,2.5,24.5,1.7,36.6c-2.1-12-4.9-23.7-8.6-35.1c-0.5-1.4-0.8-2.9-1.1-4.3c-0.3-1.5-0.7-2.9-1-4.4l-2.5-8.6l-0.6-2.2
					l-0.7-2.1l-1.4-4.3l-1.4-4.3L556,786c-4-11.3-8.8-22.3-13.9-33.1c-1.3-2.7-2.5-5.4-3.9-8.1l-4.1-8c-2.8-5.3-5.6-10.6-8.6-15.8
					c-2.9-5.3-6-10.4-9.1-15.6c-3.1-5.1-6.3-10.3-9.5-15.3c-6.5-10.1-13.2-20.1-20.2-29.9c-7-9.8-14.2-19.5-21.7-28.9
					C458.5,621,451.7,611,444.8,601z"/>
			</g>
		</g>
	</g>
	<linearGradient id="SVGID_3_" gradientUnits="userSpaceOnUse" x1="56.7399" y1="656.5916" x2="642.4718" y2="477.2396">
		<stop  offset="0" style="stop-color:#FFFFFF"/>
		<stop  offset="8.795271e-02" style="stop-color:#F8F8F8"/>
		<stop  offset="0.2165" style="stop-color:#E4E4E4"/>
		<stop  offset="0.3699" style="stop-color:#C4C4C4"/>
		<stop  offset="0.5425" style="stop-color:#989898"/>
		<stop  offset="0.7312" style="stop-color:#5E5E5E"/>
		<stop  offset="0.9304" style="stop-color:#1A1A1A"/>
		<stop  offset="1" style="stop-color:#000000"/>
	</linearGradient>
	<path class="st3" d="M378.4,971c148-421.6,0-775.5,0-775.5H214.2c0,0-148,354,0,775.5H378.4z"/>
	<linearGradient id="SVGID_4_" gradientUnits="userSpaceOnUse" x1="417.7721" y1="100.3197" x2="180.3583" y2="105.9191">
		<stop  offset="8.501256e-02" style="stop-color:#A2000D"/>
		<stop  offset="0.2312" style="stop-color:#A9000C"/>
		<stop  offset="0.4445" style="stop-color:#BD0009"/>
		<stop  offset="0.6977" style="stop-color:#DC0005"/>
		<stop  offset="0.9253" style="stop-color:#FF0000"/>
	</linearGradient>
	<path class="st4" d="M378.4,195.5c0,0-36-140.5-82.1-186.5h-1c-46.1,45.9-82.1,186.5-82.1,186.5H378.4z"/>
	<g>
		<path class="st1" d="M219,223.3c-8.9,30-15.7,60.5-21.6,91c-7.2,30.2-13,60.8-17.7,91.6c-4.7,30.8-8.1,61.7-10.4,92.8
			c-2.4,31-3.3,62.2-3.3,93.3l0,11.7l0,5.8l0.2,5.8l0.7,23.3c0,1.9,0.2,3.9,0.3,5.8l0.3,5.8l0.7,11.7l0.7,11.7l1,11.6
			c0.7,7.8,1.2,15.5,2,23.3l2.6,23.2l0.6,5.8c0.2,1.9,0.4,3.9,0.7,5.8l1.6,11.6l1.6,11.6l0.8,5.8c0.3,1.9,0.5,3.9,0.9,5.8l3.9,23
			c0.7,3.8,1.3,7.7,2,11.5l2.3,11.4l4.6,22.9c0.8,3.8,1.7,7.6,2.7,11.4c0.9,3.8,1.9,7.5,2.6,11.4c2.6,15.4,6.2,30.5,9.4,45.8
			c1.5,7.7,3.5,15.2,5.3,22.8L219,961l-8.1-22c-2.6-7.4-5.5-14.7-7.8-22.2c-2.5-7.4-4.8-14.9-7.2-22.4c-2.5-7.4-4.5-15-6.7-22.6
			c-1.1-3.8-1.9-7.6-2.7-11.5l-2.6-11.5l-4.7-23.1l-2.3-11.5c-0.7-3.9-1.3-7.7-2-11.6l-4-23.2c-0.4-1.9-0.6-3.9-0.9-5.8l-0.8-5.8
			l-1.6-11.7l-1.6-11.7c-0.3-1.9-0.5-3.9-0.7-5.8l-0.7-5.8l-2.6-23.4c-0.7-7.8-1.3-15.6-2-23.4l-1-11.7l-0.7-11.7l-0.7-11.7
			l-0.3-5.9c-0.1-2-0.2-3.9-0.3-5.9l-0.7-23.5l-0.2-5.9l0-5.9l-0.1-11.8c-0.1-31.4,0.9-62.8,3.3-94c2.3-31.3,5.8-62.5,10.5-93.5
			c4.7-31,10.7-61.9,17.8-92.4C196.5,281.8,206.1,251.9,219,223.3z"/>
	</g>
	<g>
		<linearGradient id="SVGID_5_" gradientUnits="userSpaceOnUse" x1="238.1505" y1="722.9706" x2="336.3738" y2="732.0654">
			<stop  offset="0" style="stop-color:#1134A5"/>
			<stop  offset="0.4917" style="stop-color:#081959"/>
			<stop  offset="0.7353" style="stop-color:#040E38"/>
		</linearGradient>
		<path class="st5" d="M296.3,536.3c0,0,47.3,331.9,0,383.9h-2.7c-47.3-52,0-383.9,0-383.9H296.3z"/>
		<g>
			<path class="st1" d="M295,572.9c1.5,13.5,2.5,27,3.5,40.5l0,40.5v81v81v40.5c-1.1,13.5-2.1,27-3.5,40.5
				c-1.4-13.5-2.4-27-3.5-40.5v-40.5v-81v-81l0-40.5C292.5,599.9,293.5,586.4,295,572.9z"/>
		</g>
	</g>
	<g>
		<path class="st1" d="M295.7,25.6l-2.5,6.8l-2.5,6.7c-0.2,0.6-0.6,1-0.9,1.5c-0.3,0.5-0.6,1-0.9,1.5c-0.6,1-1.2,2-1.8,3
			c-1.2,2-2.4,4-3.5,6c-4.5,8.1-8.7,16.4-12.5,25c-3.7,8.5-7.3,17.2-10.2,26c-1.6,4.4-2.9,8.8-4.3,13.3c-2.3,4.2-4.5,8.4-7.1,12.6
			c-0.1-2.4,0-4.9,0-7.3c0.1-2.4,0.1-4.9,0.4-7.3c1.4-4.5,2.7-9.1,4.4-13.6c3-9,6.6-17.8,10.5-26.6c3.8-8.7,8.1-17.2,12.8-25.5
			c2.3-4.2,4.8-8.2,7.2-12.3c1.7-1.8,3.4-3.5,5.3-5.1C291.9,28.7,293.7,27.1,295.7,25.6z"/>
	</g>
	<path class="st6" d="M244.4,145.5"/>
	<line class="st7" x1="246.2" y1="137.4" x2="242.7" y2="152.2"/>
	<line class="st7" x1="238.3" y1="164.5" x2="234.8" y2="179.3"/>
	<linearGradient id="SVGID_6_" gradientUnits="userSpaceOnUse" x1="187.6932" y1="239.5611" x2="446.7291" y2="160.2439">
		<stop  offset="0" style="stop-color:#FFFFFF"/>
		<stop  offset="8.795271e-02" style="stop-color:#F8F8F8"/>
		<stop  offset="0.2165" style="stop-color:#E4E4E4"/>
		<stop  offset="0.3699" style="stop-color:#C4C4C4"/>
		<stop  offset="0.5425" style="stop-color:#989898"/>
		<stop  offset="0.7312" style="stop-color:#5E5E5E"/>
		<stop  offset="0.9304" style="stop-color:#1A1A1A"/>
		<stop  offset="1" style="stop-color:#000000"/>
	</linearGradient>
	<polygon class="st8" points="213.2,195.5 206.9,215.2 385.8,215.2 378.4,195.5 	"/>
	<g>
		<g>
			<path class="st9" d="M356.1,882l-28.6,20.2c0,0,4,46.1,28.6,46.1V882z"/>
			<path class="st9" d="M356,882l28.8,20.2c0,0-4,46.1-28.9,46.1L356,882z"/>
		</g>
		<g>
			<g>
				<path class="st1" d="M343.6,924.6c0-0.1-0.1-0.1-0.2-0.1c0-0.1,0-0.1,0-0.1c0.5-0.1,0.7-0.1,1.2-0.1c0,0.1,0,0.1,0,0.1
					c0,0-0.1,0-0.1,0c0,0,0,0.1,0,0.1c0.1,1.1,0.3,2.2,0.4,3.2c0,0,0,0.1,0.1,0.1c0,0,0.1,0,0.1,0c0,0.1,0,0.1,0,0.1
					c-0.5,0.1-0.7,0.1-1.1,0.1c0-0.1,0-0.1,0-0.1c0.1,0,0.2-0.1,0.1-0.1c-0.1-0.5-0.1-0.8-0.2-1.3c-0.8,0.1-1.6,0.2-2.4,0.3
					c0.1,0.5,0.1,0.8,0.2,1.3c0,0,0,0.1,0.1,0.1c0,0,0.1,0,0.1,0c0,0.1,0,0.1,0,0.1c-0.4,0.1-0.7,0.1-1.1,0.2c0-0.1,0-0.1,0-0.1
					c0.1,0,0.1-0.1,0.1-0.1c-0.2-1.1-0.3-2.1-0.5-3.2c0-0.1-0.1-0.1-0.2-0.1c0-0.1,0-0.1,0-0.1c0.5-0.1,0.7-0.1,1.1-0.2
					c0,0.1,0,0.1,0,0.1c0,0-0.1,0-0.1,0c0,0,0,0.1,0,0.1c0.1,0.5,0.1,0.7,0.2,1.2c0.8-0.1,1.6-0.2,2.4-0.3
					C343.7,925.3,343.7,925.1,343.6,924.6z"/>
				<path class="st1" d="M348.1,927.5c0.1,0,0.1-0.1,0.1-0.1c0-0.1,0.1-0.1,0.1-0.2c0.4-1,0.8-1.9,1.2-2.9c0-0.1,0.1-0.1,0.1-0.2
					c0-0.1,0-0.1,0-0.1c0,0,0-0.1-0.1-0.1c0,0-0.1,0-0.1,0c0-0.1,0-0.1,0-0.1c0.5,0,0.8-0.1,1.3-0.1c0,0.1,0,0.1,0,0.1
					c0,0-0.1,0-0.1,0s0,0.1,0,0.1c0,0,0,0.1,0,0.1c0,0,0,0.1,0.1,0.1c0.6,0.9,1.2,1.9,1.7,2.8c0,0.1,0.1,0.1,0.1,0.1
					c0,0,0.1,0,0.1,0.1c0,0.1,0,0.1,0,0.1c-0.5,0-0.8,0-1.3,0.1c0-0.1,0-0.1,0-0.1c0,0,0,0,0.1,0c0,0,0,0,0-0.1c0,0,0-0.1-0.1-0.2
					c-0.1-0.2-0.2-0.3-0.3-0.5c-0.7,0-1.1,0.1-1.8,0.1c-0.1,0.2-0.1,0.3-0.2,0.5c0,0.1-0.1,0.2-0.1,0.2c0,0.1,0.1,0.1,0.1,0.1
					c0,0.1,0,0.1,0,0.1c-0.4,0-0.6,0.1-1,0.1C348.1,927.6,348.1,927.6,348.1,927.5z M350.8,926c-0.3-0.5-0.4-0.8-0.7-1.3
					c-0.3,0.6-0.4,0.8-0.6,1.4C350,926,350.3,926,350.8,926z"/>
				<path class="st1" d="M359.9,926.7C359.9,926.7,359.9,926.7,359.9,926.7C359.9,926.7,359.9,926.7,359.9,926.7
					c-0.1,0-0.2,0-0.3,0.1c-0.1,0.1-0.3,0.1-0.4,0.2c-0.2,0.1-0.4,0.1-0.6,0.2c-0.2,0-0.4,0.1-0.7,0.1c-0.3,0-0.6,0-0.9-0.1
					c-0.3-0.1-0.5-0.2-0.8-0.4c-0.2-0.2-0.4-0.4-0.5-0.6c-0.1-0.2-0.2-0.5-0.2-0.8c0-0.3,0.1-0.6,0.2-0.8c0.1-0.2,0.3-0.5,0.5-0.6
					c0.2-0.2,0.5-0.3,0.8-0.4c0.3-0.1,0.6-0.1,0.9-0.1c0.3,0,0.5,0,0.7,0.1c0.2,0,0.4,0.1,0.6,0.1c0.2,0,0.3,0.1,0.4,0.1
					c0.1,0,0.1,0.1,0.2,0.1c0,0,0,0,0.1,0c0,0,0,0,0-0.1c0,0,0.1,0.1,0.1,0.1c-0.2,0.3-0.4,0.5-0.6,0.9c0,0,0,0-0.1-0.1c0,0,0,0,0,0
					s0,0,0,0c0-0.1-0.1-0.1-0.1-0.2c-0.1-0.1-0.2-0.1-0.3-0.2c-0.1,0-0.3-0.1-0.4-0.1c-0.1,0-0.3,0-0.4,0c-0.2,0-0.4,0-0.6,0.1
					c-0.2,0.1-0.4,0.1-0.5,0.3c-0.1,0.1-0.3,0.2-0.3,0.4c-0.1,0.2-0.1,0.3-0.1,0.6c0,0.2,0,0.4,0.1,0.5c0.1,0.2,0.2,0.3,0.3,0.4
					c0.1,0.1,0.3,0.2,0.5,0.2c0.2,0.1,0.4,0.1,0.6,0.1c0.2,0,0.3,0,0.5-0.1c0.2,0,0.3-0.1,0.5-0.1c0.1-0.1,0.3-0.1,0.4-0.2
					c0.1-0.1,0.1-0.1,0.1-0.2c0,0,0-0.1,0-0.1c0,0,0.1,0,0.1-0.1C359.7,926.2,359.8,926.4,359.9,926.7
					C360,926.7,360,926.7,359.9,926.7z"/>
				<path class="st1" d="M364.4,927.2c0,0,0,0.1,0,0.1c0,0,0.1,0,0.1,0c0,0.1,0,0.1,0,0.1c-0.5,0-0.7,0-1.2-0.1c0-0.1,0-0.1,0-0.1
					c0.1,0,0.2,0,0.2-0.1c0.1-1.1,0.1-2.2,0.2-3.3c0-0.1,0-0.1-0.2-0.1c0-0.1,0-0.1,0-0.1c0.5,0,0.7,0,1.2,0.1c0,0.1,0,0.1,0,0.1
					c0,0-0.1,0-0.1,0c0,0,0,0.1-0.1,0.1c0,0.5,0,0.8-0.1,1.4c0.7-0.4,1-0.6,1.6-1.1c0.1-0.1,0.1-0.1,0.2-0.1s0.1-0.1,0.1-0.1
					c0,0,0-0.1,0-0.1c0,0,0,0-0.1,0c0-0.1,0-0.1,0-0.1c0.6,0.1,1,0.1,1.6,0.1c0,0.1,0,0.1,0,0.1c-0.1,0-0.2,0-0.3,0.1
					c-0.7,0.5-1.1,0.7-1.9,1.2c0.5,0.6,1,1.2,1.4,1.9c0.1,0.1,0.1,0.2,0.2,0.2c0.1,0.1,0.2,0.1,0.2,0.2c0,0.1,0,0.1,0,0.1
					c-0.5-0.1-0.8-0.1-1.4-0.1c0-0.1,0-0.1,0-0.1c0.1,0,0.1,0,0.1,0c0,0,0-0.1-0.1-0.2c-0.5-0.6-0.7-0.9-1.2-1.5
					c-0.3,0.2-0.4,0.3-0.7,0.4C364.4,926.6,364.4,926.8,364.4,927.2z"/>
				<path class="st1" d="M371,926.9C371.1,926.9,371.1,926.9,371,926.9c0.1,0.1,0.1,0.1,0.1,0.2c0,0.1,0.1,0.1,0.2,0.2
					s0.2,0.1,0.3,0.2c0.1,0.1,0.3,0.1,0.4,0.2c0.1,0,0.3,0.1,0.4,0.1c0.1,0,0.2,0,0.3,0c0.1,0,0.3,0,0.4,0c0.1,0,0.3-0.1,0.4-0.1
					s0.2-0.1,0.2-0.2s0-0.2-0.1-0.3c-0.1-0.1-0.2-0.1-0.3-0.2c-0.1,0-0.3-0.1-0.5-0.1c-0.2,0-0.4-0.1-0.6-0.1
					c-0.2,0-0.4-0.1-0.5-0.1c-0.2-0.1-0.3-0.1-0.5-0.2c-0.1-0.1-0.2-0.2-0.3-0.4c-0.1-0.1-0.1-0.3-0.1-0.5c0-0.1,0.1-0.3,0.2-0.4
					s0.2-0.2,0.4-0.3c0.2-0.1,0.4-0.2,0.6-0.2s0.5,0,0.8,0c0.3,0,0.5,0.1,0.7,0.2c0.2,0.1,0.4,0.1,0.5,0.2c0.1,0.1,0.3,0.1,0.3,0.2
					c0.1,0.1,0.2,0.1,0.2,0.1c0.1,0,0.1,0,0.2,0c0,0,0,0,0.1,0.1c-0.3,0.3-0.4,0.5-0.7,0.8c0,0,0,0-0.1,0c0-0.1,0-0.1,0-0.2
					c0-0.1-0.1-0.1-0.2-0.2c-0.1-0.1-0.2-0.1-0.3-0.2c-0.1-0.1-0.3-0.1-0.4-0.2c-0.1,0-0.3-0.1-0.4-0.1c-0.1,0-0.2,0-0.3,0
					c-0.1,0-0.2,0-0.3,0c-0.1,0-0.2,0.1-0.3,0.1c-0.1,0-0.1,0.1-0.1,0.2c0,0.1,0,0.2,0.1,0.3c0.1,0.1,0.2,0.1,0.3,0.2
					c0.1,0,0.3,0.1,0.5,0.1c0.2,0,0.4,0.1,0.6,0.1c0.2,0,0.4,0.1,0.6,0.2c0.2,0.1,0.3,0.1,0.5,0.2c0.1,0.1,0.2,0.2,0.3,0.4
					c0.1,0.1,0.1,0.3,0,0.5c0,0.2-0.1,0.4-0.3,0.6c-0.2,0.1-0.3,0.2-0.6,0.3c-0.2,0.1-0.4,0.1-0.7,0.1c-0.2,0-0.5,0-0.7,0
					c-0.3,0-0.5-0.1-0.7-0.1c-0.2-0.1-0.3-0.1-0.5-0.2c-0.1-0.1-0.2-0.1-0.3-0.2c-0.1,0-0.1-0.1-0.2-0.1c0,0-0.1,0-0.1,0
					c0,0-0.1,0-0.1-0.1C370.7,927.4,370.8,927.2,371,926.9z"/>
			</g>
		</g>
		<g>
			<g>
				<path class="st1" d="M347.3,935.9c-0.2-0.6-0.3-0.8-0.5-1.4c0.7-0.2,1.4-0.4,2.1-0.6c0.1,0.6,0.2,0.9,0.3,1.5
					c0,0.8,0.1,1.5,0.1,2.3c-0.4,0.1-0.6,0.2-1,0.3C348,937.3,347.7,936.6,347.3,935.9z"/>
				<path class="st1" d="M352.1,939.7c0.6-0.1,1-0.2,1.6-0.2c-0.1-1.4-0.3-2.7-0.4-4.1c-0.7,0.1-1,0.1-1.6,0.2
					c-0.1-0.4-0.1-0.6-0.1-1c0.7-0.3,1.5-0.5,2.2-0.9c0.6,0,0.9-0.1,1.6-0.1c0,1.9,0.1,3.9,0.1,5.8c0.6,0,0.8,0,1.4,0
					c0,0.5,0,0.8,0,1.3c-1.5,0-3,0.1-4.5,0.3C352.2,940.5,352.2,940.3,352.1,939.7z"/>
				<path class="st1" d="M358,939c0-0.8,0.8-1.4,1.5-1.6c0,0,0,0,0,0c-0.6-0.5-1-1.1-0.9-1.8c0.2-1.5,1.9-1.7,3.1-1.5
					c1.2,0.2,2.6,1.2,2.2,2.6c-0.2,0.6-0.9,1-1.5,1.2c0,0,0,0,0,0c0.7,0.5,1.1,1.3,0.8,2.2c-0.4,1.2-1.9,1.5-3,1.2
					C359.1,941.1,357.9,940.3,358,939z M361.7,939.6c0.2-0.7-0.8-1.3-1.4-1.6c-0.4,0.2-0.7,0.6-0.8,1c-0.1,0.6,0.4,1.1,1,1.2
					C361,940.3,361.5,940.1,361.7,939.6z M362.3,936.4c0.1-0.5-0.2-1-0.9-1.1c-0.5-0.1-1,0.1-1.1,0.6c-0.1,0.6,0.5,0.9,1.2,1.4
					C361.9,937,362.2,936.7,362.3,936.4z"/>
			</g>
		</g>
		<g>
			<g>
				<path class="st1" d="M341.1,915.4c0.1,0.5,0.2,0.7,0.3,1.2c0.2,1.1,1,2.1,2.3,1.8c1.3-0.3,1.4-1.7,1.2-2.7c-0.4-2.2-2-3-4-3.7
					c-2.4-0.8-4.8-1.7-5.6-4.3c-1.1-3.6,1.3-6,4.6-6.8c3-0.7,6.2,0,6.7,3.6c0.1,0.4,0.1,0.6,0.1,1.1c-1.3,0.2-2.7,0.4-4,0.7
					c-0.1-0.4-0.1-0.6-0.2-1c-0.2-1.2-0.9-2.1-2.1-1.8c-1.2,0.3-1.5,1.5-1.2,2.6c0.4,1.6,1.8,2.2,3.3,2.7c3.2,1.1,5.4,2.4,5.8,5.9
					c0.4,3.1-1,5.6-4.2,6.4c-3,0.7-5.3-0.5-6.2-3.4c-0.1-0.5-0.2-0.7-0.4-1.1C338.8,916.1,339.9,915.7,341.1,915.4z"/>
				<path class="st1" d="M349.1,899.7c2-0.2,3.9-0.3,5.8-0.3c3.2,0,6.8,0.9,6.5,4.8c0,0.3,0,0.4-0.1,0.7c-0.2,1.7-0.8,3.4-2.6,3.9
					c1.8,0.6,2.7,2.3,2.4,4.2c-0.1,0.6-0.1,0.9-0.1,1.5c-0.3,3.3-2.3,4.9-5.6,4.9c-1.5,0-3,0.1-4.6,0.2
					C350.3,913,349.7,906.3,349.1,899.7z M354.6,907.5c1.8,0,2.9-0.6,2.9-2.5c0-0.3,0-0.5,0-0.8c0.1-1.7-1.2-2.4-2.8-2.3
					c-0.5,0-0.8,0-1.3,0c0.1,1.9,0.1,3.7,0.2,5.6C354,907.6,354.2,907.5,354.6,907.5z M354,916.9c0.4,0,0.7,0,1.1,0
					c1.8,0,2.5-1,2.5-2.7c0-0.5,0-0.8,0-1.3c0.1-2-1-2.8-2.9-2.8c-0.4,0-0.6,0-1,0C353.8,912.3,353.9,914.6,354,916.9z"/>
				<path class="st1" d="M369.5,900.7c-0.9,5-1.8,10-2.8,14.9c-0.3,1.1,0.1,2.4,1.4,2.6c1.3,0.3,2-0.6,2.3-1.8
					c1.2-4.9,2.5-9.8,3.7-14.7c1.4,0.4,2.9,0.8,4.3,1.3c-1.5,4.8-3,9.6-4.6,14.4c-0.9,3-3.4,4.2-6.4,3.5c-3.1-0.7-4.6-2.9-4.2-6
					c0.6-5,1.3-10,1.9-15C366.6,900.2,368.1,900.4,369.5,900.7z"/>
			</g>
		</g>
		<path class="st10" d="M324.8,903.1c0,0,4.5,48.4,30.6,47.1"/>
		<polyline class="st10" points="355.3,949.2 356.8,950.3 355.3,951.3 		"/>
		<path class="st10" d="M383.8,919.5c0,0,3.4-9.5,3.3-18.6l-31-22.8l-7.6,5.7"/>
		<polyline class="st10" points="349.4,884.6 347.4,885 347.8,883 		"/>
		<path class="st11" d="M339.5,909.1"/>
		<path class="st12" d="M340,909.3"/>
		<path class="st12" d="M342.7,910.7"/>
		<ellipse class="st13" cx="344.7" cy="905" rx="0.3" ry="0.3"/>
		<ellipse class="st13" cx="339.7" cy="916.8" rx="0.3" ry="0.3"/>
		<ellipse class="st13" cx="367" cy="901.8" rx="0.3" ry="0.3"/>
		<ellipse class="st13" cx="376" cy="903.7" rx="0.3" ry="0.3"/>
		<ellipse class="st13" cx="350.1" cy="900.4" rx="0.3" ry="0.3"/>
		<ellipse class="st13" cx="351.5" cy="918.9" rx="0.3" ry="0.3"/>
		<ellipse class="st13" cx="351" cy="909.3" rx="0.3" ry="0.3"/>
		<ellipse class="st13" cx="367.7" cy="920.1" rx="0.3" ry="0.3"/>
	</g>
</g>
</svg>
