<?xml version="1.0" encoding="utf-8"?>
<!-- Generator: Adobe Illustrator 22.1.0, SVG Export Plug-In . SVG Version: 6.00 Build 0)  -->
<svg version="1.1" id="Layer_1" xmlns="http://www.w3.org/2000/svg" xmlns:xlink="http://www.w3.org/1999/xlink" x="0px" y="0px"
	 viewBox="0 0 1280 1024" style="enable-background:new 0 0 1280 1024;" xml:space="preserve">
<style type="text/css">
	.st0{opacity:0.48;clip-path:url(#XMLID_2_);fill:#FFFFFF;}
	.st1{opacity:0.48;clip-path:url(#XMLID_2_);fill:#68C0FC;}
	.st2{fill:#E6E6E8;}
	.st3{fill:#C0C0C4;}
	.st4{fill:#FFFFFF;}
	.st5{fill:#858585;}
	.st6{fill:#C2C2CA;}
	.st7{fill:#A6A6A6;}
	.st8{fill:#A8A8A8;}
	.st9{opacity:0.48;clip-path:url(#XMLID_3_);fill:#FFFFFF;}
	.st10{opacity:0.45;}
	.st11{fill:#002C3C;}
	.st12{opacity:0.38;fill:#C0C0C4;}
	.st13{fill:#A52B1C;}
	.st14{fill:#B4B4B5;}
	.st15{fill:#E2E2E2;}
	.st16{fill:#666666;}
	.st17{opacity:0.48;fill:#FFFFFF;}
	.st18{clip-path:url(#XMLID_4_);fill:#FDFDFF;}
	.st19{opacity:0.5;clip-path:url(#XMLID_5_);fill:#F9F9F9;}
	.st20{fill:none;stroke:#002C3C;stroke-width:3;stroke-miterlimit:10;}
	.st21{fill:none;stroke:#002C3C;stroke-width:2;stroke-miterlimit:10;}
	.st22{fill:none;stroke:#002C3C;stroke-width:9;stroke-miterlimit:10;}
	.st23{fill:none;stroke:#002C3C;stroke-width:4;stroke-miterlimit:10;}
	.st24{fill:none;stroke:#002C3C;stroke-miterlimit:10;}
	.st25{opacity:0.84;}
</style>
<g>
	<defs>
		<path id="XMLID_16_" d="M884.2,863.9c13.8-8.4,18.3-28.9,8.9-41.5l-84.4-114.5c-14.3-19.4-17.1-47.6-7-72.6
			c0.3-0.7,0.6-1.5,0.9-2.2c36.8-89.9,138.7-114.8,192.9-47.2c38.3,47.8,83.1,112.5,105.5,176.4c39.6-72,62.1-154.9,62.1-243.1
			c0-276-220.3-499.7-492.1-499.7S178.8,243.2,178.8,519.1s220.3,499.7,492.1,499.7c20.8,0,41.3-1.3,61.5-3.9
			c0.5-1.2,1.1-2.3,1.6-3.5C767.4,941.8,843.1,888.8,884.2,863.9z"/>
	</defs>
	<use xlink:href="#XMLID_16_"  style="overflow:visible;"/>
	<clipPath id="XMLID_2_">
		<use xlink:href="#XMLID_16_"  style="overflow:visible;"/>
	</clipPath>
	<polygon class="st0" points="1162.7,318.5 268.4,1051.2 161.9,917.2 1056.2,184.4 	"/>
	<polygon class="st1" points="977,-15.1 90.2,711.5 322,1003.2 1208.8,276.5 	"/>
</g>
<path class="st2" d="M552,518.2c0,0-81.9,13.7-119.9,77.6s-93.6,291.9-93.6,291.9s40.7,83.8,286,128.5
	c245.3,44.7,403-189.6,403-189.6l7.7-101.1c0,0-56.4-152.1-110.6-165.6c-34.3-8.5-73.9-48.6-73.9-48.6L552,518.2z"/>
<g>
	<path class="st3" d="M574.6,503.7c0,0-64.6,28-102.6,91.9s-56.8,315.9-56.8,315.9s-30.9,45.9,214.4,90.6s403-189.6,403-189.6
		l46.8-97.4c0,0-75.6-147.8-129.3-179.8c-30.5-18.1-115.3-37.6-115.3-37.6L574.6,503.7z"/>
	<g>
		<path class="st3" d="M1102.6,756.8c-22.4-63.9-67.1-128.6-105.5-176.4c-54.2-67.6-156.1-42.7-192.9,47.2c-0.3,0.7-0.6,1.5-0.9,2.2
			c-10,25-7.3,53.1,7,72.6l84.4,114.5c9.3,12.7,4.9,33.2-8.9,41.5c-41.2,24.9-116.8,77.8-150.2,147.5c-0.6,1.2-1.1,2.4-1.6,3.5
			C892.7,989.4,1028,892.6,1102.6,756.8z"/>
		<g>
			<path class="st3" d="M903.4,600.7c0,0-21.5,11.1-36.2,38l31.4,46.6c0,0,32.1,33.2,74.1,18.2L903.4,600.7z"/>
			<polygon class="st3" points="906.6,599 980.2,694.4 985,686.6 909.4,597.2 			"/>
			<polygon class="st3" points="912.2,595.4 988.7,675.8 990.4,667.4 914.7,593.9 			"/>
			<polygon class="st3" points="918.3,592.6 990.9,655.6 990.4,647.1 920.7,591.1 			"/>
			<path class="st3" d="M924.6,590l62.2,45c0,0-1.4-4.7-4.8-9.4l-54.6-36.8L924.6,590z"/>
			<path class="st3" d="M931.2,587.7l42.8,25.7l-19.9-29.5C954.2,583.9,944.2,583.4,931.2,587.7z"/>
			<g>
				<polygon class="st3" points="904.6,648.3 907.2,657 899.4,662 908.6,662.6 911.3,671.3 914.5,663 				"/>
				<polygon class="st3" points="904.5,648.3 911.7,654.2 919.5,649.1 916.4,657.6 923.6,663.5 914.5,663 				"/>
			</g>
		</g>
	</g>
</g>
<path class="st4" d="M561.9,510c0,0-64.6,28-102.6,91.9s-56.8,315.9-56.8,315.9s-30.9,45.9,214.4,90.6s403-189.6,403-189.6
	l46.8-97.4c0,0-75.6-147.8-129.3-179.8c-30.5-18.1-115.3-37.6-115.3-37.6L561.9,510z"/>
<path class="st3" d="M561.1,468.8c0,0-13,17.8,0,40.3c13,22.5,289.5,0,289.5,0s16.1-27.7,0-40.3H561.1z"/>
<path class="st3" d="M921.2,264.5C900,149.5,799.9,88.7,670.8,103.9c-119,14-184,83.1-172.6,236.2c5.8,77.5,31.8,107.6,65.7,136.5
	c91.1,2.8,182.3,1.2,273.4,1.1C901.1,428,936.2,346.3,921.2,264.5z"/>
<path class="st4" d="M907.9,264.5c-21.1-115-121.3-175.7-250.3-160.5c-119,14-184,83.1-172.6,236.2c5.8,77.5,31.8,107.6,65.7,136.5
	c91.1,2.8,182.3,1.2,273.4,1.1C887.8,428,922.9,346.3,907.9,264.5z"/>
<g>
	<ellipse class="st5" cx="852.8" cy="294.7" rx="36.1" ry="40.9"/>
</g>
<ellipse class="st6" cx="851.7" cy="384.6" rx="27.3" ry="27.7"/>
<ellipse class="st7" cx="863.7" cy="294.7" rx="23.1" ry="22.6"/>
<ellipse class="st8" cx="857.7" cy="383.9" rx="19.3" ry="19.6"/>
<path class="st8" d="M844.1,265.6"/>
<g>
	<defs>
		<path id="XMLID_15_" d="M697.1,442.6h-75c-75.4,0-137-61.7-137-137v0c0-79.2,64.8-144,144-144h71.7c55.2,0,100.4,45.2,100.4,100.4
			v76.6C801,395.8,754.2,442.6,697.1,442.6z"/>
	</defs>
	<use xlink:href="#XMLID_15_"  style="overflow:visible;fill:#C0C0C4;"/>
	<clipPath id="XMLID_3_">
		<use xlink:href="#XMLID_15_"  style="overflow:visible;"/>
	</clipPath>
	<polygon class="st9" points="748.2,127.8 461.9,362.4 426,317.2 712.3,82.6 	"/>
	<polygon class="st9" points="795.2,193.6 508.9,428.2 473,383 759.3,148.4 	"/>
</g>
<g>
	<g class="st10">
		<path class="st11" d="M547,227.8v10.8c0,3.4-1.1,6.3-5.6,6.3c-4.2,0-5.4-2.8-5.4-6.2v-10.6c0-3.9,1.7-6.2,5.6-6.2
			C545.3,221.8,547,224.1,547,227.8z M539.6,227.6v11.4c0,1.7,0.5,2.6,1.9,2.6c1.3,0,1.8-0.9,1.8-2.7v-11.4c0-1.6-0.5-2.5-1.8-2.5
			C540.2,225.1,539.6,225.9,539.6,227.6z"/>
		<path class="st11" d="M550.6,244.6v-18.4c-0.6,0.1-1.8,0.1-2.4,0.1v-2.7c1.5-0.1,2.7-0.8,3.4-1.6h2.7v22.6H550.6z"/>
		<path class="st11" d="M558.8,244.6v-18.4c-0.6,0.1-1.8,0.1-2.4,0.1v-2.7c1.5-0.1,2.7-0.8,3.4-1.6h2.7v22.6H558.8z"/>
		<path class="st11" d="M576.5,227.8v10.8c0,3.4-1.1,6.3-5.6,6.3c-4.2,0-5.4-2.8-5.4-6.2v-10.6c0-3.9,1.7-6.2,5.6-6.2
			C574.8,221.8,576.5,224.1,576.5,227.8z M569.1,227.6v11.4c0,1.7,0.5,2.6,1.9,2.6c1.3,0,1.8-0.9,1.8-2.7v-11.4
			c0-1.6-0.5-2.5-1.8-2.5C569.7,225.1,569.1,225.9,569.1,227.6z"/>
		<path class="st11" d="M580.1,244.6v-18.4c-0.6,0.1-1.8,0.1-2.4,0.1v-2.7c1.5-0.1,2.7-0.8,3.4-1.6h2.7v22.6H580.1z"/>
		<path class="st11" d="M597.8,227.8v10.8c0,3.4-1.1,6.3-5.6,6.3c-4.2,0-5.4-2.8-5.4-6.2v-10.6c0-3.9,1.7-6.2,5.6-6.2
			C596.2,221.8,597.8,224.1,597.8,227.8z M590.5,227.6v11.4c0,1.7,0.5,2.6,1.9,2.6c1.3,0,1.8-0.9,1.8-2.7v-11.4
			c0-1.6-0.5-2.5-1.8-2.5C591.1,225.1,590.5,225.9,590.5,227.6z"/>
		<path class="st11" d="M611.1,227.8v10.8c0,3.4-1.1,6.3-5.6,6.3c-4.2,0-5.4-2.8-5.4-6.2v-10.6c0-3.9,1.7-6.2,5.6-6.2
			C609.4,221.8,611.1,224.1,611.1,227.8z M603.8,227.6v11.4c0,1.7,0.5,2.6,1.9,2.6c1.3,0,1.8-0.9,1.8-2.7v-11.4
			c0-1.6-0.5-2.5-1.8-2.5C604.4,225.1,603.8,225.9,603.8,227.6z"/>
		<path class="st11" d="M624.4,227.8v10.8c0,3.4-1.1,6.3-5.6,6.3c-4.2,0-5.4-2.8-5.4-6.2v-10.6c0-3.9,1.7-6.2,5.6-6.2
			C622.7,221.8,624.4,224.1,624.4,227.8z M617,227.6v11.4c0,1.7,0.5,2.6,1.9,2.6c1.3,0,1.8-0.9,1.8-2.7v-11.4c0-1.6-0.5-2.5-1.8-2.5
			C617.6,225.1,617,225.9,617,227.6z"/>
		<path class="st11" d="M642.4,227.8v10.8c0,3.4-1.1,6.3-5.6,6.3c-4.2,0-5.4-2.8-5.4-6.2v-10.6c0-3.9,1.7-6.2,5.6-6.2
			C640.7,221.8,642.4,224.1,642.4,227.8z M635,227.6v11.4c0,1.7,0.5,2.6,1.9,2.6c1.3,0,1.8-0.9,1.8-2.7v-11.4c0-1.6-0.5-2.5-1.8-2.5
			C635.6,225.1,635,225.9,635,227.6z"/>
		<path class="st11" d="M646,244.6v-18.4c-0.6,0.1-1.8,0.1-2.4,0.1v-2.7c1.5-0.1,2.7-0.8,3.4-1.6h2.7v22.6H646z"/>
		<path class="st11" d="M654.1,244.6v-18.4c-0.6,0.1-1.8,0.1-2.4,0.1v-2.7c1.5-0.1,2.7-0.8,3.4-1.6h2.7v22.6H654.1z"/>
		<path class="st11" d="M662.2,244.6v-18.4c-0.6,0.1-1.8,0.1-2.4,0.1v-2.7c1.5-0.1,2.7-0.8,3.4-1.6h2.7v22.6H662.2z"/>
		<path class="st11" d="M680,227.8v10.8c0,3.4-1.1,6.3-5.6,6.3c-4.2,0-5.4-2.8-5.4-6.2v-10.6c0-3.9,1.7-6.2,5.6-6.2
			C678.3,221.8,680,224.1,680,227.8z M672.6,227.6v11.4c0,1.7,0.5,2.6,1.9,2.6c1.3,0,1.8-0.9,1.8-2.7v-11.4c0-1.6-0.5-2.5-1.8-2.5
			C673.2,225.1,672.6,225.9,672.6,227.6z"/>
		<path class="st11" d="M683.6,244.6v-18.4c-0.6,0.1-1.8,0.1-2.4,0.1v-2.7c1.5-0.1,2.7-0.8,3.4-1.6h2.7v22.6H683.6z"/>
		<path class="st11" d="M701.3,227.8v10.8c0,3.4-1.1,6.3-5.6,6.3c-4.2,0-5.4-2.8-5.4-6.2v-10.6c0-3.9,1.8-6.2,5.6-6.2
			C699.7,221.8,701.3,224.1,701.3,227.8z M694,227.6v11.4c0,1.7,0.5,2.6,1.8,2.6c1.3,0,1.8-0.9,1.8-2.7v-11.4c0-1.6-0.5-2.5-1.8-2.5
			C694.6,225.1,694,225.9,694,227.6z"/>
		<path class="st11" d="M705,244.6v-18.4c-0.6,0.1-1.8,0.1-2.4,0.1v-2.7c1.5-0.1,2.7-0.8,3.4-1.6h2.7v22.6H705z"/>
		<path class="st11" d="M547,269.4v10.8c0,3.4-1.1,6.3-5.6,6.3c-4.2,0-5.4-2.8-5.4-6.2v-10.6c0-3.9,1.7-6.2,5.6-6.2
			C545.3,263.4,547,265.6,547,269.4z M539.6,269.2v11.4c0,1.7,0.5,2.6,1.9,2.6c1.3,0,1.8-0.9,1.8-2.7v-11.4c0-1.6-0.5-2.5-1.8-2.5
			C540.2,266.6,539.6,267.4,539.6,269.2z"/>
		<path class="st11" d="M550.6,286.2v-18.4c-0.6,0.1-1.8,0.1-2.4,0.1v-2.7c1.5-0.1,2.7-0.8,3.4-1.6h2.7v22.6H550.6z"/>
		<path class="st11" d="M558.8,286.2v-18.4c-0.6,0.1-1.8,0.1-2.4,0.1v-2.7c1.5-0.1,2.7-0.8,3.4-1.6h2.7v22.6H558.8z"/>
		<path class="st11" d="M576.5,269.4v10.8c0,3.4-1.1,6.3-5.6,6.3c-4.2,0-5.4-2.8-5.4-6.2v-10.6c0-3.9,1.7-6.2,5.6-6.2
			C574.8,263.4,576.5,265.6,576.5,269.4z M569.1,269.2v11.4c0,1.7,0.5,2.6,1.9,2.6c1.3,0,1.8-0.9,1.8-2.7v-11.4
			c0-1.6-0.5-2.5-1.8-2.5C569.7,266.6,569.1,267.4,569.1,269.2z"/>
		<path class="st11" d="M580.1,286.2v-18.4c-0.6,0.1-1.8,0.1-2.4,0.1v-2.7c1.5-0.1,2.7-0.8,3.4-1.6h2.7v22.6H580.1z"/>
		<path class="st11" d="M588.2,286.2v-18.4c-0.6,0.1-1.8,0.1-2.4,0.1v-2.7c1.5-0.1,2.7-0.8,3.4-1.6h2.7v22.6H588.2z"/>
		<path class="st11" d="M605.9,269.4v10.8c0,3.4-1.1,6.3-5.6,6.3c-4.2,0-5.4-2.8-5.4-6.2v-10.6c0-3.9,1.7-6.2,5.6-6.2
			C604.3,263.4,605.9,265.6,605.9,269.4z M598.6,269.2v11.4c0,1.7,0.5,2.6,1.9,2.6c1.3,0,1.8-0.9,1.8-2.7v-11.4
			c0-1.6-0.5-2.5-1.8-2.5C599.2,266.6,598.6,267.4,598.6,269.2z"/>
		<path class="st11" d="M619.2,269.4v10.8c0,3.4-1.1,6.3-5.6,6.3c-4.2,0-5.4-2.8-5.4-6.2v-10.6c0-3.9,1.7-6.2,5.6-6.2
			C617.5,263.4,619.2,265.6,619.2,269.4z M611.9,269.2v11.4c0,1.7,0.5,2.6,1.9,2.6c1.3,0,1.8-0.9,1.8-2.7v-11.4
			c0-1.6-0.5-2.5-1.8-2.5C612.5,266.6,611.9,267.4,611.9,269.2z"/>
		<path class="st11" d="M637.2,269.4v10.8c0,3.4-1.1,6.3-5.6,6.3c-4.2,0-5.4-2.8-5.4-6.2v-10.6c0-3.9,1.7-6.2,5.6-6.2
			C635.5,263.4,637.2,265.6,637.2,269.4z M629.9,269.2v11.4c0,1.7,0.5,2.6,1.9,2.6c1.3,0,1.8-0.9,1.8-2.7v-11.4
			c0-1.6-0.5-2.5-1.8-2.5C630.5,266.6,629.9,267.4,629.9,269.2z"/>
		<path class="st11" d="M640.9,286.2v-18.4c-0.6,0.1-1.8,0.1-2.4,0.1v-2.7c1.5-0.1,2.7-0.8,3.4-1.6h2.7v22.6H640.9z"/>
		<path class="st11" d="M649,286.2v-18.4c-0.6,0.1-1.8,0.1-2.4,0.1v-2.7c1.5-0.1,2.7-0.8,3.4-1.6h2.7v22.6H649z"/>
		<path class="st11" d="M657.1,286.2v-18.4c-0.6,0.1-1.8,0.1-2.4,0.1v-2.7c1.5-0.1,2.7-0.8,3.4-1.6h2.7v22.6H657.1z"/>
		<path class="st11" d="M674.8,269.4v10.8c0,3.4-1.1,6.3-5.6,6.3c-4.2,0-5.4-2.8-5.4-6.2v-10.6c0-3.9,1.7-6.2,5.6-6.2
			C673.1,263.4,674.8,265.6,674.8,269.4z M667.4,269.2v11.4c0,1.7,0.5,2.6,1.9,2.6c1.3,0,1.8-0.9,1.8-2.7v-11.4
			c0-1.6-0.5-2.5-1.8-2.5C668,266.6,667.4,267.4,667.4,269.2z"/>
		<path class="st11" d="M678.5,286.2v-18.4c-0.6,0.1-1.8,0.1-2.4,0.1v-2.7c1.5-0.1,2.7-0.8,3.4-1.6h2.7v22.6H678.5z"/>
		<path class="st11" d="M696.2,269.4v10.8c0,3.4-1.1,6.3-5.6,6.3c-4.2,0-5.4-2.8-5.4-6.2v-10.6c0-3.9,1.8-6.2,5.6-6.2
			C694.5,263.4,696.2,265.6,696.2,269.4z M688.8,269.2v11.4c0,1.7,0.5,2.6,1.8,2.6c1.3,0,1.8-0.9,1.8-2.7v-11.4
			c0-1.6-0.5-2.5-1.8-2.5C689.4,266.6,688.8,267.4,688.8,269.2z"/>
		<path class="st11" d="M709.4,269.4v10.8c0,3.4-1.1,6.3-5.6,6.3c-4.2,0-5.4-2.8-5.4-6.2v-10.6c0-3.9,1.8-6.2,5.6-6.2
			C707.8,263.4,709.4,265.6,709.4,269.4z M702.1,269.2v11.4c0,1.7,0.5,2.6,1.8,2.6c1.3,0,1.8-0.9,1.8-2.7v-11.4
			c0-1.6-0.5-2.5-1.8-2.5C702.7,266.6,702.1,267.4,702.1,269.2z"/>
		<path class="st11" d="M547,310.9v10.8c0,3.4-1.1,6.3-5.6,6.3c-4.2,0-5.4-2.8-5.4-6.2v-10.6c0-3.9,1.7-6.2,5.6-6.2
			C545.3,304.9,547,307.2,547,310.9z M539.6,310.7v11.4c0,1.7,0.5,2.6,1.9,2.6c1.3,0,1.8-0.9,1.8-2.7v-11.4c0-1.6-0.5-2.5-1.8-2.5
			C540.2,308.1,539.6,309,539.6,310.7z"/>
		<path class="st11" d="M550.6,327.7v-18.4c-0.6,0.1-1.8,0.1-2.4,0.1v-2.7c1.5-0.1,2.7-0.8,3.4-1.6h2.7v22.6H550.6z"/>
		<path class="st11" d="M558.8,327.7v-18.4c-0.6,0.1-1.8,0.1-2.4,0.1v-2.7c1.5-0.1,2.7-0.8,3.4-1.6h2.7v22.6H558.8z"/>
		<path class="st11" d="M576.5,310.9v10.8c0,3.4-1.1,6.3-5.6,6.3c-4.2,0-5.4-2.8-5.4-6.2v-10.6c0-3.9,1.7-6.2,5.6-6.2
			C574.8,304.9,576.5,307.2,576.5,310.9z M569.1,310.7v11.4c0,1.7,0.5,2.6,1.9,2.6c1.3,0,1.8-0.9,1.8-2.7v-11.4
			c0-1.6-0.5-2.5-1.8-2.5C569.7,308.1,569.1,309,569.1,310.7z"/>
		<path class="st11" d="M589.7,310.9v10.8c0,3.4-1.1,6.3-5.6,6.3c-4.2,0-5.4-2.8-5.4-6.2v-10.6c0-3.9,1.7-6.2,5.6-6.2
			C588.1,304.9,589.7,307.2,589.7,310.9z M582.4,310.7v11.4c0,1.7,0.5,2.6,1.9,2.6c1.3,0,1.8-0.9,1.8-2.7v-11.4
			c0-1.6-0.5-2.5-1.8-2.5C583,308.1,582.4,309,582.4,310.7z"/>
		<path class="st11" d="M603,310.9v10.8c0,3.4-1.1,6.3-5.6,6.3c-4.2,0-5.4-2.8-5.4-6.2v-10.6c0-3.9,1.7-6.2,5.6-6.2
			C601.3,304.9,603,307.2,603,310.9z M595.7,310.7v11.4c0,1.7,0.5,2.6,1.9,2.6c1.3,0,1.8-0.9,1.8-2.7v-11.4c0-1.6-0.5-2.5-1.8-2.5
			C596.3,308.1,595.7,309,595.7,310.7z"/>
		<path class="st11" d="M616.3,310.9v10.8c0,3.4-1.1,6.3-5.6,6.3c-4.2,0-5.4-2.8-5.4-6.2v-10.6c0-3.9,1.7-6.2,5.6-6.2
			C614.6,304.9,616.3,307.2,616.3,310.9z M608.9,310.7v11.4c0,1.7,0.5,2.6,1.9,2.6c1.3,0,1.8-0.9,1.8-2.7v-11.4
			c0-1.6-0.5-2.5-1.8-2.5C609.5,308.1,608.9,309,608.9,310.7z"/>
		<path class="st11" d="M619.9,327.7v-18.4c-0.6,0.1-1.8,0.1-2.4,0.1v-2.7c1.5-0.1,2.7-0.8,3.4-1.6h2.7v22.6H619.9z"/>
		<path class="st11" d="M642.4,310.9v10.8c0,3.4-1.1,6.3-5.6,6.3c-4.2,0-5.4-2.8-5.4-6.2v-10.6c0-3.9,1.7-6.2,5.6-6.2
			C640.7,304.9,642.4,307.2,642.4,310.9z M635,310.7v11.4c0,1.7,0.5,2.6,1.9,2.6c1.3,0,1.8-0.9,1.8-2.7v-11.4c0-1.6-0.5-2.5-1.8-2.5
			C635.6,308.1,635,309,635,310.7z"/>
		<path class="st11" d="M646,327.7v-18.4c-0.6,0.1-1.8,0.1-2.4,0.1v-2.7c1.5-0.1,2.7-0.8,3.4-1.6h2.7v22.6H646z"/>
		<path class="st11" d="M654.1,327.7v-18.4c-0.6,0.1-1.8,0.1-2.4,0.1v-2.7c1.5-0.1,2.7-0.8,3.4-1.6h2.7v22.6H654.1z"/>
		<path class="st11" d="M662.2,327.7v-18.4c-0.6,0.1-1.8,0.1-2.4,0.1v-2.7c1.5-0.1,2.7-0.8,3.4-1.6h2.7v22.6H662.2z"/>
		<path class="st11" d="M680,310.9v10.8c0,3.4-1.1,6.3-5.6,6.3c-4.2,0-5.4-2.8-5.4-6.2v-10.6c0-3.9,1.7-6.2,5.6-6.2
			C678.3,304.9,680,307.2,680,310.9z M672.6,310.7v11.4c0,1.7,0.5,2.6,1.9,2.6c1.3,0,1.8-0.9,1.8-2.7v-11.4c0-1.6-0.5-2.5-1.8-2.5
			C673.2,308.1,672.6,309,672.6,310.7z"/>
		<path class="st11" d="M683.6,327.7v-18.4c-0.6,0.1-1.8,0.1-2.4,0.1v-2.7c1.5-0.1,2.7-0.8,3.4-1.6h2.7v22.6H683.6z"/>
		<path class="st11" d="M701.3,310.9v10.8c0,3.4-1.1,6.3-5.6,6.3c-4.2,0-5.4-2.8-5.4-6.2v-10.6c0-3.9,1.8-6.2,5.6-6.2
			C699.7,304.9,701.3,307.2,701.3,310.9z M694,310.7v11.4c0,1.7,0.5,2.6,1.8,2.6c1.3,0,1.8-0.9,1.8-2.7v-11.4c0-1.6-0.5-2.5-1.8-2.5
			C694.6,308.1,694,309,694,310.7z"/>
		<path class="st11" d="M714.6,310.9v10.8c0,3.4-1.1,6.3-5.6,6.3c-4.2,0-5.4-2.8-5.4-6.2v-10.6c0-3.9,1.8-6.2,5.6-6.2
			C712.9,304.9,714.6,307.2,714.6,310.9z M707.3,310.7v11.4c0,1.7,0.5,2.6,1.8,2.6c1.3,0,1.8-0.9,1.8-2.7v-11.4
			c0-1.6-0.5-2.5-1.8-2.5C707.9,308.1,707.3,309,707.3,310.7z"/>
	</g>
</g>
<g>
	<path class="st4" d="M597.7,172.7c-8.9,3.5-17.4,7.2-25.5,11.4c-8.1,4.2-15.8,8.9-23,14.2c-0.9,0.6-1.8,1.4-2.7,2l-1.3,1l-1.3,1.1
		c-0.9,0.7-1.7,1.4-2.6,2.1c-0.8,0.7-1.6,1.5-2.5,2.2c-3.3,3-6.4,6.2-9.4,9.6c-6,6.8-11.2,14.3-16.4,22.4l-0.6-0.2
		c3.1-8.9,7.4-17.5,13.1-25.1l2.2-2.8c0.7-0.9,1.5-1.8,2.3-2.7l1.2-1.4l1.2-1.3c0.8-0.9,1.6-1.7,2.5-2.6c3.3-3.4,7-6.4,10.7-9.3
		c7.6-5.6,16-10.2,24.7-13.8c8.8-3.6,17.9-6.3,27.3-7.6L597.7,172.7z"/>
</g>
<path class="st12" d="M541.5,468.6c3.4,4,7.4,5.7,10.5,9.7c13.1,16.9,287.9,1.2,287.9,1.2s3.5-3.7,5.4-10.8L541.5,468.6z"/>
<path class="st12" d="M544,504.7c0.7,4.3,6,7.4,9.2,12.3c13.1,20.6,285.8,0.5,285.8,0.5s10.2-5,12-13.5L544,504.7z"/>
<path class="st4" d="M547.3,474.6c0,0-13.1,16.3,0,36.9c13.1,20.6,292.4,0,292.4,0s16.2-25.3,0-36.9H547.3z"/>
<path class="st2" d="M1089.9,763.2c-22.4-63.9-67.1-128.6-105.5-176.4c-54.2-67.6-156.1-42.7-192.9,47.2c-0.3,0.7-0.6,1.5-0.9,2.2
	c-10,25-7.3,53.1,7,72.6l84.4,114.5c9.3,12.7,4.9,33.2-8.9,41.5c-41.2,24.9-116.8,77.8-150.2,147.5c-0.6,1.2-1.1,2.4-1.6,3.5
	C880.1,995.8,1015.3,899,1089.9,763.2z"/>
<path class="st13" d="M890.7,607c0,0-21.5,11.1-36.2,38l31.4,46.6c0,0,32.1,33.2,74.1,18.2L890.7,607z"/>
<polygon class="st13" points="893.9,605.3 967.6,700.8 972.4,693 896.7,603.5 "/>
<polygon class="st13" points="899.5,601.8 976,682.2 977.7,673.8 902,600.2 "/>
<polygon class="st13" points="905.7,599 978.3,661.9 977.7,653.4 908,597.5 "/>
<path class="st13" d="M912,596.4l62.2,45c0,0-1.4-4.7-4.8-9.4l-54.6-36.8L912,596.4z"/>
<path class="st13" d="M918.6,594.1l42.8,25.7l-19.9-29.5C941.5,590.2,931.5,589.8,918.6,594.1z"/>
<g>
	<polygon class="st4" points="891.9,654.6 894.6,663.3 886.7,668.3 896,669 898.7,677.7 901.8,669.4 	"/>
	<polygon class="st4" points="891.8,654.7 899,660.5 906.8,655.5 903.8,664 910.9,669.9 901.8,669.4 	"/>
</g>
<path class="st3" d="M508.8,704v-30.1c0-52.5,42.6-95,95-95h53.3c52.5,0,95,42.6,95,95V704c0,52.5-42.6,95-95,95h-53.3
	C551.4,799,508.8,756.5,508.8,704z"/>
<path class="st2" d="M642.1,799h-54.4c-51.4,0-93-41.7-93-93v-34.1c0-51.4,41.7-93,93-93h54.4c51.4,0,93,41.7,93,93V706
	C735.2,757.4,693.5,799,642.1,799z"/>
<ellipse class="st14" cx="674.5" cy="628.7" rx="15.9" ry="18.2"/>
<ellipse class="st15" cx="670.4" cy="628.7" rx="15.9" ry="18.2"/>
<rect x="544.8" y="611" class="st16" width="80.9" height="32.2"/>
<rect x="544.8" y="611" class="st17" width="70.3" height="32.2"/>
<ellipse class="st13" cx="559.4" cy="627.1" rx="6" ry="6.1"/>
<ellipse class="st11" cx="580" cy="627.1" rx="6" ry="6.1"/>
<ellipse class="st4" cx="601.3" cy="627.1" rx="6" ry="6.1"/>
<path class="st2" d="M883.2,944.3c0,40.4-94.8,73.1-211.7,73.1s-211.7-32.7-211.7-73.1"/>
<g>
	<defs>
		<polygon id="XMLID_18_" points="756.5,1018.4 846,967.5 409.7,962.2 324.1,1008.8 		"/>
	</defs>
	<use xlink:href="#XMLID_18_"  style="overflow:visible;"/>
	<clipPath id="XMLID_4_">
		<use xlink:href="#XMLID_18_"  style="overflow:visible;"/>
	</clipPath>
	<polygon class="st18" points="615.3,1114.4 360,1093.7 361.2,1075.7 616.4,1096.4 	"/>
</g>
<g>
	<defs>
		<path id="XMLID_17_" d="M744.5,1019.8l-407.1-4.5c-23-0.3-41.5-19.1-41.2-42.1l2.7-256.1c0.2-23,19.1-41.5,42.1-41.2l407.1,4.5
			c23,0.3,41.5,19.1,41.2,42.1l-2.7,256.1C786.4,1001.6,767.6,1020,744.5,1019.8z"/>
	</defs>
	<use xlink:href="#XMLID_17_"  style="overflow:visible;fill:#B9B9BA;"/>
	<clipPath id="XMLID_5_">
		<use xlink:href="#XMLID_17_"  style="overflow:visible;"/>
	</clipPath>
	<polygon class="st19" points="498.6,583.9 184.2,861.8 235.2,922.3 549.7,644.4 	"/>
	<polygon class="st19" points="650.3,600.6 232,970.2 283.1,1030.7 701.3,661 	"/>
</g>
<g>
	<path class="st4" d="M526.2,978.3c-24.1-0.3-45.2-11.4-62.9-33c-13.1-16-24.2-37.9-33.1-65.1c-14.7-45.1-18.3-89.2-18.4-91.1
		l-0.6-7.3L540,686.5l-0.7,292L526.2,978.3z"/>
	<path class="st4" d="M552,978.7c24.1,0.4,45.3-10.2,63.1-31.2c13.2-15.6,24.5-37.2,33.5-64.1c15-44.6,18.8-88.7,19-90.6l0.6-7.3
		l-128.2-99l-1.1,292L552,978.7z"/>
	<g>
		<path class="st11" d="M540,713l-110.8,75.3c0,0,14.9,175.6,110.2,176.8L540,713z"/>
		<path class="st11" d="M539.6,713l111.3,78.4c0,0-16.1,175.2-112.2,173.8L539.6,713z"/>
	</g>
	<g>
		<g>
			<path class="st4" d="M491.4,874.5c0-0.3-0.3-0.5-0.7-0.4c0-0.2,0-0.3-0.1-0.5c1.8-0.2,2.7-0.3,4.5-0.5c0,0.2,0,0.3,0.1,0.5
				c-0.1,0-0.3,0.1-0.4,0.2c-0.1,0.1-0.1,0.2-0.1,0.4c0.6,4.9,0.8,7.4,1.4,12.3c0,0.2,0.1,0.3,0.2,0.4c0.1,0.1,0.2,0.1,0.4,0.1
				c0,0.2,0,0.3,0.1,0.5c-1.8,0.2-2.6,0.3-4.4,0.5c0-0.2,0-0.3-0.1-0.5c0.4,0,0.6-0.2,0.6-0.6c-0.3-2-0.4-3.1-0.6-5.1
				c-3.7,0.4-5.6,0.7-9.3,1.2c0.3,2,0.4,3.1,0.7,5.1c0,0.2,0.1,0.3,0.2,0.3s0.2,0.1,0.4,0.1c0,0.2,0,0.3,0.1,0.5
				c-1.7,0.2-2.6,0.4-4.3,0.6c0-0.2,0-0.3-0.1-0.5c0.4-0.1,0.5-0.2,0.5-0.6c-0.8-4.9-1.1-7.4-1.9-12.3c0-0.3-0.3-0.5-0.6-0.4
				c0-0.2,0-0.3-0.1-0.5c1.8-0.3,2.7-0.4,4.4-0.6c0,0.2,0,0.3,0.1,0.5c-0.1,0-0.3,0.1-0.4,0.2c-0.1,0.1-0.1,0.2-0.1,0.4
				c0.3,1.8,0.4,2.8,0.7,4.6c3.7-0.5,5.6-0.8,9.4-1.2C491.8,877.3,491.7,876.3,491.4,874.5z"/>
			<path class="st4" d="M508.9,885.8c0.2-0.1,0.4-0.2,0.6-0.4c0.1-0.2,0.2-0.4,0.4-0.7c1.8-4.4,2.7-6.6,4.6-11
				c0.1-0.2,0.2-0.5,0.3-0.7c0.1-0.2,0.1-0.4,0.1-0.5c0-0.2-0.1-0.3-0.2-0.4c-0.1-0.1-0.3-0.1-0.5-0.1c0-0.2,0-0.3,0-0.5
				c2-0.1,3-0.2,5-0.3c0,0.2,0,0.3,0,0.5c-0.1,0-0.3,0.1-0.4,0.2s-0.2,0.2-0.2,0.4c0,0.1,0.1,0.3,0.1,0.4c0.1,0.1,0.2,0.3,0.3,0.6
				c2.7,4.3,4,6.5,6.6,10.9c0.1,0.2,0.2,0.3,0.4,0.4c0.2,0.1,0.4,0.2,0.6,0.3c0,0.2,0,0.3,0,0.5c-2,0.1-3,0.1-5,0.2
				c0-0.2,0-0.3,0-0.5c0.1,0,0.2,0,0.3-0.1c0.1-0.1,0.2-0.1,0.2-0.3c0-0.2-0.1-0.4-0.3-0.7c-0.5-0.8-0.7-1.2-1.2-2
				c-2.8,0.1-4.2,0.2-7.1,0.4c-0.4,0.8-0.5,1.2-0.9,2c-0.2,0.4-0.2,0.7-0.2,0.8c0,0.2,0.2,0.3,0.6,0.3c0,0.2,0,0.3,0,0.5
				c-1.6,0.1-2.4,0.2-4.1,0.3C508.9,886.1,508.9,886,508.9,885.8z M519.4,880.1c-1.1-2-1.6-3-2.8-4.9c-1,2.1-1.5,3.1-2.4,5.2
				C516.3,880.2,517.3,880.2,519.4,880.1z"/>
			<path class="st4" d="M554.6,883.4c-0.1,0-0.1,0-0.2,0c0,0-0.1,0-0.2,0c-0.1,0-0.4,0.1-0.8,0.3c-0.4,0.2-1,0.4-1.7,0.7
				c-0.7,0.3-1.4,0.5-2.3,0.7c-0.8,0.2-1.7,0.3-2.6,0.2c-1.2,0-2.4-0.2-3.5-0.5c-1.1-0.3-2.1-0.8-3-1.4c-0.9-0.6-1.5-1.4-2.1-2.3
				c-0.5-0.9-0.8-2-0.8-3.2c0-1.2,0.2-2.3,0.7-3.2c0.5-0.9,1.2-1.7,2.1-2.3c0.9-0.6,1.9-1.1,3-1.4c1.1-0.3,2.3-0.4,3.6-0.4
				c1,0,1.9,0.1,2.7,0.3c0.8,0.2,1.5,0.3,2.1,0.5c0.6,0.2,1.1,0.4,1.4,0.5c0.4,0.2,0.6,0.2,0.6,0.2c0.1,0,0.2,0,0.3-0.1
				c0.1-0.1,0.1-0.2,0.2-0.2c0.2,0.1,0.3,0.2,0.4,0.3c-1,1.3-1.4,1.9-2.4,3.2c-0.1-0.1-0.2-0.1-0.3-0.2c0-0.1,0-0.1,0-0.2
				s0-0.1,0-0.2c0-0.2-0.2-0.4-0.6-0.6c-0.3-0.2-0.8-0.4-1.3-0.6c-0.5-0.2-1.1-0.3-1.6-0.4c-0.6-0.1-1.1-0.2-1.6-0.2
				c-0.8,0-1.6,0.1-2.4,0.3c-0.8,0.2-1.4,0.5-2,0.9c-0.6,0.4-1,0.9-1.3,1.5c-0.3,0.6-0.5,1.3-0.5,2.1c0,0.8,0.2,1.5,0.5,2.1
				c0.3,0.6,0.8,1.1,1.3,1.6c0.6,0.4,1.2,0.7,1.9,1c0.7,0.2,1.5,0.3,2.3,0.4c0.6,0,1.3,0,1.9-0.2s1.3-0.3,1.9-0.5
				c0.6-0.2,1-0.4,1.4-0.7c0.4-0.3,0.6-0.5,0.6-0.7c0-0.1,0-0.2-0.1-0.3c0.2-0.1,0.2-0.1,0.4-0.2c0.7,1.2,1.1,1.8,1.8,3
				C554.8,883.3,554.7,883.3,554.6,883.4z"/>
			<path class="st4" d="M571.7,885.4c0,0.2,0,0.3,0.1,0.4c0.1,0.1,0.2,0.1,0.4,0.2c0,0.2,0,0.3,0,0.5c-1.8-0.1-2.7-0.2-4.5-0.3
				c0-0.2,0-0.3,0-0.5c0.4,0,0.6-0.1,0.7-0.4c0.3-5,0.4-7.4,0.7-12.4c0-0.3-0.2-0.5-0.6-0.5c0-0.2,0-0.3,0-0.5
				c1.9,0.1,2.8,0.2,4.6,0.3c0,0.2,0,0.3,0,0.5c-0.2,0-0.3,0-0.4,0.1c-0.1,0.1-0.2,0.2-0.2,0.4c-0.1,2.1-0.2,3.1-0.3,5.2
				c2.5-1.6,3.8-2.4,6.4-3.9c0.3-0.2,0.5-0.3,0.7-0.5c0.2-0.1,0.3-0.2,0.3-0.3c0-0.1,0-0.2-0.1-0.3c-0.1-0.1-0.2-0.1-0.3-0.1
				c0-0.2,0-0.3,0-0.5c2.5,0.2,3.7,0.4,6.2,0.6c0,0.2,0,0.3,0,0.5c-0.4,0-0.7,0.1-1.1,0.3c-2.9,1.7-4.3,2.6-7.2,4.3
				c2.3,2.9,3.4,4.3,5.5,7.2c0.2,0.3,0.5,0.6,0.8,0.9c0.3,0.3,0.6,0.5,0.9,0.6c0,0.2,0,0.3,0,0.5c-2.1-0.2-3.2-0.3-5.3-0.5
				c0-0.2,0-0.3,0-0.5c0.2,0,0.4,0,0.4-0.2c0-0.1-0.1-0.3-0.4-0.6c-1.8-2.3-2.7-3.5-4.5-5.8c-1,0.6-1.5,0.9-2.6,1.6
				C571.9,883,571.8,883.8,571.7,885.4z"/>
			<path class="st4" d="M597.6,884.6c0.1,0.1,0.2,0.1,0.3,0.2c0,0.2,0,0.3,0.1,0.4c0.1,0.2,0.3,0.5,0.7,0.7c0.4,0.3,0.8,0.5,1.3,0.7
				c0.5,0.2,1,0.4,1.5,0.6c0.5,0.2,1,0.3,1.5,0.4c0.3,0,0.7,0.1,1.3,0.1s1,0,1.6,0c0.5-0.1,1-0.2,1.4-0.4c0.4-0.2,0.6-0.5,0.7-0.9
				c0.1-0.4-0.1-0.7-0.4-1c-0.3-0.3-0.7-0.5-1.3-0.6c-0.5-0.2-1.2-0.3-1.9-0.5c-0.7-0.1-1.4-0.3-2.1-0.5c-0.7-0.2-1.4-0.4-2.1-0.6
				c-0.7-0.2-1.3-0.5-1.8-0.9c-0.5-0.4-0.9-0.8-1.2-1.4c-0.3-0.6-0.4-1.3-0.3-2.1c0.1-0.6,0.3-1.1,0.6-1.6c0.4-0.5,0.8-0.9,1.5-1.3
				c0.6-0.3,1.4-0.6,2.4-0.7c0.9-0.1,2-0.1,3.2,0.1c1,0.2,1.9,0.4,2.7,0.6c0.7,0.3,1.4,0.5,1.9,0.8c0.5,0.3,1,0.5,1.3,0.7
				c0.4,0.2,0.7,0.3,0.9,0.4c0.3,0,0.5,0,0.6-0.1c0.1,0.1,0.2,0.2,0.3,0.3c-1,1.2-1.5,1.8-2.5,3c-0.1-0.1-0.2-0.1-0.3-0.2
				c0-0.3,0-0.5-0.1-0.7c-0.1-0.2-0.3-0.5-0.7-0.8c-0.3-0.3-0.7-0.5-1.2-0.8c-0.5-0.2-1-0.5-1.5-0.6c-0.6-0.2-1.1-0.3-1.7-0.4
				c-0.4-0.1-0.9-0.1-1.3-0.1c-0.5,0-0.9,0-1.3,0.1c-0.4,0.1-0.7,0.2-1,0.4c-0.3,0.2-0.4,0.4-0.5,0.7c-0.1,0.4,0.1,0.8,0.4,1
				c0.3,0.3,0.7,0.5,1.3,0.7c0.5,0.2,1.2,0.4,1.9,0.5c0.7,0.1,1.4,0.3,2.1,0.5c0.7,0.2,1.4,0.4,2.1,0.6c0.7,0.3,1.3,0.6,1.8,1
				c0.5,0.4,0.9,0.9,1.1,1.4c0.3,0.6,0.3,1.2,0.2,2.1c-0.1,0.9-0.5,1.7-1.2,2.2c-0.6,0.5-1.3,0.9-2.2,1.1c-0.8,0.2-1.7,0.3-2.6,0.3
				c-0.9,0-1.8-0.1-2.5-0.2c-1.1-0.2-2-0.4-2.7-0.6s-1.3-0.5-1.8-0.7c-0.5-0.2-0.8-0.4-1.1-0.6c-0.3-0.2-0.5-0.3-0.7-0.3
				c-0.1,0-0.3,0-0.4,0.2c-0.1-0.1-0.2-0.2-0.4-0.3C596.4,886.5,596.8,885.9,597.6,884.6z"/>
		</g>
	</g>
	<g>
		<g>
			<path class="st4" d="M505.6,917.8c-0.8-2.1-1.2-3.2-2-5.3c3.3-1,4.9-1.5,8.3-2.3c0.4,2.2,0.6,3.3,1,5.6c0.2,3.5,0.3,5.2,0.6,8.6
				c-1.6,0.4-2.4,0.6-3.9,1.1C508,922.3,507.2,920.8,505.6,917.8z"/>
			<path class="st4" d="M524,932.5c2.5-0.4,3.8-0.5,6.3-0.7c-0.6-6.2-0.9-9.4-1.4-15.6c-2.5,0.2-3.8,0.4-6.3,0.7
				c-0.2-1.5-0.3-2.3-0.6-3.8c3.6-1.1,6.1-2,8.5-3.3c2.4-0.2,3.7-0.2,6.1-0.2c0.2,8.8,0.2,13.2,0.4,22c2.2,0,3.2,0,5.4,0.1
				c-0.1,2-0.1,3-0.2,5c-6.9-0.4-10.4-0.2-17.3,0.9C524.5,935.5,524.4,934.5,524,932.5z"/>
			<path class="st4" d="M546.9,930c0.3-3.2,2.8-5,6-5.9c0-0.1,0-0.1,0-0.2c-2.2-1.9-3.9-4.1-3.6-6.9c0.5-4.6,5.6-7,12.2-5.5
				c6.5,1.4,9.8,5.7,8.5,10c-0.8,2.4-3.3,3.8-5.8,4.4c0,0.1,0,0.1,0,0.2c2.6,2.2,4.2,4.9,3.1,8.3c-1.3,4-6,5.7-11.6,4.5
				C550.3,937.7,546.5,934.4,546.9,930z M561.1,932.3c0.6-2.3-1.7-3.9-5.3-6c-1.5,0.8-2.7,2.2-3,3.8c-0.4,2.3,1.4,4,3.8,4.6
				C558.7,935.1,560.6,934.5,561.1,932.3z M563.7,920.1c0.5-2-0.7-3.8-3.3-4.4c-2.1-0.5-4,0.3-4.3,2.3c-0.4,2.2,1.7,3.6,4.7,5.4
				C562.3,922.6,563.3,921.5,563.7,920.1z"/>
		</g>
	</g>
	<g>
		<g>
			<path class="st4" d="M481.7,839.4c0.5,1.8,0.7,2.7,1.2,4.6c1.4,5.5,4,8.1,8.9,7c5-1.1,5.5-5.5,4.6-10.4
				c-1.5-8-4.1-10.8-15.3-14.3c-8.9-2.8-18.8-6.8-21.7-16.8c-3.7-12.6,5.2-23.4,17.8-25.5c11-1.8,24.7,0.7,25.8,14.2
				c0.2,1.6,0.3,2.4,0.5,4c-6.2,0.8-9.3,1.3-15.5,2.4c-0.3-1.5-0.4-2.2-0.7-3.7c-1-5.2-2.9-8.2-8.3-7c-5.3,1.1-5.9,4.7-4.6,9.6
				c1.3,5.2,3.4,7.3,12.9,10.4c11.8,3.7,20.7,10.2,22.4,22.8c1.5,11.1-5,21.5-16.2,24c-10.4,2.3-20.9-2.5-23.8-13.3
				c-0.5-1.7-0.8-2.6-1.4-4.3C473.6,841.5,476.3,840.8,481.7,839.4z"/>
			<path class="st4" d="M512.9,780c9.1-0.7,13.6-0.9,22.7-0.9c11.9-0.1,26.3,4.1,25,18.5c-0.1,1.1-0.1,1.7-0.2,2.8
				c-0.9,10.7-5.9,13.4-10.2,14.5c4.3,1.6,10.4,5,9.4,16c-0.2,2.3-0.3,3.4-0.5,5.7c-0.9,12.4-9.4,18.7-21.6,18.5
				c-7.1,0-10.6,0.1-17.7,0.7C517.5,830.6,515.2,805.3,512.9,780z M534.2,810.1c8.5-0.1,11.1-1.9,11.3-9.4c0-1.2,0-1.8,0.1-3
				c0.2-6.3-2.9-9-10.8-8.9c-2,0-3.1,0-5.1,0.1c0.3,8.5,0.4,12.8,0.7,21.3C531.9,810.1,532.7,810.1,534.2,810.1z M531.5,845.7
				c1.7,0,2.6,0,4.4-0.1c7.5,0,9.5-2.8,9.7-10.2c0.1-2,0.1-3,0.2-5.1c0.2-7.4-2-10.9-11.3-10.8c-1.5,0-2.3,0-3.8,0.1
				C531,830,531.2,835.2,531.5,845.7z"/>
			<path class="st4" d="M591.9,784.9c-3.6,18.9-7.2,37.8-10.8,56.7c-1,5.4,0.4,8.9,5.3,10.1c5.1,1.2,7.6-1.7,8.9-6.7
				c4.8-18.6,9.6-37.2,14.5-55.8c6.7,1.8,10,2.8,16.5,5.1c-5.9,18.2-11.8,36.4-17.8,54.6c-3.1,11.2-14.2,15.6-24.7,13.1
				c-10.5-2.5-18.3-11.4-16.2-22.9c2.5-19,4.9-38.1,7.4-57.1C581.8,782.9,585.1,783.5,591.9,784.9z"/>
		</g>
	</g>
	<path class="st20" d="M418.9,790.3c0,0,17,184.3,118,180.8"/>
	<polyline class="st21" points="536.3,967.1 542.4,971.6 536.3,975.3 	"/>
	<path class="st20" d="M647,857.1c0,0,13.2-35.9,12.8-70.5l-119.9-88.3l-29.5,21.4"/>
	<polyline class="st21" points="514.3,722.7 506.4,724 508.1,716.5 	"/>
	<path class="st22" d="M475.5,815.3"/>
	<path class="st23" d="M477.3,816.2"/>
	<path class="st23" d="M487.9,821.5"/>
	<ellipse transform="matrix(0.92 -0.392 0.392 0.92 -273.9239 258.3288)" class="st24" cx="495.7" cy="800" rx="1" ry="1"/>
	<ellipse transform="matrix(0.92 -0.392 0.392 0.92 -292.979 254.2793)" class="st24" cx="476.3" cy="844.7" rx="1" ry="1"/>
	<ellipse transform="matrix(0.92 -0.392 0.392 0.92 -262.6834 291.278)" class="st24" cx="582" cy="789" rx="1" ry="1"/>
	<ellipse transform="matrix(0.92 -0.392 0.392 0.92 -262.8076 305.5205)" class="st24" cx="616.8" cy="796.4" rx="1" ry="1"/>
	<ellipse transform="matrix(0.92 -0.392 0.392 0.92 -265.5032 265.1196)" class="st24" cx="516.6" cy="782.8" rx="1" ry="1"/>
	<ellipse transform="matrix(0.92 -0.392 0.392 0.92 -292.6479 272.8534)" class="st24" cx="521.9" cy="853.2" rx="1" ry="1"/>
	<ellipse transform="matrix(0.92 -0.392 0.392 0.92 -278.543 269.1927)" class="st24" cx="520" cy="816.8" rx="1" ry="1"/>
	<ellipse transform="matrix(0.92 -0.392 0.392 0.92 -289.7885 297.9641)" class="st24" cx="584.8" cy="858.7" rx="1" ry="1"/>
</g>
<g class="st25">
	<path class="st4" d="M852.8,261.6c-4.2,2.7-8,5.9-11.3,9.3c-3.3,3.5-6,7.4-7.8,11.7c-0.9,2.1-1.6,4.4-2,6.7c-0.5,2.3-0.7,4.7-0.7,7
		c-0.1,4.8,0.7,9.6,1.6,14.6c-2.6-4.3-4.2-9.3-4.8-14.4c-0.6-5.1,0.1-10.5,2.2-15.4c2-4.9,5.3-9.1,9.3-12.4
		C843.4,265.4,847.9,262.8,852.8,261.6z"/>
</g>
<g>
	<path class="st4" d="M874.7,286.2c1.8,0.9,3.3,2.4,4.5,4.2c1.1,1.8,1.9,3.9,1.9,6.1c0,2.2-0.6,4.4-1.8,6.2
		c-0.3,0.5-0.6,0.9-0.9,1.3c-0.4,0.4-0.7,0.8-1.1,1.1c-0.8,0.7-1.7,1.2-2.5,1.7c0.4-1,1-1.8,1.4-2.6c0.2-0.4,0.4-0.9,0.6-1.3
		c0.1-0.2,0.2-0.4,0.3-0.6l0.2-0.6c0.7-1.7,0.9-3.4,0.9-5.1c0-1.7-0.4-3.4-1-5.1C876.4,289.8,875.6,288,874.7,286.2z"/>
</g>
<g>
	<path class="st4" d="M867,373.6c1.8,0.9,3.3,2.4,4.5,4.2c1.1,1.8,1.9,3.9,1.9,6.1c0,2.2-0.6,4.4-1.8,6.2c-0.3,0.5-0.6,0.9-0.9,1.3
		c-0.4,0.4-0.7,0.8-1.1,1.1c-0.8,0.7-1.7,1.2-2.5,1.7c0.4-1,1-1.8,1.4-2.6c0.2-0.4,0.4-0.9,0.6-1.3c0.1-0.2,0.2-0.4,0.3-0.6l0.2-0.6
		c0.7-1.7,0.9-3.4,0.9-5.1c0-1.7-0.4-3.4-1-5.1C868.7,377.1,867.9,375.4,867,373.6z"/>
</g>
<g>
	<path class="st4" d="M844.1,362.2c-2.5,2.3-4.6,4.9-6.2,7.6c-1.6,2.8-2.8,5.7-3.4,8.8c-0.2,0.8-0.2,1.6-0.4,2.3
		c0,0.4-0.1,0.8-0.2,1.2l0,1.2c0,0.8-0.1,1.6,0,2.4c0.1,0.8,0.1,1.6,0.2,2.4c0,0.4,0,0.8,0.1,1.2c0.1,0.4,0.1,0.8,0.2,1.2l0.4,2.4
		c0.3,1.6,0.8,3.2,1,4.9c-0.9-1.4-1.7-2.9-2.4-4.5l-0.9-2.4c-0.3-0.8-0.6-1.6-0.7-2.5c-0.2-0.8-0.3-1.7-0.5-2.6
		c-0.1-0.9-0.1-1.7-0.2-2.6l0-1.3c0-0.4,0.1-0.9,0.1-1.3c0.1-0.9,0.2-1.8,0.4-2.6c0.7-3.5,2.3-6.8,4.5-9.5
		C838.2,365.7,841,363.5,844.1,362.2z"/>
</g>
<g>
	<path class="st4" d="M677.8,619.4c1.8,0.9,3.3,2.4,4.5,4.2c1.1,1.8,1.9,3.9,1.9,6.1c0,2.2-0.6,4.4-1.8,6.2
		c-0.3,0.5-0.6,0.9-0.9,1.3c-0.4,0.4-0.7,0.8-1.1,1.1c-0.8,0.7-1.7,1.2-2.5,1.7c0.4-1,1-1.8,1.4-2.6c0.2-0.4,0.4-0.9,0.6-1.3
		c0.1-0.2,0.2-0.4,0.3-0.6l0.2-0.6c0.7-1.7,0.9-3.4,0.9-5.1c0-1.7-0.4-3.4-1-5.1C679.5,622.9,678.7,621.2,677.8,619.4z"/>
</g>
<g>
	<polygon class="st4" points="226.5,388.1 229.1,396.8 221.3,401.8 230.5,402.4 233.2,411.1 236.4,402.8 	"/>
	<polygon class="st4" points="226.4,388.1 233.6,394 241.4,388.9 238.3,397.4 245.5,403.3 236.4,402.8 	"/>
</g>
<g>
	<polygon class="st4" points="297.5,247.4 300.2,256.1 292.3,261.1 301.6,261.7 304.3,270.4 307.4,262.1 	"/>
	<polygon class="st4" points="297.4,247.4 304.6,253.3 312.4,248.2 309.4,256.7 316.5,262.6 307.4,262.1 	"/>
</g>
<g>
	<polygon class="st4" points="407.1,135 409.8,143.7 401.9,148.7 411.2,149.3 413.9,158 417.1,149.7 	"/>
	<polygon class="st4" points="407,135 414.2,140.9 422,135.9 419,144.3 426.1,150.2 417,149.7 	"/>
</g>
<g>
	<polygon class="st4" points="540.4,67.8 543.1,76.5 535.2,81.5 544.5,82.1 547.2,90.8 550.4,82.5 	"/>
	<polygon class="st4" points="540.3,67.8 547.5,73.7 555.4,68.7 552.3,77.2 559.5,83 550.4,82.5 	"/>
</g>
</svg>
