<?xml version="1.0" encoding="utf-8"?>
<!-- Generator: Adobe Illustrator 19.0.0, SVG Export Plug-In . SVG Version: 6.00 Build 0)  -->
<svg version="1.1" xmlns="http://www.w3.org/2000/svg" xmlns:xlink="http://www.w3.org/1999/xlink" x="0px" y="0px"
	 viewBox="0 0 939 1299.4" style="enable-background:new 0 0 939 1299.4;" xml:space="preserve">
<style type="text/css">
	.st0{fill:#231F20;stroke:#000000;stroke-miterlimit:10;}
	.st1{fill:#607D8B;}
	.st2{fill:#455A64;}
	.st3{fill:#90A4AE;}
	.st4{fill:#00B8D4;}
	.st5{fill:#18FFFF;}
	.st6{fill:#546E7A;}
	.st7{fill:#00E676;}
	.st8{fill:#69F0AE;}
	.st9{fill:#FFEA00;}
	.st10{fill:#FF9100;}
	.st11{fill:#FF6E40;}
	.st12{fill:#AA00FF;}
	.st13{fill:#B0BEC5;}
	.st14{fill:#CFD8DC;}
	.st15{fill:#DD2C00;}
	.st16{fill:#0091EA;}
	.st17{fill:#78909C;}
	.st18{fill:#ECEFF1;}
	.st19{fill:#F5F5F5;}
	.st20{fill:#FF3D00;}
	.st21{fill:#64FFDA;}
	.st22{fill:#FF4081;}
	.st23{fill:#40C4FF;}
	.st24{fill:#00B0FF;}
	.st25{fill:#FFFF00;}
	.st26{fill:#FF1744;}
	.st27{fill:#84FFFF;}
	.st28{fill:#FAFAFA;}
	.st29{fill:#00E5FF;}
	.st30{fill:#F50057;}
</style>
<g id="Layer_2">
	<rect x="-6.7" y="-18" class="st0" width="957.7" height="1318.8"/>
</g>
<g id="Layer_7">
</g>
<g id="Layer_1">
	<g id="Layer_5">
		<path class="st1" d="M310.7,833.9c-22.9-0.5-201.7,14-250.1,2.6c-3.4-0.8-9.7-2.6-14.5-7.9c-6.8-7.6-6.6-16.6-6.5-18.4l1.1-192.7
			c0.1-12.5,9.6-22.9,21.3-23.3l217.4-5.8c14.4-0.4,27.1,10.8,27.9,24.9c3.9,61.2,7.8,122.4,11.7,183.6c3.6,11.2,7.6,28.4,0,34.7
			C316,834.1,312.1,833.9,310.7,833.9z"/>
		<path class="st1" d="M295.5,591.3l-234,5.3c-10,0.2-18.4-7.7-18.6-17.8l-0.9-38.1c-0.2-10,7.7-18.4,17.8-18.6l234-5.3
			c10-0.2,18.4,7.7,18.6,17.8l0.9,38.1C313.5,582.7,305.6,591,295.5,591.3z"/>
		<path class="st2" d="M44.2,532.3c16.5,2,33,4,49.5,6c1.6,0.7,4.2,2,6.5,4.5c4.1,4.4,4.8,9.4,5,11.3c69.3-1.8,138.7-3.7,208-5.5
			c-0.3-5.9-0.7-11.8-1-17.8c-1-1.8-2-3.5-3-5.3c-3-0.9-6-1.8-9-2.8c-18.5-1.2-37.6-2.1-57.2-2.7c0,0-17.6-0.6-37.1-0.8
			c-54.6-0.6-125.4,1.7-140.3,2.3c-2.1-0.2-10.3-0.7-16.8,5C46.5,528.5,45.1,530.6,44.2,532.3z"/>
		<path class="st3" d="M91.7,610.1l-37.1-12.5c-7.4-2.5-13.2-9.9-13.2-16.4l0.4-43c0.1-6.1,5.7-9.8,12.8-8.2l35.2,7.8
			c8.1,1.8,15.1,8.8,15.4,15.6l1.8,48.4C107.2,609.3,100.3,613,91.7,610.1z"/>
		<path class="st3" d="M86.5,840.5l-33.1-5.4c-8.2-1.3-14.9-8.6-14.8-16l2.9-206.4c0.1-5.9,6.1-8.9,13.4-6.8l29.4,8.8
			c7,2.1,12.7,8.5,12.8,14.3l3.3,200.8C100.6,837,94.4,841.8,86.5,840.5z"/>
		<ellipse class="st4" cx="93" cy="591.2" rx="5.4" ry="9"/>
		<ellipse class="st5" cx="90.7" cy="591.2" rx="5.6" ry="9"/>
		<path class="st6" d="M64.5,690.1l-7.2-1.5c-1.8-0.4-3.3-2.3-3.2-4.4l0.6-56.4c0-1.6,1.3-2.4,2.9-1.8l6.4,2.4
			c1.5,0.6,2.8,2.3,2.8,3.9l0.7,54.8C67.6,689.2,66.2,690.5,64.5,690.1z"/>
		<path class="st6" d="M88.8,699l-7.2-1.5c-1.8-0.4-3.3-2.4-3.2-4.5L79,634c0-1.7,1.3-2.5,2.9-1.9l6.4,2.5c1.5,0.6,2.8,2.4,2.8,4.1
			l0.7,57.3C91.9,698,90.6,699.3,88.8,699z"/>
		<path class="st6" d="M50.8,705.7l2.9-6.8c0.7-1.7,3-2.7,5.1-2.3l57.7,11.5c1.7,0.3,2.3,1.8,1.3,3.2l-3.7,5.8
			c-0.9,1.4-2.9,2.3-4.5,2l-56.4-9.9C51.3,709,50.1,707.4,50.8,705.7z"/>
		<path class="st6" d="M44,710.5l2.9-6.8c0.7-1.7,3-2.7,5.1-2.3l57.7,11.5c1.7,0.3,2.3,1.8,1.3,3.2l-3.7,5.8c-0.9,1.4-2.9,2.3-4.5,2
			l-56.4-9.9C44.4,713.7,43.3,712.1,44,710.5z"/>
		<path class="st6" d="M64.2,828.2l-7.2-1.5c-1.8-0.4-3.3-2.4-3.2-4.5l0.6-58.9c0-1.7,1.3-2.5,2.9-1.9l6.4,2.5
			c1.5,0.6,2.8,2.4,2.8,4.1l0.7,57.3C67.3,827.1,65.9,828.5,64.2,828.2z"/>
		<path class="st6" d="M92.3,831.7l-7.2-1.5c-1.8-0.4-3.3-2.4-3.2-4.5l0.6-58.9c0-1.7,1.3-2.5,2.9-1.9l6.4,2.5
			c1.5,0.6,2.8,2.4,2.8,4.1l0.7,57.3C95.4,830.6,94.1,832,92.3,831.7z"/>
		<path class="st7" d="M56.7,688.4l-7.2-1.5c-1.8-0.4-3.3-2.4-3.2-4.5l0.6-58.9c0-1.7,1.3-2.5,2.9-1.9l6.4,2.5
			c1.5,0.6,2.8,2.4,2.8,4.1l0.7,57.3C59.8,687.3,58.4,688.7,56.7,688.4z"/>
		<path class="st8" d="M85.6,699l-7.2-1.5c-1.8-0.4-3.3-2.4-3.2-4.5l0.6-58.9c0-1.7,1.3-2.5,2.9-1.9l6.4,2.5
			c1.5,0.6,2.8,2.4,2.8,4.1l0.7,57.3C88.7,698,87.3,699.3,85.6,699z"/>
		<path class="st9" d="M44,705l2.9-6.8c0.7-1.7,3-2.7,5.1-2.3l57.7,11.5c1.7,0.3,2.3,1.8,1.3,3.2l-3.7,5.8c-0.9,1.4-2.9,2.3-4.5,2
			l-56.4-9.9C44.4,708.2,43.3,706.6,44,705z"/>
		<path class="st10" d="M57.3,827.4l-7.2-1.5c-1.8-0.4-3.3-2.4-3.2-4.5l0.6-58.9c0-1.7,1.3-2.5,2.9-1.9l6.4,2.5
			c1.5,0.6,2.8,2.4,2.8,4.1l0.7,57.3C60.4,826.3,59,827.7,57.3,827.4z"/>
		<path class="st11" d="M85.5,830.9l-7.2-1.5c-1.8-0.4-3.3-2.4-3.2-4.5l0.6-58.9c0-1.7,1.3-2.5,2.9-1.9l6.4,2.5
			c1.5,0.6,2.8,2.4,2.8,4.1l0.7,57.3C88.6,829.8,87.2,831.2,85.5,830.9z"/>
		<path class="st9" d="M40.5,733.3l2.9-6.8c0.7-1.7,3-2.7,5.1-2.3l57.7,11.5c1.7,0.3,2.3,1.8,1.3,3.2l-3.7,5.8
			c-0.9,1.4-2.9,2.3-4.5,2L43,736.8C41,736.5,39.9,734.9,40.5,733.3z"/>
	</g>
	<g id="Layer_3">
		<path class="st12" d="M223.8,1183c-1.4,6.1-2.6,13.9-2.4,23c0.1,8.3,1.4,15.5,2.8,21.3c1.4,1.6,3.5,3.9,6.2,6.5
			c9.2,9,16.8,13.2,24.7,18.3c24.1,15.4,27.3,23,47.3,31.2c3.8,1.6,6.6,2.4,7.6,2.8c0,0,0.1,0,0.3,0.1c1.5,0.5,31.5,9.2,39.7-2.3
			c2.8-3.8,4.1-11.3,4.3-12.3c0.3-1.7,0.4-3,0.5-4c0.4-8.1,0.8-16.2,1.3-24.3c-10.9-6.8-23.4-16-36.3-28
			c-14.7-13.7-25.7-27.3-33.7-38.8L223.8,1183z"/>
		<path class="st12" d="M439,1147.3c-0.2,5.3,0.1,12.1,1.7,19.8c1.5,7,3.7,12.9,5.8,17.5c1.4,1.1,3.6,2.7,6.3,4.5
			c9.3,6.1,16.3,8.4,23.8,11.4c22.9,9.1,26.8,15,45,18.7c3.9,0.8,6.4,1.1,7.1,1.1c26.7,2.9,33.3-6.3,33.3-6.3
			c2.1-2.9,2.6-6.4,3.3-10.8c0.6-3.8,0.5-7,0.3-9.3c-0.5-4-1-8-1.5-12c-11.8-6-25-13.5-38.8-22.9c-13.5-9.3-25.1-18.6-34.8-27.3
			L439,1147.3z"/>
		<path class="st2" d="M437,1135.4c-0.2,5.3,0.1,12.1,1.7,19.8c1.5,7,3.7,12.9,5.8,17.5c1.4,1.1,3.6,2.7,6.3,4.5
			c9.3,6.1,16.3,8.4,23.8,11.4c22.9,9.1,26.8,15,45,18.7c3.9,0.8,6.4,1.1,7.1,1.1c8.6,0.9,25,2.7,33.3-6.3
			c6.1-6.6,4.7-16.4,4.5-17.6c-2.1-13.2-14.9-18.6-15.6-18.9c-8.4-5.9-17-12-25.7-18.5c-12.3-9.2-23.9-18.3-34.8-27.3L437,1135.4z"
			/>
		<path class="st6" d="M221.8,1166.1c-1.4,6.1-2.6,13.9-2.4,23c0.1,8.3,1.4,15.5,2.8,21.3c1.4,1.6,3.5,3.9,6.2,6.5
			c9.2,9,16.8,13.2,24.7,18.3c24.1,15.4,27.3,23,47.3,31.2c4.2,1.7,7.1,2.6,7.8,2.8c9.6,3,28,8.6,39.4,0.1c8.4-6.3,8.9-17.8,9-19.1
			c0.5-15.5-12.9-24.5-13.7-25c-8.4-8.5-16.8-17.5-25.3-26.8c-12-13.1-23.2-26.1-33.7-38.8L221.8,1166.1z"/>
		<path class="st13" d="M433.5,999.5c-15.3,2-30.8-7.4-61.8-26.3c-6.4-3.9-10.9-6.9-19.8-13c-29-19.7-47.9-35-56.8-42.5
			c-26.2-21.9-31.8-29.9-35.3-36.1c-4.2-7.4-9.8-17.6-9.7-31.4c0.2-20.2,12.8-34,16.8-38.1l3.2-3.5c16.4-17.8,45.5-17.8,64.8,0
			c17.9,12.5,42.2,30.6,69.3,54.5c50,43.9,74.9,66.5,71.7,92.8C473.4,977,453.1,996.9,433.5,999.5z"/>
		<path class="st14" d="M212.3,1011.6c-15.2-6.2-22.7-21.6-37.7-52.4c-3.1-6.3-5.1-11.1-9-20.5c-12.7-30.5-19.2-52.3-22.2-62.8
			c-8.7-30.8-8.2-40-7.2-46.8c1.3-8,3.2-19.1,12.7-30c14-16.1,34.7-20.7,41.1-22l5.3-1.2c7.8-1.2,23.5-2.6,37.3,5.2
			c12.7,7.2,17.5,18.6,21.1,27.7c21.1,52.8,25.3,78.8,25.3,78.8c10.4,64.1,16.2,96.7,1.3,110.6
			C263.5,1013.8,231.7,1019.5,212.3,1011.6z"/>
		<path class="st13" d="M417.8,736.4c2.4-7.3,0.8-13.4-0.5-16.8c-17.5-33-29.7-60-37.6-78.7c-5.8-13.6-22.1-53-51.3-79.1
			c-1.7-1.5-5.8-5-12.2-7.1c-24.4-8.2-57.1,11.1-61.3,36.1c-1.7,10.3,1.9,19,4.3,23.7l95.4,142.1c2.4,2.7,7.1,7,14.7,8.4
			C387.2,768.1,412.2,753.4,417.8,736.4z"/>
		<path class="st13" d="M505.7,643.4c-48,16.2-96.1,32.4-144.1,48.5c-4.3,2.1-11.6,6.5-15.9,14.8c-10.6,20.1,2.5,50.5,24.5,57
			c9,2.6,17.3,0.5,21.8-1c33.7-11.7,53.5-20.4,78.4-31.2c25.5-11,45.2-16.9,64.7-34c3.3-2.9,9.5-8.6,11.6-17.9
			c2.7-11.8-2-25.9-11.7-32.5C522,638.4,507.2,642.9,505.7,643.4z"/>
		<path class="st15" d="M393.5,671.5c0.8,0.8,2.1,2.3,2.9,4.5c0.6,1.5,0.8,2.9,0.8,3.8c0.7-0.6,2-1.6,3.8-2.2c2-0.7,3.8-0.7,4.8-0.6
			c-4.2,11.7-8.4,24.1-12.3,37.2c-5.3,17.7-9.6,34.7-13.2,50.7c-1.9,0.3-8.9,1.3-16-3c-6.8-4-9.3-10.2-10-12
			c2.7-10.8,6.8-23.6,13.4-37.5C376,695.1,385.4,681.5,393.5,671.5z"/>
		<path class="st16" d="M344.5,744.4c0-1.8-0.3-3.9,0.6-6.3c1.4-3.7,4.5-5.7,5.9-6.5c1.3,3.9,5.1,13.4,14.7,21
			c11.6,9.2,24.1,9.7,28,9.8c-1.2,1.5-3,3.5-5.8,5.2c-7.3,4.5-15,3.5-17.4,3.1c-15-2.5-22.5-15.3-24.2-19.1
			C344.7,748.1,344.5,744.4,344.5,744.4z"/>
		<path class="st14" d="M342.6,821.9c-62.4,4.3-124.9,8.5-187.3,12.8c-5.7-2.4-11.4-4.8-17.1-7.2C118.3,689,117.9,587.8,124.5,579
			c8.8-11.8,19.7-19.4,19.7-19.4l0,0c-1-0.3-1.6-0.7-1.7-1.2c-0.2-1.9,8.7-4.8,26.8-8.7c32.8-1.4,65.6-2.7,98.5-4.1
			c2,0.5,4.6,1.2,7.7,1.8c4.7,0.9,8,1.3,10.7,1.6c0,0,6.5,0.8,16,2.6c3.8,0.7,14.8,5.3,32.6,48.2c3.8,11,12.6,39,14.4,83.4
			c0.1,2.5,0.1,5.6,0.2,11.8c0.4,32.6-0.5,51.9-2.1,87.5c-0.2,4.8-0.6,13.2-2.2,24.1C344.4,813.1,343.4,818.4,342.6,821.9z"/>
		<path class="st17" d="M345.9,799.5c-12.3,4.5-29.3,9.8-50,13.9c-8.6,1.7-27.4,5-60,6.3c-24.6,0.9-58.5,0.7-99.6-4.1
			c-0.7,3.2-1.3,7.1-1.5,11.5c-0.2,4.6,0.2,8.7,0.7,12c53,2.9,92.1,1.2,115.7-0.5c21.5-1.6,35.7-3.7,44.7-5.1
			c23.1-3.8,42.3-8.7,56.4-12.8c-0.2-2.8-0.7-6.5-1.9-10.6C349.2,805.6,347.4,802.1,345.9,799.5z"/>
		<path class="st17" d="M124.5,840.8c-5.9-0.1-11.8-0.1-17.7-0.2c7,33.8,34.3,59,66,62.1c37.6,3.7,74.4-24.2,81.7-65.3
			c-8.8-1.1-17.6-2.2-26.3-3.3c-5.7,22.3-24.4,38.8-46.7,41.3C157.4,878.2,133.8,864,124.5,840.8z"/>
		<path class="st2" d="M127.4,748.9c0.6,4.5,1.2,9,1.8,13.5c6.4,0.6,39.7,3.1,67.5-20.8c18.2-15.7,24.8-34.8,27.2-43.2
			c-2.3-0.6-4.8-1.4-7.4-2.6c-7-3-12-7.1-15.4-10.4c-1.5,7.7-5.7,23.2-18.5,37.5C161.7,746.1,133.7,748.5,127.4,748.9z"/>
		<path class="st18" d="M95.3,770.8c7.3-1.7,11.5-6.2,13.6-9c15.6-21.8,32-47.5,47.9-77c13.1-24.4,23.8-47.7,32.5-69.1
			c1-2.2,2.1-5.6,2.8-9.9c0.6-4.1,0.7-8.9-0.6-14c-3.7-14.8-33.3-40.6-62.8-33.7c-3.2,0.8-10.4,2.8-19.5,10
			c-19.6,15.5-18.4,31.2-36.1,75.6c0,0-17.6,44.2-28.4,83.6c-0.4,1.5-1.3,4.9-0.9,9.2c0.2,2.3,0.8,4.9,1.9,7.6
			C52.6,760.9,78.2,774.7,95.3,770.8z"/>
		<path class="st18" d="M248.5,785.3c-2.6-6.7-7.4-10.4-10.3-12.2L90.6,705.2c-4.7-1.6-13.4-3.7-22.5-0.9c-22.3,7-34.3,39-22.4,59.9
			c4.9,8.6,12.6,13.2,17.1,15.3l152.5,54.7c3.3,0.7,9.2,1.4,15.5-1.7C245.4,825.4,254.5,800.9,248.5,785.3z"/>
		<path class="st19" d="M155.6,524.7c-9.8-11.4-14.8-25.9-14.8-25.9c-0.9-2.4-3.8-10.6-5.2-22c-1-8.2-0.8-15.3-0.4-20.7
			c0.7-10,3.7-30.7,18-48.7c23.5-29.5,59.6-29.7,75.3-29.8c9-0.1,48.8,0.8,72.3,26.7c13.6,15.1,17.9,32.3,17.9,32.3
			c1.2,5,1.9,10.2,2,15.6l0.4,20.7c0.8,8.8,1.9,33.6-14.5,52.4c-7,8.1-14.8,12.4-21.4,15.9c-5.8,3.2-22.8,11.7-46.9,13
			C197,556.5,164.8,535.4,155.6,524.7z"/>
		<path class="st13" d="M298,533.8c-16.1,7.4-36.5,8.5-36.5,8.5s-43.7,2.4-70.4-6.1c-3-0.9-7-2.8-10.7-6.5c0,0-2.5-2.5-4.4-5.8
			c-9-15.6-9.2-65.6-4.3-83.7c0.3-1.3,1-3.4,2.5-5.7c4.1-6.3,10.4-7.9,12-8.3c20-3.4,43.8-5.6,70.6-4.6c14.6,0.6,28.1,2,40.5,3.9
			c2.2,0.8,5.6,2.3,8.4,5.6c2.1,2.5,3.1,5,3.7,6.6c6.7,19.1,7.2,40.4,7.2,40.4s0.9,37.5-8.3,48.2c-1.4,1.7-3.2,3-3.2,3
			S302,532,298,533.8z"/>
		<path class="st3" d="M305.4,529.3c-16.8,7.4-38.1,8.5-38.1,8.5c0,0-45.5,2.3-73-6.4c-2.2-0.7-7-2.5-10.8-6.6
			c-1.9-2.1-2.9-4.4-3.6-6.3c-6.7-17.4-7-63.8-1-81.5c0.4-1.3,1.2-3.3,2.8-5.4c4.4-6,10.8-7.5,12.5-7.9c20.2-3.1,44.2-5.2,71.1-4.1
			c14.7,0.6,28.2,1.9,40.6,3.8c2.2,0.7,5.6,2.2,8.4,5.4c2.1,2.4,3.1,4.8,3.6,6.3c6.6,18.3,7.1,39.1,7.1,39.1s0.7,37.1-8.9,47.8
			c-1.5,1.7-3.3,3-3.3,3S309.5,527.5,305.4,529.3z"/>
		<path class="st3" d="M174,539.8c0.5,3.3,1,6.6,1.5,9.9c5.1,2.5,12,5.3,20.3,7.8c6.3,1.9,19.8,5.3,37.6,5.6
			c12.3,0.2,24.4,0.4,38-5.5c6.2-2.7,10.8-5.8,13.9-8.1c-0.1-2.7-0.1-5.4-0.2-8.1c-3.8,2.1-9.1,4.8-15.8,7c-2.2,0.8-11.6,3.8-26,4.9
			c-8.6,0.7-26.5,1.9-48.2-4.8C186,545.6,178.9,542.3,174,539.8z"/>
		<path class="st14" d="M220.3,1169.3c-5.9-5-5.5-10-14-53.7c-3.4-17.7-3.4-15.9-4.6-23c-13-82.4-19.8-125.6,4.8-148.5
			c6-5.6,16.6-12.5,36-14.9l4.4-0.2c4.1,0.3,17.8,1.9,29.4,12.6c3,2.7,8.6,9,14.4,32.2c1.5,6.2,7.4,30.6,7.5,87.8c0,3.3,0,2.4,0,5.3
			c0.1,27.8,1.3,50.8,0.8,81c-0.3,14.8-0.8,19.7-4.8,23.8c-3.5,3.5-9,5.8-30.3,4.8C238.5,1175,226,1174.1,220.3,1169.3z"/>
		<path class="st13" d="M443.7,1142.1c-3.2-1-10-4.6-26.3-53.4c-3.9-11.8-6.1-20.3-6.1-20.3c-18.8-72.8-28.7-111-9.1-133.7
			c4.8-5.5,13.5-12.7,30.4-16.5l3.9-0.6c1.8,0,5.8,0,10.7,1.2c1.3,0.3,9.2,2.2,16.3,7.6c12.6,9.6,15,24.3,15.5,27.6
			c4.7,29.5,9.2,52.5,12.4,68.3c0,0,7.7,37.3,9.1,65.6c0.1,2,0.1,2.1,0.1,3.8c0,2.3,0.1,9.3,0.1,9.3c0.3,14.5,0.5,21.7-1.9,25.6
			c-1.4,2.4-4.8,6.5-13.5,8.8c-3.6,0.8-8.9,1.8-15.3,3C454.1,1141.4,446.2,1142.8,443.7,1142.1z"/>
		<path class="st18" d="M223.3,833.4c5.6,3.9,13.7,9,23.9,14.1c16.3,8.2,27.9,14,42.7,14.4c7,0.2,21.6-0.6,38.9-11.4
			c2-1.6,5.5-4.8,7.7-10.1c1-2.2,4.6-10.6,1.3-16.1c-1.5-2.4-4.2-4.1-32.1-7.1c-8.8-1-16-1.6-23-6.8c-2.6-1.9-4.4-3.9-5.6-5.4
			c4.3-2.9,7.8-3.5,10.3-3.4c6.3,0.1,10.5,4.3,13.2,2.2c1.1-0.9,1.9-2.5,1.5-3.8c-0.4-1.4-1.5-2.5-2.6-3.5c-1.4-1.4-2.8-3.2-4.4-4.3
			c-6.5-4.3-13.9-7.1-21.6-8c-1.8-0.2-3.7-0.3-5.5,0c-2.1,0.4-3.5,1.1-4.9,1.8c-5.7,2.8-8.6,4.3-10.4,4.5c-2.2,0.3-5.5,0-10-3.5
			c-4.6,6.1-9.7,14-13.2,23.1c-2.5,6.6-4.3,14.2-4.8,16.4C224.1,829.4,223.6,831.7,223.3,833.4z"/>
		<path class="st13" d="M532.2,695.5c8.8-3.1,21.5-7.8,36.5-14.2c40.4-17.3,43.9-24.4,45.4-27.5c9-18.5-3.8-47.8-21.9-49.7
			c-8.2-0.8-15.8,3.3-21.1,6.5c-7.7,4.7-12.3,10.5-14.8,14.2c-0.2-0.7-0.4-1.9-0.2-3.2c0.3-1.3,0.9-2.4,3-4.7
			c2.4-2.6,3.8-3.7,3.8-3.7c7.6-6.1,11.8-7,12.2-10.1c0.2-1.6-0.6-3.4-1.9-4c-1.5-0.6-3.3-0.4-5-0.2c-2.2,0.3-4.8,0.1-7,0.8
			c-8.6,2.7-16.8,7.3-23.6,13.4c-1.6,1.5-3.2,3-4.3,4.8c-0.3,0.6-0.6,1.1-0.9,1.6c-1,1.9-1.4,3.5-1.5,4c-0.8,3-2.9,7.3-5.5,10.7
			c-1.5,1.9-2.5,3.2-4.3,4.3c-1.3,0.8-2.3,1.2-4.3,1.8c-2.4,0.8-5.2,1.7-8.3,2.7c2.9,2.5,7.1,6.6,10.3,12.7c3,5.7,1.7,6.7,5.5,14.4
			c4.1,8.3,8.6,10.4,9.6,15.9C534.4,688.3,534.3,691.4,532.2,695.5z"/>
		
			<rect x="535.9" y="110.2" transform="matrix(0.9632 -0.2688 0.2688 0.9632 -124.9158 166.3407)" class="st18" width="18" height="858.2"/>
		<path class="st7" d="M433.4,124.9c14.9-17.7,41.4-44.1,81.1-58.9c71.3-26.6,120.7,8.4,207.3-4.9c29.7-4.6,74.4-16.4,126.7-52
			c15.2,26.7,32,61.9,44.8,104.8c15.4,51.5,20.2,97.2,21.2,131.6c-20.9,11-55.3,26.7-100.1,35.7c-95.5,19.2-145.5-11-220.8,16
			c-23.7,8.5-58.1,25.5-94.2,64.2C477.4,282.6,455.4,203.7,433.4,124.9z"/>
		<path class="st3" d="M573.2,672.3c-6.7-3.5-9.5-9.8-14.6-21.4c-8-18.4-6.2-25.2-5.6-27c0.7-2.3,1.9-4.3,2-4.5
			c2.8-4.7,6.8-7.3,10.8-9.2c11.4-5.5,26-12.5,37.8-4.8c4.3,2.8,7.4,6.4,10.6,11.8c2.9,4.9,5.9,9.9,7.9,15.3
			c2.3,6,3.7,11.4,2.5,17.2c-2,9.3-10.4,14-19.3,19c-5.1,2.8-13.6,7.5-24.3,6C578.9,674.2,576.3,673.9,573.2,672.3z"/>
		<path class="st18" d="M157.1,582.5"/>
	</g>
	<g id="Layer_6">
		<path class="st2" d="M142.2,556.5c10.1-2.7,20.2-5.4,30.3-8.2c7.3,2.4,20.5,7.8,33.2,19.8c12.8,12.3,18.8,25.5,21.5,32.7
			c-3.5,0.3-7.5,0.8-11.8,1.7c-4.9,1-9.3,2.3-13,3.7c-2.6-7-10.9-26.8-32-39.7C159.6,559.9,149.2,557.5,142.2,556.5z"/>
		<path class="st2" d="M286.1,548.7c7.9,1,15.9,2,23.8,3c4.4,2.6,12.4,8.2,18.8,18.1c7.3,11.2,8.7,22.1,9.1,27.3
			c-6.2,0.1-12.3,0.1-18.5,0.2c-0.2-5.2-1.3-14.9-7.2-25.2C303.7,557.3,290.8,550.8,286.1,548.7z"/>
		<path class="st6" d="M336.3,693.5l-121.2,4.9c-7.6,0.3-14.1-5.7-14.5-13.3l-2.8-68.9c-0.3-7.6,5.7-14.1,13.3-14.5l121.2-4.9
			c7.6-0.3,14.1,5.7,14.5,13.3l2.8,68.9C350,686.7,344,693.2,336.3,693.5z"/>
		<path class="st2" d="M348.7,755.6c0.1-0.7,0.1-1.4,0.2-2.1c-0.4-9-1.6-19.9-4.5-32c-3.2-13.6-7.6-25-11.8-33.9
			c5.2-1.7,10.4-3.4,15.6-5.1c3.2,6.9,7.4,18.4,8,33.1C357.1,734,352,748.2,348.7,755.6z"/>
		<path class="st17" d="M347.1,692.9l-119.3,4.9c-7.5,0.3-13.9-5.8-14.3-13.6l-2.8-68.9c-0.3-7.5,5.5-13.8,12.8-14.1l116.4-4.7
			c7.3-0.3,13.8,5.6,14.4,13l5.4,68.7C360.3,686,354.7,692.6,347.1,692.9z"/>
		<path class="st17" d="M385.7,847.3c-2.8-2.5-5.2-4.5-6.9-5.9c-10.4-8.6-18.6-13.8-21.2-15.5c-1.7-1.1-3.1-1.9-4.1-2.5
			c-5.4-3.2-12.9-7.4-22.8-11.6c5.2-3.7,10.3-7.5,15.5-11.2c5.9,2.1,15.4,6.5,24,15.3c2.8,2.9,8.3,8.7,12.1,18.2
			C384.4,839.3,385.3,844,385.7,847.3z"/>
		<path class="st20" d="M138.9,716.1c-0.3,1.3-0.7,3.1-1.8,5c-0.6,1.2-1.4,2.2-2,3c0.9,0.1,2.4,0.5,4,1.5c1.7,1.1,2.8,2.5,3.3,3.3
			c-11.5,5.5-23.1,11-35,16.4c-13.5,6.2-26.8,12.2-40,18c-0.9-3.8-2-7.8-3.3-11.9c-2-6.5-4.2-12.4-6.4-17.8
			c10.6-2.9,21.8-5.7,33.3-8.3C107.7,721.5,123.7,718.5,138.9,716.1z"/>
		<path class="st20" d="M138.9,716.1c-0.3,1.3-0.7,3.1-1.8,5c-0.6,1.2-1.4,2.2-2,3c0.9,0.1,2.4,0.5,4,1.5c1.7,1.1,2.8,2.5,3.3,3.3
			c-11.5,5.5-23.1,11-35,16.4c-13.5,6.2-26.8,12.2-40,18c-0.9-3.8-2-7.8-3.3-11.9c-2-6.5-4.2-12.4-6.4-17.8
			c10.6-2.9,21.8-5.7,33.3-8.3C107.7,721.5,123.7,718.5,138.9,716.1z"/>
		<path class="st20" d="M393.7,993.6c-0.4-0.8-1-2.1-1.2-3.8c-0.2-1.5,0-2.8,0.1-3.7c-0.7-0.2-1.4-0.4-2.1-0.8
			c-1.7-0.8-2.9-1.7-3.8-2.5c8.1-6.9,17.4-14,27.8-21.2c11.4-7.8,22.4-14.2,32.5-19.5c0.9,4.8,2.1,9.9,3.5,15.2
			c1.4,5.3,2.9,10.3,4.5,15c-9,3.2-18.1,6.5-27.3,9.7C416.3,985.9,405,989.8,393.7,993.6z"/>
		<path class="st20" d="M189.7,998.4c-0.3-1.5-0.6-3.5-0.5-5.8c0.1-1.6,0.3-3,0.5-4.2c-0.7-0.9-1.3-1.9-2-3c-1.1-1.9-2-3.7-2.7-5.3
			c10.8-0.7,21.9-1.5,33.2-2.5c10.6-0.9,21-2,31.2-3.1c-0.7,3-1.3,6.1-1.8,9.4c-0.8,5.2-1.3,10-1.6,14.5c-7.7,0.7-15.9,1.1-24.7,1.3
			C210,999.7,199.4,999.2,189.7,998.4z"/>
	</g>
	<g id="Layer_4">
		<path class="st11" d="M311.6,463.4c-0.4-7.8-1.7-13.7-2.1-15.3c-1.2-5-2.6-9.1-3.9-12.2c-4.8,0.2-9.5,0.5-14.3,0.7
			c2.6,13.9,5.2,27.9,7.9,41.8c4-0.3,8-0.6,11.9-1C311.7,472,311.7,467.2,311.6,463.4z"/>
		<path class="st11" d="M312,500.7c0.4-1.5,0.8-3.4,0.9-5.7c0.1-2.8-0.3-5.2-0.7-7c-4.3,0-8.6,0.1-12.9,0.1
			c0.3,4.2,0.6,8.4,0.9,12.6C304.2,500.8,308.1,500.7,312,500.7z"/>
		<path class="st21" d="M317,463.4c-0.4-7.8-1.7-13.7-2.1-15.3c-1.2-5-2.6-9.1-3.9-12.2c-4.8,0.2-9.5,0.5-14.3,0.7
			c2.6,13.9,5.2,27.9,7.9,41.8c4-0.3,8-0.6,11.9-1C317.1,472,317.1,467.2,317,463.4z"/>
		<path class="st21" d="M317.4,500.7c0.4-1.5,0.8-3.4,0.9-5.7c0.1-2.8-0.3-5.2-0.7-7c-4.3,0-8.6,0.1-12.9,0.1
			c0.3,4.2,0.6,8.4,0.9,12.6C309.6,500.8,313.5,500.7,317.4,500.7z"/>
		<path class="st22" d="M159.2,469.5c0.4-12-4-30.1-13.7-31.9c-9.8-1.8-23.5,13.5-23.8,29c-0.3,16.6,15,32.7,24.9,30.5
			C155.4,495.2,158.9,478.8,159.2,469.5z"/>
		<path class="st8" d="M153.7,469.5c0.4-12-4-30.1-13.7-31.9c-9.8-1.8-23.5,13.5-23.8,29c-0.3,16.6,15,32.7,24.9,30.5
			C149.9,495.2,153.4,478.8,153.7,469.5z"/>
		<path class="st23" d="M284.2,1019.4l-26.2,2.4c-3.1,0.2-8.7-0.1-12.1-4.2c-2.7-3.2-2.6-7.3-2.7-11.4c-0.3-14.3-0.7-29.6-3.3-42.7
			c-1.1-5.5-2.3-9.5-0.3-13.3c2.3-4.4,7.5-5.8,11.1-6.4l26.2-2.4c2.5,0,7.8,0.3,12.1,4.2c3.1,2.8,4.4,6.4,6,12.3
			c3.7,14.1,5,27.5,3.9,42c-0.4,6.1-1.1,9.8-3.6,13.1C291.8,1017.7,286.7,1019,284.2,1019.4z"/>
		<path class="st16" d="M478.8,982.1l-20.4,5.6c-2.3,0.5-5.3,0.6-7.5-1.1c-2.9-2.3-2.1-6.6-2.2-12.4c0-1.4-0.7-16.4-7.3-29.3
			c-1.8-3.4-4.2-7.1-3.1-11.5c0.6-2.6,2.2-4.5,3.5-5.8l20.4-5.6c2-0.4,6.2-0.9,10.1,1.6c2.9,1.8,4.4,4.4,6.5,8.7
			c4.9,10.5,7.8,20.9,9,32.4c0.5,4.8,0.5,7.8-1,10.8C484.6,979.6,480.7,981.4,478.8,982.1z"/>
		<path class="st24" d="M46.1,720.7c1.4-0.8,3.5-1.8,6.3-2.2c3.8-0.6,6.9,0.2,8.5,0.8c0.1,6.8,1.2,12.2,2.2,15.8
			c3.2,11.7,9.1,19.9,14.1,26.7c3.3,4.5,6.3,7.9,8.4,10.2c-1,1.8-3.5,5.5-8.3,8c-2.7,1.4-5.2,2-7,2.2c-13.5-0.8-25.5-8.8-31.2-20.8
			C33,748,35.7,731.8,46.1,720.7z"/>
		<path class="st25" d="M334.4,671.9L334.4,671.9c-1.7,0.1-3.2-1.3-3.2-3l-0.7-19.4c-0.1-1.7,1.3-3.2,3-3.2l0,0
			c1.7-0.1,3.2,1.3,3.2,3l0.7,19.4C337.4,670.4,336.1,671.9,334.4,671.9z"/>
		<path class="st26" d="M347.6,671.1L347.6,671.1c-1.7,0.1-3.2-1.3-3.2-3l-0.7-19.4c-0.1-1.7,1.3-3.2,3-3.2l0,0
			c1.7-0.1,3.2,1.3,3.2,3l0.7,19.4C350.6,669.6,349.3,671.1,347.6,671.1z"/>
		<path class="st8" d="M232.9,675.6L232.9,675.6c-1.7,0.1-3.2-1.3-3.2-3l-0.7-19.4c-0.1-1.7,1.3-3.2,3-3.2h0c1.7-0.1,3.2,1.3,3.2,3
			l0.7,19.4C235.9,674.1,234.6,675.5,232.9,675.6z"/>
		<path class="st27" d="M220.5,676.4L220.5,676.4c-1.7,0.1-3.2-1.3-3.2-3l-0.7-19.4c-0.1-1.7,1.3-3.2,3-3.2h0c1.7-0.1,3.2,1.3,3.2,3
			l0.7,19.4C223.5,674.9,222.2,676.3,220.5,676.4z"/>
		<path class="st13" d="M351.8,680.4l-128.5,4.8c-1.4,0.1-2.5,1.2-2.4,2.6l0,0c0.1,1.4,1.2,2.5,2.6,2.4l128.5-4.8
			c1.4-0.1,2.5-1.2,2.4-2.6l0,0C354.4,681.4,353.2,680.4,351.8,680.4z"/>
		<path class="st13" d="M346.6,603.1L218,607.9c-1.4,0.1-2.5,1.2-2.4,2.6l0,0c0.1,1.4,1.2,2.5,2.6,2.4l128.5-4.8
			c1.4-0.1,2.5-1.2,2.4-2.6l0,0C349.2,604.1,348,603,346.6,603.1z"/>
		<path class="st28" d="M223.2,675.6L223.2,675.6c-1.7,0.1-3.2-1.3-3.2-3l-0.7-19.4c-0.1-1.7,1.3-3.2,3-3.2l0,0
			c1.7-0.1,3.2,1.3,3.2,3l0.7,19.4C226.3,674.1,224.9,675.5,223.2,675.6z"/>
		<path class="st28" d="M235.3,675L235.3,675c-1.7,0.1-3.2-1.3-3.2-3l-0.7-19.4c-0.1-1.7,1.3-3.2,3-3.2l0,0c1.7-0.1,3.2,1.3,3.2,3
			l0.7,19.4C238.4,673.4,237,674.9,235.3,675z"/>
		<path class="st28" d="M336.8,671.1L336.8,671.1c-1.7,0.1-3.2-1.3-3.2-3l-0.7-19.4c-0.1-1.7,1.3-3.2,3-3.2l0,0
			c1.7-0.1,3.2,1.3,3.2,3l0.7,19.4C339.8,669.6,338.5,671.1,336.8,671.1z"/>
		<path class="st28" d="M348.9,670.5L348.9,670.5c-1.7,0.1-3.2-1.3-3.2-3l-0.7-19.4c-0.1-1.7,1.3-3.2,3-3.2l0,0
			c1.7-0.1,3.2,1.3,3.2,3l0.7,19.4C352,669,350.7,670.4,348.9,670.5z"/>
		<path class="st27" d="M50.1,563.6L50.1,563.6c-1.7,0-3.1-1.4-3.1-3.1l0-19.4c0-1.7,1.4-3.1,3.1-3.1h0c1.7,0,3.1,1.4,3.1,3.1
			l0,19.4C53.2,562.2,51.8,563.6,50.1,563.6z"/>
		<path class="st27" d="M69.8,568.9L69.8,568.9c-1.7,0-3.1-1.4-3.1-3.1l0-19.4c0-1.7,1.4-3.1,3.1-3.1h0c1.7,0,3.1,1.4,3.1,3.1
			l0,19.4C72.9,567.5,71.5,568.9,69.8,568.9z"/>
		<path class="st27" d="M90.7,574L90.7,574c-1.7,0-3.1-1.4-3.1-3.1l0-19.4c0-1.7,1.4-3.1,3.1-3.1h0c1.7,0,3.1,1.4,3.1,3.1l0,19.4
			C93.8,572.6,92.4,574,90.7,574z"/>
		<ellipse class="st4" cx="52.3" cy="579.4" rx="5.4" ry="9"/>
		<ellipse class="st4" cx="72.1" cy="586.1" rx="5.4" ry="9"/>
		<ellipse class="st5" cx="50" cy="579.4" rx="5.6" ry="9"/>
		<ellipse class="st5" cx="69.9" cy="586.1" rx="5.6" ry="9"/>
	</g>
	<g id="Layer_8">
		<g>
			<path class="st29" d="M217.8,626.7l6.1-0.2c0.7,0,1.5,0.3,2.2,0.9c0.7,0.6,1.1,1.3,1.1,2.2c0,0.3-0.1,0.6-0.3,0.9
				c-0.2,0.2-0.5,0.4-0.8,0.4c-0.4,0-0.7-0.1-0.8-0.2c-0.2-0.2-0.3-0.5-0.5-1c-0.2-0.5-0.5-0.7-0.9-0.7l-5.8,0.2
				c-0.3,0-0.4,0.1-0.4,0.3c0,0.1,0.1,0.2,0.2,0.4l9.2,10.8c0.4,0.5,0.7,1.1,0.7,1.7c0,0.7-0.2,1.3-0.7,1.9c-0.5,0.6-1,0.8-1.7,0.9
				l-6.3,0.3c-0.8,0-1.6-0.3-2.2-0.9s-1-1.3-1-2.1c0-0.9,0.4-1.3,1.2-1.4c0.3,0,0.6,0.1,0.8,0.3c0.2,0.2,0.4,0.5,0.4,0.8
				c0,0.3,0.1,0.5,0.3,0.6c0.2,0.2,0.4,0.2,0.7,0.2l5.8-0.2c0.3,0,0.4-0.1,0.4-0.3c0-0.1-0.1-0.2-0.2-0.4l-9.1-10.8
				c-0.4-0.5-0.7-1.1-0.7-1.7c0-0.7,0.2-1.4,0.7-1.9C216.5,627.1,217.1,626.8,217.8,626.7z"/>
			<path class="st29" d="M244.8,638.5l0,1c0.1,1.3-0.4,2.4-1.2,3.4c-0.9,1-2,1.5-3.3,1.5l-7.2,0.3l-0.7-18.6l7.2-0.3
				c1.3-0.1,2.4,0.4,3.4,1.3c1,0.9,1.5,2,1.5,3.3l0,1c0.1,1.4-0.4,2.6-1.5,3.6C244.1,636,244.7,637.1,244.8,638.5z M242.1,631.5l0-1
				c0-0.7-0.3-1.2-0.8-1.6s-1-0.7-1.7-0.6l-4.8,0.2l0.2,5.7l4.8-0.2c0.6,0,1.2-0.3,1.6-0.8S242.1,632.1,242.1,631.5z M242.4,639.6
				l0-1c0-0.7-0.3-1.2-0.8-1.6s-1-0.7-1.7-0.6l-4.7,0.2l0.2,5.7l4.7-0.2c0.6,0,1.2-0.3,1.6-0.8C242.2,640.8,242.4,640.3,242.4,639.6
				z"/>
			<path class="st29" d="M250.3,640.5l-0.5-13.8c0-0.3,0.1-0.6,0.3-0.9c0.2-0.2,0.5-0.4,0.8-0.4c0.3,0,0.6,0.1,0.8,0.3
				s0.4,0.5,0.4,0.8l0.5,13.9c0,0.3,0.1,0.6,0.4,0.8c0.2,0.2,0.5,0.3,0.8,0.3l4.8-0.2c0.3,0,0.6-0.1,0.8-0.4
				c0.2-0.2,0.3-0.5,0.3-0.8l-0.5-13.8c0-0.3,0.1-0.6,0.3-0.9c0.2-0.2,0.5-0.4,0.8-0.4c0.3,0,0.6,0.1,0.8,0.3
				c0.2,0.2,0.4,0.5,0.4,0.8l0.5,13.8c0,1-0.3,1.8-0.9,2.5c-0.7,0.7-1.5,1.1-2.4,1.1l-4.8,0.2c-1,0-1.8-0.3-2.5-0.9
				S250.3,641.5,250.3,640.5z"/>
			<path class="st29" d="M284.9,641.5l-0.6-16.2c0-0.3,0.1-0.6,0.3-0.8c0.2-0.2,0.5-0.4,0.8-0.4c0.3,0,0.6,0.1,0.8,0.3
				c0.2,0.2,0.4,0.5,0.4,0.8l0.3,6.9l7.1-0.3l-0.3-6.9c0-0.3,0.1-0.6,0.3-0.8c0.2-0.2,0.5-0.4,0.8-0.4c0.3,0,0.6,0.1,0.8,0.3
				c0.2,0.2,0.4,0.5,0.4,0.8l0.6,16.2c0,0.3-0.1,0.6-0.3,0.8c-0.2,0.2-0.5,0.4-0.8,0.4c-0.3,0-0.6-0.1-0.9-0.3
				c-0.2-0.2-0.4-0.5-0.4-0.8l-0.3-7l-7.1,0.3l0.3,7c0,0.3-0.1,0.6-0.3,0.8c-0.2,0.2-0.5,0.4-0.8,0.4c-0.3,0-0.6-0.1-0.8-0.3
				S284.9,641.8,284.9,641.5z"/>
			<path class="st29" d="M302.3,640.4l4.1-16.2c0.2-0.6,0.5-0.9,1.2-0.9c0.6,0,1,0.2,1.1,0.7L314,640c0,0.1,0.1,0.2,0.1,0.3
				c0,0.3-0.1,0.6-0.3,0.8s-0.5,0.4-0.8,0.4c-0.6,0-1-0.2-1.2-0.8l-1.1-3.1l-5.4,0.2l-0.9,3.5c0,0.1-0.1,0.3-0.3,0.4
				c-0.2,0.1-0.4,0.2-0.7,0.2c-0.3,0-0.6-0.1-0.9-0.3c-0.2-0.2-0.4-0.5-0.4-0.8C302.2,640.6,302.3,640.5,302.3,640.4z M307.7,628.6
				l-1.7,6.8l4-0.2L307.7,628.6z"/>
			<path class="st29" d="M325.9,638.7l4.2-0.2c0.3,0,0.6,0.1,0.9,0.3c0.2,0.2,0.4,0.5,0.4,0.8c0,0.3-0.1,0.6-0.3,0.8
				c-0.2,0.2-0.5,0.4-0.8,0.4l-4.4,0.2c-0.6,0-1.1-0.1-1.8-0.5s-1-0.7-1.3-1.1l-2.9-5.1c-0.4-0.7-0.6-1.5-0.6-2.3
				c0-0.9,0.1-1.6,0.4-2.3l2.5-5.3c0.2-0.5,0.6-0.9,1.2-1.3c0.5-0.4,1.1-0.6,1.6-0.6l4.6-0.2c0.3,0,0.6,0.1,0.8,0.3s0.4,0.5,0.4,0.8
				c0,0.3-0.1,0.6-0.3,0.9c-0.2,0.2-0.5,0.4-0.8,0.4l-4.5,0.2c-0.4,0-0.7,0.2-0.9,0.7l-2.4,5c-0.2,0.4-0.3,0.8-0.3,1.4
				c0,0.6,0.2,1,0.4,1.4l2.7,4.7C325,638.5,325.4,638.7,325.9,638.7z"/>
			<path class="st29" d="M336.8,639.4l-0.6-16.2c0-0.3,0.1-0.6,0.3-0.9c0.2-0.2,0.5-0.4,0.8-0.4c0.3,0,0.6,0.1,0.8,0.3
				c0.2,0.2,0.4,0.5,0.4,0.8l0.2,5.5l7.3-6.7c0.3-0.2,0.5-0.3,0.9-0.3c0.3,0,0.6,0.1,0.8,0.3c0.2,0.2,0.4,0.5,0.4,0.8
				c0,0.3-0.1,0.6-0.4,0.8l-8.2,7.6l8.8,7c0.2,0.2,0.4,0.4,0.4,0.7c0,0.3-0.1,0.6-0.3,0.9c-0.2,0.3-0.5,0.4-0.8,0.4
				c-0.3,0-0.6-0.1-0.9-0.3l-7.7-6.1l0.2,5.6c0,0.3-0.1,0.6-0.3,0.8c-0.2,0.2-0.5,0.4-0.8,0.4c-0.3,0-0.6-0.1-0.8-0.3
				C336.9,640,336.8,639.8,336.8,639.4z"/>
		</g>
		<g>
			<path class="st30" d="M219.1,625.6l6.1-0.2c0.7,0,1.5,0.3,2.2,0.9c0.7,0.6,1.1,1.3,1.1,2.2c0,0.3-0.1,0.6-0.3,0.9
				s-0.5,0.4-0.8,0.4c-0.4,0-0.7-0.1-0.8-0.2c-0.2-0.2-0.3-0.5-0.5-1c-0.2-0.5-0.5-0.7-0.9-0.7l-5.8,0.2c-0.3,0-0.4,0.1-0.4,0.3
				c0,0.1,0.1,0.2,0.2,0.4l9.2,10.8c0.4,0.5,0.7,1.1,0.7,1.7c0,0.7-0.2,1.3-0.7,1.9s-1,0.8-1.7,0.9l-6.3,0.3c-0.8,0-1.6-0.3-2.2-0.9
				c-0.6-0.6-1-1.3-1-2.1c0-0.9,0.4-1.3,1.2-1.4c0.3,0,0.6,0.1,0.8,0.3c0.2,0.2,0.4,0.5,0.4,0.8c0,0.3,0.1,0.5,0.3,0.6
				c0.2,0.2,0.4,0.2,0.7,0.2l5.8-0.2c0.3,0,0.4-0.1,0.4-0.3c0-0.1-0.1-0.2-0.2-0.4l-9.1-10.8c-0.4-0.5-0.7-1.1-0.7-1.7
				c0-0.7,0.2-1.4,0.7-1.9C217.7,625.9,218.4,625.6,219.1,625.6z"/>
			<path class="st30" d="M246,637.4l0,1c0.1,1.3-0.4,2.4-1.2,3.4c-0.9,1-2,1.5-3.3,1.5l-7.2,0.3l-0.7-18.6l7.2-0.3
				c1.3-0.1,2.4,0.4,3.4,1.3c1,0.9,1.5,2,1.5,3.3l0,1c0.1,1.4-0.4,2.6-1.5,3.6C245.4,634.8,246,636,246,637.4z M243.4,630.3l0-1
				c0-0.7-0.3-1.2-0.8-1.6s-1-0.7-1.7-0.6l-4.8,0.2l0.2,5.7l4.8-0.2c0.6,0,1.2-0.3,1.6-0.8S243.4,631,243.4,630.3z M243.7,638.5l0-1
				c0-0.7-0.3-1.2-0.8-1.6c-0.5-0.4-1-0.7-1.7-0.6l-4.7,0.2l0.2,5.7l4.7-0.2c0.6,0,1.2-0.3,1.6-0.8
				C243.5,639.7,243.7,639.1,243.7,638.5z"/>
			<path class="st30" d="M251.6,639.4l-0.5-13.8c0-0.3,0.1-0.6,0.3-0.9c0.2-0.2,0.5-0.4,0.8-0.4c0.3,0,0.6,0.1,0.8,0.3
				c0.2,0.2,0.4,0.5,0.4,0.8l0.5,13.9c0,0.3,0.1,0.6,0.4,0.8c0.2,0.2,0.5,0.3,0.8,0.3l4.8-0.2c0.3,0,0.6-0.1,0.8-0.4
				c0.2-0.2,0.3-0.5,0.3-0.8l-0.5-13.8c0-0.3,0.1-0.6,0.3-0.9c0.2-0.2,0.5-0.4,0.8-0.4c0.3,0,0.6,0.1,0.8,0.3s0.4,0.5,0.4,0.8
				l0.5,13.8c0,1-0.3,1.8-0.9,2.5c-0.7,0.7-1.5,1.1-2.4,1.1l-4.8,0.2c-1,0-1.8-0.3-2.5-0.9C252,641.2,251.6,640.4,251.6,639.4z"/>
			<path class="st30" d="M286.2,640.4l-0.6-16.2c0-0.3,0.1-0.6,0.3-0.8c0.2-0.2,0.5-0.4,0.8-0.4c0.3,0,0.6,0.1,0.8,0.3
				s0.4,0.5,0.4,0.8l0.3,6.9l7.1-0.3l-0.3-6.9c0-0.3,0.1-0.6,0.3-0.8c0.2-0.2,0.5-0.4,0.8-0.4c0.3,0,0.6,0.1,0.8,0.3
				c0.2,0.2,0.4,0.5,0.4,0.8l0.6,16.2c0,0.3-0.1,0.6-0.3,0.8c-0.2,0.2-0.5,0.4-0.8,0.4c-0.3,0-0.6-0.1-0.9-0.3
				c-0.2-0.2-0.4-0.5-0.4-0.8l-0.3-7l-7.1,0.3l0.3,7c0,0.3-0.1,0.6-0.3,0.8c-0.2,0.2-0.5,0.4-0.8,0.4c-0.3,0-0.6-0.1-0.8-0.3
				C286.3,641,286.2,640.7,286.2,640.4z"/>
			<path class="st30" d="M303.6,639.2l4.1-16.2c0.2-0.6,0.5-0.9,1.2-0.9c0.6,0,1,0.2,1.1,0.7l5.3,16.1c0,0.1,0.1,0.2,0.1,0.3
				c0,0.3-0.1,0.6-0.3,0.8c-0.2,0.2-0.5,0.4-0.8,0.4c-0.6,0-1-0.2-1.2-0.8l-1.1-3.1l-5.4,0.2l-0.9,3.5c0,0.1-0.1,0.3-0.3,0.4
				c-0.2,0.1-0.4,0.2-0.7,0.2c-0.3,0-0.6-0.1-0.9-0.3c-0.2-0.2-0.4-0.5-0.4-0.8C303.5,639.5,303.5,639.4,303.6,639.2z M309,627.5
				l-1.7,6.8l4-0.2L309,627.5z"/>
			<path class="st30" d="M327.2,637.6l4.2-0.2c0.3,0,0.6,0.1,0.9,0.3c0.2,0.2,0.4,0.5,0.4,0.8s-0.1,0.6-0.3,0.8
				c-0.2,0.2-0.5,0.4-0.8,0.4l-4.4,0.2c-0.6,0-1.1-0.1-1.8-0.5s-1-0.7-1.3-1.1l-2.9-5.1c-0.4-0.7-0.6-1.5-0.6-2.3
				c0-0.9,0.1-1.6,0.4-2.3l2.5-5.3c0.2-0.5,0.6-0.9,1.2-1.3c0.5-0.4,1.1-0.6,1.6-0.6l4.6-0.2c0.3,0,0.6,0.1,0.8,0.3
				c0.2,0.2,0.4,0.5,0.4,0.8c0,0.3-0.1,0.6-0.3,0.9c-0.2,0.2-0.5,0.4-0.8,0.4l-4.5,0.2c-0.4,0-0.7,0.2-0.9,0.7l-2.4,5
				c-0.2,0.4-0.3,0.8-0.3,1.4c0,0.6,0.2,1,0.4,1.4l2.7,4.7C326.2,637.4,326.6,637.6,327.2,637.6z"/>
			<path class="st30" d="M338,638.3l-0.6-16.2c0-0.3,0.1-0.6,0.3-0.9c0.2-0.2,0.5-0.4,0.8-0.4c0.3,0,0.6,0.1,0.8,0.3
				c0.2,0.2,0.4,0.5,0.4,0.8l0.2,5.5l7.3-6.7c0.3-0.2,0.5-0.3,0.9-0.3c0.3,0,0.6,0.1,0.8,0.3c0.2,0.2,0.4,0.5,0.4,0.8
				c0,0.3-0.1,0.6-0.4,0.8l-8.2,7.6l8.8,7c0.2,0.2,0.4,0.4,0.4,0.7c0,0.3-0.1,0.6-0.3,0.9c-0.2,0.3-0.5,0.4-0.8,0.4
				c-0.3,0-0.6-0.1-0.9-0.3l-7.7-6.1l0.2,5.6c0,0.3-0.1,0.6-0.3,0.8c-0.2,0.2-0.5,0.4-0.8,0.4c-0.3,0-0.6-0.1-0.8-0.3
				C338.2,638.9,338,638.6,338,638.3z"/>
		</g>
		<g>
			<path class="st29" d="M263.5,673.3l-11.5,0.4l-0.3-8.7c0-0.7,0.2-1.3,0.7-1.8c0.5-0.5,1.1-0.8,1.8-0.8l7.7-0.3l-0.2-6.2l-9,0.4
				c-0.4,0-0.7-0.1-0.9-0.3c-0.3-0.2-0.4-0.5-0.4-0.9s0.1-0.7,0.3-0.9c0.2-0.3,0.5-0.4,0.9-0.4l9-0.4c0.7,0,1.3,0.2,1.8,0.7
				c0.5,0.5,0.8,1.1,0.8,1.8l0.2,6.2c0,0.7-0.2,1.3-0.7,1.8s-1.1,0.8-1.8,0.8l-7.7,0.3l0.2,6.2l9-0.4c0.3,0,0.6,0.1,0.9,0.3
				c0.3,0.2,0.4,0.5,0.4,0.9s-0.1,0.7-0.3,0.9C264.1,673.1,263.8,673.3,263.5,673.3z"/>
			<path class="st29" d="M270.5,670.6l-0.6-15.1c0-0.7,0.2-1.2,0.7-1.7s1-0.8,1.7-0.8l7.9-0.3c0.7,0,1.2,0.2,1.7,0.7s0.8,1,0.8,1.7
				l0.6,15.1c0,0.7-0.2,1.3-0.6,1.8c-0.5,0.5-1,0.8-1.7,0.8l-7.9,0.3c-0.7,0-1.3-0.2-1.8-0.6C270.8,671.8,270.5,671.3,270.5,670.6z
				 M280.7,670.1l-0.6-14.9l-7.7,0.3l0.6,14.9L280.7,670.1z"/>
			<path class="st29" d="M290.3,669.7l3.9-0.2l-0.6-14.9l-3.8,0.1c-0.4,0-0.7-0.1-0.9-0.3c-0.3-0.2-0.4-0.5-0.4-0.9s0.1-0.7,0.3-0.9
				c0.2-0.3,0.5-0.4,0.9-0.4l6.3-0.2l0.7,17.4l2.5-0.1l-0.2-5.3c0-0.3,0.1-0.6,0.3-0.9c0.2-0.3,0.5-0.4,0.9-0.4s0.7,0.1,0.9,0.3
				c0.3,0.2,0.4,0.5,0.4,0.9l0.3,6.5c0,0.4-0.1,0.7-0.3,0.9s-0.5,0.4-0.9,0.4l-10.2,0.4c-0.4,0-0.7-0.1-0.9-0.3
				c-0.3-0.2-0.4-0.5-0.4-0.9c0-0.3,0.1-0.6,0.3-0.9C289.7,669.9,290,669.7,290.3,669.7z"/>
			<path class="st29" d="M319.3,671.1l-1.3,0c-0.3,0-0.6-0.1-0.9-0.3s-0.4-0.5-0.4-0.9s0.1-0.7,0.3-0.9c0.2-0.3,0.5-0.4,0.9-0.4
				l-0.3-8.4l-8.9,0.3c-0.3,0-0.6-0.1-0.9-0.3c-0.3-0.2-0.4-0.5-0.4-0.9l-0.3-6.6c0-0.3,0.1-0.6,0.3-0.9c0.2-0.3,0.5-0.4,0.9-0.4
				l10.2-0.4c0.3,0,0.6,0.1,0.9,0.3c0.3,0.2,0.4,0.5,0.4,0.9l0.7,17.4c0,0.4-0.1,0.7-0.3,0.9C320,670.9,319.7,671.1,319.3,671.1z
				 M317.6,657.7l-0.2-4l-7.7,0.3l0.2,4L317.6,657.7z"/>
		</g>
		<g>
			<path class="st30" d="M265.2,672.3l-11.5,0.4l-0.3-8.7c0-0.7,0.2-1.3,0.7-1.8s1.1-0.8,1.8-0.8l7.7-0.3l-0.2-6.2l-9,0.4
				c-0.4,0-0.7-0.1-0.9-0.3c-0.3-0.2-0.4-0.5-0.4-0.9c0-0.4,0.1-0.7,0.3-0.9s0.5-0.4,0.9-0.4l9-0.4c0.7,0,1.3,0.2,1.8,0.7
				c0.5,0.5,0.8,1.1,0.8,1.8l0.2,6.2c0,0.7-0.2,1.3-0.7,1.8c-0.5,0.5-1.1,0.8-1.8,0.8l-7.7,0.3l0.2,6.2l9-0.4c0.3,0,0.6,0.1,0.9,0.3
				c0.3,0.2,0.4,0.5,0.4,0.9c0,0.4-0.1,0.7-0.3,0.9S265.5,672.3,265.2,672.3z"/>
			<path class="st30" d="M272.2,669.6l-0.6-15.1c0-0.7,0.2-1.2,0.7-1.7s1-0.8,1.7-0.8l7.9-0.3c0.7,0,1.2,0.2,1.7,0.7
				c0.5,0.5,0.8,1,0.8,1.7l0.6,15.1c0,0.7-0.2,1.3-0.6,1.8c-0.5,0.5-1,0.8-1.7,0.8l-7.9,0.3c-0.7,0-1.3-0.2-1.8-0.6
				C272.5,670.9,272.2,670.3,272.2,669.6z M282.4,669.1l-0.6-14.9l-7.7,0.3l0.6,14.9L282.4,669.1z"/>
			<path class="st30" d="M292,668.8l3.9-0.2l-0.6-14.9l-3.8,0.1c-0.4,0-0.7-0.1-0.9-0.3c-0.3-0.2-0.4-0.5-0.4-0.9s0.1-0.7,0.3-0.9
				c0.2-0.3,0.5-0.4,0.9-0.4l6.3-0.2l0.7,17.4l2.5-0.1l-0.2-5.3c0-0.3,0.1-0.6,0.3-0.9c0.2-0.3,0.5-0.4,0.9-0.4
				c0.4,0,0.7,0.1,0.9,0.3s0.4,0.5,0.4,0.9l0.3,6.5c0,0.4-0.1,0.7-0.3,0.9c-0.2,0.3-0.5,0.4-0.9,0.4l-10.2,0.4
				c-0.4,0-0.7-0.1-0.9-0.3s-0.4-0.5-0.4-0.9c0-0.3,0.1-0.6,0.3-0.9S291.7,668.8,292,668.8z"/>
			<path class="st30" d="M321,670.1l-1.3,0c-0.3,0-0.6-0.1-0.9-0.3s-0.4-0.5-0.4-0.9s0.1-0.7,0.3-0.9c0.2-0.3,0.5-0.4,0.9-0.4
				l-0.3-8.4l-8.9,0.3c-0.3,0-0.6-0.1-0.9-0.3c-0.3-0.2-0.4-0.5-0.4-0.9l-0.3-6.6c0-0.3,0.1-0.6,0.3-0.9s0.5-0.4,0.9-0.4l10.2-0.4
				c0.3,0,0.6,0.1,0.9,0.3c0.3,0.2,0.4,0.5,0.4,0.9l0.7,17.4c0,0.4-0.1,0.7-0.3,0.9C321.7,670,321.4,670.1,321,670.1z M319.3,656.7
				l-0.2-4l-7.7,0.3l0.2,4L319.3,656.7z"/>
		</g>
	</g>
</g>
</svg>
