<svg id="Layer_1" data-name="Layer 1" xmlns="http://www.w3.org/2000/svg" viewBox="0 0 1152 864"><defs><style>.cls-1{fill:#fff;}.cls-2{fill:#a52b1c;}</style></defs><title>SBUAlumni_WHITE</title><path class="cls-1" d="M61.77,507.29c-10,0-16.48-2.31-24.2-8.64l-5.18,7.83H27.9l-.47-32.83h5c1.73,8.87,4.14,14.28,9,19.7,5.42,6,11.53,8.64,20,8.64,6.34,0,10.14-1.27,13.94-4.61a14.81,14.81,0,0,0,5.19-11.52,13.38,13.38,0,0,0-5.3-10.95c-2.42-1.84-3.23-2.07-11.76-4.26l-10.94-2.76c-16.94-4.38-23.16-10.6-23.16-23.16,0-14.41,10.14-24.08,25.23-24.08a29.8,29.8,0,0,1,21,8l4.61-6.91h4.26l1.38,29.95h-5A44.89,44.89,0,0,0,74,436.2a22.55,22.55,0,0,0-19.24-10c-9.79,0-16.36,5.53-16.36,13.59,0,7,4.84,11.53,15.09,14.18l12.33,3.11c9.22,2.3,13.71,4.26,16.82,7.25,4.49,4.38,6.91,10.49,6.91,17.63C89.53,497.38,78.7,507.29,61.77,507.29Z"/><path class="cls-1" d="M114.92,507.29c-6.8,0-11.17-2.65-13.13-7.49-1.15-2.65-1.38-5.42-1.38-13.6V456.82H91v-4.49c9.33-.69,14.4-8.29,15.55-23.27h4.72v22.81h16.94v4.95h-17v31.46c0,9.1,1.5,12,6.8,12,5.65,0,8.64-5.3,9-15.67h4.84a26.09,26.09,0,0,1,.11,2.65C132,498.19,126.33,507.29,114.92,507.29Z"/><path class="cls-1" d="M160.88,507.29c-14.58,0-26.25-12.68-26.25-28.46,0-16.13,11.67-28.69,26.5-28.69,14.34,0,26,12.79,26,28.57S175.47,507.29,160.88,507.29Zm.32-52.19c-8.63,0-13,8.06-13,23.73,0,15.21,4.49,23.5,12.78,23.5s12.79-8.29,12.79-23.62-4.5-23.61-12.57-23.61Z"/><path class="cls-1" d="M225.34,504.58v-4.24H227c7.49,0,7.61.26,7.61-4.34V472.72c0-5.53-.81-9.1-2.54-11.52a11,11,0,0,0-8.18-4c-5,0-10.13,3.57-12.55,8.76-1.27,2.64-2.08,7.83-2.08,13.48V496c0,4.6.12,4.34,7.61,4.34h1.61v4.24h-29.2v-4.24h1.61c7.38,0,7.49.26,7.49-4.34V463.85c0-5-1.74-7.72-6-7.72h-4.15v-4.26l19.3-1.2V460c6.75-6.4,12.51-9.86,19.89-9.86,6.79,0,12.67,3.35,15.55,8.87,2.07,3.92,2.42,6,2.42,14.29V496c0,4.6.11,4.34,7.49,4.34h1.61v4.24Z"/><path class="cls-1" d="M762.79,504.58v-4.24h1.57c7.3,0,7.41.26,7.41-4.34V472.72c0-5.53-.78-9.1-2.47-11.52a10.68,10.68,0,0,0-8-4c-4.82,0-9.87,3.57-12.23,8.76-1.23,2.64-2,7.83-2,13.48V496c0,4.6.12,4.34,7.41,4.34h1.57v4.24H727.67v-4.24h1.57c7.18,0,7.3.26,7.3-4.34V463.85c0-5-1.7-7.72-5.85-7.72h-4v-4.26l18.8-1.2V460c6.57-6.4,12.18-9.86,19.36-9.86A16.59,16.59,0,0,1,780,459c2,3.92,2.36,6,2.36,14.29V496c0,4.6.11,4.34,7.29,4.34h1.57v4.24Z"/><path class="cls-1" d="M306.87,456c-4.38,0-6.11,2.3-9,9.33l-13.13,32.49c-5.19,12.79-7.38,17.4-10.95,22.24-4.61,6.22-9.79,9.21-15.9,9.21s-10.48-3.8-10.48-8.87a6.78,6.78,0,0,1,6.41-7.13h.5c3.34,0,5.88,2.19,5.88,5.18,0,1.27-.81,3.23-.81,4s.81,1.15,1.84,1.15c3.69,0,9-6.11,13.25-14.87l2-4L257.7,462.21c-2.07-4.61-3.91-6.22-7.6-6.22h-1.5v-4.15H276V456h-2.42c-3.91,0-5.3.8-5.3,2.88a6.6,6.6,0,0,0,.69,2.42l12.68,29.61,10.48-26a12.67,12.67,0,0,0,1.15-4.61c0-3-1.84-4.26-6.22-4.26h-1.84v-4.15h23V456Z"/><path class="cls-1" d="M370.44,505.56H328.62v-5.41h2.07c9.33,0,10.37-.58,10.37-5.42V433.21c0-4.84-1-5.42-10.37-5.42h-2.07v-5.41H370c17.39,0,28,6.91,28,20.27,0,9.45-6,16.83-18.66,19.47,15.67,2.77,23,9.45,23,20.86C402.35,497,390.37,505.56,370.44,505.56Zm-4.26-77.77h-4.61c-6,0-7.61,1.27-7.61,5.76v26.27h10.26c14.74,0,20.39-4.37,20.39-15.67C384.61,433.32,379.77,427.79,366.18,427.79Zm-2.08,37.45H354v27.64c0,6.34.81,7.27,6.68,7.27h4.84c15.9,0,22.7-3.92,22.7-17.52,0-12.63-6.22-17.39-24.12-17.39Z"/><path class="cls-1" d="M445.12,466.7a6.09,6.09,0,0,1-6.33-5.86,3.69,3.69,0,0,1,0-.47,6.64,6.64,0,0,1,2.07-5.18c-4.84.57-8.76,4.14-11.52,10.59a64.08,64.08,0,0,0-4.5,24v5.76c0,4.6,1.27,5.41,8.65,5.41h2.19v4.15H404.91V501h1.62c7.48,0,7.6-.81,7.6-5.41V463.36c0-4.95-.69-5.76-4.95-5.76h-4.73v-5l20.39-1.27v14.29c3.69-10.14,10-16,17.29-16,6.1,0,10,3.69,10,9.22C452.15,463.59,449.27,466.7,445.12,466.7Z"/><path class="cls-1" d="M478.72,507.29c-14,0-25.21-12.68-25.21-28.46,0-16.13,11.21-28.69,25.44-28.69,13.77,0,25,12.79,25,28.57S492.72,507.29,478.72,507.29ZM479,455.1c-8.75,0-13.18,8.06-13.18,23.73,0,15.21,4.55,23.5,13,23.5s12.95-8.29,12.95-23.62S487.12,455.1,479,455.1Z"/><path class="cls-1" d="M535.76,507.29c-14.49,0-26.08-12.68-26.08-28.46,0-16.13,11.59-28.69,26.32-28.69,14.24,0,25.83,12.79,25.83,28.57S550.24,507.29,535.76,507.29ZM536,455.1c-9.06,0-13.65,8.06-13.65,23.73,0,15.21,4.71,23.5,13.41,23.5s13.4-8.29,13.4-23.62S544.45,455.1,536,455.1Z"/><path class="cls-1" d="M596.07,504.51v-4.15h2.19c3.8,0,5.07-.46,5.07-2a4.76,4.76,0,0,0-.81-2.07l-13.71-19.24-7,6.68V495c0,4.6.12,5.41,7.61,5.41H591v4.15H561.85v-4.15h1.61c7.38,0,7.5-.81,7.5-5.41V431.58c0-4.95-.7-5.76-5-5.76h-5.53v-4.95l21.31-1.27v57l15.56-15c1.84-1.84,2.64-3.22,2.64-4.49,0-1.5-2.09-.94-5.77-.94h-3.58V452h30.3v4.14c-7.83.93-12.42,2.21-19.1,8.77L596.61,470,613,492.41c4.72,6,7,7.37,13.47,7.95v4.15Z"/><path class="cls-1" d="M721.31,447.43v26.16c0,24.31-11.87,33.76-32.61,33.76-18.89,0-31.91-7.38-31.91-24.89v-49.2c0-4.83-1-5.41-10.25-5.41h-2v-5.41h37.67v5.41H680c-9.33,0-10.37.58-10.37,5.41V475.2c0,16.47,5.07,25.92,22.12,25.92,17.86,0,23.28-11.75,23.28-28.22V447.43c0-15.78-2.31-19.12-13.25-19.58v-5.41h32.83v5.41C723.61,428.31,721.31,431.65,721.31,447.43Z"/><path class="cls-1" d="M1024.9,505v-4.15h1.38c7.37,0,8.24.23,8.24-4.38V464.35c0-4.84.35-6.84-3.92-6.84h-5.87v-5l20-1.26.34,45.2c0,4.61.52,4.38,8,4.38h1.38V505Zm14.55-70.25a6.45,6.45,0,1,1,6.47-6.44,6.45,6.45,0,0,1-6.47,6.44Z"/><path class="cls-1" d="M793.9,506.06v-4.15h1.38c7.37,0,8.24.23,8.24-4.38V465.39c0-4.84.35-6.84-3.92-6.84h-5.87V453.6l20-1.27.34,45.2c0,4.61.52,4.38,8,4.38h1.38v4.15Zm14.55-70.24a6.45,6.45,0,1,1,6.47-6.45A6.45,6.45,0,0,1,808.45,435.82Z"/><path class="cls-1" d="M877.37,456.07c-4.38,0-6.45,2.31-9.56,9.92l-16.36,40.43h-4L827.6,461c-1.73-3.92-2.53-5-6.91-5h-1.61v-4.14h27.18V456h-1.61c-4.72,0-6.22.7-6.22,2.66a6.14,6.14,0,0,0,.58,2.42l13.13,29.6L862.74,464a12.65,12.65,0,0,0,1-3.92c0-2.65-2.19-4-6.23-4H855.9v-4.14h23v4.14Z"/><path class="cls-1" d="M903.47,507.3c-15.55,0-26-11.05-26-27.34,0-17.45,11.07-30.36,25.81-30.36,14.17,0,23.74,12.33,23.74,29.78H889.65c0,14.66,6.45,21.63,16,21.63,7.72,0,12.56-3.48,17.29-12.44l4,2.21C922.25,501.83,914.42,507.3,903.47,507.3ZM903,454.6c-7,0-13.25,7.33-13.25,19.78h20.16c3.69,0,4.73-.94,4.73-4.3C914.65,460.77,910,454.6,903,454.6Z"/><path class="cls-1" d="M968.74,466.65a6.11,6.11,0,0,1-6.34-5.87,3.53,3.53,0,0,1,0-.46,6.67,6.67,0,0,1,2.08-5.19c-4.84.58-8.06,4.15-10.82,10.6a64,64,0,0,0-4.5,24v5.76c0,4.61,1.2,5.26,8.57,5.26h2.19L960,505H929.81v-4.15h1.62c7.49,0,7.6-.81,7.6-5.42V463.31c0-4.95-1.27-6.86-5.53-6.86h-4.73v-4.87l20.39-1.26v15.29c3.69-10.14,9.32-16,16.58-16,6.11,0,10.73,3.69,10.73,9.22a7.61,7.61,0,0,1-7.4,7.82Z"/><path class="cls-1" d="M1003,507.75a24.63,24.63,0,0,1-15.78-5.65l-4,4.73h-4V485.05h4.61c2.76,11.52,9.68,17.74,19.36,17.74,6.79,0,11.52-3.8,11.52-9.21,0-4.61-3.23-6.91-12.33-9.1l-6.11-1.39c-6.91-1.61-9.56-2.76-12.21-5.18s-4-6.11-4-10.6c0-10,6.68-16.71,16.82-16.71a21.08,21.08,0,0,1,14,4.61l3.35-4.15h4v19.36h-4c-1.85-5.3-3.11-7.6-5.65-10.14a15.31,15.31,0,0,0-11.17-4.61c-6.34,0-10.72,3.34-10.72,7.95a6.74,6.74,0,0,0,4,6.11c2.08,1.15,2.08,1.15,8.41,2.54l5.76,1.26c7,1.5,9.34,2.42,12.1,4.84,3.23,2.65,4.84,6.57,4.84,11.64C1021.79,500.72,1014.3,507.75,1003,507.75Z"/><path class="cls-1" d="M1076.42,507.29c-6.79,0-11.17-2.65-13.13-7.49-1.16-2.65-1.38-5.42-1.38-13.6V456.82h-9.45v-4.49c9.33-.69,14.4-8.29,15.55-23.27h4.72v22.81h16.94v4.95h-16.94v31.46c0,9.1,1.5,12,6.8,12,5.65,0,8.64-5.3,9-15.67h4.84a26.09,26.09,0,0,1,.11,2.65C1093.47,498.19,1087.83,507.29,1076.42,507.29Z"/><path class="cls-1" d="M1150.85,456c-4.38,0-6.11,2.3-9,9.33l-13.13,32.49c-5.18,12.79-7.37,17.4-11,22.24-4.6,6.22-9.79,9.21-15.9,9.21s-10.48-3.8-10.48-8.87a6.78,6.78,0,0,1,6.41-7.13h.5c3.35,0,5.88,2.19,5.88,5.18,0,1.27-.81,3.23-.81,4s.81,1.15,1.85,1.15c3.69,0,9-6.11,13.25-14.87l2-4-18.77-42.51c-2.08-4.61-3.92-6.22-7.61-6.22h-1.49v-4.15H1120V456h-2.41c-3.92,0-5.31.8-5.31,2.88a6.61,6.61,0,0,0,.7,2.42l12.67,29.61,10.48-26a12.49,12.49,0,0,0,1.16-4.61c0-3-1.85-4.26-6.22-4.26h-1.85v-4.15h23V456Z"/><path class="cls-1" d="M158.26,625v-5.41h4.84c4.26,0,7.14-1.15,7.14-3a9.7,9.7,0,0,0-.92-3.11l-6.22-15.43H132.57l-3.8,10.13a13.86,13.86,0,0,0-1,4.84q0,6.57,9.33,6.57h2.3V625H108.83v-5.41h1.62c5.76,0,7.37-1.73,11.52-12.21l26.49-67.17h4.84l29.38,72c2.65,6.45,3.34,7.37,9.1,7.37H194V625Zm-10.6-65.9-12.79,32.72h25.81Z"/><path class="cls-1" d="M189.27,625.06v-4.15h2c7.37,0,7.48-.81,7.48-5.41V552.13c0-5-.69-5.76-4.83-5.76h-5.65v-5l21.32-1.27v75.4c0,4.6.11,5.41,7.6,5.41h2v4.15Z"/><path class="cls-1" d="M262.28,626.18v-9.56c-5.07,7.37-10.37,10.49-18,10.49-6.91,0-12.45-2.66-15.56-7.38-1.72-2.65-2.18-5.3-2.18-11.17V583.67c0-4.95-.7-5.76-5-5.76h-4.38V573l20.17-1.27v35.14c0,6.34.23,7.48,1.72,9.67s4.5,3.57,8.07,3.57A13.65,13.65,0,0,0,259.86,612c1.73-3.8,2.42-7.6,2.42-14.17V583.67c0-4.95-.69-5.76-4.95-5.76h-5.88V573l21.66-1.27V612c0,7.38.92,8.41,7.26,8.41h2.88v5Z"/><path class="cls-1" d="M351.45,625v-4.15h1.61c7.49,0,7.61-.8,7.61-5.41v-23.5c0-4.49-.35-7-1.38-9.57a9,9,0,0,0-8.41-5.76c-8.07,0-13.25,7.38-13.25,18.9v19.93c0,4.61.11,5.41,7.49,5.41h1.61V625H317.58v-4.15h1.61c7.49,0,7.61-.8,7.61-5.41V590.67c0-4.72-.69-8.07-2.31-10.25a9.48,9.48,0,0,0-7.6-3.81c-7.49,0-13.14,7.61-13.14,17.86v20.85c0,4.73.12,5.53,7.5,5.53h1.61V625h-29v-4.15h1.62c7.37,0,7.49-.8,7.49-5.53v-32c0-5-.69-5.76-5-5.76h-4.72v-5l20.5-1.26v8.87c4.5-7.26,9.68-10.6,16.6-10.6,7.71,0,13.94,4.61,15.89,11.52,5-8,10.49-11.52,18-11.52a16.76,16.76,0,0,1,13.59,6.56c3,3.92,3.69,6.34,3.69,13.49V615.3c0,4.73.11,5.53,7.49,5.53h1.61V625Z"/><path class="cls-1" d="M416.66,625v-4.15h1.62c7.48,0,7.6-.8,7.6-5.41V592.17c0-5.53-.81-9.1-2.54-11.52a11,11,0,0,0-8.18-4c-5,0-10.13,3.58-12.55,8.76-1.27,2.65-2.08,7.83-2.08,13.48v16.59c0,4.61.12,5.41,7.61,5.41h1.61V625H380.6v-4.15h1.61c7.38,0,7.49-.8,7.49-5.41V583.3c0-5-.69-5.76-4.95-5.76H380.6v-5l19.93-1.26v9.33c5.07-7.61,10.83-11.06,18.21-11.06,6.79,0,12.67,3.34,15.55,8.87,2.07,3.91,2.42,6,2.42,14.28v22.7c0,4.61.11,5.41,7.49,5.41h1.61V625Z"/><path class="cls-1" d="M448.83,625v-4.21h1.34c7.11,0,7.78-.82,7.78-5.5V582.62c0-4.92-.67-5.85-4.78-5.85H447.5v-5l20.9-1.28v44.84c0,4.68.67,5.5,7.9,5.5h1.33V625Zm13.44-70.47a6.4,6.4,0,1,1,6.56-6.4A6.49,6.49,0,0,1,462.27,554.53Z"/><path class="cls-1" d="M551.24,625v-5.41h4.84c4.26,0,7.15-1.15,7.15-3a9.72,9.72,0,0,0-.93-3.11l-6.22-15.43H525.55l-3.81,10.13a14.32,14.32,0,0,0-1,4.84q0,6.57,9.33,6.57h2.31V625H501.81v-5.41h1.62c5.76,0,7.37-1.73,11.52-12.21l26.5-67.17h4.84l29.38,72c2.65,6.45,3.34,7.37,9.1,7.37H587V625Zm-10.6-65.9-12.79,32.72h25.81Z"/><path class="cls-1" d="M610.81,628A24.61,24.61,0,0,1,595,622.32l-4,4.73h-4V605.27h4.61C594.37,616.8,601.29,623,611,623c6.79,0,11.52-3.81,11.52-9.22,0-4.61-3.23-6.91-12.33-9.1L604,603.31c-6.91-1.61-9.56-2.76-12.21-5.18s-4-6.11-4-10.6c0-10,6.68-16.7,16.82-16.7,5.76,0,9.91,1.38,14,4.6l3.34-4.15h4v19.36h-4c-1.84-5.3-3.1-7.6-5.64-10.14a15.31,15.31,0,0,0-11.17-4.61c-6.34,0-10.72,3.34-10.72,8a6.74,6.74,0,0,0,4,6.11c2.08,1.15,2.08,1.15,8.42,2.54l5.75,1.26c7,1.5,9.33,2.42,12.1,4.84,3.23,2.65,4.84,6.57,4.84,11.64C629.59,620.94,622.1,628,610.81,628Z"/><path class="cls-1" d="M658.55,628a24.63,24.63,0,0,1-15.78-5.65l-4,4.73h-4V605.27h4.61C642.07,616.8,649,623,658.67,623c6.79,0,11.52-3.81,11.52-9.22,0-4.61-3.23-6.91-12.33-9.1l-6.11-1.39c-6.91-1.61-9.56-2.76-12.21-5.18s-4-6.11-4-10.6c0-10,6.68-16.7,16.82-16.7,5.76,0,9.91,1.38,14,4.6l3.35-4.15h4v19.36h-4c-1.85-5.3-3.11-7.6-5.65-10.14a15.31,15.31,0,0,0-11.17-4.61c-6.34,0-10.72,3.34-10.72,8a6.74,6.74,0,0,0,4,6.11c2.08,1.15,2.08,1.15,8.41,2.54l5.76,1.26c7,1.5,9.34,2.42,12.1,4.84,3.23,2.65,4.84,6.57,4.84,11.64C677.33,620.94,669.84,628,658.55,628Z"/><path class="cls-1" d="M708.6,626.3c-14.49,0-26.08-12.68-26.08-28.46,0-16.13,11.59-28.69,26.32-28.69,14.24,0,25.83,12.79,25.83,28.57S723.08,626.3,708.6,626.3Zm.24-52.19c-9.06,0-13.65,8.06-13.65,23.73,0,15.21,4.71,23.5,13.41,23.5s13.4-8.29,13.4-23.62-4.71-23.61-13.16-23.61Z"/><path class="cls-1" d="M763.06,626.3C748.78,626.3,739,615,739,598.65c0-17.17,10.72-29.5,25.7-29.5,10.25,0,18,6,18,13.71,0,4.61-3,7.84-7,7.84s-6.91-2.65-6.91-6.45c0-2,.46-3.12,2.3-5.31.46-.68.69-1,.69-1.38,0-1.84-3-3.45-6.45-3.45-8.52,0-14.17,9.33-14.17,23.27,0,13.48,5.76,21.89,15,21.89,6,0,9.9-3.34,13.59-11.64l4.49,1.73C779.19,621.57,773.32,626.3,763.06,626.3Z"/><path class="cls-1" d="M787.17,625v-4.23h1.38c7.37,0,8.07-.83,8.07-5.53V582.4c0-4.94-.7-5.88-5-5.88h-5.88v-5.06l21.66-1.3v45.08c0,4.7.7,5.53,8.18,5.53H817V625ZM801,555.73a7.15,7.15,0,1,1,7.58-7.14,7.36,7.36,0,0,1-7.57,7.14Z"/><path class="cls-1" d="M918.57,624.38v-4.23H920c7.37,0,8.07-.83,8.07-5.53V581.78c0-4.94-.7-5.88-5-5.88h-5.88v-5.06l21.66-1.3v45.08c0,4.7.7,5.53,8.18,5.53h1.39v4.23Zm13.83-69.27A7.15,7.15,0,1,1,940,548,7.37,7.37,0,0,1,932.4,555.11Z"/><path class="cls-1" d="M865,626.2c-5.3,0-8.13-2.28-9.94-8.06a25.21,25.21,0,0,1-19.65,9c-9.94,0-16.37-5.23-16.37-13.28,0-11.12,9.14-16.68,35.46-21.22v-4.43c0-10-4.63-12.48-12.2-12.48-5.42,0-10,2-10,4.43,0,.57,2.49,4.08,2.49,6.13,0,3.4-2.6,5.78-6.1,5.78-4,0-6.55-2.72-6.55-7,0-8.17,9.37-14.18,22-14.18,13,0,21,3.51,21,18v22.8c0,5.68,1.13,7.83,4.3,7.83.68,0,3.27-1.24,4.85-1.24a1.27,1.27,0,0,1,1.13,1.36C875.43,622.9,870.13,626.2,865,626.2Zm-10.5-28.71c-19.54,3.29-24.06,6.69-24.06,14.75a8.66,8.66,0,0,0,8.46,8.85h.47a16.23,16.23,0,0,0,12.87-7c1.92-3,2.26-4.53,2.26-11.34Z"/><path class="cls-1" d="M897.6,627.5c-6.8,0-11.17-2.65-13.13-7.49-1.16-2.65-1.39-5.41-1.39-13.59V577h-9.45v-4.49c9.34-.7,14.41-8.3,15.56-23.28h4.72v22.82h16.94v5H893.91v31.45c0,9.1,1.5,12,6.8,12,5.65,0,8.64-5.3,9-15.66h4.85a25.9,25.9,0,0,1,.11,2.64C914.65,618.4,909,627.5,897.6,627.5Z"/><path class="cls-1" d="M972.32,627.54c-14.46,0-26-12.68-26-28.46,0-16.13,11.57-28.69,26.28-28.69,14.22,0,25.79,12.79,25.79,28.57S986.79,627.54,972.32,627.54Zm.25-52.19c-9.05,0-13.63,8.06-13.63,23.73,0,15.21,4.7,23.5,13.38,23.5S985.7,614.29,985.7,599,981,575.35,972.57,575.35Z"/><path class="cls-1" d="M1036.12,624.67v-4.15h1.6c7.4,0,7.51-.81,7.51-5.43V591.77c0-5.54-.8-9.11-2.51-11.54a10.86,10.86,0,0,0-8.08-4c-4.9,0-10,3.58-12.42,8.77-1.25,2.66-2,7.85-2,13.51v16.62c0,4.62.11,5.43,7.51,5.43h1.6v4.15h-28.82v-4.15h1.6c7.29,0,7.4-.81,7.4-5.43v-32.2c0-5-.68-5.77-4.9-5.77h-4.1v-5l19.71-1.26v9.34c5-7.62,10.7-11.08,18-11.08,6.72,0,12.53,3.35,15.37,8.89,2,3.92,2.39,6,2.39,14.31V615.1c0,4.62.12,5.43,7.41,5.43H1065v4.15Z"/><path class="cls-2" d="M596.67,151.37s-45.67-2-97,22.92v88.79A102.48,102.48,0,0,0,510.38,309c12.44,24.86,37.78,59,86.29,72.63Z"/><polygon class="cls-2" points="603.3 151.33 618.31 373.89 633.32 367.54 609.69 151.67 603.3 151.33"/><polygon class="cls-2" points="616.21 151.69 651.26 353.22 661.86 343.13 621.79 152 616.21 151.69"/><polygon class="cls-2" points="629.66 154.03 676 324.5 683.74 311.96 634.74 154.27 629.66 154.03"/><path class="cls-2" d="M642.64,155.69l48.39,131s2.32-6.57,2.19-17.44l-45-112.41Z"/><path class="cls-2" d="M655.71,158.37l38.58,84.72.82-66S680.22,165.6,655.71,158.37Z"/><polygon class="cls-1" points="570.27 243.13 552.92 242.28 548.15 226.8 548.16 225.76 548 226.29 547.85 225.81 547.85 226.74 542.95 241.92 525.72 240.88 539.24 251.97 534.15 267.94 547.76 258.75 561.16 269.22 556.41 252.7 570.27 243.13"/></svg>