<?xml version="1.0" encoding="utf-8"?>
<!-- Generator: Adobe Illustrator 22.1.0, SVG Export Plug-In . SVG Version: 6.00 Build 0)  -->
<svg version="1.1" id="Layer_1" xmlns="http://www.w3.org/2000/svg" xmlns:xlink="http://www.w3.org/1999/xlink" x="0px" y="0px"
	 viewBox="0 0 2048 1800" style="enable-background:new 0 0 2048 1800;" xml:space="preserve">
<style type="text/css">
	.st0{fill:#0D76BC;}
	.st1{fill:#76B3E2;}
	.st2{fill:none;stroke:#76B3E2;stroke-width:13.65;stroke-miterlimit:10;}
	.st3{fill:none;stroke:#76B3E2;stroke-width:13.8639;stroke-miterlimit:10;}
	.st4{fill:#76B3E2;stroke:#76B3E2;stroke-width:40.95;stroke-miterlimit:10;}
	.st5{fill:none;stroke:#76B3E2;stroke-width:40.95;stroke-miterlimit:10;}
	.st6{fill:none;stroke:#76B3E2;stroke-width:42;stroke-miterlimit:10;}
	.st7{fill:none;stroke:#76B3E2;stroke-width:14.7542;stroke-miterlimit:10;}
</style>
<path class="st0" d="M837.5,55c0,0-141.1,202.5-220.7,436.8c0,0,88.6-204.8,416.3,141s605.2,819,605.2,819S1365.3,660.1,837.5,55z"
	/>
<path class="st1" d="M1635.9,1451.8c0,0-398-319.1-718.8-383.9s-450.5,47.8-498.2,218.4c0,0,52.9-365.1,92.1-474.3
	c0,0,192.8-143.3,551.1,90.4S1635.9,1451.8,1635.9,1451.8z"/>
<path class="st2" d="M48.5,1573.3c0,0,6.1-35.1,29-40.1c25.3-5.5,47.8-0.6,51.6,0c0,0,24.3-0.8,23.9,40.1c0,0.2,0,92.6,0,92.6
	s-1.3,14.1,23.5,14.1"/>
<path class="st2" d="M153,1573.5c0,0-8.9,22.1-48.2,27.5c-40.1,5.5-59.3,14.4-61.9,32.4c0,0-9.9,41.6,23.9,46.5
	c10.1,1.5,18.9,1.6,26,1.3c14.4-0.6,34.9-8.2,45.6-22.6c7-9.4,13.3-21.8,14.6-36.8"/>
<line class="st3" x1="572.7" y1="1467.1" x2="572.7" y2="1688"/>
<line class="st2" x1="626.4" y1="1526.3" x2="626.4" y2="1688.1"/>
<line class="st2" x1="626.4" y1="1467.1" x2="626.4" y2="1497.8"/>
<polygon class="st1" points="1007,1526.8 1063.3,1681.7 1086,1681.7 1086,1635.1 1053,1526.8 "/>
<polygon class="st1" points="1165.1,1526.8 1108.8,1681.7 1086,1681.7 1086,1635.1 1119,1526.8 "/>
<g>
	<line class="st4" x1="1209.4" y1="1526.8" x2="1209.4" y2="1685.5"/>
	<line class="st4" x1="1209.4" y1="1465.8" x2="1209.4" y2="1498.6"/>
</g>
<g>
	<line class="st4" x1="1457.4" y1="1525.3" x2="1457.4" y2="1684"/>
	<line class="st4" x1="1457.4" y1="1464.3" x2="1457.4" y2="1497.1"/>
</g>
<path class="st1" d="M1592.1,1519.5c-45.6,0-82.5,38.5-82.5,86.1c0,47.5,37,86.1,82.5,86.1c45.6,0,82.5-38.5,82.5-86.1
	C1674.7,1558.1,1637.7,1519.5,1592.1,1519.5z M1592.1,1656.9c-22.5,0-40.7-22.7-40.7-50.7c0-28,18.2-50.7,40.7-50.7
	c22.5,0,40.7,22.7,40.7,50.7C1632.8,1634.2,1614.6,1656.9,1592.1,1656.9z"/>
<line class="st5" x1="1727.6" y1="1527.9" x2="1727.6" y2="1681.5"/>
<line class="st6" x1="1837.1" y1="1576.7" x2="1837.1" y2="1681.5"/>
<path class="st1" d="M1748.1,1575.7c0,0,8-21.2,37.5-20.3c32.3,1,31.1,24.8,31.1,24.8h41.7c0,0,0.2-60.7-44.9-60.7
	c-51.2,0-65.4,30.4-65.4,30.4"/>
<ellipse class="st7" cx="277.4" cy="1605.9" rx="64.1" ry="79.6"/>
<line class="st2" x1="210.2" y1="1526.8" x2="210.2" y2="1745.2"/>
<ellipse class="st7" cx="458.7" cy="1606.1" rx="64.1" ry="79.6"/>
<line class="st2" x1="391.4" y1="1527" x2="391.4" y2="1745.4"/>
<ellipse class="st7" cx="908.5" cy="1603" rx="64.1" ry="79.6"/>
<line class="st7" x1="971.9" y1="1467.1" x2="971.9" y2="1680.3"/>
<path class="st7" d="M677.8,1607.2c0-43.9,28.7-79.6,64.1-79.6c35.4,0,64.1,35.6,64.1,79.6"/>
<path class="st7" d="M677.9,1607.2c0,43.9,28.7,79.6,64.1,79.6c0,0,57.2,5.6,57.2-50.9"/>
<line class="st7" x1="677.3" y1="1598.7" x2="806.6" y2="1599.9"/>
<path class="st1" d="M1396.2,1570.2c0.5-35.6-36.1-48.7-64.9-48.7c-35,0-72.3,16.7-70.8,51.9c0.6,14.9,3.2,22.4,10.4,29.9
	c8.4,8.7,32.6,13.7,62.4,20.8c15.8,3.7,27.8,8.3,28.6,19.7c0.6,9.2-9.1,15-16.2,17.6c-5.9,2.2-21,2.6-29.9-0.9
	c-13.9-5.5-18.3-13.1-18.8-21.3l-40.7-0.6c0,0,0.3,25.6,19.4,41.4c12.9,10.6,27.3,11.6,41.4,12.2c24.7,1.1,57.4,3.6,76-19.5
	c13.3-16.5,14.4-44.2,3.1-59.4c-7-9.4-17.8-12.5-46.4-19.3c-25.2-6-36.2-6.8-44.6-16.8c-2.6-3-4.4-9.3-1.9-15
	c4.2-9.9,18.7-12.6,25.3-12.6c7.8-0.1,17.3-0.4,23.8,6c5.2,5.1,5.2,9.4,5.4,14.2L1396.2,1570.2z"/>
<path class="st1" d="M2020.5,1570.2c0.5-35.6-36.1-48.7-64.9-48.7c-35,0-72.3,16.7-70.8,51.9c0.6,14.9,3.2,22.4,10.4,29.9
	c8.4,8.7,32.6,13.7,62.4,20.8c15.8,3.7,27.8,8.3,28.6,19.7c0.6,9.2-9.1,15-16.2,17.6c-5.9,2.2-21,2.6-29.9-0.9
	c-13.9-5.5-18.3-13.1-18.8-21.3l-40.7-0.6c0,0,0.3,25.6,19.4,41.4c12.9,10.6,27.3,11.6,41.4,12.2c24.7,1.1,57.4,3.6,76-19.5
	c13.3-16.5,14.4-44.2,3.1-59.4c-7-9.4-17.8-12.5-46.4-19.3c-25.2-6-36.2-6.8-44.6-16.8c-2.6-3-4.4-9.3-1.9-15
	c4.2-9.9,18.7-12.6,25.3-12.6c7.8-0.1,17.3-0.4,23.8,6c5.2,5.1,5.2,9.4,5.4,14.2L2020.5,1570.2z"/>
</svg>
