<svg id="Layer_1" data-name="Layer 1" xmlns="http://www.w3.org/2000/svg" viewBox="0 0 347.65 53.52"><defs><style>.cls-1,.cls-3{fill:#ed1a3b;}.cls-2{fill:#fff;}.cls-2,.cls-3{fill-rule:evenodd;}</style></defs><title>Bae Systems</title><rect class="cls-1" width="347.65" height="53.52"/><path class="cls-2" d="M306.29,32.14c1.41,5.73,6.33,8,11.86,8s11.75-2.54,11.75-8.88A7.36,7.36,0,0,0,326,24.56a28.4,28.4,0,0,0-7.46-2.11c-1-.24-2.91-.5-2.91-1.88s1.53-1.69,2.61-1.69c2,0,3.5.69,4.26,2.65l6.68-2c-1.61-4.58-6-6.46-10.59-6.46A13.24,13.24,0,0,0,311,15a8.15,8.15,0,0,0-3.38,6.61c0,6.26,5.87,7.61,10.83,8.56,1.19.24,3.23.54,3.23,2.16,0,1.46-2.08,1.61-3.11,1.61-2.35,0-4.11-.84-4.8-3.19l-7.49,1.35"/><polygon class="cls-2" points="298.23 13.42 287.58 13.42 283.97 27.41 280.12 13.42 269.57 13.42 269.57 39.78 275.64 39.78 275.64 20.95 280.68 39.78 285.82 39.78 290.62 20.95 290.69 39.78 298.23 39.78 298.23 13.42"/><polygon class="cls-2" points="259.63 33.49 247.76 33.49 247.76 29.22 257.37 29.22 257.37 23.34 247.76 23.34 247.76 19.49 259.63 19.49 259.63 13.42 239.85 13.42 239.85 39.78 259.63 39.78 259.63 33.49"/><polygon class="cls-2" points="225.56 19.76 230.98 19.76 230.98 13.42 212.36 13.42 212.36 19.76 217.89 19.76 217.89 39.78 225.56 39.78 225.56 19.76"/><path class="cls-2" d="M181.48,32.14c1.42,5.73,6.34,8,11.87,8s11.75-2.54,11.75-8.88a7.35,7.35,0,0,0-3.92-6.74,28.44,28.44,0,0,0-7.45-2.11c-1-.24-2.92-.5-2.92-1.88s1.54-1.69,2.61-1.69c2,0,3.49.69,4.26,2.65l6.68-2c-1.61-4.58-6-6.46-10.6-6.46a13.23,13.23,0,0,0-7.56,2,8.18,8.18,0,0,0-3.38,6.61c0,6.26,5.88,7.61,10.82,8.56,1.2.24,3.24.54,3.24,2.16,0,1.46-2.07,1.61-3.12,1.61-2.33,0-4.1-.84-4.8-3.19l-7.48,1.35"/><polygon class="cls-2" points="176.84 13.42 169.76 13.42 165.35 22.1 160.74 13.42 151.87 13.42 160.74 28.64 160.74 39.78 168.58 39.78 168.58 28.64 176.84 13.42"/><path class="cls-2" d="M122.72,32.14c1.42,5.73,6.34,8,11.87,8s11.75-2.54,11.75-8.88a7.33,7.33,0,0,0-3.92-6.74A28.33,28.33,0,0,0,135,22.45c-1-.24-2.92-.5-2.92-1.88s1.54-1.69,2.62-1.69c2,0,3.49.69,4.26,2.65l6.67-2C144,14.91,139.58,13,135,13a13.23,13.23,0,0,0-7.56,2,8.18,8.18,0,0,0-3.38,6.61c0,6.26,5.87,7.61,10.82,8.56,1.2.24,3.23.54,3.23,2.16C138.12,33.83,136,34,135,34c-2.34,0-4.11-.84-4.8-3.19l-7.49,1.35"/><polygon class="cls-2" points="102.57 33.49 90.7 33.49 90.7 29.22 100.3 29.22 100.3 23.34 90.7 23.34 90.7 19.49 102.57 19.49 102.57 13.42 82.78 13.42 82.78 39.78 102.57 39.78 102.57 33.49"/><polygon class="cls-2" points="65.97 39.78 74.22 39.78 65.97 13.42 57.44 13.42 49.26 39.78 55.84 39.78 57.44 34.6 64.47 34.6 65.97 39.78"/><path class="cls-2" d="M19.88,39.79H32c2.38,0,5.22,0,7.25-1.5s2.71-3.88,2.71-6.15a5.94,5.94,0,0,0-5.13-6,5.86,5.86,0,0,0,4.46-5.8,7,7,0,0,0-2.8-5.58,9.45,9.45,0,0,0-5.69-1.34H19.88V39.79"/><polygon class="cls-3" points="58.78 28.84 60.92 21.18 63.09 28.84 58.78 28.84"/><path class="cls-3" d="M27.3,23.54V19.07h3.15c1.54,0,3.14.27,3.14,2.23A2.39,2.39,0,0,1,32.83,23a3.28,3.28,0,0,1-2.27.51H27.3"/><path class="cls-3" d="M27.3,33.91V29.14h3.19a5.41,5.41,0,0,1,2.34.35,2.29,2.29,0,0,1,.3,3.92,3.52,3.52,0,0,1-2.34.5H27.3"/></svg>