<?xml version="1.0" encoding="utf-8"?>
<!-- Generator: Adobe Illustrator 22.1.0, SVG Export Plug-In . SVG Version: 6.00 Build 0)  -->
<svg version="1.1" id="Layer_1" xmlns="http://www.w3.org/2000/svg" xmlns:xlink="http://www.w3.org/1999/xlink" x="0px" y="0px"
	 viewBox="0 0 1300 300" style="enable-background:new 0 0 1300 300;" xml:space="preserve">
<style type="text/css">
	.st0{fill:#00578E;}
	.st1{fill:#FFFFFF;}
	.st2{fill:none;stroke:#00578E;stroke-miterlimit:10;}
	.st3{fill:none;}
</style>
<g>
	<path class="st0" d="M486.3,122.2h-26.7v98h26.7v-62.3c0,0,9.5-20.7,31.3-12.3l6.5-23.3c0,0-23.7-10.3-37.3,13l-0.4,0.7
		L486.3,122.2z"/>
	<path class="st0" d="M602,129C602,129,602,129,602,129c-0.2-0.2-10.7-8.9-27.8-9.1c0,0-51.2-3.9-51.2,54.4c0,0,0.3,48.2,51.2,48.3
		c0,0,45.2,0.3,47-51.4C621.2,171.2,621.8,142.3,602,129z M592.8,171c-0.1,8.6,0.4,31.4-21.3,31.3c-21.3,0-20-31.1-20-31.1
		c0-34.3,20-31.5,20-31.5C592.8,140.4,592.8,162.5,592.8,171z"/>
	<path class="st0" d="M710.9,168.1c-0.5-18,2.8-43.3-29-47.6c-31.8-4.3-49.7,13.3-49.7,13.3l11.3,15.8c21.1-13.9,33.9-7.7,37.9-4.9
		s2.8,15.6,2.8,15.6c-50.6-1-56.1,26.3-55.8,36s6.4,25.5,26.5,26.3c20.1,0.8,30.9-12.7,30.9-12.7c0.4,5.6,1.4,10.3,1.4,10.3h26.3
		C710.3,212.4,711.4,186.1,710.9,168.1z M681.4,194.7c0,0-13.4,14.4-26.4,5.6c0,0-7.1-6.1-0.9-15.7c0.6-1,1.4-1.9,2.4-2.6
		c3-2.4,10.9-6.9,24.9-5.2V194.7z"/>
	<path class="st0" d="M817.8,203.1V76H791l-0.3,51.1c-17.8-14.8-42.5-2-42.5-2c-39.5,25.5-18.8,76.8-14.8,81.8s13.6,16.6,32,16
		s26.8-13,26.8-13c0.8,7.4,2.4,10,2.4,10h25.7C818.3,215.8,817.8,203.1,817.8,203.1z M791,192c0,0-7.3,9.7-17.7,9.3
		c-10.3-0.3-19-5.2-20.5-27.2s8-32.3,19.6-33.7S791,147,791,147V192z"/>
	<path class="st0" d="M838.2,122.3v97.8H865V158c0,0,11.2-21.2,31.5-12.5l6.3-23.2c0,0-23.3-10.8-37.5,12.8l-0.4,0.6v-13.6
		L838.2,122.3z"/>
	<rect x="913" y="122.1" class="st0" width="27.3" height="98.1"/>
	<ellipse class="st0" cx="927" cy="95" rx="15" ry="14.3"/>
	<path class="st0" d="M1048.3,203.1V76h-26.8l-0.3,51.1c-17.8-14.8-42.5-2-42.5-2c-39.5,25.5-18.8,76.8-14.8,81.8s13.6,16.6,32,16
		s26.8-13,26.8-13c0.8,7.4,2.4,10,2.4,10h25.7C1048.8,215.8,1048.3,203.1,1048.3,203.1z M1021.5,192c0,0-7.3,9.7-17.7,9.3
		c-10.3-0.3-19-5.2-20.5-27.2s8-32.3,19.6-33.7s18.6,6.5,18.6,6.5V192z"/>
	<path class="st0" d="M1253.5,177.1c0,0,9-54.3-37.3-56.9s-54,38.2-53,53.8s8.4,45.8,45.4,48.1c0,0,22.8,3,41.8-8.8l-8.5-16.8
		c0,0-23.5,11.5-38,3.3s-12-22.5-12-22.5L1253.5,177.1z M1212.3,139.3c17-0.3,16,19.9,16,19.9h-36.1
		C1193.8,149.2,1195.3,139.6,1212.3,139.3z"/>
	<path class="st0" d="M415.3,151.3l-1.2,0c0,0,18.8-4.3,23.5-20.5c4.7-16.2,0.4-34.9-21.4-41.7c0,0-8.4-3-68.1-3.1v134.1h47.8
		c0,0,36.8,1.8,46-21.9C451,174.6,438.5,153.1,415.3,151.3z M373.8,108.4l21.7,0c0,0,16.3-0.8,15.7,16.5
		c-0.7,17.3-15.7,16.2-15.7,16.2l-21.7,0V108.4z M413.3,180.7c-0.8,18.9-19.3,17.5-19.3,17.5l-20.3,0v-36.4l20.3,0
		C394,161.9,414,161.8,413.3,180.7z"/>
	<g>
		<rect x="37.4" y="23.2" class="st0" width="225.1" height="253.8"/>
		<path class="st1" d="M40.9,33.9c0,0,83.3-6.3,108.3,75.7c0,0,18-46,75.7-50v15c0,0-68.7,1.2-67,75.1h-16.3c0,0,0.8-44.5-55.6-44.5
			l0-10.8c0,0,34.2-0.1,49.6,17.7l0.8,1.1c0,0-16.6-67.6-95.5-65.4v102h100.1c0,0,6.1,69.8-66.7,76.3l-0.1,15.2
			c0,0,53.3,0.3,75.3-48.7c0,0,20.3,76,108.3,74.7v-14.3c0,0-68.3,8-94.3-64c0,0,15.7,19.7,49.7,17.7l0.3-10.3
			c0,0-49.9,3.1-55.8-44.6l-0.1-1.3l0.1-0.3l101.3-0.4V26.9H40.9V33.9z"/>
	</g>
	<path class="st2" d="M1091.2,223.7c0,0-10.8,7-6.5,19c4.3,12,29.5,7,29.5,7s18.8-4,12.8-19.3c0,0-2.5-5-13.7-5
		C1102.2,225.3,1091.2,223.7,1091.2,223.7z"/>
	<ellipse class="st3" cx="1106" cy="155.6" rx="17.5" ry="18.3"/>
	<path class="st0" d="M1158.8,120.2h-59.3c0,0-16.9,0.1-29.5,12.9s-10.3,41.1,9.4,51.6s-0.1,0.6-0.1,0.6s-16.8,9.5-8.1,26.9
		c0,0,1.8,3.4,6,5.8c0,0-29.8,15.6-8.8,41.4c0,0,9.3,9.7,37.3,8.8c28-0.8,39-11.3,39-11.3s12.8-7.7,12.8-24.7s-7.8-30.3-54.5-29.7
		c0,0-19.8-1.5-7.7-12.5c0,0,38,6.5,50-18.2c0,0,8.2-12.7,0.3-32.2l13.1-0.1V120.2z M1113.3,224.5c11.2,0,13.7,5,13.7,5
		c6,15.3-12.8,19.3-12.8,19.3s-25.2,5-29.5-7c-4.3-12,6.5-19,6.5-19S1102.2,224.5,1113.3,224.5z M1106,174
		c-9.7,0-17.5-8.2-17.5-18.3s7.9-18.3,17.5-18.3c9.7,0,17.5,8.2,17.5,18.3S1115.6,174,1106,174z"/>
</g>
</svg>
