<svg id="Layer_1" data-name="Layer 1" xmlns="http://www.w3.org/2000/svg" viewBox="0 0 1152 864"><defs><style>.cls-1{fill:#fff;}</style></defs><title>FDM_WHITE</title><polygon class="cls-1" points="255.36 352.14 25.68 352.14 26.16 661.26 102.96 661.26 103.2 552.06 235.56 551.94 235.56 485.52 103.08 485.34 103.26 420 256.62 420.18 256.62 352.14 255.36 352.14"/><polygon class="cls-1" points="582.06 352.5 582.6 661.26 658.2 661.26 658.2 504.78 727.32 612.42 769.8 612.42 838.2 506.7 838.2 661.26 915.6 661.26 915.6 352.5 858.6 352.5 749.1 517.35 639.15 352.5 582.06 352.5"/><path class="cls-1" d="M1022.2,225.13,955.87,135a1.57,1.57,0,0,0-1.24-.65c-.87,0-2.14.2-2.26,1.46-.18,1.91,0,107.82,0,111v.13c0,.36.18,2.5-1.58,3.1S852,281.92,845,284.16a1.55,1.55,0,0,0-.72.49c-.6.71-1.62,2.3.32,3,2.4.82,95.43,31.37,106.55,35a1.58,1.58,0,0,1,1.09,1.5l.3,111.87a1.49,1.49,0,0,0,.21.77,1.41,1.41,0,0,0,.73.63,1.53,1.53,0,0,0,1.74-.57l66.34-90.13a1.58,1.58,0,0,1,1.76-.57l106.57,34.19a1.56,1.56,0,0,0,1,0,2.18,2.18,0,0,0,1.34-2.13c.17-2.2-58.85-81.8-65.93-91.35a1.55,1.55,0,0,1,0-1.87L1132,195a1.59,1.59,0,0,0,.3-.79c.09-.95,0-3-2.69-2.61-3.25.46-94.61,30.54-105.65,34.17A1.58,1.58,0,0,1,1022.2,225.13Z"/><path class="cls-1" d="M566.4,506.52h0c-6.7-149.16-156.94-154.2-156.94-154.2H275.16l.18,154.38-.18,154.38H409.44s150.24-5,156.94-154.2h0a2.16,2.16,0,0,1,0-.36Zm-78,.51h0c-3.71,73.71-73.73,84.85-73.73,84.85h-63.1l.09-84.95L351.57,422h63.09s71.1,10.44,73.73,84.85h0V507Z"/></svg>