<?xml version="1.0" encoding="utf-8"?>
<!-- Generator: Adobe Illustrator 22.1.0, SVG Export Plug-In . SVG Version: 6.00 Build 0)  -->
<svg version="1.1" id="Layer_1" xmlns="http://www.w3.org/2000/svg" xmlns:xlink="http://www.w3.org/1999/xlink" x="0px" y="0px"
	 viewBox="0 0 2000 700" style="enable-background:new 0 0 2000 700;" xml:space="preserve">
<style type="text/css">
	.st0{fill:#4285F4;}
	.st1{fill:#34A853;}
	.st2{fill:#E94235;}
	.st3{fill:#FABB05;}
</style>
<g>
	<path class="st0" d="M437.7,95.6c-101-79.4-237.3-84.2-330.8-15.8C37.9,130.2-4.2,217.7,4.8,308.5
		c10.3,104.1,84.4,193.3,184.7,221.7c99.2,28.1,208.2-7.7,265.7-82.7c29-37.9,39.9-87.2,40.5-89.7c9.1-39.8,6.4-73.4,3.2-93.8
		l-234.9,1.8l-1.2,66.9l163-1.2c0,0.6,0,1.5,0,2.6c-0.7,56-47.3,97.4-55.1,104.1c-51.2,43.6-138.6,47-202.9,7
		c-79.6-49.5-85.3-141.6-85.6-149c-0.5-10.1-2.6-89.2,61-146.6c10.6-9.6,62.9-54.5,138.4-46.9c55,5.5,91,35.7,103.2,46.9L437.7,95.6
		z"/>
	<path class="st0" d="M1541.9,581.8c2.2-10.5,3.2-20,3.2-32.3l0,0l-0.1-327.6h-64.2v24.6l-2.2,2.2c-1.6-1.5-3.9-3.8-6.9-6.3
		c0,0-30.8-25.8-76.2-29.3c-44.9-3.4-92.4,20-122,54.5c-44.6,52.1-51.3,132.7-14.7,193c33.1,54.5,94.1,79.9,140.8,78.2
		c14.2-0.5,61.9-2.2,80.6-32.4c0.8-1.2,1.3-2.3,1.7-3l-0.4,37.2c-0.3,27.2-12.6,53.4-34.7,69.2c-5.8,4.1-12.4,7.8-20.1,10.5
		c-21.6,7.8-40.4,4.2-47.8,2.6c-43.6-8.9-66.6-46.9-71.3-55.1c-0.7-1.3-1.3-2.4-1.8-3.2l-4.3,1.6l-52.3,24.2
		c5.1,11.6,31.8,68.8,96.8,92.4c4.3,1.6,8.7,2.9,8.7,2.9c38.6,11.7,75.1,5.6,93.3-0.3C1488.6,672.7,1530.7,634.3,1541.9,581.8z
		 M1397.6,479.4c-51.5,0-93.3-45.4-93.3-101.5c0-56,41.8-101.5,93.3-101.5c51.5,0,93.3,45.4,93.3,101.5
		C1490.8,434,1449.1,479.4,1397.6,479.4z"/>
	<rect x="1594.2" y="54" class="st1" width="71.3" height="475.9"/>
	<path class="st2" d="M1939.9,429.2c-13.3,19.7-37.1,38.5-63.3,43.1c-33.1,5.9-69.5-11-91.9-42.7l211.6-102.1
		c-24.1-69.8-84.5-115.9-148.7-116.1c-67.7-0.2-109.9,50.6-117.9,60.7c-43.3,54.7-48.7,136.9-7.9,197.1
		c41.4,61.2,110.1,69.6,117.9,70.4c91.6,9.6,149.1-63.6,152.2-67.7l3.8-4.8l-53.7-40.9C1941.5,426.9,1940.8,427.9,1939.9,429.2z
		 M1769.7,359.4c-0.5-4.8-0.8-11.1,0.4-18.3c5.8-34.8,41.2-66.6,79.2-68c21.8-0.8,57.2,9.8,61,28.7c0.6,2.8,0.3,5.2,0,7l-139.6,59.2
		L1769.7,359.4z"/>
	<path class="st2" d="M684.5,216.2c-90.2,0-163.6,72.6-163.6,161.8c0,89.2,73.4,161.8,163.6,161.8s163.6-72.6,163.6-161.8
		C848.2,288.7,774.8,216.2,684.5,216.2z M684.5,477.7c-51.5,0-93.3-45.4-93.3-101.5s41.8-101.5,93.3-101.5s93.3,45.4,93.3,101.5
		S736,477.7,684.5,477.7z"/>
	<path class="st3" d="M1041.6,214.5c-90.2,0-163.6,72.6-163.6,161.8c0,89.2,73.4,161.8,163.6,161.8c90.2,0,163.6-72.6,163.6-161.8
		C1205.3,287.1,1131.8,214.5,1041.6,214.5z M1041.6,476.1c-51.5,0-93.3-45.4-93.3-101.5s41.8-101.5,93.3-101.5
		c51.5,0,93.3,45.4,93.3,101.5S1093.1,476.1,1041.6,476.1z"/>
</g>
</svg>
