<svg id="Layer_2" data-name="Layer 2" xmlns="http://www.w3.org/2000/svg" viewBox="0 0 1152 864"><defs><style>.cls-1{fill:#353535;}.cls-2{fill:#751b00;}.cls-3{fill:#c53c02;}.cls-4{fill:#162f51;}.cls-5{fill:#265a8f;}.cls-6{fill:#ecc700;}.cls-7{fill:#fdee00;}</style></defs><title>MLH</title><path class="cls-1" d="M1095.25,602.57s.22-.81-1.21-.79-34.69,0-34.69,0-7.2,1.21-7,7.59-.11,39.25-.11,39.25.55,7.59,8.19,7.59h31.22s6.44-2.07,6.44-8.05V627.62s.11-1-.69-1.06-11.71-.13-11.71-.13a1,1,0,0,0-1,1c0,1,0,13.89,0,13.89s-.11,1.62-1.6,1.66-16.15,0-16.15,0-1.06-.21-1.08-1.82-.13-24.84-.13-24.84-.22-1.86,3.58-1.91,25.24-.15,25.24-.15.7.08.66-1.68S1095.25,602.57,1095.25,602.57Z"/><path class="cls-2" d="M419.44,279c.51-43.41-31.31-57.6-44.77-61.66a34.43,34.43,0,0,0-10-1.45h-306c-8.73,0-8.95,7.43-8.95,7.43v76.17L289,300.83h42v.23l88.24.49C419.31,292.43,419.37,284.76,419.44,279Z"/><path class="cls-3" d="M49.77,565.72c0,9.06,10.92,8.51,10.92,8.51S120.35,574,129,574a8.45,8.45,0,0,0,8.18-4.92,11.36,11.36,0,0,0,1-4.94l-.49-263.35,56.17-.33s0,254.49.16,264,8.52,9.86,8.52,9.86,56.25.05,64.11,0,8.52-8.63,8.52-8.63V300.83H289L49.77,299.52Z"/><path class="cls-3" d="M419.27,301.55,331,301.06c0,8.52.19,258.31.11,265.4s8.38,7.78,8.38,7.78,66.39.08,71.63,0c2.36,0,4.27-1.67,5.67-3.47a12.9,12.9,0,0,0,2.61-8C419.36,537.34,418.94,373.71,419.27,301.55Z"/><path class="cls-4" d="M567,478.64c0-7.78,0-253,0-253s.82-9.75-8.84-9.75H482s-8.35.06-8.24,9.77.49,338.8.49,338.8-.49,9.34,8.43,9.42c3.47,0,40.42.1,84.32.17l.18-93.93A8.85,8.85,0,0,1,567,478.64Z"/><path class="cls-5" d="M731.27,494.89s-.09-7.45-9.58-7.61-144.77-.17-144.77-.17-8.53-.61-9.75-7L567,574.08l155.6.24s8.59.24,8.68-10.57S731.27,494.89,731.27,494.89Z"/><path class="cls-6" d="M880.37,340.87c-.33-10.23.22-115.56.22-115.56s-.22-9.39-7-9.39H792.81s-6.87.88-6.44,9.94-.11,340.84-.11,340.84.33,8.41,8.52,8.52,77.13,0,77.13,0,8.3-.38,8.24-8.14.11-122.55.11-122.55a6.28,6.28,0,0,1,.23-.81l.17-100.36A16.09,16.09,0,0,1,880.37,340.87Z"/><path class="cls-7" d="M993.86,350.37l-104.81.08s-6.89.52-8.39-7.09l-.17,100.36c.62-1.83,2.79-6.15,9.54-6.06,8.57.11,105.63.43,105.63.43a9.88,9.88,0,0,1,5.28,2.46l1.07-94.74A9,9,0,0,1,993.86,350.37Z"/><path class="cls-6" d="M1089.44,215.92h-76.67s-9.33-.33-9.25,10.16.08,115.45.08,115.45a12.81,12.81,0,0,1-1.59,4.28l-1.07,94.74a7.48,7.48,0,0,1,2,3.28l.72-102.21L1003,443.83a9.63,9.63,0,0,1,.41,2.78c0,7.81,0,119.52,0,119.52s.08,9,9.91,9.14,76.23.28,76.23.28a11.21,11.21,0,0,0,8.56-11.2V224.55S1096.65,215.92,1089.44,215.92Z"/><path class="cls-1" d="M52.94,655.5s-1.63.08-1.63-1.27V602.87a1.2,1.2,0,0,1,1.34-1.11H98.54a5.38,5.38,0,0,1,1.5.21,9.06,9.06,0,0,1,6.72,9.25c-.1,7.67,0,38.27,0,42.57a1.83,1.83,0,0,1-.39,1.19,1.13,1.13,0,0,1-.85.52H94.77s-1.27-.08-1.26-1.16,0-39.85,0-39.85H85.12v39.72s-.1,1.29-1.28,1.3H74.22A1.38,1.38,0,0,1,73,654c0-1.43,0-39.6,0-39.6l-8.42.05.07,39.5a1.7,1.7,0,0,1-.16.74,1.25,1.25,0,0,1-1.22.74Z"/><path class="cls-1" d="M167.08,653.33s-.44-37.17-.38-43.72-7.21-7.59-7.21-7.59-25.55.26-31.4.26c-3.22,0-5.12,2.44-6.17,4.63a12.68,12.68,0,0,0-1.18,5.35c-.07,8.27-.35,40.53-.35,42.67a2.28,2.28,0,0,0,2.29,2.44s9.68.14,10.72,0,1.06-1.53,1.06-1.53l0-14.51a1.71,1.71,0,0,1,1.11-1.72s14.14.1,16,.08,1.76,2.39,1.76,2.39-.19,10.73-.11,13.19,1.83,2.07,1.83,2.07h10.32C167.24,657.37,167.08,653.33,167.08,653.33Zm-13.65-26.25s-.52,1.39-1.17,1.41-17.09-.19-17.09-.19-.79,0-.76-1.55,0-11.55,0-11.55-.09-1.13.11-1.17,18.2,0,18.2,0a1.14,1.14,0,0,1,.71,1.15Z"/><path class="cls-1" d="M217.16,603.77s.38-2-1.45-2H205s-1.15,0-1.15,1.59-.16,37.91-.16,37.91-.08,2.51-1.39,2.48-11.71,0-11.71,0a1.67,1.67,0,0,1-1.86-2c.11-2.19,0-11.2,0-11.2a.92.92,0,0,0-1.09-1.09c-1.29.07-11.35.23-11.35.23s-1-.08-1,1.39v17.3s.94,9,7.8,9h27.36s6.44-1.75,6.55-7.2S217.16,603.77,217.16,603.77Z"/><path class="cls-1" d="M268.47,602.12c-8.51,0-30.82-.35-30.82-.35s-7.7,2.15-7.78,8.12,0,39.23,0,39.23.32,7.57,7.74,7.57h31.11s7.21-.7,7.16-7.53,0-38.41,0-38.41S277,602.07,268.47,602.12Zm-7.37,41.74H244.81s-1.58.36-1.55-1.66.08-25.39.08-25.39-.08-1.84,1.39-1.8c2,.06,15.64,0,15.64,0s1.94,0,2,1.39c0,1.81,0,25.8,0,25.8S262.71,643.86,261.1,643.86Z"/><path class="cls-1" d="M336.68,655.24c-.76-1.42-8.3-13.92-8.3-13.92l-.35-.52s6.41-.95,6.44-7.36.08-24.86.08-24.86-.94-6.51-6.51-6.55l-36.39-.26a2.79,2.79,0,0,0-2.87,2.8c0,3.56.08,51.1.08,51.1s-.37,1.7,1.35,1.7h11.18s.86-.07.9-2.07,0-13.95,0-13.95-.16-1.26.93-1.23,8.9.11,8.9.11a5.17,5.17,0,0,1,1.69,1.64l7.42,13.59a3.27,3.27,0,0,0,3.28,1.91c2.62,0,11.68-.22,11.68-.22S337.44,656.66,336.68,655.24ZM320.8,627.58s-.52,1.4-1.17,1.42-17.09-.19-17.09-.19-.79,0-.76-1.55,0-11.55,0-11.55-.09-1.14.11-1.17,18.2,0,18.2,0a1.13,1.13,0,0,1,.71,1.14Z"/><path class="cls-1" d="M376.47,602.85a1.3,1.3,0,0,0-1.24,1.47c0,1.45.07,50.82.07,50.82a1.29,1.29,0,0,0,1.27,1.41l36,.06s1.29,0,1.3-1.58,0-10.33,0-10.33,0-1.12-1.44-1.15-21.71,0-21.71,0-1.48-.11-1.49-1.27,0-38,0-38a1.3,1.3,0,0,0-1.33-1.46Z"/><path class="cls-1" d="M460.65,614.6s1.8.33,2-2,0-9.18,0-9.18-.24-1.8-1.55-1.8h-38s-2-.41-2,2.71-.12,50.23-.12,50.23-.21,2.74,2.45,2.66,38.34,0,38.34,0,.88-.24.92-2.54,0-8.66,0-8.66.19-1.59-1.88-1.55-25.18-.1-25.18-.1-1.33.08-1.33-1.79,0-6.76,0-6.76,0-1.17,1.69-1.12,21.67,0,21.67,0,1.17-.14,1.11-1.78,0-7.46,0-7.46.06-1.31-1.83-1.37-21.28.32-21.28.32-1.5.16-1.46-2.38.06-6.43.06-6.43-.08-.9,2.54-.94S460.65,614.6,460.65,614.6Z"/><path class="cls-1" d="M692.1,614.46s1.8.33,2-2.05,0-9.17,0-9.17-.25-1.8-1.56-1.8h-38s-2-.41-2,2.7-.12,50.24-.12,50.24-.2,2.74,2.46,2.66,38.33,0,38.33,0,.88-.25.92-2.54,0-8.66,0-8.66.19-1.6-1.87-1.55-25.18-.11-25.18-.11-1.33.09-1.33-1.78,0-6.76,0-6.76,0-1.17,1.69-1.12,21.67,0,21.67,0,1.17-.14,1.11-1.78,0-7.46,0-7.46,0-1.31-1.83-1.37-21.29.32-21.29.32-1.5.16-1.46-2.38.07-6.43.07-6.43-.09-.9,2.53-.94S692.1,614.46,692.1,614.46Z"/><path class="cls-1" d="M577.56,603.27s.22-.81-1.21-.79-34.69,0-34.69,0-7.21,1.21-7,7.6-.1,39.25-.1,39.25.54,7.59,8.18,7.59h31.22s6.45-2.08,6.45-8.06V628.33s.11-1.05-.69-1.07L568,627.13a1,1,0,0,0-.94,1c0,1,0,13.88,0,13.88s-.1,1.62-1.6,1.66-16.14,0-16.14,0-1.07-.2-1.09-1.82S548,617,548,617s-.22-1.85,3.57-1.91,25.25-.15,25.25-.15.69.08.65-1.68S577.56,603.27,577.56,603.27Z"/><path class="cls-1" d="M606.73,603.9s.4-2-2.13-1.91S594,602,594,602s-1.55-.08-1.47,1.89-.25,45.19-.25,45.19,1.72,8.3,8.52,8.3h30.62s7.54-2.65,7.54-8.62V604.37s.32-2.47-2-2.38-9.91,0-9.91,0-1.55-.49-1.64,2.62-.08,35.54-.08,35.54.49,3.77-2.29,3.68-14.49.09-14.49.09-2.13.24-2.13-2.79S606.73,603.9,606.73,603.9Z"/><path class="cls-1" d="M522,652.61s-.44-37.18-.39-43.73-7.2-7.59-7.2-7.59-25.55.26-31.4.26c-3.22,0-5.12,2.44-6.17,4.64a12.62,12.62,0,0,0-1.18,5.35c-.07,8.26-.35,40.52-.35,42.66a2.29,2.29,0,0,0,2.29,2.45s9.68.13,10.72,0,1.06-1.52,1.06-1.52l0-14.52a1.71,1.71,0,0,1,1.11-1.72s14.14.1,16,.08,1.77,2.4,1.77,2.4-.19,10.73-.11,13.18,1.83,2.08,1.83,2.08H520.2C522.11,656.65,522,652.61,522,652.61Zm-13.82-25S507.61,629,507,629s-17.08-.19-17.08-.19-.8,0-.77-1.55,0-11.55,0-11.55-.08-1.14.11-1.17,18.21,0,18.21,0a1.13,1.13,0,0,1,.71,1.14Z"/><path class="cls-1" d="M839.1,653.33s-.43-37.17-.38-43.72-7.2-7.59-7.2-7.59-25.55.26-31.41.26c-3.21,0-5.11,2.44-6.16,4.63a12.68,12.68,0,0,0-1.18,5.35c-.07,8.27-.35,40.53-.35,42.67a2.28,2.28,0,0,0,2.29,2.44s9.68.14,10.71,0,1.07-1.53,1.07-1.53l0-14.51a1.71,1.71,0,0,1,1.11-1.72s14.14.1,16,.08,1.76,2.39,1.76,2.39-.18,10.73-.1,13.19,1.83,2.07,1.83,2.07h10.32C839.27,657.37,839.1,653.33,839.1,653.33Zm-13.82-25s-.51,1.39-1.17,1.42-17.09-.19-17.09-.19-.79,0-.76-1.56,0-11.54,0-11.54-.08-1.14.11-1.18,18.2,0,18.2,0a1.14,1.14,0,0,1,.71,1.15Z"/><path class="cls-1" d="M748.22,604.17s0-1.41-1.05-1.41H735.05s-1,.13-1,1.49,0,51.13,0,51.13a1.29,1.29,0,0,0,1.27,1.27c1.23,0,11.57,0,11.57,0s1.25,0,1.24-1.22,0-18.38,0-18.38a1.34,1.34,0,0,1,1.46-1c1.29,0,15.85.06,15.85.06a1.28,1.28,0,0,1,1.15,1.28c0,1.17,0,17.93,0,17.93a1.4,1.4,0,0,0,1.49,1.37c1.47,0,11.43,0,11.43,0a1.68,1.68,0,0,0,1.29-1.68v-51s-.22-1.29-1.3-1.29H768a1.35,1.35,0,0,0-1.38,1.52c0,1.57,0,17.32,0,17.32a1.53,1.53,0,0,1-1.46,1.33H749.49s-1.26.1-1.31-1.44S748.22,604.17,748.22,604.17Z"/><path class="cls-1" d="M891.59,614.77s1.64.08,1.72-2,0-9.17,0-9.17a1.56,1.56,0,0,0-1.72-1.61c-1.8,0-32.1,0-32.1,0s-7.94,1.53-7.86,7.34.08,39.61.08,39.61-.27,7.53,6.66,7.58,33.3,0,33.3,0a1.49,1.49,0,0,0,1.68-1.63c0-1.81,0-9,0-9a2,2,0,0,0-1.92-2.17c-2-.08-24.73,0-24.73,0a2,2,0,0,1-1.84-2.21c-.05-2.13-.24-24.75-.24-24.75a1.9,1.9,0,0,1,2.11-1.89C868.85,615,891.59,614.77,891.59,614.77Z"/><path class="cls-1" d="M919.8,603.38s-.21-1.39-1.19-1.39-11.54.12-11.54.12a1.09,1.09,0,0,0-.76,1.19c0,1,.2,52.65.2,52.65a1.09,1.09,0,0,0,1.15,1c1.13,0,11.39,0,11.39,0s.81,0,.81-1V642.44l7.46-8.46,13.26,22.6s.33.79,2.19.79,12.77-.22,12.77-.22.82-.71-.66-2.78-17.6-28.75-17.6-28.75l19-22.84s.32-.86-.68-.87-13.63,0-13.63,0l-21.5,24.28s-.86,0-.86-1.31S919.8,603.38,919.8,603.38Z"/><path class="cls-1" d="M979.74,603.06s.12-1.13-.58-1.16-11.67,0-11.67,0-.9,0-.9,1.16-.24,52.56-.24,52.56-.17,1.75,1.2,1.75H978.9s.87-.43.84-2S979.74,603.06,979.74,603.06Z"/><path class="cls-1" d="M994.47,601.89a2.1,2.1,0,0,0-1.84,2.07c0,1.84.06,51.88.06,51.88s.19,1.53,1.5,1.53h11.24a2.28,2.28,0,0,0,1.09-2c.06-1.47,0-38.71,0-38.71s0-1.64,1.55-1.64h16a1.37,1.37,0,0,1,1.28,1.42c.08,1.39,0,39.06,0,39.06s.14,1.6,1.5,1.6l11.06-.06a1.66,1.66,0,0,0,1.15-1.78c0-1.52,0-45.47,0-45.47s.67-7.66-7.84-7.92S994.47,601.89,994.47,601.89Z"/></svg>