<svg id="Layer_1" data-name="Layer 1" xmlns="http://www.w3.org/2000/svg" viewBox="0 0 864 612"><defs><style>.cls-1{fill:#fff;}</style></defs><title>MSC</title><path class="cls-1" d="M326.91,334.71c-4.19,14.66,6.26,26.19,21.39,26.19h49.24c9.48,0,21.19-9.12,23.94-18.25l4.84-16.84H396.64l-1.59,4.87c-.88,2.93-2.89,4.32-6.27,4.33H364c-4,0-5.18-2.32-4.34-5.41l12.82-44.72c1-3.55,2.91-6.17,6.93-6.17H405c3.4,0,4.6,1.39,3.76,4.32l-1.85,6.76h29.67l1.92-6.76a23.35,23.35,0,0,0-22.35-30.13H370.41a26.73,26.73,0,0,0-25.71,19.39Z"/><polygon class="cls-1" points="166.04 360.9 188.09 283.53 137.34 360.9 104.87 360.9 110.14 283.53 75.17 360.9 43.24 360.9 89.89 252.9 141.82 252.9 137.24 312.01 172.48 252.9 229.02 252.9 198.24 360.9 166.04 360.9"/><path class="cls-1" d="M318.79,323.52a23.36,23.36,0,0,0-22.35-30.14H266.5c-4-.07-5-2.62-4.11-5.44l1.09-3.81c.9-2.85,3-5.48,6.61-5.41h54.3l11.78-25.82H260.4A26.84,26.84,0,0,0,235,274.2l-5.42,18.74,0,.08c-4.19,14.66,6.26,26.19,21.39,26.19l1.09,0h31.64c2.58,0,4.54.92,3.57,4.32l-2,7.08c-1,3.32-3.21,4.36-5.93,4.47h-59L213,360.9h76.59c9.43-.2,21.06-9.17,23.78-18.21Z"/><path class="cls-1" d="M824.54,339.55v0a5.7,5.7,0,0,1,5.7-5.69,5.64,5.64,0,0,1,5.67,5.66v0a5.71,5.71,0,0,1-5.7,5.69A5.64,5.64,0,0,1,824.54,339.55Zm10.71,0v0a5,5,0,1,0-10,0v0a5,5,0,1,0,10,0Zm-7.37-3.19h2.69a2.59,2.59,0,0,1,1.87.66,1.82,1.82,0,0,1,.5,1.32v0a1.87,1.87,0,0,1-1.3,1.87l1.47,2.17h-1.55l-1.29-1.95h-1v1.95h-1.34Zm2.67,2.95c.68,0,1-.36,1-.86v0c0-.58-.41-.88-1.07-.88h-1.3v1.77Z"/><path class="cls-1" d="M546.32,277.94c-2.86,1.72-6.08,1.81-12.44,1.81H522.24V252.9H534c5.29,0,8.44.08,11.18,1.72a5.74,5.74,0,0,1,2.74,5.33c0,2.83-1.14,4.63-4.07,6v.16c3.34.82,5.48,2.58,5.48,6.34a5.83,5.83,0,0,1-3,5.53m-11.61-20.15H529V264h5.78c4.64,0,6.4-.59,6.4-3.17s-2.21-3.07-6.44-3.07m1.34,10.94H529v6.08h7.16c4.67,0,6.35-.51,6.35-3.06s-2.21-3-6.43-3m21.43,8.74c-2.58-2.08-3.12-5.13-3.12-9.52v-15h6.74v14.54c0,2.27.34,4.07,1.52,5.41s3.57,2,6.24,2,4.95-.5,6.24-2c1.14-1.22,1.44-2.94,1.44-5.18V252.9h6.62v15c0,4.39-.53,7.44-3.15,9.52-3,2.39-6.85,2.82-11.23,2.82s-8.33-.43-11.3-2.82M590,252.9h6.73v26.85H590Zm13.76,26.85V252.9h6.74v21.24h16.58v5.61Zm31.13,0V258.23H624.34V252.9h27.84v5.33H641.61v21.52ZM529.65,320.32V298.81H519.12v-5.33H547v5.33H536.39v21.51Zm49.24-2.19c-3.16,2.16-7.23,2.75-12.37,2.75s-9.24-.59-12.4-2.79c-3.58-2.43-4.79-6.43-4.79-11.2s1.21-8.82,4.79-11.26c3.16-2.15,7.23-2.7,12.36-2.7s9.25.59,12.41,2.7c3.53,2.48,4.79,6.51,4.79,11.26s-1.26,8.77-4.79,11.24m-12.37-19.79c-7.08,0-10.31,2-10.31,8.35,0,6.15,3.16,8.78,10.27,8.78s10.31-2.08,10.31-8.39c0-6.16-3.16-8.74-10.27-8.74m66.16,22V300.85h-.15l-7.76,19.47h-7.3l-7.81-19.47h-.15v19.47h-5.86V293.48h9.67l8.1,20.57h.15l8.22-20.57h9.62v26.84Zm38,0-2.81-5.83H653.4l-2.74,5.83h-7.27l13.39-26.84h8l13.39,26.84Zm-10-21h-.14l-4.8,10.07h9.74Zm41.7,21-9.93-11.55L688.89,312v8.31h-6.73V293.48h6.73v11.29l11.76-11.29h8.86l-12.13,11.41,13.32,15.43Zm12.47,0V293.48h22v5.33H721.57V304h14.07v5.18H721.57V315h15.86v5.36ZM532.51,360.9V349.62l-14.15-15.56h8.71l8.71,9.8H536l8.6-9.8h8.6l-13.92,15.21V360.9Zm50.15-2.19c-3.15,2.16-7.23,2.74-12.37,2.74s-9.24-.58-12.39-2.78c-3.58-2.43-4.8-6.42-4.8-11.21s1.22-8.81,4.8-11.24c3.15-2.16,7.22-2.7,12.36-2.7s9.25.58,12.4,2.7c3.53,2.47,4.8,6.5,4.8,11.24s-1.27,8.78-4.8,11.25m-12.37-19.79c-7.07,0-10.3,2-10.3,8.35,0,6.15,3.15,8.78,10.27,8.78s10.31-2.08,10.31-8.39c0-6.15-3.16-8.74-10.28-8.74m25.26,19.71c-2.58-2.07-3.12-5.13-3.12-9.52V334.06h6.73V348.6c0,2.27.35,4.08,1.52,5.41s3.59,2,6.24,2,5-.51,6.24-2c1.15-1.22,1.46-2.94,1.46-5.17V334.06h6.61v15.05c0,4.39-.53,7.45-3.15,9.52-3,2.39-6.86,2.82-11.23,2.82s-8.33-.43-11.3-2.82m71.49.48c-2.85,1.72-6.09,1.79-12.45,1.79H643V334.06h11.72c5.28,0,8.44.08,11.18,1.73a5.74,5.74,0,0,1,2.73,5.33c0,2.82-1.13,4.62-4.07,5.95v.16c3.36.82,5.49,2.59,5.49,6.35a5.82,5.82,0,0,1-3,5.53M655.44,339h-5.75v6.23h5.78c4.64,0,6.39-.58,6.39-3.17s-2.21-3.06-6.42-3.06m1.32,10.93h-7.07V356h7.15c4.68,0,6.35-.51,6.35-3.06s-2.2-3-6.43-3m18.91,11V334.06h21.94v5.33H682.4v5.22h14.07v5.17H682.4v5.76h15.86v5.36Zm36.4,0V339.39H701.54v-5.33h27.84v5.33H718.8V360.9Zm30.59,0V339.39H732.12v-5.33H760v5.33H749.4V360.9Zm21.56,0V334.06h21.95v5.33H771v5.22H785v5.17H771v5.76h15.86v5.36Zm48.39,0-7-9.24c-.61,0-1.25,0-1.86,0h-4.3v9.2h-6.74V334.06h12.67c5.11,0,8.79.24,11.3,2.16,1.91,1.45,2.78,3.53,2.78,6.5,0,3.18-1,5.25-3,6.7a8.41,8.41,0,0,1-3.5,1.45l7.77,10Zm-7.15-21.7h-6v7.6h6c5.06,0,7.11-.67,7.11-3.88,0-3.49-2.74-3.72-7.19-3.72"/><rect class="cls-1" x="476.76" y="252.9" width="6.39" height="108"/></svg>