<svg id="Layer_1" data-name="Layer 1" xmlns="http://www.w3.org/2000/svg" viewBox="0 0 1024 600"><defs><style>.cls-1{fill:#ef3b38;}</style></defs><title>MSC_Logo</title><polygon class="cls-1" points="6.57 460.43 125.64 184.87 259.45 184.87 250 336.07 338.45 184.87 482.85 184.87 405.74 466.1 320.31 466.1 377.01 274.08 253.78 466.1 166.84 466.1 177.43 269.54 88.97 466.1 6.57 466.1 4.02 466.1 6.57 460.43"/><path class="cls-1" d="M755.77,189.4H554.67s-34.78,3.78-46.12,34.78S480.77,301.67,486.63,321c5.54,18.21,24.19,35.53,52.16,35.53h91.48s4.72.38,4.54,11.34c-.23,12.85-8.32,31.75-8.32,31.75H464.71L442,466.1H647.66s40.07-7.56,56.7-54.43a207.77,207.77,0,0,0,11.56-52c1.64-19.42-3.84-39-16.48-53.86-5.31-6.23-13.23-10.94-24.71-12.7-16.78-2.56-77.63-3.83-96.3-4.5a6.82,6.82,0,0,1-6.38-5.26c-2.09-8.64.78-30.87,17.52-34.22,22.68-4.53,142,.75,142,.75Z"/><path class="cls-1" d="M1020,275.29v-37c0-17.63-3.14-33.14-16.69-44.43-5.43-4.51-18.94-6.33-22.15-6.44-24.85-.91-121-.59-139.8-.58a93.33,93.33,0,0,0-12.94,1.45c-9.31,2.71-27.6,11.68-36.73,37.87-9.95,28.53-43.79,136.28-51.91,162.2a45.7,45.7,0,0,0-2.14,13.83c.07,18.14,5.48,60.17,54,61.35,58,1.41,124.62.18,132.94,0a8.85,8.85,0,0,0,1.86-.24c5.72-1.4,34.86-10.39,53.9-51.29a10.72,10.72,0,0,0,.51-1.33c1.42-4.61,9.62-31.54,9.62-36.37l-77.11-1.51s3,24.95-11.34,24.95c-11.36,0-54.9-1.6-72.64-2.26a9.32,9.32,0,0,1-9-9.34,72,72,0,0,1,3-19.4c4.89-17.75,30.24-101.3,30.24-101.3s3.78-15.88,15.12-15.88,78.63.76,78.63.76h0a95.6,95.6,0,0,1-.54,21.78,22,22,0,0,1-1.35,4.95l-.82,2.08,75.28-.08"/></svg>