<svg id="Layer_1" data-name="Layer 1" xmlns="http://www.w3.org/2000/svg" viewBox="0 0 1152 864"><defs><style>.cls-1{fill:#fdbf4b;}.cls-2{fill:#fff;}</style></defs><title>Nooklyn_White</title><path class="cls-1" d="M673.22,424c-3.8,11.88-23.41,24.38-53,31.62L577.76,383.3a14.22,14.22,0,0,0-12.29-7h0a14.23,14.23,0,0,0-12.29,7L510.6,455.63c-29.67-7.24-49.33-19.75-53.14-31.64a4,4,0,0,1,.28-2.41L565.43,238.12,672.94,421.58A4,4,0,0,1,673.22,424Z"/><path class="cls-2" d="M698.5,408.93a11.29,11.29,0,0,0-.57-1.09L581.79,209.65l21.85-45.84a14.26,14.26,0,0,0-25.74-12.26L564,180.8l-13.35-28.07A14.28,14.28,0,1,0,524.87,165l22.58,47.46L432.76,407.83a11.29,11.29,0,0,0-.57,1.09,32.24,32.24,0,0,0-1.88,23.76c10.87,33.95,66.4,57.66,135,57.66s124.17-23.72,135-57.67A32.23,32.23,0,0,0,698.5,408.93ZM540.73,460.65l24.71-42,24.66,42c-7.87.77-16.14,1.2-24.76,1.2S548.55,461.41,540.73,460.65ZM673.22,424c-3.8,11.88-23.41,24.38-53,31.62L577.76,383.3a14.22,14.22,0,0,0-12.29-7h0a14.23,14.23,0,0,0-12.29,7L510.6,455.63c-29.67-7.24-49.33-19.75-53.14-31.64a4,4,0,0,1,.28-2.41L565.43,238.12,672.94,421.58A4,4,0,0,1,673.22,424Z"/><path class="cls-2" d="M49.34,592.14a4,4,0,0,1,4-3.85h5.34l88.82,94.37h.21V594.49a4.06,4.06,0,0,1,4.06-4.06h19.64a4.21,4.21,0,0,1,4.06,4.06V738.17a4,4,0,0,1-4.06,3.85h-5.12L77.1,644h-.22v91.8a4.06,4.06,0,0,1-4.06,4.06H53.39a4.2,4.2,0,0,1-4-4.06Z"/><path class="cls-2" d="M288.88,588.29a76.87,76.87,0,1,1-76.64,77.1v0C212.24,622.67,246.19,588.29,288.88,588.29Zm0,126c26.9,0,49.11-22,49.11-48.89s-22.21-49.32-49.11-49.32S240,638.47,240,665.37a49,49,0,0,0,48.88,48.89Z"/><path class="cls-2" d="M472.49,588.29a76.87,76.87,0,1,1-76.64,77.1v0C395.85,622.67,429.79,588.29,472.49,588.29Zm0,126c26.9,0,49.11-22,49.11-48.89s-22.21-49.32-49.11-49.32S423.6,638.5,423.6,665.4a49,49,0,0,0,48.89,48.86Z"/><path class="cls-2" d="M585.86,595.55a5,5,0,0,1,5-5.12h18.93a5.2,5.2,0,0,1,5.12,5.12V653.2l53.81-60.64a5.14,5.14,0,0,1,4-2.13h21.36a4.54,4.54,0,0,1,3.41,7.69l-55.73,62.76,59.79,71.53a4.69,4.69,0,0,1-1,6.56,4.62,4.62,0,0,1-2.85.91H674.46a4.64,4.64,0,0,1-3.84-1.49l-55.73-68.75v65.12a5.2,5.2,0,0,1-5.12,5.12H591a5,5,0,0,1-5.12-5v-.14Z"/><path class="cls-2" d="M737.87,594.49a4,4,0,0,1,3.94-4.06h19.7a4.2,4.2,0,0,1,4.06,4.06V714.26H820a4.06,4.06,0,0,1,4.06,4.06v17.5a4.06,4.06,0,0,1-4.06,4.06H741.92a4,4,0,0,1-4-4v-.06Z"/><path class="cls-2" d="M872.37,667.93l-48.68-71.31a4,4,0,0,1,3.42-6.19h21.77a4.27,4.27,0,0,1,3.42,1.92l34.16,49.11,34.16-49.11a4.25,4.25,0,0,1,3.41-1.92h22a4,4,0,0,1,4.07,3.93,4,4,0,0,1-.65,2.26l-49.32,71.1v68.1a4.2,4.2,0,0,1-4,4.06h-19.7a4.06,4.06,0,0,1-4.06-4.06Z"/><path class="cls-2" d="M976.77,592.14a4,4,0,0,1,4.06-3.85h5.34L1075,682.66h.21V594.49a4.06,4.06,0,0,1,4.06-4.06h19.64a4.2,4.2,0,0,1,4.06,4.06V738.17a4,4,0,0,1-4.06,3.85h-5.12l-89.24-98h-.22v91.8a4,4,0,0,1-3.94,4.06H980.83a4.21,4.21,0,0,1-4.06-4.06Z"/></svg>