<?xml version="1.0" encoding="utf-8"?>
<!-- Generator: Adobe Illustrator 22.1.0, SVG Export Plug-In . SVG Version: 6.00 Build 0)  -->
<svg version="1.1" xmlns="http://www.w3.org/2000/svg" xmlns:xlink="http://www.w3.org/1999/xlink" x="0px" y="0px"
	 viewBox="0 0 361 44" style="enable-background:new 0 0 361 44;" xml:space="preserve">
<style type="text/css">
	.st0{fill:#EC1D25;}
	.st1{fill:#ED1B2F;}
	.st2{fill:#FFFFFF;}
</style>
<g id="Layer_1">
	<g>
		<rect class="st0" width="361" height="44"/>
	</g>
</g>
<g id="Layer_2">
	<path class="st1" d="M180.6,23.7"/>
	<path class="st2" d="M181.1,23.5"/>
	<path class="st2" d="M27.2,17.4L27,33.3c0,0.5-0.3,0.4-0.7,0.1c-0.5-0.4-2.7-2.6-4.8-3.3c-2.2-0.7-2.4-0.6-4.6-0.6
		c-2.1,0-4.1-0.1-4.3-0.3c-0.2-0.1-0.6-0.1-0.5-1l2.2-15.6c0.1-0.7-0.1-1,1.1-0.8s4.2,0.2,4.8,0.3c0.9,0.1,2.8,0.5,4.2,1.7
		C25.6,15,27.2,16.4,27.2,17.4"/>
	<path class="st2" d="M28,17.4l-0.1,15c0,0.7,0.4,0.9,0.8,0.3c0.5-0.7,1.2-1.3,2-1.7c2.9-1.4,6.8-1.6,7.3-1.7c0.5,0,3.1-0.3,3.4-0.4
		c0.9-0.3,1.1,0,0.9-1.8l-2-15.2c-0.1-0.7-0.2-0.6-0.6-0.5c-0.4,0.1-0.3,0.1-2.3,0.5c-1,0.2-2.3,0-3.8,0.5c-1.5,0.5-2.7,1.3-4,2.4
		C29.2,15.3,28.1,16.1,28,17.4"/>
	<path class="st2" d="M71,12.3c0.4-0.2,0.6-0.3,0.6,0.2c0.1,0.7,0.3,4.1,0.3,4.4c0,0.3-0.1,0.4-0.3,0.1c-0.5-0.5-2.3-2.4-4.9-3.1
		c-1.9-0.5-3.6-0.4-4.7-0.1c-1.4,0.4-2.2,1.1-2.7,1.7c-0.7,1.1-0.6,2.4,0.2,3.2c0.9,0.9,2.6,1.2,4.2,1.4c1.6,0.2,4.5,0.6,6,1.2
		c1.3,0.5,2.4,1.4,3.1,2.4c1,1.4,0.9,3.9-0.2,5.4c-1.2,1.6-2.7,2.5-4.4,3c-2.5,0.7-5.1,0.5-7.5-0.1c-2.1-0.6-3.8-1-5.2-0.3
		c-0.3,0.2-0.4,0.1-0.4-0.2c0-0.4-0.3-4.2-0.3-4.9c0-0.2,0.2-0.2,0.2-0.1c0.7,0.8,3.1,2.5,5.6,3.3c2.2,0.7,4,0.9,6.5,0.3
		c1.2-0.3,2-1.2,2.3-1.7c0.4-0.8,0.4-2.1-0.2-2.8c-0.4-0.5-1-1.2-5.9-1.9c-5.1-0.7-6.5-2-7.5-3.4c-1.2-1.8-1-3.9-0.1-5.4
		c0.9-1.6,2.3-2.4,3.6-2.8c1.6-0.6,4-0.9,6.7-0.4C68.9,12.1,69.9,12.8,71,12.3"/>
	<path class="st2" d="M104.1,13.4c0-0.3-0.1-0.3-0.4-0.5c-0.5-0.3-2.3-0.9-3.3-1.1c-2.4-0.4-4.9-0.5-7.4,0.2c-2.3,0.7-4.7,1.6-7,5
		c-1.7,2.5-2.1,6.7-0.1,9.7c1.9,2.9,4.5,4.4,6.9,5.1c2.2,0.7,5.6,0.9,8.3,0.2c1.2-0.3,2.5-0.8,3-1c0.3-0.2,0.3-0.2,0.4-0.5
		c0.1-0.6,0.5-2.7,0.6-3.4c0.1-0.3-0.1-0.4-0.3-0.1c-1,1-2.5,2-4.1,2.6c-2,0.8-4.7,1.2-7.3-0.1c-2.7-1.3-3.6-3.1-4.1-4
		c-0.8-1.5-1.5-4.9,0.4-8c1.3-2,2.8-2.8,4.1-3.3c1.7-0.7,4.2-0.9,6.2-0.1c1.3,0.5,3,1.4,4,2.6c0.1,0.2,0.4,0.2,0.3-0.2
		C104.4,16.1,104.1,13.4,104.1,13.4"/>
	<path class="st2" d="M135.5,22.2H122v6.6c0,0.8,0.2,2.4,1.8,3c0.2,0.1,0.2,0.2,0,0.2c-0.4,0-3.1,0-3.1,0h-1c0,0-2.6,0-3.1,0
		c-0.2,0-0.2-0.2,0-0.2c1.7-0.6,1.8-2.2,1.8-3V15.2c0-0.8-0.2-2.4-1.8-3c-0.2-0.1-0.2-0.2,0-0.2c0.4,0,3.1,0,3.1,0h1
		c0,0,2.6,0,3.1,0c0.2,0,0.2,0.2,0,0.2c-1.7,0.6-1.8,2.2-1.8,3v5.1h13.5v-5.1c0-0.8-0.2-2.4-1.8-3c-0.2-0.1-0.2-0.2,0-0.2
		c0.4,0,3.1,0,3.1,0h1c0,0,2.6,0,3.1,0c0.2,0,0.2,0.2,0,0.2c-1.7,0.6-1.8,2.2-1.8,3v13.6c0,0.8,0.2,2.4,1.8,3c0.2,0.1,0.2,0.2,0,0.2
		c-0.4,0-3.1,0-3.1,0h-1c0,0-2.6,0-3.1,0c-0.2,0-0.2-0.2,0-0.2c1.7-0.6,1.8-2.2,1.8-3V22.2"/>
	<path class="st2" d="M194,30.2v-15c0-1,0.3-2.3,2-3c0.2-0.1,0.1-0.3,0-0.3c-0.4,0-3.4,0-3.4,0h-1c0,0-2.6,0-3.1,0
		c-0.2,0-0.2,0.2,0,0.2c1.7,0.6,1.8,2.2,1.8,3v13.6c0,0.8-0.2,2.5-1.8,3.1c-0.2,0.1-0.2,0.2,0,0.2c0.4,0,3.1,0,3.1,0h1
		c0,0,7.3,0,8.2,0c1.1,0,2.1,0.3,2.9,0.7c0.1,0.1,0.2,0.1,0.3-0.1c0.2-0.5,1.4-3.5,1.6-4c0.1-0.2,0-0.3-0.2-0.2
		c-0.2,0.2-1.9,1.7-4.4,1.7C198.5,30.2,194,30.2,194,30.2"/>
	<path class="st2" d="M266.2,12.3c0.4-0.2,0.6-0.3,0.6,0.2c0.1,0.7,0.3,4.1,0.3,4.4c0,0.3-0.1,0.4-0.3,0.1c-0.5-0.5-2.3-2.4-4.9-3.1
		c-1.9-0.5-3.6-0.4-4.7-0.1c-1.4,0.4-2.2,1.1-2.7,1.7c-0.7,1.1-0.6,2.4,0.2,3.2c0.9,0.9,2.6,1.2,4.2,1.4c1.6,0.2,4.5,0.6,6,1.2
		c1.3,0.5,2.4,1.4,3.1,2.4c1,1.4,0.9,3.9-0.2,5.4c-1.2,1.6-2.7,2.5-4.4,3c-2.5,0.7-5.1,0.5-7.5-0.1c-2.1-0.6-3.8-1-5.2-0.3
		c-0.3,0.2-0.4,0.1-0.4-0.2c0-0.4-0.3-4.2-0.3-4.9c0-0.2,0.2-0.2,0.2-0.1c0.7,0.8,3.1,2.5,5.6,3.3c2.2,0.7,4,0.9,6.5,0.3
		c1.2-0.3,2-1.2,2.3-1.7c0.4-0.8,0.4-2.1-0.2-2.8c-0.4-0.5-1-1.2-5.9-1.9c-5.1-0.7-6.5-2-7.5-3.4c-1.2-1.8-1-3.9-0.1-5.4
		c0.9-1.6,2.3-2.4,3.6-2.8c1.6-0.6,4-0.9,6.7-0.4C264,12.1,265,12.8,266.2,12.3"/>
	<path class="st2" d="M287.4,14c-2.5,0-4.8,0-5.3,0c-1.1,0-1.7,0-3,0.6c-0.3,0.2-0.4,0-0.2-0.2c0.6-0.8,1.9-2.4,2.5-3.3
		c0.1-0.1,0.2-0.1,0.3,0c0.3,0.2,1.1,0.8,2.3,0.8c1.3,0,11.3,0,12.4,0c1.1,0,2.4-0.1,3.7-0.6c0.2-0.1,0.3,0,0.2,0.2
		c-0.5,0.7-1.8,2.5-2.3,3.1c-0.2,0.2-0.3,0.1-0.4,0c-0.2-0.1-0.7-0.7-2.3-0.7c-0.7,0-2.4,0-4.5,0v14.8c0,0.8,0.2,2.4,1.8,3
		c0.2,0.1,0.2,0.2,0,0.2c-0.4,0-3.1,0-3.1,0h-1c0,0-2.6,0-3.1,0c-0.2,0-0.2-0.2,0-0.2c1.7-0.6,1.8-2.2,1.8-3V14"/>
	<path class="st2" d="M316.5,15.2c0-0.8,0.2-2.4,1.8-3c0.2-0.1,0.2-0.2,0-0.2c-0.4,0-3.1,0-3.1,0h-1c0,0-2.6,0-3.1,0
		c-0.2,0-0.2,0.2,0,0.2c1.7,0.6,1.8,2.2,1.8,3v13.6c0,0.8-0.2,2.4-1.8,3c-0.2,0.1-0.2,0.2,0,0.2c0.4,0,3.1,0,3.1,0h1
		c0,0,2.6,0,3.1,0c0.2,0,0.2-0.2,0-0.2c-1.7-0.6-1.8-2.2-1.8-3V15.2"/>
	<path class="st2" d="M349.2,13.4c0-0.3-0.1-0.3-0.4-0.5c-0.5-0.3-2.3-0.9-3.3-1.1c-2.4-0.4-4.9-0.5-7.4,0.2c-2.3,0.7-4.7,1.6-7,5
		c-1.7,2.5-2.1,6.7-0.1,9.7c1.9,2.9,4.5,4.4,6.9,5.1c2.2,0.7,5.6,0.9,8.3,0.2c1.2-0.3,2.5-0.8,3-1c0.3-0.2,0.3-0.2,0.4-0.5
		c0.1-0.6,0.5-2.7,0.6-3.4c0.1-0.3-0.1-0.4-0.3-0.1c-1,1-2.5,2-4.1,2.6c-2,0.8-4.7,1.2-7.3-0.1c-2.7-1.3-3.6-3.1-4.1-4
		c-0.8-1.5-1.5-4.9,0.4-8c1.3-2,2.8-2.8,4.1-3.3c1.7-0.7,4.2-0.9,6.2-0.1c1.3,0.5,3,1.4,4,2.6c0.1,0.2,0.4,0.2,0.3-0.2
		C349.5,16.1,349.2,13.4,349.2,13.4"/>
	<path class="st2" d="M164.7,32.5h-0.3c-1.2,0-5.5-0.1-8.7-2.8c-3.1-2.6-3.8-5.5-3.8-7.6V22c0-2,0.7-5,3.8-7.6
		c3.2-2.7,7.5-2.8,8.7-2.8h0.3c1.2,0,5.5,0.1,8.7,2.8c3.1,2.6,3.8,5.5,3.8,7.6v0.1c0,2-0.7,5-3.8,7.6
		C170.2,32.4,165.9,32.5,164.7,32.5 M164.7,30.3c1.7,0,4.2-0.7,6-2.5c1.8-1.9,2.3-4.1,2.3-5.7V22c0-1.6-0.6-3.8-2.3-5.7
		c-1.8-1.9-4.3-2.5-6-2.5h-0.2c-1.7,0-4.2,0.7-6,2.5c-1.8,1.9-2.3,4.1-2.3,5.7v0.1c0,1.6,0.6,3.8,2.3,5.7c1.8,1.8,4.3,2.5,6,2.5
		H164.7"/>
	<path class="st2" d="M224.4,11.9c0.6,0,3.6,0,3.6,0s9.7,16.9,10.3,17.8c0.6,1,1.4,1.8,2.2,2c0.2,0.1,0.2,0.3,0,0.3
		c-0.9,0-5.8,0-6.3,0c-0.2,0-0.2-0.2,0-0.3c0.2-0.1,1.1-0.5,0.4-1.7c-0.4-0.7-1.9-3.4-1.9-3.4h-12.8c0,0-1.6,2.8-2,3.5
		c-0.2,0.4-0.3,1.3,0.3,1.7c0.2,0.1,0.2,0.3,0,0.3c-0.3,0-4.3,0-4.6,0c-0.2,0-0.4-0.2,0-0.3c0.4-0.2,1.2-0.5,2.3-2.4
		c1.1-1.8,8.5-14.8,8.8-15.4c0.3-0.6,0.4-1.3-0.2-1.9C224.2,12,224.3,11.9,224.4,11.9 M226.3,15.2l-5.5,9.6h10.8L226.3,15.2"/>
</g>
</svg>
