<?xml version="1.0" encoding="utf-8"?>
<!-- Generator: Adobe Illustrator 22.1.0, SVG Export Plug-In . SVG Version: 6.00 Build 0)  -->
<svg version="1.1" id="Layer_1" xmlns="http://www.w3.org/2000/svg" xmlns:xlink="http://www.w3.org/1999/xlink" x="0px" y="0px"
	 viewBox="0 0 1000 500" style="enable-background:new 0 0 1000 500;" xml:space="preserve">
<style type="text/css">
	.st0{fill:#231F20;}
</style>
<g>
	<g>
		<path class="st0" d="M142.5,320.1h2.8c24.4,0,52.9-10,52.9-38.1c0-30.6-29.9-35.7-54-39.9c-14.4-2.6-38.6-8.9-38.6-22v-2.4
			c0-18,23-22.8,36.6-22.8h1.9c17.1,0,28.8,7.1,36.1,12.4c3.3,2.5,8.4,1,9.6-2.5c0.7-2.1-0.1-4.4-2.1-5.9
			c-8.7-6.3-22.6-14.8-43.6-14.8h-1.9c-23.2,0-48.2,10.5-48.2,33.6v2.4c0,24.4,36.4,30.3,48.4,32.2c22.2,3.6,43.9,8.8,43.9,29.7
			c0,20.1-21.2,27.2-41,27.2h-2.8c-14.5,0-35.4-8.8-42.3-21.4c-1-1.9-3.1-3-5.4-3c-2.4,0-4.7,1.2-5.7,3.1c-0.9,1.6-0.8,3.4,0.2,4.9
			C98.3,309.6,123.9,320.1,142.5,320.1z"/>
		<path class="st0" d="M272.5,320.1h3.5c27.4,0,49.7-19,49.7-42.3v-51.3c0-23.3-22.3-42.3-49.7-42.3h-3.5c-27.4,0-49.7,19-49.7,42.3
			v51.3C222.8,301.1,245.1,320.1,272.5,320.1z M234.7,277.7L234.7,277.7l0-51.3c0-17.4,17-31.5,37.9-31.5h3.5
			c20.9,0,37.9,14.1,37.9,31.5v51.3c0,17.4-17,31.5-37.9,31.5h-3.5c-20.8,0-37.7-14-37.9-31.3C234.7,277.9,234.7,277.8,234.7,277.7z
			"/>
		<path class="st0" d="M406.6,375.6h3.5c27.4,0,49.7-19,49.7-42.3V189.7c0-3.4-3.2-5.5-6.1-5.5c-3.2,0-5.8,2.4-5.8,5.5v89.9l0,3.6
			c-2,14.6-18.7,26.1-38,26.1h-3.5c-20.9,0-37.9-14.2-37.9-31.7v-87.8c0-3.2-2.6-5.5-6.1-5.5c-3.2,0-5.8,2.4-5.8,5.5v87.8
			c0,23.5,22.3,42.6,49.7,42.6h3.5c14.8,0,29.4-5.6,37.9-13.9v27.1c0,17.4-17,31.5-37.9,31.5h-3.5c-19.4,0-36.7-8.8-41.2-21.1
			c-0.9-2.4-3-3.8-5.6-3.8c-2.9,0-6.1,2.1-6.1,5.3c0,0.6,0,1.5,0.6,2.4C361.3,366,385.8,375.6,406.6,375.6z"/>
		<path class="st0" d="M535.9,320.1c4,0,6.1-2.7,6.1-5.3c0-3.2-2.6-5.6-6.1-5.6c-15,0-27.2-10.2-27.2-22.8V134.4
			c0-3.3-2.4-5.5-6.1-5.5c-3.2,0-5.8,2.4-5.8,5.5v152.1C496.9,305.3,514,320.1,535.9,320.1z"/>
		<path class="st0" d="M606.5,320.1h3.5c21.2,0,40.1-11.5,47-28.6l0.2-0.6c0.1-0.3,0.3-0.8,0.3-1.4c0-3-2.8-5.3-6.4-5.3
			c-2.7,0-4.8,1.5-5.3,3.5c-5.4,13-19.8,21.7-35.9,21.7h-3.5c-20.9,0-37.9-14.1-37.9-31.5v-20.6h84.9c3.4,0,6.1-2.5,6.1-5.5v-25.1
			c0-24.1-21.7-42.3-50.4-42.3h-2.5c-27.6,0-50,19-50,42.3v51.3C556.8,301.1,579.1,320.1,606.5,320.1z M568.6,246.3v-19.8
			c0-17.4,17.1-31.5,38.2-31.5h3.1c20.9,0,37.9,14.1,37.9,31.5v19.8H568.6z"/>
		<path class="st0" d="M693.4,320.1c3.5,0,6.1-2.3,6.1-5.5v-90.4c0-15.8,17.5-29.1,38.2-29.1h3.1c21,0,38.2,14.2,38.2,31.7v87.8
			c0,3.1,2.5,5.5,5.8,5.5c2.9,0,6.1-2.1,6.1-5.5v-87.8c0-23.5-22.4-42.6-50-42.6h-3.1c-15,0-29.7,5.6-38.2,14.1v-8.5
			c0-3.2-2.4-5.3-6.1-5.3c-3.4,0-5.8,2.2-5.8,5.3v124.8C687.6,317.6,690.1,320.1,693.4,320.1z"/>
		<path class="st0" d="M818.8,195.5h14.3v91c0,18.8,17.2,33.6,39.1,33.6c3.9,0,5.9-2.8,5.9-5.4c0-2.6-2.1-5.4-5.9-5.4
			c-15.2,0-27.2-10-27.2-22.8v-91h25.3c3.9,0,5.9-2.8,5.9-5.4c0-2.6-2.1-5.4-5.9-5.4H845v-50.5c0-3.1-2.6-5.4-5.9-5.4
			c-3.4,0-5.9,2.3-5.9,5.4v50.5h-14.3c-4,0-6.2,2.8-6.2,5.4C812.7,192.7,814.8,195.5,818.8,195.5z"/>
		<path class="st0" d="M10.6,29.1V471h946.5V29.1H10.6z M943.9,457.8H23.8V42.3h920.1V457.8z"/>
	</g>
	<g>
		<path class="st0" d="M965.3,41.3c0-3.5,1.1-6.4,3.3-8.7c2.2-2.3,5-3.5,8.4-3.5c3.4,0,6.2,1.2,8.4,3.5c2.2,2.3,3.3,5.2,3.3,8.7
			c0,3.5-1.1,6.4-3.3,8.7c-2.2,2.3-5,3.5-8.4,3.5c-3.4,0-6.2-1.2-8.4-3.5C966.3,47.7,965.3,44.8,965.3,41.3z M967.2,41.3
			c0,2.9,0.9,5.3,2.7,7.3c1.8,2,4.2,2.9,7.1,2.9c2.9,0,5.3-1,7.1-2.9c1.8-2,2.7-4.4,2.7-7.3c0-2.9-0.9-5.3-2.7-7.3
			c-1.8-2-4.2-2.9-7.1-2.9c-2.9,0-5.3,1-7.1,2.9C968.1,36,967.2,38.4,967.2,41.3z M980.4,47.9l-3.9-5.7h-1.9v5.7h-1.8V34.7h4.5
			c2.5,0,4.2,1.5,4.2,3.8c0,1.9-1.2,3.3-3,3.7l4,5.8H980.4z M974.6,36.3v4.2h2.7c1.5,0,2.3-0.8,2.3-2.1c0-1.4-0.8-2.1-2.3-2.1H974.6
			z"/>
	</g>
</g>
</svg>
