<?xml version="1.0" encoding="utf-8"?>
<!-- Generator: Adobe Illustrator 19.0.0, SVG Export Plug-In . SVG Version: 6.00 Build 0)  -->
<svg version="1.1" xmlns="http://www.w3.org/2000/svg" xmlns:xlink="http://www.w3.org/1999/xlink" x="0px" y="0px"
	 viewBox="0 0 300 300" style="enable-background:new 0 0 300 300;" xml:space="preserve">
<style type="text/css">
	.st0{fill:#27AAE1;}
	.st1{fill:#263238;}
	.st2{fill:#5AC7DA;}
	.st3{fill:#488FCC;}
	.st4{fill:#485FAB;}
	.st5{fill:#FAFBFB;}
	.st6{fill:#B5E4FA;}
	.st7{fill:#F8AA92;}
	.st8{fill:#FFFFFF;}
</style>
<g id="Layer_3">
</g>
<g id="Layer_1">
	<circle id="XMLID_4_" class="st0" cx="148.7" cy="145.2" r="72.7"/>
	<path id="XMLID_3_" class="st1" d="M76.1,137.1c2,0.2,4-1.3,4.4-3.5c0.5-2.3,8.4-39.1,44.3-52.9c24.1-9.2,51.5-4.5,71.5,12.3
		c1.7,0.2,3.4-0.7,4.1-2.2c0.9-1.8-0.7-4.1-1.2-5c-3.3-5.1-39.9-26.9-76.7-12.9c-37.3,14.2-48.5,55.2-49.9,60.6
		C72.8,135.5,74.3,137,76.1,137.1z"/>
	<path id="XMLID_5_" class="st1" d="M99.1,199.3c1.3-1,3.2-1,4.6,0.1c2.3,1.6,32.7,22.6,68.6,8.8c36.9-14.2,44.9-51.9,45.3-54.3
		c0.8-0.5,2.8-1.8,4.5-1.1c1.8,0.8,2.2,3.3,2.3,4.3c0.9,5.9-12.9,46.3-49.9,59.6c-36.7,13.2-71.1-9-76.1-12.3
		C97.2,202.8,97.6,200.5,99.1,199.3z"/>
	<path id="XMLID_7_" class="st1" d="M197.8,152.1c-0.6-0.9-3.8-0.9-7.7,0.4c-27.3,9.3-50.1,12.4-65.2,13.5
		c-10.3,0.7-22.8,0.9-37.1-2.1c-5.6-1.2-27.8-6.1-28-13.6c-0.1-5.6,12-10.3,18.9-12.6c0.7-0.8,2.4-3.1,1.7-4.4
		c-0.9-1.7-5-0.9-6.8-0.6c-8,1.5-26.9,10.7-27.2,20.6C46,165.5,74,171.4,85.5,173.8c7.6,1.6,21,3.7,39.7,2.2
		c14.4-1.1,39.4-4.8,67.7-18.9C196.5,155.2,198.4,153,197.8,152.1z"/>
	<path id="XMLID_8_" class="st1" d="M220.9,160.4c-2.2-1.1-3.5-3.3-3.3-5.6c0.2-3,2.9-4.5,3.1-4.6c14.5-2.3,24.2-8.3,24.2-14.1
		c0-3.1-2.7-5.7-3-6c-4-3.8-11.4-3.8-16.3-3.8c-2.2,0-4.3,0.1-4.5-0.5c-0.2-0.7,1.5-1.9,4.2-3c11.9-2.9,22.8,0.3,27.7,7.8
		c0.5,0.7,3.4,5.3,2.5,10.7C253.7,151.2,239.9,159.5,220.9,160.4z"/>
	<circle id="XMLID_213_" class="st2" cx="235.3" cy="101.3" r="16"/>
	<circle id="XMLID_214_" class="st3" cx="216.5" cy="76.6" r="9"/>
	<circle id="XMLID_215_" class="st4" cx="194.1" cy="73.1" r="5"/>
</g>
<g id="Layer_4">
</g>
<g id="Layer_2">
	<g id="XMLID_6_">
		<path id="XMLID_27_" class="st5" d="M120.4,99.7c-1.7-0.5-3.5-0.7-5.6-0.5c-2,0.2-3.8,0.8-5.3,1.7c-1.5,0.9-2.7,2-3.4,3.3
			c-0.7,1.3-1,2.7-0.8,4.3c0.3,3,2.2,5.1,5.7,6.5c1.2,0.5,2.8,0.9,4.8,1.3l3.1-4.7c-0.5-0.1-1.1-0.2-1.6-0.3
			c-1.9-0.3-3.3-0.8-4.3-1.3c-1-0.5-1.6-1.2-1.7-2.2c-0.1-1,0.2-1.8,0.9-2.5c0.7-0.7,1.8-1.1,3.2-1.3c1.5-0.2,2.7,0.1,3.6,0.7
			c0.9,0.6,1.4,1.6,1.6,2.9l1-0.1l3.1-4.8c0-0.1-0.1-0.1-0.1-0.2C123.5,101.2,122.1,100.3,120.4,99.7z"/>
		<path id="XMLID_29_" class="st5" d="M111.7,119.8l-5.9,0.7c0.2,1.8,0.9,3.4,2,4.7c0.4,0.5,0.9,0.9,1.3,1.2l3.1-4.7
			C112,121.1,111.8,120.5,111.7,119.8z"/>
	</g>
	<g id="XMLID_1_">
		<path id="XMLID_28_" class="st6" d="M116,116.3c2.1,0.4,3.6,0.9,4.4,1.4c0.9,0.5,1.3,1.3,1.5,2.4c0.1,1-0.2,1.9-0.9,2.5
			c-0.7,0.7-1.8,1.1-3.2,1.2c-2.9,0.3-4.8-0.4-5.7-2.2l-3.1,4.7c0.9,0.7,1.9,1.2,3.2,1.6c1.9,0.6,3.9,0.8,6.1,0.5
			c3.2-0.4,5.6-1.4,7.3-3c1.7-1.6,2.4-3.7,2.1-6.1c-0.3-2.2-1.2-4-2.9-5.3c-1.4-1.1-3.5-1.9-6.1-2.5l-3.1,4.7
			C115.8,116.3,115.9,116.3,116,116.3z"/>
		<path id="XMLID_30_" class="st6" d="M126.4,106.8c-0.2-1.6-0.8-3.1-1.7-4.3l-3.1,4.8L126.4,106.8z"/>
	</g>
	<path id="XMLID_31_" class="st5" d="M151.4,97.4c-1.9-1.1-4.6-1.5-8.1-1.1l-10,1.2l3.1,26.5l5-8l-0.4-3.1l2.5-0.3l2.9-4.7
		c-0.5,0.2-1,0.3-1.6,0.4l-4.3,0.5l-0.8-7.2l4.1-0.5c1.6-0.2,2.8,0,3.6,0.4c0.8,0.5,1.2,1.3,1.4,2.5l3.6-5.8
		C152.2,97.9,151.8,97.6,151.4,97.4z"/>
	<path id="XMLID_32_" class="st6" d="M149,104.2c0.2,1.8-0.6,3.1-2.5,3.7l-2.9,4.7l2.9-0.3c2.7-0.3,4.2,0.9,4.5,3.5
		c0.1,1.2-0.1,2.1-0.8,2.9c-0.7,0.7-1.7,1.2-3.1,1.4l-5,0.6l-0.5-4.6l-5,8l0.2,1.9l11.1-1.3c3.2-0.4,5.6-1.4,7.2-3
		c1.6-1.6,2.2-3.8,1.9-6.5c-0.2-1.6-0.8-2.9-1.7-3.9c-1-1-2.2-1.6-3.7-1.8c1.2-0.6,2.1-1.5,2.7-2.7c0.6-1.1,0.8-2.4,0.6-3.8
		c-0.2-2-1-3.6-2.2-4.7l-3.6,5.8C148.9,104,149,104.1,149,104.2z"/>
	<path id="XMLID_33_" class="st6" d="M179.5,100l1.3,11.2c0.4,3.5-1.1,5.4-4.4,5.8c-1.6,0.2-2.9-0.1-3.9-0.8c-0.6-0.4-1-1.1-1.3-2
		l-3.1,5.3c0.2,0.2,0.4,0.3,0.6,0.5c2.2,1.5,4.9,2.1,8.2,1.7c3.4-0.4,5.9-1.6,7.7-3.7c1.7-2,2.4-4.6,2.1-7.7l-2.2-18.7L179.5,100z"
		/>
	<g id="XMLID_9_">
		<polygon id="XMLID_34_" class="st5" points="178.6,92.2 179.5,100 184.4,91.5 		"/>
		<path id="XMLID_35_" class="st5" d="M170.7,112.2l-2.2-18.8l-5.9,0.7l2.2,19c0.4,2.8,1.4,4.9,3.2,6.4l3.1-5.3
			C171,113.6,170.8,112.9,170.7,112.2z"/>
	</g>
	<g id="XMLID_20_">
		<polygon id="XMLID_104_" class="st5" points="99.5,156.1 99,152 96.1,156.5 		"/>
		<polygon id="XMLID_106_" class="st5" points="104.9,145.6 102.9,145.9 101,148.8 105.2,148.3 106.1,155.4 109.4,155 107.5,138.6 
			104.6,143.1 		"/>
	</g>
	<g id="XMLID_2_">
		<polygon id="XMLID_105_" class="st6" points="98.3,145 97.5,138.4 94.1,138.8 96.1,155.2 99,150.6 98.6,147.8 101,147.5 
			102.9,144.5 		"/>
		<polygon id="XMLID_107_" class="st6" points="104.6,141.8 107.5,137.2 104.1,137.6 		"/>
	</g>
	<polygon id="XMLID_108_" class="st6" points="125.5,135.1 121.3,152.2 126.2,145.4 126.2,145.5 127.5,139.1 128.9,141.9 
		130.9,139.1 128.6,134.8 	"/>
	<polygon id="XMLID_109_" class="st5" points="130.4,146.3 126.3,146.8 121.3,153.6 124.9,153.2 125.7,149.7 131.6,149 133.1,152.2 
		136.7,151.8 130.9,140.5 128.9,143.2 	"/>
	<path id="XMLID_110_" class="st6" d="M152.9,131.7c-1.4,0.2-2.5,0.6-3.5,1.4c-1,0.8-1.6,1.8-2.1,3c-0.4,1.3-0.5,2.7-0.3,4.3l0.1,1
		c0.3,2.4,1.1,4.3,2.4,5.5l1.8-2.9c-0.4-0.7-0.6-1.7-0.8-3l-0.1-1.2c-0.2-1.7,0-3,0.4-3.9c0.5-0.9,1.3-1.4,2.4-1.5
		c1-0.1,1.8,0,2.4,0.4c0.3,0.2,0.6,0.6,0.8,1l1.7-2.8c-0.2-0.1-0.3-0.3-0.5-0.4C156.4,131.8,154.8,131.5,152.9,131.7z"/>
	<g id="XMLID_21_">
		<path id="XMLID_111_" class="st5" d="M156.8,138.4l3.4-0.4c-0.3-1.6-1-2.8-2-3.6l-1.7,2.8C156.6,137.6,156.7,138,156.8,138.4z"/>
		<path id="XMLID_112_" class="st5" d="M149.7,148.3c1.4,1.3,3.1,1.8,5.2,1.5c1.9-0.2,3.4-0.9,4.5-2.1c1.1-1.2,1.5-2.6,1.5-4.4
			l-3.4,0.4c0,1-0.2,1.8-0.6,2.3c-0.5,0.5-1.2,0.9-2.3,1c-1.2,0.1-2-0.2-2.7-0.9c-0.2-0.2-0.3-0.5-0.5-0.8L149.7,148.3
			C149.6,148.3,149.7,148.3,149.7,148.3z"/>
	</g>
	<polygon id="XMLID_114_" class="st6" points="181.1,128.6 177.6,134.5 176.3,136.7 175.4,129.3 172.1,129.7 174,146.1 176.9,141.5 
		176.8,141 178.3,138.9 178.4,139 185.3,128.1 	"/>
	<g id="XMLID_22_">
		<path id="XMLID_113_" class="st5" d="M178.5,140.3l4.9,6l4-0.5c-2.4-2.8-4.7-5.6-7.1-8.4C179.7,138.4,179.1,139.4,178.5,140.3z"/>
		<polygon id="XMLID_115_" class="st5" points="177.4,147 176.9,142.8 174,147.4 		"/>
	</g>
	<g id="XMLID_24_">
		<path id="XMLID_117_" class="st6" d="M201.7,132c-0.6-0.3-0.9-0.7-1-1.2c-0.1-0.6,0.1-1.1,0.5-1.5c0.4-0.4,1-0.7,1.9-0.7
			c0.9-0.1,1.5,0,2.1,0.4c0.4,0.3,0.7,0.6,0.8,1.1l1.8-3c-0.5-0.4-1-0.7-1.7-0.9c-1-0.3-2-0.4-3.2-0.3c-1.2,0.1-2.2,0.5-3.1,1
			c-0.9,0.5-1.5,1.1-2,1.9c-0.4,0.8-0.6,1.6-0.5,2.5c0.2,1.7,1.3,2.9,3.3,3.7c0.6,0.2,1.3,0.4,2.2,0.6l1.6-2.7c-0.1,0-0.1,0-0.2,0
			C203.1,132.5,202.3,132.3,201.7,132z"/>
		<path id="XMLID_118_" class="st6" d="M201.1,137.7l-3.4,0.4c0.1,1.1,0.5,2,1.1,2.7c0.2,0.2,0.4,0.4,0.6,0.6l1.8-3
			C201.1,138.1,201.1,137.9,201.1,137.7z"/>
	</g>
	<g id="XMLID_23_">
		<path id="XMLID_116_" class="st5" d="M206.2,131.9l3.4-0.4c-0.1-1-0.5-1.8-1.1-2.5c-0.2-0.2-0.4-0.4-0.6-0.6l-1.8,3
			C206.1,131.6,206.1,131.7,206.2,131.9z"/>
		<path id="XMLID_119_" class="st5" d="M203.6,137c1.2,0.2,2.1,0.5,2.6,0.8s0.8,0.8,0.8,1.4c0.1,0.6-0.1,1.1-0.5,1.4
			c-0.4,0.4-1,0.6-1.8,0.7c-1.9,0.2-3-0.4-3.4-1.7l-1.8,3c0.6,0.5,1.2,0.8,2,1.1c1.1,0.3,2.3,0.4,3.5,0.3c1.8-0.2,3.2-0.8,4.2-1.7
			c1-0.9,1.4-2.1,1.2-3.5c-0.1-1.3-0.7-2.3-1.7-3c-0.9-0.7-2.4-1.3-4.2-1.6l-1.6,2.7C203.1,136.9,203.3,137,203.6,137z"/>
	</g>
	<g id="XMLID_82_">
		<polygon id="XMLID_84_" class="st5" points="96.2,145 95.4,138.4 92,138.8 94,155.2 96.9,150.6 96.5,147.8 98.9,147.5 
			100.8,144.5 		"/>
		<polygon id="XMLID_83_" class="st5" points="102.5,141.8 105.4,137.2 102,137.6 		"/>
	</g>
	<polygon id="XMLID_81_" class="st5" points="123.4,135.1 119.2,152.2 124.1,145.4 124.1,145.5 125.4,139.1 126.8,141.9 
		128.8,139.1 126.5,134.8 	"/>
	<path id="XMLID_80_" class="st5" d="M150.8,131.7c-1.4,0.2-2.5,0.6-3.5,1.4c-1,0.8-1.6,1.8-2.1,3c-0.4,1.3-0.5,2.7-0.3,4.3l0.1,1
		c0.3,2.4,1.1,4.3,2.4,5.5l1.8-2.9c-0.4-0.7-0.6-1.7-0.8-3l-0.1-1.2c-0.2-1.7,0-3,0.4-3.9c0.5-0.9,1.3-1.4,2.4-1.5
		c1-0.1,1.8,0,2.4,0.4c0.3,0.2,0.6,0.6,0.8,1l1.7-2.8c-0.2-0.1-0.3-0.3-0.5-0.4C154.3,131.8,152.7,131.5,150.8,131.7z"/>
	<polygon id="XMLID_79_" class="st5" points="179,128.6 175.5,134.5 174.2,136.7 173.3,129.3 170,129.7 171.9,146.1 174.8,141.5 
		174.7,141 176.2,138.9 176.3,139 183.2,128.1 	"/>
	<g id="XMLID_25_">
		<path id="XMLID_78_" class="st5" d="M199.6,132c-0.6-0.3-0.9-0.7-1-1.2c-0.1-0.6,0.1-1.1,0.5-1.5c0.4-0.4,1-0.7,1.9-0.7
			c0.9-0.1,1.5,0,2.1,0.4c0.4,0.3,0.7,0.6,0.8,1.1l1.8-3c-0.5-0.4-1-0.7-1.7-0.9c-1-0.3-2-0.4-3.2-0.3c-1.2,0.1-2.2,0.5-3.1,1
			c-0.9,0.5-1.5,1.1-2,1.9c-0.4,0.8-0.6,1.6-0.5,2.5c0.2,1.7,1.3,2.9,3.3,3.7c0.6,0.2,1.3,0.4,2.2,0.6l1.6-2.7c-0.1,0-0.1,0-0.2,0
			C201,132.5,200.2,132.3,199.6,132z"/>
		<path id="XMLID_26_" class="st5" d="M199,137.7l-3.4,0.4c0.1,1.1,0.5,2,1.1,2.7c0.2,0.2,0.4,0.4,0.6,0.6l1.8-3
			C199,138.1,199,137.9,199,137.7z"/>
	</g>
	<g id="XMLID_95_">
		<polygon id="XMLID_97_" class="st7" points="98,155.9 97.5,151.8 94.6,156.3 		"/>
		<polygon id="XMLID_96_" class="st7" points="103.5,145.4 101.4,145.6 99.5,148.6 103.8,148.1 104.6,155.1 108,154.7 106.1,138.3 
			103.2,142.9 		"/>
	</g>
	<polygon id="XMLID_94_" class="st7" points="128.9,146.1 124.8,146.6 119.9,153.3 123.5,152.9 124.2,149.4 130.1,148.7 131.7,152 
		135.3,151.5 129.4,140.2 127.4,143 	"/>
	<g id="XMLID_91_">
		<path id="XMLID_93_" class="st7" d="M155.4,138.2l3.4-0.4c-0.3-1.6-1-2.8-2-3.6L155,137C155.2,137.3,155.3,137.7,155.4,138.2z"/>
		<path id="XMLID_92_" class="st7" d="M148.2,148.1c1.4,1.3,3.1,1.8,5.2,1.5c1.9-0.2,3.4-0.9,4.5-2.1c1.1-1.2,1.5-2.6,1.5-4.4
			l-3.4,0.4c0,1-0.2,1.8-0.6,2.3c-0.5,0.5-1.2,0.9-2.3,1c-1.2,0.1-2-0.2-2.7-0.9c-0.2-0.2-0.3-0.5-0.5-0.8L148.2,148.1
			C148.2,148.1,148.2,148.1,148.2,148.1z"/>
	</g>
	<g id="XMLID_88_">
		<path id="XMLID_90_" class="st7" d="M177,140.1l4.9,6l4-0.5c-2.4-2.8-4.7-5.6-7.1-8.4C178.3,138.1,177.6,139.1,177,140.1z"/>
		<polygon id="XMLID_89_" class="st7" points="175.9,146.8 175.5,142.6 172.6,147.2 		"/>
	</g>
	<g id="XMLID_85_">
		<path id="XMLID_87_" class="st7" d="M204.7,131.7l3.4-0.4c-0.1-1-0.5-1.8-1.1-2.5c-0.2-0.2-0.4-0.4-0.6-0.6l-1.8,3
			C204.6,131.3,204.7,131.5,204.7,131.7z"/>
		<path id="XMLID_86_" class="st7" d="M202.1,136.8c1.2,0.2,2.1,0.5,2.6,0.8c0.5,0.3,0.8,0.8,0.8,1.4c0.1,0.6-0.1,1.1-0.5,1.4
			c-0.4,0.4-1,0.6-1.8,0.7c-1.9,0.2-3-0.4-3.4-1.7l-1.8,3c0.6,0.5,1.2,0.8,2,1.1c1.1,0.3,2.3,0.4,3.5,0.3c1.8-0.2,3.2-0.8,4.2-1.7
			c1-0.9,1.4-2.1,1.2-3.5c-0.1-1.3-0.7-2.3-1.7-3c-0.9-0.7-2.4-1.3-4.2-1.6l-1.6,2.7C201.6,136.7,201.9,136.7,202.1,136.8z"/>
	</g>
	<g id="XMLID_100_">
		<path id="XMLID_102_" class="st7" d="M116.8,117.8c2.1,0.4,3.6,0.9,4.4,1.4c0.9,0.5,1.3,1.3,1.5,2.4c0.1,1-0.2,1.9-0.9,2.5
			s-1.8,1.1-3.2,1.2c-2.9,0.3-4.8-0.4-5.7-2.2l-3.1,4.7c0.9,0.7,1.9,1.2,3.2,1.6c1.9,0.6,3.9,0.8,6.1,0.5c3.2-0.4,5.6-1.4,7.3-3
			c1.7-1.6,2.4-3.7,2.1-6.1c-0.3-2.2-1.2-4-2.9-5.3c-1.4-1.1-3.5-1.9-6.1-2.5l-3.1,4.7C116.6,117.8,116.7,117.8,116.8,117.8z"/>
		<path id="XMLID_101_" class="st7" d="M127.1,108.3c-0.2-1.6-0.8-3.1-1.7-4.3l-3.1,4.8L127.1,108.3z"/>
	</g>
	<path id="XMLID_99_" class="st7" d="M149.7,105.7c0.2,1.8-0.6,3.1-2.5,3.7l-2.9,4.7l2.9-0.3c2.7-0.3,4.2,0.9,4.5,3.5
		c0.1,1.2-0.1,2.1-0.8,2.9c-0.7,0.7-1.7,1.2-3.1,1.4l-5,0.6l-0.5-4.6l-5,8l0.2,1.9l11.1-1.3c3.2-0.4,5.6-1.4,7.2-3
		c1.6-1.6,2.2-3.8,1.9-6.5c-0.2-1.6-0.8-2.9-1.7-3.9c-1-1-2.2-1.6-3.7-1.8c1.2-0.6,2.1-1.5,2.7-2.7c0.6-1.1,0.8-2.4,0.6-3.8
		c-0.2-2-1-3.6-2.2-4.7l-3.6,5.8C149.7,105.5,149.7,105.6,149.7,105.7z"/>
	<path id="XMLID_98_" class="st7" d="M180.2,101.5l1.3,11.2c0.4,3.5-1.1,5.4-4.4,5.8c-1.6,0.2-2.9-0.1-3.9-0.8c-0.6-0.4-1-1.1-1.3-2
		l-3.1,5.3c0.2,0.2,0.4,0.3,0.6,0.5c2.2,1.5,4.9,2.1,8.2,1.7c3.4-0.4,5.9-1.6,7.7-3.7c1.7-2,2.4-4.6,2.1-7.7L185.2,93L180.2,101.5z"
		/>
	<g id="XMLID_120_">
		<path id="XMLID_140_" class="st8" d="M138,198.7l-0.3-2.8l-7.9,1l3.7-4.6c1-1.3,1.7-2.4,2-3.4c0.4-0.9,0.5-1.8,0.4-2.7
			c-0.1-1.1-0.5-1.9-1.1-2.6l-9,16.6L138,198.7z"/>
		<path id="XMLID_141_" class="st8" d="M150.1,186.5l0.5,4.1c0.1,1.4,0.1,2.4-0.2,3.1c-0.3,0.7-0.9,1.1-1.8,1.2
			c-0.9,0.1-1.6-0.2-2.1-0.8c-0.3-0.4-0.5-0.9-0.7-1.5l-1.9,3.5c0.1,0.1,0.1,0.2,0.2,0.2c1.2,1.1,2.8,1.5,4.8,1.3
			c2-0.2,3.5-1.1,4.4-2.5c0.9-1.4,1.2-3.3,0.9-5.7l-0.4-3.2c-0.3-2.1-1-3.7-2-4.8l-1.9,3.6C150,185.5,150.1,185.9,150.1,186.5z"/>
		<polygon id="XMLID_144_" class="st8" points="165.3,195.4 168.9,195 166.8,177.7 166.7,177.7 163.8,183.1 		"/>
		<path id="XMLID_145_" class="st8" d="M186.5,177.6l-2,3.6c0,0.2,0.1,0.4,0.1,0.7l0.2,1.4c-0.2,0.4-0.4,0.8-0.8,1.1
			c-0.4,0.3-0.9,0.5-1.5,0.6c0,0,0,0-0.1,0l-1.5,2.8c0.3,0,0.6,0,1,0c1.3-0.2,2.3-0.7,3.2-1.7c0.1,2.7-1.5,4.3-4.6,4.8l-0.8,0.1
			l0.3,2.9l0.9-0.1c2.8-0.4,4.8-1.6,6.1-3.4c1.3-1.8,1.8-4.2,1.4-7.1l-0.2-1.3c-0.2-1.4-0.6-2.6-1.2-3.6
			C186.9,178.1,186.7,177.8,186.5,177.6z"/>
	</g>
	<g id="XMLID_103_">
		<path id="XMLID_139_" class="st6" d="M129.3,180.5c-1.2,0.1-2.3,0.5-3.2,1.1c-0.9,0.6-1.6,1.4-2,2.3c-0.4,0.9-0.6,1.9-0.4,3
			l3.6-0.4c-0.1-0.9,0-1.6,0.5-2.2c0.4-0.6,1-0.9,1.8-1c0.8-0.1,1.4,0.1,1.8,0.4c0.5,0.4,0.7,1,0.8,1.7c0.1,0.6-0.1,1.2-0.4,1.9
			c-0.3,0.7-0.8,1.5-1.5,2.4l-5.2,6.7l0.3,2.3l0.4,0l9-16.6c-0.3-0.3-0.6-0.6-0.9-0.8C132.7,180.5,131.2,180.3,129.3,180.5z"/>
		<path id="XMLID_142_" class="st6" d="M146.7,178.4c-2,0.2-3.4,1.1-4.4,2.4c-0.9,1.4-1.2,3.3-0.9,5.7l0.4,3.2
			c0.3,2.2,1,3.8,2.1,4.9l1.9-3.5c-0.1-0.5-0.2-1-0.3-1.6l-0.5-4.2c-0.1-1.3,0-2.3,0.3-3c0.3-0.7,0.9-1.1,1.8-1.2
			c0.9-0.1,1.6,0.1,2.1,0.7c0.3,0.4,0.6,0.9,0.7,1.7l1.9-3.6c-0.1-0.1-0.2-0.2-0.3-0.3C150.3,178.6,148.7,178.1,146.7,178.4z"/>
		<polygon id="XMLID_143_" class="st6" points="159.1,179.7 159.5,182.5 163.7,180.7 163.8,181.6 166.7,176.2 166.4,176.2 		"/>
		<path id="XMLID_146_" class="st6" d="M180.4,182.8c-0.5-0.5-0.9-1.3-1-2.2c-0.1-0.9,0-1.8,0.4-2.5c0.4-0.7,1-1.1,1.7-1.2
			c0.8-0.1,1.5,0.1,2,0.7c0.4,0.5,0.7,1.1,0.9,2l2-3.6c-0.5-0.6-1.1-1.1-1.9-1.4c-1-0.5-2.1-0.6-3.3-0.5c-1.2,0.1-2.2,0.5-3.1,1.2
			c-0.9,0.6-1.5,1.5-1.9,2.5c-0.4,1-0.5,2.1-0.4,3.2c0.2,1.8,0.9,3.1,2,4.1c0.9,0.7,1.9,1.1,3.1,1.1l1.5-2.8
			C181.6,183.6,181,183.3,180.4,182.8z"/>
	</g>
	<g id="XMLID_15_">
		<path id="XMLID_19_" class="st7" d="M136.3,198l-0.3-2.8l-7.9,1l3.7-4.6c1-1.3,1.7-2.4,2-3.4c0.4-0.9,0.5-1.8,0.4-2.7
			c-0.1-1.1-0.5-1.9-1.1-2.6l-9,16.6L136.3,198z"/>
		<path id="XMLID_18_" class="st7" d="M148.4,185.7l0.5,4.1c0.1,1.4,0.1,2.4-0.2,3.1c-0.3,0.7-0.9,1.1-1.8,1.2
			c-0.9,0.1-1.6-0.2-2.1-0.8c-0.3-0.4-0.5-0.9-0.7-1.5l-1.9,3.5c0.1,0.1,0.1,0.2,0.2,0.2c1.2,1.1,2.8,1.5,4.8,1.3
			c2-0.2,3.5-1.1,4.4-2.5c0.9-1.4,1.2-3.3,0.9-5.7l-0.4-3.2c-0.3-2.1-1-3.7-2-4.8l-1.9,3.6C148.3,184.7,148.4,185.2,148.4,185.7z"/>
		<polygon id="XMLID_17_" class="st7" points="163.6,194.7 167.2,194.2 165.1,176.9 165,176.9 162.1,182.3 		"/>
		<path id="XMLID_16_" class="st7" d="M184.8,176.8l-2,3.6c0,0.2,0.1,0.4,0.1,0.7l0.2,1.4c-0.2,0.4-0.4,0.8-0.8,1.1
			c-0.4,0.3-0.9,0.5-1.5,0.6c0,0,0,0-0.1,0l-1.5,2.8c0.3,0,0.6,0,1,0c1.3-0.2,2.3-0.7,3.2-1.7c0.1,2.7-1.5,4.3-4.6,4.8l-0.8,0.1
			l0.3,2.9l0.9-0.1c2.8-0.4,4.8-1.6,6.1-3.4c1.3-1.8,1.8-4.2,1.4-7.1l-0.2-1.3c-0.2-1.4-0.6-2.6-1.2-3.6
			C185.2,177.3,185,177.1,184.8,176.8z"/>
	</g>
	<g id="XMLID_10_">
		<path id="XMLID_14_" class="st5" d="M127.6,179.8c-1.2,0.1-2.3,0.5-3.2,1.1c-0.9,0.6-1.6,1.4-2,2.3c-0.4,0.9-0.6,1.9-0.4,3
			l3.6-0.4c-0.1-0.9,0-1.6,0.5-2.2c0.4-0.6,1-0.9,1.8-1c0.8-0.1,1.4,0.1,1.8,0.4c0.5,0.4,0.7,1,0.8,1.7c0.1,0.6-0.1,1.2-0.4,1.9
			c-0.3,0.7-0.8,1.5-1.5,2.4l-5.2,6.7l0.3,2.3l0.4,0l9-16.6c-0.3-0.3-0.6-0.6-0.9-0.8C131,179.8,129.5,179.5,127.6,179.8z"/>
		<path id="XMLID_13_" class="st5" d="M145,177.6c-2,0.2-3.4,1.1-4.4,2.4c-0.9,1.4-1.2,3.3-0.9,5.7l0.4,3.2c0.3,2.2,1,3.8,2.1,4.9
			l1.9-3.5c-0.1-0.5-0.2-1-0.3-1.6l-0.5-4.2c-0.1-1.3,0-2.3,0.3-3c0.3-0.7,0.9-1.1,1.8-1.2c0.9-0.1,1.6,0.1,2.1,0.7
			c0.3,0.4,0.6,0.9,0.7,1.7l1.9-3.6c-0.1-0.1-0.2-0.2-0.3-0.3C148.6,177.8,147,177.4,145,177.6z"/>
		<polygon id="XMLID_12_" class="st5" points="157.4,178.9 157.8,181.7 162,179.9 162.1,180.8 165,175.4 164.7,175.5 		"/>
		<path id="XMLID_11_" class="st5" d="M178.7,182c-0.5-0.5-0.9-1.3-1-2.2c-0.1-0.9,0-1.8,0.4-2.5c0.4-0.7,1-1.1,1.7-1.2
			c0.8-0.1,1.5,0.1,2,0.7c0.4,0.5,0.7,1.1,0.9,2l2-3.6c-0.5-0.6-1.1-1.1-1.9-1.4c-1-0.5-2.1-0.6-3.3-0.5c-1.2,0.1-2.2,0.5-3.1,1.2
			c-0.9,0.6-1.5,1.5-1.9,2.5c-0.4,1-0.5,2.1-0.4,3.2c0.2,1.8,0.9,3.1,2,4.1c0.9,0.7,1.9,1.1,3.1,1.1l1.5-2.8
			C179.9,182.8,179.2,182.6,178.7,182z"/>
	</g>
</g>
</svg>
