<?xml version="1.0" encoding="utf-8"?>
<!-- Generator: Adobe Illustrator 19.0.0, SVG Export Plug-In . SVG Version: 6.00 Build 0)  -->
<svg version="1.1" id="Layer_1" xmlns="http://www.w3.org/2000/svg" xmlns:xlink="http://www.w3.org/1999/xlink" x="0px" y="0px"
	 viewBox="0 0 300 300" style="enable-background:new 0 0 300 300;" xml:space="preserve">
<style type="text/css">
	.st0{display:none;fill:#263238;}
	.st1{fill:#F78C1E;}
	.st2{fill:#FDD836;}
	.st3{fill:#FAF291;}
	.st4{fill:#BE1E2D;}
	.st5{fill:#ECEFF0;}
	.st6{fill:#FAFBFB;}
	.st7{fill:#F58967;}
	.st8{fill:#89D3E2;}
	.st9{fill:#FFFFFF;}
	.st10{fill:#F8AA92;}
</style>
<rect id="XMLID_64_" x="-1.1" y="-1.1" class="st0" width="303.5" height="303.5"/>
<circle id="XMLID_218_" class="st1" cx="64.4" cy="189.8" r="16"/>
<circle id="XMLID_217_" class="st2" cx="83.1" cy="214.5" r="9"/>
<circle id="XMLID_216_" class="st3" cx="105.5" cy="218" r="5"/>
<circle id="XMLID_186_" class="st4" cx="149.7" cy="146.2" r="72.7"/>
<path id="XMLID_185_" class="st5" d="M77.2,138.1c2,0.2,4-1.3,4.4-3.5c0.5-2.3,8.4-39.1,44.3-52.9c24.1-9.2,51.5-4.5,71.5,12.3
	c1.7,0.2,3.4-0.7,4.1-2.2c0.9-1.8-0.7-4.1-1.2-5c-3.3-5.1-39.9-26.9-76.7-12.9C86.2,88.1,75,129.1,73.6,134.5
	C73.9,136.4,75.4,137.9,77.2,138.1z"/>
<path id="XMLID_184_" class="st5" d="M100.1,200.2c1.3-1,3.2-1,4.6,0.1c2.3,1.6,32.7,22.6,68.6,8.8c36.9-14.2,44.9-51.9,45.3-54.3
	c0.8-0.5,2.8-1.8,4.5-1.1c1.8,0.8,2.2,3.3,2.3,4.3c0.9,5.9-12.9,46.3-49.9,59.6c-36.7,13.2-71.1-9-76.1-12.3
	C98.3,203.7,98.7,201.4,100.1,200.2z"/>
<path id="XMLID_183_" class="st5" d="M47.5,154.2c-0.4,12.2,27.6,18.1,39.1,20.5c7.6,1.6,21,3.7,39.7,2.2
	c14.4-1.1,39.4-4.8,67.7-18.9c3.5-1.9,5.5-4.1,4.9-5c-0.6-0.9-3.8-0.9-7.7,0.4c-27.3,9.3-50.1,12.4-65.2,13.5
	c-10.3,0.7-22.8,0.9-37.1-2.1c-5.6-1.2-27.8-6.1-28-13.6c-0.1-5.6,12-10.3,18.9-12.6c0.7-0.8,2.4-3.1,1.7-4.4
	c-0.9-1.7-5-0.9-6.8-0.6C66.7,135,47.8,144.3,47.5,154.2"/>
<path id="XMLID_182_" class="st5" d="M256.4,142.3c-1,6.6-6.7,10.3-10.7,12.9c-8.9,5.8-18.4,6.4-23.8,6.2c-2.2-1.1-3.5-3.3-3.3-5.6
	c0.2-3,2.9-4.5,3.1-4.6c14.5-2.3,24.2-8.3,24.2-14.1c0-3.1-2.7-5.7-3-6c-4-3.8-11.4-3.8-16.3-3.8c-2.2,0-4.3,0.1-4.5-0.5
	c-0.2-0.7,1.5-1.9,4.2-3c12-2.5,23,0.5,27.7,7.8C254.4,132.4,257.3,136.8,256.4,142.3z"/>
<g id="XMLID_179_">
	<path id="XMLID_181_" class="st6" d="M121.5,100.7c-1.7-0.5-3.5-0.7-5.6-0.5c-2,0.2-3.8,0.8-5.3,1.7c-1.5,0.9-2.7,2-3.4,3.3
		c-0.7,1.3-1,2.7-0.8,4.3c0.3,3,2.2,5.1,5.7,6.5c1.2,0.5,2.8,0.9,4.8,1.3l3.1-4.7c-0.5-0.1-1.1-0.2-1.6-0.3
		c-1.9-0.3-3.3-0.8-4.3-1.3c-1-0.5-1.6-1.2-1.7-2.2c-0.1-1,0.2-1.8,0.9-2.5c0.7-0.7,1.8-1.1,3.2-1.3c1.5-0.2,2.7,0.1,3.6,0.7
		c0.9,0.6,1.4,1.6,1.6,2.9l1-0.1l3.1-4.8c0-0.1-0.1-0.1-0.1-0.2C124.5,102.1,123.2,101.2,121.5,100.7z"/>
	<path id="XMLID_180_" class="st6" d="M112.8,120.8l-5.9,0.7c0.2,1.8,0.9,3.4,2,4.7c0.4,0.5,0.9,0.9,1.3,1.2l3.1-4.7
		C113,122.1,112.9,121.5,112.8,120.8z"/>
</g>
<g id="XMLID_176_">
	<path id="XMLID_178_" class="st7" d="M117.1,117.3c2.1,0.4,3.6,0.9,4.4,1.4c0.9,0.5,1.3,1.3,1.5,2.4c0.1,1-0.2,1.9-0.9,2.5
		c-0.7,0.7-1.8,1.1-3.2,1.2c-2.9,0.3-4.8-0.4-5.7-2.2l-3.1,4.7c0.9,0.7,1.9,1.2,3.2,1.6c1.9,0.6,3.9,0.8,6.1,0.5
		c3.2-0.4,5.6-1.4,7.3-3c1.7-1.6,2.4-3.7,2.1-6.1c-0.3-2.2-1.2-4-2.9-5.3c-1.4-1.1-3.5-1.9-6.1-2.5l-3.1,4.7
		C116.9,117.2,117,117.2,117.1,117.3z"/>
	<path id="XMLID_177_" class="st7" d="M127.4,107.8c-0.2-1.6-0.8-3.1-1.7-4.3l-3.1,4.8L127.4,107.8z"/>
</g>
<path id="XMLID_175_" class="st6" d="M152.5,98.3c-1.9-1.1-4.6-1.5-8.1-1.1l-10,1.2l3.1,26.5l5-8l-0.4-3.1l2.5-0.3l2.9-4.7
	c-0.5,0.2-1,0.3-1.6,0.4l-4.3,0.5l-0.8-7.2l4.1-0.5c1.6-0.2,2.8,0,3.6,0.4c0.8,0.5,1.2,1.3,1.4,2.5l3.6-5.8
	C153.3,98.8,152.9,98.6,152.5,98.3z"/>
<path id="XMLID_174_" class="st7" d="M150,105.1c0.2,1.8-0.6,3.1-2.5,3.7l-2.9,4.7l2.9-0.3c2.7-0.3,4.2,0.9,4.5,3.5
	c0.1,1.2-0.1,2.1-0.8,2.9c-0.7,0.7-1.7,1.2-3.1,1.4l-5,0.6l-0.5-4.6l-5,8l0.2,1.9l11.1-1.3c3.2-0.4,5.6-1.4,7.2-3
	c1.6-1.6,2.2-3.8,1.9-6.5c-0.2-1.6-0.8-2.9-1.7-3.9c-1-1-2.2-1.6-3.7-1.8c1.2-0.6,2.1-1.5,2.7-2.7c0.6-1.1,0.8-2.4,0.6-3.8
	c-0.2-2-1-3.6-2.2-4.7l-3.6,5.8C150,105,150,105,150,105.1z"/>
<path id="XMLID_173_" class="st7" d="M180.5,100.9l1.3,11.2c0.4,3.5-1.1,5.4-4.4,5.8c-1.6,0.2-2.9-0.1-3.9-0.8c-0.6-0.4-1-1.1-1.3-2
	l-3.1,5.3c0.2,0.2,0.4,0.3,0.6,0.5c2.2,1.5,4.9,2.1,8.2,1.7c3.4-0.4,5.9-1.6,7.7-3.7c1.7-2,2.4-4.6,2.1-7.7l-2.2-18.7L180.5,100.9z"
	/>
<g id="XMLID_170_">
	<polygon id="XMLID_172_" class="st6" points="179.6,93.1 180.5,100.9 185.5,92.5 	"/>
	<path id="XMLID_171_" class="st6" d="M171.8,113.1l-2.2-18.8l-5.9,0.7l2.2,19c0.4,2.8,1.4,4.9,3.2,6.4l3.1-5.3
		C172,114.5,171.9,113.9,171.8,113.1z"/>
</g>
<g id="XMLID_167_">
	<polygon id="XMLID_169_" class="st6" points="100.5,157.1 100.1,152.9 97.2,157.5 	"/>
	<polygon id="XMLID_168_" class="st6" points="106,146.6 104,146.8 102.1,149.8 106.3,149.3 107.1,156.3 110.5,155.9 108.6,139.5 
		105.7,144.1 	"/>
</g>
<g id="XMLID_164_">
	<polygon id="XMLID_166_" class="st7" points="99.4,146 98.6,139.3 95.2,139.7 97.1,156.1 100,151.6 99.7,148.7 102,148.4 
		103.9,145.4 	"/>
	<polygon id="XMLID_165_" class="st7" points="105.7,142.7 108.5,138.2 105.2,138.6 	"/>
</g>
<polygon id="XMLID_163_" class="st7" points="126.6,136.1 122.4,153.2 127.3,146.4 127.3,146.4 128.6,140 129.9,142.8 131.9,140.1 
	129.7,135.7 "/>
<polygon id="XMLID_162_" class="st6" points="131.4,147.3 127.4,147.7 122.4,154.5 126,154.1 126.7,150.6 132.7,149.9 134.2,153.1 
	137.8,152.7 132,141.4 130,144.2 "/>
<path id="XMLID_161_" class="st7" d="M154,132.6c-1.4,0.2-2.5,0.6-3.5,1.4c-1,0.8-1.6,1.8-2.1,3c-0.4,1.3-0.5,2.7-0.3,4.3l0.1,1
	c0.3,2.4,1.1,4.3,2.4,5.5l1.8-2.9c-0.4-0.7-0.6-1.7-0.8-3l-0.1-1.2c-0.2-1.7,0-3,0.4-3.9c0.5-0.9,1.3-1.4,2.4-1.5
	c1-0.1,1.8,0,2.4,0.4c0.3,0.2,0.6,0.6,0.8,1l1.7-2.8c-0.2-0.1-0.3-0.3-0.5-0.4C157.5,132.7,155.9,132.4,154,132.6z"/>
<g id="XMLID_158_">
	<path id="XMLID_160_" class="st6" d="M157.9,139.4l3.4-0.4c-0.3-1.6-1-2.8-2-3.6l-1.7,2.8C157.7,138.5,157.8,138.9,157.9,139.4z"/>
	<path id="XMLID_159_" class="st6" d="M150.7,149.3c1.4,1.3,3.1,1.8,5.2,1.5c1.9-0.2,3.4-0.9,4.5-2.1c1.1-1.2,1.5-2.6,1.5-4.4
		l-3.4,0.4c0,1-0.2,1.8-0.6,2.3c-0.5,0.5-1.2,0.9-2.3,1c-1.2,0.1-2-0.2-2.7-0.9c-0.2-0.2-0.3-0.5-0.5-0.8L150.7,149.3
		C150.7,149.2,150.7,149.3,150.7,149.3z"/>
</g>
<polygon id="XMLID_157_" class="st7" points="182.2,129.5 178.6,135.4 177.4,137.6 176.5,130.2 173.1,130.6 175.1,147 177.9,142.4 
	177.9,141.9 179.4,139.8 179.5,139.9 186.3,129.1 "/>
<g id="XMLID_154_">
	<path id="XMLID_156_" class="st6" d="M179.5,141.3l4.9,6l4-0.5c-2.4-2.8-4.7-5.6-7.1-8.4C180.8,139.3,180.2,140.3,179.5,141.3z"/>
	<polygon id="XMLID_155_" class="st6" points="178.5,148 178,143.8 175.1,148.3 	"/>
</g>
<g id="XMLID_151_">
	<path id="XMLID_153_" class="st7" d="M202.8,132.9c-0.6-0.3-0.9-0.7-1-1.2c-0.1-0.6,0.1-1.1,0.5-1.5c0.4-0.4,1-0.7,1.9-0.7
		c0.9-0.1,1.5,0,2.1,0.4c0.4,0.3,0.7,0.6,0.8,1.1l1.8-3c-0.5-0.4-1-0.7-1.7-0.9c-1-0.3-2-0.4-3.2-0.3c-1.2,0.1-2.2,0.5-3.1,1
		c-0.9,0.5-1.5,1.1-2,1.9c-0.4,0.8-0.6,1.6-0.5,2.5c0.2,1.7,1.3,2.9,3.3,3.7c0.6,0.2,1.3,0.4,2.2,0.6l1.6-2.7c-0.1,0-0.1,0-0.2,0
		C204.2,133.5,203.4,133.2,202.8,132.9z"/>
	<path id="XMLID_152_" class="st7" d="M202.1,138.6l-3.4,0.4c0.1,1.1,0.5,2,1.1,2.7c0.2,0.2,0.4,0.4,0.6,0.6l1.8-3
		C202.2,139,202.2,138.8,202.1,138.6z"/>
</g>
<g id="XMLID_148_">
	<path id="XMLID_150_" class="st6" d="M207.2,132.9l3.4-0.4c-0.1-1-0.5-1.8-1.1-2.5c-0.2-0.2-0.4-0.4-0.6-0.6l-1.8,3
		C207.2,132.5,207.2,132.7,207.2,132.9z"/>
	<path id="XMLID_149_" class="st6" d="M204.7,137.9c1.2,0.2,2.1,0.5,2.6,0.8c0.5,0.3,0.8,0.8,0.8,1.4c0.1,0.6-0.1,1.1-0.5,1.4
		s-1,0.6-1.8,0.7c-1.9,0.2-3-0.4-3.4-1.7l-1.8,3c0.6,0.5,1.2,0.8,2,1.1c1.1,0.3,2.3,0.4,3.5,0.3c1.8-0.2,3.2-0.8,4.2-1.7
		c1-0.9,1.4-2.1,1.2-3.5c-0.1-1.3-0.7-2.3-1.7-3c-0.9-0.7-2.4-1.3-4.2-1.6l-1.6,2.7C204.2,137.8,204.4,137.9,204.7,137.9z"/>
</g>
<g id="XMLID_137_">
	<polygon id="XMLID_147_" class="st6" points="97.3,146 96.5,139.3 93.1,139.7 95,156.1 97.9,151.6 97.6,148.7 99.9,148.4 
		101.8,145.4 	"/>
	<polygon id="XMLID_138_" class="st6" points="103.6,142.7 106.4,138.2 103.1,138.6 	"/>
</g>
<polygon id="XMLID_136_" class="st6" points="124.5,136.1 120.3,153.2 125.2,146.4 125.2,146.4 126.5,140 127.8,142.8 129.8,140.1 
	127.6,135.7 "/>
<path id="XMLID_135_" class="st6" d="M151.9,132.6c-1.4,0.2-2.5,0.6-3.5,1.4c-1,0.8-1.6,1.8-2.1,3c-0.4,1.3-0.5,2.7-0.3,4.3l0.1,1
	c0.3,2.4,1.1,4.3,2.4,5.5l1.8-2.9c-0.4-0.7-0.6-1.7-0.8-3l-0.1-1.2c-0.2-1.7,0-3,0.4-3.9c0.5-0.9,1.3-1.4,2.4-1.5
	c1-0.1,1.8,0,2.4,0.4c0.3,0.2,0.6,0.6,0.8,1l1.7-2.8c-0.2-0.1-0.3-0.3-0.5-0.4C155.4,132.7,153.8,132.4,151.9,132.6z"/>
<polygon id="XMLID_134_" class="st6" points="180.1,129.5 176.5,135.4 175.3,137.6 174.4,130.2 171,130.6 173,147 175.8,142.4 
	175.8,141.9 177.3,139.8 177.4,139.9 184.2,129.1 "/>
<g id="XMLID_131_">
	<path id="XMLID_133_" class="st6" d="M200.7,132.9c-0.6-0.3-0.9-0.7-1-1.2c-0.1-0.6,0.1-1.1,0.5-1.5c0.4-0.4,1-0.7,1.9-0.7
		c0.9-0.1,1.5,0,2.1,0.4c0.4,0.3,0.7,0.6,0.8,1.1l1.8-3c-0.5-0.4-1-0.7-1.7-0.9c-1-0.3-2-0.4-3.2-0.3c-1.2,0.1-2.2,0.5-3.1,1
		c-0.9,0.5-1.5,1.1-2,1.9c-0.4,0.8-0.6,1.6-0.5,2.5c0.2,1.7,1.3,2.9,3.3,3.7c0.6,0.2,1.3,0.4,2.2,0.6l1.6-2.7c-0.1,0-0.1,0-0.2,0
		C202.1,133.5,201.3,133.2,200.7,132.9z"/>
	<path id="XMLID_132_" class="st6" d="M200,138.6l-3.4,0.4c0.1,1.1,0.5,2,1.1,2.7c0.2,0.2,0.4,0.4,0.6,0.6l1.8-3
		C200.1,139,200.1,138.8,200,138.6z"/>
</g>
<g id="XMLID_128_">
	<polygon id="XMLID_130_" class="st8" points="99.5,157 99,152.9 96.1,157.4 	"/>
	<polygon id="XMLID_129_" class="st8" points="105,146.5 102.9,146.7 101,149.7 105.3,149.2 106.1,156.2 109.5,155.8 107.5,139.5 
		104.7,144 	"/>
</g>
<polygon id="XMLID_127_" class="st8" points="130.4,147.2 126.3,147.7 121.4,154.4 125,154 125.7,150.5 131.6,149.8 133.2,153.1 
	136.7,152.6 130.9,141.3 128.9,144.1 "/>
<g id="XMLID_124_">
	<path id="XMLID_126_" class="st8" d="M156.9,139.3l3.4-0.4c-0.3-1.6-1-2.8-2-3.6l-1.7,2.8C156.6,138.4,156.8,138.8,156.9,139.3z"/>
	<path id="XMLID_125_" class="st8" d="M149.7,149.2c1.4,1.3,3.1,1.8,5.2,1.5c1.9-0.2,3.4-0.9,4.5-2.1c1.1-1.2,1.5-2.6,1.5-4.4
		l-3.4,0.4c0,1-0.2,1.8-0.6,2.3c-0.5,0.5-1.2,0.9-2.3,1c-1.2,0.1-2-0.2-2.7-0.9c-0.2-0.2-0.3-0.5-0.5-0.8L149.7,149.2
		C149.7,149.2,149.7,149.2,149.7,149.2z"/>
</g>
<g id="XMLID_121_">
	<path id="XMLID_123_" class="st8" d="M178.5,141.2l4.9,6l4-0.5c-2.4-2.8-4.7-5.6-7.1-8.4C179.7,139.2,179.1,140.2,178.5,141.2z"/>
	<polygon id="XMLID_122_" class="st8" points="177.4,147.9 176.9,143.7 174.1,148.3 	"/>
</g>
<g id="XMLID_61_">
	<path id="XMLID_63_" class="st8" d="M206.2,132.8l3.4-0.4c-0.1-1-0.5-1.8-1.1-2.5c-0.2-0.2-0.4-0.4-0.6-0.6l-1.8,3
		C206.1,132.4,206.2,132.6,206.2,132.8z"/>
	<path id="XMLID_62_" class="st8" d="M203.6,137.9c1.2,0.2,2.1,0.5,2.6,0.8c0.5,0.3,0.8,0.8,0.8,1.4c0.1,0.6-0.1,1.1-0.5,1.4
		s-1,0.6-1.8,0.7c-1.9,0.2-3-0.4-3.4-1.7l-1.8,3c0.6,0.5,1.2,0.8,2,1.1c1.1,0.3,2.3,0.4,3.5,0.3c1.8-0.2,3.2-0.8,4.2-1.7
		c1-0.9,1.4-2.1,1.2-3.5c-0.1-1.3-0.7-2.3-1.7-3c-0.9-0.7-2.4-1.3-4.2-1.6l-1.6,2.7C203.1,137.8,203.4,137.8,203.6,137.9z"/>
</g>
<g id="XMLID_58_">
	<path id="XMLID_60_" class="st8" d="M118.2,118.9c2.1,0.4,3.6,0.9,4.4,1.4c0.9,0.5,1.3,1.3,1.5,2.4c0.1,1-0.2,1.9-0.9,2.5
		s-1.8,1.1-3.2,1.2c-2.9,0.3-4.8-0.4-5.7-2.2l-3.1,4.7c0.9,0.7,1.9,1.2,3.2,1.6c1.9,0.6,3.9,0.8,6.1,0.5c3.2-0.4,5.6-1.4,7.3-3
		c1.7-1.6,2.4-3.7,2.1-6.1c-0.3-2.2-1.2-4-2.9-5.3c-1.4-1.1-3.5-1.9-6.1-2.5l-3.1,4.7C118.1,118.9,118.1,118.9,118.2,118.9z"/>
	<path id="XMLID_59_" class="st8" d="M128.6,109.4c-0.2-1.6-0.8-3.1-1.7-4.3l-3.1,4.8L128.6,109.4z"/>
</g>
<path id="XMLID_57_" class="st8" d="M151.2,106.8c0.2,1.8-0.6,3.1-2.5,3.7l-2.9,4.7l2.9-0.3c2.7-0.3,4.2,0.9,4.5,3.5
	c0.1,1.2-0.1,2.1-0.8,2.9c-0.7,0.7-1.7,1.2-3.1,1.4l-5,0.6l-0.5-4.6l-5,8l0.2,1.9l11.1-1.3c3.2-0.4,5.6-1.4,7.2-3
	c1.6-1.6,2.2-3.8,1.9-6.5c-0.2-1.6-0.8-2.9-1.7-3.9c-1-1-2.2-1.6-3.7-1.8c1.2-0.6,2.1-1.5,2.7-2.7c0.6-1.1,0.8-2.4,0.6-3.8
	c-0.2-2-1-3.6-2.2-4.7l-3.6,5.8C151.2,106.6,151.2,106.7,151.2,106.8z"/>
<path id="XMLID_56_" class="st8" d="M181.7,102.6l1.3,11.2c0.4,3.5-1.1,5.4-4.4,5.8c-1.6,0.2-2.9-0.1-3.9-0.8c-0.6-0.4-1-1.1-1.3-2
	l-3.1,5.3c0.2,0.2,0.4,0.3,0.6,0.5c2.2,1.5,4.9,2.1,8.2,1.7c3.4-0.4,5.9-1.6,7.7-3.7c1.7-2,2.4-4.6,2.1-7.7l-2.2-18.7L181.7,102.6z"
	/>
<g id="XMLID_51_">
	<path id="XMLID_55_" class="st9" d="M139,199.7l-0.3-2.8l-7.9,1l3.7-4.6c1-1.3,1.7-2.4,2-3.4c0.4-0.9,0.5-1.8,0.4-2.7
		c-0.1-1.1-0.5-1.9-1.1-2.6l-9,16.6L139,199.7z"/>
	<path id="XMLID_54_" class="st9" d="M151.2,187.4l0.5,4.1c0.1,1.4,0.1,2.4-0.2,3.1c-0.3,0.7-0.9,1.1-1.8,1.2
		c-0.9,0.1-1.6-0.2-2.1-0.8c-0.3-0.4-0.5-0.9-0.7-1.5L145,197c0.1,0.1,0.1,0.2,0.2,0.2c1.2,1.1,2.8,1.5,4.8,1.3
		c2-0.2,3.5-1.1,4.4-2.5c0.9-1.4,1.2-3.3,0.9-5.7l-0.4-3.2c-0.3-2.1-1-3.7-2-4.8l-1.9,3.6C151.1,186.4,151.1,186.9,151.2,187.4z"/>
	<polygon id="XMLID_53_" class="st9" points="166.3,196.4 170,195.9 167.9,178.6 167.8,178.6 164.8,184 	"/>
	<path id="XMLID_52_" class="st9" d="M187.5,178.5l-2,3.6c0,0.2,0.1,0.4,0.1,0.7l0.2,1.4c-0.2,0.4-0.4,0.8-0.8,1.1
		c-0.4,0.3-0.9,0.5-1.5,0.6c0,0,0,0-0.1,0l-1.5,2.8c0.3,0,0.6,0,1,0c1.3-0.2,2.3-0.7,3.2-1.7c0.1,2.7-1.5,4.3-4.6,4.8l-0.8,0.1
		l0.3,2.9l0.9-0.1c2.8-0.4,4.8-1.6,6.1-3.4c1.3-1.8,1.8-4.2,1.4-7.1l-0.2-1.3c-0.2-1.4-0.6-2.6-1.2-3.6
		C188,179,187.7,178.7,187.5,178.5z"/>
</g>
<g id="XMLID_46_">
	<path id="XMLID_50_" class="st10" d="M130.3,181.4c-1.2,0.1-2.3,0.5-3.2,1.1c-0.9,0.6-1.6,1.4-2,2.3c-0.4,0.9-0.6,1.9-0.4,3
		l3.6-0.4c-0.1-0.9,0-1.6,0.5-2.2c0.4-0.6,1-0.9,1.8-1c0.8-0.1,1.4,0.1,1.8,0.4c0.5,0.4,0.7,1,0.8,1.7c0.1,0.6-0.1,1.2-0.4,1.9
		c-0.3,0.7-0.8,1.5-1.5,2.4l-5.2,6.7l0.3,2.3l0.4,0l9-16.6c-0.3-0.3-0.6-0.6-0.9-0.8C133.7,181.5,132.2,181.2,130.3,181.4z"/>
	<path id="XMLID_49_" class="st10" d="M147.8,179.3c-2,0.2-3.4,1.1-4.4,2.4c-0.9,1.4-1.2,3.3-0.9,5.7l0.4,3.2c0.3,2.2,1,3.8,2.1,4.9
		l1.9-3.5c-0.1-0.5-0.2-1-0.3-1.6l-0.5-4.2c-0.1-1.3,0-2.3,0.3-3c0.3-0.7,0.9-1.1,1.8-1.2c0.9-0.1,1.6,0.1,2.1,0.7
		c0.3,0.4,0.6,0.9,0.7,1.7l1.9-3.6c-0.1-0.1-0.2-0.2-0.3-0.3C151.4,179.5,149.8,179.1,147.8,179.3z"/>
	<polygon id="XMLID_48_" class="st10" points="160.2,180.6 160.5,183.4 164.7,181.6 164.8,182.5 167.7,177.1 167.5,177.2 	"/>
	<path id="XMLID_47_" class="st10" d="M181.5,183.7c-0.5-0.5-0.9-1.3-1-2.2c-0.1-0.9,0-1.8,0.4-2.5c0.4-0.7,1-1.1,1.7-1.2
		c0.8-0.1,1.5,0.1,2,0.7c0.4,0.5,0.7,1.1,0.9,2l2-3.6c-0.5-0.6-1.1-1.1-1.9-1.4c-1-0.5-2.1-0.6-3.3-0.5c-1.2,0.1-2.2,0.5-3.1,1.2
		c-0.9,0.6-1.5,1.5-1.9,2.5c-0.4,1-0.5,2.1-0.4,3.2c0.2,1.8,0.9,3.1,2,4.1c0.9,0.7,1.9,1.1,3.1,1.1l1.5-2.8
		C182.7,184.5,182,184.3,181.5,183.7z"/>
</g>
<g id="XMLID_41_">
	<path id="XMLID_45_" class="st8" d="M137.3,198.9l-0.3-2.8l-7.9,1l3.7-4.6c1-1.3,1.7-2.4,2-3.4c0.4-0.9,0.5-1.8,0.4-2.7
		c-0.1-1.1-0.5-1.9-1.1-2.6l-9,16.6L137.3,198.9z"/>
	<path id="XMLID_44_" class="st8" d="M149.5,186.7l0.5,4.1c0.1,1.4,0.1,2.4-0.2,3.1c-0.3,0.7-0.9,1.1-1.8,1.2
		c-0.9,0.1-1.6-0.2-2.1-0.8c-0.3-0.4-0.5-0.9-0.7-1.5l-1.9,3.5c0.1,0.1,0.1,0.2,0.2,0.2c1.2,1.1,2.8,1.5,4.8,1.3
		c2-0.2,3.5-1.1,4.4-2.5c0.9-1.4,1.2-3.3,0.9-5.7l-0.4-3.2c-0.3-2.1-1-3.7-2-4.8l-1.9,3.6C149.4,185.7,149.4,186.1,149.5,186.7z"/>
	<polygon id="XMLID_43_" class="st8" points="164.6,195.6 168.3,195.2 166.2,177.9 166.1,177.9 163.1,183.3 	"/>
	<path id="XMLID_42_" class="st8" d="M185.8,177.7l-2,3.6c0,0.2,0.1,0.4,0.1,0.7l0.2,1.4c-0.2,0.4-0.4,0.8-0.8,1.1
		c-0.4,0.3-0.9,0.5-1.5,0.6c0,0,0,0-0.1,0l-1.5,2.8c0.3,0,0.6,0,1,0c1.3-0.2,2.3-0.7,3.2-1.7c0.1,2.7-1.5,4.3-4.6,4.8l-0.8,0.1
		l0.3,2.9l0.9-0.1c2.8-0.4,4.8-1.6,6.1-3.4c1.3-1.8,1.8-4.2,1.4-7.1l-0.2-1.3c-0.2-1.4-0.6-2.6-1.2-3.6
		C186.3,178.3,186,178,185.8,177.7z"/>
</g>
<g id="XMLID_36_">
	<path id="XMLID_40_" class="st6" d="M128.6,180.7c-1.2,0.1-2.3,0.5-3.2,1.1c-0.9,0.6-1.6,1.4-2,2.3c-0.4,0.9-0.6,1.9-0.4,3l3.6-0.4
		c-0.1-0.9,0-1.6,0.5-2.2c0.4-0.6,1-0.9,1.8-1c0.8-0.1,1.4,0.1,1.8,0.4c0.5,0.4,0.7,1,0.8,1.7c0.1,0.6-0.1,1.2-0.4,1.9
		c-0.3,0.7-0.8,1.5-1.5,2.4l-5.2,6.7l0.3,2.3l0.4,0l9-16.6c-0.3-0.3-0.6-0.6-0.9-0.8C132,180.7,130.5,180.5,128.6,180.7z"/>
	<path id="XMLID_39_" class="st6" d="M146.1,178.6c-2,0.2-3.4,1.1-4.4,2.4c-0.9,1.4-1.2,3.3-0.9,5.7l0.4,3.2c0.3,2.2,1,3.8,2.1,4.9
		l1.9-3.5c-0.1-0.5-0.2-1-0.3-1.6l-0.5-4.2c-0.1-1.3,0-2.3,0.3-3c0.3-0.7,0.9-1.1,1.8-1.2c0.9-0.1,1.6,0.1,2.1,0.7
		c0.3,0.4,0.6,0.9,0.7,1.7l1.9-3.6c-0.1-0.1-0.2-0.2-0.3-0.3C149.7,178.8,148.1,178.3,146.1,178.6z"/>
	<polygon id="XMLID_38_" class="st6" points="158.5,179.9 158.8,182.7 163,180.9 163.1,181.8 166,176.4 165.8,176.4 	"/>
	<path id="XMLID_37_" class="st6" d="M179.8,183c-0.5-0.5-0.9-1.3-1-2.2c-0.1-0.9,0-1.8,0.4-2.5c0.4-0.7,1-1.1,1.7-1.2
		c0.8-0.1,1.5,0.1,2,0.7c0.4,0.5,0.7,1.1,0.9,2l2-3.6c-0.5-0.6-1.1-1.1-1.9-1.4c-1-0.5-2.1-0.6-3.3-0.5c-1.2,0.1-2.2,0.5-3.1,1.2
		c-0.9,0.6-1.5,1.5-1.9,2.5c-0.4,1-0.5,2.1-0.4,3.2c0.2,1.8,0.9,3.1,2,4.1c0.9,0.7,1.9,1.1,3.1,1.1l1.5-2.8
		C181,183.7,180.3,183.5,179.8,183z"/>
</g>
</svg>
