<?xml version="1.0" encoding="UTF-8" standalone="no"?>
<svg
   xmlns:dc="http://purl.org/dc/elements/1.1/"
   xmlns:cc="http://creativecommons.org/ns#"
   xmlns:rdf="http://www.w3.org/1999/02/22-rdf-syntax-ns#"
   xmlns:svg="http://www.w3.org/2000/svg"
   xmlns="http://www.w3.org/2000/svg"
   xml:space="preserve"
   style="enable-background:new 0 0 1920 1080;"
   viewBox="0 0 1920 1080"
   y="0px"
   x="0px"
   id="Layer_1"
   version="1.1"><metadata
   id="metadata146"><rdf:RDF><cc:Work
       rdf:about=""><dc:format>image/svg+xml</dc:format><dc:type
         rdf:resource="http://purl.org/dc/dcmitype/StillImage" /></cc:Work></rdf:RDF></metadata><defs
   id="defs144" />
<style
   id="style2"
   type="text/css">
	.st0{fill:#3c3c3c;}
	.st1{opacity:0.4;fill:#56C0EE;}

		.st2{opacity:0.6;fill:#B4E0DA;stroke:#FAFBFB;stroke-width:5.6749;stroke-linecap:round;stroke-linejoin:round;stroke-miterlimit:10;}
	.st3{opacity:0.6;fill:#FAFBFB;}
	.st4{opacity:0.6;fill:#FAF291;}
	.st5{opacity:0.6;fill:#FEF7E2;}
	.st6{fill:#FAF291;}
	.st7{fill:none;stroke:#44A9DF;stroke-width:4;stroke-miterlimit:10;}
	.st8{fill:none;stroke:#F7901E;stroke-width:4;stroke-miterlimit:10;}
	.st9{fill:none;stroke:#8EC73F;stroke-width:4;stroke-miterlimit:10;}
	.st10{fill:none;stroke:#6B5EA9;stroke-width:4;stroke-miterlimit:10;}
	.st11{fill:#546E7A;}
	.st12{fill:none;stroke:#FAF291;stroke-width:4;stroke-miterlimit:10;}
	.st13{fill:none;stroke:#71CDDD;stroke-width:4.0109;stroke-linecap:round;stroke-linejoin:round;stroke-miterlimit:10;}
	.st14{fill:none;stroke:#F58981;stroke-width:4.0109;stroke-linecap:round;stroke-linejoin:round;stroke-miterlimit:10;}
	.st15{fill:none;stroke:#4D62AD;stroke-width:4;stroke-linecap:round;stroke-linejoin:round;stroke-miterlimit:10;}
	.st16{opacity:0.4;fill:#517CBE;}
	.st17{fill:#F05455;}
	.st18{fill:#D41F26;}
	.st19{fill:#FEED57;}
	.st20{fill:#F58981;}
	.st21{fill:#8D6E63;}
	.st22{fill:#795649;}
	.st23{fill:#6D4D42;}
	.st24{fill:#F7901E;}
	.st25{fill:#FFD181;}
	.st26{fill:#FEF5A0;}
	.st27{opacity:0.6;fill:#596AB2;stroke:#FAFBFB;stroke-miterlimit:10;}
	.st28{fill:none;stroke:#4D62AD;stroke-width:1.2941;stroke-miterlimit:10;}
	.st29{opacity:0.6;fill:#EE2749;stroke:#FAFBFB;stroke-width:2;stroke-miterlimit:10;}
	.st30{fill:none;stroke:#F280AA;stroke-width:2;stroke-miterlimit:10;}
	.st31{opacity:0.6;fill:#71CDDD;stroke:#FAFBFB;stroke-miterlimit:10;}
	.st32{fill:none;stroke:#5ECAE7;stroke-width:1.2941;stroke-miterlimit:10;}
	.st33{fill:#607D8B;}
	.st34{fill:#80CBC4;}
	.st35{opacity:0.6;fill:#F6EC13;stroke:#FAFBFB;stroke-width:1.2274;stroke-miterlimit:10;}
	.st36{fill:none;stroke:#FAF291;stroke-width:1.2274;stroke-miterlimit:10;}
	.st37{opacity:0.6;fill:none;stroke:#FAFBFB;stroke-width:10;stroke-linecap:round;stroke-linejoin:round;stroke-miterlimit:10;}
	.st38{fill:none;stroke:#90A4AE;stroke-width:3.0095;stroke-linecap:round;stroke-linejoin:round;stroke-miterlimit:10;}
	.st39{fill:#ECEFF0;}
	.st40{opacity:0.7;}
	.st41{fill:none;}
	.st42{opacity:0.4;fill:#85D5F7;}
	.st43{fill:#56C0EE;}
	.st44{fill:#85D5F7;}
	.st45{fill:#9CDAE6;}

		.st46{opacity:0.6;fill:#85D5F7;stroke:#FAFBFB;stroke-width:3.8502;stroke-linecap:round;stroke-linejoin:round;stroke-miterlimit:10;}
	.st47{opacity:0.5;fill:#FAF291;}
	.st48{opacity:0.5;fill:#FAFBFB;}
	.st49{opacity:0.6;fill:#9CDAE6;}
	.st50{opacity:0.5;fill:#85D5F7;}
	.st51{fill:#BDDDF4;}
</style>
<rect
   height="1080"
   width="1920"
   class="st0"
   id="XMLID_137_" />
<g
   id="XMLID_120_">
	<g
   id="XMLID_106_">
		<circle
   r="147.3"
   cy="921.6"
   cx="1766.5"
   class="st1"
   id="XMLID_108_" />
		<path
   d="M1829.9,1055.1c28.9-31.1,44.2-74.3,38.2-119.7c-10.7-80.6-84.7-137.4-165.3-126.7    c-16.1,2.1-31.3,6.8-45.1,13.5c22.5-24.2,53.2-41,88.5-45.6c80.6-10.7,154.6,46.1,165.3,126.7    C1920,967.9,1885.4,1028.2,1829.9,1055.1z"
   class="st1"
   id="XMLID_107_" />
	</g>
	<path
   d="M1658.2,1000.7c8.7,8.6,18.5,16.2,29.1,22.4"
   class="st2"
   id="XMLID_105_" />
	<path
   d="M1637.4,917.2c0.5,17.4,4.1,34.2,10.3,49.9"
   class="st2"
   id="XMLID_104_" />
	<path
   d="M1761.8,956.9l15.6-19.4c0.4-0.4,0.6-1,0.6-1.5l2.6-24.7c0.2-2.3,3-3.5,4.8-2l19.4,15.6   c0.4,0.4,1,0.6,1.5,0.6l24.7,2.6c2.3,0.2,3.5,3,2,4.8l-15.6,19.4c-0.4,0.4-0.6,1-0.6,1.5l-2.6,24.7c-0.2,2.3-3,3.5-4.8,2   l-19.4-15.6c-0.4-0.4-1-0.6-1.5-0.6l-24.7-2.6C1761.5,961.4,1760.4,958.7,1761.8,956.9z"
   class="st3"
   id="XMLID_121_" />
	<path
   d="M1763.8,928.1l24.7-2.7c0.6-0.1,1.1-0.3,1.5-0.6l19.4-15.6c1.8-1.5,4.6-0.3,4.8,2l2.7,24.7   c0.1,0.6,0.3,1.1,0.6,1.5l15.6,19.4c1.5,1.8,0.3,4.6-2,4.8l-24.7,2.7c-0.6,0.1-1.1,0.3-1.5,0.6l-19.4,15.6c-1.8,1.5-4.6,0.3-4.8-2   l-2.7-24.7c-0.1-0.6-0.3-1.1-0.6-1.5l-15.6-19.4C1760.3,931.1,1761.4,928.4,1763.8,928.1z"
   class="st3"
   id="XMLID_129_" />
	<path
   d="M1674,878.4l11.4-1.3c0.3,0,0.5-0.1,0.7-0.3l8.9-7.2c0.8-0.7,2.1-0.2,2.2,0.9l1.3,11.4   c0,0.3,0.1,0.5,0.3,0.7l7.2,8.9c0.7,0.8,0.2,2.1-0.9,2.2l-11.4,1.3c-0.3,0-0.5,0.1-0.7,0.3l-8.9,7.2c-0.8,0.7-2.1,0.2-2.2-0.9   l-1.3-11.4c0-0.3-0.1-0.5-0.3-0.7l-7.2-8.9C1672.4,879.8,1672.9,878.6,1674,878.4z"
   class="st4"
   id="XMLID_122_" />
	<path
   d="M1769.7,1015.5l11.4-1.3c0.3,0,0.5-0.1,0.7-0.3l8.9-7.2c0.8-0.7,2.1-0.2,2.2,0.9l1.3,11.4   c0,0.3,0.1,0.5,0.3,0.7l7.2,8.9c0.7,0.8,0.2,2.1-0.9,2.2l-11.4,1.3c-0.3,0-0.5,0.1-0.7,0.3l-8.9,7.2c-0.8,0.7-2.1,0.2-2.2-0.9   l-1.3-11.4c0-0.3-0.1-0.5-0.3-0.7l-7.2-8.9C1768.1,1016.9,1768.6,1015.6,1769.7,1015.5z"
   class="st5"
   id="XMLID_130_" />
	<circle
   r="3.7"
   cy="957.8"
   cx="1721.1"
   class="st6"
   id="XMLID_123_" />
	<circle
   r="5.3"
   cy="847.8"
   cx="1761.2"
   class="st0"
   id="XMLID_124_" />
	<circle
   r="4.9"
   cy="1028.1"
   cx="1726.7"
   class="st0"
   id="XMLID_125_" />
</g>
<line
   y2="797.3"
   x2="386.8"
   y1="734.3"
   x1="269.6"
   class="st7"
   id="XMLID_97_" />
<line
   y2="928.9"
   x2="386.8"
   y1="797.3"
   x1="386.8"
   class="st7"
   id="XMLID_98_" />
<line
   y2="770.5"
   x2="159.2"
   y1="734"
   x1="267.5"
   class="st8"
   id="XMLID_95_" />
<line
   y2="969.5"
   x2="159.2"
   y1="770.5"
   x1="159.2"
   class="st8"
   id="XMLID_96_" />
<line
   y2="909.8"
   x2="201.1"
   y1="800.4"
   x1="201.1"
   class="st9"
   id="XMLID_94_" />
<line
   y2="928.9"
   x2="358.8"
   y1="823.1"
   x1="358.8"
   class="st10"
   id="XMLID_84_" />
<line
   y2="800.4"
   x2="201.1"
   y1="734"
   x1="267.5"
   class="st9"
   id="XMLID_85_" />
<line
   y2="823.1"
   x2="358.8"
   y1="734"
   x1="267.5"
   class="st10"
   id="XMLID_18_" />
<rect
   height="60"
   width="14.4"
   class="st11"
   y="1020"
   x="262.4"
   id="XMLID_82_" />
<line
   y2="734"
   x2="267.5"
   y1="754"
   x1="101.1"
   class="st12"
   id="XMLID_23_" />
<line
   y2="734"
   x2="267.5"
   y1="754"
   x1="408.8"
   class="st13"
   id="XMLID_14_" />
<line
   y2="89.5"
   x2="268.9"
   y1="154.4"
   x1="249.4"
   class="st14"
   id="XMLID_10_" />
<line
   y2="89.5"
   x2="47.5"
   y1="89.5"
   x1="204.9"
   class="st15"
   id="XMLID_8_" />
<circle
   r="259.5"
   cy="413.5"
   cx="269.5"
   class="st16"
   id="XMLID_3_" />
<g
   id="XMLID_1_">
	<g
   id="XMLID_136_">
		<g
   id="XMLID_133_">
			<path
   d="M243.6,350.3l73-73c-5.9,5.9-14.1,7.2-18.4,2.9c-4.2-4.2-2.9-12.5,2.9-18.4l-73,73     c-5.9,5.9-7.2,14.1-2.9,18.4C229.4,357.5,237.7,356.1,243.6,350.3z"
   class="st17"
   id="XMLID_55_" />
			<path
   d="M230.7,363.1L356.8,237c3.3-3.3,8.7-3.3,12,0l3.4,3.4c3.3,3.3,3.3,8.7,0,12L246.1,378.6     c-3.3,3.3-8.7,3.3-12,0l-3.4-3.4C227.4,371.8,227.4,366.4,230.7,363.1z"
   class="st17"
   id="XMLID_54_" />
			<path
   d="M253.2,395.2l64.3-64.3c-5.1,2.7-10.6,2.7-13.7-0.4l0,0c-4.2-4.2-2.7-12.8,3.5-18.9l8.6-8.6     c-1.8,1-3.6,2.3-5.3,3.9l-72.8,72.8c-6.2,6.2-7.8,14.7-3.5,18.9l0,0C238.5,402.9,247.1,401.4,253.2,395.2z"
   class="st17"
   id="XMLID_53_" />
			<path
   d="M199.9,332.3L304.1,228c3.3-3.3,8.7-3.3,12,0l3.4,3.4c3.3,3.3,3.3,8.7,0,12L215.3,347.7     c-3.3,3.3-8.7,3.3-12,0l-3.4-3.4C196.6,341,196.6,335.6,199.9,332.3z"
   class="st17"
   id="XMLID_49_" />
			<path
   d="M248,400.4l92.9-92.9c3.3-3.3,8.7-3.3,12,0l3.4,3.4c3.3,3.3,3.3,8.7,0,12l-92.9,92.9     c-3.3,3.3-8.7,3.3-12,0l-3.4-3.4C244.7,409.1,244.7,403.7,248,400.4z"
   class="st17"
   id="XMLID_48_" />
		</g>
		<g
   id="XMLID_50_">
			<path
   d="M207.2,441.2l77.3-77.3c-4.2,4.2-11.2,4.2-15.4,0l0,0c-4.2-4.2-4.2-11.2,0-15.4l-77.3,77.3     c-4.2,4.2-4.2,11.2,0,15.4l0,0C196,445.5,203,445.5,207.2,441.2z"
   class="st18"
   id="XMLID_52_" />
			<path
   d="M192.8,397.6l62.6-62.6c-4.2,4.2-11.2,4.2-15.4,0c-4.2-4.2-4.2-11.2,0-15.4l-62.6,62.6     c-4.2,4.2-4.2,11.2,0,15.4C181.6,401.8,188.5,401.8,192.8,397.6z"
   class="st18"
   id="XMLID_51_" />
			<path
   d="M204.4,385.9l85.3-85.3c3.3-3.3,8.7-3.3,12,0l3.4,3.4c3.3,3.3,3.3,8.7,0,12l-85.3,85.3     c-3.3,3.3-8.7,3.3-12,0l-3.4-3.4C201.1,394.6,201.1,389.2,204.4,385.9z"
   class="st18"
   id="XMLID_47_" />
			<path
   d="M146.5,385.6l101.4-101.4c3.3-3.3,8.7-3.3,12,0l3.4,3.4c3.3,3.3,3.3,8.7,0,12L161.9,401.1     c-3.3,3.3-8.7,3.3-12,0l-3.4-3.4C143.2,394.3,143.2,388.9,146.5,385.6z"
   class="st18"
   id="XMLID_46_" />
			<path
   d="M194,454.4l106.2-106.2c3.3-3.3,8.7-3.3,12,0l3.4,3.4c3.3,3.3,3.3,8.7,0,12L209.5,469.8     c-3.3,3.3-8.7,3.3-12,0l-3.4-3.4C190.7,463.1,190.7,457.7,194,454.4z"
   class="st18"
   id="XMLID_45_" />
			<path
   d="M178.9,376.4l21.4,5.7c11.3,3,20.2,11.9,23.2,23.2l5.7,21.4c3,11.3-0.2,23.4-8.5,31.7     l-15.7,15.7c-8.3,8.3-20.4,11.5-31.7,8.5l-21.4-5.7c-11.3-3-20.2-11.9-23.2-23.2l-5.7-21.4c-3-11.3,0.2-23.4,8.5-31.7l15.7-15.7     C155.5,376.6,167.6,373.4,178.9,376.4z"
   class="st18"
   id="XMLID_44_" />
		</g>
		<path
   d="M307.1,265.8l36.6-36.6c1.2-1.2,3.1-1.2,4.3,0l1.2,1.2c1.2,1.2,1.2,3.1,0,4.3l-36.6,36.6    c-1.2,1.2-3.1,1.2-4.3,0l-1.2-1.2C305.9,268.9,305.9,267,307.1,265.8z"
   class="st19"
   id="XMLID_41_" />
		<path
   d="M261.7,401.8l45.7-45.7c1.2-1.2,3.1-1.2,4.3,0l1.2,1.2c1.2,1.2,1.2,3.1,0,4.3l-45.7,45.7    c-1.2,1.2-3.1,1.2-4.3,0l-1.2-1.2C260.5,404.9,260.5,403,261.7,401.8z"
   class="st17"
   id="XMLID_40_" />
		<path
   d="M283.2,323.2l14.7-14.7c1.2-1.2,3.1-1.2,4.3,0l1.2,1.2c1.2,1.2,1.2,3.1,0,4.3l-14.7,14.7    c-1.2,1.2-3.1,1.2-4.3,0l-1.2-1.2C282,326.4,282,324.4,283.2,323.2z"
   class="st17"
   id="XMLID_38_" />
		<path
   d="M228.8,318.8l26.1-26.1c1.2-1.2,3.1-1.2,4.3,0l1.2,1.2c1.2,1.2,1.2,3.1,0,4.3l-26.1,26.1    c-1.2,1.2-3.1,1.2-4.3,0l-1.2-1.2C227.6,321.9,227.6,320,228.8,318.8z"
   class="st17"
   id="XMLID_36_" />
		<path
   d="M333.4,330.1l14.7-14.7c1.2-1.2,3.1-1.2,4.3,0l1.2,1.2c1.2,1.2,1.2,3.1,0,4.3l-14.7,14.7    c-1.2,1.2-3.1,1.2-4.3,0l-1.2-1.2C332.2,333.3,332.2,331.3,333.4,330.1z"
   class="st20"
   id="XMLID_34_" />
		<path
   d="M330.5,278.8l33.3-33.3c1.2-1.2,3.1-1.2,4.3,0l1.2,1.2c1.2,1.2,1.2,3.1,0,4.3l-33.3,33.3    c-1.2,1.2-3.1,1.2-4.3,0l-1.2-1.2C329.3,281.9,329.3,279.9,330.5,278.8z"
   class="st20"
   id="XMLID_33_" />
		<path
   d="M295.6,252l14.7-14.7c1.2-1.2,3.1-1.2,4.3,0l1.2,1.2c1.2,1.2,1.2,3.1,0,4.3l-14.7,14.7    c-1.2,1.2-3.1,1.2-4.3,0l-1.2-1.2C294.4,255.1,294.4,253.1,295.6,252z"
   class="st20"
   id="XMLID_32_" />
		<path
   d="M335.5,298.4l27.3-27.3c1.2-1.2,3.1-1.2,4.3,0l1.2,1.2c1.2,1.2,1.2,3.1,0,4.3L341.1,304    c-1.2,1.2-3.1,1.2-4.3,0l-1.2-1.2C334.3,301.6,334.3,299.6,335.5,298.4z"
   class="st19"
   id="XMLID_31_" />
		<path
   d="M306.5,214l22.1-22.1c1.2-1.2,3.1-1.2,4.3,0l1.2,1.2c1.2,1.2,1.2,3.1,0,4.3L312,219.6    c-1.2,1.2-3.1,1.2-4.3,0l-1.2-1.2C305.3,217.2,305.3,215.2,306.5,214z"
   class="st19"
   id="XMLID_28_" />
	</g>
	<g
   id="XMLID_57_">
		<path
   d="M178.7,380.2l19.9,5.3c10.5,2.8,18.8,11.1,21.6,21.6l5.3,19.9c2.8,10.5-0.2,21.8-7.9,29.5    l-14.6,14.6c-7.7,7.7-19,10.7-29.5,7.9l-19.9-5.3c-10.5-2.8-18.8-11.1-21.6-21.6l-5.3-19.9c-2.8-10.5,0.2-21.8,7.9-29.5l14.6-14.6    C156.9,380.3,168.2,377.3,178.7,380.2z"
   class="st21"
   id="XMLID_27_" />
		<path
   d="M178.4,385.9l17.6,4.7c9.3,2.5,16.6,9.8,19.1,19.1l4.7,17.6c2.5,9.3-0.2,19.2-7,26.1    l-12.9,12.9c-6.8,6.8-16.7,9.5-26.1,7l-17.6-4.7c-9.3-2.5-16.6-9.8-19.1-19.1l-4.7-17.6c-2.5-9.3,0.2-19.2,7-26.1l12.9-12.9    C159.2,386.1,169.1,383.4,178.4,385.9z"
   class="st22"
   id="XMLID_29_" />
		<path
   d="M198.3,433.7l1.3-3c0.5-1.2,1.6-2,2.9-2.1l3.3-0.4c1.3-0.1,2.5,0.4,3.3,1.4l1.9,2.6    c0.8,1,0.9,2.4,0.4,3.5l-1.3,3c-0.5,1.2-1.6,2-2.9,2.1l-3.3,0.4c-1.3,0.1-2.5-0.4-3.3-1.4l-1.9-2.6    C197.9,436.2,197.7,434.9,198.3,433.7z"
   class="st23"
   id="XMLID_35_" />
		<path
   d="M186,405.3l1-2.3c0.4-0.9,1.2-1.5,2.2-1.6l2.5-0.3c1-0.1,1.9,0.3,2.5,1.1l1.5,2    c0.6,0.8,0.7,1.8,0.3,2.7l-1,2.3c-0.4,0.9-1.2,1.5-2.2,1.6l-2.5,0.3c-1,0.1-1.9-0.3-2.5-1.1l-1.5-2    C185.7,407.3,185.6,406.2,186,405.3z"
   class="st23"
   id="XMLID_37_" />
		<path
   d="M148.9,411.7l2.1-4.7c0.8-1.8,2.5-3.1,4.5-3.3l5.1-0.6c2-0.2,4,0.6,5.2,2.3l3.1,4.2    c1.2,1.6,1.4,3.8,0.6,5.6l-2.1,4.7c-0.8,1.8-2.5,3.1-4.5,3.3l-5.1,0.6c-2,0.2-4-0.6-5.2-2.3l-3.1-4.2    C148.3,415.6,148.1,413.5,148.9,411.7z"
   class="st23"
   id="XMLID_39_" />
		<path
   d="M147.4,447.8l1.6-3.7c0.6-1.4,2-2.4,3.6-2.6l4-0.4c1.6-0.2,3.1,0.5,4.1,1.8l2.4,3.3    c0.9,1.3,1.1,3,0.5,4.4l-1.6,3.7c-0.6,1.4-2,2.4-3.6,2.6l-4,0.4c-1.6,0.2-3.1-0.5-4.1-1.8l-2.4-3.3    C146.9,450.9,146.7,449.3,147.4,447.8z"
   class="st23"
   id="XMLID_42_" />
		<path
   d="M178.9,447.8l2.5-0.1c1,0,1.9,0.5,2.4,1.3l1.3,2.2c0.5,0.8,0.6,1.9,0.1,2.8l-1.2,2.2    c-0.5,0.9-1.4,1.4-2.3,1.5l-2.5,0.1c-1,0-1.9-0.5-2.4-1.3l-1.3-2.2c-0.5-0.8-0.6-1.9-0.1-2.8l1.2-2.2    C177,448.3,177.9,447.8,178.9,447.8z"
   class="st23"
   id="XMLID_43_" />
	</g>
</g>
<g
   id="XMLID_2_">
	<g
   id="XMLID_111_">
		<path
   d="M308.8,470.8l33.2-33.2c1.2-1.2,3.1-1.2,4.3,0l1.2,1.2c1.2,1.2,1.2,3.1,0,4.3l-33.2,33.2    c-1.2,1.2-3.1,1.2-4.3,0l-1.2-1.2C307.6,474,307.6,472,308.8,470.8z"
   class="st19"
   id="XMLID_30_" />
		<g
   id="XMLID_62_">
			<path
   d="M260.1,555.7l41.9-41.9c-1.9,1.9-4.9,1.9-6.8,0c-1.9-1.9-1.9-4.9,0-6.8l-41.9,41.9     c-1.9,1.9-1.9,4.9,0,6.8C255.2,557.5,258.2,557.5,260.1,555.7z"
   class="st19"
   id="XMLID_79_" />
			<path
   d="M248.2,540.5l34.8-34.8c-1.9,1.9-4.9,1.9-6.8,0c-1.9-1.9-1.9-4.9,0-6.8l-34.8,34.8     c-1.9,1.9-1.9,4.9,0,6.8C243.3,542.4,246.3,542.4,248.2,540.5z"
   class="st19"
   id="XMLID_78_" />
			<path
   d="M265.9,549.9l43.4-43.4c1.9-1.9,4.9-1.9,6.8,0h0c1.9,1.9,1.9,4.9,0,6.8l-43.4,43.4     c-1.9,1.9-4.9,1.9-6.8,0l0,0C264,554.8,264,551.8,265.9,549.9z"
   class="st19"
   id="XMLID_77_" />
			<path
   d="M259.3,529.4l43.4-43.4c1.9-1.9,4.9-1.9,6.8,0l0,0c1.9,1.9,1.9,4.9,0,6.8l-43.4,43.4     c-1.9,1.9-4.9,1.9-6.8,0v0C257.4,534.3,257.4,531.2,259.3,529.4z"
   class="st19"
   id="XMLID_76_" />
			<path
   d="M242.4,520.2l43.4-43.4c1.9-1.9,4.9-1.9,6.8,0l0,0c1.9,1.9,1.9,4.9,0,6.8L249.2,527     c-1.9,1.9-4.9,1.9-6.8,0h0C240.6,525.1,240.6,522.1,242.4,520.2z"
   class="st19"
   id="XMLID_75_" />
			<path
   d="M220.4,568.3l34.7-34.7c-1.9,1.9-4.9,1.9-6.8,0c-1.9-1.9-1.9-4.9,0-6.8l-34.7,34.7     c-1.9,1.9-1.9,4.9,0,6.8C215.4,570.2,218.5,570.2,220.4,568.3z"
   class="st24"
   id="XMLID_74_" />
			<path
   d="M242.7,573.1l19.5-19.5c-1.9,1.9-4.9,1.9-6.8,0l0,0c-1.9-1.9-1.9-4.9,0-6.8l-19.5,19.5     c-1.9,1.9-1.9,4.9,0,6.8l0,0C237.7,575,240.8,575,242.7,573.1z"
   class="st24"
   id="XMLID_73_" />
			<path
   d="M235.2,580.5l43.4-43.4c1.9-1.9,4.9-1.9,6.8,0l0,0c1.9,1.9,1.9,4.9,0,6.8L242,587.3     c-1.9,1.9-4.9,1.9-6.8,0h0C233.4,585.4,233.4,582.4,235.2,580.5z"
   class="st24"
   id="XMLID_72_" />
			<path
   d="M221.7,567l53.1-53.1c1.9-1.9,4.9-1.9,6.8,0l0,0c1.9,1.9,1.9,4.9,0,6.8l-53.1,53.1     c-1.9,1.9-4.9,1.9-6.8,0l0,0C219.8,571.9,219.8,568.9,221.7,567z"
   class="st24"
   id="XMLID_71_" />
			<path
   d="M204.7,557.9l56-56c1.9-1.9,4.9-1.9,6.8,0v0c1.9,1.9,1.9,4.9,0,6.8l-56,56     c-1.9,1.9-4.9,1.9-6.8,0l0,0C202.9,562.8,202.9,559.7,204.7,557.9z"
   class="st24"
   id="XMLID_70_" />
			<path
   d="M207.3,556.1l13.6-6.3c2.8-1.3,6.2-1,8.8,0.8l12.3,8.6c2.6,1.8,4,4.8,3.7,8l-1.3,15     c-0.3,3.1-2.2,5.9-5.1,7.2l-13.6,6.3c-2.8,1.3-6.2,1-8.8-0.8l-12.3-8.6c-2.6-1.8-4-4.8-3.7-8l1.3-15     C202.5,560.1,204.5,557.4,207.3,556.1z"
   class="st24"
   id="XMLID_69_" />
			<path
   d="M273.7,548.7l7.6-7.6c0.7-0.7,1.9-0.7,2.6,0l0,0c0.7,0.7,0.7,1.9,0,2.6l-7.6,7.6     c-0.7,0.7-1.9,0.7-2.6,0l0,0C273,550.6,273,549.4,273.7,548.7z"
   class="st25"
   id="XMLID_68_" />
			<path
   d="M266.8,527.9l10.9-10.9c0.7-0.7,1.9-0.7,2.6,0l0,0c0.7,0.7,0.7,1.9,0,2.6l-10.9,10.9     c-0.7,0.7-1.9,0.7-2.6,0l0,0C266.1,529.8,266.1,528.6,266.8,527.9z"
   class="st25"
   id="XMLID_67_" />
			<path
   d="M253.1,516.3l11.3-11.3c0.7-0.7,1.9-0.7,2.6,0l0,0c0.7,0.7,0.7,1.9,0,2.6l-11.3,11.3     c-0.7,0.7-1.9,0.7-2.6,0h0C252.4,518.2,252.4,517,253.1,516.3z"
   class="st25"
   id="XMLID_66_" />
			<path
   d="M301.7,520.7l9.9-9.9c0.7-0.7,1.9-0.7,2.6,0l0,0c0.7,0.7,0.7,1.9,0,2.6l-9.9,9.9     c-0.7,0.7-1.9,0.7-2.6,0l0,0C300.9,522.6,300.9,521.5,301.7,520.7z"
   class="st26"
   id="XMLID_65_" />
			<path
   d="M295.7,499.1l9.9-9.9c0.7-0.7,1.9-0.7,2.6,0l0,0c0.7,0.7,0.7,1.9,0,2.6l-9.9,9.9     c-0.7,0.7-1.9,0.7-2.6,0l0,0C295,500.9,295,499.8,295.7,499.1z"
   class="st26"
   id="XMLID_64_" />
			<path
   d="M276.8,492.6l9.9-9.9c0.7-0.7,1.9-0.7,2.6,0l0,0c0.7,0.7,0.7,1.9,0,2.6l-9.9,9.9     c-0.7,0.7-1.9,0.7-2.6,0l0,0C276,494.5,276,493.3,276.8,492.6z"
   class="st26"
   id="XMLID_63_" />
		</g>
	</g>
	<g
   id="XMLID_56_">
		<path
   d="M208.9,557.7l12.2-5.7c2.6-1.2,5.6-0.9,7.9,0.7l11.1,7.8c2.3,1.6,3.6,4.4,3.3,7.2l-1.2,13.4    c-0.2,2.8-2,5.3-4.5,6.5l-12.2,5.7c-2.6,1.2-5.6,0.9-7.9-0.7l-11.1-7.8c-2.3-1.6-3.6-4.4-3.3-7.2l1.2-13.4    C204.6,561.4,206.4,558.9,208.9,557.7z"
   class="st21"
   id="XMLID_61_" />
		<path
   d="M211.4,560.3l10.2-4.7c2.1-1,4.6-0.8,6.5,0.6l9.2,6.4c1.9,1.3,3,3.6,2.8,6l-1,11.2    c-0.2,2.3-1.6,4.4-3.8,5.4l-10.2,4.7c-2.1,1-4.6,0.8-6.5-0.6l-9.2-6.4c-1.9-1.3-3-3.6-2.8-6l1-11.2    C207.8,563.3,209.2,561.3,211.4,560.3z"
   class="st22"
   id="XMLID_60_" />
		<path
   d="M212.6,573l1.5,0c0.6,0,1.1,0.3,1.4,0.8l0.8,1.3c0.3,0.5,0.3,1.1,0.1,1.6l-0.7,1.3    c-0.3,0.5-0.8,0.8-1.4,0.9l-1.5,0c-0.6,0-1.1-0.3-1.4-0.8l-0.8-1.3c-0.3-0.5-0.3-1.1-0.1-1.6l0.7-1.3    C211.5,573.3,212,573,212.6,573z"
   class="st23"
   id="XMLID_59_" />
		<path
   d="M222.5,568.1l1.3-2.9c0.5-1.1,1.6-1.9,2.8-2l3.1-0.3c1.2-0.1,2.4,0.4,3.2,1.4l1.9,2.6    c0.7,1,0.9,2.3,0.4,3.4l-1.3,2.9c-0.5,1.1-1.6,1.9-2.8,2l-3.1,0.3c-1.2,0.1-2.4-0.4-3.2-1.4l-1.9-2.6    C222.2,570.5,222,569.2,222.5,568.1z"
   class="st23"
   id="XMLID_58_" />
	</g>
</g>
<circle
   r="45.6"
   cy="383.3"
   cx="146.7"
   class="st27"
   id="XMLID_167_" />
<circle
   r="59.1"
   cy="383.3"
   cx="146.7"
   class="st28"
   id="XMLID_168_" />
<circle
   r="26.4"
   cy="304.9"
   cx="227.9"
   class="st29"
   id="XMLID_170_" />
<circle
   r="34.1"
   cy="304.9"
   cx="227.9"
   class="st30"
   id="XMLID_169_" />
<path
   d="M47.5,275.5c33.1,35.9,66.1,71.9,99.2,107.8"
   class="st15"
   id="XMLID_4_" />
<line
   y2="304.9"
   x2="228.9"
   y1="154.4"
   x1="249.4"
   class="st14"
   id="XMLID_5_" />
<line
   y2="275.5"
   x2="47.5"
   y1="89.5"
   x1="47.5"
   class="st15"
   id="XMLID_9_" />
<circle
   r="45.6"
   cy="517.1"
   cx="282.3"
   class="st31"
   id="XMLID_12_" />
<circle
   r="59.1"
   cy="517.1"
   cx="282.3"
   class="st32"
   id="XMLID_11_" />
<path
   d="M103.4,183.1c16.2-13.3,74.9-58,162-58c92.8,0,154.1,50.9,169,64  c-56.3-54.3-112.7-108.7-169-163C211.4,78.5,157.4,130.8,103.4,183.1z"
   class="st33"
   id="XMLID_6_" />
<path
   d="M104,640.3c16.2,13.3,74.9,58,162,58c92.8,0,154.1-50.9,169-64c-56.3,54.3-112.7,108.7-169,163  C212,744.9,158,692.6,104,640.3z"
   class="st33"
   id="XMLID_19_" />
<circle
   r="16.4"
   cy="89.5"
   cx="268.9"
   class="st34"
   id="XMLID_16_" />
<circle
   r="16.4"
   cy="729.8"
   cx="269.6"
   class="st34"
   id="XMLID_17_" />
<line
   y2="596.4"
   x2="536"
   y1="513.9"
   x1="281.6"
   class="st13"
   id="XMLID_7_" />
<line
   y2="754"
   x2="408.8"
   y1="596.4"
   x1="536"
   class="st13"
   id="XMLID_13_" />
<circle
   r="16.2"
   cy="578.5"
   cx="205.1"
   class="st35"
   id="XMLID_20_" />
<circle
   r="20.9"
   cy="578.5"
   cx="205.1"
   class="st36"
   id="XMLID_15_" />
<line
   y2="646"
   x2="52"
   y1="577.7"
   x1="203.2"
   class="st12"
   id="XMLID_21_" />
<line
   y2="754"
   x2="101.1"
   y1="646"
   x1="52"
   class="st12"
   id="XMLID_22_" />
<path
   d="M349.5,165.4c57.7,47.6,94.4,119.6,94.4,200.2c0,143.3-116.2,259.5-259.5,259.5  c-28.6,0-56.2-4.7-82-13.2c44.9,37,102.4,59.3,165.1,59.3C410.8,671.2,527,555,527,411.7C527,297,452.6,199.8,349.5,165.4z"
   class="st16"
   id="XMLID_138_" />
<path
   d="M99,276.9c13.2-17.1,28.6-32.6,45.7-45.9"
   class="st37"
   id="XMLID_139_" />
<path
   d="M239,770.5c10.1,35,20.2,70.1,30.3,105.1c8.2-35,16.5-70.1,24.7-105.1  C275.7,770.5,257.3,770.5,239,770.5z"
   class="st33"
   id="XMLID_25_" />
<path
   d="M45,450.9c-3.2-30.5-0.8-60.7,6.4-89.5"
   class="st37"
   id="XMLID_24_" />
<line
   y2="830"
   x2="268.9"
   y1="770.5"
   x1="268.9"
   class="st38"
   id="XMLID_26_" />
<rect
   height="149.4"
   width="321.4"
   class="st11"
   y="882.6"
   x="108.9"
   id="XMLID_80_" />
<rect
   height="138"
   width="296.9"
   class="st39"
   y="888.3"
   x="120.4"
   id="XMLID_81_" />
<rect
   height="13.7"
   width="272.4"
   class="st11"
   y="1066.3"
   x="136.3"
   id="XMLID_83_" />
<g
   class="st40"
   id="XMLID_87_">
	<polygon
   points="295.8,888.3 121.2,888.3 121.2,1026.3 418.1,1026.3 418.1,1010.5  "
   class="st41"
   id="XMLID_88_" />
	<polygon
   points="418.1,888.3 336.8,888.3 418.1,969.5  "
   class="st41"
   id="XMLID_89_" />
	<polygon
   points="418.1,969.5 336.8,888.3 295.8,888.3 418.1,1010.5  "
   class="st0"
   id="XMLID_90_" />
</g>
<g
   class="st40"
   id="XMLID_86_">
	<polygon
   points="418.1,888.3 396.6,888.3 418.1,909.8  "
   class="st41"
   id="XMLID_91_" />
	<polygon
   points="355.6,888.3 121.2,888.3 121.2,1026.3 418.1,1026.3 418.1,950.8  "
   class="st41"
   id="XMLID_92_" />
	<polygon
   points="418.1,909.8 396.6,888.3 355.6,888.3 418.1,950.8  "
   class="st0"
   id="XMLID_93_" />
</g>
<g
   id="XMLID_116_">
	<g
   id="XMLID_103_">
		<circle
   r="99.9"
   cy="591.8"
   cx="1815.3"
   class="st42"
   id="XMLID_102_" />
		<path
   d="M1774.1,500.3c-20,20.7-31.1,49.8-27.6,80.6c6.1,54.8,55.5,94.4,110.3,88.3    c11-1.2,21.3-4.2,30.8-8.5c-15.6,16.1-36.7,27-60.7,29.7c-54.8,6.1-104.2-33.4-110.3-88.3C1711.8,558.2,1736.1,517.8,1774.1,500.3    z"
   class="st42"
   id="XMLID_101_" />
	</g>
	<path
   d="M1815.6,665.5c18.1-20.7,36.3-41.4,54.4-62.1c-3.9-19.8-7.7-39.6-11.6-59.3   c-14.2,14-28.4,28-42.5,42C1815.9,612.6,1815.7,639.1,1815.6,665.5z"
   class="st43"
   id="XMLID_115_" />
	<path
   d="M1840.1,596.2c5.7-16.8,11.4-33.6,17.1-50.4c-13.9,13.3-27.9,26.6-41.8,39.9   C1823.6,589.2,1831.8,592.7,1840.1,596.2z"
   class="st44"
   id="XMLID_117_" />
	<path
   d="M1841,606.2c-7.5,18-14.9,36-22.4,54c16.2-19.3,32.4-38.6,48.6-57.9   C1858.5,603.6,1849.7,604.9,1841,606.2z"
   class="st44"
   id="XMLID_118_" />
	<path
   d="M1820,522.2c5.3-4.3,10.7-8.7,16-13c-5.9,11.8-11.8,23.6-17.8,35.5   C1818.8,537.1,1819.4,529.7,1820,522.2z"
   class="st45"
   id="XMLID_119_" />
	<path
   d="M1874.7,532.3c-5.8-6-12.3-11.2-19.5-15.6"
   class="st46"
   id="XMLID_100_" />
	<path
   d="M1902.8,596.6c-0.1-11.8-2.3-23.3-6.3-34"
   class="st46"
   id="XMLID_99_" />
	<path
   d="M1775.3,548.1c4.4,7.2,8.7,14.4,13.1,21.6c1.2-11.3,2.4-22.5,3.6-33.8   C1786.4,540,1780.8,544,1775.3,548.1z"
   class="st47"
   id="XMLID_126_" />
	<path
   d="M1771.6,616.2c11.5,8.4,23.1,16.8,34.6,25.1c-15-25.4-30.1-50.9-45.1-76.3   C1764.6,582.1,1768.1,599.1,1771.6,616.2z"
   class="st48"
   id="XMLID_127_" />
</g>
<circle
   r="19.5"
   cy="717"
   cx="1729.5"
   class="st49"
   id="XMLID_109_" />
<circle
   r="7"
   cy="773"
   cx="1872"
   class="st45"
   id="XMLID_110_" />
<circle
   r="34.7"
   cy="434.4"
   cx="1866"
   class="st50"
   id="XMLID_112_" />
<circle
   r="9.8"
   cy="459.3"
   cx="1778.2"
   class="st51"
   id="XMLID_113_" />
</svg>
