<?xml version="1.0" encoding="UTF-8" standalone="no"?>
<svg
   xmlns:dc="http://purl.org/dc/elements/1.1/"
   xmlns:cc="http://creativecommons.org/ns#"
   xmlns:rdf="http://www.w3.org/1999/02/22-rdf-syntax-ns#"
   xmlns:svg="http://www.w3.org/2000/svg"
   xmlns="http://www.w3.org/2000/svg"
   id="svg244"
   xml:space="preserve"
   style="enable-background:new 0 0 1920 1080;"
   viewBox="0 0 1920 1080"
   y="0px"
   x="0px"
   version="1.1"><metadata
   id="metadata250"><rdf:RDF><cc:Work
       rdf:about=""><dc:format>image/svg+xml</dc:format><dc:type
         rdf:resource="http://purl.org/dc/dcmitype/StillImage" /></cc:Work></rdf:RDF></metadata><defs
   id="defs248" />
<style
   id="style2"
   type="text/css">
	.st0{fill:#161616;}
	.st1{fill:#47463A;}
	.st2{fill:#191919;}
	.st3{fill:#FEF9C5;}
	.st4{fill:none;stroke:#58595B;stroke-width:7;stroke-miterlimit:10;}
	.st5{fill:#58595B;}
	.st6{fill:#DC3126;}
	.st7{fill:#F6F6F5;}
	.st8{opacity:0.75;fill:#DC3126;}
	.st9{fill:#FAFBFB;}
	.st10{font-family:'Exo-Regular';}
	.st11{font-size:52.0397px;}
	.st12{opacity:0.8;}
	.st13{fill:none;stroke:#F1F2F2;stroke-miterlimit:10;}
	.st14{fill:#ECEFF0;stroke:#F1F2F2;stroke-miterlimit:10;}
	.st15{fill:none;瑳潲ke:#E8E73E;stroke-miterlimit:10;}
	.st16{fill:none;stroke:#F6EC13;stroke-miterlimit:10;}
	.st17{fill:none;stroke:#80CBC4;stroke-width:1.7788;stroke-miterlimit:10;}
	.st18{fill:none;stroke:#56C0EE;stroke-miterlimit:10;}
	.st19{fill:none;stroke:#EF4481;stroke-miterlimit:10;}
	.st20{fill:none;stroke:#5CBC6B;stroke-miterlimit:10;}
	.st21{fill:none;stroke:#56C0EE;stroke-width:1.3401;stroke-miterlimit:10;}
	.st22{fill:none;stroke:#71CDDD;stroke-width:1.3401;stroke-miterlimit:10;}
	.st23{fill:none;stroke:#F1F2F2;stroke-width:1.3401;stroke-miterlimit:10;}
	.st24{fill:none;stroke:#71CDDD;stroke-width:1.3401;stroke-linecap:round;stroke-linejoin:round;stroke-miterlimit:10;}
	.st25{fill:none;stroke:#EF4481;stroke-width:1.3401;stroke-miterlimit:10;}
	.st26{fill:none;stroke:#5CBC6B;stroke-miterlimit:10;stroke-dasharray:2.1673,4.3131;}
	.st27{fill:none;stroke:#5CBC6B;stroke-miterlimit:10;stroke-dasharray:2.2122,4.4024;}
	.st28{fill:none;stroke:#FFFFFF;stroke-miterlimit:10;}
	.st29{opacity:0.75;fill:#398BCB;}
	.st30{fill:#398BCB;}
	.st31{fill:#FFFFFF;}
	.st32{opacity:0.75;fill:#1C75BC;}
	.st33{fill:#1C75BC;}
	.st34{opacity:0.75;fill:#F36E21;}
	.st35{fill:#F36E21;}
	.st36{fill:#FBAA19;}
	.st37{font-size:48px;}
</style>
<g
   id="Layer_1">
	<rect
   height="1080"
   width="1920"
   class="st0"
   id="XMLID_391_" />
	<rect
   height="95.9"
   width="1920"
   class="st1"
   y="984.1"
   id="XMLID_878_" />
	<rect
   height="82.4"
   width="1920"
   class="st2"
   y="997.6"
   id="XMLID_393_" />
</g>
<g
   id="Layer_9">
	<polygon
   points="265.3,984.1 150.7,984.1 191.5,718 224.5,718  "
   class="st3"
   id="XMLID_821_" />
	<polygon
   points="1667,984.1 1781.5,984.1 1740.8,718 1707.8,718  "
   class="st3"
   id="XMLID_823_" />
	<path
   d="M97,984.8v-312c0-6.6,5.4-12,12-12h87c6.6,0,12,5.4,12,12v12.9"
   class="st4"
   id="XMLID_892_" />
	<path
   d="M219.5,730.5h-23c-6.6,0-12-5.4-12-12v-23c0-6.6,5.4-12,12-12h23c6.6,0,12,5.4,12,12v23   C231.5,725.1,226.1,730.5,219.5,730.5z"
   class="st5"
   id="XMLID_890_" />
	<path
   d="M1835.3,984.8v-312c0-6.6-5.4-12-12-12h-87c-6.6,0-12,5.4-12,12v12.9"
   class="st4"
   id="XMLID_1068_" />
	<path
   d="M1712.8,730.5h23c6.6,0,12-5.4,12-12v-23c0-6.6-5.4-12-12-12h-23c-6.6,0-12,5.4-12,12v23   C1700.8,725.1,1706.2,730.5,1712.8,730.5z"
   class="st5"
   id="XMLID_891_" />
</g>
<g
   id="Layer_4">
	<g
   id="Layer_5">
	</g>
	<g
   id="Layer_2">
	</g>
	<g
   id="Layer_10">
		<g
   id="XMLID_444_">
			<path
   d="M229.1,518c0-34.1,27.6-61.8,61.6-61.8c34.2,0,61.8,27.7,61.8,61.9     c0,33.9-27.8,61.5-61.9,61.5C256.7,579.6,229.1,551.9,229.1,518z M327.5,520.8c-0.1-7.1,0-13.7-0.5-20.2     c-0.7-10.1-8.4-18.1-18.6-18.8c-11.8-0.8-23.6-0.8-35.4,0c-10,0.7-17.9,8.4-18.6,18.2c-0.8,12.1-0.9,24.1,0,36.2     c0.7,9.7,8.7,17.5,18.3,18.1c12,0.8,23.9,0.8,35.9,0c7.9-0.5,14.8-5.9,17.1-13.4C327.9,534,327.3,527.1,327.5,520.8z"
   class="st6"
   id="XMLID_406_" />
			<path
   d="M327.5,520.8c-0.3,6.3,0.4,13.3-1.6,20c-2.3,7.6-9.2,12.9-17.1,13.4     c-12,0.8-23.9,0.8-35.9,0c-9.6-0.6-17.6-8.4-18.3-18.1c-0.9-12.1-0.8-24.1,0-36.2c0.7-9.8,8.6-17.5,18.6-18.2     c11.8-0.8,23.6-0.8,35.4,0c10.2,0.7,17.9,8.7,18.6,18.8C327.5,507.1,327.4,513.6,327.5,520.8z M320.8,518.1     c0.1-5.5-0.1-11.1-0.4-16.6c-0.4-7.5-5.2-12.7-12.6-13.2c-11.3-0.8-22.7-0.7-34,0c-7.2,0.5-12.2,5.5-12.6,12.6     c-0.7,11.3-0.7,22.7,0,34c0.4,7.1,5.5,12.2,12.6,12.6c11.3,0.7,22.7,0.6,34,0c6.3-0.4,10.8-4.1,12.1-10.2     C321.1,531,320.7,524.6,320.8,518.1z"
   class="st7"
   id="XMLID_403_" />
			<path
   d="M320.8,518.1c-0.1,6.4,0.4,12.9-1,19.3c-1.3,6.1-5.8,9.8-12.1,10.2c-11.3,0.6-22.7,0.7-34,0     c-7-0.4-12.1-5.5-12.6-12.6c-0.7-11.3-0.7-22.7,0-34c0.4-7.1,5.4-12.1,12.6-12.6c11.3-0.7,22.7-0.8,34,0     c7.4,0.5,12.2,5.7,12.6,13.2C320.7,507.1,320.9,512.6,320.8,518.1z M290.6,536.8c10.2,0.1,19-8.6,19-18.7     c0-10.5-8.4-19-18.8-19.1c-10.1-0.1-18.8,8.4-19,18.4C271.6,527.9,280.2,536.7,290.6,536.8z M310.3,502.8c2.5,0,4.4-1.9,4.5-4.3     c0-2.4-2.3-4.6-4.6-4.5c-2.4,0.1-4.2,2.1-4.2,4.5C306,501,307.8,502.8,310.3,502.8z"
   class="st6"
   id="XMLID_399_" />
			<path
   d="M290.6,536.8c-10.5-0.1-19-8.9-18.8-19.4c0.2-10,9-18.5,19-18.4     c10.4,0.1,18.8,8.7,18.8,19.1C309.6,528.3,300.8,536.9,290.6,536.8z M302.8,517.8c-0.2-6.9-5.7-12.2-12.4-11.9     c-6.8,0.3-12,5.7-11.8,12.3c0.2,7,5.5,12.1,12.4,11.9C297.9,529.8,303,524.5,302.8,517.8z"
   class="st7"
   id="XMLID_396_" />
			<path
   d="M310.3,502.8c-2.5,0-4.3-1.8-4.4-4.3c0-2.5,1.8-4.5,4.2-4.5c2.4-0.1,4.7,2.2,4.6,4.5     C314.8,500.9,312.8,502.7,310.3,502.8z"
   class="st7"
   id="XMLID_395_" />
			<path
   d="M302.8,517.8c0.2,6.7-4.9,12.1-11.7,12.3c-6.9,0.2-12.2-4.9-12.4-11.9     c-0.2-6.6,4.9-12.1,11.8-12.3C297.2,505.6,302.6,510.8,302.8,517.8z"
   class="st6"
   id="XMLID_394_" />
			<path
   d="M219.3,518c0-39.4,32-71.5,71.3-71.5c39.6,0,71.5,32,71.5,71.6c0,39.3-32.1,71.2-71.6,71.2     C251.4,589.3,219.3,557.2,219.3,518z M333.3,521.2c-0.1-8.3,0-15.8-0.5-23.4c-0.8-11.7-9.7-21-21.5-21.8     c-13.6-0.9-27.3-0.9-40.9,0c-11.5,0.8-20.7,9.7-21.5,21c-1,14-1,27.9,0,41.9c0.8,11.2,10.1,20.2,21.2,21     c13.9,0.9,27.7,0.9,41.6,0c9.1-0.6,17.1-6.8,19.8-15.6C333.7,536.5,332.9,528.5,333.3,521.2z"
   class="st8"
   id="XMLID_392_" />
		</g>
		<text
   class="st9 st10 st11"
   transform="matrix(1 0 0 1 175.6768 363.6541)"
   id="XMLID_411_">Stay Connected!</text>

	</g>
	<g
   id="Layer_3">
	</g>
	<g
   class="st12"
   id="Layer_8">
	</g>
	<g
   id="Layer_6">
		<g
   id="XMLID_686_">
			<path
   d="M152.8,157.4c0.3-0.2,0.9-0.4,1.7-0.5c0.8,0,1.3,0.2,1.7,0.3"
   class="st13"
   id="XMLID_747_" />
			<path
   d="M140.2,193.2l-9.7-13.7c-1.2-1.7-1.2-3.9,0-4.8l10.4-8"
   class="st13"
   id="XMLID_746_" />
			<path
   d="M159.1,205.1c-2.4,1.6-4.3,2.6-5.1,2.9c-0.7,0.2-1.3,0.2-1.3,0.2c-0.3,0-0.6-0.1-1-0.2     c-1.5-0.5-2.3-1.8-2.5-2c-1.4-2-2.8-3.9-4.2-5.9"
   class="st13"
   id="XMLID_745_" />
			<path
   d="M213.4,209.4c0,0.1,0.1,0.1,0.1,0.2"
   class="st13"
   id="XMLID_744_" />
			<path
   d="M213.6,209.6c0.4,0.5,0.9,1.1,1.5,1.8c0.7,0.6,1.4,1.1,1.9,1.4c0.2,0,0.6,0,1,0     c1.4-0.1,2.4-0.3,3.4-0.6c3.1-0.8,4-0.4,6.2-1.4c0.5-0.2,0.8-0.4,0.8-0.4c1-0.6,2.9-1.6,3-3.2c0.1-1.2-0.8-2.1-0.9-2.2     c-1.2-1.2-3-0.8-3.1-0.8c-1.3,0-2.7,0-4.1,0c-1.4,0-2.7-0.1-4-0.2"
   class="st13"
   id="XMLID_743_" />
			<path
   d="M193.2,229.4c0.3,0.6,0.7,1.4,1.3,2.2c0.6,0.9,1.3,1.5,1.9,2c0.3,0.1,0.7,0.1,1.2,0.2     c1.7,0.3,2.8,0.1,4,0.1c3.7-0.2,4.6,0.4,7.4-0.3c0.6-0.1,1-0.3,1-0.3c1.2-0.4,3.6-1.2,4.2-3c0.4-1.3-0.4-2.6-0.5-2.7     c-1.1-1.7-3.2-1.6-3.3-1.6c-1.5-0.3-3.1-0.6-4.7-0.9c-1.5-0.3-3-0.7-4.5-1"
   class="st13"
   id="XMLID_742_" />
			<path
   d="M186.3,182.8c1,0.1,2,0.2,3.1,0.3c8.6,0.9,12.9,1.4,14.6,4.4c1.3,2.4,0.7,6.1-1.2,7.8     c-1.5,1.4-3.8,1.5-8.5,1.9c-1,0.1-1.7,0.1-3.1,0.1c-4.6,0.1-7.7-0.1-9.2-0.2c-0.9-0.1-1.6-0.1-2.2-0.2"
   class="st13"
   id="XMLID_741_" />
			<path
   d="M161.3,203c-1.1-0.9-1.7-1.6-2.1-2.1"
   class="st13"
   id="XMLID_734_" />
			<path
   d="M175.4,193c1.8,1.4,2.6,2.2,2.6,2.2c6,6,9,9,8.5,11.6c-0.6,2.9-3.5,5.9-6.2,6.6     c-2.1,0.5-4-0.6-8-2.7c-0.8-0.4-1.4-0.8-2.5-1.5c-2.1-1.3-3.8-2.5-5-3.4"
   class="st13"
   id="XMLID_733_" />
			<path
   d="M174.8,164.2c-1.9-1.1-3.5-2-4.8-2.8c-1.6-1-6.4-3.9-11.4-4.5c-0.3,0-1-0.1-1.8,0.2     c-0.1,0-0.2,0.1-0.3,0.1"
   class="st13"
   id="XMLID_732_" />
			<path
   d="M174.8,164.2c-1,1.3-1.9,2.7-2.9,4c-0.1,0.3-0.3,0.7-0.5,1.1"
   class="st13"
   id="XMLID_731_" />
			<path
   d="M182.5,153.5c-2.6,3.6-5.1,7.1-7.7,10.7"
   class="st13"
   id="XMLID_730_" />
			<path
   d="M175.1,175.1c1,0.3,2.1,0.4,3.1,0.1c1.2-0.4,1.9-1.3,2.2-1.8c2.7-3.8,4.1-6.2,5.9-9.2     c1.6-2.7,3.1-4.7,4-7.4"
   class="st13"
   id="XMLID_729_" />
			<path
   d="M138.6,170.7c-0.1-0.1,0-0.3,0.2-0.6"
   class="st13"
   id="XMLID_728_" />
			<path
   d="M157.4,198.3c-0.3-0.3-0.6-0.6-0.9-0.9"
   class="st13"
   id="XMLID_727_" />
			<path
   d="M175.2,175.7c0.6,0.9,1.3,2,2.1,3.2c0.3,0.4,0.7,1,1.2,1.9"
   class="st13"
   id="XMLID_726_" />
			<path
   d="M161.4,196c-1.2,0.8-2.6,1.6-4,2.4c0.2,0.4,0.4,0.8,0.7,1.3c0.3,0.5,0.7,0.9,1,1.2     c3.9-2.5,7-4.7,9.3-6.5"
   class="st13"
   id="XMLID_725_" />
			<path
   d="M178.5,180.7c-0.7,1-1.5,2.2-2.6,3.5"
   class="st13"
   id="XMLID_724_" />
			<path
   d="M169,194.4c0,0.2,0.7,4.3-2.3,6.9c-2.3,2-5.8,2.3-8.7,0.7c-0.6,0.4-1.3,0.9-1.9,1.3     c1,0.7,2,1.3,3,2c0.5,0.2,4.7,1.9,8.7-0.4c3.6-2.1,5.4-6.6,4.4-11.1"
   class="st13"
   id="XMLID_723_" />
			<path
   d="M157.7,187.6c0-0.1,0.1-0.2,0.2-0.4c0,0,0.2-0.6,0.4-1.2c0.1-0.6,0.2-3.2-0.5-6.5     c-0.1,0.1-0.3,0.2-0.5,0.4c-0.4,0.3-1.1,0.8-1.9,0.6c-0.2,0-0.5-0.2-0.9-0.6c0.8,2.4,1,4.3,0.9,5.3c-0.1,0.5-0.2,1-0.2,1     c-0.2,0.9-0.5,1.6-0.7,2.1C155.5,188,156.6,187.8,157.7,187.6z"
   class="st13"
   id="XMLID_722_" />
			<path
   d="M165,186.1l-20.7,4c-0.6,0.2-1.7,0.6-2.5,1.6c-1.8,2.4-0.7,6.7,2.2,8     c1.2,0.5,2.3,0.4,3,0.3l9.6-2.7"
   class="st13"
   id="XMLID_720_" />
			<line
   y2="194.6"
   x2="166.3"
   y1="197.4"
   x1="156.6"
   class="st13"
   id="XMLID_719_" />
			<path
   d="M129,158.2c-0.4-1.2-0.8-2.7-0.7-4.3c0.2-4.9,4.1-7.7,5.7-8.9c3-2.2,7-3.4,9.7-2.6     c2.2,0.6,4.3,2,4.3,2c0.2,0.2,0.4,0.3,0.5,0.4"
   class="st13"
   id="XMLID_718_" />
			<path
   d="M153.3,155.8c-0.2,0.9-0.6,1.6-0.9,2.2c-0.4,0.8-1.5,3-4,4.9c-4.2,3.4-9.2,3.6-11,3.1     c-1.9-0.5-3.5-1.6-3.5-1.6"
   class="st13"
   id="XMLID_717_" />
			<path
   d="M153.6,155.3c0,0-0.1,0.5-0.4,1c-1.1,2-3.2,3.7-3.2,3.7s-4.4,3.6-7.9,4.7     c-0.4,0.1-1,0.2-1.6,0.1c0,0-0.4-0.1-0.9-0.3c-2.1-1-5.9-6.2-6.8-8.5c-0.1-0.2-0.1-0.4-0.2-0.8c0-1,0.5-1.6,0.6-1.8     c0.1-0.1,0.2-0.2,0.3-0.3"
   class="st13"
   id="XMLID_716_" />
			<path
   d="M153.6,155.3c-1.2,2.1-3.4,3.8-3.4,3.8s-4.6,3.7-8.2,4.8c-0.3,0.1-0.9,0.3-1.6,0.1     c-0.4-0.1-0.6-0.2-0.9-0.4c-2-1.3-5.6-6.2-6.3-8.5c-0.1-0.2-0.1-0.4-0.1-0.8c0-1,0.6-1.6,0.7-1.8c1.9-1.9,4.3-3.9,7.2-5.8     c1.6-1.1,3.1-1.9,4.6-2.7c0.3-0.1,0.8-0.2,1.3-0.1c0.4,0.1,0.7,0.3,0.9,0.4c2.1,1.4,3.7,3.6,3.7,3.6s2.9,3.9,2.7,5.7     c0,0.3-0.1,0.6-0.1,0.6S153.9,154.8,153.6,155.3z"
   class="st13"
   id="XMLID_715_" />
			<path
   d="M140.5,166.3c0.3,0.3,0.6,0.6,0.9,0.9c0.7-0.1,1.7-0.3,2.7-0.7c0.8-0.3,2.5-0.9,4.4-2.2     c1.3-0.9,2.6-1.8,3.6-3.5c0.5-0.7,0.7-1.4,0.9-1.9c-0.1-0.3-0.3-0.5-0.4-0.8c-0.3,0.5-0.8,1.2-1.3,1.9c-1.1,1.4-2.1,2.3-2.4,2.5     c-0.9,0.7-2.7,2.2-5.5,3.1C142.3,166,141.3,166.2,140.5,166.3z"
   class="st13"
   id="XMLID_714_" />
			<path
   d="M185.2,203.2c0.1,0,0.3,0.1,0.5,0.2c0.1,0.1,0.1,0.1,0.2,0.1c0.8,0.7,3.2,3,7.3,8.6     c0.3,0.3,0.2,0.3,0.4,0.6c2.1,2.9,4,5.3,6.2,8.5c1.1,1.6,1.4,2.1,1.3,2.9c-0.1,0.6-0.5,1.3-2.8,2.8c-2.8,1.8-4.2,2.7-5.2,2.6     c-1-0.1-1.3-0.6-5.5-4.6c-1.3-1.2-1.5-1.4-1.8-1.7c0,0-0.2-0.2-0.4-0.4c-0.4-0.4-4-4.4-9-10"
   class="st13"
   id="XMLID_713_" />
			<path
   d="M219.3,203.8c0,0.4,0,1-0.8,1.9c-0.3,0.4-0.8,0.9-1.4,1.5c-1.5,1.5-2.2,2.3-2.5,2.4     c-0.4,0.1-1.4,0.3-6.8-3.7c-1.3-0.9-2.2-1.7-2.2-1.7c-3.6-3-6.3-5.3-8.2-7.3"
   class="st13"
   id="XMLID_712_" />
			<path
   d="M202.5,185.9c0.9,0.4,1.4,1,1.6,1.2c2.7,2.8,4.9,4.9,6.5,6.3c0,0,3.6,3.4,5.9,6.3     c0.2,0.2,0.2,0.2,0.3,0.4c0.2,0.2,0.7,1,0.7,1c1.1,1.5,1.7,2.3,1.7,2.8"
   class="st13"
   id="XMLID_711_" />
			<path
   d="M190.2,157.2c0.1-0.4,0.3-0.7,0.4-0.9c0-0.1,0.1-0.2,0.3-0.5c0.1-0.2,0.1-0.2,0.2-0.3     c0.4-0.7,0.8-1.2,1-1.5c0,0,3.4-4.5,3.1-6.5c0-0.1,0-0.1,0-0.2c-0.5-3.3-3.3-6.8-4.9-6.5c-1,0.2-0.8,1.8-3,5.6     c-0.5,0.9-1,1.7-1.4,2.2c-0.1-0.1-0.2-0.2-0.3-0.3c-0.1-0.2-0.1-0.3,0-0.8c0.1-0.5,0.1-0.7,0.1-0.7c0.4-1.3,0.8-1.7,0.6-2.1     c-0.1-0.2-0.4-0.3-0.6-0.3c-0.2,0-0.4,0.2-0.6,0.4c-0.2,0.2-0.6,0.4-0.8,0.6c-0.8,1-1.4,2.2-1.6,3.4c-0.1,0.3-0.1,0.6-0.1,0.9     c0,0.1,0,0.2,0,0.3c0.1,0.3,0.1,0.5,0.2,0.6c0.4,0.9,0.3,1.6,0.3,1.7l0,0c-0.2,0.5-0.4,0.9-0.6,1.4"
   class="st13"
   id="XMLID_710_" />
			<path
   d="M142,172.1"
   class="st14"
   id="XMLID_709_" />
			<path
   d="M138.6,170.2c0.8-0.9,1.7-1.8,2.5-2.7c0.9-0.3,2.6-0.9,4.9-0.6c2.3,0.3,3.9,1.2,4.7,1.7     c-0.4,0.3-0.7,0.6-1.1,1.1c-0.4,0.5-0.8,0.9-1.1,1.4c-1-0.6-3.2-1.8-6.3-1.6C140.7,169.5,139.5,169.8,138.6,170.2z"
   class="st13"
   id="XMLID_708_" />
			<path
   d="M154,158.5c0.6-0.4,1.2-0.8,1.9-1.2c0.7-0.1,1.9-0.1,3.4,0.5c1.6,0.6,2.5,1.6,3,2.1     c-0.6,0.5-1.3,1-1.9,1.5c-0.4-0.5-1.3-1.5-2.7-2.1C156.1,158.5,154.7,158.5,154,158.5z"
   class="st13"
   id="XMLID_707_" />
			<path
   d="M169.4,170.2l-12.6,9.8c-0.7,0.6-1.8,0.4-2.4-0.3l-5.6-7.2c-0.6-0.7-0.4-1.8,0.3-2.4     l12.6-9.8"
   class="st13"
   id="XMLID_706_" />
			<path
   d="M170.9,168.9c0.7,0.5,1.5,1.2,2.3,2.2c1.4,1.8,1.9,3.6,2.1,4.7c-0.7-0.9-1.7-2.1-2.9-3.2     c-1.1-1-2.2-1.7-3.1-2.3"
   class="st13"
   id="XMLID_705_" />
			<path
   d="M170.4,169.4l-12.3,9.5c-0.8,0.6-1.9,0.4-2.5-0.4l-5.5-7.1c-0.6-0.8-0.5-1.9,0.3-2.5     l12-9.3c0.8-0.6,1.9-0.5,2.5,0.3l5.8,6.9C171.3,167.7,171.2,168.8,170.4,169.4z"
   class="st13"
   id="XMLID_704_" />
			<path
   d="M186.3,182.7c0.2,0.1,0.2,0.1,0.2,0.2c-0.1,0.2-2.5-0.8-5.1-0.7c-1.6,0.1-2.8,0.5-3.6,0.9     c0.2-0.8,0.5-1.6,0.7-2.4c0.9-0.2,2.2-0.3,3.7,0c1.3,0.3,2.3,0.8,2.7,1C185.5,182,185.9,182.4,186.3,182.7z"
   class="st13"
   id="XMLID_703_" />
			<path
   d="M134,164.3c0.2-0.1,0.5-0.3,0.7-0.6c0.9-1.4-0.6-3.6-0.8-3.9c-0.9-1.3-2.7-2.9-3.9-2.3     c-0.3,0.1-0.5,0.4-0.6,0.6"
   class="st13"
   id="XMLID_702_" />
			<path
   d="M133.8,164.3c0.8-0.9-0.1-2.9-0.8-3.9c-0.9-1.3-2.7-2.9-3.9-2.3"
   class="st13"
   id="XMLID_701_" />
			<path
   d="M133.7,164.4c0,0,0.1-0.1,0.1-0.1"
   class="st13"
   id="XMLID_700_" />
			<path
   d="M129.2,158.1c-1.2,0.6-1.5,3.2-0.3,4.9c1.2,1.7,3.9,2.3,4.8,1.4"
   class="st13"
   id="XMLID_699_" />
			<path
   d="M150.3,189c-0.1-1.9-0.3-3.9-0.6-6c-0.5-3.6-1.1-6.8-1.8-9.8c-0.1-0.3-0.2-0.8-0.5-1.3     c-0.2-0.5-0.6-1-1.1-1.4c-1.5-1.3-6.6-1.8-9.2,1.2c-0.3,0.3-0.9,1.1-1.3,2.5c-0.9,3.1,0.4,4.7,1.9,10.7c0,0,1.5,6,3.3,11"
   class="st13"
   id="XMLID_698_" />
			<path
   d="M172.6,183.3"
   class="st13"
   id="XMLID_697_" />
			<path
   d="M165,184.8"
   class="st13"
   id="XMLID_696_" />
			<path
   d="M175.8,184.1c-0.3,0.2-0.6,0.3-1,0.5c-1.2,0.7-2.2,1.3-3.6,1.2c-0.5,0-0.9-0.1-1.2-0.2     c0.3-0.8,0.7-1.2,1-1.4c1-0.7,1.8-0.6,1.9-0.9c0.1-0.3-0.5-0.7-0.8-0.9c-0.4-0.2-0.7-0.2-1-0.2c-1.2,0-2.5,0.3-3.5,0.9     c-0.3,0.1-0.5,0.3-0.7,0.5c-0.2,0.2-0.3,0.5-0.5,0.7c-0.2,0.3-0.5,0.9-0.8,1.3c0,0-0.1,0.1-0.2,0.2c-0.2,0.1-0.3,0.2-0.5,0.2"
   class="st13"
   id="XMLID_695_" />
			<path
   d="M172.3,193.7c2.1-0.4,3.5-0.8,4.8-1.6c0.9-0.6,2.7-2.1,3.9-5.1c0.1-0.4,0.2-1.1,0-2.1     c-0.1-0.4-0.4-1.8-1.4-2.3c-0.4-0.2-0.8-0.2-3.8,1.5"
   class="st13"
   id="XMLID_694_" />
			<path
   d="M166.2,194.6c0.9-0.1,2.3-0.2,4-0.5c0.8-0.1,1.5-0.3,2.1-0.4"
   class="st13"
   id="XMLID_687_" />
		</g>
		<g
   id="XMLID_581_">
			<circle
   r="12.1"
   cy="293.4"
   cx="84.9"
   class="st15"
   id="XMLID_572_" />
			<circle
   r="8"
   cy="293.4"
   cx="84.9"
   class="st15"
   id="XMLID_571_" />
		</g>
		<g
   id="XMLID_667_">
			<path
   d="M958.5,446.1c0.4,1.3,0.9,3.1,1.4,5.2"
   class="st16"
   id="XMLID_660_" />
			<path
   d="M952.1,446.7c1.2-0.7,2.4-1.4,3.6-2.1"
   class="st16"
   id="XMLID_659_" />
			<path
   d="M959.9,451.2c3.5,14.2,8.2,44.2-9.3,62.2c-0.8,0.9-16,16-27.7,11     c-11.7-5.1-11-26.5-11-27.7c1.1-25.9,27.8-43.3,40.2-50"
   class="st16"
   id="XMLID_658_" />
			<circle
   r="8.9"
   cy="509"
   cx="929.6"
   class="st16"
   id="XMLID_657_" />
			<path
   d="M961,455.8c-0.3-1.6-0.7-3.2-1-4.5"
   class="st16"
   id="XMLID_656_" />
			<path
   d="M963.1,471.1c4,1.7,9.1-3.4,9.4-3.7c7.5-7.7,3-22,2.4-23.6c-1.3,0.6-10.2,4.8-13.9,12"
   class="st16"
   id="XMLID_655_" />
			<path
   d="M934.3,458.6c-10.9,9-21.7,21.9-22.3,38.1c0,0,0,0,0,0.1c6.9-4.1,15.6-5,23.6-1.5     c8,3.4,13.3,10.4,15,18.3c0,0,0,0,0,0c11.3-11.6,13.4-28.2,12.5-42.3"
   class="st16"
   id="XMLID_654_" />
			<path
   d="M947.5,449.3c2.3-7.5-0.5-16.5-0.9-17.8c-1.6,0.7-15.1,7.2-15.6,17.9     c0,0.4-0.2,7.1,3.3,9.2"
   class="st16"
   id="XMLID_653_" />
			<path
   d="M952.1,446.7c-1.4,0.7-2.9,1.6-4.6,2.6"
   class="st16"
   id="XMLID_652_" />
			<path
   d="M965.5,441.9c2.9-0.9,5.3-3,5.5-3.2c8.3-7.4,1.8-22.5,1-24.2c-1.8,0.6-17.3,6.2-17,17.3     c0,0.2,0.1,2.4,0.9,4.7"
   class="st16"
   id="XMLID_651_" />
			<path
   d="M959.7,440.3c-1.4,9.6-4.5,16.2-7.1,20.6c-0.5,0.8-3.9,6.5-5,6c-1.1-0.5,0.8-7.1,1-7.8     c1-3.6,3-8.6,6.7-14.1C956.7,443.5,958.2,441.9,959.7,440.3z"
   class="st16"
   id="XMLID_650_" />
			<path
   d="M964.1,439.1c1.9-0.8,3.5-2.4,3.7-2.6c5.6-5.8,2.2-16.5,1.8-17.7     c-1.2,0.6-11.3,5.4-11.7,13.5c0,0.2-0.1,1.7,0.3,3.4"
   class="st16"
   id="XMLID_649_" />
		</g>
		<g
   id="XMLID_1427_">
			<circle
   r="55.9"
   cy="494.5"
   cx="1826.2"
   class="st17"
   id="XMLID_693_" />
			<circle
   r="49"
   cy="494.5"
   cx="1826.2"
   class="st17"
   id="XMLID_692_" />
			
				<ellipse
   ry="7.7"
   rx="15.2"
   cy="473.2"
   cx="1808.9"
   class="st17"
   transform="matrix(1 -7.049150e-004 7.049150e-004 1 -0.3331 1.2752)"
   id="XMLID_691_" />
			
				<ellipse
   ry="4.7"
   rx="9.1"
   cy="480.9"
   cx="1846"
   class="st17"
   transform="matrix(1 -7.049150e-004 7.049150e-004 1 -0.3385 1.3014)"
   id="XMLID_690_" />
			
				<ellipse
   ry="5.2"
   rx="9.4"
   cy="499.7"
   cx="1794.9"
   class="st17"
   transform="matrix(1 -7.049150e-004 7.049150e-004 1 -0.3518 1.2654)"
   id="XMLID_689_" />
			<ellipse
   ry="1.9"
   rx="3.5"
   cy="513"
   cx="1820.7"
   class="st17"
   id="XMLID_688_" />
		</g>
		<path
   d="M973.5,659.9c3.9-5.4,7.8-10.8,11.7-16.2c-5.4,3.9-10.8,7.8-16.2,11.7    c-1.2,1.2-1.2,3.2,0,4.5C970.3,661.1,972.3,661.1,973.5,659.9z"
   class="st16"
   id="XMLID_721_" />
		<path
   d="M1493.7,650.5c7.3-10.1,14.6-20.1,21.9-30.2c-10.1,7.3-20.1,14.6-30.2,21.9    c-2.3,2.3-2.3,6,0,8.3C1487.7,652.8,1491.4,652.8,1493.7,650.5z"
   class="st18"
   id="XMLID_735_" />
		<path
   d="M1602.6,99.7c7.3-10.1,14.6-20.1,21.9-30.2c-10.1,7.3-20.1,14.6-30.2,21.9    c-2.3,2.3-2.3,6,0,8.3S1600.3,102,1602.6,99.7z"
   class="st13"
   id="XMLID_736_" />
		<g
   id="XMLID_554_">
			<circle
   r="9.4"
   cy="768.5"
   cx="1175.3"
   class="st19"
   id="XMLID_566_" />
			<circle
   r="15.9"
   cy="768.5"
   cx="1175.3"
   class="st19"
   id="XMLID_555_" />
			<circle
   r="22.3"
   cy="768.5"
   cx="1175.3"
   class="st19"
   id="XMLID_564_" />
		</g>
		<path
   d="M1019,274.2c7.3-10.1,14.6-20.1,21.9-30.2c-10.1,7.3-20.1,14.6-30.2,21.9    c-2.3,2.3-2.3,6,0,8.3C1013,276.5,1016.8,276.5,1019,274.2z"
   class="st18"
   id="XMLID_738_" />
		<path
   d="M1133,75.2c5-6.9,10-13.8,15-20.7c-6.9,5-13.8,10-20.7,15c-1.6,1.6-1.6,4.1,0,5.7    C1128.8,76.8,1131.4,76.8,1133,75.2z"
   class="st19"
   id="XMLID_739_" />
		<path
   d="M1575.7,382.4c5-6.9,10-13.8,15-20.7c-6.9,5-13.8,10-20.7,15c-1.6,1.6-1.6,4.1,0,5.7    C1571.6,384,1574.2,384,1575.7,382.4z"
   class="st13"
   id="XMLID_737_" />
		<path
   d="M91,479.2l1.7,3.2c0,0,0.1,0.1,0.1,0.1l3.1,1.8c0.2,0.1,0.2,0.4,0,0.5l-3.1,1.8    c0,0-0.1,0.1-0.1,0.1l-1.7,3.2c-0.1,0.2-0.4,0.2-0.5,0l-1.7-3.2c0,0-0.1-0.1-0.1-0.1l-3.1-1.8c-0.2-0.1-0.2-0.4,0-0.5l3.1-1.8    c0,0,0.1-0.1,0.1-0.1l1.7-3.2C90.6,479,90.9,479,91,479.2z"
   class="st19"
   id="XMLID_754_" />
		<path
   d="M1563.8,757.6l1.7,3.2c0,0,0.1,0.1,0.1,0.1l3.1,1.8c0.2,0.1,0.2,0.4,0,0.5l-3.1,1.8    c0,0-0.1,0.1-0.1,0.1l-1.7,3.2c-0.1,0.2-0.4,0.2-0.5,0l-1.7-3.2c0,0-0.1-0.1-0.1-0.1l-3.1-1.8c-0.2-0.1-0.2-0.4,0-0.5l3.1-1.8    c0,0,0.1-0.1,0.1-0.1l1.7-3.2C1563.5,757.4,1563.7,757.4,1563.8,757.6z"
   class="st18"
   id="XMLID_768_" />
		<path
   d="M1348.6,704.3l1.7,3.2c0,0,0.1,0.1,0.1,0.1l3.1,1.8c0.2,0.1,0.2,0.4,0,0.5l-3.1,1.8    c0,0-0.1,0.1-0.1,0.1l-1.7,3.2c-0.1,0.2-0.4,0.2-0.5,0l-1.7-3.2c0,0-0.1-0.1-0.1-0.1l-3.1-1.8c-0.2-0.1-0.2-0.4,0-0.5l3.1-1.8    c0,0,0.1-0.1,0.1-0.1l1.7-3.2C1348.2,704.2,1348.5,704.2,1348.6,704.3z"
   class="st18"
   id="XMLID_769_" />
		<path
   d="M1111.4,345.4l1.1,2.2c0,0,0,0.1,0.1,0.1l2.1,1.2c0.1,0.1,0.1,0.2,0,0.3l-2.1,1.2    c0,0-0.1,0-0.1,0.1l-1.1,2.2c-0.1,0.1-0.3,0.1-0.3,0l-1.1-2.2c0,0,0-0.1-0.1-0.1l-2.1-1.2c-0.1-0.1-0.1-0.2,0-0.3l2.1-1.2    c0,0,0.1,0,0.1-0.1l1.1-2.2C1111.1,345.3,1111.3,345.3,1111.4,345.4z"
   class="st13"
   id="XMLID_773_" />
		<circle
   r="3.1"
   cy="406.7"
   cx="1708.7"
   class="st20"
   id="XMLID_775_" />
		<circle
   r="3.3"
   cy="630.1"
   cx="56.8"
   class="st13"
   id="XMLID_776_" />
		<circle
   r="8.7"
   cy="153.1"
   cx="748.5"
   class="st18"
   id="XMLID_777_" />
		<circle
   r="3.3"
   cy="198.9"
   cx="871.3"
   class="st20"
   id="XMLID_778_" />
		<circle
   r="3.5"
   cy="334.5"
   cx="1293"
   class="st20"
   id="XMLID_779_" />
		<circle
   r="3.7"
   cy="221.6"
   cx="1499.6"
   class="st18"
   id="XMLID_780_" />
		<circle
   r="2.2"
   cy="54"
   cx="93"
   class="st19"
   id="XMLID_782_" />
		<circle
   r="1.7"
   cy="610.2"
   cx="1726.5"
   class="st13"
   id="XMLID_784_" />
		<circle
   r="2.4"
   cy="54.3"
   cx="1810"
   class="st16"
   id="XMLID_786_" />
		<circle
   r="1.1"
   cy="80.4"
   cx="265.3"
   class="st13"
   id="XMLID_553_" />
		<path
   d="M631,177.4c-22.7,15.2-49.5,29.5-79.2,41.7c-21.5,8.8-42.8,15.7-63,20.7"
   class="st21"
   id="XMLID_685_" />
		<path
   d="M636.8,148.2c-24.4,19.3-57.4,38.3-95.4,53.8c-28,11.5-55.5,19.6-80.4,24.5"
   class="st21"
   id="XMLID_684_" />
		<path
   d="M488.7,239.8c-74.2,18.5-135.4,11.9-148.4-19.9c-10.9-26.7,14.8-64.4,62.3-98.7"
   class="st22"
   id="XMLID_683_" />
		<path
   d="M461,226.5c-54.6,10.6-96.8,5.1-105.9-17.3c-7.9-19.4,10.7-47.1,46-74.1"
   class="st22"
   id="XMLID_682_" />
		<path
   d="M441.4,229.7c-24.8-21.6-40.4-53.4-40.4-88.9c0-65.1,52.8-117.9,117.9-117.9    c65.1,0,117.9,52.8,117.9,117.9c0,2.5-0.1,4.9-0.2,7.4"
   class="st23"
   id="XMLID_681_" />
		<path
   d="M631,177.4c-15.4,47.2-59.8,81.4-112.1,81.4c-18.1,0-35.1-5.3-35.1-5.3    c-8.4-2.6-15.1-5.7-19.7-8.2"
   class="st23"
   id="XMLID_680_" />
		<path
   d="M461,226.5c-27.5-18.6-45.5-50-45.5-85.7c0-57.1,46.3-103.4,103.4-103.4    c57.1,0,103.4,46.3,103.4,103.4c0,6.6-0.6,13.1-1.8,19.4"
   class="st22"
   id="XMLID_679_" />
		<path
   d="M609.8,190.1c-17.5,32.2-51.7,54.1-90.9,54.1c-10.5,0-20.6-1.6-30.1-4.5"
   class="st22"
   id="XMLID_678_" />
		<path
   d="M587.6,45c59-9.2,104.7-0.4,115.7,26.6c11.6,28.5-18.5,69.6-72.4,105.7"
   class="st22"
   id="XMLID_677_" />
		<path
   d="M600.2,55.5c41.3-4.2,71.6,2.7,79.2,21.3c7.7,18.8-9.6,45.3-42.7,71.4"
   class="st22"
   id="XMLID_676_" />
		<path
   d="M491.6,80.4c-5.4,2.4-10.9,4.8-16.6,7.1c-14,5.7-27.8,10.6-41.3,14.7"
   class="st24"
   id="XMLID_675_" />
		<path
   d="M533.1,54c-7.1,3.9-14.6,7.7-22.4,11.4"
   class="st24"
   id="XMLID_674_" />
		<path
   d="M518.8,98.7c-9.8,4.9-20.2,9.5-30.9,13.9c-22.6,9.2-44.8,16.3-65.6,21.3"
   class="st24"
   id="XMLID_673_" />
		<path
   d="M571.7,59.7c-5.9,4.3-12.2,8.5-18.9,12.7"
   class="st24"
   id="XMLID_672_" />
		<path
   d="M476.6,153.6c-15.6,6-30.7,10.9-45.1,14.6"
   class="st24"
   id="XMLID_671_" />
		<path
   d="M563.9,97.3c-8.2,4.9-16.7,9.7-25.6,14.2c-11.2,5.8-22.3,11-33.3,15.6"
   class="st24"
   id="XMLID_670_" />
		<path
   d="M602.2,79.7c-4.1,3.2-8.3,6.3-12.7,9.5"
   class="st24"
   id="XMLID_669_" />
		<path
   d="M521.9,185.5c-28.3,10.9-55.8,18.6-80.8,23"
   class="st24"
   id="XMLID_668_" />
		<path
   d="M614.6,121.1c-18.9,13.2-41.1,25.9-65.4,37.2"
   class="st24"
   id="XMLID_666_" />
		<path
   d="M523,148.5c-6.2,3.5-12.8,7-19.8,10.3"
   class="st24"
   id="XMLID_665_" />
		<path
   d="M573.8,177.4c-6.2,3.5-12.8,7-19.8,10.3"
   class="st24"
   id="XMLID_664_" />
		<path
   d="M1198.3,184.1l1.5,2.9c0,0,0.1,0.1,0.1,0.1l2.8,1.6c0.2,0.1,0.2,0.3,0,0.4l-2.8,1.6    c0,0-0.1,0.1-0.1,0.1l-1.5,2.9c-0.1,0.2-0.3,0.2-0.4,0l-1.5-2.9c0,0-0.1-0.1-0.1-0.1l-2.8-1.6c-0.2-0.1-0.2-0.3,0-0.4l2.8-1.6    c0,0,0.1-0.1,0.1-0.1l1.5-2.9C1198,183.9,1198.2,183.9,1198.3,184.1z"
   class="st25"
   id="XMLID_774_" />
		<circle
   r="1.8"
   cy="69.5"
   cx="920.8"
   class="st13"
   id="XMLID_549_" />
		<circle
   r="2.8"
   cy="298.8"
   cx="1838.1"
   class="st13"
   id="XMLID_547_" />
		<circle
   r="1.1"
   cy="89.2"
   cx="1377.3"
   class="st18"
   id="XMLID_546_" />
		<g
   id="XMLID_646_">
			<path
   d="M1753.4,183.5c-0.3-0.2-0.9-0.4-1.7-0.5c-0.8,0-1.3,0.2-1.7,0.3"
   class="st13"
   id="XMLID_837_" />
			<path
   d="M1766,219.2l9.7-13.7c1.2-1.7,1.2-3.9,0-4.8l-10.4-8"
   class="st13"
   id="XMLID_836_" />
			<path
   d="M1747.1,231.1c2.4,1.6,4.3,2.6,5.1,2.9c0.7,0.2,1.3,0.2,1.3,0.2c0.3,0,0.6-0.1,1-0.2     c1.5-0.5,2.3-1.8,2.5-2c1.4-2,2.8-3.9,4.2-5.9"
   class="st13"
   id="XMLID_835_" />
			<path
   d="M1692.7,235.4c0,0.1-0.1,0.1-0.1,0.2"
   class="st13"
   id="XMLID_834_" />
			<path
   d="M1692.6,235.6c-0.4,0.5-0.9,1.1-1.5,1.8c-0.7,0.6-1.4,1.1-1.9,1.4c-0.2,0-0.6,0-1,0     c-1.4-0.1-2.4-0.3-3.4-0.6c-3.1-0.8-4-0.4-6.2-1.4c-0.5-0.2-0.8-0.4-0.8-0.4c-1-0.6-2.9-1.6-3-3.2c-0.1-1.2,0.8-2.1,0.9-2.2     c1.2-1.2,3-0.8,3.1-0.8c1.3,0,2.7,0,4.1,0c1.4,0,2.7-0.1,4-0.2"
   class="st13"
   id="XMLID_833_" />
			<path
   d="M1713,255.4c-0.3,0.6-0.7,1.4-1.3,2.2c-0.6,0.9-1.3,1.5-1.9,2c-0.3,0.1-0.7,0.1-1.2,0.2     c-1.7,0.3-2.8,0.1-4,0.1c-3.7-0.2-4.6,0.4-7.4-0.3c-0.6-0.1-1-0.3-1-0.3c-1.2-0.4-3.6-1.2-4.2-3c-0.4-1.3,0.4-2.6,0.5-2.7     c1.1-1.7,3.2-1.6,3.3-1.6c1.5-0.3,3.1-0.6,4.7-0.9c1.5-0.3,3-0.7,4.5-1"
   class="st13"
   id="XMLID_832_" />
			<path
   d="M1719.9,208.8c-1,0.1-2,0.2-3.1,0.3c-8.6,0.9-12.9,1.4-14.6,4.4c-1.3,2.4-0.7,6.1,1.2,7.8     c1.5,1.4,3.8,1.5,8.5,1.9c1,0.1,1.7,0.1,3.1,0.1c4.6,0.1,7.7-0.1,9.2-0.2c0.9-0.1,1.6-0.1,2.2-0.2"
   class="st13"
   id="XMLID_831_" />
			<path
   d="M1744.9,229c1.1-0.9,1.7-1.6,2.1-2.1"
   class="st13"
   id="XMLID_830_" />
			<path
   d="M1730.8,219c-1.8,1.4-2.6,2.2-2.6,2.2c-6,6-9,9-8.5,11.6c0.6,2.9,3.5,5.9,6.2,6.6     c2.1,0.5,4-0.6,8-2.7c0.8-0.4,1.4-0.8,2.5-1.5c2.1-1.3,3.8-2.5,5-3.4"
   class="st13"
   id="XMLID_829_" />
			<path
   d="M1731.4,190.3c1.9-1.1,3.5-2,4.8-2.8c1.6-1,6.4-3.9,11.4-4.5c0.3,0,1-0.1,1.8,0.2     c0.1,0,0.2,0.1,0.3,0.1"
   class="st13"
   id="XMLID_828_" />
			<path
   d="M1731.4,190.3c1,1.3,1.9,2.7,2.9,4c0.1,0.3,0.3,0.7,0.5,1.1"
   class="st13"
   id="XMLID_827_" />
			<path
   d="M1723.7,179.6c2.6,3.6,5.1,7.1,7.7,10.7"
   class="st13"
   id="XMLID_826_" />
			<path
   d="M1731.1,201.1c-1,0.3-2.1,0.4-3.1,0.1c-1.2-0.4-1.9-1.3-2.2-1.8c-2.7-3.8-4.1-6.2-5.9-9.2     c-1.6-2.7-3.1-4.7-4-7.4"
   class="st13"
   id="XMLID_825_" />
			<path
   d="M1767.5,196.7c0.1-0.1,0-0.3-0.2-0.6"
   class="st13"
   id="XMLID_824_" />
			<path
   d="M1748.7,224.3c0.3-0.3,0.6-0.6,0.9-0.9"
   class="st13"
   id="XMLID_822_" />
			<path
   d="M1731,201.7c-0.6,0.9-1.3,2-2.1,3.2c-0.3,0.4-0.7,1-1.1,1.9"
   class="st13"
   id="XMLID_820_" />
			<path
   d="M1744.7,222c1.2,0.8,2.6,1.6,4,2.4c-0.2,0.4-0.4,0.8-0.7,1.3c-0.3,0.5-0.7,0.9-1,1.2     c-3.9-2.5-7-4.7-9.3-6.5"
   class="st13"
   id="XMLID_819_" />
			<path
   d="M1727.7,206.7c0.7,1,1.5,2.2,2.6,3.5"
   class="st13"
   id="XMLID_818_" />
			<path
   d="M1737.2,220.4c0,0.2-0.7,4.3,2.3,6.9c2.3,2,5.8,2.3,8.7,0.7c0.6,0.4,1.3,0.9,1.9,1.3     c-1,0.7-2,1.3-3,2c-0.5,0.2-4.7,1.9-8.7-0.4c-3.6-2.1-5.4-6.6-4.4-11.1"
   class="st13"
   id="XMLID_817_" />
			<path
   d="M1748.5,213.6c0-0.1-0.1-0.2-0.2-0.4c0,0-0.2-0.6-0.4-1.2c-0.1-0.6-0.2-3.2,0.5-6.5     c0.1,0.1,0.3,0.2,0.5,0.4c0.4,0.3,1.1,0.8,1.9,0.6c0.2,0,0.5-0.2,0.9-0.6c-0.8,2.4-1,4.3-0.9,5.3c0.1,0.5,0.2,1,0.2,1     c0.2,0.9,0.5,1.6,0.7,2.1C1750.7,214,1749.6,213.8,1748.5,213.6z"
   class="st13"
   id="XMLID_816_" />
			<path
   d="M1741.2,212.1l20.7,4c0.6,0.2,1.7,0.6,2.5,1.6c1.8,2.4,0.7,6.7-2.2,8     c-1.2,0.5-2.3,0.4-3,0.3l-9.6-2.7"
   class="st13"
   id="XMLID_815_" />
			<line
   y2="220.6"
   x2="1739.8"
   y1="223.4"
   x1="1749.6"
   class="st13"
   id="XMLID_814_" />
			<path
   d="M1777.1,184.2c0.4-1.2,0.8-2.7,0.7-4.3c-0.2-4.9-4.1-7.7-5.7-8.9c-3-2.2-7-3.4-9.7-2.6     c-2.2,0.6-4.3,2-4.3,2c-0.2,0.2-0.4,0.3-0.5,0.4"
   class="st13"
   id="XMLID_813_" />
			<path
   d="M1752.9,181.8c0.2,0.9,0.6,1.6,0.9,2.2c0.4,0.8,1.5,3,4,4.9c4.2,3.4,9.2,3.6,11,3.1     c1.9-0.5,3.5-1.6,3.5-1.6"
   class="st13"
   id="XMLID_812_" />
			<path
   d="M1752.5,181.3c0,0,0.1,0.5,0.4,1c1.1,2,3.2,3.7,3.2,3.7s4.4,3.6,7.9,4.7     c0.4,0.1,1,0.2,1.6,0.1c0,0,0.4-0.1,0.9-0.3c2.1-1,5.9-6.2,6.8-8.5c0.1-0.2,0.1-0.4,0.2-0.8c0-1-0.5-1.6-0.6-1.8     c-0.1-0.1-0.2-0.2-0.3-0.3"
   class="st13"
   id="XMLID_811_" />
			<path
   d="M1752.5,181.3c1.2,2.1,3.4,3.8,3.4,3.8s4.6,3.7,8.2,4.8c0.3,0.1,0.9,0.3,1.6,0.1     c0.4-0.1,0.6-0.2,0.9-0.4c2-1.3,5.6-6.2,6.3-8.5c0.1-0.2,0.1-0.4,0.1-0.8c0-1-0.6-1.6-0.7-1.8c-1.9-1.9-4.3-3.9-7.2-5.8     c-1.6-1.1-3.1-1.9-4.6-2.7c-0.3-0.1-0.8-0.2-1.3-0.1c-0.4,0.1-0.7,0.3-0.9,0.4c-2.1,1.4-3.7,3.6-3.7,3.6s-2.9,3.9-2.7,5.7     c0,0.3,0.1,0.6,0.1,0.6S1752.2,180.8,1752.5,181.3z"
   class="st13"
   id="XMLID_810_" />
			<path
   d="M1765.6,192.3c-0.3,0.3-0.6,0.6-0.9,0.9c-0.7-0.1-1.7-0.3-2.7-0.7     c-0.8-0.3-2.5-0.9-4.4-2.2c-1.3-0.9-2.6-1.8-3.6-3.5c-0.5-0.7-0.7-1.4-0.9-1.9c0.1-0.3,0.3-0.5,0.4-0.8c0.3,0.5,0.8,1.2,1.3,1.9     c1.1,1.4,2.1,2.3,2.4,2.5c0.9,0.7,2.7,2.2,5.5,3.1C1763.9,192,1764.9,192.2,1765.6,192.3z"
   class="st13"
   id="XMLID_809_" />
			<path
   d="M1720.9,229.2c-0.1,0-0.3,0.1-0.5,0.2c-0.1,0.1-0.1,0.1-0.2,0.1c-0.8,0.7-3.2,3-7.3,8.6     c-0.3,0.3-0.2,0.3-0.4,0.6c-2.1,2.9-4,5.3-6.2,8.5c-1.1,1.6-1.4,2.1-1.3,2.9c0.1,0.6,0.5,1.3,2.8,2.8c2.8,1.8,4.2,2.7,5.2,2.6     c1-0.1,1.3-0.6,5.5-4.6c1.3-1.2,1.5-1.4,1.8-1.7c0,0,0.2-0.2,0.4-0.4c0.4-0.4,4-4.4,9-10"
   class="st13"
   id="XMLID_807_" />
			<path
   d="M1686.9,229.8c0,0.4,0,1,0.8,1.9c0.3,0.4,0.8,0.9,1.4,1.5c1.5,1.5,2.2,2.3,2.5,2.4     c0.4,0.1,1.4,0.3,6.8-3.7c1.3-0.9,2.2-1.7,2.2-1.7c3.6-3,6.3-5.3,8.2-7.3"
   class="st13"
   id="XMLID_806_" />
			<path
   d="M1703.6,211.9c-0.9,0.4-1.4,1-1.6,1.2c-2.7,2.8-4.9,4.9-6.5,6.3c0,0-3.6,3.4-5.9,6.3     c-0.2,0.2-0.2,0.2-0.3,0.4c-0.2,0.2-0.7,1-0.7,1c-1.1,1.5-1.7,2.3-1.7,2.8"
   class="st13"
   id="XMLID_805_" />
			<path
   d="M1716,183.3c-0.1-0.4-0.3-0.7-0.4-0.9c0-0.1-0.1-0.2-0.3-0.5c-0.1-0.2-0.1-0.2-0.2-0.3     c-0.4-0.7-0.8-1.2-1-1.5c0,0-3.4-4.5-3.1-6.5c0-0.1,0-0.1,0-0.2c0.5-3.3,3.3-6.8,4.9-6.5c1,0.2,0.8,1.8,3,5.6     c0.5,0.9,1,1.7,1.4,2.2c0.1-0.1,0.2-0.2,0.3-0.3c0.1-0.2,0.1-0.3,0-0.8c-0.1-0.5-0.1-0.7-0.1-0.7c-0.4-1.3-0.8-1.7-0.6-2.1     c0.1-0.2,0.4-0.3,0.6-0.3c0.2,0,0.4,0.2,0.6,0.4c0.2,0.2,0.6,0.4,0.8,0.6c0.8,1,1.4,2.2,1.6,3.4c0.1,0.3,0.1,0.6,0.1,0.9     c0,0.1,0,0.2,0,0.3c-0.1,0.3-0.1,0.5-0.2,0.6c-0.4,0.9-0.3,1.6-0.3,1.7v0c0.2,0.5,0.4,0.9,0.6,1.4"
   class="st13"
   id="XMLID_802_" />
			<path
   d="M1764.2,198.1"
   class="st14"
   id="XMLID_800_" />
			<path
   d="M1767.6,196.2c-0.8-0.9-1.7-1.8-2.5-2.7c-0.9-0.3-2.6-0.9-4.9-0.6     c-2.3,0.3-3.9,1.2-4.7,1.7c0.4,0.3,0.7,0.6,1.1,1.1c0.4,0.5,0.8,0.9,1.1,1.4c1-0.6,3.2-1.8,6.3-1.6     C1765.5,195.5,1766.7,195.8,1767.6,196.2z"
   class="st13"
   id="XMLID_799_" />
			<path
   d="M1752.2,184.5c-0.6-0.4-1.2-0.8-1.9-1.2c-0.7-0.1-1.9-0.1-3.4,0.5c-1.6,0.6-2.5,1.6-3,2.1     c0.6,0.5,1.3,1,1.9,1.5c0.4-0.5,1.3-1.5,2.7-2.1C1750.1,184.5,1751.5,184.5,1752.2,184.5z"
   class="st13"
   id="XMLID_798_" />
			<path
   d="M1736.8,196.2l12.6,9.8c0.7,0.6,1.8,0.4,2.4-0.3l5.6-7.2c0.6-0.7,0.4-1.8-0.3-2.4     l-12.6-9.8"
   class="st13"
   id="XMLID_797_" />
			<path
   d="M1735.3,194.9c-0.7,0.5-1.5,1.2-2.3,2.2c-1.4,1.8-1.9,3.6-2.1,4.7c0.7-0.9,1.7-2.1,2.9-3.2     c1.1-1,2.2-1.7,3.1-2.3"
   class="st13"
   id="XMLID_796_" />
			<path
   d="M1735.7,195.4l12.3,9.5c0.8,0.6,1.9,0.4,2.5-0.4l5.5-7.1c0.6-0.8,0.5-1.9-0.3-2.5l-12-9.3     c-0.8-0.6-1.9-0.5-2.5,0.3l-5.8,6.9C1734.9,193.7,1735,194.8,1735.7,195.4z"
   class="st13"
   id="XMLID_795_" />
			<path
   d="M1719.9,208.7c-0.2,0.1-0.2,0.1-0.2,0.2c0.1,0.2,2.5-0.8,5.1-0.7c1.6,0.1,2.8,0.5,3.6,0.9     c-0.2-0.8-0.5-1.6-0.7-2.4c-0.9-0.2-2.2-0.3-3.7,0c-1.3,0.3-2.3,0.8-2.7,1C1720.7,208,1720.3,208.4,1719.9,208.7z"
   class="st13"
   id="XMLID_794_" />
			<path
   d="M1772.1,190.3c-0.2-0.1-0.5-0.3-0.7-0.6c-0.9-1.4,0.6-3.6,0.8-3.9c0.9-1.3,2.7-2.9,3.9-2.3     c0.3,0.1,0.5,0.4,0.6,0.6"
   class="st13"
   id="XMLID_793_" />
			<path
   d="M1772.3,190.3c-0.8-0.9,0.1-2.9,0.8-3.9c0.9-1.3,2.7-2.9,3.9-2.3"
   class="st13"
   id="XMLID_789_" />
			<path
   d="M1772.4,190.4c0,0-0.1-0.1-0.1-0.1"
   class="st13"
   id="XMLID_788_" />
			<path
   d="M1777,184.1c1.2,0.6,1.5,3.2,0.3,4.9c-1.2,1.7-3.9,2.3-4.8,1.4"
   class="st13"
   id="XMLID_787_" />
			<path
   d="M1755.9,215c0.1-1.9,0.3-3.9,0.6-6c0.5-3.6,1.1-6.8,1.8-9.8c0.1-0.3,0.2-0.8,0.5-1.3     c0.2-0.5,0.6-1,1.1-1.4c1.5-1.3,6.6-1.8,9.2,1.2c0.3,0.3,0.9,1.1,1.3,2.5c0.9,3.1-0.4,4.7-1.9,10.7c0,0-1.5,6-3.3,11"
   class="st13"
   id="XMLID_766_" />
			<path
   d="M1733.6,209.3"
   class="st13"
   id="XMLID_663_" />
			<path
   d="M1741.1,210.8"
   class="st13"
   id="XMLID_662_" />
			<path
   d="M1730.4,210.2c0.3,0.2,0.6,0.3,1,0.5c1.2,0.7,2.2,1.3,3.6,1.2c0.5,0,0.9-0.1,1.2-0.2     c-0.3-0.8-0.7-1.2-1-1.4c-1-0.7-1.8-0.6-1.9-0.9c-0.1-0.3,0.5-0.7,0.8-0.9c0.4-0.2,0.7-0.2,1-0.2c1.2,0,2.5,0.3,3.5,0.9     c0.3,0.1,0.5,0.3,0.7,0.5c0.2,0.2,0.3,0.5,0.5,0.7c0.2,0.3,0.5,0.9,0.8,1.3c0,0,0.1,0.1,0.2,0.2c0.2,0.1,0.3,0.2,0.5,0.2"
   class="st13"
   id="XMLID_661_" />
			<path
   d="M1733.9,219.7c-2.1-0.4-3.5-0.8-4.8-1.6c-0.9-0.6-2.7-2.1-3.9-5.1c-0.1-0.4-0.2-1.1,0-2.1     c0.1-0.4,0.4-1.8,1.4-2.3c0.4-0.2,0.8-0.2,3.8,1.5"
   class="st13"
   id="XMLID_648_" />
			<path
   d="M1739.9,220.6c-0.9-0.1-2.3-0.2-4-0.5c-0.8-0.1-1.5-0.3-2.1-0.4"
   class="st13"
   id="XMLID_647_" />
		</g>
		<g
   id="XMLID_752_">
			<g
   id="XMLID_565_">
				<g
   id="XMLID_639_">
					<g
   id="XMLID_638_">
						
							<ellipse
   ry="5.1"
   rx="13.8"
   cy="104"
   cx="1232.5"
   class="st20"
   transform="matrix(0.8248 -0.5654 0.5654 0.8248 157.0949 715.0208)"
   id="XMLID_622_" />
						<path
   d="M1258.7,76.1c-0.5-0.6-1.3-0.8-1.7-0.9c-8.5-1.6-17.2,0.3-24.1,2.8        c-0.1-0.2-0.2-0.4-0.3-0.6c-2.3-3.5-11.1-3.3-16.9,0.1c-7.3,4.2-11.6,14-9,17.7c0.1,0.1,0.1,0.2,0.2,0.3        c-7.5,8.5-10.1,16.5-10.4,20.8c0,0.5-0.1,1.3,0.4,2.1c3.3,5.4,24.9,1.3,39.4-8.7C1251.6,99.3,1262.3,80.2,1258.7,76.1z"
   class="st20"
   id="XMLID_621_" />
						<path
   d="M1258.7,76.1c-0.5-0.6-1.3-0.8-1.7-0.9c-8.5-1.6-17.2,0.3-24.1,2.8        c-0.1-0.2-0.2-0.4-0.3-0.6c-2.3-3.5-11.1-3.3-16.9,0.1c-7.3,4.2-11.6,14-9,17.7c0.1,0.1,0.1,0.2,0.2,0.3        c-7.5,8.5-10.1,16.5-10.4,20.8c0,0.5-0.1,1.3,0.4,2.1c3.3,5.4,24.9,1.3,39.4-8.7C1251.6,99.3,1262.3,80.2,1258.7,76.1z"
   class="st20"
   id="XMLID_620_" />
						<g
   id="XMLID_611_">
							<g
   id="XMLID_881_">
								<path
   d="M1255.4,76.6c0.4-0.1,0.7-0.1,1.1-0.2"
   class="st20"
   id="XMLID_887_" />
								<path
   d="M1257.7,76.3c0.4,0,0.7-0.1,1.1-0.1c0,0-0.1-0.1-0.1-0.1c-0.2-0.3-0.5-0.4-0.7-0.6"
   class="st20"
   id="XMLID_886_" />
								<path
   d="M1253.7,74.8c-17.5-1.5-34.5,10-34.5,10c-16.6,11.2-21.8,24.1-22.7,30.6"
   class="st26"
   id="XMLID_885_" />
								<path
   d="M1196.6,117.5c0.1,0.3,0.2,0.6,0.3,0.9c0,0,0.1,0.1,0.1,0.1c0.2-0.3,0.5-0.6,0.7-0.8"
   class="st20"
   id="XMLID_884_" />
								<path
   d="M1200.6,114.3c3.9-4.5,8.6-9.2,14.1-13.9c13.5-11.4,27-18.4,37.6-22.6"
   class="st27"
   id="XMLID_883_" />
								<path
   d="M1254.4,77c0.3-0.1,0.7-0.3,1-0.4"
   class="st20"
   id="XMLID_882_" />
							</g>
						</g>
					</g>
					<path
   d="M1258.7,76.1c3.6,4.2-7.1,23.2-22.3,33.7c-14.6,10-36.2,14.1-39.4,8.7       c-0.5-0.8-0.5-1.7-0.4-2.1c0.4-6.2,5.4-19.8,22.7-31.5c0,0,19.2-13,37.8-9.6C1257.4,75.3,1258.2,75.4,1258.7,76.1z"
   class="st20"
   id="XMLID_610_" />
				</g>
				<path
   d="M1313.9,156.5l-70.1-60.3c-1.6-2.3-7.9-0.7-14.2,3.6c-6.3,4.3-10.1,9.7-8.5,12l31,87.1"
   class="st28"
   id="XMLID_558_" />
				<path
   d="M1313.6,156c6.7,9.8-1.6,27.3-18.7,39c-17.1,11.7-36.4,13.2-43.1,3.4"
   class="st16"
   id="XMLID_556_" />
			</g>
			<path
   d="M1313.9,156.5l-70.1-60.3c-1.6-2.3-7.9-0.7-14.2,3.6c-6.3,4.3-10.1,9.7-8.5,12l31,87.1"
   class="st16"
   id="XMLID_557_" />
		</g>
		<g
   id="XMLID_420_">
			<path
   d="M441.1,771.9c-40.4,0-73.2-32.9-73.2-73.3c0-40.3,32.9-73.1,73.3-73.1     c40.4,0,73.2,33,73.1,73.4C514.2,739.1,481.3,771.9,441.1,771.9z M429.7,743.7c5.9,0,11.7,0,17.7,0c0-14.1,0-28.2,0-42.4     c4,0,7.9,0,11.9,0c0.5-5,1-9.9,1.6-15c-4.6,0-9,0-13.5,0c0-2.8,0-5.5,0-8.2c0-0.7,0.1-1.4,0.2-2c0.4-1.5,1.3-2.4,2.9-2.5     c1.8-0.1,3.7-0.1,5.5-0.1c1.5,0,2.9,0,4.5,0c0-4.9,0-9.7,0-14.4c-5.5,0-10.9-0.1-16.3,0.1c-2.8,0.1-5.4,1.1-7.7,2.8     c-4.4,3.1-6.2,7.6-6.7,12.7c-0.3,3.4-0.1,6.8-0.2,10.2c0,0.5,0,0.9,0,1.6c-2.9,0-5.6,0-8.3,0c0,5.1,0,10,0,15.1     c2.8,0,5.5,0,8.3,0C429.7,715.5,429.7,729.6,429.7,743.7z"
   class="st29"
   id="XMLID_413_" />
			<path
   d="M441,758.4c-32.9,0-59.7-26.8-59.6-59.7c0-32.8,26.8-59.6,59.7-59.6     c32.9,0,59.6,26.8,59.6,59.8C500.6,731.6,473.8,758.4,441,758.4z M431.8,735.3c4.8,0,9.6,0,14.4,0c0-11.5,0-23,0-34.5     c3.3,0,6.5,0,9.7,0c0.4-4.1,0.8-8.1,1.3-12.2c-3.7,0-7.3,0-11,0c0-2.3,0-4.5,0-6.7c0-0.5,0.1-1.1,0.2-1.6c0.3-1.3,1.1-2,2.4-2.1     c1.5-0.1,3-0.1,4.5-0.1c1.2,0,2.4,0,3.6,0c0-4,0-7.9,0-11.7c-4.5,0-8.9-0.1-13.2,0c-2.3,0.1-4.4,0.9-6.3,2.3     c-3.6,2.5-5.1,6.2-5.4,10.4c-0.2,2.8-0.1,5.5-0.1,8.3c0,0.4,0,0.8,0,1.3c-2.3,0-4.5,0-6.7,0c0,4.1,0,8.2,0,12.3     c2.3,0,4.5,0,6.7,0C431.8,712.4,431.8,723.8,431.8,735.3z"
   class="st30"
   id="XMLID_415_" />
			<path
   d="M431.8,735.3c0-11.5,0-22.9,0-34.5c-2.3,0-4.5,0-6.7,0c0-4.1,0-8.1,0-12.3     c2.2,0,4.4,0,6.7,0c0-0.5,0-0.9,0-1.3c0-2.8-0.1-5.5,0.1-8.3c0.3-4.2,1.9-7.8,5.4-10.4c1.9-1.3,4-2.2,6.3-2.3     c4.4-0.2,8.8,0,13.2,0c0,3.8,0,7.7,0,11.7c-1.2,0-2.4,0-3.6,0c-1.5,0-3,0-4.5,0.1c-1.3,0.1-2.1,0.8-2.4,2.1     c-0.1,0.5-0.2,1.1-0.2,1.6c0,2.2,0,4.4,0,6.7c3.7,0,7.3,0,11,0c-0.4,4.2-0.8,8.2-1.3,12.2c-3.2,0-6.4,0-9.7,0c0,11.6,0,23,0,34.5     C441.3,735.3,436.6,735.3,431.8,735.3z"
   class="st31"
   id="XMLID_414_" />
		</g>
		<path
   d="M644.9,487.8c0,4.3,0,8.5,0,12.8c-0.4,1.8-0.7,3.6-1.1,5.4c-5.2,26.7-20.7,44.9-45.9,54.8    c-4.8,1.9-9.9,2.7-14.9,4c-5.9,0-11.9,0-17.8,0c-2.2-0.4-4.3-0.8-6.5-1.3c-29.2-7.5-47.4-25.8-54.4-55.2c-0.6-2.7-1-5.4-1.6-8.1    c0-4.1,0-8.2,0-12.3c0.2-0.6,0.4-1.2,0.5-1.8c4.1-28.9,19.9-48.5,47-58.9c4.8-1.8,9.9-2.7,14.9-3.9c5.8,0,11.5,0,17.3,0    c0.5,0.2,1,0.4,1.6,0.5c29.7,5.4,49.1,22.4,58.2,51.2C643.4,479,644,483.5,644.9,487.8z M542.9,468.6c-3.7,8.8-1.7,15.7,4.4,22    c-2.1-0.6-4.1-1.1-6.4-1.7c0.4,8.3,5.1,12.9,12.7,16c-2.7,0.3-4.6,0.5-6.8,0.8c2.8,6.5,7.7,9.8,14.9,11c-7,5.3-14.4,7-22.4,7    c0.1,0.5,0.1,0.7,0.2,0.8c0.5,0.3,1,0.5,1.5,0.8c8.3,4.3,17,5.9,26.4,5.1c15-1.4,26.4-8.5,34.6-21c5-7.7,7.1-16.2,7.7-25.3    c0.1-1.4,1.1-2.8,2-3.9c1.6-2,3.6-3.8,5.4-5.6c-0.1-0.1-0.3-0.3-0.4-0.4c-2.3,0.6-4.7,1.1-7.2,1.8c2.2-2.8,4.1-5.3,6-7.8    c-2.8,0.3-5,1.1-7.2,2c-2,0.8-3.4,0.5-5.3-0.9c-5.1-3.9-10.8-4.8-16.7-1.9c-6,3-9.3,7.8-9.3,14.6c0,1.2,0,2.4,0,3.8    C563.1,484.8,552.2,478.8,542.9,468.6z"
   class="st32"
   id="XMLID_425_" />
		<path
   d="M634.9,489.4c0,3.7,0,7.4,0,11c-0.3,1.5-0.6,3.1-0.9,4.6c-4.5,23-17.8,38.6-39.5,47.1    c-4.1,1.6-8.5,2.3-12.8,3.4c-5.1,0-10.2,0-15.3,0c-1.9-0.4-3.7-0.7-5.6-1.1c-25.1-6.5-40.8-22.2-46.8-47.5c-0.5-2.3-0.9-4.7-1.3-7    c0-3.5,0-7,0-10.6c0.2-0.5,0.4-1,0.5-1.6c3.5-24.8,17.1-41.7,40.4-50.7c4.1-1.6,8.6-2.3,12.8-3.4c5,0,9.9,0,14.9,0    c0.4,0.1,0.9,0.3,1.3,0.4c25.5,4.6,42.3,19.3,50,44C633.7,481.8,634.1,485.7,634.9,489.4z M547.2,472.9c-3.2,7.5-1.5,13.5,3.8,19    c-1.8-0.5-3.6-1-5.5-1.5c0.3,7.2,4.4,11.1,10.9,13.8c-2.3,0.3-4,0.4-5.8,0.7c2.4,5.6,6.6,8.4,12.8,9.5c-6,4.5-12.4,6-19.2,6    c0.1,0.4,0.1,0.6,0.2,0.7c0.4,0.3,0.8,0.5,1.3,0.7c7.1,3.7,14.7,5.1,22.7,4.4c12.9-1.2,22.7-7.3,29.7-18.1    c4.3-6.6,6.1-14,6.6-21.7c0.1-1.2,0.9-2.4,1.7-3.4c1.4-1.7,3.1-3.2,4.6-4.8c-0.1-0.1-0.2-0.3-0.4-0.4c-2,0.5-4,1-6.2,1.5    c1.9-2.4,3.5-4.6,5.2-6.7c-2.4,0.3-4.3,1-6.2,1.7c-1.7,0.7-3,0.5-4.5-0.7c-4.4-3.3-9.3-4.1-14.4-1.6c-5.1,2.6-8,6.7-8,12.6    c0,1,0,2,0,3.3C564.6,486.8,555.2,481.7,547.2,472.9z"
   class="st33"
   id="XMLID_422_" />
		<path
   d="M547.2,472.9c8,8.8,17.4,13.9,29.2,14.7c0-1.3,0-2.3,0-3.3c0-5.9,2.9-10,8-12.6    c5.1-2.6,10-1.7,14.4,1.6c1.6,1.2,2.8,1.4,4.5,0.7c1.9-0.8,3.8-1.4,6.2-1.7c-1.6,2.2-3.3,4.3-5.2,6.7c2.2-0.5,4.2-1,6.2-1.5    c0.1,0.1,0.2,0.3,0.4,0.4c-1.5,1.6-3.2,3.1-4.6,4.8c-0.8,1-1.7,2.2-1.7,3.4c-0.5,7.8-2.3,15.1-6.6,21.7    c-7,10.8-16.8,16.9-29.7,18.1c-8,0.8-15.6-0.6-22.7-4.4c-0.4-0.2-0.9-0.4-1.3-0.7c-0.1-0.1-0.1-0.3-0.2-0.7c6.8,0,13.2-1.5,19.2-6    c-6.2-1.1-10.4-3.9-12.8-9.5c1.8-0.2,3.5-0.4,5.8-0.7c-6.5-2.6-10.6-6.6-10.9-13.8c2,0.5,3.7,1,5.5,1.5    C545.7,486.4,544,480.4,547.2,472.9z"
   class="st31"
   id="XMLID_421_" />
		<g
   id="XMLID_443_">
			<path
   d="M634.5,686.4c0-4.8,0-9.5,0-14.3c0.2-0.7,0.5-1.3,0.5-2c3.6-28.8,24.5-52.6,52.4-59.9     c3.7-1,7.5-1.6,11.3-2.4c4.8,0,9.5,0,14.3,0c0.6,0.2,1.1,0.4,1.7,0.5c29.1,3.6,52.8,24.3,60.3,52.7c0.9,3.6,1.5,7.3,2.3,11     c0,4.8,0,9.5,0,14.3c-0.2,0.7-0.5,1.3-0.5,2c-3.6,28.8-24.5,52.6-52.4,59.9c-3.7,1-7.5,1.6-11.3,2.4c-4.8,0-9.5,0-14.3,0     c-0.6-0.2-1.1-0.4-1.7-0.5c-29.1-3.6-52.8-24.3-60.3-52.7C635.8,693.8,635.2,690.1,634.5,686.4z M705,664.9     c-8.2,0.1-15.7,1.7-22.6,5.5c-1.8,1-3.1,1.2-5.1,0.1c-3.5-2.1-8.1-1-10.8,2.1c-2.7,3.1-3.4,7.7-0.8,10.7c2.1,2.4,2.7,4.7,2.9,7.8     c0.5,6.6,4.5,11.3,9.7,15c10.1,7.1,21.6,8.9,33.7,7.6c8.2-0.9,15.8-3.5,22.4-8.7c4.8-3.9,8.2-8.6,8.3-15.1c0-2.1,0.4-3.6,2.1-5.1     c2.5-2.3,3.3-5.3,2.2-8.7c-1.1-3.4-3.3-5.9-6.9-6.1c-2.8-0.2-5.6,0.7-9.6,1.3c-6.1-3.8-14.1-5.8-22.9-6.3     c1.7-5.4,3.4-10.7,5-15.9c0.5-0.1,0.8-0.2,1.1-0.1c3.1,0.7,6.2,1.4,9.3,2c2.2,0.4,3.7,1.1,4.4,3.8c1,3.7,5.2,5.6,8.8,4.6     c4-1.2,6.2-5,5.3-9c-0.8-3.6-4.7-6.4-8.4-5.3c-2.3,0.6-4.2,2.5-7.1,4.2c-3.2-0.7-7.5-1.5-11.6-2.7c-2.8-0.9-3.7,0.1-4.4,2.6     C708.5,654.2,706.7,659.5,705,664.9z"
   class="st34"
   id="XMLID_440_" />
			<path
   d="M644.6,688.2c0-4.1,0-8.2,0-12.2c0.2-0.6,0.4-1.1,0.5-1.7c3.1-24.7,21-45.1,44.9-51.3     c3.2-0.8,6.4-1.4,9.7-2c4.1,0,8.2,0,12.2,0c0.5,0.2,0.9,0.4,1.4,0.4c25,3.1,45.2,20.8,51.6,45.2c0.8,3.1,1.3,6.3,2,9.4     c0,4.1,0,8.2,0,12.2c-0.2,0.6-0.4,1.1-0.5,1.7c-3.1,24.7-21,45.1-44.9,51.3c-3.2,0.8-6.4,1.4-9.7,2c-4.1,0-8.2,0-12.2,0     c-0.5-0.2-0.9-0.4-1.4-0.4c-25-3.1-45.2-20.8-51.6-45.2C645.8,694.5,645.2,691.3,644.6,688.2z M705.1,669.7     c-7,0.1-13.5,1.5-19.4,4.7c-1.6,0.9-2.7,1-4.3,0.1c-3-1.8-7-0.8-9.2,1.8c-2.3,2.6-2.9,6.6-0.6,9.1c1.8,2,2.3,4,2.5,6.6     c0.4,5.7,3.8,9.7,8.3,12.8c8.7,6.1,18.5,7.6,28.9,6.5c7-0.7,13.6-3,19.2-7.5c4.1-3.3,7-7.4,7.1-12.9c0-1.8,0.4-3.1,1.8-4.4     c2.2-2,2.8-4.6,1.9-7.4c-0.9-2.9-2.8-5.1-5.9-5.2c-2.4-0.2-4.8,0.6-8.2,1.2c-5.2-3.3-12.1-5-19.6-5.4c1.5-4.7,2.9-9.1,4.3-13.6     c0.4-0.1,0.7-0.1,0.9-0.1c2.7,0.6,5.3,1.2,7.9,1.7c1.9,0.4,3.2,1,3.8,3.2c0.8,3.2,4.5,4.8,7.5,3.9c3.5-1,5.3-4.2,4.5-7.7     c-0.7-3.1-4-5.4-7.2-4.6c-2,0.6-3.6,2.1-6.1,3.6c-2.7-0.6-6.4-1.2-10-2.4c-2.4-0.7-3.1,0.1-3.7,2.2     C708,660.6,706.5,665.1,705.1,669.7z"
   class="st35"
   id="XMLID_437_" />
			<path
   d="M705.1,669.7c1.5-4.6,3-9.1,4.3-13.7c0.6-2.1,1.3-2.9,3.7-2.2c3.5,1.1,7.2,1.7,10,2.4     c2.4-1.5,4.1-3.1,6.1-3.6c3.1-0.9,6.5,1.5,7.2,4.6c0.8,3.5-1.1,6.7-4.5,7.7c-3,0.9-6.7-0.7-7.5-3.9c-0.6-2.3-1.9-2.9-3.8-3.2     c-2.7-0.5-5.3-1.2-7.9-1.7c-0.2,0-0.5,0-0.9,0.1c-1.4,4.4-2.8,8.9-4.3,13.6c7.5,0.4,14.4,2.2,19.6,5.4c3.4-0.5,5.8-1.3,8.2-1.2     c3,0.2,5,2.3,5.9,5.2c0.9,2.9,0.3,5.5-1.9,7.4c-1.4,1.3-1.8,2.6-1.8,4.4c0,5.5-3,9.6-7.1,12.9c-5.6,4.5-12.1,6.7-19.2,7.5     c-10.3,1.1-20.2-0.4-28.9-6.5c-4.4-3.1-7.9-7.1-8.3-12.8c-0.2-2.6-0.7-4.6-2.5-6.6c-2.2-2.5-1.7-6.5,0.6-9.1     c2.3-2.6,6.2-3.6,9.2-1.8c1.7,1,2.8,0.8,4.3-0.1C691.6,671.2,698,669.8,705.1,669.7z M699.6,686.8c0-2.6-2-4.6-4.6-4.7     c-2.7-0.1-4.8,2-4.8,4.7c0,2.7,1.9,4.6,4.6,4.7C697.7,691.5,699.6,689.6,699.6,686.8z M716.6,682.1c-2.6,0-4.6,2-4.7,4.6     c-0.1,2.8,1.9,4.8,4.7,4.8c2.8,0,4.8-2,4.7-4.8C721.2,684,719.2,682.1,716.6,682.1z M694.8,698.7c-1,2.4,0.6,3,1.8,3.7     c3.7,1.9,7.7,2.2,11.6,1.6c2.7-0.4,5.3-1.4,7.9-2.4c0.6-0.2,0.8-1.5,1.2-2.3c-0.2-0.2-0.4-0.3-0.6-0.5     C709.3,703.2,702.1,703.2,694.8,698.7z"
   class="st31"
   id="XMLID_432_" />
			<path
   d="M699.6,686.8c0,2.8-2,4.8-4.8,4.7c-2.7,0-4.6-2-4.6-4.7c0-2.8,2.1-4.8,4.8-4.7     C697.6,682.1,699.6,684.2,699.6,686.8z"
   class="st36"
   id="XMLID_431_" />
			<path
   d="M716.6,682.1c2.6,0,4.6,2,4.7,4.6c0,2.8-1.9,4.8-4.7,4.8c-2.8,0-4.8-2-4.7-4.8     C711.9,684.1,714,682.1,716.6,682.1z"
   class="st36"
   id="XMLID_430_" />
			<path
   d="M694.8,698.7c7.3,4.4,14.6,4.4,21.9,0.1c0.2,0.2,0.4,0.3,0.6,0.5c-0.4,0.8-0.6,2.1-1.2,2.3     c-2.6,1-5.2,2-7.9,2.4c-4,0.6-8,0.3-11.6-1.6C695.3,701.8,693.7,701.2,694.8,698.7z"
   class="st36"
   id="XMLID_429_" />
		</g>
	</g>
	<g
   id="Layer_7">
	</g>
	<text
   transform="matrix(1 0 0 1 1024.9756 443.725)"
   id="XMLID_412_"><tspan
     id="tspan234"
     class="st9 st10 st37"
     y="0"
     x="0">Use  #SBUHacks </tspan><tspan
     id="tspan236"
     class="st9 st10 st37"
     y="57.6"
     x="0">when you post photos </tspan><tspan
     id="tspan238"
     class="st9 st10 st37"
     y="115.2"
     x="0">to take part with us on </tspan><tspan
     id="tspan240"
     class="st9 st10 st37"
     y="172.8"
     x="0">social media!</tspan></text>

</g>
</svg>