<?xml version="1.0" encoding="utf-8"?>
<!-- Generator: Adobe Illustrator 19.0.0, SVG Export Plug-In . SVG Version: 6.00 Build 0)  -->
<svg version="1.1" xmlns="http://www.w3.org/2000/svg" xmlns:xlink="http://www.w3.org/1999/xlink" x="0px" y="0px"
	 viewBox="0 0 1920 1080" style="enable-background:new 0 0 1920 1080;" xml:space="preserve">
<style type="text/css">
	.st0{fill:#FAFBFB;}
	.st1{fill:#546E7A;}
	.st2{fill:#8D6E63;}
	.st3{fill:#A1887F;}
	.st4{fill:#F58967;}
	.st5{fill:#71CDDD;}
	.st6{fill:#D0D8DC;}
	.st7{fill:#BDAAA4;}
	.st8{fill:#81C784;}
	.st9{fill:#4DAF4E;}
	.st10{fill:#38A4DD;}
	.st11{fill:#8CAEDC;}
	.st12{fill:none;stroke:#455B65;stroke-miterlimit:10;}
	.st13{fill:#F6EC13;}
	.st14{fill:#757576;}
	.st15{fill:#9D9D9D;}
	.st16{fill:#90A4AE;}
	.st17{fill:#795649;}
	.st18{fill:#84CBA1;}
	.st19{fill:#FBAA19;}
	.st20{fill:#F2F8E9;}
	.st21{fill:#EF4481;}
	.st22{fill:#F47C20;}
	.st23{fill:#25A69A;}
	.st24{fill:#F06392;}
	.st25{fill:#692C90;}
	.st26{fill:#FFE081;}
	.st27{fill:#E1F3F7;}
	.st28{fill:#BDBDBD;}
	.st29{fill:#B29DCB;}
	.st30{fill:#FAF291;}
	.st31{fill:#66BB6A;}
	.st32{fill:#FEED57;}
	.st33{fill:#FEC111;}
	.st34{fill:#9B51A0;}
	.st35{fill:#70B2E2;}
	.st36{fill:#488FCC;}
	.st37{fill:#62C3A6;}
	.st38{fill:#EF4323;}
	.st39{fill:#B4E0DA;}
	.st40{fill:#F48FB1;}
	.st41{fill:#FFD181;}
	.st42{fill:#8351A1;}
	.st43{fill:#89D0C2;}
	.st44{fill:#596AB2;}
	.st45{fill:#F05455;}
	.st46{fill:#78909C;}
	.st47{fill:#263238;}
	.st48{opacity:0.57;fill:url(#XMLID_18_);}
	.st49{fill:url(#XMLID_19_);}
	.st50{fill:url(#XMLID_20_);}
	.st51{fill:url(#XMLID_21_);}
	.st52{fill:url(#XMLID_22_);}
	.st53{fill:url(#XMLID_23_);}
	.st54{fill:url(#XMLID_24_);}
	.st55{fill:url(#XMLID_25_);}
	.st56{fill:url(#XMLID_26_);}
	.st57{fill:url(#XMLID_27_);}
	.st58{fill:url(#XMLID_28_);}
	.st59{fill:url(#XMLID_29_);}
	.st60{opacity:0.7;fill:url(#XMLID_30_);}
	.st61{fill:url(#XMLID_31_);}
	.st62{fill:url(#XMLID_32_);}
	.st63{fill:url(#XMLID_33_);}
	.st64{fill:url(#XMLID_34_);}
	.st65{fill:url(#XMLID_35_);}
	.st66{fill:url(#XMLID_36_);}
	.st67{fill:url(#XMLID_37_);}
	.st68{fill:#95C8EC;}
	.st69{fill:#E4F2FB;}
	.st70{fill:#B5E4FA;}
	.st71{opacity:0.2;fill:#95C8EC;}
	.st72{fill:#616262;}
	.st73{fill:#B0BEC5;}
	.st74{fill:#ECEFF0;}
	.st75{fill:#607D8B;}
	.st76{fill:url(#XMLID_38_);}
	.st77{opacity:0.75;fill:url(#XMLID_39_);}
	.st78{fill:#F05323;}
	.st79{fill:none;stroke:#FAFBFB;stroke-miterlimit:10;}
	.st80{fill:url(#XMLID_40_);}
	.st81{opacity:0.75;fill:url(#XMLID_41_);}
	.st82{fill:url(#XMLID_42_);}
	.st83{fill:url(#XMLID_43_);}
	.st84{fill:#9E89C0;}
	.st85{fill:#85D5F7;}
	.st86{fill:#FEE580;}
	.st87{fill:#8E99CD;}
	.st88{fill:#FFE0B2;}
	.st89{fill:#36C2D6;}
</style>
<g id="Layer_1">
	<rect id="XMLID_15_" x="0.3" y="0" class="st0" width="1920" height="1080"/>
	<rect id="XMLID_14_" x="0.3" y="1027.2" class="st1" width="1920" height="52.8"/>
	<path id="XMLID_67_" class="st0" d="M465.8,853.7"/>
</g>
<g id="Layer_2">
	<g id="XMLID_363_">
		<rect id="XMLID_380_" x="751.7" y="910.7" class="st2" width="37.3" height="17.8"/>
		<rect id="XMLID_379_" x="762.8" y="901.2" class="st3" width="24.7" height="9.5"/>
		<rect id="XMLID_378_" x="854.6" y="898.5" class="st4" width="43.4" height="30.1"/>
		<rect id="XMLID_377_" x="842.6" y="901.2" class="st5" width="12" height="27.3"/>
		<rect id="XMLID_376_" x="833.3" y="852.7" class="st6" width="64.7" height="20.8"/>
		<rect id="XMLID_375_" x="751.7" y="910.7" class="st7" width="37.3" height="8.9"/>
		<rect id="XMLID_374_" x="742.5" y="962.5" class="st8" width="48.8" height="23.8"/>
		<rect id="XMLID_373_" x="762.8" y="962.5" class="st9" width="9.3" height="23.8"/>
		<rect id="XMLID_372_" x="752.8" y="950.5" class="st10" width="27" height="12"/>
		<rect id="XMLID_371_" x="742.5" y="940.4" class="st11" width="10.4" height="22.1"/>
		<line id="XMLID_370_" class="st12" x1="833.3" y1="862" x2="898" y2="862"/>
		<rect id="XMLID_369_" x="862.8" y="859.5" class="st13" width="6" height="6"/>
		<rect id="XMLID_368_" x="732.2" y="861.2" class="st14" width="10.3" height="166.2"/>
		<rect id="XMLID_367_" x="898" y="862" class="st14" width="10.3" height="166.2"/>
		<rect id="XMLID_366_" x="742.5" y="986.3" class="st15" width="155.5" height="11.8"/>
		<rect id="XMLID_365_" x="742.5" y="928.5" class="st15" width="155.5" height="11.8"/>
		<rect id="XMLID_364_" x="742.5" y="873.5" class="st15" width="155.5" height="11.8"/>
	</g>
	<g id="XMLID_359_">
		<rect id="XMLID_362_" x="56.1" y="765.1" class="st6" width="150" height="262.1"/>
		<rect id="XMLID_361_" x="69.3" y="793.8" class="st16" width="123.5" height="233.4"/>
		<path id="XMLID_360_" class="st1" d="M195.8,805H66.3c-6.6,0-12-5.4-12-12v-21.8c0-6.6,5.4-12,12-12h129.5c6.6,0,12,5.4,12,12V793
			C207.8,799.6,202.4,805,195.8,805z"/>
	</g>
	<g id="XMLID_349_">
		<rect id="XMLID_352_" x="1742.2" y="765.1" class="st6" width="150" height="262.1"/>
		<rect id="XMLID_351_" x="1755.5" y="793.8" class="st16" width="123.5" height="233.4"/>
		<path id="XMLID_350_" class="st1" d="M1882,805h-129.5c-6.6,0-12-5.4-12-12v-21.8c0-6.6,5.4-12,12-12H1882c6.6,0,12,5.4,12,12V793
			C1894,799.6,1888.6,805,1882,805z"/>
	</g>
	<g id="XMLID_290_">
		<rect id="XMLID_348_" x="546.1" y="776" class="st3" width="164.6" height="250.3"/>
		<rect id="XMLID_347_" x="558.1" y="792" class="st17" width="141" height="216"/>
		<g id="XMLID_340_">
			<rect id="XMLID_346_" x="687.3" y="974.8" class="st18" width="11.5" height="33.3"/>
			
				<rect id="XMLID_345_" x="666.5" y="973.6" transform="matrix(-0.9303 -0.3668 0.3668 -0.9303 932.2567 2158.9011)" class="st19" width="9.5" height="34.5"/>
			<rect id="XMLID_344_" x="679.5" y="972.8" class="st20" width="6.7" height="35.5"/>
			<rect id="XMLID_343_" x="654.7" y="973.6" class="st21" width="5.8" height="34.5"/>
			<rect id="XMLID_342_" x="648.7" y="974.8" class="st22" width="6" height="33.3"/>
			
				<rect id="XMLID_341_" x="634.4" y="977.6" transform="matrix(-0.9478 -0.3189 0.3189 -0.9478 929.2329 2138.0613)" class="st23" width="10.5" height="30.7"/>
		</g>
		<g id="XMLID_336_">
			<rect id="XMLID_339_" x="579.3" y="915" class="st24" width="7.2" height="33.3"/>
			<rect id="XMLID_338_" x="571.1" y="921.2" class="st25" width="8.2" height="27.2"/>
			
				<rect id="XMLID_337_" x="561.7" y="916" transform="matrix(0.9767 -0.2147 0.2147 0.9767 -186.9978 143.0169)" class="st26" width="6" height="32.3"/>
		</g>
		<g id="XMLID_331_">
			<rect id="XMLID_335_" x="581.7" y="829.6" class="st27" width="6.4" height="34.5"/>
			<rect id="XMLID_334_" x="575.6" y="833.6" class="st28" width="6.2" height="30.5"/>
			<rect id="XMLID_333_" x="567.6" y="837" class="st29" width="8" height="27.2"/>
			<rect id="XMLID_332_" x="559.7" y="832.1" class="st30" width="7.8" height="32"/>
		</g>
		<rect id="XMLID_330_" x="558.1" y="822.5" class="st7" width="141" height="9.5"/>
		<rect id="XMLID_329_" x="558.1" y="864.4" class="st7" width="141" height="9.5"/>
		<rect id="XMLID_328_" x="558.1" y="906.4" class="st7" width="141" height="9.5"/>
		<rect id="XMLID_327_" x="558.1" y="948.3" class="st7" width="141" height="9.5"/>
		<g id="XMLID_320_">
			<rect id="XMLID_326_" x="559.7" y="789.1" class="st18" width="11.5" height="33.3"/>
			<rect id="XMLID_325_" x="572.4" y="787.1" class="st31" width="6.7" height="35.5"/>
			
				<rect id="XMLID_324_" x="582.6" y="788" transform="matrix(0.9303 -0.3668 0.3668 0.9303 -254.415 271.5496)" class="st31" width="9.5" height="34.5"/>
			<rect id="XMLID_323_" x="598.1" y="788" class="st32" width="5.8" height="34.5"/>
			<rect id="XMLID_322_" x="603.9" y="789.1" class="st33" width="6" height="33.3"/>
			<rect id="XMLID_321_" x="609.9" y="796.6" class="st34" width="11.7" height="25.8"/>
		</g>
		<g id="XMLID_314_">
			<rect id="XMLID_319_" x="649.6" y="834.3" class="st35" width="10.5" height="30.7"/>
			<rect id="XMLID_318_" x="660.1" y="828.7" class="st36" width="10.5" height="36.2"/>
			<rect id="XMLID_317_" x="670.6" y="831.5" class="st24" width="7.2" height="33.3"/>
			<rect id="XMLID_316_" x="677.8" y="837.7" class="st26" width="8.2" height="27.2"/>
			
				<rect id="XMLID_315_" x="689.3" y="832.5" transform="matrix(-0.9767 -0.2147 0.2147 -0.9767 1186.248 1826.202)" class="st26" width="6" height="32.3"/>
		</g>
		<g id="XMLID_309_">
			<rect id="XMLID_313_" x="670.7" y="788" class="st37" width="6.4" height="34.5"/>
			<rect id="XMLID_312_" x="677.1" y="792" class="st28" width="6.2" height="30.5"/>
			<rect id="XMLID_311_" x="683.2" y="795.3" class="st38" width="8" height="27.2"/>
			<rect id="XMLID_310_" x="691.2" y="790.5" class="st30" width="7.8" height="32"/>
		</g>
		<path id="XMLID_306_" class="st3" d="M546.1,776v250.3h164.6V776H546.1z M699.1,1008h-141V792h141V1008z"/>
		<g id="XMLID_300_">
			<rect id="XMLID_305_" x="560.3" y="873.1" class="st39" width="11.5" height="33.3"/>
			
				<rect id="XMLID_304_" x="583.2" y="872" transform="matrix(0.9303 -0.3668 0.3668 0.9303 -285.1834 277.6281)" class="st19" width="9.5" height="34.5"/>
			<rect id="XMLID_303_" x="573" y="871.1" class="st40" width="6.7" height="35.5"/>
			
				<rect id="XMLID_302_" x="593.4" y="871.6" transform="matrix(0.9309 -0.3652 0.3652 0.9309 -283.4538 279.2121)" class="st21" width="5.8" height="34.5"/>
			
				<rect id="XMLID_301_" x="601" y="875.1" transform="matrix(0.9478 -0.3189 0.3189 0.9478 -252.3237 239.8173)" class="st41" width="10.5" height="30.7"/>
		</g>
		<g id="XMLID_291_">
			<rect id="XMLID_299_" x="647.1" y="914.5" class="st37" width="7.2" height="33.3"/>
			<rect id="XMLID_298_" x="654.2" y="920.6" class="st42" width="8.2" height="27.2"/>
			
				<rect id="XMLID_297_" x="663" y="915.5" transform="matrix(-0.9994 -3.430670e-002 3.430670e-002 -0.9994 1299.5787 1885.5656)" class="st26" width="6" height="32.3"/>
			<rect id="XMLID_296_" x="670.1" y="913.3" class="st27" width="6.4" height="34.5"/>
			<rect id="XMLID_295_" x="676.5" y="917.3" class="st43" width="6.2" height="30.5"/>
			<rect id="XMLID_294_" x="682.7" y="920.6" class="st44" width="8" height="27.2"/>
			<rect id="XMLID_293_" x="690.7" y="915.8" class="st30" width="7.8" height="32"/>
			<rect id="XMLID_292_" x="638.7" y="915" class="st45" width="7.2" height="33.3"/>
		</g>
	</g>
	<path id="XMLID_289_" class="st46" d="M363.2,728.3H48.9c-6.6,0-12-5.4-12-12V558.9c0-6.6,5.4-12,12-12h314.3c6.6,0,12,5.4,12,12
		v157.4C375.2,722.9,369.8,728.3,363.2,728.3z"/>
	<path id="XMLID_288_" class="st47" d="M353.9,723.3H58.2c-6.6,0-12-5.4-12-12V563.8c0-6.6,5.4-12,12-12h295.8c6.6,0,12,5.4,12,12
		v147.5C365.9,717.9,360.5,723.3,353.9,723.3z"/>
	<linearGradient id="XMLID_18_" gradientUnits="userSpaceOnUse" x1="50.3099" y1="667.032" x2="275.4782" y2="667.032">
		<stop  offset="0" style="stop-color:#FAF291"/>
		<stop  offset="0.6847" style="stop-color:#84CBA1"/>
		<stop  offset="1" style="stop-color:#71CDDD"/>
	</linearGradient>
	<path id="XMLID_287_" class="st48" d="M98.6,630.9c-30.6,21.3-47.3,54.9-48.3,89.5c2.1,1.8,4.9,3,7.9,3h217.3
		c0-22.2-6.5-44.7-20.2-64.3C219.8,608,149.6,595.4,98.6,630.9z"/>
	<linearGradient id="XMLID_19_" gradientUnits="userSpaceOnUse" x1="64.4119" y1="673.3146" x2="261.3319" y2="673.3146">
		<stop  offset="0" style="stop-color:#FAF291"/>
		<stop  offset="0.6847" style="stop-color:#84CBA1"/>
		<stop  offset="1" style="stop-color:#71CDDD"/>
	</linearGradient>
	<path id="XMLID_286_" class="st49" d="M106.7,640.9c-28,19.4-42.7,50.8-42.2,82.4h196.9c0.3-19.9-5.4-40.2-17.6-57.8
		C212.7,620.9,151.3,609.9,106.7,640.9z"/>
	<linearGradient id="XMLID_20_" gradientUnits="userSpaceOnUse" x1="91.0087" y1="524.8466" x2="365.0087" y2="669.3466">
		<stop  offset="0" style="stop-color:#5981C1;stop-opacity:0"/>
		<stop  offset="1" style="stop-color:#FAFBFB"/>
	</linearGradient>
	<circle id="XMLID_285_" class="st50" cx="316.6" cy="643.8" r="8.5"/>
	<linearGradient id="XMLID_21_" gradientUnits="userSpaceOnUse" x1="64.6625" y1="574.8041" x2="338.6625" y2="719.3041">
		<stop  offset="0" style="stop-color:#5981C1;stop-opacity:0"/>
		<stop  offset="1" style="stop-color:#FAFBFB"/>
	</linearGradient>
	<circle id="XMLID_284_" class="st51" cx="70.8" cy="578.1" r="4.3"/>
	<linearGradient id="XMLID_22_" gradientUnits="userSpaceOnUse" x1="55.6864" y1="591.8245" x2="329.6864" y2="736.3245">
		<stop  offset="0" style="stop-color:#5981C1;stop-opacity:0"/>
		<stop  offset="1" style="stop-color:#FAFBFB"/>
	</linearGradient>
	<circle id="XMLID_283_" class="st52" cx="286.5" cy="713.6" r="1.8"/>
	<linearGradient id="XMLID_23_" gradientUnits="userSpaceOnUse" x1="71.4561" y1="561.9222" x2="345.4561" y2="706.4222">
		<stop  offset="0" style="stop-color:#5981C1;stop-opacity:0"/>
		<stop  offset="1" style="stop-color:#FAFBFB"/>
	</linearGradient>
	<circle id="XMLID_282_" class="st53" cx="354.9" cy="711.4" r="2.1"/>
	<linearGradient id="XMLID_24_" gradientUnits="userSpaceOnUse" x1="122.8443" y1="464.4802" x2="396.8443" y2="608.9802">
		<stop  offset="0" style="stop-color:#5981C1;stop-opacity:0"/>
		<stop  offset="1" style="stop-color:#FAFBFB"/>
	</linearGradient>
	<circle id="XMLID_281_" class="st54" cx="326.8" cy="572.1" r="1.8"/>
	<linearGradient id="XMLID_25_" gradientUnits="userSpaceOnUse" x1="93.6818" y1="519.7779" x2="367.6818" y2="664.2779">
		<stop  offset="0" style="stop-color:#5981C1;stop-opacity:0"/>
		<stop  offset="1" style="stop-color:#FAFBFB"/>
	</linearGradient>
	<circle id="XMLID_280_" class="st55" cx="271.4" cy="613.5" r="2.8"/>
	<linearGradient id="XMLID_26_" gradientUnits="userSpaceOnUse" x1="40.6518" y1="620.3331" x2="314.6518" y2="764.8331">
		<stop  offset="0" style="stop-color:#5981C1;stop-opacity:0"/>
		<stop  offset="1" style="stop-color:#FAFBFB"/>
	</linearGradient>
	<circle id="XMLID_279_" class="st56" cx="63.8" cy="632.6" r="2.8"/>
	<linearGradient id="XMLID_27_" gradientUnits="userSpaceOnUse" x1="65.4859" y1="573.2429" x2="339.4859" y2="717.7429">
		<stop  offset="0" style="stop-color:#5981C1;stop-opacity:0"/>
		<stop  offset="1" style="stop-color:#FAFBFB"/>
	</linearGradient>
	<circle id="XMLID_278_" class="st57" cx="116.3" cy="600.1" r="2.8"/>
	<linearGradient id="XMLID_28_" gradientUnits="userSpaceOnUse" x1="97.1744" y1="513.1552" x2="371.1744" y2="657.6552">
		<stop  offset="0" style="stop-color:#5981C1;stop-opacity:0"/>
		<stop  offset="1" style="stop-color:#FAFBFB"/>
	</linearGradient>
	<circle id="XMLID_277_" class="st58" cx="200.3" cy="567.6" r="2.8"/>
	<g id="XMLID_264_">
		<path id="XMLID_275_" class="st1" d="M1881.7,737.4h-314.3c-6.6,0-12-5.4-12-12V568c0-6.6,5.4-12,12-12h314.3c6.6,0,12,5.4,12,12
			v157.4C1893.7,732,1888.3,737.4,1881.7,737.4z"/>
		<path id="XMLID_274_" class="st47" d="M1868.3,730.2h-287.5c-6.6,0-12-5.4-12-12v-143c0-6.6,5.4-12,12-12h287.5
			c6.6,0,12,5.4,12,12v143C1880.3,724.8,1874.9,730.2,1868.3,730.2z"/>
		<linearGradient id="XMLID_29_" gradientUnits="userSpaceOnUse" x1="1747.0168" y1="641.571" x2="1880.2535" y2="641.571">
			<stop  offset="0" style="stop-color:#5981C1"/>
			<stop  offset="0.5369" style="stop-color:#A55EA6"/>
			<stop  offset="1" style="stop-color:#FAAA43"/>
		</linearGradient>
		<path id="XMLID_273_" class="st59" d="M1868.3,563.2h-84.1c-2.1,1.5-4.2,3-6.2,4.7c-36.5,30.4-41.4,84.6-11,121.1
			c28.3,34,77.2,40.6,113.3,16.8V575.2C1880.3,568.6,1874.9,563.2,1868.3,563.2z"/>
		<linearGradient id="XMLID_30_" gradientUnits="userSpaceOnUse" x1="1732.9006" y1="646.7282" x2="1880.2535" y2="646.7282">
			<stop  offset="0" style="stop-color:#5981C1;stop-opacity:0"/>
			<stop  offset="1" style="stop-color:#FAAA43"/>
		</linearGradient>
		<path id="XMLID_272_" class="st60" d="M1868.3,563.2h-106.1c-36.2,36.2-39.5,94.7-6.1,134.8c13.4,16.1,30.8,26.9,49.5,32.2h54.8
			c6.5-1.8,12.8-4.4,18.9-7.6c0.6-1.4,0.9-2.9,0.9-4.4v-143C1880.3,568.6,1874.9,563.2,1868.3,563.2z"/>
		<linearGradient id="XMLID_31_" gradientUnits="userSpaceOnUse" x1="1709.036" y1="593.5835" x2="1598.536" y2="728.0835">
			<stop  offset="0" style="stop-color:#5981C1;stop-opacity:0"/>
			<stop  offset="1" style="stop-color:#FAFBFB"/>
		</linearGradient>
		<circle id="XMLID_271_" class="st61" cx="1707.8" cy="595.1" r="3.6"/>
		<linearGradient id="XMLID_32_" gradientUnits="userSpaceOnUse" x1="1781.5803" y1="653.1831" x2="1671.0803" y2="787.6831">
			<stop  offset="0" style="stop-color:#5981C1;stop-opacity:0"/>
			<stop  offset="1" style="stop-color:#FAFBFB"/>
		</linearGradient>
		<circle id="XMLID_270_" class="st62" cx="1730" cy="715.9" r="5.5"/>
		<linearGradient id="XMLID_33_" gradientUnits="userSpaceOnUse" x1="1678.6429" y1="568.6137" x2="1568.1429" y2="703.1137">
			<stop  offset="0" style="stop-color:#5981C1;stop-opacity:0"/>
			<stop  offset="1" style="stop-color:#FAFBFB"/>
		</linearGradient>
		<circle id="XMLID_269_" class="st63" cx="1592.5" cy="673.4" r="9"/>
		<linearGradient id="XMLID_34_" gradientUnits="userSpaceOnUse" x1="1730.0087" y1="610.8138" x2="1619.5087" y2="745.3138">
			<stop  offset="0" style="stop-color:#5981C1;stop-opacity:0"/>
			<stop  offset="1" style="stop-color:#FAFBFB"/>
		</linearGradient>
		<circle id="XMLID_268_" class="st64" cx="1650.2" cy="708" r="3.6"/>
		<linearGradient id="XMLID_35_" gradientUnits="userSpaceOnUse" x1="1637.4934" y1="534.8069" x2="1526.9934" y2="669.3069">
			<stop  offset="0" style="stop-color:#5981C1;stop-opacity:0"/>
			<stop  offset="1" style="stop-color:#FAFBFB"/>
		</linearGradient>
		<circle id="XMLID_267_" class="st65" cx="1604.5" cy="574.9" r="3"/>
		<linearGradient id="XMLID_36_" gradientUnits="userSpaceOnUse" x1="1676.6554" y1="566.9808" x2="1566.1554" y2="701.4808">
			<stop  offset="0" style="stop-color:#5981C1;stop-opacity:0"/>
			<stop  offset="1" style="stop-color:#FAFBFB"/>
		</linearGradient>
		<circle id="XMLID_266_" class="st66" cx="1636" cy="616.4" r="2"/>
		<linearGradient id="XMLID_37_" gradientUnits="userSpaceOnUse" x1="1661.9141" y1="654.6801" x2="1880.2535" y2="654.6801">
			<stop  offset="0" style="stop-color:#5981C1;stop-opacity:0"/>
			<stop  offset="1" style="stop-color:#FAAA43"/>
		</linearGradient>
		<path id="XMLID_265_" class="st67" d="M1880.3,647.7c-17.6-0.3-36.6-0.5-56.5-0.5c-89.4,0-161.8,3.3-161.8,7.5s72.4,7.5,161.8,7.5
			c19.9,0,38.9-0.2,56.5-0.5V647.7z"/>
	</g>
	<g id="XMLID_16_">
		<g id="XMLID_155_">
			<g id="XMLID_205_">
				<path id="XMLID_209_" class="st0" d="M1294.1,898.6c3.2,0,3.2-5,0-5C1290.9,893.6,1290.9,898.6,1294.1,898.6L1294.1,898.6z"/>
			</g>
		</g>
		<rect id="XMLID_358_" x="1191.8" y="777.1" class="st16" width="122" height="250.1"/>
		<rect id="XMLID_357_" x="1199.6" y="789.1" class="st68" width="106.4" height="224"/>
		<rect id="XMLID_356_" x="1202.8" y="793.1" class="st69" width="100" height="216"/>
		<rect id="XMLID_355_" x="1252.8" y="793.1" class="st68" width="7.5" height="216"/>
		<path id="XMLID_354_" class="st70" d="M1267.6,910.1L1267.6,910.1c-1.5,0-2.8-1.2-2.8-2.8v-33.7c0-1.5,1.2-2.8,2.8-2.8l0,0
			c1.5,0,2.8,1.2,2.8,2.8v33.7C1270.3,908.8,1269.1,910.1,1267.6,910.1z"/>
		<path id="XMLID_353_" class="st70" d="M1243.8,910.1L1243.8,910.1c-1.5,0-2.8-1.2-2.8-2.8v-33.7c0-1.5,1.2-2.8,2.8-2.8l0,0
			c1.5,0,2.8,1.2,2.8,2.8v33.7C1246.6,908.8,1245.3,910.1,1243.8,910.1z"/>
		<polygon id="XMLID_263_" class="st71" points="1302.8,888.6 1302.8,865.1 1273.9,793.1 1264.5,793.1 		"/>
		<polygon id="XMLID_262_" class="st71" points="1302.8,845.9 1302.8,822.4 1291.1,793.1 1281.6,793.1 		"/>
	</g>
	<g id="XMLID_241_">
		<rect id="XMLID_261_" x="277.4" y="923.7" class="st72" width="247.9" height="21.3"/>
		<rect id="XMLID_260_" x="288.9" y="945" class="st72" width="14.2" height="82.4"/>
		<rect id="XMLID_259_" x="501" y="945" class="st72" width="14.2" height="82.4"/>
		<rect id="XMLID_258_" x="303.2" y="916.5" class="st16" width="98.2" height="7.1"/>
		<rect id="XMLID_257_" x="311.1" y="861.1" class="st73" width="83.1" height="55.4"/>
		<rect id="XMLID_256_" x="315.9" y="866.1" class="st74" width="72.5" height="45.6"/>
		<g id="XMLID_250_">
			<circle id="XMLID_255_" class="st75" cx="458.3" cy="909.5" r="1.1"/>
			<linearGradient id="XMLID_38_" gradientUnits="userSpaceOnUse" x1="439.6543" y1="859.4385" x2="470.5915" y2="885.7352">
				<stop  offset="0" style="stop-color:#FAF291"/>
				<stop  offset="0.4236" style="stop-color:#F36E44"/>
				<stop  offset="0.7389" style="stop-color:#F05455"/>
				<stop  offset="1" style="stop-color:#A85CA4"/>
			</linearGradient>
			<circle id="XMLID_254_" class="st76" cx="457.6" cy="874.7" r="22.1"/>
			
				<linearGradient id="XMLID_39_" gradientUnits="userSpaceOnUse" x1="518.0992" y1="840.911" x2="572.2393" y2="840.911" gradientTransform="matrix(-0.7071 -0.7071 0.7071 -0.7071 247.9539 1854.8308)">
				<stop  offset="0" style="stop-color:#FAFBFB;stop-opacity:0"/>
				<stop  offset="1" style="stop-color:#F6EC13"/>
			</linearGradient>
			<circle id="XMLID_253_" class="st77" cx="457.1" cy="874.7" r="27.1"/>
			<polygon id="XMLID_252_" class="st73" points="458.2,911.6 446.1,923.7 472,923.7 			"/>
			<polygon id="XMLID_251_" class="st73" points="454.2,902.9 458.2,906.9 462.4,902.7 			"/>
		</g>
		<rect id="XMLID_249_" x="318.7" y="870.2" class="st78" width="31.4" height="3.4"/>
		<rect id="XMLID_248_" x="318.7" y="878.4" class="st68" width="31.4" height="25"/>
		<rect id="XMLID_247_" x="352.6" y="870.2" class="st30" width="31.7" height="33.1"/>
		<circle id="XMLID_246_" class="st0" cx="362.1" cy="878.4" r="1.1"/>
		<circle id="XMLID_245_" class="st0" cx="379.7" cy="889.4" r="1.5"/>
		<circle id="XMLID_244_" class="st0" cx="361.1" cy="897" r="3.4"/>
		<line id="XMLID_243_" class="st79" x1="362.1" y1="878.4" x2="379.7" y2="889.4"/>
		<line id="XMLID_242_" class="st79" x1="379.7" y1="889.4" x2="361.1" y2="897"/>
	</g>
	<g id="XMLID_213_">
		<rect id="XMLID_240_" x="1436.9" y="923.7" class="st72" width="247.9" height="21.3"/>
		<rect id="XMLID_239_" x="1652.3" y="945" class="st72" width="18" height="82.2"/>
		<rect id="XMLID_238_" x="1447" y="945" class="st72" width="14.2" height="82.4"/>
		<rect id="XMLID_237_" x="1511.8" y="916.5" class="st75" width="98.2" height="7.1"/>
		<rect id="XMLID_236_" x="1519" y="861.1" class="st16" width="83.1" height="55.4"/>
		<rect id="XMLID_235_" x="1524.3" y="866" class="st74" width="72.5" height="45.6"/>
		<circle id="XMLID_234_" class="st75" cx="1468.4" cy="909" r="1.1"/>
		<linearGradient id="XMLID_40_" gradientUnits="userSpaceOnUse" x1="1444.0066" y1="877.1667" x2="1491.6818" y2="877.1667">
			<stop  offset="0" style="stop-color:#FAF291"/>
			<stop  offset="1" style="stop-color:#5ECAE7"/>
		</linearGradient>
		<path id="XMLID_233_" class="st80" d="M1491.7,865.2c0,3.7-22.8,2-27.1,12.6c-3.1,7.7,5.8,16,3.2,18.4
			c-2.7,2.5-15.3-3.2-20.7-13.8c-3.5-6.9-4.9-18,0.8-23c3.3-2.9,8.9-2.2,20-0.8C1473.8,859.5,1491.7,861.9,1491.7,865.2z"/>
		
			<linearGradient id="XMLID_41_" gradientUnits="userSpaceOnUse" x1="-198.3624" y1="1559.0034" x2="-134.0017" y2="1559.0034" gradientTransform="matrix(-0.7071 -0.7071 0.7071 -0.7071 247.9539 1854.8308)">
			<stop  offset="0" style="stop-color:#FAFBFB;stop-opacity:0"/>
			<stop  offset="1" style="stop-color:#71CDDD"/>
		</linearGradient>
		<circle id="XMLID_232_" class="st81" cx="1467.8" cy="870" r="32.2"/>
		<polygon id="XMLID_231_" class="st73" points="1468.3,911.1 1456.2,923.1 1482.1,923.1 		"/>
		<polygon id="XMLID_230_" class="st73" points="1464.3,902.4 1468.3,906.3 1472.5,902.1 		"/>
		<linearGradient id="XMLID_42_" gradientUnits="userSpaceOnUse" x1="1477.0851" y1="891.6239" x2="1480.9183" y2="879.9573">
			<stop  offset="0" style="stop-color:#FAF291"/>
			<stop  offset="1" style="stop-color:#5ECAE7"/>
		</linearGradient>
		<path id="XMLID_229_" class="st82" d="M1471.9,885.5c-0.5-1.6,0.3-3.7,1.8-4.6c2.4-1.5,5,1.5,7.4,0.1c2.3-1.3,1.5-5,3-5.4
			c1.5-0.4,4.3,2.6,4.3,5.4c-0.2,4.6-8,8.8-13.1,7.1C1474.6,887.9,1472.5,887.2,1471.9,885.5z"/>
		<linearGradient id="XMLID_43_" gradientUnits="userSpaceOnUse" x1="1473.7894" y1="873.1856" x2="1480.1227" y2="879.6856">
			<stop  offset="0" style="stop-color:#FAF291"/>
			<stop  offset="1" style="stop-color:#5ECAE7"/>
		</linearGradient>
		<ellipse id="XMLID_228_" class="st83" cx="1476.3" cy="875.7" rx="3.8" ry="2.3"/>
		<rect id="XMLID_227_" x="1527.8" y="870.7" class="st84" width="67.1" height="3.5"/>
		<rect id="XMLID_226_" x="1527.8" y="876.2" class="st30" width="33.6" height="13.4"/>
		<rect id="XMLID_225_" x="1563.7" y="876.2" class="st85" width="31.3" height="13.4"/>
		<rect id="XMLID_224_" x="1527.8" y="892.2" class="st18" width="67.1" height="16.6"/>
		<rect id="XMLID_223_" x="1532.8" y="904.2" class="st86" width="1.8" height="4.6"/>
		<rect id="XMLID_222_" x="1537.2" y="899.6" class="st86" width="2.5" height="9.3"/>
		<rect id="XMLID_221_" x="1541.9" y="896.9" class="st86" width="2.5" height="12"/>
		<rect id="XMLID_220_" x="1546.6" y="894.5" class="st86" width="2.5" height="14.4"/>
		<rect id="XMLID_219_" x="1551.3" y="900.5" class="st86" width="2.5" height="8.3"/>
		<rect id="XMLID_218_" x="1556" y="896.9" class="st86" width="2.5" height="12"/>
		<rect id="XMLID_217_" x="1560.7" y="899.6" class="st86" width="2.5" height="9.3"/>
		<rect id="XMLID_216_" x="1565.5" y="900.5" class="st86" width="2.5" height="8.3"/>
		<rect id="XMLID_215_" x="1570.2" y="894.5" class="st86" width="2.5" height="14.4"/>
		<rect id="XMLID_214_" x="1578.6" y="896.4" class="st6" width="12.9" height="5.8"/>
	</g>
	<g id="XMLID_168_">
		<path id="XMLID_212_" class="st18" d="M1347.8,898.1h-7c-1.9-0.9-3.2-2.9-3.1-5c0.1-2,1.3-3.7,3.1-4.6c2.3,0,4.7,0,7,0
			c1.8,0.9,2.9,2.8,2.9,4.8C1350.7,895.3,1349.6,897.2,1347.8,898.1z"/>
		<rect id="XMLID_211_" x="1356.4" y="910.6" class="st87" width="13" height="12.5"/>
		<rect id="XMLID_210_" x="1360.6" y="899.9" class="st18" width="4.5" height="10.7"/>
		<rect id="XMLID_204_" x="1329.6" y="923.1" class="st2" width="93" height="104.1"/>
		<rect id="XMLID_203_" x="1338.6" y="940.3" class="st88" width="74" height="27.8"/>
		<rect id="XMLID_202_" x="1338.6" y="981.3" class="st88" width="74" height="27.8"/>
		<path id="XMLID_172_" class="st17" d="M1389.8,963.6h-27.5c-1.2,0-2.1-1-2.1-2.1l0,0c0-1.2,1-2.1,2.1-2.1h27.5
			c1.2,0,2.1,1,2.1,2.1l0,0C1391.9,962.6,1391,963.6,1389.8,963.6z"/>
		<path id="XMLID_170_" class="st17" d="M1389.3,1003.4h-27.5c-1.2,0-2.1-1-2.1-2.1l0,0c0-1.2,1-2.1,2.1-2.1h27.5
			c1.2,0,2.1,1,2.1,2.1l0,0C1391.4,1002.4,1390.5,1003.4,1389.3,1003.4z"/>
		<rect id="XMLID_169_" x="1339.2" y="898.1" class="st89" width="10.2" height="25"/>
	</g>
</g>
<g id="Layer_3">
</g>
</svg>
