<?xml version="1.0" encoding="UTF-8" standalone="no"?>
<svg
   xmlns:dc="http://purl.org/dc/elements/1.1/"
   xmlns:cc="http://creativecommons.org/ns#"
   xmlns:rdf="http://www.w3.org/1999/02/22-rdf-syntax-ns#"
   xmlns:svg="http://www.w3.org/2000/svg"
   xmlns="http://www.w3.org/2000/svg"
   id="svg99"
   xml:space="preserve"
   style="enable-background:new 0 0 1920 1080;"
   viewBox="0 0 1920 1080"
   y="0px"
   x="0px"
   version="1.1"><metadata
   id="metadata105"><rdf:RDF><cc:Work
       rdf:about=""><dc:format>image/svg+xml</dc:format><dc:type
         rdf:resource="http://purl.org/dc/dcmitype/StillImage" /></cc:Work></rdf:RDF></metadata><defs
   id="defs103" />
<style
   id="style2"
   type="text/css">
	.st0{fill:#212121;}
	.st1{fill:#F58981;}
	.st2{fill:none;stroke:#F58981;stroke-width:4;stroke-miterlimit:10;}
	.st3{opacity:0.8;fill:#FACDD2;}
	.st4{fill:#9CDAE6;}
	.st5{fill:none;stroke:#9CDAE6;stroke-width:4;stroke-miterlimit:10;}
	.st6{fill:#B8D54B;}
	.st7{fill:#E57373;}
	.st8{fill:none;stroke:#B8D54B;stroke-width:4;stroke-miterlimit:10;}
	.st9{fill:#8E99CD;}
	.st10{fill:#FFD181;}
	.st11{fill:#70B2E2;}
	.st12{fill:#FAA629;}
	.st13{fill:#5E6BB2;}
	.st14{fill:#66BB6A;}
	.st15{fill:#FAF291;}
</style>
<g
   id="Layer_2">
	<rect
   height="1080"
   width="1920"
   class="st0"
   id="XMLID_1_" />
</g>
<g
   id="Layer_3">
	<rect
   height="908.9"
   width="202.6"
   class="st1"
   y="168"
   x="118.4"
   id="XMLID_11_" />
	<rect
   height="903.7"
   width="193.8"
   y="173.2"
   x="123.2"
   id="XMLID_10_" />
	<path
   d="M206,513h-51c-6.1,0-11-4.9-11-11v-51c0-6.1,4.9-11,11-11h51c6.1,0,11,4.9,11,11v51   C217,508.1,212.1,513,206,513z"
   class="st1"
   id="XMLID_16_" />
	<path
   d="M310,513h-51c-6.1,0-11-4.9-11-11v-51c0-6.1,4.9-11,11-11h51c6.1,0,11,4.9,11,11v51   C321,508.1,316.1,513,310,513z"
   class="st2"
   id="XMLID_15_" />
	<path
   d="M197.8,504.8h-34.5c-6.1,0-11-4.9-11-11v-34.5c0-6.1,4.9-11,11-11h34.5c6.1,0,11,4.9,11,11   v34.5C208.8,499.8,203.8,504.8,197.8,504.8z"
   class="st3"
   id="XMLID_75_" />
	<path
   d="M206,408h-51c-6.1,0-11-4.9-11-11v-51c0-6.1,4.9-11,11-11h51c6.1,0,11,4.9,11,11v51   C217,403.1,212.1,408,206,408z"
   class="st2"
   id="XMLID_14_" />
	<rect
   height="728.6"
   width="169.2"
   class="st4"
   y="350"
   x="0"
   id="XMLID_7_" />
	<rect
   height="724.5"
   width="161.9"
   y="354.2"
   x="4"
   id="XMLID_6_" />
	<rect
   height="181"
   width="37"
   class="st5"
   y="386"
   x="99.9"
   id="XMLID_17_" />
	<rect
   height="541.5"
   width="198.9"
   class="st6"
   y="538.5"
   x="118.4"
   id="XMLID_5_" />
	<rect
   height="181"
   width="37"
   class="st5"
   y="610"
   x="99.9"
   id="XMLID_19_" />
	<rect
   height="181"
   width="37"
   class="st5"
   y="612"
   x="27"
   id="XMLID_18_" />
	<rect
   height="181"
   width="37"
   class="st5"
   y="834"
   x="99.9"
   id="XMLID_21_" />
	<rect
   height="181"
   width="37"
   class="st4"
   y="836"
   x="27"
   id="XMLID_20_" />
	<rect
   height="538.5"
   width="194"
   y="541.5"
   x="123.2"
   id="XMLID_4_" />
	<path
   d="M206,300h-51c-6.1,0-11-4.9-11-11v-51c0-6.1,4.9-11,11-11h51c6.1,0,11,4.9,11,11v51   C217,295.1,212.1,300,206,300z"
   class="st1"
   id="XMLID_9_" />
	<path
   d="M197.8,291.8h-34.5c-6.1,0-11-4.9-11-11v-34.5c0-6.1,4.9-11,11-11h34.5c6.1,0,11,4.9,11,11   v34.5C208.8,286.8,203.8,291.8,197.8,291.8z"
   class="st3"
   id="XMLID_73_" />
	<path
   d="M310,300h-51c-6.1,0-11-4.9-11-11v-51c0-6.1,4.9-11,11-11h51c6.1,0,11,4.9,11,11v51   C321,295.1,316.1,300,310,300z"
   class="st2"
   id="XMLID_12_" />
	<path
   d="M310,408h-51c-6.1,0-11-4.9-11-11v-51c0-6.1,4.9-11,11-11h51c6.1,0,11,4.9,11,11v51   C321,403.1,316.1,408,310,408z"
   class="st1"
   id="XMLID_13_" />
	<path
   d="M301.9,399.9h-34.9c-6.1,0-11-4.9-11-11v-34.9c0-6.1,4.9-11,11-11h34.9c6.1,0,11,4.9,11,11   v34.9C312.9,395,308,399.9,301.9,399.9z"
   class="st7"
   id="XMLID_74_" />
	<rect
   height="49.5"
   width="211"
   class="st8"
   y="573"
   x="144"
   id="XMLID_22_" />
	<rect
   height="181"
   width="37"
   class="st4"
   y="388"
   x="27"
   id="XMLID_8_" />
	<rect
   height="49.5"
   width="211"
   class="st6"
   y="651"
   x="142.5"
   id="XMLID_23_" />
	<rect
   height="49.5"
   width="211"
   class="st8"
   y="729.3"
   x="143.3"
   id="XMLID_25_" />
	<rect
   height="49.5"
   width="211"
   class="st6"
   y="807.3"
   x="141.8"
   id="XMLID_24_" />
	<rect
   height="49.5"
   width="211"
   class="st6"
   y="881.5"
   x="142.5"
   id="XMLID_27_" />
	<rect
   height="49.5"
   width="211"
   class="st8"
   y="959.5"
   x="141"
   id="XMLID_26_" />
	<rect
   height="39.1"
   width="211"
   class="st6"
   y="1039.5"
   x="141"
   id="XMLID_28_" />
	<rect
   height="87.5"
   width="43.5"
   class="st6"
   y="451"
   x="227.5"
   id="XMLID_29_" />
	<rect
   height="30.5"
   width="46.3"
   class="st6"
   y="508"
   x="271"
   id="XMLID_30_" />
	<rect
   height="43.7"
   width="13.7"
   class="st6"
   y="494.7"
   x="118.4"
   id="XMLID_31_" />
	<rect
   height="80.5"
   width="26"
   class="st6"
   y="459.5"
   x="132"
   id="XMLID_32_" />
	<rect
   height="21.9"
   width="141"
   class="st6"
   y="516.6"
   x="130"
   id="XMLID_33_" />
	<rect
   height="31.5"
   width="24"
   class="st6"
   y="494.7"
   x="205.8"
   id="XMLID_34_" />
	<rect
   height="74"
   width="20"
   class="st4"
   y="276"
   id="XMLID_35_" />
	<rect
   height="24"
   width="149.2"
   class="st4"
   y="326"
   x="20"
   id="XMLID_36_" />
	<rect
   height="74"
   width="27.5"
   class="st4"
   y="276"
   x="141.8"
   id="XMLID_37_" />
	<rect
   height="11"
   width="145.5"
   class="st4"
   y="295"
   x="10"
   id="XMLID_38_" />
	<rect
   height="33.2"
   width="4.8"
   class="st1"
   y="140"
   x="118.4"
   id="XMLID_39_" />
	<rect
   height="9"
   width="209.6"
   class="st1"
   y="131"
   x="118.4"
   id="XMLID_40_" />
	<rect
   height="28"
   width="6.5"
   class="st1"
   y="140"
   x="174"
   id="XMLID_42_" />
	<rect
   height="28"
   width="6.5"
   class="st1"
   y="140"
   x="231.8"
   id="XMLID_41_" />
	<rect
   height="28"
   width="6.5"
   class="st1"
   y="140"
   x="281.3"
   id="XMLID_43_" />
	<rect
   height="876.6"
   width="240"
   class="st9"
   y="201.1"
   x="1680"
   id="XMLID_47_" />
	<rect
   height="865.8"
   width="229.6"
   y="212"
   x="1685.7"
   id="XMLID_46_" />
	<rect
   height="10"
   width="240"
   class="st9"
   y="749.3"
   x="1680.2"
   id="XMLID_58_" />
	<rect
   height="10"
   width="240"
   class="st9"
   y="825.3"
   x="1680.2"
   id="XMLID_57_" />
	<rect
   height="10"
   width="240"
   class="st9"
   y="532.8"
   x="1680.5"
   id="XMLID_53_" />
	<rect
   height="10"
   width="240"
   class="st9"
   y="597.5"
   x="1679.7"
   id="XMLID_56_" />
	<rect
   height="10"
   width="240"
   class="st9"
   y="673.5"
   x="1679.7"
   id="XMLID_55_" />
	<rect
   height="10"
   width="240"
   class="st9"
   y="456.8"
   x="1680.5"
   id="XMLID_54_" />
	<rect
   height="10"
   width="240"
   class="st9"
   y="890.1"
   x="1679.5"
   id="XMLID_60_" />
	<rect
   height="10"
   width="240"
   class="st9"
   y="966.1"
   x="1679.5"
   id="XMLID_59_" />
	<rect
   height="10"
   width="240"
   class="st9"
   y="1041.9"
   x="1680"
   id="XMLID_62_" />
	<rect
   height="71"
   width="169"
   class="st9"
   y="602.5"
   x="1697"
   id="XMLID_67_" />
	<rect
   height="71"
   width="169"
   class="st9"
   y="895.5"
   x="1706"
   id="XMLID_69_" />
	<rect
   height="71"
   width="169"
   class="st9"
   y="973.5"
   x="1706"
   id="XMLID_70_" />
	<rect
   height="649.5"
   width="169.2"
   class="st10"
   y="426.1"
   x="1595"
   id="XMLID_45_" />
	<rect
   height="635.6"
   width="161.9"
   y="440"
   x="1599"
   id="XMLID_44_" />
	<rect
   height="115.3"
   width="193.4"
   class="st10"
   y="494.7"
   x="1567.6"
   id="XMLID_48_" />
	<rect
   height="115.3"
   width="193.4"
   class="st10"
   y="714.3"
   x="1567.6"
   id="XMLID_49_" />
	<rect
   height="115.3"
   width="193.4"
   class="st10"
   y="714.3"
   x="1567.6"
   id="XMLID_79_" />
	<rect
   height="115.3"
   width="193.4"
   class="st10"
   y="931"
   x="1567.6"
   id="XMLID_50_" />
	<rect
   height="10"
   width="240"
   class="st9"
   y="305"
   x="1680"
   id="XMLID_51_" />
	<rect
   height="10"
   width="240"
   class="st9"
   y="381"
   x="1680"
   id="XMLID_52_" />
	<rect
   height="868.1"
   width="12"
   class="st9"
   y="212"
   x="1866"
   id="XMLID_61_" />
	<rect
   height="103"
   width="42"
   class="st9"
   y="212"
   x="1878"
   id="XMLID_63_" />
	<rect
   height="75.8"
   width="42.5"
   class="st9"
   y="391"
   x="1878"
   id="XMLID_64_" />
	<rect
   height="68.5"
   width="40.3"
   class="st9"
   y="682.3"
   x="1875"
   id="XMLID_66_" />
	<rect
   height="74.4"
   width="45.3"
   class="st9"
   y="750.9"
   x="1875"
   id="XMLID_65_" />
	<rect
   height="71"
   width="186.3"
   class="st9"
   y="314.5"
   x="1679.7"
   id="XMLID_68_" />
	<rect
   height="27.9"
   width="239.5"
   class="st9"
   y="173.2"
   x="1680.5"
   id="XMLID_71_" />
	<rect
   height="66.2"
   width="29.1"
   class="st9"
   y="121"
   x="1866"
   id="XMLID_72_" />
	<rect
   height="90.5"
   width="18.5"
   class="st11"
   y="471.3"
   x="36.3"
   id="XMLID_76_" />
	<rect
   height="90.5"
   width="18.5"
   class="st11"
   y="854.9"
   x="36.3"
   id="XMLID_77_" />
	<rect
   height="87.4"
   width="146.5"
   class="st12"
   y="508.7"
   x="1575.6"
   id="XMLID_78_" />
	<rect
   height="87.4"
   width="146.5"
   class="st12"
   y="737.9"
   x="1612.4"
   id="XMLID_80_" />
	<rect
   height="87.4"
   width="146.5"
   class="st12"
   y="944.9"
   x="1575.6"
   id="XMLID_81_" />
	<rect
   height="56.6"
   width="148.5"
   class="st13"
   y="321.7"
   x="1684.7"
   id="XMLID_82_" />
	<rect
   height="71.4"
   width="29.1"
   class="st13"
   y="225.1"
   x="1887"
   id="XMLID_83_" />
	<rect
   height="71.4"
   width="29.1"
   class="st13"
   y="385.5"
   x="1887"
   id="XMLID_84_" />
	<rect
   height="71.4"
   width="29.1"
   class="st13"
   y="603.7"
   x="1833.3"
   id="XMLID_85_" />
	<rect
   height="71.4"
   width="29.1"
   class="st13"
   y="602.3"
   x="1775.9"
   id="XMLID_86_" />
	<rect
   height="141.8"
   width="29.1"
   class="st13"
   y="683.5"
   x="1884.5"
   id="XMLID_87_" />
	<rect
   height="141.8"
   width="29.1"
   class="st13"
   y="900.2"
   x="1833.3"
   id="XMLID_88_" />
	<rect
   height="141.8"
   width="29.1"
   class="st13"
   y="900.2"
   x="1775.9"
   id="XMLID_89_" />
	<rect
   height="39.5"
   width="168.5"
   class="st14"
   y="656"
   x="163.8"
   id="XMLID_90_" />
	<rect
   height="36.8"
   width="162.1"
   class="st14"
   y="815"
   x="165.9"
   id="XMLID_91_" />
	<rect
   height="30.6"
   width="134.8"
   class="st14"
   y="1043.8"
   x="182.1"
   id="XMLID_92_" />
</g>
<g
   id="Layer_1">
	<rect
   height="1076.9"
   width="1285.5"
   class="st15"
   x="317.3"
   id="XMLID_3_" />
	<rect
   height="1080"
   width="1278"
   x="321"
   id="XMLID_2_" />
</g>
</svg>