<?xml version="1.0" encoding="utf-8"?>
<!-- Generator: Adobe Illustrator 19.0.0, SVG Export Plug-In . SVG Version: 6.00 Build 0)  -->
<svg version="1.1" id="Layer_1" xmlns="http://www.w3.org/2000/svg" xmlns:xlink="http://www.w3.org/1999/xlink" x="0px" y="0px"
	 viewBox="654 -144 1920 1080" style="enable-background:new 654 -144 1920 1080;" xml:space="preserve">
<style type="text/css">
	.st0{fill:#424242;}
	.st1{fill:#616161;}
	.st2{fill:#212121;}
	.st3{fill:none;}
	.st4{fill:url(#XMLID_2_);}
	.st5{fill:url(#XMLID_3_);}
	.st6{fill:url(#XMLID_4_);}
	.st7{fill:url(#XMLID_5_);}
	.st8{fill:url(#XMLID_6_);}
	.st9{fill:url(#XMLID_7_);}
	.st10{fill:url(#XMLID_8_);}
	.st11{fill:url(#XMLID_9_);}
	.st12{fill:url(#XMLID_10_);}
	.st13{fill:url(#XMLID_11_);}
	.st14{fill:url(#XMLID_12_);}
	.st15{fill:url(#XMLID_13_);}
	.st16{fill:url(#XMLID_22_);}
	.st17{opacity:0.53;fill:#84CBA1;enable-background:new    ;}
	.st18{fill:url(#XMLID_23_);}
	.st19{fill:url(#XMLID_25_);}
	.st20{fill:url(#XMLID_26_);}
	.st21{fill:url(#XMLID_37_);}
	.st22{opacity:0.4;fill:#9CDAE6;enable-background:new    ;}
	.st23{opacity:0.47;fill:#89D0C2;enable-background:new    ;}
	.st24{opacity:0.4;fill:url(#XMLID_38_);enable-background:new    ;}
	
		.st25{opacity:0.6;fill:none;stroke:#FFFFFF;stroke-width:7.406;stroke-linecap:round;stroke-miterlimit:10;enable-background:new    ;}
	.st26{fill:#317E3D;}
	.st27{fill:#4DAF4E;}
	.st28{fill:#A5D5A7;}
	.st29{fill:#4CB6AC;}
	.st30{fill:#04897B;}
	.st31{opacity:0.6;fill:#398BCB;enable-background:new    ;}
	.st32{fill:url(#XMLID_39_);}
	.st33{fill:url(#XMLID_150_);}
	.st34{fill:url(#XMLID_151_);}
	
		.st35{opacity:0.75;fill:none;stroke:#FAFBFB;stroke-width:3.8336;stroke-linecap:round;stroke-miterlimit:10;enable-background:new    ;}
	.st36{fill:url(#XMLID_152_);}
	.st37{opacity:0.25;fill:#F1F2F2;stroke:#FAFBFB;stroke-width:0.7667;stroke-miterlimit:10;enable-background:new    ;}
	.st38{fill:url(#XMLID_153_);}
	.st39{fill:url(#XMLID_154_);}
	.st40{fill:url(#XMLID_155_);}
	.st41{fill:url(#XMLID_156_);}
	.st42{fill:#FFFFFF;}
	.st43{opacity:0.8;}
	.st44{opacity:0.2;fill:url(#XMLID_157_);enable-background:new    ;}
	.st45{opacity:0.47;fill:#8E99CD;enable-background:new    ;}
	.st46{opacity:0.53;fill:#2B66B1;enable-background:new    ;}
	.st47{fill:url(#XMLID_158_);}
	.st48{fill:url(#XMLID_159_);}
	.st49{fill:url(#XMLID_160_);}
	.st50{fill:url(#XMLID_161_);}
	.st51{fill:url(#XMLID_162_);}
	.st52{fill:url(#XMLID_163_);}
	.st53{fill:url(#XMLID_164_);}
	.st54{fill:url(#XMLID_165_);}
	.st55{fill:url(#XMLID_166_);}
	.st56{fill:url(#XMLID_167_);}
	.st57{fill:url(#XMLID_168_);}
	.st58{fill:url(#XMLID_169_);}
	.st59{fill:url(#XMLID_170_);}
	.st60{opacity:0.25;fill:#B5E4FA;enable-background:new    ;}
	.st61{fill:url(#XMLID_171_);}
	.st62{fill:url(#XMLID_172_);}
	.st63{fill:url(#XMLID_173_);}
	.st64{fill:url(#XMLID_174_);}
	.st65{fill:url(#XMLID_175_);}
	.st66{fill:url(#XMLID_176_);}
	.st67{fill:url(#XMLID_177_);}
	.st68{fill:url(#XMLID_178_);}
	.st69{fill:url(#XMLID_179_);}
	.st70{fill:url(#XMLID_180_);}
	.st71{fill:url(#XMLID_181_);}
	
		.st72{opacity:0.8;fill:none;stroke:#FAFBFB;stroke-width:6.3977;stroke-linecap:round;stroke-linejoin:round;stroke-miterlimit:10;enable-background:new    ;}
	.st73{opacity:0.3;fill:#212121;enable-background:new    ;}
	.st74{opacity:0.2;fill:#212121;enable-background:new    ;}
	.st75{fill:#FAFAFA;}
</style>
<rect x="654" y="-118" class="st0" width="1920" height="1037.7"/>
<rect x="680" y="-91.2" class="st1" width="1868" height="986"/>
<g>
	<rect x="706" y="-65.8" class="st2" width="1815.9" height="944.5"/>
	<g id="Layer_1_1_">
		<rect id="XMLID_14_" x="766.1" y="-62.4" class="st2" width="1754.8" height="895.2"/>
		<g id="XMLID_17_">
			<rect id="XMLID_18_" x="2439.8" y="727.9" class="st3" width="81.1" height="150.8"/>
			<rect id="XMLID_40_" x="2202.9" y="727.9" class="st3" width="152" height="150.8"/>
			<linearGradient id="XMLID_2_" gradientUnits="userSpaceOnUse" x1="2354.0344" y1="672.0939" x2="2358.9089" y2="1076.6705">
				<stop  offset="0.1921" style="stop-color:#4766B0"/>
				<stop  offset="1" style="stop-color:#44A9DF"/>
			</linearGradient>
			<path id="XMLID_43_" class="st4" d="M2356.2,727.9h-1.2v150.8l0,0V733.8C2354.9,731.7,2355.4,729.7,2356.2,727.9z"/>
			<linearGradient id="XMLID_3_" gradientUnits="userSpaceOnUse" x1="2381.8767" y1="671.7585" x2="2386.7512" y2="1076.3351">
				<stop  offset="0.1921" style="stop-color:#4766B0"/>
				<stop  offset="1" style="stop-color:#44A9DF"/>
			</linearGradient>
			<path id="XMLID_44_" class="st5" d="M2383.2,727.9h-1.2c0.9,1.8,1.2,3.8,1.2,5.9V727.9z"/>
			<linearGradient id="XMLID_4_" gradientUnits="userSpaceOnUse" x1="2367.5615" y1="671.931" x2="2372.4358" y2="1076.5077">
				<stop  offset="0.1921" style="stop-color:#4766B0"/>
				<stop  offset="1" style="stop-color:#44A9DF"/>
			</linearGradient>
			<path id="XMLID_141_" class="st6" d="M2381.9,727.9h-25.7c-0.9,1.8-1.2,3.8-1.2,5.9v144.9h28.4V733.8
				C2383.2,731.7,2382.7,729.7,2381.9,727.9z"/>
			<linearGradient id="XMLID_5_" gradientUnits="userSpaceOnUse" x1="2367.6433" y1="678.7202" x2="2371.8262" y2="1025.9071">
				<stop  offset="0.1921" style="stop-color:#4766B0"/>
				<stop  offset="1" style="stop-color:#44A9DF"/>
			</linearGradient>
			<path id="XMLID_140_" class="st7" d="M2381.9,727.9h-25.7c-0.9,1.8-1.2,3.8-1.2,5.9v144.9h28.4V733.8
				C2383.2,731.7,2382.7,729.7,2381.9,727.9z"/>
			<linearGradient id="XMLID_6_" gradientUnits="userSpaceOnUse" x1="2381.7581" y1="665.9577" x2="2387.4707" y2="1140.1266">
				<stop  offset="0.1921" style="stop-color:#4766B0"/>
				<stop  offset="1" style="stop-color:#44A9DF"/>
			</linearGradient>
			<polygon id="XMLID_142_" class="st8" points="2383.2,727.9 2383.2,733.8 2383.2,733.8 2383.2,878.7 2383.7,878.7 2383.7,727.9 
							"/>
			<linearGradient id="XMLID_7_" gradientUnits="userSpaceOnUse" x1="2396.0112" y1="671.5944" x2="2400.885" y2="1076.1288">
				<stop  offset="0.1921" style="stop-color:#4766B0"/>
				<stop  offset="1" style="stop-color:#44A9DF"/>
			</linearGradient>
			<rect id="XMLID_144_" x="2383.7" y="727.9" class="st9" width="27.9" height="150.8"/>
			<linearGradient id="XMLID_8_" gradientUnits="userSpaceOnUse" x1="2395.9412" y1="665.7869" x2="2401.6541" y2="1139.9556">
				<stop  offset="0.1921" style="stop-color:#4766B0"/>
				<stop  offset="1" style="stop-color:#44A9DF"/>
			</linearGradient>
			<rect id="XMLID_143_" x="2383.7" y="727.9" class="st10" width="27.9" height="150.8"/>
			<linearGradient id="XMLID_9_" gradientUnits="userSpaceOnUse" x1="2381.6353" y1="678.5517" x2="2385.8184" y2="1025.7386">
				<stop  offset="0.1921" style="stop-color:#4766B0"/>
				<stop  offset="1" style="stop-color:#44A9DF"/>
			</linearGradient>
			<rect id="XMLID_146_" x="2383.2" y="733.8" class="st11" width="0" height="144.9"/>
			<linearGradient id="XMLID_10_" gradientUnits="userSpaceOnUse" x1="2381.4836" y1="665.961" x2="2387.1963" y2="1140.1298">
				<stop  offset="0.1921" style="stop-color:#4766B0"/>
				<stop  offset="1" style="stop-color:#44A9DF"/>
			</linearGradient>
			<rect id="XMLID_145_" x="2383.2" y="733.8" class="st12" width="0" height="144.9"/>
			<linearGradient id="XMLID_11_" gradientUnits="userSpaceOnUse" x1="2424.1858" y1="671.2024" x2="2429.0605" y2="1075.7808">
				<stop  offset="0.1921" style="stop-color:#4766B0"/>
				<stop  offset="1" style="stop-color:#44A9DF"/>
			</linearGradient>
			<rect id="XMLID_147_" x="2411.8" y="727.9" class="st13" width="27.9" height="150.8"/>
			<linearGradient id="XMLID_12_" gradientUnits="userSpaceOnUse" x1="2410.1946" y1="671.4235" x2="2415.0684" y2="1075.9579">
				<stop  offset="0.1921" style="stop-color:#4766B0"/>
				<stop  offset="1" style="stop-color:#44A9DF"/>
			</linearGradient>
			<rect id="XMLID_149_" x="2411.5" y="727.9" class="st14" width="0.5" height="150.8"/>
			<linearGradient id="XMLID_13_" gradientUnits="userSpaceOnUse" x1="2410.1938" y1="671.371" x2="2415.0684" y2="1075.9493">
				<stop  offset="0.1921" style="stop-color:#4766B0"/>
				<stop  offset="1" style="stop-color:#44A9DF"/>
			</linearGradient>
			<rect id="XMLID_148_" x="2411.5" y="727.9" class="st15" width="0.5" height="150.8"/>
		</g>
		
			<linearGradient id="XMLID_22_" gradientUnits="userSpaceOnUse" x1="908.4368" y1="307.8213" x2="853.4113" y2="384.3813" gradientTransform="matrix(0.9928 -0.1198 0.1198 0.9928 -41.1757 435.2756)">
			<stop  offset="0.1921" style="stop-color:#25A69A"/>
			<stop  offset="0.8621" style="stop-color:#89D0C2"/>
		</linearGradient>
		<path id="XMLID_533_" class="st16" d="M782,730.9c19.7-47,39.3-94.1,58.9-141c0.4-0.5,3.2-4.8,8.9-5.1c6.3-0.4,9.8,4.8,10,5.1
			c21.5,46.3,43,92.6,64.4,138.9C876.9,729.4,829.5,730.1,782,730.9z"/>
		<circle id="XMLID_532_" class="st17" cx="882.8" cy="649.8" r="143.1"/>
		
			<linearGradient id="XMLID_23_" gradientUnits="userSpaceOnUse" x1="980.6708" y1="287.8557" x2="910.374" y2="385.6632" gradientTransform="matrix(0.9928 -0.1198 0.1198 0.9928 -41.1757 435.2756)">
			<stop  offset="0.1921" style="stop-color:#25A69A"/>
			<stop  offset="0.8621" style="stop-color:#89D0C2"/>
		</linearGradient>
		<path id="XMLID_531_" class="st18" d="M819.4,729.7c25.1-60.1,50.2-120.1,75.3-180.2c0.5-0.7,4.3-6,11.3-6.5
			c8-0.5,12.6,6.1,12.9,6.5c27.4,59.1,54.8,118.3,82.2,177.4C940.5,728,879.9,729,819.4,729.7z"/>
		<linearGradient id="XMLID_25_" gradientUnits="userSpaceOnUse" x1="740.9299" y1="725.1505" x2="1003.2448" y2="725.1505">
			<stop  offset="0.1921" style="stop-color:#25A69A"/>
			<stop  offset="0.8621" style="stop-color:#89D0C2"/>
		</linearGradient>
		<path id="XMLID_530_" class="st19" d="M873.9,701.5c-33.3-15.2-47.2-39.1-86.9-43.2c-19.1-2-35.3,1.5-46,4.9
			c6.7,69.7,63.7,125.8,135.7,129.1c20.2,1,38.5-3.2,42.7-4.4c50.2-14.2,91-60.5,82.8-77.6C993.1,691.7,937.6,730.6,873.9,701.5z"/>
		
			<linearGradient id="XMLID_26_" gradientUnits="userSpaceOnUse" x1="1267.0392" y1="-793.5729" x2="1171.6702" y2="-755.4253" gradientTransform="matrix(0.8435 -0.5372 0.5372 0.8435 269.5308 2005.5847)">
			<stop  offset="0.1921" style="stop-color:#25A69A"/>
			<stop  offset="0.8621" style="stop-color:#89D0C2"/>
		</linearGradient>
		<path id="XMLID_529_" class="st20" d="M1014.3,702.2c-26.3-16.7-48.9-21.9-66.9-22.4c-54.7-1.8-74.5,37.1-134.9,33.1
			c-30.8-2-50.2-13.8-66.5-23.1c16.6,56.8,67.5,99.4,129.6,102.4C937.8,795.2,992.5,757.3,1014.3,702.2z"/>
		<linearGradient id="XMLID_37_" gradientUnits="userSpaceOnUse" x1="1030.4106" y1="805.7956" x2="811.8322" y2="709.5872">
			<stop  offset="0.1921" style="stop-color:#25A69A"/>
			<stop  offset="0.8621" style="stop-color:#89D0C2"/>
		</linearGradient>
		<path id="XMLID_528_" class="st21" d="M998.5,731.7c-16-14-30.2-18.2-39-19.8c-46.5-7.7-84.8,36.5-134.4,33.1
			c-29.4-1.9-48.4-12.8-64.2-22c17.4,29,44.7,51.5,77.4,62.2c6.2,2,19.7,6,37.2,6.9c42.2,1.9,73-15.9,82.4-21.9
			C977.4,758.1,990.3,743.2,998.5,731.7z"/>
		<path id="XMLID_527_" class="st22" d="M838.3,687.3c-37.2-58.5-25.8-134,23.7-179.1c-19.4,2.9-38.5,9.6-56.1,20.8
			c-66.6,42.5-86.3,130.9-43.8,197.6c42.5,66.6,130.9,86.3,197.6,43.8c9.6-6.1,18.1-13.3,25.9-21.1C929.9,761,870.6,738,838.3,687.3
			z"/>
		<circle id="XMLID_526_" class="st23" cx="882.8" cy="649.8" r="155.4"/>
		
			<linearGradient id="XMLID_38_" gradientUnits="userSpaceOnUse" x1="1395.1094" y1="-858.6474" x2="1104.5516" y2="-772.1796" gradientTransform="matrix(0.8435 -0.5372 0.5372 0.8435 269.5308 2005.5847)">
			<stop  offset="0" style="stop-color:#95C8EC"/>
			<stop  offset="0.798" style="stop-color:#25A69A"/>
		</linearGradient>
		<circle id="XMLID_525_" class="st24" cx="882.8" cy="649.8" r="155.4"/>
		<path id="XMLID_523_" class="st25" d="M911.1,526.9c13.9,3.4,27.1,9.3,39.3,17.1"/>
		<path id="XMLID_522_" class="st25" d="M963.6,553.9c8,6.8,15.5,14.6,21.9,23.5"/>
		<g id="XMLID_519_">
			<path id="XMLID_521_" class="st26" d="M956.3,668c1.1-3.2-1.2-20.5-5.7-27.8c-1.2-2-2.5-3-3.4-3.3c-0.2,3-0.3,7.9,0.5,13.5
				C949.4,663.8,955.1,671.2,956.3,668z"/>
			<path id="XMLID_520_" class="st26" d="M954.4,668c-1.1-3.2,1.2-20.5,5.7-27.8c1.2-2,2.5-3,3.4-3.3c0.2,3,0.3,7.9-0.5,13.5
				C961.3,663.8,955.5,671.2,954.4,668z"/>
		</g>
		<g id="XMLID_516_">
			<path id="XMLID_518_" class="st27" d="M956.5,678.3c1.9-2.7-2-16.3-9.6-22.1c-2.1-1.6-4.1-2.3-5.7-2.7c-0.2,2.3-0.4,6.3,0.9,10.6
				C945.1,675,954.6,680.9,956.5,678.3z"/>
			<path id="XMLID_517_" class="st27" d="M953.3,678.3c-1.9-2.7,2-16.3,9.6-22.1c2.1-1.6,4.1-2.3,5.7-2.7c0.2,2.3,0.4,6.3-0.9,10.6
				C964.7,675,955.2,680.9,953.3,678.3z"/>
		</g>
		<g id="XMLID_513_">
			<path id="XMLID_515_" class="st28" d="M956.6,684.9c2.1-2-2.2-12.3-10.1-16.6c-2.3-1.1-4.4-1.7-6.2-2c-0.3,1.7-0.5,4.8,0.9,8
				C944.3,682.4,954.6,686.9,956.6,684.9z"/>
			<path id="XMLID_514_" class="st28" d="M953.2,684.9c-2.1-2,2.2-12.3,10.1-16.6c2.3-1.1,4.4-1.7,6.2-2c0.3,1.7,0.5,4.8-0.9,8
				C965.4,682.4,955.2,686.9,953.2,684.9z"/>
		</g>
		<g id="XMLID_510_">
			<path id="XMLID_512_" class="st29" d="M780.8,653.8c0.8-1.6-0.8-10-3.5-13.7c-0.9-1.1-1.5-1.4-2.2-1.6c-0.1,1.4-0.2,3.9,0.3,6.6
				C776.4,651.8,780,655.5,780.8,653.8z"/>
			<path id="XMLID_511_" class="st29" d="M779.4,653.8c-0.8-1.6,0.8-10,3.5-13.7c0.9-1.1,1.5-1.4,2.2-1.6c0.1,1.4,0.2,3.9-0.3,6.6
				C783.8,651.8,780.2,655.5,779.4,653.8z"/>
		</g>
		<g id="XMLID_507_">
			<path id="XMLID_509_" class="st30" d="M781.5,658.9c1.7-1.6-1.8-10.4-8.6-14c-1.9-1.1-3.7-1.4-5.3-1.7c-0.2,1.4-0.4,4,0.8,6.8
				C771.2,656.8,779.8,660.6,781.5,658.9z"/>
			<path id="XMLID_508_" class="st30" d="M778.8,658.9c-1.7-1.6,1.8-10.4,8.6-14c1.9-1.1,3.7-1.4,5.3-1.7c0.2,1.4,0.4,4-0.8,6.8
				C789.2,656.8,780.5,660.6,778.8,658.9z"/>
		</g>
		<circle id="XMLID_29_" class="st31" cx="2361" cy="95.2" r="96.7"/>
		
			<linearGradient id="XMLID_39_" gradientUnits="userSpaceOnUse" x1="2421.1548" y1="735.9391" x2="2411.4431" y2="710.8929" gradientTransform="matrix(0.9502 0.3115 -0.3115 0.9502 286.5014 -1347.4218)">
			<stop  offset="0" style="stop-color:#372F8B"/>
			<stop  offset="1" style="stop-color:#5D54A4"/>
		</linearGradient>
		<path id="XMLID_27_" class="st32" d="M2361,103.7c-24.4-16.1-40.3-34.2-63.3-28.8c-11.4,2.6-21.1,10-27.8,16.3
			c-1.7,39.8,22.9,77.6,62.7,90.6c46.8,15.4,97.1-9.4,114-55.2"/>
		<linearGradient id="XMLID_150_" gradientUnits="userSpaceOnUse" x1="2364.3491" y1="149.1743" x2="2360.6934" y2="108.9604">
			<stop  offset="0" style="stop-color:#F05455"/>
			<stop  offset="1" style="stop-color:#5D54A4"/>
		</linearGradient>
		<path id="XMLID_24_" class="st33" d="M2416.2,96c3.5,0.6,7.4,1.3,11.1,2.5c1.8,0.6,11.9,4,23.5,12 M2416.2,96
			c-42.1-6.5-68,22.9-112.5,12.8c-13.2-3.1-24.5-8.7-33.9-15.3c-0.8,39.1,23.8,75.6,62.8,88.4c47.9,15.8,99.3-10.4,115.1-58.2
			c1.4-4.3,2.5-8.7,3.2-13.1"/>
		<linearGradient id="XMLID_151_" gradientUnits="userSpaceOnUse" x1="2354.8682" y1="188.2309" x2="2359.438" y2="119.6843">
			<stop  offset="0" style="stop-color:#F05455"/>
			<stop  offset="1" style="stop-color:#5D54A4"/>
		</linearGradient>
		<path id="XMLID_21_" class="st34" d="M2407.4,113.7c4.3,0.6,8.7,1.4,13.4,2.8c1.9,0.6,12.8,4.3,24.7,13 M2407.4,113.7
			c-40.9-5.2-66.6,23.1-110.2,13.1c-9.2-2.1-17.3-5.4-24.5-9.6c7.4,29.4,29.1,54.4,60.1,64.6c45.9,15.1,95.1-8.3,113-52.4"/>
		<path id="XMLID_20_" class="st35" d="M2312.3,29.4c-5.9,4.4-11.5,9.6-16,15.7"/>
		
			<linearGradient id="XMLID_152_" gradientUnits="userSpaceOnUse" x1="2397.7563" y1="717.5854" x2="2397.7563" y2="707.0328" gradientTransform="matrix(0.9502 0.3115 -0.3115 0.9502 286.5014 -1347.4218)">
			<stop  offset="0" style="stop-color:#F08F85;stop-opacity:0"/>
			<stop  offset="1" style="stop-color:#8CAEDC"/>
		</linearGradient>
		<circle id="XMLID_19_" class="st36" cx="2343" cy="76.3" r="5.3"/>
		<path id="XMLID_16_" class="st37" d="M2409.7,18.2c12.6,21.8,16.2,48.5,7.8,74.3c-15.8,47.9-67.2,73.9-115.1,58.2
			c-7.4-2.4-14-5.5-20.3-9.6c10.9,18.6,28.4,33.5,50.3,40.8c47.9,15.8,99.3-10.4,115.1-58.2C2460.8,83,2444.2,39.9,2409.7,18.2z"/>
		
			<linearGradient id="XMLID_153_" gradientUnits="userSpaceOnUse" x1="2290.5039" y1="696.7354" x2="2290.5039" y2="647.0474" gradientTransform="matrix(0.9502 0.3115 -0.3115 0.9502 286.5014 -1347.4218)">
			<stop  offset="0" style="stop-color:#F08F85;stop-opacity:0"/>
			<stop  offset="1" style="stop-color:#8CAEDC"/>
		</linearGradient>
		<circle id="XMLID_31_" class="st38" cx="2253.6" cy="4.5" r="24.8"/>
		
			<linearGradient id="XMLID_154_" gradientUnits="userSpaceOnUse" x1="2448.7454" y1="1460.692" x2="2448.7454" y2="1437.6914" gradientTransform="matrix(0.9502 0.3115 -0.3115 0.9502 286.5014 -1347.4218)">
			<stop  offset="0" style="stop-color:#F08F85;stop-opacity:0"/>
			<stop  offset="0.8276" style="stop-color:#5981C1"/>
		</linearGradient>
		<circle id="XMLID_33_" class="st39" cx="2161.8" cy="792.5" r="11.6"/>
		
			<linearGradient id="XMLID_155_" gradientUnits="userSpaceOnUse" x1="1369.7845" y1="1821.4115" x2="1369.7845" y2="1789.7787" gradientTransform="matrix(0.9502 0.3115 -0.3115 0.9502 286.5014 -1347.4218)">
			<stop  offset="0" style="stop-color:#F08F85;stop-opacity:0"/>
			<stop  offset="0.8571" style="stop-color:#62C3A6"/>
		</linearGradient>
		<circle id="XMLID_449_" class="st40" cx="1025.6" cy="795.1" r="15.9"/>
		
			<linearGradient id="XMLID_156_" gradientUnits="userSpaceOnUse" x1="1055.4181" y1="1592.6865" x2="1055.4181" y2="1561.0538" gradientTransform="matrix(0.9502 0.3115 -0.3115 0.9502 286.5014 -1347.4218)">
			<stop  offset="0" style="stop-color:#F08F85;stop-opacity:0"/>
			<stop  offset="0.8571" style="stop-color:#62C3A6"/>
		</linearGradient>
		<circle id="XMLID_450_" class="st41" cx="798.1" cy="479.7" r="15.9"/>
		<ellipse id="XMLID_461_" class="st42" cx="924.3" cy="475.7" rx="0" ry="1"/>
		<g id="XMLID_32_" class="st43">
			<circle id="XMLID_452_" class="st42" cx="806.8" cy="39.7" r="7.1"/>
			<circle id="XMLID_455_" class="st42" cx="1130.8" cy="779.2" r="3.6"/>
			<circle id="XMLID_456_" class="st42" cx="1761.5" cy="712.1" r="3.2"/>
			<circle id="XMLID_457_" class="st42" cx="819.4" cy="335.6" r="5.6"/>
			<circle id="XMLID_458_" class="st42" cx="2036.8" cy="777.5" r="4.4"/>
			<circle id="XMLID_459_" class="st42" cx="1481.3" cy="769.5" r="4.6"/>
			<circle id="XMLID_462_" class="st42" cx="2094.6" cy="10" r="5.4"/>
			<circle id="XMLID_463_" class="st42" cx="1127.1" cy="-20.2" r="6.9"/>
			<circle id="XMLID_464_" class="st42" cx="2506.4" cy="-26.4" r="6.1"/>
			<circle id="XMLID_467_" class="st42" cx="2465.7" cy="253.7" r="5.9"/>
		</g>
		
			<linearGradient id="XMLID_157_" gradientUnits="userSpaceOnUse" x1="2363.5303" y1="648.0093" x2="2440.7134" y2="751.2607" gradientTransform="matrix(0.9502 0.3115 -0.3115 0.9502 286.5014 -1347.4218)">
			<stop  offset="0" style="stop-color:#EE2749"/>
			<stop  offset="1" style="stop-color:#BEE1C3"/>
		</linearGradient>
		<circle id="XMLID_28_" class="st44" cx="2361" cy="95.2" r="96.7"/>
		<g id="XMLID_41_">
			<path id="XMLID_42_" class="st3" d="M2428.9,781.2c-133.6-9.2-234.6-124.9-225.4-258.6s124.9-234.6,258.6-225.4
				c20.8,1.4,41,5.4,59.9,11.7v-76.3h-338.2v613.3H2522v-76.3C2492.8,779.2,2461.4,783.5,2428.9,781.2z"/>
			<path id="XMLID_45_" class="st45" d="M2203.5,522.7c-9.2,133.6,91.8,249.4,225.4,258.6c32.5,2.2,63.9-2.1,92.9-11.7v-20.3
				c-28.5,10.4-59.5,15.1-91.7,12.9c-2.1-0.2-4.2-0.4-6.3-0.6c-0.5,0-0.9-0.1-1.2-0.1c-1.7-0.2-3.5-0.4-5.3-0.7
				c-0.3,0-0.6-0.1-0.9-0.1c-116.3-15.1-202-118.3-193.9-236.7c7.6-113,98.2-200.5,208.1-207.7l0,0c1.8-0.1,3.6-0.2,5.4-0.3
				c0.2,0,0.4,0,0.6,0c1.6-0.1,3.3-0.1,5.1-0.1c0.4,0,0.7,0,1.1,0c1.5,0,3.2,0,4.7,0c0.5,0,1,0,1.3,0c1.4,0,3.1,0.1,4.5,0.1
				c0.5,0,1.1,0,1.4,0c1.9,0.1,3.8,0.2,5.8,0.3h0.1c21.5,1.4,41.9,5.9,61.2,12.9V309c-19-6.3-39.1-10.3-59.9-11.7
				C2328.4,288.1,2212.7,389.1,2203.5,522.7z"/>
			<path id="XMLID_47_" class="st46" d="M2436.8,316c1.6-0.1,3.3-0.1,5.1-0.1C2440.1,315.9,2438.5,315.9,2436.8,316z"/>
			<path id="XMLID_46_" class="st45" d="M2436.8,316c1.6-0.1,3.3-0.1,5.1-0.1C2440.1,315.9,2438.5,315.9,2436.8,316z"/>
			<path id="XMLID_49_" class="st46" d="M2368.3,329.7c19.8-7.4,40.7-11.8,62.4-13.3c-109.9,7.2-200.3,94.8-208.1,207.7
				c-8.1,118.4,77.8,221.6,193.9,236.7c-12.9-1.6-25.4-4.5-37.4-8.2c1.1-0.3,2-0.7,3.1-1c-28.2-8.6-54.6-22.7-77.8-42
				c23.5-42.6,50.8-66.5,75.1-80.7c42.4-24.9,79-22.7,117.6-26c10.7-14.3,18.1-28.6,25-42.2v-93
				C2497.3,400.1,2440.2,347.2,2368.3,329.7z"/>
			<path id="XMLID_48_" class="st45" d="M2368.3,329.7c19.8-7.4,40.7-11.8,62.4-13.3c-109.9,7.2-200.3,94.8-208.1,207.7
				c-8.1,118.4,77.8,221.6,193.9,236.7c-12.9-1.6-25.4-4.5-37.4-8.2c1.1-0.3,2-0.7,3.1-1c-28.2-8.6-54.6-22.7-77.8-42
				c23.5-42.6,50.8-66.5,75.1-80.7c42.4-24.9,79-22.7,117.6-26c10.7-14.3,18.1-28.6,25-42.2v-93
				C2497.3,400.1,2440.2,347.2,2368.3,329.7z"/>
			<path id="XMLID_51_" class="st46" d="M2430.7,316.3c1.8-0.1,3.6-0.2,5.4-0.3C2434.4,316.1,2432.6,316.2,2430.7,316.3z"/>
			<path id="XMLID_50_" class="st45" d="M2430.7,316.3c1.8-0.1,3.6-0.2,5.4-0.3C2434.4,316.1,2432.6,316.2,2430.7,316.3z"/>
			<path id="XMLID_53_" class="st46" d="M2430.3,762.1c-2.1-0.2-4.2-0.4-6.3-0.6C2426.1,761.8,2428.2,762,2430.3,762.1
				c32.2,2.2,63.2-2.6,91.7-12.9l0,0C2493.5,759.5,2462.5,764.3,2430.3,762.1z"/>
			<path id="XMLID_52_" class="st45" d="M2430.3,762.1c-2.1-0.2-4.2-0.4-6.3-0.6C2426.1,761.8,2428.2,762,2430.3,762.1
				c32.2,2.2,63.2-2.6,91.7-12.9l0,0C2493.5,759.5,2462.5,764.3,2430.3,762.1z"/>
			<path id="XMLID_55_" class="st46" d="M2454.8,316c1.9,0.1,3.8,0.2,5.8,0.3C2458.6,316.2,2456.7,316.1,2454.8,316z"/>
			<path id="XMLID_54_" class="st45" d="M2454.8,316c1.9,0.1,3.8,0.2,5.8,0.3C2458.6,316.2,2456.7,316.1,2454.8,316z"/>
			<path id="XMLID_57_" class="st46" d="M2422.6,761.4c-1.7-0.2-3.5-0.4-5.3-0.7C2419.1,761.1,2420.9,761.3,2422.6,761.4z"/>
			<path id="XMLID_56_" class="st45" d="M2422.6,761.4c-1.7-0.2-3.5-0.4-5.3-0.7C2419.1,761.1,2420.9,761.3,2422.6,761.4z"/>
			<path id="XMLID_59_" class="st46" d="M2448.8,315.8c1.4,0,3.1,0.1,4.5,0.1C2451.9,315.9,2450.3,315.9,2448.8,315.8z"/>
			<path id="XMLID_58_" class="st45" d="M2448.8,315.8c1.4,0,3.1,0.1,4.5,0.1C2451.9,315.9,2450.3,315.9,2448.8,315.8z"/>
			<path id="XMLID_61_" class="st46" d="M2442.9,315.8c1.5,0,3.2,0,4.7,0C2445.8,315.8,2444.3,315.8,2442.9,315.8z"/>
			<path id="XMLID_60_" class="st45" d="M2442.9,315.8c1.5,0,3.2,0,4.7,0C2445.8,315.8,2444.3,315.8,2442.9,315.8z"/>
			<path id="XMLID_64_" class="st46" d="M2521.9,599.7v-39.1c-6.9,13.8-14.2,27.8-25,42.2C2505.2,602.2,2513.4,601.2,2521.9,599.7z"
				/>
			
				<linearGradient id="XMLID_158_" gradientUnits="userSpaceOnUse" x1="6023.4751" y1="-938.8532" x2="6043.4492" y2="-1030.8402" gradientTransform="matrix(-0.8549 0.5189 0.5189 0.8549 8182.6729 -1702.5699)">
				<stop  offset="0" style="stop-color:#5D4EA0"/>
				<stop  offset="0.2857" style="stop-color:#4766B0"/>
				<stop  offset="1" style="stop-color:#5ECAE7"/>
			</linearGradient>
			<path id="XMLID_63_" class="st47" d="M2521.9,599.7v-39.1c-6.9,13.8-14.2,27.8-25,42.2C2505.2,602.2,2513.4,601.2,2521.9,599.7z"
				/>
			<path id="XMLID_62_" class="st45" d="M2521.9,599.7v-39.1c-6.9,13.8-14.2,27.8-25,42.2C2505.2,602.2,2513.4,601.2,2521.9,599.7z"
				/>
			<path id="XMLID_67_" class="st46" d="M2348.2,738c0.2-0.4,0.3-0.8,0.5-1.1c-13.1-7.8-21.1-16.7-21.5-25.4
				c-1-18,31.5-22.2,71.8-37.7c7.7-4.5,15.9-7.8,24.4-10.6c25.2-12.4,51.4-30.6,73.2-59.6c0.2-0.3,0.4-0.5,0.6-0.8
				c-38.7,3.2-75.2,1.1-117.6,26c-24.3,14.2-51.6,38.1-75.1,80.7c23.1,19.3,49.7,33.4,77.8,42c0.1,0,0.1,0,0.2-0.1
				C2369,747.5,2357.5,742.6,2348.2,738z"/>
			
				<linearGradient id="XMLID_159_" gradientUnits="userSpaceOnUse" x1="6566.2017" y1="788.759" x2="6417.3164" y2="848.3129" gradientTransform="matrix(-0.9977 -6.820944e-002 -6.820944e-002 0.9977 8977.4414 307.1964)">
				<stop  offset="0" style="stop-color:#4D62AD"/>
				<stop  offset="0.5813" style="stop-color:#597FC0"/>
				<stop  offset="0.8522" style="stop-color:#3D82C4"/>
			</linearGradient>
			<path id="XMLID_66_" class="st48" d="M2348.2,738c0.2-0.4,0.3-0.8,0.5-1.1c-13.1-7.8-21.1-16.7-21.5-25.4
				c-1-18,31.5-22.2,71.8-37.7c7.7-4.5,15.9-7.8,24.4-10.6c25.2-12.4,51.4-30.6,73.2-59.6c0.2-0.3,0.4-0.5,0.6-0.8
				c-38.7,3.2-75.2,1.1-117.6,26c-24.3,14.2-51.6,38.1-75.1,80.7c23.1,19.3,49.7,33.4,77.8,42c0.1,0,0.1,0,0.2-0.1
				C2369,747.5,2357.5,742.6,2348.2,738z"/>
			<path id="XMLID_65_" class="st45" d="M2348.2,738c0.2-0.4,0.3-0.8,0.5-1.1c-13.1-7.8-21.1-16.7-21.5-25.4
				c-1-18,31.5-22.2,71.8-37.7c7.7-4.5,15.9-7.8,24.4-10.6c25.2-12.4,51.4-30.6,73.2-59.6c0.2-0.3,0.4-0.5,0.6-0.8
				c-38.7,3.2-75.2,1.1-117.6,26c-24.3,14.2-51.6,38.1-75.1,80.7c23.1,19.3,49.7,33.4,77.8,42c0.1,0,0.1,0,0.2-0.1
				C2369,747.5,2357.5,742.6,2348.2,738z"/>
			<path id="XMLID_71_" class="st46" d="M2386.8,681.9c3.9-3.1,7.9-5.7,12-8.1c-40.3,15.6-72.8,19.9-71.8,37.7
				c0.5,8.7,8.4,17.6,21.5,25.4C2360.1,706.3,2375.9,690.4,2386.8,681.9z"/>
			
				<linearGradient id="XMLID_160_" gradientUnits="userSpaceOnUse" x1="6204.1094" y1="-899.6298" x2="6224.0835" y2="-991.6168" gradientTransform="matrix(-0.8549 0.5189 0.5189 0.8549 8182.6729 -1702.5699)">
				<stop  offset="0" style="stop-color:#5D4EA0"/>
				<stop  offset="0.2857" style="stop-color:#4766B0"/>
				<stop  offset="1" style="stop-color:#5ECAE7"/>
			</linearGradient>
			<path id="XMLID_70_" class="st49" d="M2386.8,681.9c3.9-3.1,7.9-5.7,12-8.1c-40.3,15.6-72.8,19.9-71.8,37.7
				c0.5,8.7,8.4,17.6,21.5,25.4C2360.1,706.3,2375.9,690.4,2386.8,681.9z"/>
			
				<linearGradient id="XMLID_161_" gradientUnits="userSpaceOnUse" x1="6585.7773" y1="837.6987" x2="6436.8926" y2="897.2527" gradientTransform="matrix(-0.9977 -6.820944e-002 -6.820944e-002 0.9977 8977.4414 307.1964)">
				<stop  offset="0" style="stop-color:#4D62AD"/>
				<stop  offset="0.5813" style="stop-color:#597FC0"/>
				<stop  offset="0.8522" style="stop-color:#3D82C4"/>
			</linearGradient>
			<path id="XMLID_69_" class="st50" d="M2386.8,681.9c3.9-3.1,7.9-5.7,12-8.1c-40.3,15.6-72.8,19.9-71.8,37.7
				c0.5,8.7,8.4,17.6,21.5,25.4C2360.1,706.3,2375.9,690.4,2386.8,681.9z"/>
			<path id="XMLID_68_" class="st45" d="M2386.8,681.9c3.9-3.1,7.9-5.7,12-8.1c-40.3,15.6-72.8,19.9-71.8,37.7
				c0.5,8.7,8.4,17.6,21.5,25.4C2360.1,706.3,2375.9,690.4,2386.8,681.9z"/>
			<path id="XMLID_75_" class="st46" d="M2496.4,603.5c-21.9,29-48,47.2-73.2,59.6c25.8-8.1,54.4-9.2,82.9-11.7
				c6.2-10.8,11.6-22.2,15.9-34.2v-17.7c-8.5,1.4-16.8,2.5-25,3.2C2496.8,603.1,2496.6,603.3,2496.4,603.5z"/>
			
				<linearGradient id="XMLID_162_" gradientUnits="userSpaceOnUse" x1="6082.9238" y1="-925.9443" x2="6102.8984" y2="-1017.9314" gradientTransform="matrix(-0.8549 0.5189 0.5189 0.8549 8182.6729 -1702.5699)">
				<stop  offset="0" style="stop-color:#5D4EA0"/>
				<stop  offset="0.2857" style="stop-color:#4766B0"/>
				<stop  offset="1" style="stop-color:#5ECAE7"/>
			</linearGradient>
			<path id="XMLID_74_" class="st51" d="M2496.4,603.5c-21.9,29-48,47.2-73.2,59.6c25.8-8.1,54.4-9.2,82.9-11.7
				c6.2-10.8,11.6-22.2,15.9-34.2v-17.7c-8.5,1.4-16.8,2.5-25,3.2C2496.8,603.1,2496.6,603.3,2496.4,603.5z"/>
			
				<linearGradient id="XMLID_163_" gradientUnits="userSpaceOnUse" x1="6545.1006" y1="736.0064" x2="6396.2158" y2="795.5604" gradientTransform="matrix(-0.9977 -6.820944e-002 -6.820944e-002 0.9977 8977.4414 307.1964)">
				<stop  offset="0" style="stop-color:#4D62AD"/>
				<stop  offset="0.5813" style="stop-color:#597FC0"/>
				<stop  offset="0.8522" style="stop-color:#3D82C4"/>
			</linearGradient>
			<path id="XMLID_73_" class="st52" d="M2496.4,603.5c-21.9,29-48,47.2-73.2,59.6c25.8-8.1,54.4-9.2,82.9-11.7
				c6.2-10.8,11.6-22.2,15.9-34.2v-17.7c-8.5,1.4-16.8,2.5-25,3.2C2496.8,603.1,2496.6,603.3,2496.4,603.5z"/>
			<path id="XMLID_72_" class="st45" d="M2496.4,603.5c-21.9,29-48,47.2-73.2,59.6c25.8-8.1,54.4-9.2,82.9-11.7
				c6.2-10.8,11.6-22.2,15.9-34.2v-17.7c-8.5,1.4-16.8,2.5-25,3.2C2496.8,603.1,2496.6,603.3,2496.4,603.5z"/>
			<path id="XMLID_79_" class="st46" d="M2423.2,663.1c-8.4,2.7-16.5,6-24.4,10.6C2406.8,670.6,2414.9,667.2,2423.2,663.1z"/>
			
				<linearGradient id="XMLID_164_" gradientUnits="userSpaceOnUse" x1="6567.4214" y1="791.8095" x2="6418.5366" y2="851.3635" gradientTransform="matrix(-0.9977 -6.820944e-002 -6.820944e-002 0.9977 8977.4414 307.1964)">
				<stop  offset="0" style="stop-color:#4D62AD"/>
				<stop  offset="0.5813" style="stop-color:#597FC0"/>
				<stop  offset="0.8522" style="stop-color:#3D82C4"/>
			</linearGradient>
			<path id="XMLID_78_" class="st53" d="M2423.2,663.1c-8.4,2.7-16.5,6-24.4,10.6C2406.8,670.6,2414.9,667.2,2423.2,663.1z"/>
			
				<linearGradient id="XMLID_165_" gradientUnits="userSpaceOnUse" x1="6563.3745" y1="867.4972" x2="6467.0962" y2="713.6496" gradientTransform="matrix(-0.9977 -6.820944e-002 -6.820944e-002 0.9977 8977.4414 307.1964)">
				<stop  offset="0.1921" style="stop-color:#4766B0"/>
				<stop  offset="1" style="stop-color:#44A9DF"/>
			</linearGradient>
			<path id="XMLID_77_" class="st54" d="M2423.2,663.1c-8.4,2.7-16.5,6-24.4,10.6C2406.8,670.6,2414.9,667.2,2423.2,663.1z"/>
			<path id="XMLID_76_" class="st45" d="M2423.2,663.1c-8.4,2.7-16.5,6-24.4,10.6C2406.8,670.6,2414.9,667.2,2423.2,663.1z"/>
			<path id="XMLID_83_" class="st46" d="M2348.2,738c9.4,4.6,20.8,9.5,34.2,13.6c0.2-0.1,0.4-0.1,0.5-0.2c-13.4-4-25-9-34.3-14.5
				C2348.4,737.3,2348.3,737.6,2348.2,738z"/>
			
				<linearGradient id="XMLID_166_" gradientUnits="userSpaceOnUse" x1="6600.271" y1="873.9337" x2="6451.3862" y2="933.4876" gradientTransform="matrix(-0.9977 -6.820944e-002 -6.820944e-002 0.9977 8977.4414 307.1964)">
				<stop  offset="0" style="stop-color:#4D62AD"/>
				<stop  offset="0.5813" style="stop-color:#597FC0"/>
				<stop  offset="0.8522" style="stop-color:#3D82C4"/>
			</linearGradient>
			<path id="XMLID_82_" class="st55" d="M2348.2,738c9.4,4.6,20.8,9.5,34.2,13.6c0.2-0.1,0.4-0.1,0.5-0.2c-13.4-4-25-9-34.3-14.5
				C2348.4,737.3,2348.3,737.6,2348.2,738z"/>
			
				<linearGradient id="XMLID_167_" gradientUnits="userSpaceOnUse" x1="6556.7725" y1="871.629" x2="6460.4937" y2="717.7814" gradientTransform="matrix(-0.9977 -6.820944e-002 -6.820944e-002 0.9977 8977.4414 307.1964)">
				<stop  offset="0.1921" style="stop-color:#4766B0"/>
				<stop  offset="1" style="stop-color:#44A9DF"/>
			</linearGradient>
			<path id="XMLID_81_" class="st56" d="M2348.2,738c9.4,4.6,20.8,9.5,34.2,13.6c0.2-0.1,0.4-0.1,0.5-0.2c-13.4-4-25-9-34.3-14.5
				C2348.4,737.3,2348.3,737.6,2348.2,738z"/>
			<path id="XMLID_80_" class="st45" d="M2348.2,738c9.4,4.6,20.8,9.5,34.2,13.6c0.2-0.1,0.4-0.1,0.5-0.2c-13.4-4-25-9-34.3-14.5
				C2348.4,737.3,2348.3,737.6,2348.2,738z"/>
			<path id="XMLID_88_" class="st46" d="M2386.8,681.9c-10.9,8.5-26.7,24.4-38.3,55c9.3,5.4,20.8,10.5,34.3,14.5
				c52.1-16.7,96.2-52.6,123.3-99.8c-28.6,2.5-57.1,3.4-82.9,11.7c-8.2,4.1-16.4,7.5-24.4,10.6
				C2394.8,676.1,2390.7,678.8,2386.8,681.9z"/>
			
				<linearGradient id="XMLID_168_" gradientUnits="userSpaceOnUse" x1="6157.2983" y1="-909.7944" x2="6177.2729" y2="-1001.7815" gradientTransform="matrix(-0.8549 0.5189 0.5189 0.8549 8182.6729 -1702.5699)">
				<stop  offset="0" style="stop-color:#5D4EA0"/>
				<stop  offset="0.2857" style="stop-color:#4766B0"/>
				<stop  offset="1" style="stop-color:#5ECAE7"/>
			</linearGradient>
			<path id="XMLID_87_" class="st57" d="M2386.8,681.9c-10.9,8.5-26.7,24.4-38.3,55c9.3,5.4,20.8,10.5,34.3,14.5
				c52.1-16.7,96.2-52.6,123.3-99.8c-28.6,2.5-57.1,3.4-82.9,11.7c-8.2,4.1-16.4,7.5-24.4,10.6
				C2394.8,676.1,2390.7,678.8,2386.8,681.9z"/>
			
				<linearGradient id="XMLID_169_" gradientUnits="userSpaceOnUse" x1="6573.5063" y1="807.0213" x2="6424.6216" y2="866.5752" gradientTransform="matrix(-0.9977 -6.820944e-002 -6.820944e-002 0.9977 8977.4414 307.1964)">
				<stop  offset="0" style="stop-color:#4D62AD"/>
				<stop  offset="0.5813" style="stop-color:#597FC0"/>
				<stop  offset="0.8522" style="stop-color:#3D82C4"/>
			</linearGradient>
			<path id="XMLID_86_" class="st58" d="M2386.8,681.9c-10.9,8.5-26.7,24.4-38.3,55c9.3,5.4,20.8,10.5,34.3,14.5
				c52.1-16.7,96.2-52.6,123.3-99.8c-28.6,2.5-57.1,3.4-82.9,11.7c-8.2,4.1-16.4,7.5-24.4,10.6
				C2394.8,676.1,2390.7,678.8,2386.8,681.9z"/>
			
				<linearGradient id="XMLID_170_" gradientUnits="userSpaceOnUse" x1="6541.1177" y1="881.4259" x2="6444.8389" y2="727.5784" gradientTransform="matrix(-0.9977 -6.820944e-002 -6.820944e-002 0.9977 8977.4414 307.1964)">
				<stop  offset="0.1921" style="stop-color:#4766B0"/>
				<stop  offset="1" style="stop-color:#44A9DF"/>
			</linearGradient>
			<path id="XMLID_85_" class="st59" d="M2386.8,681.9c-10.9,8.5-26.7,24.4-38.3,55c9.3,5.4,20.8,10.5,34.3,14.5
				c52.1-16.7,96.2-52.6,123.3-99.8c-28.6,2.5-57.1,3.4-82.9,11.7c-8.2,4.1-16.4,7.5-24.4,10.6
				C2394.8,676.1,2390.7,678.8,2386.8,681.9z"/>
			<path id="XMLID_84_" class="st45" d="M2386.8,681.9c-10.9,8.5-26.7,24.4-38.3,55c9.3,5.4,20.8,10.5,34.3,14.5
				c52.1-16.7,96.2-52.6,123.3-99.8c-28.6,2.5-57.1,3.4-82.9,11.7c-8.2,4.1-16.4,7.5-24.4,10.6
				C2394.8,676.1,2390.7,678.8,2386.8,681.9z"/>
			<path id="XMLID_90_" class="st60" d="M2424,761.5c-0.5,0-0.9-0.1-1.2-0.1C2423.1,761.4,2423.5,761.5,2424,761.5z"/>
			<path id="XMLID_89_" class="st45" d="M2424,761.5c-0.5,0-0.9-0.1-1.2-0.1C2423.1,761.4,2423.5,761.5,2424,761.5z"/>
			<path id="XMLID_92_" class="st60" d="M2460.5,316.4L2460.5,316.4c21.6,1.4,42,5.9,61.3,12.9l0,0
				C2502.8,322.2,2482.1,317.8,2460.5,316.4C2460.6,316.4,2460.6,316.4,2460.5,316.4z"/>
			<path id="XMLID_91_" class="st45" d="M2460.5,316.4L2460.5,316.4c21.6,1.4,42,5.9,61.3,12.9l0,0
				C2502.8,322.2,2482.1,317.8,2460.5,316.4C2460.6,316.4,2460.6,316.4,2460.5,316.4z"/>
			<path id="XMLID_94_" class="st60" d="M2447.5,315.8c0.5,0,1,0,1.3,0C2448.3,315.8,2447.8,315.8,2447.5,315.8z"/>
			<path id="XMLID_93_" class="st45" d="M2447.5,315.8c0.5,0,1,0,1.3,0C2448.3,315.8,2447.8,315.8,2447.5,315.8z"/>
			<path id="XMLID_96_" class="st60" d="M2441.7,315.9c0.4,0,0.7,0,1.1,0C2442.5,315.8,2442.1,315.9,2441.7,315.9z"/>
			<path id="XMLID_95_" class="st45" d="M2441.7,315.9c0.4,0,0.7,0,1.1,0C2442.5,315.8,2442.1,315.9,2441.7,315.9z"/>
			<path id="XMLID_98_" class="st60" d="M2453.4,316c0.5,0,1.1,0,1.4,0C2454.2,316,2453.9,316,2453.4,316z"/>
			<path id="XMLID_97_" class="st45" d="M2453.4,316c0.5,0,1.1,0,1.4,0C2454.2,316,2453.9,316,2453.4,316z"/>
			<path id="XMLID_100_" class="st60" d="M2436.2,316c0.2,0,0.4,0,0.6,0C2436.6,316,2436.4,316,2436.2,316z"/>
			<path id="XMLID_99_" class="st45" d="M2436.2,316c0.2,0,0.4,0,0.6,0C2436.6,316,2436.4,316,2436.2,316z"/>
			<path id="XMLID_102_" class="st60" d="M2430.7,316.3L2430.7,316.3L2430.7,316.3z"/>
			<path id="XMLID_101_" class="st45" d="M2430.7,316.3L2430.7,316.3L2430.7,316.3z"/>
			<path id="XMLID_104_" class="st60" d="M2417.4,760.9c-0.3,0-0.6-0.1-0.9-0.1C2416.8,760.9,2417.1,760.9,2417.4,760.9z"/>
			<path id="XMLID_103_" class="st45" d="M2417.4,760.9c-0.3,0-0.6-0.1-0.9-0.1C2416.8,760.9,2417.1,760.9,2417.4,760.9z"/>
			<path id="XMLID_107_" class="st46" d="M2460.5,316.4c-1.9-0.1-3.8-0.3-5.8-0.3c-0.5,0-1.1,0-1.4,0c-1.4-0.1-3.1-0.1-4.5-0.1
				c-0.5,0-1,0-1.3,0c-1.5,0-3.2,0-4.7,0c-0.4,0-0.7,0-1.1,0c-1.6,0-3.3,0.1-5.1,0.1c-0.2,0-0.4,0-0.6,0c-1.8,0.1-3.6,0.2-5.4,0.3
				l0,0c-21.8,1.4-42.7,6-62.4,13.3c71.9,17.7,129.1,70.5,153.6,138V329.3C2502.7,322.2,2482.1,317.8,2460.5,316.4
				C2460.6,316.4,2460.6,316.4,2460.5,316.4z"/>
			<path id="XMLID_106_" class="st60" d="M2460.5,316.4c-1.9-0.1-3.8-0.3-5.8-0.3c-0.5,0-1.1,0-1.4,0c-1.4-0.1-3.1-0.1-4.5-0.1
				c-0.5,0-1,0-1.3,0c-1.5,0-3.2,0-4.7,0c-0.4,0-0.7,0-1.1,0c-1.6,0-3.3,0.1-5.1,0.1c-0.2,0-0.4,0-0.6,0c-1.8,0.1-3.6,0.2-5.4,0.3
				l0,0c-21.8,1.4-42.7,6-62.4,13.3c71.9,17.7,129.1,70.5,153.6,138V329.3C2502.7,322.2,2482.1,317.8,2460.5,316.4
				C2460.6,316.4,2460.6,316.4,2460.5,316.4z"/>
			<path id="XMLID_105_" class="st45" d="M2460.5,316.4c-1.9-0.1-3.8-0.3-5.8-0.3c-0.5,0-1.1,0-1.4,0c-1.4-0.1-3.1-0.1-4.5-0.1
				c-0.5,0-1,0-1.3,0c-1.5,0-3.2,0-4.7,0c-0.4,0-0.7,0-1.1,0c-1.6,0-3.3,0.1-5.1,0.1c-0.2,0-0.4,0-0.6,0c-1.8,0.1-3.6,0.2-5.4,0.3
				l0,0c-21.8,1.4-42.7,6-62.4,13.3c71.9,17.7,129.1,70.5,153.6,138V329.3C2502.7,322.2,2482.1,317.8,2460.5,316.4
				C2460.6,316.4,2460.6,316.4,2460.5,316.4z"/>
			<path id="XMLID_110_" class="st46" d="M2464.4,760.8c-27.9,2.1-55.8-1.1-82.2-9.2c-1.1,0.3-2,0.7-3.1,1c12,3.7,24.5,6.6,37.4,8.2
				c0.3,0,0.6,0.1,0.9,0.1c1.7,0.2,3.5,0.5,5.3,0.7c0.5,0,0.9,0.1,1.2,0.1c2.1,0.2,4.2,0.4,6.3,0.6c32.2,2.2,63.2-2.6,91.7-12.9
				v-0.7c-11.4,4.3-20.1,6.7-23.5,7.4C2487.2,758.6,2475.7,760,2464.4,760.8z"/>
			<path id="XMLID_109_" class="st60" d="M2464.4,760.8c-27.9,2.1-55.8-1.1-82.2-9.2c-1.1,0.3-2,0.7-3.1,1c12,3.7,24.5,6.6,37.4,8.2
				c0.3,0,0.6,0.1,0.9,0.1c1.7,0.2,3.5,0.5,5.3,0.7c0.5,0,0.9,0.1,1.2,0.1c2.1,0.2,4.2,0.4,6.3,0.6c32.2,2.2,63.2-2.6,91.7-12.9
				v-0.7c-11.4,4.3-20.1,6.7-23.5,7.4C2487.2,758.6,2475.7,760,2464.4,760.8z"/>
			<path id="XMLID_108_" class="st45" d="M2464.4,760.8c-27.9,2.1-55.8-1.1-82.2-9.2c-1.1,0.3-2,0.7-3.1,1c12,3.7,24.5,6.6,37.4,8.2
				c0.3,0,0.6,0.1,0.9,0.1c1.7,0.2,3.5,0.5,5.3,0.7c0.5,0,0.9,0.1,1.2,0.1c2.1,0.2,4.2,0.4,6.3,0.6c32.2,2.2,63.2-2.6,91.7-12.9
				v-0.7c-11.4,4.3-20.1,6.7-23.5,7.4C2487.2,758.6,2475.7,760,2464.4,760.8z"/>
			<path id="XMLID_114_" class="st46" d="M2498.5,756c3.3-0.8,12.1-3.2,23.5-7.4v-0.3c-18.8,6.8-38.2,10.9-57.6,12.3
				C2475.7,760,2487.2,758.6,2498.5,756z"/>
			
				<linearGradient id="XMLID_171_" gradientUnits="userSpaceOnUse" x1="6151.1685" y1="-911.1255" x2="6171.1426" y2="-1003.1126" gradientTransform="matrix(-0.8549 0.5189 0.5189 0.8549 8182.6729 -1702.5699)">
				<stop  offset="0" style="stop-color:#5D4EA0"/>
				<stop  offset="0.2857" style="stop-color:#4766B0"/>
				<stop  offset="1" style="stop-color:#5ECAE7"/>
			</linearGradient>
			<path id="XMLID_113_" class="st61" d="M2498.5,756c3.3-0.8,12.1-3.2,23.5-7.4v-0.3c-18.8,6.8-38.2,10.9-57.6,12.3
				C2475.7,760,2487.2,758.6,2498.5,756z"/>
			<path id="XMLID_112_" class="st60" d="M2498.5,756c3.3-0.8,12.1-3.2,23.5-7.4v-0.3c-18.8,6.8-38.2,10.9-57.6,12.3
				C2475.7,760,2487.2,758.6,2498.5,756z"/>
			<path id="XMLID_111_" class="st45" d="M2498.5,756c3.3-0.8,12.1-3.2,23.5-7.4v-0.3c-18.8,6.8-38.2,10.9-57.6,12.3
				C2475.7,760,2487.2,758.6,2498.5,756z"/>
			<path id="XMLID_118_" class="st46" d="M2464.4,760.8c-4.7,0.3-9.3,0.4-13.9,0.4c-7.6,0.2-13.8-0.1-17.9-0.4
				c-18.8-1.1-35.7-4.8-50.3-9.3c-0.1,0-0.1,0-0.2,0.1C2408.6,759.7,2436.6,762.9,2464.4,760.8z"/>
			
				<linearGradient id="XMLID_172_" gradientUnits="userSpaceOnUse" x1="6594.8096" y1="860.2792" x2="6445.9248" y2="919.8331" gradientTransform="matrix(-0.9977 -6.820944e-002 -6.820944e-002 0.9977 8977.4414 307.1964)">
				<stop  offset="0" style="stop-color:#4D62AD"/>
				<stop  offset="0.5813" style="stop-color:#597FC0"/>
				<stop  offset="0.8522" style="stop-color:#3D82C4"/>
			</linearGradient>
			<path id="XMLID_117_" class="st62" d="M2464.4,760.8c-4.7,0.3-9.3,0.4-13.9,0.4c-7.6,0.2-13.8-0.1-17.9-0.4
				c-18.8-1.1-35.7-4.8-50.3-9.3c-0.1,0-0.1,0-0.2,0.1C2408.6,759.7,2436.6,762.9,2464.4,760.8z"/>
			<path id="XMLID_116_" class="st60" d="M2464.4,760.8c-4.7,0.3-9.3,0.4-13.9,0.4c-7.6,0.2-13.8-0.1-17.9-0.4
				c-18.8-1.1-35.7-4.8-50.3-9.3c-0.1,0-0.1,0-0.2,0.1C2408.6,759.7,2436.6,762.9,2464.4,760.8z"/>
			<path id="XMLID_115_" class="st45" d="M2464.4,760.8c-4.7,0.3-9.3,0.4-13.9,0.4c-7.6,0.2-13.8-0.1-17.9-0.4
				c-18.8-1.1-35.7-4.8-50.3-9.3c-0.1,0-0.1,0-0.2,0.1C2408.6,759.7,2436.6,762.9,2464.4,760.8z"/>
			<path id="XMLID_123_" class="st46" d="M2464.4,760.8c19.4-1.4,38.8-5.5,57.6-12.3v-0.3c-28.4,10-54,12.6-71.5,13
				C2455.1,761.1,2459.7,761,2464.4,760.8z"/>
			
				<linearGradient id="XMLID_173_" gradientUnits="userSpaceOnUse" x1="6156.1733" y1="-910.0387" x2="6176.1479" y2="-1002.0257" gradientTransform="matrix(-0.8549 0.5189 0.5189 0.8549 8182.6729 -1702.5699)">
				<stop  offset="0" style="stop-color:#5D4EA0"/>
				<stop  offset="0.2857" style="stop-color:#4766B0"/>
				<stop  offset="1" style="stop-color:#5ECAE7"/>
			</linearGradient>
			<path id="XMLID_122_" class="st63" d="M2464.4,760.8c19.4-1.4,38.8-5.5,57.6-12.3v-0.3c-28.4,10-54,12.6-71.5,13
				C2455.1,761.1,2459.7,761,2464.4,760.8z"/>
			
				<linearGradient id="XMLID_174_" gradientUnits="userSpaceOnUse" x1="6584.1475" y1="833.6243" x2="6435.2627" y2="893.1783" gradientTransform="matrix(-0.9977 -6.820944e-002 -6.820944e-002 0.9977 8977.4414 307.1964)">
				<stop  offset="0" style="stop-color:#4D62AD"/>
				<stop  offset="0.5813" style="stop-color:#597FC0"/>
				<stop  offset="0.8522" style="stop-color:#3D82C4"/>
			</linearGradient>
			<path id="XMLID_121_" class="st64" d="M2464.4,760.8c19.4-1.4,38.8-5.5,57.6-12.3v-0.3c-28.4,10-54,12.6-71.5,13
				C2455.1,761.1,2459.7,761,2464.4,760.8z"/>
			<path id="XMLID_120_" class="st60" d="M2464.4,760.8c19.4-1.4,38.8-5.5,57.6-12.3v-0.3c-28.4,10-54,12.6-71.5,13
				C2455.1,761.1,2459.7,761,2464.4,760.8z"/>
			<path id="XMLID_119_" class="st45" d="M2464.4,760.8c19.4-1.4,38.8-5.5,57.6-12.3v-0.3c-28.4,10-54,12.6-71.5,13
				C2455.1,761.1,2459.7,761,2464.4,760.8z"/>
			<path id="XMLID_128_" class="st46" d="M2521.9,650v-32.6c-4.3,11.8-9.6,23.3-15.9,34.2C2511.4,651.1,2516.7,650.6,2521.9,650z"/>
			
				<linearGradient id="XMLID_175_" gradientUnits="userSpaceOnUse" x1="6055.6982" y1="-931.8563" x2="6075.6729" y2="-1023.8432" gradientTransform="matrix(-0.8549 0.5189 0.5189 0.8549 8182.6729 -1702.5699)">
				<stop  offset="0" style="stop-color:#5D4EA0"/>
				<stop  offset="0.2857" style="stop-color:#4766B0"/>
				<stop  offset="1" style="stop-color:#5ECAE7"/>
			</linearGradient>
			<path id="XMLID_127_" class="st65" d="M2521.9,650v-32.6c-4.3,11.8-9.6,23.3-15.9,34.2C2511.4,651.1,2516.7,650.6,2521.9,650z"/>
			
				<linearGradient id="XMLID_176_" gradientUnits="userSpaceOnUse" x1="6539.4746" y1="721.9423" x2="6390.5898" y2="781.4962" gradientTransform="matrix(-0.9977 -6.820944e-002 -6.820944e-002 0.9977 8977.4414 307.1964)">
				<stop  offset="0" style="stop-color:#4D62AD"/>
				<stop  offset="0.5813" style="stop-color:#597FC0"/>
				<stop  offset="0.8522" style="stop-color:#3D82C4"/>
			</linearGradient>
			<path id="XMLID_126_" class="st66" d="M2521.9,650v-32.6c-4.3,11.8-9.6,23.3-15.9,34.2C2511.4,651.1,2516.7,650.6,2521.9,650z"/>
			<path id="XMLID_125_" class="st60" d="M2521.9,650v-32.6c-4.3,11.8-9.6,23.3-15.9,34.2C2511.4,651.1,2516.7,650.6,2521.9,650z"/>
			<path id="XMLID_124_" class="st45" d="M2521.9,650v-32.6c-4.3,11.8-9.6,23.3-15.9,34.2C2511.4,651.1,2516.7,650.6,2521.9,650z"/>
			<path id="XMLID_133_" class="st46" d="M2432.7,760.8c4,0.3,10.1,0.6,17.9,0.4c-24.4,0-47.8-3.7-67.7-9.6
				c-0.2,0.1-0.4,0.1-0.5,0.2C2397,756,2413.8,759.4,2432.7,760.8z"/>
			
				<linearGradient id="XMLID_177_" gradientUnits="userSpaceOnUse" x1="6595.9897" y1="863.2302" x2="6447.105" y2="922.7842" gradientTransform="matrix(-0.9977 -6.820944e-002 -6.820944e-002 0.9977 8977.4414 307.1964)">
				<stop  offset="0" style="stop-color:#4D62AD"/>
				<stop  offset="0.5813" style="stop-color:#597FC0"/>
				<stop  offset="0.8522" style="stop-color:#3D82C4"/>
			</linearGradient>
			<path id="XMLID_132_" class="st67" d="M2432.7,760.8c4,0.3,10.1,0.6,17.9,0.4c-24.4,0-47.8-3.7-67.7-9.6
				c-0.2,0.1-0.4,0.1-0.5,0.2C2397,756,2413.8,759.4,2432.7,760.8z"/>
			
				<linearGradient id="XMLID_178_" gradientUnits="userSpaceOnUse" x1="6515.8901" y1="897.2136" x2="6419.6108" y2="743.366" gradientTransform="matrix(-0.9977 -6.820944e-002 -6.820944e-002 0.9977 8977.4414 307.1964)">
				<stop  offset="0.1921" style="stop-color:#4766B0"/>
				<stop  offset="1" style="stop-color:#44A9DF"/>
			</linearGradient>
			<path id="XMLID_131_" class="st68" d="M2432.7,760.8c4,0.3,10.1,0.6,17.9,0.4c-24.4,0-47.8-3.7-67.7-9.6
				c-0.2,0.1-0.4,0.1-0.5,0.2C2397,756,2413.8,759.4,2432.7,760.8z"/>
			<path id="XMLID_130_" class="st60" d="M2432.7,760.8c4,0.3,10.1,0.6,17.9,0.4c-24.4,0-47.8-3.7-67.7-9.6
				c-0.2,0.1-0.4,0.1-0.5,0.2C2397,756,2413.8,759.4,2432.7,760.8z"/>
			<path id="XMLID_129_" class="st45" d="M2432.7,760.8c4,0.3,10.1,0.6,17.9,0.4c-24.4,0-47.8-3.7-67.7-9.6
				c-0.2,0.1-0.4,0.1-0.5,0.2C2397,756,2413.8,759.4,2432.7,760.8z"/>
			<path id="XMLID_139_" class="st46" d="M2382.8,751.3c19.9,5.9,43.4,9.6,67.7,9.6c17.5-0.4,43.1-3,71.5-13v-98
				c-5.3,0.7-10.6,1.1-15.9,1.5C2479,698.8,2434.9,734.6,2382.8,751.3z"/>
			
				<linearGradient id="XMLID_179_" gradientUnits="userSpaceOnUse" x1="6143.8325" y1="-912.7184" x2="6163.8071" y2="-1004.7054" gradientTransform="matrix(-0.8549 0.5189 0.5189 0.8549 8182.6729 -1702.5699)">
				<stop  offset="0" style="stop-color:#5D4EA0"/>
				<stop  offset="0.2857" style="stop-color:#4766B0"/>
				<stop  offset="1" style="stop-color:#5ECAE7"/>
			</linearGradient>
			<path id="XMLID_138_" class="st69" d="M2382.8,751.3c19.9,5.9,43.4,9.6,67.7,9.6c17.5-0.4,43.1-3,71.5-13v-98
				c-5.3,0.7-10.6,1.1-15.9,1.5C2479,698.8,2434.9,734.6,2382.8,751.3z"/>
			
				<linearGradient id="XMLID_180_" gradientUnits="userSpaceOnUse" x1="6571.5288" y1="802.0774" x2="6422.644" y2="861.6312" gradientTransform="matrix(-0.9977 -6.820944e-002 -6.820944e-002 0.9977 8977.4414 307.1964)">
				<stop  offset="0" style="stop-color:#4D62AD"/>
				<stop  offset="0.5813" style="stop-color:#597FC0"/>
				<stop  offset="0.8522" style="stop-color:#3D82C4"/>
			</linearGradient>
			<path id="XMLID_137_" class="st70" d="M2382.8,751.3c19.9,5.9,43.4,9.6,67.7,9.6c17.5-0.4,43.1-3,71.5-13v-98
				c-5.3,0.7-10.6,1.1-15.9,1.5C2479,698.8,2434.9,734.6,2382.8,751.3z"/>
			
				<linearGradient id="XMLID_181_" gradientUnits="userSpaceOnUse" x1="6494.5854" y1="910.546" x2="6398.3066" y2="756.6984" gradientTransform="matrix(-0.9977 -6.820944e-002 -6.820944e-002 0.9977 8977.4414 307.1964)">
				<stop  offset="0.1921" style="stop-color:#4766B0"/>
				<stop  offset="1" style="stop-color:#44A9DF"/>
			</linearGradient>
			<path id="XMLID_136_" class="st71" d="M2382.8,751.3c19.9,5.9,43.4,9.6,67.7,9.6c17.5-0.4,43.1-3,71.5-13v-98
				c-5.3,0.7-10.6,1.1-15.9,1.5C2479,698.8,2434.9,734.6,2382.8,751.3z"/>
			<path id="XMLID_135_" class="st60" d="M2382.8,751.3c19.9,5.9,43.4,9.6,67.7,9.6c17.5-0.4,43.1-3,71.5-13v-98
				c-5.3,0.7-10.6,1.1-15.9,1.5C2479,698.8,2434.9,734.6,2382.8,751.3z"/>
			<path id="XMLID_134_" class="st45" d="M2382.8,751.3c19.9,5.9,43.4,9.6,67.7,9.6c17.5-0.4,43.1-3,71.5-13v-98
				c-5.3,0.7-10.6,1.1-15.9,1.5C2479,698.8,2434.9,734.6,2382.8,751.3z"/>
		</g>
		<path id="XMLID_35_" class="st72" d="M2313.5,438.8c10.1-14.8,22-28.4,35.1-40.4"/>
		<path id="XMLID_15_" class="st72" d="M2272.6,564.4c0.9-28.7,6.9-56.2,17.2-81.4"/>
		<path id="XMLID_30_" class="st73" d="M2371,72.8l-3.2,1.9c-1.9,1.1-4.5,0.6-5.6-1.4l-1.9-3.2c-1.1-1.9-0.6-4.5,1.4-5.6l3.2-1.9
			c1.9-1.1,4.5-0.6,5.6,1.4l1.9,3.2C2373.6,69.2,2373,71.7,2371,72.8z"/>
		<path id="XMLID_34_" class="st73" d="M2333.1,61.1l-9.3,2.6c-2.7,0.8-5.4-0.9-6.2-3.4l-2.6-9.3c-0.8-2.7,0.9-5.4,3.4-6.2l9.3-2.6
			c2.7-0.8,5.4,0.9,6.2,3.4l2.6,9.3C2337.4,57.5,2335.8,60.3,2333.1,61.1z"/>
		<path id="XMLID_36_" class="st74" d="M2417.4,157.7l-6,1c-2.4,0.4-4.9-0.7-6.4-2.6l-3.7-4.8c-1.5-1.9-1.9-4.5-1.1-6.8l2.3-5.6
			c1-2.3,3-3.9,5.3-4.3l6-1c2.4-0.4,4.9,0.7,6.4,2.6l3.7,4.8c1.5,1.9,1.9,4.5,1.1,6.8l-2.3,5.6
			C2421.9,155.8,2419.9,157.3,2417.4,157.7z"/>
	</g>
</g>
<g id="Layer_2">
</g>
<rect x="1265.6" y="371.5" class="st3" width="42.4" height="370.3"/>
<circle class="st75" cx="980.5" cy="206" r="6"/>
<circle class="st75" cx="1216.4" cy="859.3" r="2.2"/>
<ellipse class="st75" cx="882.8" cy="842.4" rx="0" ry="3.4"/>
<circle class="st75" cx="776.4" cy="836.9" r="8.9"/>
<ellipse class="st75" cx="740.3" cy="133.6" rx="0.6" ry="0"/>
<circle class="st75" cx="807.3" cy="-32.1" r="0.5"/>
<circle class="st75" cx="785.5" cy="218.1" r="0.5"/>
<circle class="st75" cx="760.9" cy="186.3" r="0.5"/>
<circle class="st75" cx="1071.6" cy="95.2" r="0.5"/>
<circle class="st75" cx="890.1" cy="247.8" r="0.5"/>
<circle class="st75" cx="891.1" cy="114.1" r="1"/>
<circle class="st75" cx="1025.9" cy="400.8" r="1"/>
<circle class="st75" cx="1656.6" cy="810.9" r="1"/>
<circle class="st75" cx="1952.1" cy="839.1" r="1"/>
<circle class="st75" cx="2296.3" cy="842.4" r="1"/>
<circle class="st75" cx="2383.7" cy="-26.4" r="1"/>
<circle class="st75" cx="1328.1" cy="741.8" r="1"/>
<circle class="st75" cx="1892.1" cy="754.5" r="1"/>
<circle class="st75" cx="2184.7" cy="-32.6" r="1"/>
<circle class="st75" cx="2331.1" cy="259.6" r="1"/>
<circle class="st75" cx="2471.6" cy="828.1" r="1"/>
<circle class="st75" cx="2183.7" cy="689.1" r="1"/>
<circle class="st75" cx="2486.2" cy="158.8" r="1"/>
<circle class="st75" cx="2228.8" cy="121.6" r="1"/>
<circle class="st75" cx="998.5" cy="-13.4" r="1"/>
<circle class="st75" cx="1104.1" cy="598.6" r="1"/>
</svg>
