<?xml version="1.0" encoding="UTF-8" standalone="no"?>
<svg
   xmlns:dc="http://purl.org/dc/elements/1.1/"
   xmlns:cc="http://creativecommons.org/ns#"
   xmlns:rdf="http://www.w3.org/1999/02/22-rdf-syntax-ns#"
   xmlns:svg="http://www.w3.org/2000/svg"
   xmlns="http://www.w3.org/2000/svg"
   xml:space="preserve"
   style="enable-background:new 0 0 1920 1080;"
   viewBox="0 0 1920 1080"
   y="0px"
   x="0px"
   id="Layer_1"
   version="1.1"><metadata
   id="metadata85"><rdf:RDF><cc:Work
       rdf:about=""><dc:format>image/svg+xml</dc:format><dc:type
         rdf:resource="http://purl.org/dc/dcmitype/StillImage" /></cc:Work></rdf:RDF></metadata><defs
   id="defs83" />
<style
   id="style2"
   type="text/css">
	.st0{fill:#212121;}
	.st1{fill:#B0BEC5;stroke:#212121;stroke-width:1.4324;stroke-miterlimit:10;}
	.st2{fill:#607D8B;stroke:#212121;stroke-width:1.4324;stroke-miterlimit:10;}
	.st3{fill:#78909C;stroke:#212121;stroke-width:1.4324;stroke-miterlimit:10;}
	.st4{fill:#90A4AE;stroke:#212121;stroke-width:1.4324;stroke-miterlimit:10;}
	.st5{fill:#D0D8DC;stroke:#212121;stroke-width:1.4324;stroke-miterlimit:10;}
	.st6{fill:#ECEFF0;stroke:#212121;stroke-width:1.4324;stroke-miterlimit:10;}
	.st7{fill:#D0D8DC;stroke:#212121;stroke-width:1.4324;stroke-linecap:round;stroke-miterlimit:10;}
	.st8{fill:#37474F;stroke:#212121;stroke-width:0.7707;stroke-miterlimit:10;}
	.st9{fill:#37474F;stroke:#212121;stroke-width:1.0371;stroke-miterlimit:10;}
	.st10{fill:#37474F;stroke:#212121;stroke-width:1.193;stroke-miterlimit:10;}
	.st11{fill:#FEF9C5;}
	.st12{fill:#FAF291;}
	.st13{fill:#FAFBFB;}
	.st14{fill:#FFE0B2;}
</style>
<rect
   height="1080"
   width="1920"
   class="st0"
   y="0"
   x="0"
   id="XMLID_66_" />
<rect
   height="82.8"
   width="24.4"
   y="943.6"
   x="1688.1"
   id="XMLID_22_" />
<rect
   height="120.9"
   width="35.3"
   y="800.2"
   x="1824.8"
   id="XMLID_19_" />
<rect
   height="121.8"
   width="73.3"
   y="904.6"
   x="1789.5"
   id="XMLID_18_" />
<rect
   height="73.3"
   width="359"
   y="999.1"
   x="1561"
   id="XMLID_17_" />
<g
   id="XMLID_69_">
	<path
   d="M1636.2,868.5c0-12.2,0.1-24.4,0.1-36.7c-4.2-1.5-8.5-3-12.7-4.5v41.1H1636.2z"
   class="st1"
   id="XMLID_394_" />
	
		<rect
   height="26.4"
   width="45.5"
   class="st2"
   transform="matrix(-0.9388 -0.3445 0.3445 -0.9388 3014.2466 2214.3665)"
   y="826.2"
   x="1681.1"
   id="XMLID_393_" />
	
		<rect
   height="32.3"
   width="56.8"
   class="st3"
   transform="matrix(-0.9388 -0.3445 0.3445 -0.9388 2927.2075 2163.6519)"
   y="805.6"
   x="1627.4"
   id="XMLID_391_" />
	
		<rect
   height="46"
   width="87.5"
   class="st4"
   transform="matrix(-0.9388 -0.3445 0.3445 -0.9388 2804.4363 2092.1179)"
   y="773.9"
   x="1544.3"
   id="XMLID_390_" />
	
		<rect
   height="61.1"
   width="9.9"
   class="st5"
   transform="matrix(-0.9388 -0.3445 0.3445 -0.9388 2721.5588 2043.8282)"
   y="749.5"
   x="1537.4"
   id="XMLID_388_" />
	<path
   d="M1546,755.8c-13.6-4.4-28,1.7-32.5,13.7c-4.5,12.1,2.6,26.1,15.9,31.6"
   class="st6"
   id="XMLID_387_" />
	<path
   d="M1527.7,762.4c-0.9,0.4-1.9,0.8-2.7,1.3"
   class="st7"
   id="XMLID_384_" />
	<path
   d="M1539.5,759.1c-2.2,0.1-4.3,0.4-6.4,1"
   class="st7"
   id="XMLID_383_" />
	
		<rect
   height="4.3"
   width="11.3"
   class="st5"
   transform="matrix(-0.9388 -0.3445 0.3445 -0.9388 3066.8291 2235.2095)"
   y="843"
   x="1726.4"
   id="XMLID_381_" />
	
		<rect
   height="4.3"
   width="11.3"
   class="st5"
   transform="matrix(-0.9388 -0.3445 0.3445 -0.9388 3062.5686 2242.5212)"
   y="847"
   x="1724.9"
   id="XMLID_380_" />
	
		<rect
   height="4.3"
   width="11.3"
   class="st5"
   transform="matrix(-0.9388 -0.3445 0.3445 -0.9388 3058.3083 2249.8333)"
   y="851"
   x="1723.4"
   id="XMLID_378_" />
	<rect
   height="9.5"
   width="35"
   class="st5"
   y="868.5"
   x="1612.5"
   id="XMLID_375_" />
	<rect
   height="9.5"
   width="5.1"
   class="st5"
   y="868.5"
   x="1622.6"
   id="XMLID_374_" />
	<rect
   height="9.5"
   width="5.1"
   class="st5"
   y="868.5"
   x="1612.5"
   id="XMLID_372_" />
	<rect
   height="9.5"
   width="5.1"
   class="st5"
   y="868.5"
   x="1617.5"
   id="XMLID_371_" />
	<rect
   height="9.5"
   width="5.1"
   class="st5"
   y="868.5"
   x="1632.7"
   id="XMLID_369_" />
	<rect
   height="9.5"
   width="5.1"
   class="st5"
   y="868.5"
   x="1627.7"
   id="XMLID_368_" />
	<rect
   height="9.5"
   width="5.1"
   class="st5"
   y="868.5"
   x="1637.8"
   id="XMLID_365_" />
	<g
   id="XMLID_355_">
		<rect
   height="168"
   width="11.6"
   class="st1"
   y="877.9"
   x="1624.3"
   id="XMLID_364_" />
		<polygon
   points="1593.4,1045.5 1605,1046 1624.3,878.4 1612.7,877.9   "
   class="st1"
   id="XMLID_362_" />
		<polygon
   points="1655.4,1046 1667,1045.5 1647.6,877.9 1636,878.5   "
   class="st1"
   id="XMLID_361_" />
		<polygon
   points="1655.4,1046 1667,1045.4 1664.4,1023.3 1652.8,1023.9   "
   class="st1"
   id="XMLID_359_" />
		<rect
   height="22.6"
   width="11.6"
   class="st1"
   y="1023.3"
   x="1624.3"
   id="XMLID_358_" />
		<polygon
   points="1593.4,1045.4 1605,1046 1607.6,1023.6 1596,1023.1   "
   class="st1"
   id="XMLID_356_" />
	</g>
	<g
   id="XMLID_68_">
		<rect
   height="211.5"
   width="7"
   class="st8"
   y="865.1"
   x="1913"
   id="XMLID_718_" />
		<rect
   height="211.5"
   width="12.6"
   class="st9"
   y="865.2"
   x="1561"
   id="XMLID_531_" />
		<rect
   height="211.5"
   width="12.6"
   class="st9"
   y="865.2"
   x="1611.1"
   id="XMLID_708_" />
		<rect
   height="211.5"
   width="12.6"
   class="st9"
   y="865.2"
   x="1662.3"
   id="XMLID_712_" />
		<rect
   height="211.5"
   width="12.6"
   class="st9"
   y="865.2"
   x="1712.4"
   id="XMLID_710_" />
		<rect
   height="211.5"
   width="12.6"
   class="st9"
   y="865.2"
   x="1762"
   id="XMLID_716_" />
		<rect
   height="211.5"
   width="12.6"
   class="st9"
   y="865.2"
   x="1812.1"
   id="XMLID_714_" />
		<rect
   height="211.5"
   width="12.6"
   class="st9"
   y="865.1"
   x="1862.9"
   id="XMLID_720_" />
		<rect
   height="10.4"
   width="359"
   class="st9"
   y="865.2"
   x="1561"
   id="XMLID_520_" />
		<rect
   height="30.6"
   width="359"
   class="st10"
   y="1046.1"
   x="1561"
   id="XMLID_67_" />
	</g>
</g>
<path
   d="M351.9,546.6c-44.8-48.2-89.5-96.5-134.3-144.7c48.2,44.8,96.5,89.5,144.7,134.3  c12.2,12.2,19.9,24.6,17.1,27.5S364.2,558.8,351.9,546.6z"
   class="st11"
   id="XMLID_600_" />
<path
   d="M210.4,153.7C174,112.5,137.6,71.4,101.2,30.3c41.1,36.4,82.2,72.9,123.3,109.3  c10.2,10.2,15.4,21.7,11.5,25.6C232.2,169.1,220.6,163.8,210.4,153.7z"
   class="st12"
   id="XMLID_598_" />
<path
   d="M127.5,563.8c-28.9-31-57.7-61.9-86.6-92.9c31,28.9,61.9,57.7,92.9,86.6  c7.9,7.9,12.9,15.7,11.2,17.5C143.3,576.8,135.4,571.7,127.5,563.8z"
   class="st13"
   id="XMLID_73_" />
<path
   d="M246.2,888.8C182.2,821,118.3,753.2,54.4,685.4c67.8,63.9,135.6,127.8,203.4,191.8  c17.3,17.3,28.9,34.2,25.7,37.4C280.3,917.8,263.5,906.1,246.2,888.8z"
   class="st13"
   id="XMLID_76_" />
<path
   d="M1783.9,235.9c-59.5-63.4-119.1-126.8-178.6-190.2c63.4,59.5,126.8,119.1,190.2,178.6  c16.2,16.2,26.8,32.1,23.7,35.2C1815.9,262.7,1800,252.1,1783.9,235.9z"
   class="st11"
   id="XMLID_71_" />
<path
   d="M1771.3,705.4c-50.4-55.1-100.7-110.3-151.1-165.4c55.1,50.4,110.3,100.7,165.4,151.1  c13.9,13.9,22,28.5,18.1,32.4S1785.2,719.3,1771.3,705.4z"
   class="st11"
   id="XMLID_70_" />
<path
   d="M1858.2,506.6c-28.6-31.2-57.2-62.5-85.8-93.7c31.2,28.6,62.5,57.2,93.7,85.8  c7.9,7.9,12.5,16.1,10.4,18.3C1874.3,519.1,1866.1,514.4,1858.2,506.6z"
   class="st14"
   id="XMLID_72_" />
<circle
   r="6"
   cy="300.1"
   cx="67.6"
   class="st11"
   id="XMLID_74_" />
<circle
   r="2"
   cy="683.3"
   cx="231.9"
   class="st11"
   id="XMLID_75_" />
<circle
   r="1.5"
   cy="78.1"
   cx="40.9"
   class="st11"
   id="XMLID_77_" />
<circle
   r="2.5"
   cy="825.1"
   cx="73.6"
   class="st13"
   id="XMLID_78_" />
<circle
   r="6"
   cy="949.6"
   cx="217.6"
   class="st11"
   id="XMLID_79_" />
<circle
   r="6"
   cy="98.4"
   cx="1525"
   class="st13"
   id="XMLID_80_" />
<circle
   r="6"
   cy="72.1"
   cx="298.8"
   class="st11"
   id="XMLID_81_" />
<circle
   r="6"
   cy="189.1"
   cx="1862.9"
   class="st11"
   id="XMLID_1_" />
<circle
   r="6"
   cy="395.8"
   cx="1635.3"
   class="st11"
   id="XMLID_2_" />
<circle
   r="6"
   cy="800.2"
   cx="1883"
   class="st11"
   id="XMLID_3_" />
<circle
   r="2.5"
   cy="707.6"
   cx="1573.6"
   class="st13"
   id="XMLID_4_" />
<circle
   r="2.5"
   cy="564.2"
   cx="1804.7"
   class="st13"
   id="XMLID_5_" />
<circle
   r="2.5"
   cy="221.6"
   cx="337.6"
   class="st13"
   id="XMLID_6_" />
<rect
   height="15.2"
   width="645.1"
   y="1064.7"
   id="XMLID_7_" />
<rect
   height="61.8"
   width="14.6"
   y="1010.6"
   x="1525"
   id="XMLID_8_" />
<rect
   height="203.8"
   width="55"
   y="868.5"
   x="101.2"
   id="XMLID_9_" />
<rect
   height="56.8"
   width="35"
   y="1015.6"
   x="156.1"
   id="XMLID_10_" />
<rect
   height="30.9"
   width="265.5"
   y="1041.5"
   x="325.6"
   id="XMLID_11_" />
<rect
   height="66"
   width="31.5"
   y="999.1"
   x="325.6"
   id="XMLID_12_" />
<rect
   height="50.8"
   width="84.5"
   y="1021.6"
   x="250.6"
   id="XMLID_13_" />
<rect
   height="175.5"
   width="54.4"
   y="889.6"
   id="XMLID_14_" />
<rect
   height="101.3"
   width="26.6"
   y="955.6"
   x="380"
   id="XMLID_15_" />
<rect
   height="50.7"
   width="115.5"
   y="1006.2"
   x="475.6"
   id="XMLID_16_" />
<rect
   height="78"
   width="24"
   y="984.3"
   x="357.1"
   id="XMLID_20_" />
<rect
   height="89.8"
   width="24.2"
   y="982.6"
   x="1488.1"
   id="XMLID_21_" />
<rect
   height="95"
   width="33.7"
   y="977.3"
   x="42.4"
   id="XMLID_23_" />
<rect
   height="15.2"
   width="456.7"
   y="1064.7"
   x="1463.3"
   id="XMLID_24_" />
</svg>